<?xml version="1.0" encoding="utf-8" ?>
<svg baseProfile="full" height="98mm" version="1.1" viewBox="0,0,200,98" width="200mm" xmlns="http://www.w3.org/2000/svg" xmlns:ev="http://www.w3.org/2001/xml-events" xmlns:xlink="http://www.w3.org/1999/xlink"><defs /><rect fill="#222222" height="98" width="200" x="0" y="0" /><text fill="#FFFFFF" style="font-size:12px; font-family:Arial; font-weight:bold;" x="10" y="20">2025 Workouts</text><text fill="#FFFFFF" style="font-size:4px; font-family:Arial" x="10" y="78">ATHLETE</text><text fill="#FFFFFF" style="font-size:9px; font-family:Arial" x="10" y="88">ZJQ</text><text fill="#FFFFFF" style="font-size:4px; font-family:Arial" x="120" y="78">STATISTICS</text><text fill="#FFFFFF" style="font-size:3px; font-family:Arial" x="120" y="83">Number: 297</text><text fill="#FFFFFF" style="font-size:3px; font-family:Arial" x="120" y="88">Weekly: 8.5</text><text fill="#FFFFFF" style="font-size:3px; font-family:Arial" x="141" y="83">Total: 13581.4 km</text><text fill="#FFFFFF" style="font-size:3px; font-family:Arial" x="141" y="88">Avg: 45.7 km</text><text fill="#FFFFFF" style="font-size:3px; font-family:Arial" x="167" y="83">Min: 1.2 km</text><text fill="#FFFFFF" style="font-size:3px; font-family:Arial" x="167" y="88">Max: 310.9 km</text><text dominant-baseline="hanging" fill="#FFFFFF" style="font-size:10.0px; font-family:Arial;" x="10" y="30">2025</text><text dominant-baseline="hanging" fill="#FFFFFF" style="font-size:4.125px; font-family:Arial;" x="175" y="35">13581.4 km</text><text fill="#FFFFFF" style="font-size:2.5px; font-family:Arial" x="10.0" y="44">Jan</text><text fill="#FFFFFF" style="font-size:2.5px; font-family:Arial" x="25.5" y="44">Feb</text><text fill="#FFFFFF" style="font-size:2.5px; font-family:Arial" x="41.0" y="44">Mar</text><text fill="#FFFFFF" style="font-size:2.5px; font-family:Arial" x="56.5" y="44">Apr</text><text fill="#FFFFFF" style="font-size:2.5px; font-family:Arial" x="72.0" y="44">May</text><text fill="#FFFFFF" style="font-size:2.5px; font-family:Arial" x="87.5" y="44">Jun</text><text fill="#FFFFFF" style="font-size:2.5px; font-family:Arial" x="103.0" y="44">Jul</text><text fill="#FFFFFF" style="font-size:2.5px; font-family:Arial" x="118.5" y="44">Aug</text><text fill="#FFFFFF" style="font-size:2.5px; font-family:Arial" x="134.0" y="44">Sep</text><text fill="#FFFFFF" style="font-size:2.5px; font-family:Arial" x="149.5" y="44">Oct</text><text fill="#FFFFFF" style="font-size:2.5px; font-family:Arial" x="165.0" y="44">Nov</text><text fill="#FFFFFF" style="font-size:2.5px; font-family:Arial" x="180.5" y="44">Dec</text><rect fill="#444444" height="2.6" width="2.6" x="10.0" y="45.5"><title>2024-12-30</title></rect><rect fill="#444444" height="2.6" width="2.6" x="10.0" y="49.0"><title>2024-12-31</title></rect><rect fill="red" height="2.6" width="2.6" x="10.0" y="52.5"><title>2025-01-01 64.7 km</title></rect><rect fill="red" height="2.6" width="2.6" x="10.0" y="56.0"><title>2025-01-02 77.9 km</title></rect><rect fill="red" height="2.6" width="2.6" x="10.0" y="59.5"><title>2025-01-03 72.7 km</title></rect><rect fill="red" height="2.6" width="2.6" x="10.0" y="63.0"><title>2025-01-04 163.1 km</title></rect><rect fill="red" height="2.6" width="2.6" x="10.0" y="66.5"><title>2025-01-05 26.2 km</title></rect><rect fill="red" height="2.6" width="2.6" x="13.5" y="45.5"><title>2025-01-06 30.3 km</title></rect><rect fill="red" height="2.6" width="2.6" x="13.5" y="49.0"><title>2025-01-07 31.1 km</title></rect><rect fill="red" height="2.6" width="2.6" x="13.5" y="52.5"><title>2025-01-08 30.4 km</title></rect><rect fill="red" height="2.6" width="2.6" x="13.5" y="56.0"><title>2025-01-09 30.4 km</title></rect><rect fill="red" height="2.6" width="2.6" x="13.5" y="59.5"><title>2025-01-10 30.3 km</title></rect><rect fill="red" height="2.6" width="2.6" x="13.5" y="63.0"><title>2025-01-11 31.1 km</title></rect><rect fill="red" height="2.6" width="2.6" x="13.5" y="66.5"><title>2025-01-12 58.3 km</title></rect><rect fill="red" height="2.6" width="2.6" x="17.0" y="45.5"><title>2025-01-13 71.0 km</title></rect><rect fill="red" height="2.6" width="2.6" x="17.0" y="49.0"><title>2025-01-14 64.9 km</title></rect><rect fill="red" height="2.6" width="2.6" x="17.0" y="52.5"><title>2025-01-15 31.0 km</title></rect><rect fill="red" height="2.6" width="2.6" x="17.0" y="56.0"><title>2025-01-16 30.4 km</title></rect><rect fill="red" height="2.6" width="2.6" x="17.0" y="59.5"><title>2025-01-17 44.1 km</title></rect><rect fill="red" height="2.6" width="2.6" x="17.0" y="63.0"><title>2025-01-18 31.3 km</title></rect><rect fill="red" height="2.6" width="2.6" x="17.0" y="66.5"><title>2025-01-19 61.7 km</title></rect><rect fill="red" height="2.6" width="2.6" x="20.5" y="45.5"><title>2025-01-20 31.3 km</title></rect><rect fill="red" height="2.6" width="2.6" x="20.5" y="49.0"><title>2025-01-21 33.0 km</title></rect><rect fill="red" height="2.6" width="2.6" x="20.5" y="52.5"><title>2025-01-22 22.9 km</title></rect><rect fill="red" height="2.6" width="2.6" x="20.5" y="56.0"><title>2025-01-23 61.0 km</title></rect><rect fill="red" height="2.6" width="2.6" x="20.5" y="59.5"><title>2025-01-24 137.7 km</title></rect><rect fill="red" height="2.6" width="2.6" x="20.5" y="63.0"><title>2025-01-25 35.6 km</title></rect><rect fill="red" height="2.6" width="2.6" x="20.5" y="66.5"><title>2025-01-26 25.1 km</title></rect><rect fill="red" height="2.6" width="2.6" x="24.0" y="45.5"><title>2025-01-27 25.1 km</title></rect><rect fill="red" height="2.6" width="2.6" x="24.0" y="49.0"><title>2025-01-28 37.7 km</title></rect><rect fill="red" height="2.6" width="2.6" x="24.0" y="52.5"><title>2025-01-29 31.7 km</title></rect><rect fill="red" height="2.6" width="2.6" x="24.0" y="56.0"><title>2025-01-30 75.4 km</title></rect><rect fill="red" height="2.6" width="2.6" x="24.0" y="59.5"><title>2025-01-31 27.3 km</title></rect><rect fill="red" height="2.6" width="2.6" x="24.0" y="63.0"><title>2025-02-01 57.0 km</title></rect><rect fill="red" height="2.6" width="2.6" x="24.0" y="66.5"><title>2025-02-02 30.5 km</title></rect><rect fill="red" height="2.6" width="2.6" x="27.5" y="45.5"><title>2025-02-03 30.1 km</title></rect><rect fill="red" height="2.6" width="2.6" x="27.5" y="49.0"><title>2025-02-04 52.7 km</title></rect><rect fill="red" height="2.6" width="2.6" x="27.5" y="52.5"><title>2025-02-05 26.2 km</title></rect><rect fill="red" height="2.6" width="2.6" x="27.5" y="56.0"><title>2025-02-06 20.2 km</title></rect><rect fill="red" height="2.6" width="2.6" x="27.5" y="59.5"><title>2025-02-07 87.9 km</title></rect><rect fill="red" height="2.6" width="2.6" x="27.5" y="63.0"><title>2025-02-08 25.2 km</title></rect><rect fill="red" height="2.6" width="2.6" x="27.5" y="66.5"><title>2025-02-09 88.1 km</title></rect><rect fill="red" height="2.6" width="2.6" x="31.0" y="45.5"><title>2025-02-10 21.0 km</title></rect><rect fill="red" height="2.6" width="2.6" x="31.0" y="49.0"><title>2025-02-11 30.7 km</title></rect><rect fill="#4dd2ff" height="2.6" width="2.6" x="31.0" y="52.5"><title>2025-02-12 1.9 km</title></rect><rect fill="red" height="2.6" width="2.6" x="31.0" y="56.0"><title>2025-02-13 20.3 km</title></rect><rect fill="red" height="2.6" width="2.6" x="31.0" y="59.5"><title>2025-02-14 142.1 km</title></rect><rect fill="red" height="2.6" width="2.6" x="31.0" y="63.0"><title>2025-02-15 156.4 km</title></rect><rect fill="red" height="2.6" width="2.6" x="31.0" y="66.5"><title>2025-02-16 27.3 km</title></rect><rect fill="red" height="2.6" width="2.6" x="34.5" y="45.5"><title>2025-02-17 49.4 km</title></rect><rect fill="red" height="2.6" width="2.6" x="34.5" y="49.0"><title>2025-02-18 47.4 km</title></rect><rect fill="red" height="2.6" width="2.6" x="34.5" y="52.5"><title>2025-02-19 24.7 km</title></rect><rect fill="red" height="2.6" width="2.6" x="34.5" y="56.0"><title>2025-02-20 55.4 km</title></rect><rect fill="#fff200" height="2.6" width="2.6" x="34.5" y="59.5"><title>2025-02-21 18.2 km</title></rect><rect fill="red" height="2.6" width="2.6" x="34.5" y="63.0"><title>2025-02-22 27.1 km</title></rect><rect fill="#fff100" height="2.6" width="2.6" x="34.5" y="66.5"><title>2025-02-23 18.9 km</title></rect><rect fill="red" height="2.6" width="2.6" x="38.0" y="45.5"><title>2025-02-24 22.7 km</title></rect><rect fill="#fff600" height="2.6" width="2.6" x="38.0" y="49.0"><title>2025-02-25 12.9 km</title></rect><rect fill="red" height="2.6" width="2.6" x="38.0" y="52.5"><title>2025-02-26 62.7 km</title></rect><rect fill="#fff300" height="2.6" width="2.6" x="38.0" y="56.0"><title>2025-02-27 16.4 km</title></rect><rect fill="red" height="2.6" width="2.6" x="38.0" y="59.5"><title>2025-02-28 82.8 km</title></rect><rect fill="red" height="2.6" width="2.6" x="38.0" y="63.0"><title>2025-03-01 53.5 km</title></rect><rect fill="red" height="2.6" width="2.6" x="38.0" y="66.5"><title>2025-03-02 194.3 km</title></rect><rect fill="red" height="2.6" width="2.6" x="41.5" y="45.5"><title>2025-03-03 67.8 km</title></rect><rect fill="#4dd2ff" height="2.6" width="2.6" x="41.5" y="49.0"><title>2025-03-04 6.0 km</title></rect><rect fill="#4dd2ff" height="2.6" width="2.6" x="41.5" y="52.5"><title>2025-03-05 7.4 km</title></rect><rect fill="red" height="2.6" width="2.6" x="41.5" y="56.0"><title>2025-03-06 72.1 km</title></rect><rect fill="red" height="2.6" width="2.6" x="41.5" y="59.5"><title>2025-03-07 33.8 km</title></rect><rect fill="red" height="2.6" width="2.6" x="41.5" y="63.0"><title>2025-03-08 22.3 km</title></rect><rect fill="red" height="2.6" width="2.6" x="41.5" y="66.5"><title>2025-03-09 114.5 km</title></rect><rect fill="red" height="2.6" width="2.6" x="45.0" y="45.5"><title>2025-03-10 45.1 km</title></rect><rect fill="red" height="2.6" width="2.6" x="45.0" y="49.0"><title>2025-03-11 31.8 km</title></rect><rect fill="red" height="2.6" width="2.6" x="45.0" y="52.5"><title>2025-03-12 53.9 km</title></rect><rect fill="red" height="2.6" width="2.6" x="45.0" y="56.0"><title>2025-03-13 47.7 km</title></rect><rect fill="red" height="2.6" width="2.6" x="45.0" y="59.5"><title>2025-03-14 51.3 km</title></rect><rect fill="red" height="2.6" width="2.6" x="45.0" y="63.0"><title>2025-03-15 32.5 km</title></rect><rect fill="red" height="2.6" width="2.6" x="45.0" y="66.5"><title>2025-03-16 138.6 km</title></rect><rect fill="red" height="2.6" width="2.6" x="48.5" y="45.5"><title>2025-03-17 34.2 km</title></rect><rect fill="red" height="2.6" width="2.6" x="48.5" y="49.0"><title>2025-03-18 52.4 km</title></rect><rect fill="red" height="2.6" width="2.6" x="48.5" y="52.5"><title>2025-03-19 65.7 km</title></rect><rect fill="red" height="2.6" width="2.6" x="48.5" y="56.0"><title>2025-03-20 34.8 km</title></rect><rect fill="red" height="2.6" width="2.6" x="48.5" y="59.5"><title>2025-03-21 30.2 km</title></rect><rect fill="red" height="2.6" width="2.6" x="48.5" y="63.0"><title>2025-03-22 42.2 km</title></rect><rect fill="red" height="2.6" width="2.6" x="48.5" y="66.5"><title>2025-03-23 38.8 km</title></rect><rect fill="red" height="2.6" width="2.6" x="52.0" y="45.5"><title>2025-03-24 21.9 km</title></rect><rect fill="red" height="2.6" width="2.6" x="52.0" y="49.0"><title>2025-03-25 59.0 km</title></rect><rect fill="red" height="2.6" width="2.6" x="52.0" y="52.5"><title>2025-03-26 25.3 km</title></rect><rect fill="red" height="2.6" width="2.6" x="52.0" y="56.0"><title>2025-03-27 140.6 km</title></rect><rect fill="red" height="2.6" width="2.6" x="52.0" y="59.5"><title>2025-03-28 20.3 km</title></rect><rect fill="red" height="2.6" width="2.6" x="52.0" y="63.0"><title>2025-03-29 55.4 km</title></rect><rect fill="red" height="2.6" width="2.6" x="52.0" y="66.5"><title>2025-03-30 21.7 km</title></rect><rect fill="#fff600" height="2.6" width="2.6" x="55.5" y="45.5"><title>2025-03-31 12.4 km</title></rect><rect fill="red" height="2.6" width="2.6" x="55.5" y="49.0"><title>2025-04-01 59.9 km</title></rect><rect fill="red" height="2.6" width="2.6" x="55.5" y="52.5"><title>2025-04-02 102.2 km</title></rect><rect fill="red" height="2.6" width="2.6" x="55.5" y="56.0"><title>2025-04-03 76.6 km</title></rect><rect fill="red" height="2.6" width="2.6" x="55.5" y="59.5"><title>2025-04-04 333.4 km</title></rect><rect fill="red" height="2.6" width="2.6" x="55.5" y="63.0"><title>2025-04-05 32.7 km</title></rect><rect fill="red" height="2.6" width="2.6" x="55.5" y="66.5"><title>2025-04-06 65.3 km</title></rect><rect fill="red" height="2.6" width="2.6" x="59.0" y="45.5"><title>2025-04-07 82.8 km</title></rect><rect fill="red" height="2.6" width="2.6" x="59.0" y="49.0"><title>2025-04-08 57.7 km</title></rect><rect fill="red" height="2.6" width="2.6" x="59.0" y="52.5"><title>2025-04-09 23.9 km</title></rect><rect fill="red" height="2.6" width="2.6" x="59.0" y="56.0"><title>2025-04-10 21.0 km</title></rect><rect fill="red" height="2.6" width="2.6" x="59.0" y="59.5"><title>2025-04-11 29.9 km</title></rect><rect fill="red" height="2.6" width="2.6" x="59.0" y="63.0"><title>2025-04-12 32.2 km</title></rect><rect fill="red" height="2.6" width="2.6" x="59.0" y="66.5"><title>2025-04-13 165.4 km</title></rect><rect fill="red" height="2.6" width="2.6" x="62.5" y="45.5"><title>2025-04-14 35.5 km</title></rect><rect fill="red" height="2.6" width="2.6" x="62.5" y="49.0"><title>2025-04-15 83.8 km</title></rect><rect fill="red" height="2.6" width="2.6" x="62.5" y="52.5"><title>2025-04-16 31.2 km</title></rect><rect fill="red" height="2.6" width="2.6" x="62.5" y="56.0"><title>2025-04-17 81.0 km</title></rect><rect fill="red" height="2.6" width="2.6" x="62.5" y="59.5"><title>2025-04-18 61.7 km</title></rect><rect fill="red" height="2.6" width="2.6" x="62.5" y="63.0"><title>2025-04-19 54.8 km</title></rect><rect fill="red" height="2.6" width="2.6" x="62.5" y="66.5"><title>2025-04-20 36.1 km</title></rect><rect fill="red" height="2.6" width="2.6" x="66.0" y="45.5"><title>2025-04-21 90.7 km</title></rect><rect fill="red" height="2.6" width="2.6" x="66.0" y="49.0"><title>2025-04-22 64.7 km</title></rect><rect fill="#fff300" height="2.6" width="2.6" x="66.0" y="52.5"><title>2025-04-23 17.0 km</title></rect><rect fill="red" height="2.6" width="2.6" x="66.0" y="56.0"><title>2025-04-24 74.5 km</title></rect><rect fill="red" height="2.6" width="2.6" x="66.0" y="59.5"><title>2025-04-25 21.5 km</title></rect><rect fill="red" height="2.6" width="2.6" x="66.0" y="63.0"><title>2025-04-26 22.4 km</title></rect><rect fill="red" height="2.6" width="2.6" x="66.0" y="66.5"><title>2025-04-27 56.8 km</title></rect><rect fill="red" height="2.6" width="2.6" x="69.5" y="45.5"><title>2025-04-28 86.4 km</title></rect><rect fill="red" height="2.6" width="2.6" x="69.5" y="49.0"><title>2025-04-29 82.4 km</title></rect><rect fill="red" height="2.6" width="2.6" x="69.5" y="52.5"><title>2025-04-30 65.2 km</title></rect><rect fill="red" height="2.6" width="2.6" x="69.5" y="56.0"><title>2025-05-01 136.2 km</title></rect><rect fill="red" height="2.6" width="2.6" x="69.5" y="59.5"><title>2025-05-02 23.4 km</title></rect><rect fill="red" height="2.6" width="2.6" x="69.5" y="63.0"><title>2025-05-03 180.6 km</title></rect><rect fill="red" height="2.6" width="2.6" x="69.5" y="66.5"><title>2025-05-04 66.3 km</title></rect><rect fill="red" height="2.6" width="2.6" x="73.0" y="45.5"><title>2025-05-05 26.0 km</title></rect><rect fill="red" height="2.6" width="2.6" x="73.0" y="49.0"><title>2025-05-06 64.7 km</title></rect><rect fill="red" height="2.6" width="2.6" x="73.0" y="52.5"><title>2025-05-07 25.1 km</title></rect><rect fill="red" height="2.6" width="2.6" x="73.0" y="56.0"><title>2025-05-08 73.3 km</title></rect><rect fill="red" height="2.6" width="2.6" x="73.0" y="59.5"><title>2025-05-09 49.4 km</title></rect><rect fill="red" height="2.6" width="2.6" x="73.0" y="63.0"><title>2025-05-10 72.9 km</title></rect><rect fill="red" height="2.6" width="2.6" x="73.0" y="66.5"><title>2025-05-11 33.2 km</title></rect><rect fill="red" height="2.6" width="2.6" x="76.5" y="45.5"><title>2025-05-12 173.3 km</title></rect><rect fill="red" height="2.6" width="2.6" x="76.5" y="49.0"><title>2025-05-13 91.4 km</title></rect><rect fill="red" height="2.6" width="2.6" x="76.5" y="52.5"><title>2025-05-14 20.5 km</title></rect><rect fill="red" height="2.6" width="2.6" x="76.5" y="56.0"><title>2025-05-15 134.3 km</title></rect><rect fill="red" height="2.6" width="2.6" x="76.5" y="59.5"><title>2025-05-16 28.5 km</title></rect><rect fill="#4dd2ff" height="2.6" width="2.6" x="76.5" y="63.0"><title>2025-05-17 5.4 km</title></rect><rect fill="red" height="2.6" width="2.6" x="76.5" y="66.5"><title>2025-05-18 30.5 km</title></rect><rect fill="#4dd2ff" height="2.6" width="2.6" x="80.0" y="45.5"><title>2025-05-19 7.2 km</title></rect><rect fill="red" height="2.6" width="2.6" x="80.0" y="49.0"><title>2025-05-20 53.3 km</title></rect><rect fill="red" height="2.6" width="2.6" x="80.0" y="52.5"><title>2025-05-21 40.4 km</title></rect><rect fill="#4dd2ff" height="2.6" width="2.6" x="80.0" y="56.0"><title>2025-05-22 8.1 km</title></rect><rect fill="red" height="2.6" width="2.6" x="80.0" y="59.5"><title>2025-05-23 151.2 km</title></rect><rect fill="red" height="2.6" width="2.6" x="80.0" y="63.0"><title>2025-05-24 23.2 km</title></rect><rect fill="red" height="2.6" width="2.6" x="80.0" y="66.5"><title>2025-05-25 65.7 km</title></rect><rect fill="red" height="2.6" width="2.6" x="83.5" y="45.5"><title>2025-05-26 88.9 km</title></rect><rect fill="red" height="2.6" width="2.6" x="83.5" y="49.0"><title>2025-05-27 277.8 km</title></rect><rect fill="red" height="2.6" width="2.6" x="83.5" y="52.5"><title>2025-05-28 29.3 km</title></rect><rect fill="red" height="2.6" width="2.6" x="83.5" y="56.0"><title>2025-05-29 30.7 km</title></rect><rect fill="red" height="2.6" width="2.6" x="83.5" y="59.5"><title>2025-05-30 139.0 km</title></rect><rect fill="red" height="2.6" width="2.6" x="83.5" y="63.0"><title>2025-05-31 50.2 km</title></rect><rect fill="#4dd2ff" height="2.6" width="2.6" x="83.5" y="66.5"><title>2025-06-01 4.6 km</title></rect><rect fill="#fff800" height="2.6" width="2.6" x="87.0" y="45.5"><title>2025-06-02 10.8 km</title></rect><rect fill="red" height="2.6" width="2.6" x="87.0" y="49.0"><title>2025-06-03 30.4 km</title></rect><rect fill="red" height="2.6" width="2.6" x="87.0" y="52.5"><title>2025-06-04 93.6 km</title></rect><rect fill="red" height="2.6" width="2.6" x="87.0" y="56.0"><title>2025-06-05 80.5 km</title></rect><rect fill="red" height="2.6" width="2.6" x="87.0" y="59.5"><title>2025-06-06 165.1 km</title></rect><rect fill="red" height="2.6" width="2.6" x="87.0" y="63.0"><title>2025-06-07 106.5 km</title></rect><rect fill="red" height="2.6" width="2.6" x="87.0" y="66.5"><title>2025-06-08 25.5 km</title></rect><rect fill="red" height="2.6" width="2.6" x="90.5" y="45.5"><title>2025-06-09 60.6 km</title></rect><rect fill="red" height="2.6" width="2.6" x="90.5" y="49.0"><title>2025-06-10 61.1 km</title></rect><rect fill="#fff100" height="2.6" width="2.6" x="90.5" y="52.5"><title>2025-06-11 20.0 km</title></rect><rect fill="red" height="2.6" width="2.6" x="90.5" y="56.0"><title>2025-06-12 39.7 km</title></rect><rect fill="red" height="2.6" width="2.6" x="90.5" y="59.5"><title>2025-06-13 26.4 km</title></rect><rect fill="red" height="2.6" width="2.6" x="90.5" y="63.0"><title>2025-06-14 60.5 km</title></rect><rect fill="red" height="2.6" width="2.6" x="90.5" y="66.5"><title>2025-06-15 70.8 km</title></rect><rect fill="red" height="2.6" width="2.6" x="94.0" y="45.5"><title>2025-06-16 56.3 km</title></rect><rect fill="red" height="2.6" width="2.6" x="94.0" y="49.0"><title>2025-06-17 95.2 km</title></rect><rect fill="red" height="2.6" width="2.6" x="94.0" y="52.5"><title>2025-06-18 73.5 km</title></rect><rect fill="red" height="2.6" width="2.6" x="94.0" y="56.0"><title>2025-06-19 82.0 km</title></rect><rect fill="red" height="2.6" width="2.6" x="94.0" y="59.5"><title>2025-06-20 70.7 km</title></rect><rect fill="red" height="2.6" width="2.6" x="94.0" y="63.0"><title>2025-06-21 54.6 km</title></rect><rect fill="#4dd2ff" height="2.6" width="2.6" x="94.0" y="66.5"><title>2025-06-22 6.6 km</title></rect><rect fill="red" height="2.6" width="2.6" x="97.5" y="45.5"><title>2025-06-23 20.0 km</title></rect><rect fill="red" height="2.6" width="2.6" x="97.5" y="49.0"><title>2025-06-24 84.1 km</title></rect><rect fill="#4dd2ff" height="2.6" width="2.6" x="97.5" y="52.5"><title>2025-06-25 9.7 km</title></rect><rect fill="red" height="2.6" width="2.6" x="97.5" y="56.0"><title>2025-06-26 92.2 km</title></rect><rect fill="red" height="2.6" width="2.6" x="97.5" y="59.5"><title>2025-06-27 75.4 km</title></rect><rect fill="red" height="2.6" width="2.6" x="97.5" y="63.0"><title>2025-06-28 70.2 km</title></rect><rect fill="red" height="2.6" width="2.6" x="97.5" y="66.5"><title>2025-06-29 78.0 km</title></rect><rect fill="red" height="2.6" width="2.6" x="101.0" y="45.5"><title>2025-06-30 120.1 km</title></rect><rect fill="red" height="2.6" width="2.6" x="101.0" y="49.0"><title>2025-07-01 40.1 km</title></rect><rect fill="red" height="2.6" width="2.6" x="101.0" y="52.5"><title>2025-07-02 67.1 km</title></rect><rect fill="red" height="2.6" width="2.6" x="101.0" y="56.0"><title>2025-07-03 41.3 km</title></rect><rect fill="red" height="2.6" width="2.6" x="101.0" y="59.5"><title>2025-07-04 30.8 km</title></rect><rect fill="red" height="2.6" width="2.6" x="101.0" y="63.0"><title>2025-07-05 25.2 km</title></rect><rect fill="#4dd2ff" height="2.6" width="2.6" x="101.0" y="66.5"><title>2025-07-06 6.3 km</title></rect><rect fill="red" height="2.6" width="2.6" x="104.5" y="45.5"><title>2025-07-07 50.8 km</title></rect><rect fill="red" height="2.6" width="2.6" x="104.5" y="49.0"><title>2025-07-08 63.9 km</title></rect><rect fill="red" height="2.6" width="2.6" x="104.5" y="52.5"><title>2025-07-09 30.8 km</title></rect><rect fill="red" height="2.6" width="2.6" x="104.5" y="56.0"><title>2025-07-10 35.5 km</title></rect><rect fill="red" height="2.6" width="2.6" x="104.5" y="59.5"><title>2025-07-11 56.1 km</title></rect><rect fill="red" height="2.6" width="2.6" x="104.5" y="63.0"><title>2025-07-12 88.0 km</title></rect><rect fill="red" height="2.6" width="2.6" x="104.5" y="66.5"><title>2025-07-13 132.1 km</title></rect><rect fill="red" height="2.6" width="2.6" x="108.0" y="45.5"><title>2025-07-14 73.8 km</title></rect><rect fill="red" height="2.6" width="2.6" x="108.0" y="49.0"><title>2025-07-15 36.7 km</title></rect><rect fill="red" height="2.6" width="2.6" x="108.0" y="52.5"><title>2025-07-16 61.8 km</title></rect><rect fill="red" height="2.6" width="2.6" x="108.0" y="56.0"><title>2025-07-17 25.4 km</title></rect><rect fill="red" height="2.6" width="2.6" x="108.0" y="59.5"><title>2025-07-18 38.5 km</title></rect><rect fill="red" height="2.6" width="2.6" x="108.0" y="63.0"><title>2025-07-19 25.3 km</title></rect><rect fill="red" height="2.6" width="2.6" x="108.0" y="66.5"><title>2025-07-20 25.5 km</title></rect><rect fill="red" height="2.6" width="2.6" x="111.5" y="45.5"><title>2025-07-21 25.6 km</title></rect><rect fill="red" height="2.6" width="2.6" x="111.5" y="49.0"><title>2025-07-22 25.3 km</title></rect><rect fill="red" height="2.6" width="2.6" x="111.5" y="52.5"><title>2025-07-23 63.4 km</title></rect><rect fill="red" height="2.6" width="2.6" x="111.5" y="56.0"><title>2025-07-24 113.2 km</title></rect><rect fill="red" height="2.6" width="2.6" x="111.5" y="59.5"><title>2025-07-25 21.8 km</title></rect><rect fill="#4dd2ff" height="2.6" width="2.6" x="111.5" y="63.0"><title>2025-07-26 1.2 km</title></rect><rect fill="red" height="2.6" width="2.6" x="111.5" y="66.5"><title>2025-07-27 25.1 km</title></rect><rect fill="#4dd2ff" height="2.6" width="2.6" x="115.0" y="45.5"><title>2025-07-28 9.2 km</title></rect><rect fill="#4dd2ff" height="2.6" width="2.6" x="115.0" y="49.0"><title>2025-07-29 5.1 km</title></rect><rect fill="red" height="2.6" width="2.6" x="115.0" y="52.5"><title>2025-07-30 123.1 km</title></rect><rect fill="red" height="2.6" width="2.6" x="115.0" y="56.0"><title>2025-07-31 67.4 km</title></rect><rect fill="#4dd2ff" height="2.6" width="2.6" x="115.0" y="59.5"><title>2025-08-01 5.8 km</title></rect><rect fill="red" height="2.6" width="2.6" x="115.0" y="63.0"><title>2025-08-02 57.5 km</title></rect><rect fill="#4dd2ff" height="2.6" width="2.6" x="115.0" y="66.5"><title>2025-08-03 7.7 km</title></rect><rect fill="red" height="2.6" width="2.6" x="118.5" y="45.5"><title>2025-08-04 93.2 km</title></rect><rect fill="#fff600" height="2.6" width="2.6" x="118.5" y="49.0"><title>2025-08-05 12.4 km</title></rect><rect fill="red" height="2.6" width="2.6" x="118.5" y="52.5"><title>2025-08-06 240.6 km</title></rect><rect fill="red" height="2.6" width="2.6" x="118.5" y="56.0"><title>2025-08-07 64.3 km</title></rect><rect fill="red" height="2.6" width="2.6" x="118.5" y="59.5"><title>2025-08-08 39.6 km</title></rect><rect fill="red" height="2.6" width="2.6" x="118.5" y="63.0"><title>2025-08-09 181.5 km</title></rect><rect fill="red" height="2.6" width="2.6" x="118.5" y="66.5"><title>2025-08-10 28.9 km</title></rect><rect fill="red" height="2.6" width="2.6" x="122.0" y="45.5"><title>2025-08-11 73.9 km</title></rect><rect fill="red" height="2.6" width="2.6" x="122.0" y="49.0"><title>2025-08-12 85.6 km</title></rect><rect fill="red" height="2.6" width="2.6" x="122.0" y="52.5"><title>2025-08-13 25.2 km</title></rect><rect fill="red" height="2.6" width="2.6" x="122.0" y="56.0"><title>2025-08-14 74.7 km</title></rect><rect fill="red" height="2.6" width="2.6" x="122.0" y="59.5"><title>2025-08-15 26.9 km</title></rect><rect fill="#4dd2ff" height="2.6" width="2.6" x="122.0" y="63.0"><title>2025-08-16 1.2 km</title></rect><rect fill="#444444" height="2.6" width="2.6" x="122.0" y="66.5"><title>2025-08-17</title></rect><rect fill="#444444" height="2.6" width="2.6" x="125.5" y="45.5"><title>2025-08-18</title></rect><rect fill="red" height="2.6" width="2.6" x="125.5" y="49.0"><title>2025-08-19 66.7 km</title></rect><rect fill="red" height="2.6" width="2.6" x="125.5" y="52.5"><title>2025-08-20 49.1 km</title></rect><rect fill="red" height="2.6" width="2.6" x="125.5" y="56.0"><title>2025-08-21 88.9 km</title></rect><rect fill="red" height="2.6" width="2.6" x="125.5" y="59.5"><title>2025-08-22 51.0 km</title></rect><rect fill="red" height="2.6" width="2.6" x="125.5" y="63.0"><title>2025-08-23 76.9 km</title></rect><rect fill="red" height="2.6" width="2.6" x="125.5" y="66.5"><title>2025-08-24 122.9 km</title></rect><rect fill="red" height="2.6" width="2.6" x="129.0" y="45.5"><title>2025-08-25 115.6 km</title></rect><rect fill="red" height="2.6" width="2.6" x="129.0" y="49.0"><title>2025-08-26 50.0 km</title></rect><rect fill="#4dd2ff" height="2.6" width="2.6" x="129.0" y="52.5"><title>2025-08-27 4.9 km</title></rect><rect fill="#444444" height="2.6" width="2.6" x="129.0" y="56.0"><title>2025-08-28</title></rect><rect fill="#444444" height="2.6" width="2.6" x="129.0" y="59.5"><title>2025-08-29</title></rect><rect fill="#444444" height="2.6" width="2.6" x="129.0" y="63.0"><title>2025-08-30</title></rect><rect fill="#444444" height="2.6" width="2.6" x="129.0" y="66.5"><title>2025-08-31</title></rect><rect fill="#444444" height="2.6" width="2.6" x="132.5" y="45.5"><title>2025-09-01</title></rect><rect fill="#444444" height="2.6" width="2.6" x="132.5" y="49.0"><title>2025-09-02</title></rect><rect fill="#444444" height="2.6" width="2.6" x="132.5" y="52.5"><title>2025-09-03</title></rect><rect fill="#444444" height="2.6" width="2.6" x="132.5" y="56.0"><title>2025-09-04</title></rect><rect fill="#444444" height="2.6" width="2.6" x="132.5" y="59.5"><title>2025-09-05</title></rect><rect fill="#444444" height="2.6" width="2.6" x="132.5" y="63.0"><title>2025-09-06</title></rect><rect fill="#444444" height="2.6" width="2.6" x="132.5" y="66.5"><title>2025-09-07</title></rect><rect fill="#444444" height="2.6" width="2.6" x="136.0" y="45.5"><title>2025-09-08</title></rect><rect fill="#444444" height="2.6" width="2.6" x="136.0" y="49.0"><title>2025-09-09</title></rect><rect fill="#444444" height="2.6" width="2.6" x="136.0" y="52.5"><title>2025-09-10</title></rect><rect fill="#444444" height="2.6" width="2.6" x="136.0" y="56.0"><title>2025-09-11</title></rect><rect fill="#444444" height="2.6" width="2.6" x="136.0" y="59.5"><title>2025-09-12</title></rect><rect fill="#444444" height="2.6" width="2.6" x="136.0" y="63.0"><title>2025-09-13</title></rect><rect fill="#444444" height="2.6" width="2.6" x="136.0" y="66.5"><title>2025-09-14</title></rect><rect fill="#444444" height="2.6" width="2.6" x="139.5" y="45.5"><title>2025-09-15</title></rect><rect fill="#444444" height="2.6" width="2.6" x="139.5" y="49.0"><title>2025-09-16</title></rect><rect fill="#444444" height="2.6" width="2.6" x="139.5" y="52.5"><title>2025-09-17</title></rect><rect fill="#444444" height="2.6" width="2.6" x="139.5" y="56.0"><title>2025-09-18</title></rect><rect fill="#444444" height="2.6" width="2.6" x="139.5" y="59.5"><title>2025-09-19</title></rect><rect fill="#444444" height="2.6" width="2.6" x="139.5" y="63.0"><title>2025-09-20</title></rect><rect fill="#444444" height="2.6" width="2.6" x="139.5" y="66.5"><title>2025-09-21</title></rect><rect fill="#444444" height="2.6" width="2.6" x="143.0" y="45.5"><title>2025-09-22</title></rect><rect fill="#444444" height="2.6" width="2.6" x="143.0" y="49.0"><title>2025-09-23</title></rect><rect fill="#444444" height="2.6" width="2.6" x="143.0" y="52.5"><title>2025-09-24</title></rect><rect fill="#444444" height="2.6" width="2.6" x="143.0" y="56.0"><title>2025-09-25</title></rect><rect fill="#444444" height="2.6" width="2.6" x="143.0" y="59.5"><title>2025-09-26</title></rect><rect fill="#444444" height="2.6" width="2.6" x="143.0" y="63.0"><title>2025-09-27</title></rect><rect fill="#444444" height="2.6" width="2.6" x="143.0" y="66.5"><title>2025-09-28</title></rect><rect fill="#444444" height="2.6" width="2.6" x="146.5" y="45.5"><title>2025-09-29</title></rect><rect fill="#444444" height="2.6" width="2.6" x="146.5" y="49.0"><title>2025-09-30</title></rect><rect fill="#444444" height="2.6" width="2.6" x="146.5" y="52.5"><title>2025-10-01</title></rect><rect fill="#444444" height="2.6" width="2.6" x="146.5" y="56.0"><title>2025-10-02</title></rect><rect fill="#444444" height="2.6" width="2.6" x="146.5" y="59.5"><title>2025-10-03</title></rect><rect fill="#444444" height="2.6" width="2.6" x="146.5" y="63.0"><title>2025-10-04</title></rect><rect fill="#444444" height="2.6" width="2.6" x="146.5" y="66.5"><title>2025-10-05</title></rect><rect fill="#444444" height="2.6" width="2.6" x="150.0" y="45.5"><title>2025-10-06</title></rect><rect fill="#444444" height="2.6" width="2.6" x="150.0" y="49.0"><title>2025-10-07</title></rect><rect fill="#444444" height="2.6" width="2.6" x="150.0" y="52.5"><title>2025-10-08</title></rect><rect fill="#444444" height="2.6" width="2.6" x="150.0" y="56.0"><title>2025-10-09</title></rect><rect fill="#444444" height="2.6" width="2.6" x="150.0" y="59.5"><title>2025-10-10</title></rect><rect fill="#444444" height="2.6" width="2.6" x="150.0" y="63.0"><title>2025-10-11</title></rect><rect fill="#444444" height="2.6" width="2.6" x="150.0" y="66.5"><title>2025-10-12</title></rect><rect fill="#444444" height="2.6" width="2.6" x="153.5" y="45.5"><title>2025-10-13</title></rect><rect fill="#444444" height="2.6" width="2.6" x="153.5" y="49.0"><title>2025-10-14</title></rect><rect fill="#444444" height="2.6" width="2.6" x="153.5" y="52.5"><title>2025-10-15</title></rect><rect fill="#444444" height="2.6" width="2.6" x="153.5" y="56.0"><title>2025-10-16</title></rect><rect fill="#444444" height="2.6" width="2.6" x="153.5" y="59.5"><title>2025-10-17</title></rect><rect fill="#444444" height="2.6" width="2.6" x="153.5" y="63.0"><title>2025-10-18</title></rect><rect fill="#444444" height="2.6" width="2.6" x="153.5" y="66.5"><title>2025-10-19</title></rect><rect fill="#444444" height="2.6" width="2.6" x="157.0" y="45.5"><title>2025-10-20</title></rect><rect fill="#444444" height="2.6" width="2.6" x="157.0" y="49.0"><title>2025-10-21</title></rect><rect fill="#444444" height="2.6" width="2.6" x="157.0" y="52.5"><title>2025-10-22</title></rect><rect fill="#444444" height="2.6" width="2.6" x="157.0" y="56.0"><title>2025-10-23</title></rect><rect fill="#444444" height="2.6" width="2.6" x="157.0" y="59.5"><title>2025-10-24</title></rect><rect fill="#444444" height="2.6" width="2.6" x="157.0" y="63.0"><title>2025-10-25</title></rect><rect fill="#444444" height="2.6" width="2.6" x="157.0" y="66.5"><title>2025-10-26</title></rect><rect fill="#444444" height="2.6" width="2.6" x="160.5" y="45.5"><title>2025-10-27</title></rect><rect fill="#444444" height="2.6" width="2.6" x="160.5" y="49.0"><title>2025-10-28</title></rect><rect fill="#444444" height="2.6" width="2.6" x="160.5" y="52.5"><title>2025-10-29</title></rect><rect fill="#444444" height="2.6" width="2.6" x="160.5" y="56.0"><title>2025-10-30</title></rect><rect fill="#444444" height="2.6" width="2.6" x="160.5" y="59.5"><title>2025-10-31</title></rect><rect fill="#444444" height="2.6" width="2.6" x="160.5" y="63.0"><title>2025-11-01</title></rect><rect fill="#444444" height="2.6" width="2.6" x="160.5" y="66.5"><title>2025-11-02</title></rect><rect fill="#444444" height="2.6" width="2.6" x="164.0" y="45.5"><title>2025-11-03</title></rect><rect fill="#444444" height="2.6" width="2.6" x="164.0" y="49.0"><title>2025-11-04</title></rect><rect fill="#444444" height="2.6" width="2.6" x="164.0" y="52.5"><title>2025-11-05</title></rect><rect fill="#444444" height="2.6" width="2.6" x="164.0" y="56.0"><title>2025-11-06</title></rect><rect fill="#444444" height="2.6" width="2.6" x="164.0" y="59.5"><title>2025-11-07</title></rect><rect fill="#444444" height="2.6" width="2.6" x="164.0" y="63.0"><title>2025-11-08</title></rect><rect fill="#444444" height="2.6" width="2.6" x="164.0" y="66.5"><title>2025-11-09</title></rect><rect fill="#444444" height="2.6" width="2.6" x="167.5" y="45.5"><title>2025-11-10</title></rect><rect fill="#444444" height="2.6" width="2.6" x="167.5" y="49.0"><title>2025-11-11</title></rect><rect fill="#444444" height="2.6" width="2.6" x="167.5" y="52.5"><title>2025-11-12</title></rect><rect fill="#444444" height="2.6" width="2.6" x="167.5" y="56.0"><title>2025-11-13</title></rect><rect fill="#444444" height="2.6" width="2.6" x="167.5" y="59.5"><title>2025-11-14</title></rect><rect fill="#444444" height="2.6" width="2.6" x="167.5" y="63.0"><title>2025-11-15</title></rect><rect fill="#444444" height="2.6" width="2.6" x="167.5" y="66.5"><title>2025-11-16</title></rect><rect fill="#444444" height="2.6" width="2.6" x="171.0" y="45.5"><title>2025-11-17</title></rect><rect fill="#444444" height="2.6" width="2.6" x="171.0" y="49.0"><title>2025-11-18</title></rect><rect fill="#444444" height="2.6" width="2.6" x="171.0" y="52.5"><title>2025-11-19</title></rect><rect fill="#444444" height="2.6" width="2.6" x="171.0" y="56.0"><title>2025-11-20</title></rect><rect fill="#444444" height="2.6" width="2.6" x="171.0" y="59.5"><title>2025-11-21</title></rect><rect fill="#444444" height="2.6" width="2.6" x="171.0" y="63.0"><title>2025-11-22</title></rect><rect fill="#444444" height="2.6" width="2.6" x="171.0" y="66.5"><title>2025-11-23</title></rect><rect fill="#444444" height="2.6" width="2.6" x="174.5" y="45.5"><title>2025-11-24</title></rect><rect fill="#444444" height="2.6" width="2.6" x="174.5" y="49.0"><title>2025-11-25</title></rect><rect fill="#444444" height="2.6" width="2.6" x="174.5" y="52.5"><title>2025-11-26</title></rect><rect fill="#444444" height="2.6" width="2.6" x="174.5" y="56.0"><title>2025-11-27</title></rect><rect fill="#444444" height="2.6" width="2.6" x="174.5" y="59.5"><title>2025-11-28</title></rect><rect fill="#444444" height="2.6" width="2.6" x="174.5" y="63.0"><title>2025-11-29</title></rect><rect fill="#444444" height="2.6" width="2.6" x="174.5" y="66.5"><title>2025-11-30</title></rect><rect fill="#444444" height="2.6" width="2.6" x="178.0" y="45.5"><title>2025-12-01</title></rect><rect fill="#444444" height="2.6" width="2.6" x="178.0" y="49.0"><title>2025-12-02</title></rect><rect fill="#444444" height="2.6" width="2.6" x="178.0" y="52.5"><title>2025-12-03</title></rect><rect fill="#444444" height="2.6" width="2.6" x="178.0" y="56.0"><title>2025-12-04</title></rect><rect fill="#444444" height="2.6" width="2.6" x="178.0" y="59.5"><title>2025-12-05</title></rect><rect fill="#444444" height="2.6" width="2.6" x="178.0" y="63.0"><title>2025-12-06</title></rect><rect fill="#444444" height="2.6" width="2.6" x="178.0" y="66.5"><title>2025-12-07</title></rect><rect fill="#444444" height="2.6" width="2.6" x="181.5" y="45.5"><title>2025-12-08</title></rect><rect fill="#444444" height="2.6" width="2.6" x="181.5" y="49.0"><title>2025-12-09</title></rect><rect fill="#444444" height="2.6" width="2.6" x="181.5" y="52.5"><title>2025-12-10</title></rect><rect fill="#444444" height="2.6" width="2.6" x="181.5" y="56.0"><title>2025-12-11</title></rect><rect fill="#444444" height="2.6" width="2.6" x="181.5" y="59.5"><title>2025-12-12</title></rect><rect fill="#444444" height="2.6" width="2.6" x="181.5" y="63.0"><title>2025-12-13</title></rect><rect fill="#444444" height="2.6" width="2.6" x="181.5" y="66.5"><title>2025-12-14</title></rect><rect fill="#444444" height="2.6" width="2.6" x="185.0" y="45.5"><title>2025-12-15</title></rect><rect fill="#444444" height="2.6" width="2.6" x="185.0" y="49.0"><title>2025-12-16</title></rect><rect fill="#444444" height="2.6" width="2.6" x="185.0" y="52.5"><title>2025-12-17</title></rect><rect fill="#444444" height="2.6" width="2.6" x="185.0" y="56.0"><title>2025-12-18</title></rect><rect fill="#444444" height="2.6" width="2.6" x="185.0" y="59.5"><title>2025-12-19</title></rect><rect fill="#444444" height="2.6" width="2.6" x="185.0" y="63.0"><title>2025-12-20</title></rect><rect fill="#444444" height="2.6" width="2.6" x="185.0" y="66.5"><title>2025-12-21</title></rect><rect fill="#444444" height="2.6" width="2.6" x="188.5" y="45.5"><title>2025-12-22</title></rect><rect fill="#444444" height="2.6" width="2.6" x="188.5" y="49.0"><title>2025-12-23</title></rect><rect fill="#444444" height="2.6" width="2.6" x="188.5" y="52.5"><title>2025-12-24</title></rect><rect fill="#444444" height="2.6" width="2.6" x="188.5" y="56.0"><title>2025-12-25</title></rect><rect fill="#444444" height="2.6" width="2.6" x="188.5" y="59.5"><title>2025-12-26</title></rect><rect fill="#444444" height="2.6" width="2.6" x="188.5" y="63.0"><title>2025-12-27</title></rect><rect fill="#444444" height="2.6" width="2.6" x="188.5" y="66.5"><title>2025-12-28</title></rect><rect fill="#444444" height="2.6" width="2.6" x="192.0" y="45.5"><title>2025-12-29</title></rect><rect fill="#444444" height="2.6" width="2.6" x="192.0" y="49.0"><title>2025-12-30</title></rect><rect fill="#444444" height="2.6" width="2.6" x="192.0" y="52.5"><title>2025-12-31</title></rect></svg>