<?xml version="1.0" encoding="utf-8" ?>
<svg baseProfile="full" height="98mm" version="1.1" viewBox="0,0,200,98" width="200mm" xmlns="http://www.w3.org/2000/svg" xmlns:ev="http://www.w3.org/2001/xml-events" xmlns:xlink="http://www.w3.org/1999/xlink"><defs /><rect fill="#222222" height="98" width="200" x="0" y="0" /><text fill="#FFFFFF" style="font-size:12px; font-family:Arial; font-weight:bold;" x="10" y="20">2020 Workouts</text><text fill="#FFFFFF" style="font-size:4px; font-family:Arial" x="10" y="78">ATHLETE</text><text fill="#FFFFFF" style="font-size:9px; font-family:Arial" x="10" y="88">Joker</text><text fill="#FFFFFF" style="font-size:4px; font-family:Arial" x="120" y="78">STATISTICS</text><text fill="#FFFFFF" style="font-size:3px; font-family:Arial" x="120" y="83">Number: 646</text><text fill="#FFFFFF" style="font-size:3px; font-family:Arial" x="120" y="88">Weekly: 12.4</text><text fill="#FFFFFF" style="font-size:3px; font-family:Arial" x="141" y="83">Total: 3765.4 km</text><text fill="#FFFFFF" style="font-size:3px; font-family:Arial" x="141" y="88">Avg: 5.8 km</text><text fill="#FFFFFF" style="font-size:3px; font-family:Arial" x="167" y="83">Min: 0.7 km</text><text fill="#FFFFFF" style="font-size:3px; font-family:Arial" x="167" y="88">Max: 39.3 km</text><text alignment-baseline="hanging" fill="#FFFFFF" style="font-size:10.0px; font-family:Arial;" x="10" y="30">2020</text><text alignment-baseline="hanging" fill="#FFFFFF" style="font-size:4.125px; font-family:Arial;" x="175" y="35">3765.4 km</text><text fill="#FFFFFF" style="font-size:2.5px; font-family:Arial" x="10.0" y="44">Jan</text><text fill="#FFFFFF" style="font-size:2.5px; font-family:Arial" x="25.5" y="44">Feb</text><text fill="#FFFFFF" style="font-size:2.5px; font-family:Arial" x="41.0" y="44">Mar</text><text fill="#FFFFFF" style="font-size:2.5px; font-family:Arial" x="56.5" y="44">Apr</text><text fill="#FFFFFF" style="font-size:2.5px; font-family:Arial" x="72.0" y="44">May</text><text fill="#FFFFFF" style="font-size:2.5px; font-family:Arial" x="87.5" y="44">Jun</text><text fill="#FFFFFF" style="font-size:2.5px; font-family:Arial" x="103.0" y="44">Jul</text><text fill="#FFFFFF" style="font-size:2.5px; font-family:Arial" x="118.5" y="44">Aug</text><text fill="#FFFFFF" style="font-size:2.5px; font-family:Arial" x="134.0" y="44">Sep</text><text fill="#FFFFFF" style="font-size:2.5px; font-family:Arial" x="149.5" y="44">Oct</text><text fill="#FFFFFF" style="font-size:2.5px; font-family:Arial" x="165.0" y="44">Nov</text><text fill="#FFFFFF" style="font-size:2.5px; font-family:Arial" x="180.5" y="44">Dec</text><rect fill="#444444" height="2.6" width="2.6" x="10.0" y="45.5"><title>2019-12-30</title></rect><rect fill="#444444" height="2.6" width="2.6" x="10.0" y="49.0"><title>2019-12-31</title></rect><rect fill="#444444" height="2.6" width="2.6" x="10.0" y="52.5"><title>2020-01-01</title></rect><rect fill="#444444" height="2.6" width="2.6" x="10.0" y="56.0"><title>2020-01-02</title></rect><rect fill="#444444" height="2.6" width="2.6" x="10.0" y="59.5"><title>2020-01-03</title></rect><rect fill="#444444" height="2.6" width="2.6" x="10.0" y="63.0"><title>2020-01-04</title></rect><rect fill="#444444" height="2.6" width="2.6" x="10.0" y="66.5"><title>2020-01-05</title></rect><rect fill="#4dd2ff" height="2.6" width="2.6" x="13.5" y="45.5"><title>2020-01-06 0.9 km</title></rect><rect fill="#444444" height="2.6" width="2.6" x="13.5" y="49.0"><title>2020-01-07</title></rect><rect fill="#444444" height="2.6" width="2.6" x="13.5" y="52.5"><title>2020-01-08</title></rect><rect fill="#444444" height="2.6" width="2.6" x="13.5" y="56.0"><title>2020-01-09</title></rect><rect fill="#444444" height="2.6" width="2.6" x="13.5" y="59.5"><title>2020-01-10</title></rect><rect fill="#444444" height="2.6" width="2.6" x="13.5" y="63.0"><title>2020-01-11</title></rect><rect fill="#444444" height="2.6" width="2.6" x="13.5" y="66.5"><title>2020-01-12</title></rect><rect fill="#444444" height="2.6" width="2.6" x="17.0" y="45.5"><title>2020-01-13</title></rect><rect fill="#444444" height="2.6" width="2.6" x="17.0" y="49.0"><title>2020-01-14</title></rect><rect fill="#444444" height="2.6" width="2.6" x="17.0" y="52.5"><title>2020-01-15</title></rect><rect fill="#444444" height="2.6" width="2.6" x="17.0" y="56.0"><title>2020-01-16</title></rect><rect fill="#4dd2ff" height="2.6" width="2.6" x="17.0" y="59.5"><title>2020-01-17 8.4 km</title></rect><rect fill="#4dd2ff" height="2.6" width="2.6" x="17.0" y="63.0"><title>2020-01-18 1.0 km</title></rect><rect fill="#ffd900" height="2.6" width="2.6" x="17.0" y="66.5"><title>2020-01-19 11.3 km</title></rect><rect fill="#ffdb00" height="2.6" width="2.6" x="20.5" y="45.5"><title>2020-01-20 10.7 km</title></rect><rect fill="#ffdb00" height="2.6" width="2.6" x="20.5" y="49.0"><title>2020-01-21 10.8 km</title></rect><rect fill="#ffdd00" height="2.6" width="2.6" x="20.5" y="52.5"><title>2020-01-22 10.3 km</title></rect><rect fill="#4dd2ff" height="2.6" width="2.6" x="20.5" y="56.0"><title>2020-01-23 3.8 km</title></rect><rect fill="#4dd2ff" height="2.6" width="2.6" x="20.5" y="59.5"><title>2020-01-24 5.6 km</title></rect><rect fill="#4dd2ff" height="2.6" width="2.6" x="20.5" y="63.0"><title>2020-01-25 4.7 km</title></rect><rect fill="#4dd2ff" height="2.6" width="2.6" x="20.5" y="66.5"><title>2020-01-26 4.0 km</title></rect><rect fill="#4dd2ff" height="2.6" width="2.6" x="24.0" y="45.5"><title>2020-01-27 5.4 km</title></rect><rect fill="#444444" height="2.6" width="2.6" x="24.0" y="49.0"><title>2020-01-28</title></rect><rect fill="#4dd2ff" height="2.6" width="2.6" x="24.0" y="52.5"><title>2020-01-29 4.1 km</title></rect><rect fill="#444444" height="2.6" width="2.6" x="24.0" y="56.0"><title>2020-01-30</title></rect><rect fill="#444444" height="2.6" width="2.6" x="24.0" y="59.5"><title>2020-01-31</title></rect><rect fill="#444444" height="2.6" width="2.6" x="24.0" y="63.0"><title>2020-02-01</title></rect><rect fill="#444444" height="2.6" width="2.6" x="24.0" y="66.5"><title>2020-02-02</title></rect><rect fill="#444444" height="2.6" width="2.6" x="27.5" y="45.5"><title>2020-02-03</title></rect><rect fill="#444444" height="2.6" width="2.6" x="27.5" y="49.0"><title>2020-02-04</title></rect><rect fill="#4dd2ff" height="2.6" width="2.6" x="27.5" y="52.5"><title>2020-02-05 3.8 km</title></rect><rect fill="#444444" height="2.6" width="2.6" x="27.5" y="56.0"><title>2020-02-06</title></rect><rect fill="#444444" height="2.6" width="2.6" x="27.5" y="59.5"><title>2020-02-07</title></rect><rect fill="#444444" height="2.6" width="2.6" x="27.5" y="63.0"><title>2020-02-08</title></rect><rect fill="#444444" height="2.6" width="2.6" x="27.5" y="66.5"><title>2020-02-09</title></rect><rect fill="#444444" height="2.6" width="2.6" x="31.0" y="45.5"><title>2020-02-10</title></rect><rect fill="#444444" height="2.6" width="2.6" x="31.0" y="49.0"><title>2020-02-11</title></rect><rect fill="#444444" height="2.6" width="2.6" x="31.0" y="52.5"><title>2020-02-12</title></rect><rect fill="#444444" height="2.6" width="2.6" x="31.0" y="56.0"><title>2020-02-13</title></rect><rect fill="#444444" height="2.6" width="2.6" x="31.0" y="59.5"><title>2020-02-14</title></rect><rect fill="#444444" height="2.6" width="2.6" x="31.0" y="63.0"><title>2020-02-15</title></rect><rect fill="#4dd2ff" height="2.6" width="2.6" x="31.0" y="66.5"><title>2020-02-16 1.9 km</title></rect><rect fill="#4dd2ff" height="2.6" width="2.6" x="34.5" y="45.5"><title>2020-02-17 5.5 km</title></rect><rect fill="red" height="2.6" width="2.6" x="34.5" y="49.0"><title>2020-02-18 33.3 km</title></rect><rect fill="#ffd100" height="2.6" width="2.6" x="34.5" y="52.5"><title>2020-02-19 13.5 km</title></rect><rect fill="#ffd400" height="2.6" width="2.6" x="34.5" y="56.0"><title>2020-02-20 12.7 km</title></rect><rect fill="#ffd100" height="2.6" width="2.6" x="34.5" y="59.5"><title>2020-02-21 13.6 km</title></rect><rect fill="#444444" height="2.6" width="2.6" x="34.5" y="63.0"><title>2020-02-22</title></rect><rect fill="#444444" height="2.6" width="2.6" x="34.5" y="66.5"><title>2020-02-23</title></rect><rect fill="#ffd100" height="2.6" width="2.6" x="38.0" y="45.5"><title>2020-02-24 13.6 km</title></rect><rect fill="#ffda00" height="2.6" width="2.6" x="38.0" y="49.0"><title>2020-02-25 11.1 km</title></rect><rect fill="#ffd700" height="2.6" width="2.6" x="38.0" y="52.5"><title>2020-02-26 11.8 km</title></rect><rect fill="#ffd800" height="2.6" width="2.6" x="38.0" y="56.0"><title>2020-02-27 11.7 km</title></rect><rect fill="#4dd2ff" height="2.6" width="2.6" x="38.0" y="59.5"><title>2020-02-28 8.7 km</title></rect><rect fill="red" height="2.6" width="2.6" x="38.0" y="63.0"><title>2020-02-29 71.1 km</title></rect><rect fill="#4dd2ff" height="2.6" width="2.6" x="38.0" y="66.5"><title>2020-03-01 1.9 km</title></rect><rect fill="#ffc900" height="2.6" width="2.6" x="41.5" y="45.5"><title>2020-03-02 15.9 km</title></rect><rect fill="#ffca00" height="2.6" width="2.6" x="41.5" y="49.0"><title>2020-03-03 15.6 km</title></rect><rect fill="#4dd2ff" height="2.6" width="2.6" x="41.5" y="52.5"><title>2020-03-04 5.1 km</title></rect><rect fill="#ffc000" height="2.6" width="2.6" x="41.5" y="56.0"><title>2020-03-05 18.3 km</title></rect><rect fill="#ffcf00" height="2.6" width="2.6" x="41.5" y="59.5"><title>2020-03-06 14.2 km</title></rect><rect fill="#444444" height="2.6" width="2.6" x="41.5" y="63.0"><title>2020-03-07</title></rect><rect fill="#4dd2ff" height="2.6" width="2.6" x="41.5" y="66.5"><title>2020-03-08 2.1 km</title></rect><rect fill="#4dd2ff" height="2.6" width="2.6" x="45.0" y="45.5"><title>2020-03-09 6.9 km</title></rect><rect fill="#ffd600" height="2.6" width="2.6" x="45.0" y="49.0"><title>2020-03-10 12.3 km</title></rect><rect fill="#ffd300" height="2.6" width="2.6" x="45.0" y="52.5"><title>2020-03-11 13.1 km</title></rect><rect fill="#4dd2ff" height="2.6" width="2.6" x="45.0" y="56.0"><title>2020-03-12 6.0 km</title></rect><rect fill="#4dd2ff" height="2.6" width="2.6" x="45.0" y="59.5"><title>2020-03-13 6.7 km</title></rect><rect fill="#4dd2ff" height="2.6" width="2.6" x="45.0" y="63.0"><title>2020-03-14 1.9 km</title></rect><rect fill="#444444" height="2.6" width="2.6" x="45.0" y="66.5"><title>2020-03-15</title></rect><rect fill="#ffde00" height="2.6" width="2.6" x="48.5" y="45.5"><title>2020-03-16 10.1 km</title></rect><rect fill="#4dd2ff" height="2.6" width="2.6" x="48.5" y="49.0"><title>2020-03-17 6.4 km</title></rect><rect fill="#ffd300" height="2.6" width="2.6" x="48.5" y="52.5"><title>2020-03-18 13.0 km</title></rect><rect fill="#ffc300" height="2.6" width="2.6" x="48.5" y="56.0"><title>2020-03-19 17.4 km</title></rect><rect fill="#ffc400" height="2.6" width="2.6" x="48.5" y="59.5"><title>2020-03-20 17.1 km</title></rect><rect fill="#4dd2ff" height="2.6" width="2.6" x="48.5" y="63.0"><title>2020-03-21 3.8 km</title></rect><rect fill="#4dd2ff" height="2.6" width="2.6" x="48.5" y="66.5"><title>2020-03-22 7.1 km</title></rect><rect fill="#4dd2ff" height="2.6" width="2.6" x="52.0" y="45.5"><title>2020-03-23 7.8 km</title></rect><rect fill="#ffc200" height="2.6" width="2.6" x="52.0" y="49.0"><title>2020-03-24 17.8 km</title></rect><rect fill="#ffd800" height="2.6" width="2.6" x="52.0" y="52.5"><title>2020-03-25 11.6 km</title></rect><rect fill="#4dd2ff" height="2.6" width="2.6" x="52.0" y="56.0"><title>2020-03-26 5.7 km</title></rect><rect fill="#ffd900" height="2.6" width="2.6" x="52.0" y="59.5"><title>2020-03-27 11.5 km</title></rect><rect fill="#4dd2ff" height="2.6" width="2.6" x="52.0" y="63.0"><title>2020-03-28 1.9 km</title></rect><rect fill="red" height="2.6" width="2.6" x="52.0" y="66.5"><title>2020-03-29 20.9 km</title></rect><rect fill="#4dd2ff" height="2.6" width="2.6" x="55.5" y="45.5"><title>2020-03-30 6.9 km</title></rect><rect fill="#ffc100" height="2.6" width="2.6" x="55.5" y="49.0"><title>2020-03-31 17.9 km</title></rect><rect fill="#ffbc00" height="2.6" width="2.6" x="55.5" y="52.5"><title>2020-04-01 19.2 km</title></rect><rect fill="#ffd400" height="2.6" width="2.6" x="55.5" y="56.0"><title>2020-04-02 12.8 km</title></rect><rect fill="#ffd200" height="2.6" width="2.6" x="55.5" y="59.5"><title>2020-04-03 13.2 km</title></rect><rect fill="#ffc000" height="2.6" width="2.6" x="55.5" y="63.0"><title>2020-04-04 18.2 km</title></rect><rect fill="#4dd2ff" height="2.6" width="2.6" x="55.5" y="66.5"><title>2020-04-05 3.9 km</title></rect><rect fill="#4dd2ff" height="2.6" width="2.6" x="59.0" y="45.5"><title>2020-04-06 5.9 km</title></rect><rect fill="red" height="2.6" width="2.6" x="59.0" y="49.0"><title>2020-04-07 24.9 km</title></rect><rect fill="#ffd200" height="2.6" width="2.6" x="59.0" y="52.5"><title>2020-04-08 13.3 km</title></rect><rect fill="#ffd900" height="2.6" width="2.6" x="59.0" y="56.0"><title>2020-04-09 11.5 km</title></rect><rect fill="#ffca00" height="2.6" width="2.6" x="59.0" y="59.5"><title>2020-04-10 15.5 km</title></rect><rect fill="#ffc700" height="2.6" width="2.6" x="59.0" y="63.0"><title>2020-04-11 16.3 km</title></rect><rect fill="#ffc600" height="2.6" width="2.6" x="59.0" y="66.5"><title>2020-04-12 16.7 km</title></rect><rect fill="#ffd100" height="2.6" width="2.6" x="62.5" y="45.5"><title>2020-04-13 13.5 km</title></rect><rect fill="#ffd100" height="2.6" width="2.6" x="62.5" y="49.0"><title>2020-04-14 13.6 km</title></rect><rect fill="#ffcd00" height="2.6" width="2.6" x="62.5" y="52.5"><title>2020-04-15 14.8 km</title></rect><rect fill="red" height="2.6" width="2.6" x="62.5" y="56.0"><title>2020-04-16 27.6 km</title></rect><rect fill="#ffd100" height="2.6" width="2.6" x="62.5" y="59.5"><title>2020-04-17 13.5 km</title></rect><rect fill="#4dd2ff" height="2.6" width="2.6" x="62.5" y="63.0"><title>2020-04-18 9.0 km</title></rect><rect fill="#ffc000" height="2.6" width="2.6" x="62.5" y="66.5"><title>2020-04-19 18.3 km</title></rect><rect fill="#ffca00" height="2.6" width="2.6" x="66.0" y="45.5"><title>2020-04-20 15.4 km</title></rect><rect fill="#4dd2ff" height="2.6" width="2.6" x="66.0" y="49.0"><title>2020-04-21 9.1 km</title></rect><rect fill="#ffd400" height="2.6" width="2.6" x="66.0" y="52.5"><title>2020-04-22 12.7 km</title></rect><rect fill="#ffd100" height="2.6" width="2.6" x="66.0" y="56.0"><title>2020-04-23 13.5 km</title></rect><rect fill="#ffd100" height="2.6" width="2.6" x="66.0" y="59.5"><title>2020-04-24 13.5 km</title></rect><rect fill="#444444" height="2.6" width="2.6" x="66.0" y="63.0"><title>2020-04-25</title></rect><rect fill="#ffdb00" height="2.6" width="2.6" x="66.0" y="66.5"><title>2020-04-26 10.8 km</title></rect><rect fill="#ffd300" height="2.6" width="2.6" x="69.5" y="45.5"><title>2020-04-27 13.0 km</title></rect><rect fill="#ffd200" height="2.6" width="2.6" x="69.5" y="49.0"><title>2020-04-28 13.3 km</title></rect><rect fill="#ffd200" height="2.6" width="2.6" x="69.5" y="52.5"><title>2020-04-29 13.3 km</title></rect><rect fill="#ffc200" height="2.6" width="2.6" x="69.5" y="56.0"><title>2020-04-30 17.6 km</title></rect><rect fill="#4dd2ff" height="2.6" width="2.6" x="69.5" y="59.5"><title>2020-05-01 5.4 km</title></rect><rect fill="#4dd2ff" height="2.6" width="2.6" x="69.5" y="63.0"><title>2020-05-02 7.2 km</title></rect><rect fill="#4dd2ff" height="2.6" width="2.6" x="69.5" y="66.5"><title>2020-05-03 5.6 km</title></rect><rect fill="#444444" height="2.6" width="2.6" x="73.0" y="45.5"><title>2020-05-04</title></rect><rect fill="#4dd2ff" height="2.6" width="2.6" x="73.0" y="49.0"><title>2020-05-05 2.4 km</title></rect><rect fill="#ffd200" height="2.6" width="2.6" x="73.0" y="52.5"><title>2020-05-06 13.3 km</title></rect><rect fill="#ffd100" height="2.6" width="2.6" x="73.0" y="56.0"><title>2020-05-07 13.5 km</title></rect><rect fill="#ffc900" height="2.6" width="2.6" x="73.0" y="59.5"><title>2020-05-08 15.7 km</title></rect><rect fill="#ffd300" height="2.6" width="2.6" x="73.0" y="63.0"><title>2020-05-09 13.1 km</title></rect><rect fill="#4dd2ff" height="2.6" width="2.6" x="73.0" y="66.5"><title>2020-05-10 1.9 km</title></rect><rect fill="#ffd200" height="2.6" width="2.6" x="76.5" y="45.5"><title>2020-05-11 13.3 km</title></rect><rect fill="#ffd200" height="2.6" width="2.6" x="76.5" y="49.0"><title>2020-05-12 13.3 km</title></rect><rect fill="red" height="2.6" width="2.6" x="76.5" y="52.5"><title>2020-05-13 24.1 km</title></rect><rect fill="#ffd000" height="2.6" width="2.6" x="76.5" y="56.0"><title>2020-05-14 13.8 km</title></rect><rect fill="#ffbb00" height="2.6" width="2.6" x="76.5" y="59.5"><title>2020-05-15 19.7 km</title></rect><rect fill="#4dd2ff" height="2.6" width="2.6" x="76.5" y="63.0"><title>2020-05-16 1.9 km</title></rect><rect fill="#444444" height="2.6" width="2.6" x="76.5" y="66.5"><title>2020-05-17</title></rect><rect fill="#4dd2ff" height="2.6" width="2.6" x="80.0" y="45.5"><title>2020-05-18 2.8 km</title></rect><rect fill="#ffd200" height="2.6" width="2.6" x="80.0" y="49.0"><title>2020-05-19 13.2 km</title></rect><rect fill="#ffd000" height="2.6" width="2.6" x="80.0" y="52.5"><title>2020-05-20 13.8 km</title></rect><rect fill="#4dd2ff" height="2.6" width="2.6" x="80.0" y="56.0"><title>2020-05-21 9.4 km</title></rect><rect fill="#4dd2ff" height="2.6" width="2.6" x="80.0" y="59.5"><title>2020-05-22 7.8 km</title></rect><rect fill="#4dd2ff" height="2.6" width="2.6" x="80.0" y="63.0"><title>2020-05-23 2.0 km</title></rect><rect fill="#4dd2ff" height="2.6" width="2.6" x="80.0" y="66.5"><title>2020-05-24 5.5 km</title></rect><rect fill="#ffd800" height="2.6" width="2.6" x="83.5" y="45.5"><title>2020-05-25 11.6 km</title></rect><rect fill="#ffd000" height="2.6" width="2.6" x="83.5" y="49.0"><title>2020-05-26 13.9 km</title></rect><rect fill="#ffcf00" height="2.6" width="2.6" x="83.5" y="52.5"><title>2020-05-27 14.0 km</title></rect><rect fill="#ffd000" height="2.6" width="2.6" x="83.5" y="56.0"><title>2020-05-28 13.8 km</title></rect><rect fill="#ffd000" height="2.6" width="2.6" x="83.5" y="59.5"><title>2020-05-29 13.8 km</title></rect><rect fill="#4dd2ff" height="2.6" width="2.6" x="83.5" y="63.0"><title>2020-05-30 2.0 km</title></rect><rect fill="#4dd2ff" height="2.6" width="2.6" x="83.5" y="66.5"><title>2020-05-31 1.8 km</title></rect><rect fill="#4dd2ff" height="2.6" width="2.6" x="87.0" y="45.5"><title>2020-06-01 9.1 km</title></rect><rect fill="#ffd700" height="2.6" width="2.6" x="87.0" y="49.0"><title>2020-06-02 12.0 km</title></rect><rect fill="#ffcc00" height="2.6" width="2.6" x="87.0" y="52.5"><title>2020-06-03 15.0 km</title></rect><rect fill="#ffcf00" height="2.6" width="2.6" x="87.0" y="56.0"><title>2020-06-04 14.1 km</title></rect><rect fill="#ffd100" height="2.6" width="2.6" x="87.0" y="59.5"><title>2020-06-05 13.4 km</title></rect><rect fill="#4dd2ff" height="2.6" width="2.6" x="87.0" y="63.0"><title>2020-06-06 1.0 km</title></rect><rect fill="#4dd2ff" height="2.6" width="2.6" x="87.0" y="66.5"><title>2020-06-07 1.9 km</title></rect><rect fill="#4dd2ff" height="2.6" width="2.6" x="90.5" y="45.5"><title>2020-06-08 3.7 km</title></rect><rect fill="#ffba00" height="2.6" width="2.6" x="90.5" y="49.0"><title>2020-06-09 20.0 km</title></rect><rect fill="#ffd700" height="2.6" width="2.6" x="90.5" y="52.5"><title>2020-06-10 12.0 km</title></rect><rect fill="#ffd000" height="2.6" width="2.6" x="90.5" y="56.0"><title>2020-06-11 14.0 km</title></rect><rect fill="#ffd000" height="2.6" width="2.6" x="90.5" y="59.5"><title>2020-06-12 13.8 km</title></rect><rect fill="#444444" height="2.6" width="2.6" x="90.5" y="63.0"><title>2020-06-13</title></rect><rect fill="#ffc600" height="2.6" width="2.6" x="90.5" y="66.5"><title>2020-06-14 16.6 km</title></rect><rect fill="#ffcf00" height="2.6" width="2.6" x="94.0" y="45.5"><title>2020-06-15 14.2 km</title></rect><rect fill="#ffd000" height="2.6" width="2.6" x="94.0" y="49.0"><title>2020-06-16 13.8 km</title></rect><rect fill="#ffd200" height="2.6" width="2.6" x="94.0" y="52.5"><title>2020-06-17 13.2 km</title></rect><rect fill="#ffce00" height="2.6" width="2.6" x="94.0" y="56.0"><title>2020-06-18 14.3 km</title></rect><rect fill="#ffd700" height="2.6" width="2.6" x="94.0" y="59.5"><title>2020-06-19 11.8 km</title></rect><rect fill="#4dd2ff" height="2.6" width="2.6" x="94.0" y="63.0"><title>2020-06-20 1.0 km</title></rect><rect fill="#444444" height="2.6" width="2.6" x="94.0" y="66.5"><title>2020-06-21</title></rect><rect fill="#ffcf00" height="2.6" width="2.6" x="97.5" y="45.5"><title>2020-06-22 14.1 km</title></rect><rect fill="#4dd2ff" height="2.6" width="2.6" x="97.5" y="49.0"><title>2020-06-23 8.4 km</title></rect><rect fill="#4dd2ff" height="2.6" width="2.6" x="97.5" y="52.5"><title>2020-06-24 8.0 km</title></rect><rect fill="#444444" height="2.6" width="2.6" x="97.5" y="56.0"><title>2020-06-25</title></rect><rect fill="#4dd2ff" height="2.6" width="2.6" x="97.5" y="59.5"><title>2020-06-26 1.9 km</title></rect><rect fill="red" height="2.6" width="2.6" x="97.5" y="63.0"><title>2020-06-27 21.1 km</title></rect><rect fill="#4dd2ff" height="2.6" width="2.6" x="97.5" y="66.5"><title>2020-06-28 9.8 km</title></rect><rect fill="#ffcf00" height="2.6" width="2.6" x="101.0" y="45.5"><title>2020-06-29 14.2 km</title></rect><rect fill="#ffd300" height="2.6" width="2.6" x="101.0" y="49.0"><title>2020-06-30 13.0 km</title></rect><rect fill="#ffd000" height="2.6" width="2.6" x="101.0" y="52.5"><title>2020-07-01 14.0 km</title></rect><rect fill="red" height="2.6" width="2.6" x="101.0" y="56.0"><title>2020-07-02 24.7 km</title></rect><rect fill="red" height="2.6" width="2.6" x="101.0" y="59.5"><title>2020-07-03 24.6 km</title></rect><rect fill="#4dd2ff" height="2.6" width="2.6" x="101.0" y="63.0"><title>2020-07-04 2.0 km</title></rect><rect fill="red" height="2.6" width="2.6" x="101.0" y="66.5"><title>2020-07-05 26.2 km</title></rect><rect fill="red" height="2.6" width="2.6" x="104.5" y="45.5"><title>2020-07-06 25.9 km</title></rect><rect fill="#ffcf00" height="2.6" width="2.6" x="104.5" y="49.0"><title>2020-07-07 14.0 km</title></rect><rect fill="#ffc800" height="2.6" width="2.6" x="104.5" y="52.5"><title>2020-07-08 16.0 km</title></rect><rect fill="#444444" height="2.6" width="2.6" x="104.5" y="56.0"><title>2020-07-09</title></rect><rect fill="red" height="2.6" width="2.6" x="104.5" y="59.5"><title>2020-07-10 28.3 km</title></rect><rect fill="#4dd2ff" height="2.6" width="2.6" x="104.5" y="63.0"><title>2020-07-11 2.0 km</title></rect><rect fill="#444444" height="2.6" width="2.6" x="104.5" y="66.5"><title>2020-07-12</title></rect><rect fill="#ffc900" height="2.6" width="2.6" x="108.0" y="45.5"><title>2020-07-13 15.9 km</title></rect><rect fill="red" height="2.6" width="2.6" x="108.0" y="49.0"><title>2020-07-14 21.5 km</title></rect><rect fill="#444444" height="2.6" width="2.6" x="108.0" y="52.5"><title>2020-07-15</title></rect><rect fill="red" height="2.6" width="2.6" x="108.0" y="56.0"><title>2020-07-16 26.0 km</title></rect><rect fill="#4dd2ff" height="2.6" width="2.6" x="108.0" y="59.5"><title>2020-07-17 2.8 km</title></rect><rect fill="red" height="2.6" width="2.6" x="108.0" y="63.0"><title>2020-07-18 38.8 km</title></rect><rect fill="#4dd2ff" height="2.6" width="2.6" x="108.0" y="66.5"><title>2020-07-19 5.2 km</title></rect><rect fill="#ffd000" height="2.6" width="2.6" x="111.5" y="45.5"><title>2020-07-20 13.8 km</title></rect><rect fill="red" height="2.6" width="2.6" x="111.5" y="49.0"><title>2020-07-21 25.1 km</title></rect><rect fill="red" height="2.6" width="2.6" x="111.5" y="52.5"><title>2020-07-22 30.8 km</title></rect><rect fill="red" height="2.6" width="2.6" x="111.5" y="56.0"><title>2020-07-23 21.5 km</title></rect><rect fill="#ffd900" height="2.6" width="2.6" x="111.5" y="59.5"><title>2020-07-24 11.3 km</title></rect><rect fill="#4dd2ff" height="2.6" width="2.6" x="111.5" y="63.0"><title>2020-07-25 4.0 km</title></rect><rect fill="#4dd2ff" height="2.6" width="2.6" x="111.5" y="66.5"><title>2020-07-26 1.1 km</title></rect><rect fill="red" height="2.6" width="2.6" x="115.0" y="45.5"><title>2020-07-27 24.7 km</title></rect><rect fill="#ffbb00" height="2.6" width="2.6" x="115.0" y="49.0"><title>2020-07-28 19.5 km</title></rect><rect fill="#ffca00" height="2.6" width="2.6" x="115.0" y="52.5"><title>2020-07-29 15.5 km</title></rect><rect fill="#4dd2ff" height="2.6" width="2.6" x="115.0" y="56.0"><title>2020-07-30 1.3 km</title></rect><rect fill="#ffc600" height="2.6" width="2.6" x="115.0" y="59.5"><title>2020-07-31 16.6 km</title></rect><rect fill="#444444" height="2.6" width="2.6" x="115.0" y="63.0"><title>2020-08-01</title></rect><rect fill="#444444" height="2.6" width="2.6" x="115.0" y="66.5"><title>2020-08-02</title></rect><rect fill="#ffd200" height="2.6" width="2.6" x="118.5" y="45.5"><title>2020-08-03 13.4 km</title></rect><rect fill="red" height="2.6" width="2.6" x="118.5" y="49.0"><title>2020-08-04 22.4 km</title></rect><rect fill="#ffd200" height="2.6" width="2.6" x="118.5" y="52.5"><title>2020-08-05 13.4 km</title></rect><rect fill="#ffcb00" height="2.6" width="2.6" x="118.5" y="56.0"><title>2020-08-06 15.3 km</title></rect><rect fill="#ffd100" height="2.6" width="2.6" x="118.5" y="59.5"><title>2020-08-07 13.5 km</title></rect><rect fill="#4dd2ff" height="2.6" width="2.6" x="118.5" y="63.0"><title>2020-08-08 1.9 km</title></rect><rect fill="#444444" height="2.6" width="2.6" x="118.5" y="66.5"><title>2020-08-09</title></rect><rect fill="#ffcd00" height="2.6" width="2.6" x="122.0" y="45.5"><title>2020-08-10 14.7 km</title></rect><rect fill="#ffdd00" height="2.6" width="2.6" x="122.0" y="49.0"><title>2020-08-11 10.3 km</title></rect><rect fill="red" height="2.6" width="2.6" x="122.0" y="52.5"><title>2020-08-12 23.6 km</title></rect><rect fill="#ffd200" height="2.6" width="2.6" x="122.0" y="56.0"><title>2020-08-13 13.4 km</title></rect><rect fill="#ffcc00" height="2.6" width="2.6" x="122.0" y="59.5"><title>2020-08-14 15.0 km</title></rect><rect fill="#4dd2ff" height="2.6" width="2.6" x="122.0" y="63.0"><title>2020-08-15 2.0 km</title></rect><rect fill="red" height="2.6" width="2.6" x="122.0" y="66.5"><title>2020-08-16 20.2 km</title></rect><rect fill="#ffd200" height="2.6" width="2.6" x="125.5" y="45.5"><title>2020-08-17 13.3 km</title></rect><rect fill="#ffcb00" height="2.6" width="2.6" x="125.5" y="49.0"><title>2020-08-18 15.2 km</title></rect><rect fill="#ffd200" height="2.6" width="2.6" x="125.5" y="52.5"><title>2020-08-19 13.3 km</title></rect><rect fill="#4dd2ff" height="2.6" width="2.6" x="125.5" y="56.0"><title>2020-08-20 7.7 km</title></rect><rect fill="#ffca00" height="2.6" width="2.6" x="125.5" y="59.5"><title>2020-08-21 15.4 km</title></rect><rect fill="#4dd2ff" height="2.6" width="2.6" x="125.5" y="63.0"><title>2020-08-22 2.0 km</title></rect><rect fill="#4dd2ff" height="2.6" width="2.6" x="125.5" y="66.5"><title>2020-08-23 2.0 km</title></rect><rect fill="#ffd100" height="2.6" width="2.6" x="129.0" y="45.5"><title>2020-08-24 13.6 km</title></rect><rect fill="#ffd400" height="2.6" width="2.6" x="129.0" y="49.0"><title>2020-08-25 12.7 km</title></rect><rect fill="#ffcb00" height="2.6" width="2.6" x="129.0" y="52.5"><title>2020-08-26 15.1 km</title></rect><rect fill="#ffdc00" height="2.6" width="2.6" x="129.0" y="56.0"><title>2020-08-27 10.5 km</title></rect><rect fill="#ffcf00" height="2.6" width="2.6" x="129.0" y="59.5"><title>2020-08-28 14.2 km</title></rect><rect fill="#4dd2ff" height="2.6" width="2.6" x="129.0" y="63.0"><title>2020-08-29 2.0 km</title></rect><rect fill="#4dd2ff" height="2.6" width="2.6" x="129.0" y="66.5"><title>2020-08-30 1.9 km</title></rect><rect fill="#ffd900" height="2.6" width="2.6" x="132.5" y="45.5"><title>2020-08-31 11.4 km</title></rect><rect fill="#ffcb00" height="2.6" width="2.6" x="132.5" y="49.0"><title>2020-09-01 15.3 km</title></rect><rect fill="#ffcb00" height="2.6" width="2.6" x="132.5" y="52.5"><title>2020-09-02 15.2 km</title></rect><rect fill="red" height="2.6" width="2.6" x="132.5" y="56.0"><title>2020-09-03 21.3 km</title></rect><rect fill="#ffd700" height="2.6" width="2.6" x="132.5" y="59.5"><title>2020-09-04 12.0 km</title></rect><rect fill="#4dd2ff" height="2.6" width="2.6" x="132.5" y="63.0"><title>2020-09-05 2.1 km</title></rect><rect fill="#4dd2ff" height="2.6" width="2.6" x="132.5" y="66.5"><title>2020-09-06 2.0 km</title></rect><rect fill="#ffcb00" height="2.6" width="2.6" x="136.0" y="45.5"><title>2020-09-07 15.1 km</title></rect><rect fill="#ffd700" height="2.6" width="2.6" x="136.0" y="49.0"><title>2020-09-08 12.0 km</title></rect><rect fill="#4dd2ff" height="2.6" width="2.6" x="136.0" y="52.5"><title>2020-09-09 7.1 km</title></rect><rect fill="#ffd200" height="2.6" width="2.6" x="136.0" y="56.0"><title>2020-09-10 13.3 km</title></rect><rect fill="#ffd200" height="2.6" width="2.6" x="136.0" y="59.5"><title>2020-09-11 13.2 km</title></rect><rect fill="#4dd2ff" height="2.6" width="2.6" x="136.0" y="63.0"><title>2020-09-12 2.0 km</title></rect><rect fill="#4dd2ff" height="2.6" width="2.6" x="136.0" y="66.5"><title>2020-09-13 2.1 km</title></rect><rect fill="#ffd200" height="2.6" width="2.6" x="139.5" y="45.5"><title>2020-09-14 13.3 km</title></rect><rect fill="#ffcc00" height="2.6" width="2.6" x="139.5" y="49.0"><title>2020-09-15 15.1 km</title></rect><rect fill="#ffd300" height="2.6" width="2.6" x="139.5" y="52.5"><title>2020-09-16 13.1 km</title></rect><rect fill="#ffd200" height="2.6" width="2.6" x="139.5" y="56.0"><title>2020-09-17 13.3 km</title></rect><rect fill="#ffd800" height="2.6" width="2.6" x="139.5" y="59.5"><title>2020-09-18 11.7 km</title></rect><rect fill="#444444" height="2.6" width="2.6" x="139.5" y="63.0"><title>2020-09-19</title></rect><rect fill="#4dd2ff" height="2.6" width="2.6" x="139.5" y="66.5"><title>2020-09-20 2.0 km</title></rect><rect fill="#ffd100" height="2.6" width="2.6" x="143.0" y="45.5"><title>2020-09-21 13.7 km</title></rect><rect fill="#ffcc00" height="2.6" width="2.6" x="143.0" y="49.0"><title>2020-09-22 15.0 km</title></rect><rect fill="#ffd100" height="2.6" width="2.6" x="143.0" y="52.5"><title>2020-09-23 13.6 km</title></rect><rect fill="#ffd400" height="2.6" width="2.6" x="143.0" y="56.0"><title>2020-09-24 12.8 km</title></rect><rect fill="#ffd000" height="2.6" width="2.6" x="143.0" y="59.5"><title>2020-09-25 13.9 km</title></rect><rect fill="#4dd2ff" height="2.6" width="2.6" x="143.0" y="63.0"><title>2020-09-26 2.0 km</title></rect><rect fill="#4dd2ff" height="2.6" width="2.6" x="143.0" y="66.5"><title>2020-09-27 5.7 km</title></rect><rect fill="#ffd800" height="2.6" width="2.6" x="146.5" y="45.5"><title>2020-09-28 11.5 km</title></rect><rect fill="#ffdc00" height="2.6" width="2.6" x="146.5" y="49.0"><title>2020-09-29 10.4 km</title></rect><rect fill="#ffdc00" height="2.6" width="2.6" x="146.5" y="52.5"><title>2020-09-30 10.5 km</title></rect><rect fill="#4dd2ff" height="2.6" width="2.6" x="146.5" y="56.0"><title>2020-10-01 1.6 km</title></rect><rect fill="#4dd2ff" height="2.6" width="2.6" x="146.5" y="59.5"><title>2020-10-02 3.4 km</title></rect><rect fill="#4dd2ff" height="2.6" width="2.6" x="146.5" y="63.0"><title>2020-10-03 1.9 km</title></rect><rect fill="#4dd2ff" height="2.6" width="2.6" x="146.5" y="66.5"><title>2020-10-04 1.9 km</title></rect><rect fill="#4dd2ff" height="2.6" width="2.6" x="150.0" y="45.5"><title>2020-10-05 5.9 km</title></rect><rect fill="#4dd2ff" height="2.6" width="2.6" x="150.0" y="49.0"><title>2020-10-06 8.1 km</title></rect><rect fill="#4dd2ff" height="2.6" width="2.6" x="150.0" y="52.5"><title>2020-10-07 5.9 km</title></rect><rect fill="#4dd2ff" height="2.6" width="2.6" x="150.0" y="56.0"><title>2020-10-08 7.1 km</title></rect><rect fill="#ffd400" height="2.6" width="2.6" x="150.0" y="59.5"><title>2020-10-09 12.8 km</title></rect><rect fill="#ffdb00" height="2.6" width="2.6" x="150.0" y="63.0"><title>2020-10-10 10.9 km</title></rect><rect fill="#4dd2ff" height="2.6" width="2.6" x="150.0" y="66.5"><title>2020-10-11 2.7 km</title></rect><rect fill="#4dd2ff" height="2.6" width="2.6" x="153.5" y="45.5"><title>2020-10-12 4.8 km</title></rect><rect fill="#ffd900" height="2.6" width="2.6" x="153.5" y="49.0"><title>2020-10-13 11.3 km</title></rect><rect fill="#ffd400" height="2.6" width="2.6" x="153.5" y="52.5"><title>2020-10-14 12.7 km</title></rect><rect fill="#ffd900" height="2.6" width="2.6" x="153.5" y="56.0"><title>2020-10-15 11.5 km</title></rect><rect fill="#ffd900" height="2.6" width="2.6" x="153.5" y="59.5"><title>2020-10-16 11.4 km</title></rect><rect fill="#ffd000" height="2.6" width="2.6" x="153.5" y="63.0"><title>2020-10-17 13.8 km</title></rect><rect fill="#444444" height="2.6" width="2.6" x="153.5" y="66.5"><title>2020-10-18</title></rect><rect fill="#ffd000" height="2.6" width="2.6" x="157.0" y="45.5"><title>2020-10-19 13.8 km</title></rect><rect fill="#ffd300" height="2.6" width="2.6" x="157.0" y="49.0"><title>2020-10-20 13.0 km</title></rect><rect fill="#ffd100" height="2.6" width="2.6" x="157.0" y="52.5"><title>2020-10-21 13.4 km</title></rect><rect fill="#ffdd00" height="2.6" width="2.6" x="157.0" y="56.0"><title>2020-10-22 10.3 km</title></rect><rect fill="#ffd000" height="2.6" width="2.6" x="157.0" y="59.5"><title>2020-10-23 13.8 km</title></rect><rect fill="#4dd2ff" height="2.6" width="2.6" x="157.0" y="63.0"><title>2020-10-24 1.9 km</title></rect><rect fill="#444444" height="2.6" width="2.6" x="157.0" y="66.5"><title>2020-10-25</title></rect><rect fill="#ffd000" height="2.6" width="2.6" x="160.5" y="45.5"><title>2020-10-26 13.8 km</title></rect><rect fill="#ffd000" height="2.6" width="2.6" x="160.5" y="49.0"><title>2020-10-27 13.7 km</title></rect><rect fill="#ffd100" height="2.6" width="2.6" x="160.5" y="52.5"><title>2020-10-28 13.7 km</title></rect><rect fill="#ffd000" height="2.6" width="2.6" x="160.5" y="56.0"><title>2020-10-29 13.8 km</title></rect><rect fill="#ffd100" height="2.6" width="2.6" x="160.5" y="59.5"><title>2020-10-30 13.5 km</title></rect><rect fill="#444444" height="2.6" width="2.6" x="160.5" y="63.0"><title>2020-10-31</title></rect><rect fill="#4dd2ff" height="2.6" width="2.6" x="160.5" y="66.5"><title>2020-11-01 6.8 km</title></rect><rect fill="#ffd000" height="2.6" width="2.6" x="164.0" y="45.5"><title>2020-11-02 13.9 km</title></rect><rect fill="#ffd000" height="2.6" width="2.6" x="164.0" y="49.0"><title>2020-11-03 13.8 km</title></rect><rect fill="#ffd200" height="2.6" width="2.6" x="164.0" y="52.5"><title>2020-11-04 13.3 km</title></rect><rect fill="#ffd400" height="2.6" width="2.6" x="164.0" y="56.0"><title>2020-11-05 12.6 km</title></rect><rect fill="#ffd400" height="2.6" width="2.6" x="164.0" y="59.5"><title>2020-11-06 12.8 km</title></rect><rect fill="#4dd2ff" height="2.6" width="2.6" x="164.0" y="63.0"><title>2020-11-07 7.0 km</title></rect><rect fill="#4dd2ff" height="2.6" width="2.6" x="164.0" y="66.5"><title>2020-11-08 2.0 km</title></rect><rect fill="#ffd600" height="2.6" width="2.6" x="167.5" y="45.5"><title>2020-11-09 12.2 km</title></rect><rect fill="#ffd800" height="2.6" width="2.6" x="167.5" y="49.0"><title>2020-11-10 11.5 km</title></rect><rect fill="#ffd200" height="2.6" width="2.6" x="167.5" y="52.5"><title>2020-11-11 13.3 km</title></rect><rect fill="#ffd300" height="2.6" width="2.6" x="167.5" y="56.0"><title>2020-11-12 13.1 km</title></rect><rect fill="#ffd300" height="2.6" width="2.6" x="167.5" y="59.5"><title>2020-11-13 12.9 km</title></rect><rect fill="red" height="2.6" width="2.6" x="167.5" y="63.0"><title>2020-11-14 27.3 km</title></rect><rect fill="#4dd2ff" height="2.6" width="2.6" x="167.5" y="66.5"><title>2020-11-15 1.9 km</title></rect><rect fill="#ffc900" height="2.6" width="2.6" x="171.0" y="45.5"><title>2020-11-16 15.9 km</title></rect><rect fill="#ffd400" height="2.6" width="2.6" x="171.0" y="49.0"><title>2020-11-17 12.8 km</title></rect><rect fill="#ffd000" height="2.6" width="2.6" x="171.0" y="52.5"><title>2020-11-18 14.0 km</title></rect><rect fill="#ffd800" height="2.6" width="2.6" x="171.0" y="56.0"><title>2020-11-19 11.5 km</title></rect><rect fill="#ffcf00" height="2.6" width="2.6" x="171.0" y="59.5"><title>2020-11-20 14.1 km</title></rect><rect fill="#ffc800" height="2.6" width="2.6" x="171.0" y="63.0"><title>2020-11-21 16.1 km</title></rect><rect fill="red" height="2.6" width="2.6" x="171.0" y="66.5"><title>2020-11-22 20.5 km</title></rect><rect fill="#4dd2ff" height="2.6" width="2.6" x="174.5" y="45.5"><title>2020-11-23 9.9 km</title></rect><rect fill="#ffd600" height="2.6" width="2.6" x="174.5" y="49.0"><title>2020-11-24 12.2 km</title></rect><rect fill="#ffd200" height="2.6" width="2.6" x="174.5" y="52.5"><title>2020-11-25 13.3 km</title></rect><rect fill="#ffcf00" height="2.6" width="2.6" x="174.5" y="56.0"><title>2020-11-26 14.1 km</title></rect><rect fill="#ffd100" height="2.6" width="2.6" x="174.5" y="59.5"><title>2020-11-27 13.6 km</title></rect><rect fill="red" height="2.6" width="2.6" x="174.5" y="63.0"><title>2020-11-28 24.3 km</title></rect><rect fill="#ffd100" height="2.6" width="2.6" x="174.5" y="66.5"><title>2020-11-29 13.5 km</title></rect><rect fill="#ffd000" height="2.6" width="2.6" x="178.0" y="45.5"><title>2020-11-30 13.8 km</title></rect><rect fill="#ffce00" height="2.6" width="2.6" x="178.0" y="49.0"><title>2020-12-01 14.4 km</title></rect><rect fill="#ffd100" height="2.6" width="2.6" x="178.0" y="52.5"><title>2020-12-02 13.7 km</title></rect><rect fill="#ffcd00" height="2.6" width="2.6" x="178.0" y="56.0"><title>2020-12-03 14.6 km</title></rect><rect fill="#ffda00" height="2.6" width="2.6" x="178.0" y="59.5"><title>2020-12-04 11.0 km</title></rect><rect fill="#ffdb00" height="2.6" width="2.6" x="178.0" y="63.0"><title>2020-12-05 10.9 km</title></rect><rect fill="#4dd2ff" height="2.6" width="2.6" x="178.0" y="66.5"><title>2020-12-06 7.2 km</title></rect><rect fill="#ffce00" height="2.6" width="2.6" x="181.5" y="45.5"><title>2020-12-07 14.5 km</title></rect><rect fill="#ffc500" height="2.6" width="2.6" x="181.5" y="49.0"><title>2020-12-08 16.8 km</title></rect><rect fill="#ffcd00" height="2.6" width="2.6" x="181.5" y="52.5"><title>2020-12-09 14.6 km</title></rect><rect fill="#ffd200" height="2.6" width="2.6" x="181.5" y="56.0"><title>2020-12-10 13.2 km</title></rect><rect fill="#ffc600" height="2.6" width="2.6" x="181.5" y="59.5"><title>2020-12-11 16.5 km</title></rect><rect fill="#ffcf00" height="2.6" width="2.6" x="181.5" y="63.0"><title>2020-12-12 14.2 km</title></rect><rect fill="#4dd2ff" height="2.6" width="2.6" x="181.5" y="66.5"><title>2020-12-13 3.1 km</title></rect><rect fill="#ffdc00" height="2.6" width="2.6" x="185.0" y="45.5"><title>2020-12-14 10.7 km</title></rect><rect fill="#ffd100" height="2.6" width="2.6" x="185.0" y="49.0"><title>2020-12-15 13.5 km</title></rect><rect fill="#ffc600" height="2.6" width="2.6" x="185.0" y="52.5"><title>2020-12-16 16.6 km</title></rect><rect fill="#ffd000" height="2.6" width="2.6" x="185.0" y="56.0"><title>2020-12-17 13.7 km</title></rect><rect fill="#ffd000" height="2.6" width="2.6" x="185.0" y="59.5"><title>2020-12-18 13.9 km</title></rect><rect fill="#4dd2ff" height="2.6" width="2.6" x="185.0" y="63.0"><title>2020-12-19 5.1 km</title></rect><rect fill="#4dd2ff" height="2.6" width="2.6" x="185.0" y="66.5"><title>2020-12-20 4.8 km</title></rect><rect fill="#ffd000" height="2.6" width="2.6" x="188.5" y="45.5"><title>2020-12-21 13.7 km</title></rect><rect fill="#ffcd00" height="2.6" width="2.6" x="188.5" y="49.0"><title>2020-12-22 14.6 km</title></rect><rect fill="#ffd200" height="2.6" width="2.6" x="188.5" y="52.5"><title>2020-12-23 13.2 km</title></rect><rect fill="#4dd2ff" height="2.6" width="2.6" x="188.5" y="56.0"><title>2020-12-24 7.6 km</title></rect><rect fill="#4dd2ff" height="2.6" width="2.6" x="188.5" y="59.5"><title>2020-12-25 5.1 km</title></rect><rect fill="red" height="2.6" width="2.6" x="188.5" y="63.0"><title>2020-12-26 23.0 km</title></rect><rect fill="#ffd900" height="2.6" width="2.6" x="188.5" y="66.5"><title>2020-12-27 11.4 km</title></rect><rect fill="red" height="2.6" width="2.6" x="192.0" y="45.5"><title>2020-12-28 24.3 km</title></rect><rect fill="#ffd100" height="2.6" width="2.6" x="192.0" y="49.0"><title>2020-12-29 13.5 km</title></rect><rect fill="#ffcf00" height="2.6" width="2.6" x="192.0" y="52.5"><title>2020-12-30 14.2 km</title></rect><rect fill="#ffd300" height="2.6" width="2.6" x="192.0" y="56.0"><title>2020-12-31 13.0 km</title></rect></svg>