<?xml version="1.0" encoding="utf-8" ?>
<svg baseProfile="full" height="200mm" version="1.1" viewBox="0,0,200,200" width="200mm" xmlns="http://www.w3.org/2000/svg" xmlns:ev="http://www.w3.org/2001/xml-events" xmlns:xlink="http://www.w3.org/1999/xlink"><defs /><rect fill="#1a1a1a" height="200" width="200" x="0" y="0" /><text alignment-baseline="middle" fill="#e1ed5e" style="dominant-baseline: central; font-size:9.0px; font-family:Arial;" text-anchor="middle" x="100.0" y="100.0">2025</text><line stroke="#e1ed5e" stroke-width="0.3" x1="100.0" x2="100.0" y1="15.0" y2="10.0" /><path d="M 100.0 14.0 a86.0,86.0 0 0,1 42.46469731375804,11.215312516191453" fill="none" id="id109" stroke="none" /><text fill="#e1ed5e" style="font-size:6.75px; font-family:Arial;" text-anchor="middle"><textPath startOffset="22.20632615414155" xlink:href="#id109">January</textPath></text><path d="M 100.0 79.0 l 0.0 -8.146048034410803 a29.146048034410803,29.146048034410803 0 0,0 0.5017013053513786,0.004318301527914237 l -0.14022082607885022 8.144841109491448" fill="#ff6f0a" stroke="none" /><path d="M 100.36148047927253 79.00311137660856 l 0.16884242599291535 -9.807350097053718 a30.808803377119695,30.808803377119695 0 0,0 0.5301657591433079,0.013692617417325253 l -0.337634820331091 9.802990687494033" fill="#ff850c" stroke="none" /><path d="M 100.72285384407766 79.0124445844662 l 0.31518885525624013 -9.151287802155352 a30.156714064136494,30.156714064136494 0 0,0 0.5186368452036417,0.022333593536052982 l -0.47266653284921334 9.144506482095105" fill="#ff7d0b" stroke="none" /><path d="M 101.08401301168833 79.027996857942 l 1.0601874236896793 -20.51105820783545 a41.53843972113178,41.53843972113178 0 0,0 0.7137450230177369,0.04305504894154059 l -1.4130944955470282 20.489769889513603" fill="#f2ff19" stroke="none" /><path d="M 101.44485096284872 79.0497635885617 l 0.22715708942365348 -3.293761673921562 a24.301585423379198,24.301585423379198 0 0,0 0.4170728476492851,0.032372880029698355 l -0.28382012643527976 3.289363531703399" fill="#ff2d04" stroke="none" /><path d="M 101.80526077348638 79.07773832637324 l 0.32832885339353723 -3.805202155052126 a24.81934068613734,24.81934068613734 0 0,0 0.4253265273870289,0.04038987873528699 l -0.39378050787081037 3.7989867318016604" fill="#ff3405" stroke="none" /><path d="M 102.16513564639614 79.11191278185805 l 0.40319304980680076 -3.889793973939419 a24.910634449179305,24.910634449179305 0 0,0 0.4261299681353753,0.04788066704683464 l -0.4700897214519013 3.8822773534219834" fill="#ff3505" stroke="none" /><path d="M 102.52436894288641 79.15227682838746 l 0.4608198904240726 -3.805721637721082 a24.833519551955995,24.833519551955995 0 0,0 0.42392623803279317,0.05503779246115374 l -0.5262608569647119 3.7972255220957916" fill="#ff3405" stroke="none" /><path d="M 102.88285421437855 79.19881850522331 l 0.525633357856271 -3.792697813834518 a24.828948567682307,24.828948567682307 0 0,0 0.4228381995783186,0.06231535914287938 l -0.5908405378632453 3.7830879705306697" fill="#ff3405" stroke="none" /><path d="M 103.2404852339499 79.25152402106235 l 0.5883281170699557 -3.767001212309274 a24.81266679725289,24.81266679725289 0 0,0 0.4214263602089411,0.06953896035486795 l -0.6530836834177719 3.7563159890147815" fill="#ff3404" stroke="none" /><path d="M 103.59715602781102 79.31037775812273 l 0.6716465235734412 -3.863083153849402 a24.9210356420445,24.9210356420445 0 0,0 0.42200199340378697,0.07711816692568337 l -0.7380436380801291 3.8509495055729803" fill="#ff3605" stroke="none" /><path d="M 103.95276090670814 79.375362276772 l 1.3823080813233892 -7.212579782096711 a28.343846590500252,28.343846590500252 0 0,0 0.4783814912659039,0.09595882676852738 l -1.5062559820564185 7.187716999250975" fill="#ff6509" stroke="none" /><path d="M 104.307194497241 79.44645832069477 l 1.8348639260434008 -8.755804318552107 a29.945995466792453,29.945995466792453 0 0,0 0.5036021991220583,0.11006793505326799 l -1.985308849318987 8.72292288540297" fill="#ff7a0b" stroke="none" /><path d="M 104.66035177308747 79.52364482259891 l 1.8138277859317904 -7.969480370528511 a29.173285056405255,29.173285056405255 0 0,0 0.48868907887302615,0.11565691605835461 l -1.95074055176734 7.937077542329288" fill="#ff700a" stroke="none" /><path d="M 105.01212808612495 79.60689891045804 l 0.9316548591343494 -3.7906716261871907 a24.903482055054088,24.903482055054088 0 0,0 0.415403257365592,0.10589553964184265 l -0.9967670051849665 3.77407309037648" fill="#ff3505" stroke="none" /><path d="M 105.36241919743992 79.69619591428918 l 0.9760593733072952 -3.6956674892395935 a24.822388008986465,24.822388008986465 0 0,0 0.41217233777341095,0.11266226981373477 l -1.039529600304417 3.678318678599565" fill="#ff3405" stroke="none" /><path d="M 105.71112130821622 79.79150937346287 l 1.5119035818666262 -5.349788196308245 a26.559324256258144,26.559324256258144 0 0,0 0.43887358702747803,0.1281192347594744 l -1.6037673866175315 5.322970632630067" fill="#ff4c07" stroke="none" /><path d="M 106.0581310904928 79.89281104454417 l 1.1383425305045725 -3.778206185205761 a24.94596828353734,24.94596828353734 0 0,0 0.41008157825578984,0.12741434253891118 l -1.2032094814710805 3.7580517077843294" fill="#ff3605" stroke="none" /><path d="M 106.40334571778207 80.00007090966166 l 2.3672008573983208 -7.393611305271373 a28.763319395252523,28.763319395252523 0 0,0 0.470235316081811,0.15502919049003386 l -2.494118995722549 7.3517683905221025" fill="#ff6a09" stroke="none" /><path d="M 106.74666289553966 80.11325718540242 l 1.2655474589368223 -3.7303800745970084 a24.939206248950647,24.939206248950647 0 0,0 0.405342852244977,0.1414161620327331 l -1.329572315245073 3.7080430593920677" fill="#ff3605" stroke="none" /><path d="M 107.08798089147638 80.2323363322302 l 1.402653995787221 -3.9118604939127843 a25.155729870399835,25.155729870399835 0 0,0 0.4063461038157314,0.14966069933117057 l -1.4697824253755287 3.887136526775289" fill="#ff3905" stroke="none" /><path d="M 107.4271985657038 80.35727306442388 l 1.0180295169406854 -2.6923847042357125 a23.878423091375712,23.878423091375712 0 0,0 0.3832109797644909,0.1486799066088485 l -1.0642236617048435 2.674462093736317" fill="#ff2703" stroke="none" /><path d="M 107.76421540070413 80.48803036053334 l 2.8406610858733603 -7.1387629017284535 a28.683182359666446,28.683182359666446 0 0,0 0.4571773241580085,0.18649410956303084 l -2.963122279619756 7.088807905981843" fill="#ff6909" stroke="none" /><path d="M 108.09893153111575 80.62456947434976 l 6.687363595800378 -15.998474397812638 a38.33989662367981,38.33989662367981 0 0,0 0.6067128748899551,0.25976278997499835 l -6.961760228480649 15.880992079874847" fill="#ffe515" stroke="none" /><path d="M 108.43124777332544 80.76684994638697 l 1.7985318241153307 -4.102765495618336 a25.479665326159086,25.479665326159086 0 0,0 0.4001737733356774,0.17954630731021048 l -1.8688877159177884 4.071198857791595" fill="#ff3d05" stroke="none" /><path d="M 108.76106565485865 80.91482961587045 l 1.3180421132648994 -2.8712327125603125 a24.15930566770869,24.15930566770869 0 0,0 0.37645005782606655,0.17674834979351906 l -1.3672703823905639 2.8481193801267906" fill="#ff2b04" stroke="none" /><path d="M 109.08828744355905 81.06846463323043 l 1.3661314127504411 -2.845746827084474 a24.15667388888445,24.15667388888445 0 0,0 0.37331117954294546,0.18318217452907093 l -1.4149138593038184 2.821809492420571" fill="#ff2b04" stroke="none" /><path d="M 109.41281617654863 81.2277094730956 l 2.1291099791234633 -4.2461544284074275 a25.750045971681445,25.750045971681445 0 0,0 0.39451463026171035,0.2020857166514208 l -2.201885096973929 4.208876186443506" fill="#ff4106" stroke="none" /><path d="M 109.73455568895987 81.39251694778311 l 1.8491351892799337 -3.5345990916469554 a24.989071531936325,24.989071531936325 0 0,0 0.3794232971722029,0.20267478508848366 l -1.909703532980448 3.5022455800567176" fill="#ff3605" stroke="none" /><path d="M 110.05341064243156 81.56283822128135 l 4.546948482570148 -8.338744706082052 a30.497863116320346,30.497863116320346 0 0,0 0.45874001396305103,0.2552883211031631 l -4.689812585605234 8.259240987418709" fill="#ff810b" stroke="none" /><path d="M 110.36928655335952 81.73862282372117 l 1.6972818509498724 -2.9890874261360234 a24.437354989326575,24.437354989326575 0 0,0 0.3640040233602888,0.2108546251642622 l -1.7484826067754895 2.9594286435817114" fill="#ff2f04" stroke="none" /><line stroke="#e1ed5e" stroke-width="0.3" x1="143.23703022742887" x2="145.7803849466894" y1="26.81831364943548" y2="22.513508569990506" /><path d="M 143.74570117128098 25.957352633546492 a86.0,86.0 0 0,1 28.547481713284135,27.462654790039103" fill="none" id="id110" stroke="none" /><text fill="#e1ed5e" style="font-size:6.75px; font-family:Arial;" text-anchor="middle"><textPath startOffset="19.985693538727396" xlink:href="#id110">February</textPath></text><path d="M 110.68208982089419 81.91981866633111 l 3.6484393702112285 -6.175237851800225 a28.172494152274616,28.172494152274616 0 0,0 0.4153939466098096,0.25027020495781827 l -3.754195383038676 6.111521037383792" fill="#ff6209" stroke="none" /><path d="M 110.99172775467656 82.1063720568725 l 2.0078355689803913 -3.268591020827192 a24.83602540834846,24.83602540834846 0 0,0 0.3623467864911337,0.22690152445898984 l -2.063801507843788 3.2335451550452583" fill="#ff3405" stroke="none" /><path d="M 111.2981086023043 82.29822771554956 l 2.040564314451375 -3.1971373349010666 a24.792834014247223,24.792834014247223 0 0,0 0.3577641062178096,0.23269972654011312 l -2.0952954464534645 3.1615386842014255" fill="#ff3404" stroke="none" /><path d="M 111.60114157652 82.49532879139004 l 3.666050522113789 -5.531611574643391 a27.636162523885286,27.636162523885286 0 0,0 0.39426974079875654,0.26621268896951966 l -3.7607249573190873 5.467686973375201" fill="#ff5b08" stroke="none" /><path d="M 111.90073688211348 82.69761687909136 l 1.869979531257059 -2.7187478051628675 a24.29975954811836,24.29975954811836 0 0,0 0.3425905770382238,0.24000659273673938 l -1.9165012478789338 2.6861563696621924" fill="#ff2d04" stroke="none" /><path d="M 112.19680574252982 82.90503203632743 l 1.480436456434905 -2.0749706381531947 a23.54895964086123,23.54895964086123 0 0,0 0.3279525496174033,0.2382714744648303 l -1.515934322406097 2.0491799288716894" fill="#ff2203" stroke="none" /><path d="M 112.48926042617603 83.11751280151076 l 6.580421938630493 -8.895153543819719 a32.06461519703862,32.06461519703862 0 0,0 0.44089433173344317,0.33207246996355216 l -6.732562424122318 8.78056448435032" fill="#ff960d" stroke="none" /><path d="M 112.77801427241765 83.33499621200491 l 1.9305398730851893 -2.517797649301976 a24.172741591179832,24.172741591179832 0 0,0 0.3280211621918992,0.2560257200762373 l -1.973593590436519 2.4841935400025146" fill="#ff2b04" stroke="none" /><path d="M 113.06298171725822 83.55741782278167 l 6.898608822834178 -8.683388290138575 a32.090177450690376,32.090177450690376 0 0,0 0.4295447533738793,0.3473286510597161 l -7.047056974772548 8.56335354181473" fill="#ff960d" stroke="none" /><path d="M 113.34407831869373 83.78471172551755 l 1.679302598986549 -2.0406336872669164 a23.642771852538836,23.642771852538836 0 0,0 0.3120198106822031,0.26130761823696425 l -1.7141799466278695 2.0114249116361327" fill="#ff2403" stroke="none" /><path d="M 113.6212207817346 84.01681056812373 l 2.5098937295364885 -2.945118324992856 a24.869533367445655,24.869533367445655 0 0,0 0.32342970416241096,0.28047505232041414 l -2.5602172323456633 2.9014782792527707" fill="#ff3505" stroke="none" /><path d="M 113.89432698308785 84.25364557470407 l 0.15871438935285187 -0.1798700311419482 a21.23988223254475,21.23988223254475 0 0,0 0.27206166406236626,0.2442596482277593 l -0.16178704101120814 0.17711137414489148" fill="#ff0100" stroke="none" /><path d="M 114.16331599549186 84.49514656593476 l 1.7253037995499798 -1.8887231316291286 a23.558114201651783,23.558114201651783 0 0,0 0.2970477577741928,0.2760735174169707 l -1.7575594411190194 1.8587450281375173" fill="#ff2203" stroke="none" /><path d="M 114.42810811169701 84.74124197986012 l 12.297292589744396 -13.005267944842073 a38.89861445349665,38.89861445349665 0 0,0 0.4825590888283835,0.46422146112183993 l -12.519334922185196 12.791663396957931" fill="#ffec16" stroke="none" /><path d="M 114.68862486808459 84.99185889309783 l 13.773118041766637 -14.07271959827843 a40.69112026991373,40.69112026991373 0 0,0 0.49636229829703304,0.4942307608447266 l -14.013316140230993 13.833552986783584" fill="#fcff18" stroke="none" /><path d="M 114.94478906791727 85.2469230424477 l 2.449003422147419 -2.4175875478773152 a24.441271176954995,24.441271176954995 0 0,0 0.29298768551251164,0.30194956426529157 l -2.4902553713630398 2.375073788061909" fill="#ff2f04" stroke="none" /><path d="M 115.19652480421416 85.50635884689758 l 4.503326839357186 -4.295034821821761 a27.223124355397076,27.223124355397076 0 0,0 0.3204974256531397,0.3418843076500047 l -4.576591586980789 4.216881097293701" fill="#ff5507" stroke="none" /><path d="M 115.4437574822437 85.77008943001954 l 4.386796614924424 -4.042003611545872 a26.96504633145982,26.96504633145982 0 0,0 0.31158285587676016,0.34405757169819673 l -4.45572311141722 3.9658932525781263" fill="#ff5207" stroke="none" /><path d="M 115.68641384162765 86.03803664274999 l 2.3237468719747207 -2.0682910068289337 a24.110888492688503,24.110888492688503 0 0,0 0.2732660779822426,0.31239036595170944 l -2.359004813534811 2.0279850846742766" fill="#ff2a04" stroke="none" /><path d="M 115.9244219780498 86.31012108654704 l 5.291537468280002 -4.549019569225465 a27.978104887389367,27.978104887389367 0 0,0 0.3108092821415311,0.3679001557614632 l -5.3690573639086505 4.457260463834896" fill="#ff6008" stroke="none" /><path d="M 116.15771136456269 86.58626213691792 l 1.7591019223063167 -1.4603635086595272 a23.28628544816393,23.28628544816393 0 0,0 0.25337863518307785,0.3106122469073922 l -1.7839790495658034 1.4298670921440342" fill="#ff1f03" stroke="none" /><path d="M 116.38621287248628 86.86637796730983 l 2.661932597457464 -2.133550740708699 a24.411440152865836,24.411440152865836 0 0,0 0.2599770941434811,0.3301445084749572 l -2.698263772194909 2.0874138382807033" fill="#ff2e04" stroke="none" /><path d="M 116.60985879189232 87.15038557335679 l 1.8844700638185055 -1.457851871109182 a23.382553147261287,23.382553147261287 0 0,0 0.2435393786806867,0.3204692749786977 l -1.9092853827233056 1.4251978202494509" fill="#ff2003" stroke="none" /><path d="M 116.82858285166822 87.43820079747576 l 2.293739865601276 -1.7121762342366165 a23.862305020107613,23.862305020107613 0 0,0 0.24286984449527518,0.3312741949489344 l -2.3228723226101775 1.6724395956161884" fill="#ff2703" stroke="none" /><path d="M 117.04232023915458 87.72973835380427 l 1.3161073066673812 -0.9475811263173307 a22.621742406677487,22.621742406677487 0 0,0 0.22480343611052048,0.3179685178462704 l -1.3322233625817845 0.9247861081392672" fill="#ff1502" stroke="none" /><path d="M 117.2510076193507 88.02491185347247 l 6.482906374978978 -4.500222653601757 a28.891772867913364,28.891772867913364 0 0,0 0.2800789571125264,0.4109813096345485 l -6.559409797760239 4.3879633206968025" fill="#ff6c09" stroke="none" /><path d="M 117.45458315368197 88.32363383020206 l 1.7159398531282741 -1.1478900340423501 a23.064485676823075,23.064485676823075 0 0,0 0.2179081696200308,0.331889092151505 l -1.73544465810623 1.118182877913171" fill="#ff1b02" stroke="none" /><path d="M 117.65298651832404 88.62581576622439 l 8.76383198099359 -5.646718159683919 a31.425458117799437,31.425458117799437 0 0,0 0.28907291827082676,0.45724393569296723 l -8.859732495510372 5.495026576276746" fill="#ff8e0d" stroke="none" /><line stroke="#e1ed5e" stroke-width="0.3" x1="172.23445277983987" x2="176.4835382374775" y1="55.19839476539836" y2="52.563006222186495" /><path d="M 173.08426987136738 54.67131705675599 a86.0,86.0 0 0,1 12.851231095245387,41.99856678651699" fill="none" id="id111" stroke="none" /><text fill="#e1ed5e" style="font-size:6.75px; font-family:Arial;" text-anchor="middle"><textPath startOffset="22.20632615414155" xlink:href="#id111">March</textPath></text><path d="M 117.84615892207809 88.93136811851018 l 5.727433899987034 -3.552297037212536 a27.739607801594218,27.739607801594218 0 0,0 0.2481825746502745,0.40794689751088375 l -5.787732272923533 3.453182366494571" fill="#ff5c08" stroke="none" /><path d="M 118.03404312379186 89.2402003453031 l 21.01425897284107 -12.537910378033107 a45.47035506128225,45.47035506128225 0 0,0 0.39524635308744105,0.6756041384142056 l -21.226965000398838 12.174326827265006" fill="#c5ff1e" stroke="none" /><path d="M 118.21658344932153 89.55222093294921 l 7.404218216651546 -4.246550200097446 a29.535551300398954,29.535551300398954 0 0,0 0.24914272490861994,0.4431971075201215 l -7.476218582852599 4.118469582642531" fill="#ff750a" stroke="none" /><path d="M 118.3937258080291 89.86733742301442 l 0.6597150048458867 -0.36342118018089825 a21.75319243346099,21.75319243346099 0 0,0 0.17784985509368695,0.3295287707767814 l -0.6658729591580385 0.35201142607165814" fill="#ff0901" stroke="none" /><path d="M 118.56541770881063 90.18545643968196 l 0.8233406591495204 -0.4352561785005816 a21.93130971321666,21.93130971321666 0 0,0 0.17356079965621538,0.33526422164281916 l -0.8307108919658521 0.42101923459741764" fill="#ff0b01" stroke="none" /><path d="M 118.73160827565052 90.50648371742162 l 8.099742885944242 -4.105095507061564 a30.080619138610615,30.080619138610615 0 0,0 0.23010239375142252,0.46387238476447745 l -8.169205292649073 3.9650635337981366" fill="#ff7c0b" stroke="none" /><path d="M 118.89224826269711 90.83032412892265 l 3.8252622563180245 -1.8566564722506271 a25.252035346226723,25.252035346226723 0 0,0 0.18643434139289547,0.3926782696582614 l -3.856654791552676 1.7905357869518255" fill="#ff3a05" stroke="none" /><path d="M 119.04729006885535 91.15688171328212 l 2.5485803148527633 -1.1832337884272097 a23.8098583272704,23.8098583272704 0 0,0 0.1693875079773884,0.37322292066314067 l -2.568570139793499 1.1391888589220063" fill="#ff2603" stroke="none" /><path d="M 119.196687751892 91.48605970444005 l 13.183113551018186 -5.846854578956925 a35.42151834469966,35.42151834469966 0 0,0 0.24240005988625005,0.5594927588084867 l -13.281804320747117 5.6190626755618345" fill="#ffc111" stroke="none" /><path d="M 119.34039704204932 91.81776055985345 l 5.227413501781593 -2.2115341702261024 a26.67597879706101,26.67597879706101 0 0,0 0.17527174071800206,0.42443442257840897 l -5.264706929385793 2.12122517719439" fill="#ff4e07" stroke="none" /><path d="M 119.47837535516314 92.15188598940014 l 3.719570480972085 -1.4986677622162583 a25.01013835477346,25.01013835477346 0 0,0 0.15745245756438705,0.40069933034084004 l -3.7448164884181723 1.4344194269796338" fill="#ff3705" stroke="none" /><path d="M 119.61058180528143 92.48833698450437 l 6.33681731256799 -2.4272628275592516 a27.785783557328685,27.785783557328685 0 0,0 0.167237883168254,0.448114381446572 l -6.37765978423787 2.3178253090833465" fill="#ff5d08" stroke="none" /><path d="M 119.7369772167798 92.82701384747503 l 5.6405824592334435 -2.0499501736192385 a27.00153865219025,27.00153865219025 0 0,0 0.15499772847220866,0.4381994506095213 l -5.675033268515461 1.9525530965831028" fill="#ff5207" stroke="none" /><path d="M 119.85752413597 93.16781622104841 l 6.108121207069416 -2.101561420500387 a27.459543721067824,27.459543721067824 0 0,0 0.14993264737381123,0.44827953186013036 l -6.143391148214998 1.996108785717943" fill="#ff5908" stroke="none" /><path d="M 119.97218684219823 93.5106431181261 l 3.895268643267574 -1.2656495043160654 a25.0957278316557,25.0957278316557 0 0,0 0.12995346583515063,0.4119879996843421 l -3.9164775928709306 1.198411338205304" fill="#ff3805" stroke="none" /><path d="M 120.08093135843002 93.85539295169968 l 16.68866084582492 -5.106598953484325 a38.452471277692936,38.452471277692936 0 0,0 0.18822320422992764,0.6345950738962612 l -16.774089947166548 4.818574492841534" fill="#ffe715" stroke="none" /><path d="M 120.18372546131832 94.20196356495316 l 4.13712958354783 -1.1884440316972957 a25.304444262334403,25.304444262334403 0 0,0 0.11665737943143131,0.4196786623731538 l -4.156973733545624 1.1170540659051902" fill="#ff3b05" stroke="none" /><path d="M 120.28053869075195 94.5502522615342 l 6.371862574037515 -1.712234777496844 a27.59790728910991,27.59790728910991 0 0,0 0.11933291497878526,0.4598384003729044 l -6.400391820886604 1.6022999515750893" fill="#ff5a08" stroke="none" /><path d="M 120.37134235888165 94.90015583598534 l 8.031510481705833 -2.0106407882587156 a29.27936211293843,29.27936211293843 0 0,0 0.11818712078396418,0.48996191686088664 l -8.064930402750617 1.8720936397384231" fill="#ff710a" stroke="none" /><path d="M 120.45610955862082 95.25157060432595 l 4.272396442343714 -0.9917415038603224 a25.38599162915644,25.38599162915644 0 0,0 0.09514381108256667,0.4265110492565843 l -4.288834640428318 0.9180522850537743" fill="#ff3c05" stroke="none" /><path d="M 120.53481517161879 95.60439243477599 l 3.7201323769128134 -0.7963179547967509 a24.804406285727993,24.804406285727993 0 0,0 0.08577683089904968,0.4182782904852176 l -3.73328850372686 0.7321640081481215" fill="#ff3404" stroke="none" /><path d="M 120.6074358757038 95.95851677861258 l 5.211896782697516 -1.0221452841549 a26.31118151218849,26.31118151218849 0 0,0 0.08333662815997672,0.44518759995915663 l -5.228719134767352 0.9322796067331806" fill="#ff4906" stroke="none" /><path d="M 120.67395015179393 96.31383870115 l 4.803920260962704 -0.8565380499955156 a25.879683115201036,25.879683115201036 0 0,0 0.07442028037016696,0.4392327074352523 l -4.817952402853093 0.7737195542444255" fill="#ff4306" stroke="none" /><path d="M 120.73433829027371 96.67025291283417 l 2.7260473629396773 -0.4377785362208758 a23.76097523925262,23.76097523925262 0 0,0 0.061375851088770285,0.4043901733780307 l -2.7331791074677474 0.39078925045076296" fill="#ff2503" stroke="none" /><path d="M 120.78858239683441 97.02765380044208 l 7.356821640649849 -1.0518764784914238 a28.43163970993868,28.43163970993868 0 0,0 0.06510033288571207,0.4850730958617598 l -7.373837972593398 0.9250850405649996" fill="#ff6609" stroke="none" /><path d="M 120.83666639777658 97.38593545837742 l 3.1637450222141137 -0.3969077165907565 a24.188544856368477,24.188544856368477 0 0,0 0.04827301791844086,0.4135737376899656 l -3.1701083931361436 0.3423902405759382" fill="#ff2b04" stroke="none" /><path d="M 120.87857604477298 97.74499172005257 l 17.59631439180425 -1.9005048316027595 a38.6986496318268,38.6986496318268 0 0,0 0.06582985700310554,0.6628976762506623 l -17.626421374489585 1.5973316246476623" fill="#ffea16" stroke="none" /><path d="M 120.91429891909075 98.10471618934814 l 2.5440753025877108 -0.23054775838899383 a23.554500227859638,23.554500227859638 0 0,0 0.03311708464768497,0.4041123152011556 l -2.5476668710548904 0.1867215259800695" fill="#ff2203" stroke="none" /><path d="M 120.94382443527127 98.46500227214037 l 6.953975296175246 -0.5096650954180312 a27.972627261606853,27.972627261606853 0 0,0 0.031062149323545084,0.48051770160252916 l -6.961718036503207 0.38988832956246683" fill="#ff6008" stroke="none" /><path d="M 120.96714384426684 98.82574320788733 l 2.72563901562446 -0.15264836024957526 a23.729910175331995,23.729910175331995 0 0,0 0.019330149525865117,0.40802890500696415 l -2.727862773383822 0.10570834861961131" fill="#ff2503" stroke="none" /><path d="M 120.98425023603335 99.18683210126433 l 1.5625194140771586 -0.06054972726626186 a22.563692165625973,22.563692165625973 0 0,0 0.011699065452766826,0.38823502684539696 l -1.5633301739855705 0.03364455299586582" fill="#ff1402" stroke="none" /><line stroke="#e1ed5e" stroke-width="0.3" x1="184.98032266829074" x2="189.97916517819016" y1="98.17113171792111" y2="98.06355123074" /><path d="M 185.9800911702706 98.14961562048488 a86.0,86.0 0 0,1 -9.607161424134198,41.387399972396054" fill="none" id="id112" stroke="none" /><text fill="#e1ed5e" style="font-size:6.75px; font-family:Arial;" text-anchor="middle"><textPath startOffset="21.466115282336823" xlink:href="#id112">April</textPath></text><path d="M 120.99513854157772 99.54816195383933 l 7.547277016597028 -0.16242554886023874 a28.54902460084588,28.54902460084588 0 0,0 0.0063446711718243495,0.4914017743307455 l -7.548954694886568 0.032487516469030496" fill="#ff6709" stroke="none" /><path d="M 120.99980553446 99.90962569577887 l 12.863486898307206 -0.05535902112924164 a33.86360601869249,33.86360601869249 0 0,0 -0.0025086525557372367,0.5829225052191424 l -12.862533948461968 -0.16607296229358545" fill="#ffad10" stroke="none" /><path d="M 120.99824983174949 100.27111621757518 l 9.6482666058655 0.12457236052045229 a30.6490707724042,30.6490707724042 0 0,0 -0.011351740534787142,0.5274707768436385 l -9.644692802645705 -0.2906329531542057" fill="#ff830c" stroke="none" /><path d="M 120.9904718944345 100.63252640178507 l 41.9696578671176 1.264712713861241 a62.98870895528354,62.98870895528354 0 0,0 -0.04198607523001365,1.0834740407552879 l -41.94166965903638 -1.986964001630535" fill="#33ff55" stroke="none" /><path d="M 120.9764740272857 100.99374915477107 l 4.119125804830789 0.19514136558993214 a25.123745572727202,25.123745572727202 0 0,0 -0.024182979876099853,0.43180335089475885 l -4.1151564740671605 -0.26601643282011433" fill="#ff3805" stroke="none" /><path d="M 120.95626037817324 101.35467743843564 l 8.21029528534514 0.5307388620507829 a29.227431702071527,29.227431702071527 0 0,0 -0.03677568223675068,0.501774965704891 l -8.199943044444051 -0.6719869642524442" fill="#ff700a" stroke="none" /><path d="M 120.92983693683757 101.71520430193887 l 10.392596014857368 0.8516753115081593 a31.42743509997841,31.42743509997841 0 0,0 -0.04882536943394328,0.5387838831511497 l -10.376396049146349 -1.0304405832078796" fill="#ff8e0d" stroke="none" /><path d="M 120.89721153311464 102.0752229133903 l 7.2300230169897075 0.7179861966473587 a28.265585799147726,28.265585799147726 0 0,0 -0.052247856545117426,0.4837502619187952 l -7.216592858943538 -0.8423327804509454" fill="#ff6309" stroke="none" /><path d="M 120.8583938346157 102.4346265915055 l 2.9897150677452897 0.3489645397757196 a24.010012032587927,24.010012032587927 0 0,0 -0.05144830021102253,0.410093573115967 l -2.983265258287419 -0.4003758671790816" fill="#ff2904" stroke="none" /><path d="M 120.81339534386255 102.79330883721812 l 2.625316359694557 0.352336524957738 a23.648853905993906,23.648853905993906 0 0,0 -0.057619812022377724,0.4029928310825573 l -2.618862496655578 -0.3974748280207046" fill="#ff2403" stroke="none" /><path d="M 120.76222939487914 103.15116336523771 l 3.724803911045496 0.565327807719707 a24.767460644243148,24.767460644243148 0 0,0 -0.06760130443113573,0.42095338722316644 l -3.714520852253072 -0.6293604246360783" fill="#ff3304" stroke="none" /><path d="M 120.70491114924044 103.5080841355445 l 3.9948583006347755 0.6768586895732335 a25.05179349520695,25.05179349520695 0 0,0 -0.0756964487168977,0.42454588406893734 l -3.982615409578689 -0.7455233243753892" fill="#ff3705" stroke="none" /><path d="M 120.64145759157962 103.86396538481128 l 20.466600052694314 3.83123303175295 a41.82210518320714,41.82210518320714 0 0,0 -0.13855079336640694,0.7064675104220611 l -20.397619326352242 -4.182964269242956" fill="#efff19" stroke="none" /><path d="M 120.5718875245553 104.21870165774334 l 4.376746085698659 0.8975445712124919 a25.467828617571577,25.467828617571577 0 0,0 -0.09176417780712814,0.4286916888470936 l -4.360647869167088 -0.9727500794757544" fill="#ff3d05" stroke="none" /><path d="M 120.49622156327973 104.57218783832717 l 10.300950285650035 2.297881074023939 a31.554138250837486,31.554138250837486 0 0,0 -0.12281987634155009,0.5291048127845909 l -10.259869843377933 -2.4748545441570946" fill="#ff8f0d" stroke="none" /><path d="M 120.41448212921028 104.9243191809786 l 3.8137176456542776 0.9199333509646271 a24.923100769925725,24.923100769925725 0 0,0 -0.10418886953731124,0.41618274266220373 l -3.797317461821905 -0.9854439330242267" fill="#ff3605" stroke="none" /><path d="M 120.32669344350535 105.2749913415812 l 9.874300318668025 2.5624850805131234 a31.201379150443326,31.201379150443326 0 0,0 -0.1393838761377454,0.5186992551831988 l -9.828728366188502 -2.73207526887187" fill="#ff8b0c" stroke="none" /><path d="M 120.23288151984713 105.62410040840565 l 7.482580676451645 2.079920499563028 a28.7662785723994,28.7662785723994 0 0,0 -0.13671840051957548,0.475934687977757 l -7.4456696390459705 -2.2084126630453667" fill="#ff6a09" stroke="none" /><path d="M 120.13307415673323 105.97154293290107 l 6.619035653540647 1.9632300200067576 a27.90404990525836,27.90404990525836 0 0,0 -0.1405476866013866,0.45931797184805434 l -6.584261194433127 -2.076874964406869" fill="#ff5f08" stroke="none" /><path d="M 120.02730092923936 106.31721596034902 l 4.332576877432973 1.3666256824253056 a25.543004309345445,25.543004309345445 0 0,0 -0.13587388160377536,0.41817680854404193 l -4.308410744812951 -1.4410013909471429" fill="#ff3e05" stroke="none" /><path d="M 119.9155931802556 106.66101706037122 l 10.836612324035356 3.624439348288703 a32.426667372898294,32.426667372898294 0 0,0 -0.18160349547651514,0.5278247645666763 l -10.77261799761561 -3.81043681594468" fill="#ff9b0e" stroke="none" /><path d="M 119.79798401119884 107.00284435728193 l 7.676216115761458 2.7151929550569234 a29.142270361457342,29.142270361457342 0 0,0 -0.17135063661268685,0.47148335978800304 l -7.628341218143545 -2.8469241118510578" fill="#ff6f0a" stroke="none" /><path d="M 119.67450827220406 107.3425965602758 l 1.999760076715603 0.7463175830124018 a23.134485956650703,23.134485956650703 0 0,0 -0.14244863680279143,0.37188844059023185 l -1.9866171603193048 -0.7806295904357775" fill="#ff1c02" stroke="none" /><path d="M 119.54520255179757 107.68017299344265 l 8.727154758057482 3.4292844039246457 a30.376738329189216,30.376738329189216 0 0,0 -0.19541990169812987,0.48501616974526574 l -8.666832242101961 -3.5789999415127247" fill="#ff800b" stroke="none" /><path d="M 119.41010516605496 108.01547362559984 l 2.497531970540889 1.0313649239764349 a23.702106502394525,23.702106502394525 0 0,0 -0.15897230688274588,0.3757635738105147 l -2.479408682465834 -1.074203023453113" fill="#ff2403" stroke="none" /><path d="M 119.26925614724726 108.34839909993367 l 2.5858134850234578 1.1203028703342073 a23.818068469822588,23.818068469822588 0 0,0 -0.16622620374921282,0.3747962070182828 l -2.566146196542972 -1.164647413845178" fill="#ff2603" stroke="none" /><path d="M 119.12269723197855 108.67885076344098 l 6.508026721838427 2.9536729049324486 a28.146929091679525,28.146929091679525 0 0,0 -0.20403224122681016,0.43946729604225754 l -6.456219863771786 -3.0652602682535366" fill="#ff6209" stroke="none" /><path d="M 118.97047184881838 109.00673069616215 l 9.828477292360647 4.666328219514011 a31.879962543073468,31.879962543073468 0 0,0 -0.23962610793662084,0.493700757258135 l -9.746697927809311 -4.834817932737422" fill="#ff940d" stroke="none" /><path d="M 118.81262510543309 109.33194174019688 l 9.294976532355733 4.610742997870633 a31.375718757245536,31.375718757245536 0 0,0 -0.24416484265337976,0.4817603984797427 l -9.214233019916083 -4.7700576080530706" fill="#ff8d0d" stroke="none" /><path d="M 118.64920377521936 109.65438752849418 l 7.286168037080577 3.7719299266371102 a29.20461455743262,29.20461455743262 0 0,0 -0.23495458941604835,0.4444455382263031 l -7.220160939439636 -3.8967904799495474" fill="#ff700a" stroke="none" /><line stroke="#e1ed5e" stroke-width="0.3" x1="174.80103733775053" x2="179.2010983576182" y1="140.37084112569926" y2="142.7455964860345" /><path d="M 175.68104954172406 140.8457921977663 a86.0,86.0 0 0,1 -30.038265399797805,32.042727171017184" fill="none" id="id113" stroke="none" /><text fill="#e1ed5e" style="font-size:6.75px; font-family:Arial;" text-anchor="middle"><textPath startOffset="22.206326154141568" xlink:href="#id113">May</textPath></text><path d="M 118.48025628344425 109.97397251340804 l 15.087249788383502 8.142734190708573 a38.14436427160869,38.14436427160869 0 0,0 -0.3168227131163591,0.5751252516840355 l -14.944850665815634 -8.401229960790415" fill="#ffe315" stroke="none" /><path d="M 118.30583269289576 110.29060199501025 l 2.568864027830662 1.4440838465634713 a23.94693748650831,23.94693748650831 0 0,0 -0.20508613834344158,0.35758496896383657 l -2.543625893334841 -1.4880886613856232" fill="#ff2803" stroke="none" /><path d="M 118.12598468904814 110.60418214915192 l 19.631399185317093 11.484889586693525 a43.74410962846886,43.74410962846886 0 0,0 -0.38582122279741665,0.6466585618037421 l -19.43079708682145 -11.821110242383371" fill="#d8ff1c" stroke="none" /><path d="M 117.94076556474637 110.91462005526583 l 7.133981326844226 4.340098831505281 a29.35045791792256,29.35045791792256 0 0,0 -0.26630000358579364,0.42936039754737937 l -7.058216683590469 -4.462255560417933" fill="#ff720a" stroke="none" /><path d="M 117.75023020441432 111.22182372390056 l 2.771248073904246 1.752003045730554 a24.27861717182216,24.27861717182216 0 0,0 -0.2263635793415815,0.35132130201394557 l -2.7406796311856145 -1.7994459476659523" fill="#ff2d04" stroke="none" /><path d="M 117.55443506779139 111.5257021239791 l 6.806268098395894 4.468786285352251 a29.142194807998273,29.142194807998273 0 0,0 -0.2789281265677839,0.41695970375365116 l -6.728336866417389 -4.585282903311709" fill="#ff6f0a" stroke="none" /><path d="M 117.35343817320211 111.8261652097733 l 2.6114651162339038 1.7796829421292273 a24.1602249014607,24.1602249014607 0 0,0 -0.23716032590218458,0.34164713771502425 l -2.580443883169583 -1.824371342031271" fill="#ff2b04" stroke="none" /><path d="M 117.14729908036423 112.12312394758627 l 7.538610836328589 5.329790606270056 a30.232406037880665,30.232406037880665 0 0,0 -0.3040807181098206,0.42234152180335727 l -7.445750325843165 -5.458765733524545" fill="#ff7e0b" stroke="none" /><path d="M 116.93607887273984 112.41649034213515 l 5.018845306872401 3.679508388553588 a27.22314953988343,27.22314953988343 0 0,0 -0.28031901776545143,0.375533133376007 l -4.954765022411857 -3.76535440143891" fill="#ff5507" stroke="none" /><path d="M 116.71984013943494 112.70617746262583 l 7.3084250343329265 5.5540091701899374 a30.17932973288454,30.17932973288454 0 0,0 -0.3178791427543863,0.4109016425497096 l -7.211739074360472 -5.6789888068528995" fill="#ff7d0b" stroke="none" /><path d="M 116.498646956653 112.99209946851258 l 3.281954799060165 2.5844230325419315 a25.17737593642316,25.17737593642316 0 0,0 -0.271054939080306,0.3381827131048433 l -3.236981947925005 -2.640533579225025" fill="#ff3905" stroke="none" /><path d="M 116.27256486870786 113.27417163493432 l 16.9124310484653 13.796135662241625 a42.82575733348257,42.82575733348257 0 0,0 -0.47088755599474025,0.5672143956135984 l -16.672447492577017 -14.085211314968994" fill="#e3ff1b" stroke="none" /><path d="M 116.0416608686014 113.55231037782055 l 8.791186574644112 7.426967196526545 a32.5084665845839,32.5084665845839 0 0,0 -0.36480303109643997,0.42434834104650826 l -8.662041033976893 -7.577192636734581" fill="#ff9c0e" stroke="none" /><path d="M 115.80600337817218 113.82643327865902 l 1.9468748354577 1.7030449994417893 a23.58663563245041,23.58663563245041 0 0,0 -0.2699447209918393,0.30328575569867067 l -1.9172712648175223 -1.7363049248813265" fill="#ff2303" stroke="none" /><path d="M 115.56566222782051 114.09645910891815 l 12.532699594509356 11.349770075480622 a37.908158974071966,37.908158974071966 0 0,0 -0.4421780812841969,0.47989697600231196 l -12.335475105229436 -11.563818306284269" fill="#ffe015" stroke="none" /><path d="M 115.32070863581623 114.36230785411682 l 2.6210946190958397 2.457129675204343 a24.592718085659236,24.592718085659236 0 0,0 -0.29217724029314446,0.30634666833814883 l -2.5784108274237307 -2.501883460124999" fill="#ff3104" stroke="none" /><path d="M 115.07121518719521 114.62390073753431 l 0.48568420921038563 0.47126907665116713 a21.676744925126123,21.676744925126123 0 0,0 -0.2621434567626486,0.26554993769262286 l -0.47750012739220143 -0.47955950832445465" fill="#ff0801" stroke="none" /><path d="M 114.81725581225074 114.88116024355365 l 2.7058103622080707 2.7174800853066947 a24.834854329732885,24.834854329732885 0 0,0 -0.305527895182224,0.2990233505336132 l -2.6586325146500527 -2.76365353876288" fill="#ff3405" stroke="none" /><path d="M 114.55890576462653 115.13401014063108 l 0.6256155391141635 0.6503285388448976 a21.902397922879505,21.902397922879505 0 0,0 -0.27395119405969776,0.25903795315482586 l -0.614328510663658 -0.661001128745645" fill="#ff0b01" stroke="none" /><path d="M 114.29624159901734 115.38237550388516 l 4.570769396449737 4.918026231641828 a27.714083324672,27.714083324672 0 0,0 -0.35223339645084906,0.32175685628462836 l -4.485436450532024 -4.9959758545130395" fill="#ff5c08" stroke="none" /><path d="M 114.0293411484842 115.62618273729858 l 3.3953294879945313 3.7817912096658497 a26.082342676911022,26.082342676911022 0 0,0 -0.33665802079464735,0.29706156079438706 l -3.329729114293296 -3.8396759122325252" fill="#ff4606" stroke="none" /><path d="M 113.75828350139079 115.86535959552629 l 0.6677789480099725 0.770049050045341 a22.019266531816402,22.019266531816402 0 0,0 -0.2884885906359181,0.24585623556624334 l -0.6544248807970071 -0.781429675834531" fill="#ff0d01" stroke="none" /><path d="M 113.48314897796784 116.09983520530334 l 12.223355749718474 14.5955528302651 a40.037872470558135,40.037872470558135 0 0,0 -0.5321793426690925,0.43794736843147647 l -11.97030627850469 -14.803795317553755" fill="#fffa17" stroke="none" /><path d="M 113.20401910651253 116.32954008644616 l 1.8393698897970236 2.2747668044821343 a23.925379566187228,23.925379566187228 0 0,0 -0.32247140095727084,0.2561907837614409 l -1.7999409961224015 -2.306091502248701" fill="#ff2803" stroke="none" /><path d="M 112.92097659922987 116.55440617244103 l 5.090770463382587 6.522315192995874 a29.273846710426376,29.273846710426376 0 0,0 -0.3998964584622176,0.3066235518890487 l -4.977745276426876 -6.608978086712294" fill="#ff710a" stroke="none" /><path d="M 112.63410532772338 116.77436683061366 l 6.733996725630652 8.94076219738423 a32.19303089296993,32.19303089296993 0 0,0 -0.4455132678703109,0.3295800648524669 l -6.579098487341777 -9.055352210976466" fill="#ff980e" stroke="none" /><path d="M 112.34349029814194 116.9893568818739 l 20.55953936820566 28.297778279613595 a55.97797756581946,55.97797756581946 0 0,0 -0.7844185257099469,0.5596617904904456 l -20.069393514646826 -28.64748433194826" fill="#55ff2b" stroke="none" /><path d="M 112.04921762599082 117.19931262002967 l 2.1201997043903003 3.0264186990899864 a24.695193760643445,24.695193760643445 0 0,0 -0.35025206878626564,0.24090656668006993 l -2.0677907509811515 -3.0624660551351504" fill="#ff3204" stroke="none" /><path d="M 111.7513745106137 117.40417183066458 l 2.160853666122429 3.2002952907465656 a24.86149951629796,24.86149951629796 0 0,0 -0.3567332776916533,0.23642336438294917 l -2.105445689690812 -3.2370166762208332" fill="#ff3505" stroke="none" /><path d="M 111.45004920935366 117.60387380957326 l 9.54189686540004 14.670185712847843 a38.500346986256474,38.500346986256474 0 0,0 -0.558655064486665,0.3565600940049352 l -9.287959998866445 -14.832260235676587" fill="#ffe715" stroke="none" /><path d="M 111.1453310114006 117.79835938074945 l 3.353476898362606 5.355281682620753 a27.318611335417383,27.318611335417383 0 0,0 -0.40070002477493155,0.24614268261399863 l -3.260797673655366 -5.41221283206313" fill="#ff5708" stroke="none" /><line stroke="#e1ed5e" stroke-width="0.3" x1="143.8653032363475" x2="146.44561519142675" y1="172.8068346515853" y2="177.08958963109032" /><path d="M 144.38136562736335 173.6633856474863 a86.0,86.0 0 0,1 -40.68145358897372,12.25698825130547" fill="none" id="id114" stroke="none" /><text fill="#e1ed5e" style="font-size:6.75px; font-family:Arial;" text-anchor="middle"><textPath startOffset="21.466115282336833" xlink:href="#id114">June</textPath></text><path d="M 110.8373102113329 117.98757091392108 l 0.29997186333139036 0.4978878576541905 a21.581270537348992,21.581270537348992 0 0,0 -0.319846894059599,0.18897118276774152 l -0.2913570982434093 -0.5029776127156815" fill="#ff0601" stroke="none" /><path d="M 110.5260780823613 118.17145234162733 l 0.6820928388871674 1.1775152547246726 a22.36080594353878,22.36080594353878 0 0,0 -0.3347212819517712,0.19006347958106323 l -0.6617227900141971 -1.1890819001003643" fill="#ff1101" stroke="none" /><path d="M 110.21172684928248 118.3499491758327 l 1.8592556887332015 3.340987072674124 a24.823483534142966,24.823483534142966 0 0,0 -0.37516225731862823,0.20456837530813574 l -1.8014706195459245 -3.37249609974203" fill="#ff3405" stroke="none" /><path d="M 109.89434966115114 118.52300852407294 l 5.551104173395064 10.392107964966623 a32.781793815009955,32.781793815009955 0 0,0 -0.5000146090689689,0.2615840113150337 l -5.371398661799599 -10.486121395226373" fill="#ff9f0e" stroke="none" /><path d="M 109.57404056367764 118.69057910512821 l 4.62318299422802 9.025444053258745 a31.140634169351678,31.140634169351678 0 0,0 -0.47918924971936666,0.240275437614934 l -4.4671398368258926 -9.10368733178298" fill="#ff8a0c" stroke="none" /><path d="M 109.2508944713604 118.85261126421891 l 9.156525022713797 18.66029358768926 a41.78577656163803,41.78577656163803 0 0,0 -0.6484502494862203,0.3112955260101518 l -8.833962105227345 -18.815143390198973" fill="#efff19" stroke="none" /><path d="M 108.92500713936063 119.00905698771935 l 5.701869862058368 12.144210917930048 a34.416153649352,34.416153649352 0 0,0 -0.5384194255427645,0.24716195046149583 l -5.491982440748184 -12.24055993872562" fill="#ffb410" stroke="none" /><path d="M 108.59647513512805 119.15986991738527 l 1.3133581953890427 2.927219794513034 a24.208352454887788,24.208352454887788 0 0,0 -0.3816611904005504,0.16730904988311557 l -1.2627763303307384 -2.949393397690604" fill="#ff2c04" stroke="none" /><path d="M 108.2653958097858 119.30500536409082 l 3.004344861988075 7.0170739564088125 a28.633178562005803,28.633178562005803 0 0,0 -0.45476105979687526,0.19009015987730787 l -2.8831123426937384 -7.067749159306094" fill="#ff6809" stroke="none" /><path d="M 107.93186726928326 119.44442032107085 l 2.9047434973069173 7.120776428680299 a28.690448083980268,28.690448083980268 0 0,0 -0.458881753824952,0.18259852008703892 l -2.7817406674400993 -7.169721793173407" fill="#ff6909" stroke="none" /><path d="M 107.59598834532513 119.57807347666477 l 0.9091947489798592 2.3433792669100746 a23.51357543753048,23.51357543753048 0 0,0 -0.3786019081823241,0.1431548459970483 l -0.8687226200372602 -2.3586823630137537" fill="#ff2203" stroke="none" /><path d="M 107.2578585660854 119.70592522655815 l 1.728536625889993 4.693176808421496 a26.001374553275184,26.001374553275184 0 0,0 -0.42132186462949106,0.15107103074219588 l -1.647495200630767 -4.722235380203653" fill="#ff4506" stroke="none" /><path d="M 106.91757812671514 119.82793768551818 l 1.0961897700298675 3.142021969757764 a24.327752104703503,24.327752104703503 0 0,0 -0.39657742262095663,0.1345405935677698 l -1.041942614471684 -3.160425550223657" fill="#ff2d04" stroke="none" /><path d="M 106.57524785965236 119.94407469862006 l 2.385357428324108 7.235278083634021 a28.61834489954188,28.61834489954188 0 0,0 -0.4691754898922774,0.150215175789867 l -2.2604605933408903 -7.275266106083595" fill="#ff6809" stroke="none" /><path d="M 106.2309692047433 120.05430185196036 l 2.644269953709257 8.510552064578738 a29.911883080022704,29.911883080022704 0 0,0 -0.4930119664577732,0.1485404612548981 l -2.497383012811238 -8.554807894939362" fill="#ff7a0b" stroke="none" /><path d="M 105.88484417918355 120.15858648285463 l 1.9864154447326923 6.804483910579537 a28.088501083332666,28.088501083332666 0 0,0 -0.46529114578816433,0.13149592546736905 l -1.8689931308399224 -6.837668629385425" fill="#ff6109" stroke="none" /><path d="M 105.53697534728816 120.25689768951611 l 3.1607533611892524 11.563543892382212 a32.98773995218945,32.98773995218945 0 0,0 -0.5490252563494862,0.14500256021480304 l -2.9612376620282688 -11.6162378019006" fill="#ffa20f" stroke="none" /><path d="M 105.18746579009965 120.34920634021253 l 2.2861583156094145 8.968060546927477 a30.25487059971058,30.25487059971058 0 0,0 -0.5057558545022663,0.12430248405785137 l -2.1314491763639367 -9.00608428929936" fill="#ff7e0b" stroke="none" /><path d="M 104.83641907484287 120.43548508189849 l 2.378485413673158 10.049894857428205 a31.327515650359377,31.327515650359377 0 0,0 -0.5258246683967357,0.11967598258895436 l -2.2051405958835604 -10.089347573594845" fill="#ff8c0c" stroke="none" /><path d="M 104.48393922423573 120.51570834832081 l 1.900389068002136 8.694994717310063 a29.900247847326046,29.900247847326046 0 0,0 -0.5037601425600864,0.10556783584158752 l -1.7504374640126716 -8.72641853387819" fill="#ff790b" stroke="none" /><path d="M 104.13013068566511 120.58985236759428 l 1.3514028852764994 6.737119964159963 a27.871322665238214,27.871322665238214 0 0,0 -0.47120105575624976,0.09030680380364993 l -1.2352342149485454 -6.759383966312081" fill="#ff5e08" stroke="none" /><path d="M 103.7750983002368 120.6578951692458 l 0.14946977107979664 0.8179206516937361 a21.831465817056692,21.831465817056692 0 0,0 -0.37025233357226306,0.06437311411248636 l -0.13536846603548364 -0.8203723443272286" fill="#ff0a01" stroke="none" /><path d="M 103.41894727170886 120.7198165907248 l 0.4108534424399083 2.489891565004432 a23.523561086370794,23.523561086370794 0 0,0 -0.40008439906028176,0.062484954981977064 l -0.36793317977110934 -2.496594827333515" fill="#ff2203" stroke="none" /><path d="M 103.06178313531738 120.77559828337769 l 1.543216837761364 10.471431733897493 a31.584535925869666,31.584535925869666 0 0,0 -0.5385485369374436,0.07463791995408506 l -1.36273970963709 -10.49644421934418" fill="#ff900d" stroke="none" /><path d="M 102.70371172650421 120.8252237178851 l 0.15683438901550487 1.2080101609533134 a22.218148420572927,22.218148420572927 0 0,0 -0.379689722796091,0.04597513772941314 l -0.13601724316803357 -1.2105308274080773" fill="#ff0f01" stroke="none" /><path d="M 102.34483914955558 120.86867818915974 l 1.2967334315511367 11.540711730821407 a32.61333478577197,32.61333478577197 0 0,0 -0.5584139097596286,0.05788188496330973 l -1.0978869251859054 -11.561322984240476" fill="#ff9d0e" stroke="none" /><path d="M 101.98527174616119 120.90594882070398 l 0.8973268933786989 9.449321053750207 a30.491831431837987,30.491831431837987 0 0,0 -0.5229431596496912,0.045121736244634225 l -0.7345394159874661 -9.463367042273504" fill="#ff810b" stroke="none" /><path d="M 101.62511606390274 120.93702456842531 l 0.6842636180280491 8.815643694720341 a29.842159829545004,29.842159829545004 0 0,0 -0.5124854349200484,0.03534399610335227 l -0.5324154223290704 -8.826116035339979" fill="#ff790b" stroke="none" /><path d="M 101.26447882468166 120.96189622390904 l 0.5910940860175066 9.798861513386491 a30.816673529106072,30.816673529106072 0 0,0 -0.5297708017054179,0.02738309919044081 l -0.42233521589860906 -9.807584419339134" fill="#ff860c" stroke="none" /><path d="M 100.90346689309514 120.98055641714683 l 0.6505995282454505 15.108400995813065 a36.1224025999984,36.1224025999984 0 0,0 -0.6214423289520975,0.02140373032788448 l -0.3904368476187006 -15.117361524567045" fill="#ffca12" stroke="none" /><line stroke="#e1ed5e" stroke-width="0.3" x1="102.19456741930631" x2="102.32365962044197" y1="184.97166512339345" y2="189.96999836594603" /><path d="M 102.22038585953345 185.97133177190398 a86.0,86.0 0 0,1 -42.740103519485714,-10.115201625700543" fill="none" id="id115" stroke="none" /><text fill="#e1ed5e" style="font-size:6.75px; font-family:Arial;" text-anchor="middle"><textPath startOffset="22.20632615414155" xlink:href="#id115">July</textPath></text><path d="M 100.54218724476979 120.99299961872073 l 0.13033678177465946 5.0465222789637005 a26.048205105654915,26.048205105654915 0 0,0 -0.4483272062441573,0.007718359433668907 l -0.04344988563783425 -5.048018115676529" fill="#ff4506" stroke="none" /><path d="M 100.18074693466247 120.99922214144158 l 0.07267655529077986 8.443579593069565 a29.443892362304823,29.443892362304823 0 0,0 -0.5068469799064648,0.0 l 0.07267655529077405 -8.443579593069565" fill="#ff730a" stroke="none" /><path d="M 99.81925306533755 120.99922214144158 l -0.04473084537909545 5.19684032508935 a26.197032827778088,26.197032827778088 0 0,0 -0.45088874615067,-0.007762458666164258 l 0.13417928142243338 -5.195300389144026" fill="#ff4706" stroke="none" /><path d="M 99.45781275523022 120.99299961872073 l -0.10024083161860213 3.8812343157262967 a24.882528562405557,24.882528562405557 0 0,0 -0.42807386516531093,-0.014743729455737676 l 0.1670350484585561 -3.8789337878444656" fill="#ff3505" stroke="none" /><path d="M 99.09653310690486 120.98055641714683 l -0.1365769812298121 3.171628182366541 a24.17456746644067,24.17456746644067 0 0,0 -0.41558606172991314,-0.0214810523982843 l 0.19115111137321414 -3.168807323206055" fill="#ff2b04" stroke="none" /><path d="M 98.73552117531835 120.96189622390904 l -0.04813788603503543 0.7980057489367757 a21.7994563348977,21.7994563348977 0 0,0 -0.37436646424465575,-0.02581850322351717 l 0.061867111058621256 -0.7970589011969733" fill="#ff0901" stroke="none" /><path d="M 98.37488393609728 120.93702456842531 l -0.49482774790006695 6.375065107683564 a27.394240347945665,27.394240347945665 0 0,0 -0.4698186344031694,-0.04053792867001997 l 0.6044907000447781 -6.36560292673488" fill="#ff5808" stroke="none" /><path d="M 98.01472825383883 120.90594882070398 l -0.760739365529223 8.010983016507188 a29.04702263405742,29.04702263405742 0 0,0 -0.4973505954698374,-0.051552422764339634 l 0.8985225576046538 -7.996701225287088" fill="#ff6e0a" stroke="none" /><path d="M 97.65516085044442 120.86867818915974 l -0.43243804166174576 3.848626601914174 a24.87284512740152,24.87284512740152 0 0,0 -0.42505628699591796,-0.051468396862262976 l 0.49862175170905304 -3.840612676326562" fill="#ff3505" stroke="none" /><path d="M 97.2962882734958 120.8252237178851 l -0.5763239845103834 4.439110794896003 a25.476366158446396,25.476366158446396 0 0,0 -0.4343980153235734,-0.06020360668011421 l 0.6526505910207879 -4.428532622723283" fill="#ff3d05" stroke="none" /><path d="M 96.93821686468263 120.77559828337769 l -1.029289793258661 6.984201792497723 a28.059639661968227,28.059639661968227 0 0,0 -0.47723318892014677,-0.07453400931308918 l 1.149358845787325 -6.965449475837528" fill="#ff6108" stroke="none" /><path d="M 96.58105272829116 120.7198165907248 l -1.803633614642334 10.930545200709268 a32.07835333434605,32.07835333434605 0 0,0 -0.5440351682623972,-0.0945874874841966 l 1.991517754376781 -10.897879134704066" fill="#ff960d" stroke="none" /><path d="M 96.22490169976321 120.6578951692458 l -2.989734971280341 16.360271099871323 a37.631205177610596,37.631205177610596 0 0,0 -0.6362045971785272,-0.12193012522896461 l 3.270907183030563 -16.306383776293888" fill="#ffdd14" stroke="none" /><path d="M 95.86986931433489 120.58985236759428 l -1.8275845619938058 9.111018315074736 a30.292508814570226,30.292508814570226 0 0,0 -0.5103689653962148,-0.10695277892328171 l 1.9841449888194074 -9.078209555424912" fill="#ff7f0b" stroke="none" /><path d="M 95.51606077576429 120.51570834832081 l -0.9870486448367501 4.516118776459926 a25.622725800906643,25.622725800906643 0 0,0 -0.43007116964053416,-0.09788279801866731 l 1.064639963870147 -4.4984592448635725" fill="#ff3f05" stroke="none" /><path d="M 95.16358092515715 120.4354850818985 l -1.792657782365858 7.574577554505464 a28.783819567146637,28.783819567146637 0 0,0 -0.48116501483766333,-0.11825865396044832 l 1.9227760819467319 -7.542597642230986" fill="#ff6a09" stroke="none" /><path d="M 94.81253420990036 120.34920634021253 l -0.7886180198786584 3.0935627258974954 a24.192498820726435,24.192498820726435 0 0,0 -0.40264331191026975,-0.10634175824361665 l 0.8417517746004174 -3.079529618350297" fill="#ff2b04" stroke="none" /><path d="M 94.46302465271185 120.25689768951611 l -1.2778720847204124 4.675065799804966 a25.846565515642364,25.846565515642364 0 0,0 -0.4281530740206703,-0.12100033542370303 l 1.3581563268456966 -4.652376671042742" fill="#ff4206" stroke="none" /><path d="M 94.11515582081647 120.15858648285463 l -0.8910509075718395 3.05230287055878 a24.17970510165738,24.17970510165738 0 0,0 -0.3985333831589752,-0.12007483912660685 l 0.9434592651710605 -3.0365126623264476" fill="#ff2b04" stroke="none" /><path d="M 93.76903079525671 120.05430185196036 l -0.9532221647441195 3.067934440954314 a24.21260863308202,24.21260863308202 0 0,0 -0.39694687295414105,-0.12708985355082114 l 1.005890382789201 -3.0510717407437866" fill="#ff2c04" stroke="none" /><path d="M 93.42475214034765 119.94407469862007 l -1.0087212557493963 3.0596583587672517 a24.22164986368397,24.22164986368397 0 0,0 -0.3948478031683782,-0.13395381274132104 l 1.0612387918550004 -3.041841559127808" fill="#ff2c04" stroke="none" /><path d="M 93.08242187328487 119.8279376855182 l -1.0511052480998138 3.0127956603420247 a24.19088701359962,24.19088701359962 0 0,0 -0.3919850315116342,-0.14055188614065914 l 1.1028098402411746 -2.994256233161408" fill="#ff2b04" stroke="none" /><path d="M 92.7421414339146 119.70592522655815 l -2.758075616883135 7.488494213632324 a28.980258560726593,28.980258560726593 0 0,0 -0.46662325854516207,-0.17643698901671992 l 2.8865690961885804 -7.43990897450897" fill="#ff6d0a" stroke="none" /><path d="M 92.40401165467489 119.57807347666478 l -5.156019176332197 13.289241332689782 a35.25441927772492,35.25441927772492 0 0,0 -0.5638674481795914,-0.22437449452854927 l 5.3840077005536475 -13.198519993755166" fill="#ffbf11" stroke="none" /><path d="M 92.06813273071674 119.44442032107085 l -1.0365831928352158 2.541111520776481 a23.744403847230107,23.744403847230107 0 0,0 -0.37711601715569043,-0.15763452575609374 l 1.0801706694883686 -2.522891952000414" fill="#ff2503" stroke="none" /><path d="M 91.7346041902142 119.30500536409082 l -0.05796257744955765 0.1353798286653666 a21.147266283969074,21.147266283969074 0 0,0 -0.333401078768073,-0.14615323517738196 l 0.060284330875373944 -0.13436204019353243" fill="#ff0000" stroke="none" /><path d="M 91.40352486487194 119.15986991738527 l -1.2951517604466047 2.8866411946016566 a24.163876651982378,24.163876651982378 0 0,0 -0.3780288965002204,-0.1735345252367391 l 1.3446486527142445 -2.8639195990308433" fill="#ff2b04" stroke="none" /><path d="M 91.07499286063937 119.00905698771935 l -0.4907569415359191 1.045245849455246 a22.15472129168432,22.15472129168432 0 0,0 -0.3438068101402493,-0.16504816197276684 l 0.5086764196764104 -1.0366434109829166" fill="#ff0e01" stroke="none" /><path d="M 90.7491055286396 118.85261126421891 l -0.2802349379574113 0.571097245171219 a21.636147533119598,21.636147533119598 0 0,0 -0.33293507276794665,-0.16694055710458314 l 0.29002391840811836 -0.5661888471573338" fill="#ff0701" stroke="none" /><path d="M 90.42595943632237 118.69057910512821 l -7.065770072613163 13.793897529727511 a36.49828105886774,36.49828105886774 0 0,0 -0.5567014983476298,-0.2912399125977859 l 7.3021624734872885 -13.670228198185008" fill="#ffce13" stroke="none" /><path d="M 90.10565033884886 118.52300852407294 l -3.997150507513816 7.4829832640124145 a29.483646074018402,29.483646074018402 0 0,0 -0.44559222318248365,-0.24297240825311256 l 4.12536554256494 -7.413070203999537" fill="#ff740a" stroke="none" /><line stroke="#e1ed5e" stroke-width="0.3" x1="58.666819895761336" x2="56.23545636021788" y1="174.27360380694188" y2="178.64263932499728" /><path d="M 58.180547188652646 175.14741091055294 a86.0,86.0 0 0,1 -31.652253787137756,-30.449443065178592" fill="none" id="id116" stroke="none" /><text fill="#e1ed5e" style="font-size:6.75px; font-family:Arial;" text-anchor="middle"><textPath startOffset="22.20632615414155" xlink:href="#id116">August</textPath></text><path d="M 89.7882731507175 118.34994917583269 l -0.3527673726068819 0.6339048677827833 a21.725451721739407,21.725451721739407 0 0,0 -0.3252105970439316,-0.18466306447676292 l 0.3636267365720207 -0.6277386375113873" fill="#ff0801" stroke="none" /><path d="M 89.4739219176387 118.17145234162733 l -3.6308013825942242 6.267950301098767 a28.243612334801764,28.243612334801764 0 0,0 -0.4185866474671143,-0.24730836950977214 l 3.738155901089721 -6.204523359295245" fill="#ff6309" stroke="none" /><path d="M 89.1626897886671 117.98757091392108 l -0.502286025093402 0.8336852336284548 a21.973304844215964,21.973304844215964 0 0,0 -0.32229690182127035,-0.19798108087721564 l 0.5165621268469811 -0.824915685922861" fill="#ff0c01" stroke="none" /><path d="M 88.8546689885994 117.79835938074946 l -6.229026565928405 9.947345063078318 a32.73671358443199,32.73671358443199 0 0,0 -0.4750224938263865,-0.3031818304714183 l 6.399330861801714 -9.838648803783094" fill="#ff9f0e" stroke="none" /><path d="M 88.54995079064634 117.60387380957326 l -0.8535150851544994 1.3122364436087097 a22.56539211845503,22.56539211845503 0 0,0 -0.323786837054493,-0.21458826004313505 l 0.8759766209489541 -1.2973501624742563" fill="#ff1402" stroke="none" /><path d="M 88.24862548938628 117.40417183066458 l -16.95271324021296 25.107525418593788 a51.294922327846045,51.294922327846045 0 0,0 -0.7275161651977395,-0.500392252269571 l 17.38238629003359 -24.811992376959115" fill="#85ff25" stroke="none" /><path d="M 87.95078237400918 117.19931262002967 l -4.642323380004072 6.626552326827706 a29.0908814170471,29.0908814170471 0 0,0 -0.4076500671345528,-0.2908474991199242 l 4.7557007749875115 -6.545660565863562" fill="#ff6f0a" stroke="none" /><path d="M 87.65650970185807 116.9893568818739 l -2.9315629091499034 4.034950186877806 a25.987472716806447,25.987472716806447 0 0,0 -0.35963572154006945,-0.26604990911953014 l 3.0005836011085374 -3.9838903290185095" fill="#ff4406" stroke="none" /><path d="M 87.36589467227662 116.77436683061367 l -13.747964586936533 18.25324351614499 a43.8514207248335,43.8514207248335 0 0,0 -0.5990339438428597,-0.45931368402092504 l 14.060127259272878 -18.0138904902967" fill="#d7ff1c" stroke="none" /><path d="M 87.07902340077011 116.55440617244103 l -2.24285249160413 2.873551456868913 a24.645227739712336,24.645227739712336 0 0,0 -0.33217366914285223,-0.2638988523943473 l 2.2919836534643405 -2.8345186904694346" fill="#ff3204" stroke="none" /><path d="M 86.79598089348748 116.32954008644616 l -5.847542434997721 7.231713149551077 a30.300076752720326,30.300076752720326 0 0,0 -0.40274554900347087,-0.33143216805247255 l 5.97115811254588 -7.129985862641424" fill="#ff7f0b" stroke="none" /><path d="M 86.51685102203217 116.09983520530335 l -6.923811034679603 8.267520950273102 a31.783833358651073,31.783833358651073 0 0,0 -0.4164204687469864,-0.3548825575153241 l 7.065096980003646 -8.147114002534826" fill="#ff920d" stroke="none" /><path d="M 86.24171649860922 115.8653595955263 l -2.07786633375518 2.396090803996833 a24.17155792032108,24.17155792032108 0 0,0 -0.3119945531649698,-0.2752989181834069 l 2.118803239826738 -2.3599687440411374" fill="#ff2b04" stroke="none" /><path d="M 85.97065885151581 115.62618273729859 l -6.283675913362906 6.99889375024424 a30.40580122644451,30.40580122644451 0 0,0 -0.38644390695996683,-0.35300734651133003 l 6.403219369789728 -6.889693637146334" fill="#ff800b" stroke="none" /><path d="M 85.70375840098266 115.38237550388516 l -2.3028125181902515 2.4777649863083338 a24.382641692717286,24.382641692717286 0 0,0 -0.30497363026501256,-0.2883716029097877 l 2.3451219828460808 -2.4377587466526154" fill="#ff2e04" stroke="none" /><path d="M 85.44109423537348 115.13401014063109 l -0.10061285584319309 0.10458725437376987 a21.14512560262878,21.14512560262878 0 0,0 -0.26013543840280756,-0.25459727772923924 l 0.10239824662179485 -0.10283987372196095" fill="#ff0000" stroke="none" /><path d="M 85.18274418774928 114.88116024355367 l -0.44641056370731674 0.448335860372422 a21.632682728613137,21.632682728613137 0 0,0 -0.26161059924431207,-0.26501015583981063 l 0.45406178800716207 -0.44058521055194677" fill="#ff0701" stroke="none" /><path d="M 84.9287848128048 114.62390073753433 l -0.29545856772710294 0.28668934208876656 a21.411687434968133,21.411687434968133 0 0,0 -0.2543845589974306,-0.2667211930927412 l 0.3003496781034911 -0.2815610324135252" fill="#ff0400" stroke="none" /><path d="M 84.67929136418377 114.36230785411682 l -6.124311709101422 5.741199852535464 a29.394555953532624,29.394555953532624 0 0,0 -0.3428715269613498,-0.3721193245675394 l 6.2222296440585 -5.634929273166581" fill="#ff730a" stroke="none" /><path d="M 84.43433777217949 114.09645910891817 l -4.5796196333353 4.147361027809546 a27.17847226108717,27.17847226108717 0 0,0 -0.31105263276335327,-0.3494709303559503 l 4.650331115746992 -4.067915927712732" fill="#ff5507" stroke="none" /><path d="M 84.19399662182784 113.82643327865904 l -8.423988042509897 7.3689537970637735 a32.19218721267699,32.19218721267699 0 0,0 -0.3612538119031965,-0.4202197972892432 l 8.549584363983874 -7.222856900613" fill="#ff980e" stroke="none" /><path d="M 83.95833913139862 113.55231037782056 l -4.907746303338614 4.1461605318330905 a27.42468839195056,27.42468839195056 0 0,0 -0.3015462024464135,-0.363231826351617 l 4.978388505678564 -4.061067448367712" fill="#ff5808" stroke="none" /><path d="M 83.72743513129214 113.27417163493432 l -7.505188272523613 6.122277470440686 a30.685563093134625,30.685563093134625 0 0,0 -0.3303550558984846,-0.4121687266453088 l 7.609461240476958 -5.992180910217118" fill="#ff840c" stroke="none" /><path d="M 83.50135304334701 112.99209946851258 l -12.157722182036123 9.573775129230274 a36.4747335641245,36.4747335641245 0 0,0 -0.3841886861034116,-0.4966156659447212 l 12.320717685357602 -9.3630814691723" fill="#ffce13" stroke="none" /><path d="M 83.28015986056508 112.70617746262583 l -11.5919474999505 8.809255402174609 a35.55940340750098,35.55940340750098 0 0,0 -0.3661581119007851,-0.4905286275945648 l 11.74186687854637 -8.608413895070736" fill="#ffc312" stroke="none" /><path d="M 83.06392112726016 112.41649034213515 l -5.079584704046457 3.7240387750772785 a27.29846374633226,27.29846374633226 0 0,0 -0.2745708181108215,-0.3813548517135386 l 5.142935314532886 -3.636050317912602" fill="#ff5608" stroke="none" /><path d="M 82.85270091963577 112.12312394758628 l -0.5034809321866887 0.3559605345156118 a21.616604371707027,21.616604371707027 0 0,0 -0.21219177216279703,-0.30567807381070594 l 0.5095336115116196 -0.3472411985178933" fill="#ff0701" stroke="none" /><path d="M 82.6465618267979 111.8261652097733 l -7.297026615357147 4.972838317803104 a29.830386082173383,29.830386082173383 0 0,0 -0.2855149984245628,-0.4268061834610261 l 7.381544719192441 -4.846495220136257" fill="#ff780b" stroke="none" /><path d="M 82.44556493220864 111.52570212397912 l -3.281198815806536 2.154334218930652 a24.92522885902284,24.92522885902284 0 0,0 -0.2323923138005134,-0.36067803177483837 l 3.3177959929840948 -2.097534587234365" fill="#ff3605" stroke="none" /><path d="M 82.24976979558568 111.22182372390057 l -2.1482153768982415 1.358117275263817 a23.541517625142912,23.541517625142912 0 0,0 -0.21359483540332247,-0.34438288474634265 l 2.17127485196952 -1.3209380591522102" fill="#ff2203" stroke="none" /><line stroke="#e1ed5e" stroke-width="0.3" x1="26.63291911575756" x2="22.317208475507996" y1="142.92168965132927" y2="145.44649492493687" /><path d="M 25.769776987707644 143.4266507060508 a86.0,86.0 0 0,1 -11.730757126820373,-40.83630448921669" fill="none" id="id117" stroke="none" /><text fill="#e1ed5e" style="font-size:6.75px; font-family:Arial;" text-anchor="middle"><textPath startOffset="21.46611528233685" xlink:href="#id117">September</textPath></text><path d="M 81.87401531095188 110.60418214915194 l -6.235159323796288 3.6477337001431085 a28.223792144039273,28.223792144039273 0 0,0 -0.24171393705312766,-0.42144862338052097 l 6.297025257001792 -3.5398652309042804" fill="#ff6309" stroke="none" /><path d="M 81.69416730710424 110.29060199501025 l -0.6862327261177691 0.38576490777004663 a21.787229266771668,21.787229266771668 0 0,0 -0.18096222651491983,-0.328499005156462 l 0.6927713620842055 -0.37389538421576207" fill="#ff0901" stroke="none" /><path d="M 81.51974371655577 109.97397251340807 l -0.6355806299678769 0.3430289946267301 a21.722240699728967,21.722240699728967 0 0,0 -0.17475800390259547,-0.33057628411040085 l 0.6413911420953584 -0.33203769543020306" fill="#ff0801" stroke="none" /><path d="M 81.35079622478065 109.6543875284942 l -8.43175058763631 4.364979261195945 a30.49460172533719,30.49460172533719 0 0,0 -0.2373080180139338,-0.4682312329590006 l 8.505637275436511 -4.2191938165342595" fill="#ff810b" stroke="none" /><path d="M 81.18737489456691 109.33194174019688 l -13.972070801988995 6.930800458911584 a36.5966264780895,36.5966264780895 0 0,0 -0.2750789670692369,-0.5667441478613328 l 14.089303025672951 -6.689267355084966" fill="#ffd013" stroke="none" /><path d="M 81.02952815118164 109.00673069616217 l -0.16292807727877281 0.07735439195123706 a21.180358699041392,21.180358699041392 0 0,0 -0.15353277230626122,-0.33069593263104763 l 0.16423546642486075 -0.0745383920413623" fill="#ff0100" stroke="none" /><path d="M 80.58989483394504 108.01547362559985 l -8.426326145966364 3.4796820731200246 a30.116532216154848,30.116532216154848 0 0,0 -0.19374594143027044,-0.4808615376409161 l 8.484974701654021 -3.334121167636303" fill="#ff7c0b" stroke="none" /><path d="M 80.32549172779594 107.34259656027581 l -17.48392070753764 6.525061479105484 a39.661830312527485,39.661830312527485 0 0,0 -0.23320351465355824,-0.6416759154024179 l 17.59364848319642 -6.223137766696949" fill="#fff517" stroke="none" /><path d="M 80.20201598880116 107.00284435728193 l -0.372384508620662 0.13171799479473864 a21.39499348401385,21.39499348401385 0 0,0 -0.11982130502999573,-0.3482567995267886 l 0.37459664459388625 -0.12528849217865315" fill="#ff0400" stroke="none" /><path d="M 80.0844068197444 106.66101706037122 l -0.5342014697340675 0.1786703047892012 a21.56328881409052,21.56328881409052 0 0,0 -0.11470411686231156,-0.3530229721133642 l 0.5371978376126283 -0.1694484326980336" fill="#ff0601" stroke="none" /><path d="M 79.97269907076064 106.31721596034903 l -18.009871841094043 5.68085785700135 a39.88458709434988,39.88458709434988 0 0,0 -0.20089150020141558,-0.6565250461626403 l 18.10499011380159 -5.370005838286662" fill="#fff817" stroke="none" /><path d="M 79.76711848015287 105.62410040840567 l -2.4330752999827663 0.6763178924807061 a23.525324000415743,23.525324000415743 0 0,0 -0.10509313805533393,-0.3910906623108685 l 2.444356514379875 -0.6343362969942987" fill="#ff2203" stroke="none" /><path d="M 79.67330655649465 105.27499134158121 l -7.7002727220049385 1.9983019889232558 a28.95533851147693,28.95533851147693 0 0,0 -0.1210452910506779,-0.48351576746664393 l 7.733529327350675 -1.8654583820592199" fill="#ff6d0a" stroke="none" /><path d="M 79.58551787078972 104.9243191809786 l -5.770147000263181 1.3918572790933343 a26.935643443638718,26.935643443638718 0 0,0 -0.10484305958949433,-0.4516611567137417 l 5.793250625783231 -1.2923274650310186" fill="#ff5107" stroke="none" /><path d="M 79.50377843672027 104.57218783832718 l -14.73356934464892 3.2866861028396523 a36.09570704446061,36.09570704446061 0 0,0 -0.130057922449528,-0.6075873151723549 l 14.787961305822888 -3.0325849682511334" fill="#ffc912" stroke="none" /><path d="M 79.4281124754447 104.21870165774334 l -1.5412139317413258 0.3160585902005031 a22.573287454927765,22.573287454927765 0 0,0 -0.07478214862851773,-0.38131256474213177 l 1.5464260133455099 -0.2894822983904165" fill="#ff1402" stroke="none" /><path d="M 79.29508885075956 103.50808413554451 l -5.064485959088166 0.8580883404765002 a26.136665613981787,26.136665613981787 0 0,0 -0.07133846761138159,-0.4442247059139654 l 5.078506181060837 -0.7707844048693211" fill="#ff4606" stroke="none" /><path d="M 79.18660465613746 102.79330883721812 l -4.276254407620337 0.5739044028931661 a25.314593610336033,25.314593610336033 0 0,0 -0.05424373840450017,-0.43237596597414024 l 4.2854996552716855 -0.5002106826316174" fill="#ff3b05" stroke="none" /><path d="M 79.1416061653843 102.43462659150553 l -8.769303055984881 1.0235677098799434 a29.828837236262466,29.828837236262466 0 0,0 -0.0551374671624492,-0.5105044674577572 l 8.785622824648383 -0.872466920537404" fill="#ff780b" stroke="none" /><path d="M 79.07016306316243 101.71520430193888 l -22.725097101191224 1.8623262296582157 a43.8012784124979,43.8012784124979 0 0,0 -0.05511335764570252,-0.7519779773090484 l 22.75378701750126 -1.4708751158524067" fill="#d8ff1c" stroke="none" /><line stroke="#e1ed5e" stroke-width="0.3" x1="15.007084014347285" x2="10.007500721073583" y1="101.09737516637583" y2="101.16192664675087" /><path d="M 14.007167355692545 101.11028546245083 a86.0,86.0 0 0,1 10.666146001902534,-42.60595125391555" fill="none" id="id118" stroke="none" /><text fill="#e1ed5e" style="font-size:6.75px; font-family:Arial;" text-anchor="middle"><textPath startOffset="22.20632615414155" xlink:href="#id118">October</textPath></text><path d="M 79.00175016825051 100.2711162175752 l -5.182585701456356 0.06691429256707335 a26.18301766112075,26.18301766112075 0 0,0 -0.0019396662640188583,-0.4507101293581392 l 5.182969665009877 0.02230531499474123" fill="#ff4706" stroke="none" /><path d="M 79.00019446554 99.90962569577889 l -18.226725447303345 -0.07844013735395691 a39.22689423315238,39.22689423315238 0 0,0 0.008717696960964144,-0.6751952368657786 l 18.222674743224665 0.3921716322802075" fill="#fff016" stroke="none" /><path d="M 79.00486145842228 99.54816195383935 l -7.931818043376028 -0.1707012868775994 a28.933654668724067,28.933654668724067 0 0,0 0.015001832026091398,-0.4978377702812471 l 7.927704516894291 0.30720920458384093" fill="#ff6c0a" stroke="none" /><path d="M 79.01574976396665 99.18683210126434 l -4.070195785356468 -0.15772555688159173 a25.073250677582607,25.073250677582607 0 0,0 0.02042442137859141,-0.4311272543110567 l 4.066877755744378 0.22776391781565755" fill="#ff3805" stroke="none" /><path d="M 79.03285615573316 98.82574320788736 l -14.185221534637245 -0.794437852784845 a35.20745021067023,35.20745021067023 0 0,0 0.03909604434068469,-0.604798501631556 l 14.169444899292147 1.0384954186694129" fill="#ffbe11" stroke="none" /><path d="M 79.08570108090925 98.10471618934814 l -9.75357409747355 -0.8838828953554304 a30.79354157838771,30.79354157838771 0 0,0 0.05238256264780047,-0.5274852572388847 l 9.73691440914352 1.0516436832987455" fill="#ff850c" stroke="none" /><path d="M 79.12142395522702 97.74499172005258 l -3.7902460198391674 -0.4093687299098573 a24.812289029957547,24.812289029957547 0 0,0 0.04951782259135448,-0.4242384639380761 l 3.7826378442442237 0.4745509321727952" fill="#ff3404" stroke="none" /><path d="M 79.16333360222342 97.38593545837743 l -7.50524056090225 -0.9415701558045537 a28.564072331443832,28.564072331443832 0 0,0 0.06540356575701176,-0.4873325329664136 l 7.4879209960874045 1.0706210308356268" fill="#ff6809" stroke="none" /><path d="M 79.26566170972629 96.67025291283419 l -5.80898239145075 -0.932870001759544 a26.883410818935538,26.883410818935538 0 0,0 0.07730662549250542,-0.4562680797339358 l 5.792063904438022 1.0327238698093077" fill="#ff5107" stroke="none" /><path d="M 79.3925641242962 95.95851677861259 l -9.114807762338685 -1.7875752645720864 a30.288441520023664,30.288441520023664 0 0,0 0.10474133089626812,-0.5107559275767398 l 9.082687135527422 1.9442068483122286" fill="#ff7f0b" stroke="none" /><path d="M 79.54389044137918 95.25157060432595 l -6.039059706278556 -1.401832960922856 a27.19962722962655,27.19962722962655 0 0,0 0.10979220162881596,-0.4551595572309513 l 6.014034704388925 1.5055777498132041" fill="#ff5507" stroke="none" /><path d="M 79.62865764111835 94.90015583598534 l -10.142152205702299 -2.5390273662672236 a31.455138034970457,31.455138034970457 0 0,0 0.13601151976672046,-0.5241078682519071 l 10.096944354065272 2.713231660067995" fill="#ff8e0d" stroke="none" /><path d="M 79.81627453868168 94.20196356495316 l -7.4526982575568095 -2.140884056292656 a28.754101873246082,28.754101873246082 0 0,0 0.14075010030566273,-0.47453936760778 l 7.414742260139439 2.2688528106469756" fill="#ff6a09" stroke="none" /><path d="M 80.02781315780177 93.51064311812611 l -4.410485339865395 -1.4330535568687497 a25.637458725425137,25.637458725425137 0 0,0 0.13998382848913016,-0.41853382970450176 l 4.385164217604492 1.5087604894955735" fill="#ff4006" stroke="none" /><path d="M 80.14247586403 93.16781622104843 l -10.155192965438758 -3.4939977499468164 a31.739458293691087,31.739458293691087 0 0,0 0.1821949482890476,-0.5150896534487385 l 10.093544936339901 3.668285029822166" fill="#ff920d" stroke="none" /><path d="M 80.2630227832202 92.82701384747504 l -0.5045926273103529 -0.18338349832446527 a21.536882880145832,21.536882880145832 0 0,0 0.12962681781087068,-0.34733542533401296 l 0.5013612209978547 0.19204206068781968" fill="#ff0600" stroke="none" /><path d="M 80.38941819471856 92.48833698450439 l -7.975977820143652 -3.055129021610718 a29.541079295154187,29.541079295154187 0 0,0 0.18597720125122905,-0.4732916916813232 l 7.922207069010732 3.1919697181878046" fill="#ff750a" stroke="none" /><path d="M 80.52162464483688 92.15188598940014 l -9.995365291845122 -4.027274603638843 a31.7761898670419,31.7761898670419 0 0,0 0.20878214643039403,-0.5055825280325006 l 9.924561458528528 4.198731702124655" fill="#ff920d" stroke="none" /><path d="M 80.65960295795068 91.81776055985345 l -7.833129854620405 -3.3139207999151354 a29.505292140041732,29.505292140041732 0 0,0 0.2019135518728442,-0.46604431628924436 l 7.7749255929048795 3.448264260790979" fill="#ff740a" stroke="none" /><path d="M 80.95270993114464 91.15688171328213 l -7.343418114548018 -3.4093414223768015 a29.09625830488419,29.09625830488419 0 0,0 0.2148160209541039,-0.4524573250448612 l 7.283643899752163 3.535241163062195" fill="#ff6f0a" stroke="none" /><path d="M 81.10775173730289 90.83032412892265 l -7.272428812777695 -3.52979772875031 a29.08379198413777,29.08379198413777 0 0,0 0.22247714131416801,-0.44850034115017995 l 7.210591658510114 3.6544576583994517" fill="#ff6e0a" stroke="none" /><path d="M 81.26839172434947 90.50648371742162 l -6.636914907781255 -3.3637079537379098 a28.440643163811092,28.440643163811092 0 0,0 0.22507460041355684,-0.4347724881925464 l 6.578030874207584 3.4774531641907918" fill="#ff6609" stroke="none" /><path d="M 81.43458229118936 90.18545643968196 l -2.4202713128135698 -1.2794680195169532 a23.73765440488659,23.73765440488659 0 0,0 0.19407442880333306,-0.35959044177505334 l 2.397888784791765 1.320939444624479" fill="#ff2503" stroke="none" /><line stroke="#e1ed5e" stroke-width="0.3" x1="26.266209847984243" x2="21.928928074336255" y1="57.711370442889674" y2="55.22380399835377" /><path d="M 25.398753493254645 57.213857153982495 a86.0,86.0 0 0,1 29.58750427330803,-30.492523968695096" fill="none" id="id119" stroke="none" /><text fill="#e1ed5e" style="font-size:6.75px; font-family:Arial;" text-anchor="middle"><textPath startOffset="21.46611528233685" xlink:href="#id119">November</textPath></text><path d="M 81.78341655067845 89.55222093294921 l -15.338824369913306 -8.797294432898575 a38.6825315605587,38.6825315605587 0 0,0 0.3362439001607768,-0.574749820436412 l 15.185120795282204 9.060023665688878" fill="#ffe915" stroke="none" /><path d="M 81.96595687620814 89.24020034530311 l -20.36275128350438 -12.149195980344372 a44.71169759428192,44.71169759428192 0 0,0 0.4000296004652254,-0.6575434824635228 l 20.150605884752938 12.497907236014969" fill="#cdff1d" stroke="none" /><path d="M 82.15384107792192 88.93136811851018 l -7.970631313414026 -4.9435838970430055 a30.379231593338503,30.379231593338503 0 0,0 0.2794490090993234,-0.4420212225704381 l 7.88435470806874 5.0800527673276585" fill="#ff800b" stroke="none" /><path d="M 82.54541684631803 88.32363383020206 l -10.166265151715761 -6.800794579024325 a33.231261343012704,33.231261343012704 0 0,0 0.32214627544788305,-0.4727099084572463 l 10.047694410599139 6.974782510751987" fill="#ffa50f" stroke="none" /><path d="M 82.7489923806493 88.02491185347247 l -8.219516819636171 -5.705721115478436 a31.005783837156308,31.005783837156308 0 0,0 0.3081197999954003,-0.4358136059604556 l 8.120084399836893 5.846361221770678" fill="#ff880c" stroke="none" /><path d="M 82.95767976084542 87.72973835380427 l -4.4760769747469595 -3.222720548489235 a26.515541026727536,26.515541026727536 0 0,0 0.26987440318287215,-0.36810838265048634 l 4.419939959050454 3.2992913748112223" fill="#ff4c07" stroke="none" /><path d="M 83.17141714833178 87.43820079747576 l -9.048731972803793 -6.754481650756129 a32.29170371051432,32.29170371051432 0 0,0 0.33633202536399526,-0.4425735209821507 l 8.931124007215688 6.909239947619307" fill="#ff990e" stroke="none" /><path d="M 83.39014120810768 87.1503855733568 l -13.453471696782172 -10.407790106427107 a38.009350240252004,38.009350240252004 0 0,0 0.4047921943098537,-0.5140449794825773 l 13.272325421878346 10.637827479862732" fill="#ffe115" stroke="none" /><path d="M 83.84228863543731 86.58626213691792 l -7.367740436200321 -6.116518399454398 a30.575771324863886,30.575771324863886 0 0,0 0.3396668064064512,-0.4020583623594225 l 7.2613630163067455 6.242435711442936" fill="#ff820c" stroke="none" /><path d="M 84.07557802195018 86.31012108654704 l -3.44152035179459 -2.958600127476765 a25.538433325071757,25.538433325071757 0 0,0 0.2894454725162774,-0.33088621079525576 l 3.390083015700469 3.017401894474964" fill="#ff3e05" stroke="none" /><path d="M 84.31358615837235 86.03803664274999 l -8.284325778838541 -7.373607131077943 a32.09054262574254,32.09054262574254 0 0,0 0.37080829734372905,-0.4094557834083437 l 8.156173840878768 7.5151157017558425" fill="#ff960d" stroke="none" /><path d="M 84.5562425177563 85.77008943001954 l -11.73848795702396 -10.81586744982841 a36.96167560782558,36.96167560782558 0 0,0 0.4351492402372379,-0.4641868695817234 l 11.550571394816265 11.016323736288182" fill="#ffd413" stroke="none" /><path d="M 84.80347519578584 85.50635884689758 l -5.246644626312917 -5.003971990395132 a28.250311408172564,28.250311408172564 0 0,0 0.3386482353786912,-0.3490067745780366 l 5.159732127231107 5.093542960523292" fill="#ff6309" stroke="none" /><path d="M 85.05521093208273 85.24692304244772 l -11.138065950882885 -10.9951865753946 a36.65089904618755,36.65089904618755 0 0,0 0.4470784870150103,-0.4451585899106926 l 10.947151663700561 11.185281015955402" fill="#ffd013" stroke="none" /><path d="M 85.57189188830299 84.74124197986013 l -20.90764680180098 -22.111334407079724 a51.43091855417063,51.43091855417063 0 0,0 0.6485000839206304,-0.6027101519118911 l 20.52393883408549 22.46794914506626" fill="#83ff25" stroke="none" /><path d="M 86.10567301691215 84.25364557470407 l -0.49842983428002063 -0.5648674337568024 a21.753330948135947,21.753330948135947 0 0,0 0.2829033134297614,-0.2453309656307449 l 0.48863272220348575 0.5733633928072279" fill="#ff0901" stroke="none" /><path d="M 86.37877921826538 84.01681056812374 l -2.9048592547783443 -3.4085722921634196 a25.478456470813978,25.478456470813978 0 0,0 0.3362458181334037,-0.28159620277466935 l 2.84575589968583 3.4580696523319014" fill="#ff3d05" stroke="none" /><path d="M 86.65592168130627 83.78471172551755 l -5.692584002791179 -6.917442211250617 a29.95860030221384,29.95860030221384 0 0,0 0.4010124156531828,-0.3242574849140033 l 5.572668188573496 7.014405793428755" fill="#ff7a0b" stroke="none" /><path d="M 86.93701828274178 83.55741782278169 l -4.592560744546822 -5.780729015819787 a28.382983282298103,28.382983282298103 0 0,0 0.38515362966234423,-0.3006185171571006 l 4.492374559725052 5.85892592220011" fill="#ff6509" stroke="none" /><path d="M 87.51073957382395 83.11751280151077 l -4.644193153430774 -6.277836219651364 a28.80895368453033,28.80895368453033 0 0,0 0.4012054017137082,-0.2914927868104848 l 4.535442435363285 6.3568482412785166" fill="#ff6b09" stroke="none" /><path d="M 87.80319425747018 82.90503203632743 l -6.0898776768483485 -8.535535121740311 a31.48532164186861,31.48532164186861 0 0,0 0.4438963475404742,-0.31097775899885804 l 5.942050189724214 8.639097723503111" fill="#ff8e0d" stroke="none" /><path d="M 88.39885842347998 82.49532879139004 l -5.489239433848353 -8.282575541473122 a30.93643835397395,30.93643835397395 0 0,0 0.4464171869545609,-0.29036215629716616 l 5.345855221109505 8.375836621929825" fill="#ff870c" stroke="none" /><path d="M 88.70189139769569 82.29822771554957 l -13.585628504219972 -21.285837354563185 a46.251854857407835,46.251854857407835 0 0,0 0.6747944045508875,-0.42255619422401 l 13.217214947296842 21.516537890110126" fill="#bcff1f" stroke="none" /><path d="M 89.00827224532344 82.1063720568725 l -3.679465421022786 -5.989866811009102 a28.02972049217682,28.02972049217682 0 0,0 0.413288797033069,-0.24900187589251457 l 3.5758145577720675 6.052315296360236" fill="#ff6008" stroke="none" /><line stroke="#e1ed5e" stroke-width="0.3" x1="56.762969772571076" x2="54.21961505331055" y1="26.818313649435495" y2="22.513508569990535" /><path d="M 56.25429882871897 25.957352633546506 a86.0,86.0 0 0,1 42.265352541879196,-11.944610805530505" fill="none" id="id120" stroke="none" /><text fill="#e1ed5e" style="font-size:6.75px; font-family:Arial;" text-anchor="middle"><textPath startOffset="22.20632615414155" xlink:href="#id120">December</textPath></text><path d="M 89.3179101791058 81.91981866633112 l -5.445395921805383 -9.216712024578415 a31.705144431030487,31.705144431030487 0 0,0 0.4722606083659664,-0.27356382667861057 l 5.285938580974096 9.309080008647074" fill="#ff910d" stroke="none" /><path d="M 89.63071344664047 81.73862282372117 l -5.073577827432213 -8.935090940266019 a31.275068957522166,31.275068957522166 0 0,0 0.47043051887104304,-0.26179407442742125 l 4.919023219489124 9.021100412253624" fill="#ff8c0c" stroke="none" /><path d="M 90.26544431104013 81.39251694778311 l -2.46960541925989 -4.720620278196943 a26.32758920504969,26.32758920504969 0 0,0 0.4033631292283817,-0.2066182614997137 l 2.3879818024427446 4.762431065009162" fill="#ff4906" stroke="none" /><path d="M 90.58718382345135 81.22770947309562 l -3.0112327202751783 -6.005400977654391 a27.718062473516316,27.718062473516316 0 0,0 0.4283479854979099,-0.2101884961889473 l 2.907413467766842 6.056344633978168" fill="#ff5c08" stroke="none" /><path d="M 90.91171255644093 81.06846463323043 l -5.176404479358922 -10.782810852130254 a32.96094365870624,32.96094365870624 0 0,0 0.5135970924406993,-0.24114072148605073 l 4.990029175618615 10.870316556256311" fill="#ffa20e" stroke="none" /><path d="M 91.23893434514133 80.91482961587045 l -8.058037714378788 -17.553689105773724 a40.314864043749054,40.314864043749054 0 0,0 0.6331696692004439,-0.2840847741173837 l 7.75468592671157 17.689794210407637" fill="#fffd17" stroke="none" /><path d="M 91.56875222667455 80.76684994638697 l -1.4948297548464802 -3.40996798487257 a24.723224093958123,24.723224093958123 0 0,0 0.39123471077201305,-0.16750628544619905 l 1.435911286284159 3.4351937982815555" fill="#ff3304" stroke="none" /><path d="M 91.90106846888425 80.62456947434976 l -2.0083798749662853 -4.8047356107432675 a26.2075977198046,26.2075977198046 0 0,0 0.4177193188646371,-0.17039819847235377 l 1.9253766865132675 4.838594695399198" fill="#ff4706" stroke="none" /><path d="M 92.23578459929587 80.48803036053334 l -2.6079850984330295 -6.5540332711778975 a28.053859822349434,28.053859822349434 0 0,0 0.45022014508909275,-0.1746784217049479 l 2.4947817883442607 6.597954396773397" fill="#ff6108" stroke="none" /><path d="M 92.57280143429618 80.3572730644239 l -3.3104586381091363 -8.755176596484993 a30.36014175268035,30.36014175268035 0 0,0 0.4904141273599683,-0.18062366188174833 l 3.1592621849765985 8.810863526173064" fill="#ff800b" stroke="none" /><path d="M 93.25333710446033 80.11325718540243 l -0.7864908097720382 -2.3182928659917876 a23.448070588517474,23.448070588517474 0 0,0 0.3833393056338375,-0.12638094205813746 l 0.7464686818957914 2.331487532309159" fill="#ff2103" stroke="none" /><path d="M 93.59665428221793 80.00007090966166 l -5.486464755393965 -17.136183317387168 a38.99305627733317,38.99305627733317 0 0,0 0.6409987328404356,-0.19916142651546942 l 5.1906806498428 17.228084878785165" fill="#ffed16" stroke="none" /><path d="M 93.94186890950719 79.89281104454417 l -1.2613401203450325 -4.1864402994970265 a25.372329045308092,25.372329045308092 0 0,0 0.41925935132676545,-0.12239330150068307 l 1.1890905512948458 4.207531929916408" fill="#ff3c05" stroke="none" /><path d="M 94.28887869178378 79.79150937346287 l -17.133363924648684 -60.625471879611354 a84.0,84.0 0 0,0 1.39480844310511,-0.38125383669481616 l 16.08725759231985 60.91141225713247" fill="#4dd2ff" stroke="none" /><path d="M 94.63758080256005 79.69619591428918 l -1.0635555489320379 -4.026955503608508 a25.165035538108526,25.165035538108526 0 0,0 0.4197661078535962,-0.107007727374151 l 0.9940805523934422 4.044666227151522" fill="#ff3905" stroke="none" /><path d="M 94.98787191387505 79.60689891045804 l -0.707810767182239 -2.8799057564734802 a23.965611783141583,23.965611783141583 0 0,0 0.4014540263219427,-0.09501119757102129 l 0.6581330538977623 2.8916628661853725" fill="#ff2803" stroke="none" /><path d="M 95.33964822691252 79.52364482259891 l -0.709666237685054 -3.118086068988322 a24.197825339590814,24.197825339590814 0 0,0 0.4069351465875616,-0.08894026150715117 l 0.6558883669439715 3.1298398285913414" fill="#ff2b04" stroke="none" /></svg>