<?xml version="1.0" encoding="utf-8" ?>
<svg baseProfile="full" height="200mm" version="1.1" viewBox="0,0,200,200" width="200mm" xmlns="http://www.w3.org/2000/svg" xmlns:ev="http://www.w3.org/2001/xml-events" xmlns:xlink="http://www.w3.org/1999/xlink"><defs /><rect fill="#1a1a1a" height="200" width="200" x="0" y="0" /><text alignment-baseline="middle" fill="#e1ed5e" style="dominant-baseline: central; font-size:9.0px; font-family:Arial;" text-anchor="middle" x="100.0" y="100.0">2025</text><line stroke="#e1ed5e" stroke-width="0.3" x1="100.0" x2="100.0" y1="15.0" y2="10.0" /><path d="M 100.0 14.0 a86.0,86.0 0 0,1 42.46469731375804,11.215312516191453" fill="none" id="id109" stroke="none" /><text fill="#e1ed5e" style="font-size:6.75px; font-family:Arial;" text-anchor="middle"><textPath startOffset="22.20632615414155" xlink:href="#id109">January</textPath></text><path d="M 100.0 79.0 l 0.0 -13.109202260599375 a34.109202260599375,34.109202260599375 0 0,0 0.5871338467030985,0.00505364638334439 l -0.2256533674305702 13.10725999082459" fill="#ffae10" stroke="none" /><path d="M 100.36148047927253 79.00311137660856 l 0.271713290071644 -15.78268818446578 a36.78502690653637,36.78502690653637 0 0,0 0.6330061403648749,0.01634868105559987 l -0.5433460656313867 15.77567271126782" fill="#ffd013" stroke="none" /><path d="M 100.72285384407766 79.0124445844662 l 0.5072244156168528 -14.726905885730819 a35.735638214036435,35.735638214036435 0 0,0 0.6145834929246378,0.026465258016053844 l -0.7606487409308221 14.715992901190571" fill="#ffc312" stroke="none" /><path d="M 101.08401301168833 79.027996857942 l 1.706129317256968 -33.00785969952729 a54.051923986220245,54.051923986220245 0 0,0 0.9287612146411786,0.056025412804016024 l -2.2740525807377585 32.973601017342965" fill="#69ff28" stroke="none" /><path d="M 101.44485096284872 79.0497635885617 l 0.36555741110347106 -5.3005565151656 a26.313147051538962,26.313147051538962 0 0,0 0.45159601648219183,0.03505254236967525 l -0.456743616948004 5.29347871060746" fill="#ff4606" stroke="none" /><path d="M 101.80526077348638 79.07773832637324 l 0.5283702390343038 -6.123603062777044 a27.146355796726183,27.146355796726183 0 0,0 0.4652043496338023,0.04417675846430252 l -0.6336997157583503 6.1136007597975635" fill="#ff5107" stroke="none" /><path d="M 102.16513564639614 79.11191278185805 l 0.6488470504541493 -6.259734258996508 a27.29327224010988,27.29327224010988 0 0,0 0.46688819803910364,0.05246032907806448 l -0.7565019520029782 6.247637976447843" fill="#ff5307" stroke="none" /><path d="M 102.52436894288641 79.15227682838746 l 0.7415842778925312 -6.124439051387654 a27.169173440208947,27.169173440208947 0 0,0 0.46379754842527243,0.06021423286436786 l -0.8468965548256497 6.11076649535915" fill="#ff5207" stroke="none" /><path d="M 102.88285421437855 79.19881850522331 l 0.8458867384464499 -6.103480183871262 a27.161817485871254,27.161817485871254 0 0,0 0.4625670705182334,0.06817036198659322 l -0.9508227893933392 6.088015337723699" fill="#ff5107" stroke="none" /><path d="M 103.2404852339499 79.25152402106235 l 0.9467796224240503 -6.062127377531123 a27.13561569810641,27.13561569810641 0 0,0 0.46088007585495305,0.07604916148894038 l -1.0509889044178784 6.044931953102559" fill="#ff5107" stroke="none" /><path d="M 103.59715602781102 79.31037775812273 l 1.0808615524926137 -6.216749299709822 a27.31001058248711,27.31001058248711 0 0,0 0.4624558574220869,0.08451085200043627 l -1.1877125310176015 6.197222966358647" fill="#ff5407" stroke="none" /><path d="M 103.95276090670814 79.375362276772 l 2.2245088843058887 -11.606998483781261 a32.8182424065026,32.8182424065026 0 0,0 0.5538994043388078,0.11110700969531109 l -2.423974698111822 11.566987518008743" fill="#ff9d0e" stroke="none" /><path d="M 104.307194497241 79.44645832069477 l 2.9527940696608193 -14.090465619802977 a35.39653479836984,35.39653479836984 0 0,0 0.595263990657007,0.1301016524101885 l -3.1949007844713537 14.037550469296919" fill="#ffbe11" stroke="none" /><path d="M 104.66035177308747 79.52364482259891 l 2.9189412106621364 -12.825056966005379 a34.153034021570264,34.153034021570264 0 0,0 0.5721061136738802,0.1353990330994149 l -3.1392710112985402 12.772912020765096" fill="#ffae10" stroke="none" /><path d="M 105.01212808612495 79.60689891045804 l 1.4992855350067638 -6.100219498005603 a27.2817620966834,27.2817620966834 0 0,0 0.4550742268322852,0.11600855306988446 l -1.6040686505240742 6.07350794876685" fill="#ff5307" stroke="none" /><path d="M 105.36241919743992 79.69619591428918 l 1.5707444504364105 -5.947332055950421 a27.151259766284646,27.151259766284646 0 0,0 0.4508429328923234,0.12323240424992705 l -1.6728852725524448 5.919413110874199" fill="#ff5107" stroke="none" /><path d="M 105.71112130821622 79.79150937346287 l 2.433063219059182 -8.609261229558225 a29.94646162159728,29.94646162159728 0 0,0 0.4948435774887722,0.14445840977331986 l -2.5808970142713816 8.566104490866202" fill="#ff770b" stroke="none" /><path d="M 106.0581310904928 79.89281104454417 l 1.8319020967209783 -6.080159220138003 a27.35013396978362,27.35013396978362 0 0,0 0.44960315736622747,0.13969388954971348 l -1.936290626797924 6.047725195705769" fill="#ff5407" stroke="none" /><path d="M 106.40334571778207 80.00007090966166 l 3.8094686773281934 -11.898327339542512 a33.49328800126089,33.49328800126089 0 0,0 0.547562910019752,0.18052288243693004 l -4.013714409590363 11.830990732846345" fill="#ffa60f" stroke="none" /><path d="M 106.74666289553966 80.11325718540242 l 2.036609352106569 -6.00319402736483 a27.339252020804718,27.339252020804718 0 0,0 0.4443513671500077,0.15502546693082994 l -2.1396427233198505 5.967247707261793" fill="#ff5407" stroke="none" /><path d="M 107.08798089147638 80.2323363322302 l 2.257250982898549 -6.295245278855023 a27.687697295836806,27.687697295836806 0 0,0 0.44724553720984217,0.1647243058147386 l -2.365278845880968 6.25545770523396" fill="#ff5908" stroke="none" /><path d="M 107.4271985657038 80.35727306442388 l 1.6382858029391671 -4.332777747206452 a25.63216400603427,25.63216400603427 0 0,0 0.4113557517868155,0.1595996408982424 l -1.7126247197256497 4.303935402417663" fill="#ff3c05" stroke="none" /><path d="M 107.76421540070413 80.48803036053334 l 4.571394689943193 -11.488207088136868 a33.36432576047554,33.36432576047554 0 0,0 0.531789429158993,0.21693026059131937 l -4.768467988690573 11.407815941361969" fill="#ffa40f" stroke="none" /><path d="M 108.09893153111575 80.62456947434976 l 10.761783087602073 -25.745887558729088 a48.90460000450319,48.90460000450319 0 0,0 0.7738949000125824,0.33134140825864833 l -11.20336174540497 25.55682662250765" fill="#a0ff22" stroke="none" /><path d="M 108.43124777332544 80.76684994638697 l 2.8943258565204304 -6.602463241399137 a28.20899736563619,28.20899736563619 0 0,0 0.44303960720525265,0.19877895745842306 l -3.0075475821924633 6.551663953424183" fill="#ff6008" stroke="none" /><path d="M 108.76106565485865 80.91482961587045 l 2.1210874988447252 -4.620592734931616 a26.084180307567603,26.084180307567603 0 0,0 0.40644343509647973,0.19083064258925916 l -2.200309145240803 4.5833971097023545" fill="#ff4306" stroke="none" /><path d="M 109.08828744355905 81.06846463323043 l 2.198476233954497 -4.579579027906818 a26.07994506113075,26.07994506113075 0 0,0 0.4030329298631576,0.19776650833105458 l -2.2769804308280865 4.541057359440932" fill="#ff4306" stroke="none" /><path d="M 109.41281617654863 81.2277094730956 l 3.426315832350572 -6.833214952403457 a28.644113210096144,28.644113210096144 0 0,0 0.4388544294128009,0.22479828394375187 l -3.543430749352128 6.773224143147205" fill="#ff6609" stroke="none" /><path d="M 109.73455568895987 81.39251694778311 l 2.9757604056671485 -5.6881292875757286 a27.419498795397743,27.419498795397743 0 0,0 0.4163258577439798,0.22238685492932203 l -3.0732313099394393 5.636063706144652" fill="#ff5507" stroke="none" /><path d="M 110.05341064243156 81.56283822128135 l 7.317274226071857 -13.419303506407388 a36.28463963254002,36.28463963254002 0 0,0 0.5457830284105484,0.3037276644037232 l -7.54718134355444 13.291360444443486" fill="#ffca12" stroke="none" /><path d="M 110.36928655335952 81.73862282372117 l 2.7313871687666373 -4.810252956808854 a26.53163713327179,26.53163713327179 0 0,0 0.395199180396745,0.22892487362783967 l -2.8137830816287104 4.762523925790965" fill="#ff4906" stroke="none" /><line stroke="#e1ed5e" stroke-width="0.3" x1="143.23703022742887" x2="145.7803849466894" y1="26.81831364943548" y2="22.513508569990506" /><path d="M 143.74570117128098 25.957352633546492 a86.0,86.0 0 0,1 28.547481713284135,27.462654790039103" fill="none" id="id110" stroke="none" /><text fill="#e1ed5e" style="font-size:6.75px; font-family:Arial;" text-anchor="middle"><textPath startOffset="19.985693538727396" xlink:href="#id110">February</textPath></text><path d="M 110.68208982089419 81.91981866633111 l 5.8713291939349785 -9.93763376604169 a32.54248982548935,32.54248982548935 0 0,0 0.47982806236657505,0.28909103874302744 l -6.041519322519191 9.835096117840047" fill="#ff9a0e" stroke="none" /><path d="M 110.99172775467656 82.1063720568725 l 3.231152390533794 -5.260050102601912 a27.17320604327562,27.17320604327562 0 0,0 0.39644523334771065,0.24825396875238082 l -3.3212167762537677 5.203651792526587" fill="#ff5207" stroke="none" /><path d="M 111.2981086023043 82.29822771554956 l 3.28382182512372 -5.145061728225271 a27.103699367302365,27.103699367302365 0 0,0 0.3911102205486838,0.2543889668834293 l -3.3718990714566837 5.087773837182314" fill="#ff5107" stroke="none" /><path d="M 111.60114157652 82.49532879139004 l 5.8996703173064065 -8.901864395195378 a31.679386666066243,31.679386666066243 0 0,0 0.4519521680587352,0.30516012134426423 l -6.052027179771684 8.798992361552445" fill="#ff8e0d" stroke="none" /><path d="M 111.90073688211348 82.69761687909136 l 3.009304609410233 -4.375203131983312 a26.31020872267129,26.31020872267129 0 0,0 0.37093492923036075,0.2598636228155495 l -3.0841706782242446 4.322754666403828" fill="#ff4606" stroke="none" /><path d="M 112.19680574252982 82.90503203632743 l 2.382424073537136 -3.3391909384097556 a25.10196789228379,25.10196789228379 0 0,0 0.3495803847064385,0.25398501644570093 l -2.4395497745973627 3.29768668714738" fill="#ff3505" stroke="none" /><path d="M 112.48926042617603 83.11751280151076 l 10.589684935467243 -14.314716344961285 a38.80596897304844,38.80596897304844 0 0,0 0.5335891808619329,0.40188830856137353 l -10.834520270087559 14.130311446894064" fill="#ffe915" stroke="none" /><path d="M 112.77801427241765 83.33499621200491 l 3.1067626364980168 -4.051819789980968 a26.10580235516628,26.10580235516628 0 0,0 0.35425256155546003,0.2764997433550588 l -3.176047753212907 3.9977416574026847" fill="#ff4306" stroke="none" /><path d="M 113.06298171725822 83.55741782278167 l 11.101733993375557 -13.973928575168301 a38.84710557719586,38.84710557719586 0 0,0 0.5199899692074361,0.42046239222063064 l -11.340627361147485 13.780760085683541" fill="#ffe915" stroke="none" /><path d="M 113.34407831869373 83.78471172551755 l 2.7024536724889514 -3.2839334648128657 a25.252937203071173,25.252937203071173 0 0,0 0.33326958168932774,0.27910369034473237 l -2.7585807911373967 3.236928617074314" fill="#ff3705" stroke="none" /><path d="M 113.6212207817346 84.01681056812373 l 4.039100237822712 -4.739494739122474 a27.227129444081687,27.227129444081687 0 0,0 0.3540903760107614,0.3070636848120261 l -4.120084412480238 4.669266060890776" fill="#ff5207" stroke="none" /><path d="M 113.89432698308785 84.25364557470407 l 0.25541453019980226 -0.2894596998323076 a21.38603562020129,21.38603562020129 0 0,0 0.2739337428911869,0.24594041908446307 l -0.2603592606869791 0.28502027197854707" fill="#ff0000" stroke="none" /><path d="M 114.16331599549186 84.49514656593476 l 2.77648208968819 -3.0394681497344913 a25.116700065296197,25.116700065296197 0 0,0 0.31670019820856615,0.2943383190003891 l -2.828390171691603 2.991225244659462" fill="#ff3505" stroke="none" /><path d="M 114.42810811169701 84.74124197986012 l 19.789681467105314 -20.929005969770905 a49.80372863801139,49.80372863801139 0 0,0 0.6178431352753354,0.5943646066183981 l -20.147007845993066 20.585258276390206" fill="#96ff23" stroke="none" /><path d="M 114.68862486808459 84.99185889309783 l 22.16468518303902 -22.646825404323334 a52.68835701258641,52.68835701258641 0 0,0 0.6427081340298875,0.6399481410503908 l -22.55122911723623 22.261941412622825" fill="#77ff26" stroke="none" /><path d="M 114.94478906791727 85.2469230424477 l 3.9411112065892255 -3.890554538096644 a26.537939342084524,26.537939342084524 0 0,0 0.31812131905151797,0.3278519829359985 l -4.007496789343852 3.8221383596105314" fill="#ff4906" stroke="none" /><path d="M 115.19652480421416 85.50635884689758 l 7.247075162501054 -6.9118767723607375 a31.014696147524376,31.014696147524376 0 0,0 0.36513554222975325,0.3895011381112643 l -7.36497802670127 6.786106217371418" fill="#ff850c" stroke="none" /><path d="M 115.4437574822437 85.77008943001954 l 7.059546403143255 -6.504680878138296 a30.599378560331438,30.599378560331438 0 0,0 0.3535778000410361,0.390429437929749 l -7.170467843800327 6.382198652938998" fill="#ff800b" stroke="none" /><path d="M 115.68641384162765 86.03803664274999 l 3.739539420645592 -3.3284415986457323 a26.0062639317317,26.0062639317317 0 0,0 0.2947477339854326,0.33694761224307423 l -3.7962790182088724 3.26357843019971" fill="#ff4206" stroke="none" /><path d="M 115.9244219780498 86.31012108654704 l 8.515519997942148 -7.320607166627708 a32.229664737802,32.229664737802 0 0,0 0.35803993877131995,0.42380635589516136 l -8.640270550200585 7.17294186110344" fill="#ff950d" stroke="none" /><path d="M 116.15771136456269 86.58626213691792 l 2.8308724425770744 -2.3501212524339117 a24.679253822079122,24.679253822079122 0 0,0 0.268535557751149,0.3291928418011497 l -2.8709064924046324 2.301044241024661" fill="#ff2f04" stroke="none" /><path d="M 116.38621287248628 86.86637796730983 l 4.283772042190826 -3.4334622230379357 a26.489933127687838,26.489933127687838 0 0,0 0.2821126404450551,0.3582544043780345 l -4.342238763229845 3.359215424706863" fill="#ff4806" stroke="none" /><path d="M 116.60985879189232 87.15038557335679 l 3.032623809273697 -2.3460793459151046 a24.8341746785851,24.8341746785851 0 0,0 0.2586586431849359,0.34036445480602534 l -3.0725583926827467 2.293530115228046" fill="#ff3104" stroke="none" /><path d="M 116.82858285166822 87.43820079747576 l 3.6912500029889683 -2.7553562740589252 a25.606225654650665,25.606225654650665 0 0,0 0.26061941784817094,0.3554845930549124 l -3.738132033350766 2.691409237332519" fill="#ff3c05" stroke="none" /><path d="M 117.04232023915458 87.72973835380427 l 2.1179738698905517 -1.5249152215585868 a23.60982370026794,23.60982370026794 0 0,0 0.23462248832862437,0.33185687086464094 l -2.1439089780230587 1.4882318503621528" fill="#ff2003" stroke="none" /><path d="M 117.2510076193507 88.02491185347247 l 10.432755926202375 -7.242079685092807 a33.700004503186,33.700004503186 0 0,0 0.32669030589058007,0.4793777124279965 l -10.555870697761689 7.0614239493944035" fill="#ffa90f" stroke="none" /><path d="M 117.45458315368197 88.32363383020206 l 2.761412958364511 -1.847266621264882 a24.32231778983631,24.32231778983631 0 0,0 0.2297918897808249,0.3499888132515713 l -2.7928014835032604 1.7994597440356368" fill="#ff2a04" stroke="none" /><path d="M 117.65298651832404 88.62581576622439 l 14.103384307512728 -9.087102132371609 a37.777391754666425,37.777391754666425 0 0,0 0.3475023606098632,0.5496652816123941 l -14.257714264368548 8.842989203045008" fill="#ffdc14" stroke="none" /><line stroke="#e1ed5e" stroke-width="0.3" x1="172.23445277983987" x2="176.4835382374775" y1="55.19839476539836" y2="52.563006222186495" /><path d="M 173.08426987136738 54.67131705675599 a86.0,86.0 0 0,1 12.851231095245387,41.99856678651699" fill="none" id="id111" stroke="none" /><text fill="#e1ed5e" style="font-size:6.75px; font-family:Arial;" text-anchor="middle"><textPath startOffset="22.20632615414155" xlink:href="#id111">March</textPath></text><path d="M 117.84615892207809 88.93136811851018 l 9.216995666116782 -5.716610085508198 a31.84585819467273,31.84585819467273 0 0,0 0.2849206497522,0.4683346333520139 l -9.314032114155207 5.5571076789491025" fill="#ff900d" stroke="none" /><path d="M 118.03404312379186 89.2402003453031 l 33.817646307497384 -20.17690079614073 a60.379442955891285,60.379442955891285 0 0,0 0.5248420558318427,0.8971252034686502 l -34.15994803779955 19.59179618031818" fill="#30ff35" stroke="none" /><path d="M 118.21658344932153 89.55222093294921 l 11.915396738845772 -6.833851856471729 a34.73601873325377,34.73601873325377 0 0,0 0.2930104900247051,0.5212329667648655 l -12.031264870162909 6.62773537977207" fill="#ffb610" stroke="none" /><path d="M 118.3937258080291 89.86733742301442 l 1.0616605004468946 -0.5848433174776518 a22.212091054421002,22.212091054421002 0 0,0 0.1816017206412417,0.33648040782677613 l -1.0715703203066012 0.566481926318417" fill="#ff0c01" stroke="none" /><path d="M 118.56541770881063 90.18545643968196 l 1.3249785889516827 -0.7004453269900661 a22.498730101546844,22.498730101546844 0 0,0 0.1780512718454106,0.34393838462375326 l -1.3368392939572098 0.6775342201059681" fill="#ff1001" stroke="none" /><path d="M 118.73160827565052 90.50648371742162 l 13.034684708727475 -6.606212862215239 a35.613180825434,35.613180825434 0 0,0 0.27242385268979297,0.5491898634938026 l -13.146468574370678 6.380863410222487" fill="#ffc111" stroke="none" /><path d="M 118.89224826269711 90.83032412892265 l 6.15588521035977 -2.9878641913685735 a27.84267894535384,27.84267894535384 0 0,0 0.20556091580817934,0.43296371326146366 l -6.206404320009705 2.8814580624665695" fill="#ff5b08" stroke="none" /><path d="M 119.04729006885535 91.15688171328212 l 4.101357453780766 -1.9041443149542454 a25.52182469096886,25.52182469096886 0 0,0 0.18156673693801859,0.4000582372599129 l -4.133526507682132 1.83326406885227" fill="#ff3b05" stroke="none" /><path d="M 119.196687751892 91.48605970444005 l 21.21520782037051 -9.409175951342371 a44.20813725710941,44.20813725710941 0 0,0 0.3025295249712634,0.6982798544960032 l -21.374028055184453 9.042596952259766" fill="#d5ff1c" stroke="none" /><path d="M 119.34039704204932 91.81776055985345 l 8.412327131532741 -3.558958727134207 a30.134190439736113,30.134190439736113 0 0,0 0.1979935601868984,0.47945711070089503 l -8.472342378605836 3.413627045980009" fill="#ff7a0b" stroke="none" /><path d="M 119.47837535516314 92.15188598940014 l 5.985798457318423 -2.4117631928196435 a27.453401031229596,27.453401031229596 0 0,0 0.17283412828633,0.439844004569157 l -6.026426135486454 2.308370183354702" fill="#ff5507" stroke="none" /><path d="M 119.61058180528143 92.48833698450437 l 10.197658973776228 -3.9061246891370733 a31.92016751851935,31.92016751851935 0 0,0 0.19212203374287184,0.5147915333652526 l -10.263385596020726 3.730010018742487" fill="#ff910d" stroke="none" /><path d="M 119.7369772167798 92.82701384747503 l 9.077228125015415 -3.2989262200034566 a30.658104609010877,30.658104609010877 0 0,0 0.17598762184889713,0.49754070571485975 l -9.13266882767412 3.1421878878619824" fill="#ff810b" stroke="none" /><path d="M 119.85752413597 93.16781622104841 l 9.829624868093594 -3.381982724387994 a31.395159075045598,31.395159075045598 0 0,0 0.1714216143814524,0.5125288080456303 l -9.886383776246817 3.2122808134200493" fill="#ff8b0c" stroke="none" /><path d="M 119.97218684219823 93.5106431181261 l 6.268544487862025 -2.0367735708185886 a27.591137729943934,27.591137729943934 0 0,0 0.14287547260607367,0.4529542924049485 l -6.302675444236304 1.928569111987221" fill="#ff5708" stroke="none" /><path d="M 120.08093135843002 93.85539295169968 l 26.85658488168836 -8.217903732240034 a49.085763177448044,49.085763177448044 0 0,0 0.24027271382920046,0.810080145067751 l -26.994063492629262 7.754394200425754" fill="#9eff22" stroke="none" /><path d="M 120.18372546131832 94.20196356495316 l 6.6577643858640085 -1.912529010522693 a27.92701911602459,27.92701911602459 0 0,0 0.12874785281320247,0.4631745279673437 l -6.689699009243574 1.7976431791363976" fill="#ff5c08" stroke="none" /><path d="M 120.28053869075195 94.5502522615342 l 10.254056311348869 -2.7554504860542472 a31.61782361020422,31.61782361020422 0 0,0 0.13671496962306154,0.5268185475036384 l -10.299967612842233 2.5785355130017584" fill="#ff8d0d" stroke="none" /><path d="M 120.37134235888165 94.90015583598534 l 12.924880250895919 -3.235666749735894 a34.323740796613606,34.323740796613606 0 0,0 0.1385489234239241,0.5743747343154553 l -12.978661974580662 3.0127067837610326" fill="#ffb110" stroke="none" /><path d="M 120.45610955862082 95.25157060432595 l 6.875445475346984 -1.5959812548878876 a28.05825096255601,28.05825096255601 0 0,0 0.10515913531707809,0.47140778399216665 l -6.901898997666099 1.4773953013457573" fill="#ff5e08" stroke="none" /><path d="M 120.53481517161879 95.60439243477599 l 5.98670270039498 -1.2814917232356449 a27.122322293022314,27.122322293022314 0 0,0 0.093792482920936,0.4573654564448093 l -6.007874479230913 1.1782506106274238" fill="#ff5107" stroke="none" /><path d="M 120.6074358757038 95.95851677861258 l 8.387356519030236 -1.6449091894746706 a29.54713259631189,29.54713259631189 0 0,0 0.09358600643728977,0.49994018855191047 l -8.414428249377385 1.5002909234601973" fill="#ff720a" stroke="none" /><path d="M 120.67395015179393 96.31383870115 l 7.730811563929891 -1.3784022011481722 a28.852734559700988,28.852734559700988 0 0,0 0.08296966333864143,0.48969164966800993 l -7.753393088788756 1.2451247631643243" fill="#ff6909" stroke="none" /><path d="M 120.73433829027371 96.67025291283417 l 4.386950101667867 -0.7045044851719544 a25.443158534663276,25.443158534663276 0 0,0 0.0657210191807172,0.43301940208750594 l -4.398427014287884 0.6288859706923663" fill="#ff3a05" stroke="none" /><path d="M 120.78858239683441 97.02765380044208 l 11.839122783838205 -1.692754750703903 a32.959525364195166,32.959525364195166 0 0,0 0.07546789755548725,0.5623234948688377 l -11.86650668045153 1.4887129137704007" fill="#ff9f0e" stroke="none" /><path d="M 120.83666639777658 97.38593545837742 l 5.091324433881646 -0.6387322433653218 a26.131234098124423,26.131234098124423 0 0,0 0.05215003793490358,0.4467896775347949 l -5.101564824820139 0.5509988275056741" fill="#ff4306" stroke="none" /><path d="M 120.87857604477298 97.74499172005257 l 28.317245789472192 -3.05842810274184 a49.48193096615856,49.48193096615856 0 0,0 0.08417318099546282,0.8476124455486272 l -28.365696096149886 2.5705401264887775" fill="#9aff23" stroke="none" /><path d="M 120.91429891909075 98.10471618934814 l 4.094107666310868 -0.37101391775278375 a25.110884200571903,25.110884200571903 0 0,0 0.0353053246557514,0.43081438590825616 l -4.099887474786114 0.3004856146367588" fill="#ff3505" stroke="none" /><path d="M 120.94382443527127 98.46500227214037 l 11.190833676365171 -0.8201894701307029 a32.220849751198976,32.220849751198976 0 0,0 0.03577957969207075,0.5534942614195179 l -11.203293847061659 0.6274361444581498" fill="#ff950d" stroke="none" /><path d="M 120.96714384426684 98.82574320788733 l 4.386292960005413 -0.24565264295120964 a25.39316641523878,25.39316641523878 0 0,0 0.020685021566242596,0.4366281123912657 l -4.389871589805152 0.17011342393694417" fill="#ff3905" stroke="none" /><path d="M 120.98425023603335 99.18683210126433 l 2.5145178310665663 -0.0974409453767686 a23.51640510661293,23.51640510661293 0 0,0 0.0121930382907443,0.4046275804888785 l -2.5158225638129554 0.05414321746289103" fill="#ff1f03" stroke="none" /><line stroke="#e1ed5e" stroke-width="0.3" x1="184.98032266829074" x2="189.97916517819016" y1="98.17113171792111" y2="98.06355123074" /><path d="M 185.9800911702706 98.14961562048488 a86.0,86.0 0 0,1 -9.607161424134198,41.387399972396054" fill="none" id="id112" stroke="none" /><text fill="#e1ed5e" style="font-size:6.75px; font-family:Arial;" text-anchor="middle"><textPath startOffset="21.466115282336823" xlink:href="#id112">April</textPath></text><path d="M 120.99513854157772 99.54816195383933 l 12.14561717650117 -0.26138679311774327 a33.14842951388107,33.14842951388107 0 0,0 0.007366832600009081,0.570569303405069 l -12.148317016218895 0.05228123165221157" fill="#ffa10e" stroke="none" /><path d="M 120.99980553446 99.90962569577887 l 20.70084178415677 -0.08908769035812752 a41.70103348118794,41.70103348118794 0 0,0 -0.0030892576579623653,0.7178346834552497 l -20.699308229209304 -0.2672564713008069" fill="#f2ff19" stroke="none" /><path d="M 120.99824983174949 100.27111621757518 l 15.52667966923248 0.20047073909269303 a36.527973791457455,36.527973791457455 0 0,0 -0.013529156685411745,0.6286467493706903 l -15.520928449862062 -0.46770730425349816" fill="#ffcd13" stroke="none" /><path d="M 120.9904718944345 100.63252640178507 l 62.97141568330351 1.8975792053552112 a84.0,84.0 0 0,0 -0.05599146859518722,1.4448910119439753 l -62.92942208185712 -2.9812474643131925" fill="#4dd2ff" stroke="none" /><line stroke="#e1ed5e" stroke-width="0.3" x1="174.80103733775053" x2="179.2010983576182" y1="140.37084112569926" y2="142.7455964860345" /><path d="M 175.68104954172406 140.8457921977663 a86.0,86.0 0 0,1 -30.038265399797805,32.042727171017184" fill="none" id="id113" stroke="none" /><text fill="#e1ed5e" style="font-size:6.75px; font-family:Arial;" text-anchor="middle"><textPath startOffset="22.206326154141568" xlink:href="#id113">May</textPath></text><line stroke="#e1ed5e" stroke-width="0.3" x1="143.8653032363475" x2="146.44561519142675" y1="172.8068346515853" y2="177.08958963109032" /><path d="M 144.38136562736335 173.6633856474863 a86.0,86.0 0 0,1 -40.68145358897372,12.25698825130547" fill="none" id="id114" stroke="none" /><text fill="#e1ed5e" style="font-size:6.75px; font-family:Arial;" text-anchor="middle"><textPath startOffset="21.466115282336833" xlink:href="#id114">June</textPath></text><line stroke="#e1ed5e" stroke-width="0.3" x1="102.19456741930631" x2="102.32365962044197" y1="184.97166512339345" y2="189.96999836594603" /><path d="M 102.22038585953345 185.97133177190398 a86.0,86.0 0 0,1 -42.740103519485714,-10.115201625700543" fill="none" id="id115" stroke="none" /><text fill="#e1ed5e" style="font-size:6.75px; font-family:Arial;" text-anchor="middle"><textPath startOffset="22.20632615414155" xlink:href="#id115">July</textPath></text><line stroke="#e1ed5e" stroke-width="0.3" x1="58.666819895761336" x2="56.23545636021788" y1="174.27360380694188" y2="178.64263932499728" /><path d="M 58.180547188652646 175.14741091055294 a86.0,86.0 0 0,1 -31.652253787137756,-30.449443065178592" fill="none" id="id116" stroke="none" /><text fill="#e1ed5e" style="font-size:6.75px; font-family:Arial;" text-anchor="middle"><textPath startOffset="22.20632615414155" xlink:href="#id116">August</textPath></text><line stroke="#e1ed5e" stroke-width="0.3" x1="26.63291911575756" x2="22.317208475507996" y1="142.92168965132927" y2="145.44649492493687" /><path d="M 25.769776987707644 143.4266507060508 a86.0,86.0 0 0,1 -11.730757126820373,-40.83630448921669" fill="none" id="id117" stroke="none" /><text fill="#e1ed5e" style="font-size:6.75px; font-family:Arial;" text-anchor="middle"><textPath startOffset="21.46611528233685" xlink:href="#id117">September</textPath></text><line stroke="#e1ed5e" stroke-width="0.3" x1="15.007084014347285" x2="10.007500721073583" y1="101.09737516637583" y2="101.16192664675087" /><path d="M 14.007167355692545 101.11028546245083 a86.0,86.0 0 0,1 10.666146001902534,-42.60595125391555" fill="none" id="id118" stroke="none" /><text fill="#e1ed5e" style="font-size:6.75px; font-family:Arial;" text-anchor="middle"><textPath startOffset="22.20632615414155" xlink:href="#id118">October</textPath></text><line stroke="#e1ed5e" stroke-width="0.3" x1="26.266209847984243" x2="21.928928074336255" y1="57.711370442889674" y2="55.22380399835377" /><path d="M 25.398753493254645 57.213857153982495 a86.0,86.0 0 0,1 29.58750427330803,-30.492523968695096" fill="none" id="id119" stroke="none" /><text fill="#e1ed5e" style="font-size:6.75px; font-family:Arial;" text-anchor="middle"><textPath startOffset="21.46611528233685" xlink:href="#id119">November</textPath></text><line stroke="#e1ed5e" stroke-width="0.3" x1="56.762969772571076" x2="54.21961505331055" y1="26.818313649435495" y2="22.513508569990535" /><path d="M 56.25429882871897 25.957352633546506 a86.0,86.0 0 0,1 42.265352541879196,-11.944610805530505" fill="none" id="id120" stroke="none" /><text fill="#e1ed5e" style="font-size:6.75px; font-family:Arial;" text-anchor="middle"><textPath startOffset="22.20632615414155" xlink:href="#id120">December</textPath></text></svg>