<?xml version="1.0" encoding="utf-8" ?>
<svg baseProfile="full" height="200mm" version="1.1" viewBox="0,0,200,200" width="200mm" xmlns="http://www.w3.org/2000/svg" xmlns:ev="http://www.w3.org/2001/xml-events" xmlns:xlink="http://www.w3.org/1999/xlink"><defs /><rect fill="#1a1a1a" height="200" width="200" x="0" y="0" /><text alignment-baseline="middle" fill="#e1ed5e" style="dominant-baseline: central; font-size:9.0px; font-family:Arial;" text-anchor="middle" x="100.0" y="100.0">2023</text><line stroke="#e1ed5e" stroke-width="0.3" x1="100.0" x2="100.0" y1="15.0" y2="10.0" /><path d="M 100.0 14.0 a86.0,86.0 0 0,1 42.46469731375804,11.215312516191453" fill="none" id="id85" stroke="none" /><text fill="#e1ed5e" style="font-size:6.75px; font-family:Arial;" text-anchor="middle"><textPath startOffset="22.20632615414155" xlink:href="#id85">January</textPath></text><path d="M 100.0 79.0 l 0.0 -54.20051104703447 a75.20051104703447,75.20051104703447 0 0,0 1.294453179753385,0.011141767191591231 l -0.9329727004808566 54.19248065645144" fill="#41ffce" stroke="none" /><path d="M 101.44485096284872 79.0497635885617 l 4.334552888546152 -62.8507092343149 a84.0,84.0 0 0,0 1.4416392425506352,0.11189895124614191 l -5.415782320459128 62.76678502088029" fill="#4dd2ff" stroke="none" /><path d="M 109.41281617654863 81.2277094730956 l 18.009528125153217 -35.91699740829265 a61.17927085099959,61.17927085099959 0 0,0 0.937323274917908,0.48013338724646615 l -18.62511188765988 35.60167149573368" fill="#3eff2e" stroke="none" /><path d="M 109.73455568895987 81.39251694778311 l 12.215459261651304 -23.349699611252554 a47.35196229711917,47.35196229711917 0 0,0 0.718971796906719,0.38404983433744105 l -12.615576105086333 23.13597105041336" fill="#e4ff1a" stroke="none" /><path d="M 110.05341064243156 81.56283822128135 l 17.1658242384519 -31.4807670556706 a56.85671786707225,56.85671786707225 0 0,0 0.8552222642207498,0.47593026410934813 l -17.705170591744682 31.180621394001072" fill="#6eff28" stroke="none" /><line stroke="#e1ed5e" stroke-width="0.3" x1="143.23703022742887" x2="145.7803849466894" y1="26.81831364943548" y2="22.513508569990506" /><path d="M 143.74570117128098 25.957352633546492 a86.0,86.0 0 0,1 28.547481713284135,27.462654790039103" fill="none" id="id86" stroke="none" /><text fill="#e1ed5e" style="font-size:6.75px; font-family:Arial;" text-anchor="middle"><textPath startOffset="19.985693538727396" xlink:href="#id86">February</textPath></text><path d="M 110.68208982089419 81.91981866633111 l 22.654202002607594 -38.34381539982438 a65.5360645745755,65.5360645745755 0 0,0 0.9663072201475734,0.5821892880536303 l -23.310871288972805 37.948179502312136" fill="#34ff58" stroke="none" /><path d="M 115.4437574822437 85.77008943001952 l 34.78588878421865 -32.051790962519284 a68.30090234248244,68.30090234248244 0 0,0 0.7892213478603082,0.8714779242687172 l -35.33245377269499 31.44826025098102" fill="#37ff7b" stroke="none" /><path d="M 116.38621287248628 86.86637796730983 l 33.8294938443231 -27.11448881849807 a64.35470167872859,64.35470167872859 0 0,0 0.6853650678590677,0.8703440362686709 l -34.29121299277613 26.52815238827636" fill="#32ff48" stroke="none" /><path d="M 116.60985879189232 87.15038557335679 l 5.6602359678501495 -4.3788361275048455 a28.156289334793986,28.156289334793986 0 0,0 0.29325990054907786,0.38589565358344097 l -5.73477180862334 4.280755698040373" fill="#ff0000" stroke="none" /><path d="M 116.82858285166822 87.43820079747576 l 22.03005141511899 -16.444467412214514 a48.4907925281206,48.4907925281206 0 0,0 0.4935378720049649,0.6731851027657505 l -22.309851899637582 16.062819865777268" fill="#d5ff1c" stroke="none" /><line stroke="#e1ed5e" stroke-width="0.3" x1="172.23445277983987" x2="176.4835382374775" y1="55.19839476539836" y2="52.563006222186495" /><path d="M 173.08426987136738 54.67131705675599 a86.0,86.0 0 0,1 12.851231095245387,41.99856678651699" fill="none" id="id87" stroke="none" /><text fill="#e1ed5e" style="font-size:6.75px; font-family:Arial;" text-anchor="middle"><textPath startOffset="22.20632615414155" xlink:href="#id87">March</textPath></text><path d="M 118.3937258080291 89.86733742301442 l 25.140549707408066 -13.849326114989822 a49.702806020143655,49.702806020143655 0 0,0 0.40636043998925686,0.7529241798450309 l -25.375218246615788 13.414520951812332" fill="#c6ff1e" stroke="none" /><path d="M 118.89224826269711 90.83032412892265 l 49.99336666427343 -24.26513571285584 a76.57097733162337,76.57097733162337 0 0,0 0.5653191726093729,1.1907063518789462 l -50.403644030724564 23.400986945336356" fill="#43ffdd" stroke="none" /><path d="M 119.61058180528143 92.48833698450437 l 26.35433276153862 -10.094798240488695 a49.22154862551099,49.22154862551099 0 0,0 0.29625609014803445,0.7938190323355331 l -26.524193440188277 9.639656071123827" fill="#ccff1d" stroke="none" /><path d="M 119.85752413597 93.16781622104841 l 23.993488683634453 -8.255204579499718 a46.37392168863709,46.37392168863709 0 0,0 0.25320758853500647,0.7570584608494789 l -24.13203356594123 7.840973015727925" fill="#f1ff19" stroke="none" /><path d="M 120.37134235888165 94.90015583598534 l 46.805858008111606 -11.717567630014079 a69.25028222756276,69.25028222756276 0 0,0 0.2795310716942114,1.1588367565009388 l -47.00062188006664 10.910145641853733" fill="#39ff87" stroke="none" /><path d="M 120.53481517161879 95.60439243477599 l 31.570341773827735 -6.757832100166183 a53.28551957782822,53.28551957782822 0 0,0 0.18426818806081438,0.8985571264995297 l -31.681989257803547 6.213399317503242" fill="#99ff23" stroke="none" /><path d="M 120.98425023603335 99.18683210126433 l 40.59892339235312 -1.5732628449693296 a61.62939498192803,61.62939498192803 0 0,0 0.03195427062271273,1.0604066763384072 l -40.61998935743148 0.8741860212059231" fill="#39ff2e" stroke="none" /><line stroke="#e1ed5e" stroke-width="0.3" x1="184.98032266829074" x2="189.97916517819016" y1="98.17113171792111" y2="98.06355123074" /><path d="M 185.9800911702706 98.14961562048488 a86.0,86.0 0 0,1 -9.607161424134198,41.387399972396054" fill="none" id="id88" stroke="none" /><text fill="#e1ed5e" style="font-size:6.75px; font-family:Arial;" text-anchor="middle"><textPath startOffset="21.466115282336823" xlink:href="#id88">April</textPath></text><path d="M 120.9904718944345 100.63252640178507 l 55.37154788254918 1.6685649622153067 a76.39668242722274,76.39668242722274 0 0,0 -0.05092336243928969,1.314105711683719 l -55.33462238725868 -2.621447920913032" fill="#43ffdb" stroke="none" /><path d="M 120.89721153311464 102.0752229133903 l 46.63502125771268 4.6311472957571524 a67.8644079551029,67.8644079551029 0 0,0 -0.12544476794337145,1.1614627539130964 l -46.54839418826826 -5.43320637155504" fill="#37ff75" stroke="none" /><path d="M 120.76222939487914 103.15116336523771 l 26.884732831976162 4.080399246779429 a48.19261880473918,48.19261880473918 0 0,0 -0.131538874410611,0.8190926965185356 l -26.81051220320426 -4.5425711729911695" fill="#d9ff1c" stroke="none" /><path d="M 120.5718875245553 104.21870165774334 l 39.845555383677016 8.171175851033434 a61.67476365785282,61.67476365785282 0 0,0 -0.22222287041020078,1.0381512687535646 l -39.69899847454238 -8.855840939203167" fill="#38ff2e" stroke="none" /><path d="M 120.32669344350535 105.2749913415812 l 36.16072022223259 9.384088297871376 a58.358517103504354,58.358517103504354 0 0,0 -0.2607011786343352,0.9701660689172958 l -35.99383096725648 -10.00514529996422" fill="#5dff2a" stroke="none" /><path d="M 120.23288151984713 105.62410040840565 l 40.55084345623259 11.27185047862203 a63.08830619333942,63.08830619333942 0 0,0 -0.2998417849752177,1.0437885890454173 l -40.350809034371274 -11.968196543172029" fill="#30ff37" stroke="none" /><path d="M 119.9155931802556 106.66101706037122 l 45.79325337315849 15.316121353137419 a69.28670239105507,69.28670239105507 0 0,0 -0.38803578547122153,1.1278136281043079 l -45.522826756744045 -16.102107684331028" fill="#39ff87" stroke="none" /><path d="M 119.67450827220406 107.3425965602758 l 32.12793619151763 11.99026021412073 a55.29242808447012,55.29242808447012 0 0,0 -0.34045844030888706,0.8888295549471553 l -31.916783471615236 -12.541513335901028" fill="#81ff25" stroke="none" /><line stroke="#e1ed5e" stroke-width="0.3" x1="174.80103733775053" x2="179.2010983576182" y1="140.37084112569926" y2="142.7455964860345" /><path d="M 175.68104954172406 140.8457921977663 a86.0,86.0 0 0,1 -30.038265399797805,32.042727171017184" fill="none" id="id89" stroke="none" /><text fill="#e1ed5e" style="font-size:6.75px; font-family:Arial;" text-anchor="middle"><textPath startOffset="22.206326154141568" xlink:href="#id89">May</textPath></text><line stroke="#e1ed5e" stroke-width="0.3" x1="143.8653032363475" x2="146.44561519142675" y1="172.8068346515853" y2="177.08958963109032" /><path d="M 144.38136562736335 173.6633856474863 a86.0,86.0 0 0,1 -40.68145358897372,12.25698825130547" fill="none" id="id90" stroke="none" /><text fill="#e1ed5e" style="font-size:6.75px; font-family:Arial;" text-anchor="middle"><textPath startOffset="21.466115282336833" xlink:href="#id90">June</textPath></text><line stroke="#e1ed5e" stroke-width="0.3" x1="102.19456741930631" x2="102.32365962044197" y1="184.97166512339345" y2="189.96999836594603" /><path d="M 102.22038585953345 185.97133177190398 a86.0,86.0 0 0,1 -42.740103519485714,-10.115201625700543" fill="none" id="id91" stroke="none" /><text fill="#e1ed5e" style="font-size:6.75px; font-family:Arial;" text-anchor="middle"><textPath startOffset="22.20632615414155" xlink:href="#id91">July</textPath></text><line stroke="#e1ed5e" stroke-width="0.3" x1="58.666819895761336" x2="56.23545636021788" y1="174.27360380694188" y2="178.64263932499728" /><path d="M 58.180547188652646 175.14741091055294 a86.0,86.0 0 0,1 -31.652253787137756,-30.449443065178592" fill="none" id="id92" stroke="none" /><text fill="#e1ed5e" style="font-size:6.75px; font-family:Arial;" text-anchor="middle"><textPath startOffset="22.20632615414155" xlink:href="#id92">August</textPath></text><line stroke="#e1ed5e" stroke-width="0.3" x1="26.63291911575756" x2="22.317208475507996" y1="142.92168965132927" y2="145.44649492493687" /><path d="M 25.769776987707644 143.4266507060508 a86.0,86.0 0 0,1 -11.730757126820373,-40.83630448921669" fill="none" id="id93" stroke="none" /><text fill="#e1ed5e" style="font-size:6.75px; font-family:Arial;" text-anchor="middle"><textPath startOffset="21.46611528233685" xlink:href="#id93">September</textPath></text><line stroke="#e1ed5e" stroke-width="0.3" x1="15.007084014347285" x2="10.007500721073583" y1="101.09737516637583" y2="101.16192664675087" /><path d="M 14.007167355692545 101.11028546245083 a86.0,86.0 0 0,1 10.666146001902534,-42.60595125391555" fill="none" id="id94" stroke="none" /><text fill="#e1ed5e" style="font-size:6.75px; font-family:Arial;" text-anchor="middle"><textPath startOffset="22.20632615414155" xlink:href="#id94">October</textPath></text><line stroke="#e1ed5e" stroke-width="0.3" x1="26.266209847984243" x2="21.928928074336255" y1="57.71137044288968" y2="55.22380399835378" /><path d="M 25.398753493254645 57.2138571539825 a86.0,86.0 0 0,1 29.58750427330803,-30.4925239686951" fill="none" id="id95" stroke="none" /><text fill="#e1ed5e" style="font-size:6.75px; font-family:Arial;" text-anchor="middle"><textPath startOffset="21.46611528233685" xlink:href="#id95">November</textPath></text><line stroke="#e1ed5e" stroke-width="0.3" x1="56.76296977257108" x2="54.21961505331056" y1="26.818313649435495" y2="22.513508569990535" /><path d="M 56.25429882871898 25.957352633546506 a86.0,86.0 0 0,1 42.26535254187918,-11.944610805530505" fill="none" id="id96" stroke="none" /><text fill="#e1ed5e" style="font-size:6.75px; font-family:Arial;" text-anchor="middle"><textPath startOffset="22.20632615414155" xlink:href="#id96">December</textPath></text></svg>