<?xml version="1.0" encoding="utf-8" ?>
<svg baseProfile="full" height="200mm" version="1.1" viewBox="0,0,200,200" width="200mm" xmlns="http://www.w3.org/2000/svg" xmlns:ev="http://www.w3.org/2001/xml-events" xmlns:xlink="http://www.w3.org/1999/xlink"><defs /><rect fill="#1a1a1a" height="200" width="200" x="0" y="0" /><text alignment-baseline="middle" fill="#e1ed5e" style="dominant-baseline: central; font-size:9.0px; font-family:Arial;" text-anchor="middle" x="100.0" y="100.0">2022</text><line stroke="#e1ed5e" stroke-width="0.3" x1="100.0" x2="100.0" y1="15.0" y2="10.0" /><path d="M 100.0 14.0 a86.0,86.0 0 0,1 42.46469731375804,11.215312516191453" fill="none" id="id73" stroke="none" /><text fill="#e1ed5e" style="font-size:6.75px; font-family:Arial;" text-anchor="middle"><textPath startOffset="22.20632615414155" xlink:href="#id73">January</textPath></text><line stroke="#e1ed5e" stroke-width="0.3" x1="143.23703022742887" x2="145.7803849466894" y1="26.81831364943548" y2="22.513508569990506" /><path d="M 143.74570117128098 25.957352633546492 a86.0,86.0 0 0,1 28.547481713284135,27.462654790039103" fill="none" id="id74" stroke="none" /><text fill="#e1ed5e" style="font-size:6.75px; font-family:Arial;" text-anchor="middle"><textPath startOffset="19.985693538727396" xlink:href="#id74">February</textPath></text><line stroke="#e1ed5e" stroke-width="0.3" x1="172.23445277983987" x2="176.4835382374775" y1="55.19839476539836" y2="52.563006222186495" /><path d="M 173.08426987136738 54.67131705675599 a86.0,86.0 0 0,1 12.851231095245387,41.99856678651699" fill="none" id="id75" stroke="none" /><text fill="#e1ed5e" style="font-size:6.75px; font-family:Arial;" text-anchor="middle"><textPath startOffset="22.20632615414155" xlink:href="#id75">March</textPath></text><line stroke="#e1ed5e" stroke-width="0.3" x1="184.98032266829074" x2="189.97916517819016" y1="98.17113171792111" y2="98.06355123074" /><path d="M 185.9800911702706 98.14961562048488 a86.0,86.0 0 0,1 -9.607161424134198,41.387399972396054" fill="none" id="id76" stroke="none" /><text fill="#e1ed5e" style="font-size:6.75px; font-family:Arial;" text-anchor="middle"><textPath startOffset="21.466115282336823" xlink:href="#id76">April</textPath></text><line stroke="#e1ed5e" stroke-width="0.3" x1="174.80103733775053" x2="179.2010983576182" y1="140.37084112569926" y2="142.7455964860345" /><path d="M 175.68104954172406 140.8457921977663 a86.0,86.0 0 0,1 -30.038265399797805,32.042727171017184" fill="none" id="id77" stroke="none" /><text fill="#e1ed5e" style="font-size:6.75px; font-family:Arial;" text-anchor="middle"><textPath startOffset="22.206326154141568" xlink:href="#id77">May</textPath></text><line stroke="#e1ed5e" stroke-width="0.3" x1="143.8653032363475" x2="146.44561519142675" y1="172.8068346515853" y2="177.08958963109032" /><path d="M 144.38136562736335 173.6633856474863 a86.0,86.0 0 0,1 -40.68145358897372,12.25698825130547" fill="none" id="id78" stroke="none" /><text fill="#e1ed5e" style="font-size:6.75px; font-family:Arial;" text-anchor="middle"><textPath startOffset="21.466115282336833" xlink:href="#id78">June</textPath></text><line stroke="#e1ed5e" stroke-width="0.3" x1="102.19456741930631" x2="102.32365962044197" y1="184.97166512339345" y2="189.96999836594603" /><path d="M 102.22038585953345 185.97133177190398 a86.0,86.0 0 0,1 -42.740103519485714,-10.115201625700543" fill="none" id="id79" stroke="none" /><text fill="#e1ed5e" style="font-size:6.75px; font-family:Arial;" text-anchor="middle"><textPath startOffset="22.20632615414155" xlink:href="#id79">July</textPath></text><path d="M 100.18074693466247 120.99922214144158 l 0.040853569933739176 4.746377535594654 a25.74655335212551,25.74655335212551 0 0,0 -0.443201009192386,0.0 l 0.0408535699337359 -4.746377535594654" fill="#ff3505" stroke="none" /><path d="M 98.37488393609728 120.93702456842531 l -2.402474497200693 30.952046250843804 a52.045145366450996,52.045145366450996 0 0,0 -0.8925883256045142,-0.07701627654895814 l 2.934907140546749 -30.906105722016182" fill="#82ff25" stroke="none" /><path d="M 98.01472825383883 120.90594882070398 l -2.066744132870867 21.763895623274912 a42.86180651299341,42.86180651299341 0 0,0 -0.733890879650976,-0.07607079037458343 l 2.441067609127437 -21.72509546444457" fill="#eaff1a" stroke="none" /><path d="M 97.65516085044442 120.86867818915974 l -3.949859787046231 35.15309474587775 a56.37430511755648,56.37430511755648 0 0,0 -0.9633901024392744,-0.116653124874252 l 4.554377312536894 -35.07989609227815" fill="#55ff2b" stroke="none" /><path d="M 97.2962882734958 120.8252237178851 l -3.524608366418829 27.148144910961445 a48.37598648895034,48.37598648895034 0 0,0 -0.8248598873726335,-0.11431806424943024 l 3.9913968449782926 -27.08345228121941" fill="#aaff21" stroke="none" /><path d="M 96.93821686468263 120.77559828337769 l -9.18534940595209 62.32679485013308 a84.0,84.0 0 0,0 -1.428656545565929,-0.22312677061157693 l 10.256841815126537 -62.1594497721744" fill="#4dd2ff" stroke="none" /><path d="M 96.58105272829116 120.7198165907248 l -7.00974000271383 42.481066732656494 a64.05551632079286,64.05551632079286 0 0,0 -1.0863541914542527,-0.18887660115020868 l 7.739943165640132 -42.35411155298528" fill="#34ff5e" stroke="none" /><path d="M 92.06813273071674 119.44442032107085 l -2.331874911576837 5.716428979144673 a27.17375095682086,27.17375095682086 0 0,0 -0.4315819760289491,-0.18040130098243537 l 2.4299283471032473 -5.675442635142264" fill="#ff4906" stroke="none" /><line stroke="#e1ed5e" stroke-width="0.3" x1="58.666819895761336" x2="56.23545636021788" y1="174.27360380694188" y2="178.64263932499728" /><path d="M 58.180547188652646 175.14741091055294 a86.0,86.0 0 0,1 -31.652253787137756,-30.449443065178592" fill="none" id="id80" stroke="none" /><text fill="#e1ed5e" style="font-size:6.75px; font-family:Arial;" text-anchor="middle"><textPath startOffset="22.20632615414155" xlink:href="#id80">August</textPath></text><path d="M 89.4739219176387 118.17145234162733 l -7.112163456965631 12.277919496025888 a35.18908651709087,35.18908651709087 0 0,0 -0.5215225863466975,-0.3081247365924495 l 7.322453914340711 -12.15367618713969" fill="#ffb510" stroke="none" /><path d="M 88.8546689885994 117.79835938074946 l -7.126921796609533 11.381224593939857 a34.428525144359284,34.428525144359284 0 0,0 -0.4995713400081593,-0.3188500655930826 l 7.321774938664616 -11.25686009952297" fill="#ffab0f" stroke="none" /><path d="M 87.65650970185807 116.9893568818739 l -7.054089807677613 9.709121676667447 a33.0011343941777,33.0011343941777 0 0,0 -0.4566964594373756,-0.3378531226214302 l 7.220171237533553 -9.586258605306247" fill="#ff980e" stroke="none" /><path d="M 87.36589467227662 116.77436683061367 l -8.712710134405322 11.567910199594325 a35.48198412759963,35.48198412759963 0 0,0 -0.4847029477265918,-0.37164955152274953 l 8.9105418106254 -11.416221306244209" fill="#ffb911" stroke="none" /><path d="M 86.79598089348748 116.32954008644616 l -3.0985944545888318 3.8320621887688513 a25.92808159557049,25.92808159557049 0 0,0 -0.3446334325168767,-0.28360985243675424 l 3.1640980156503975 -3.778157217474916" fill="#ff3805" stroke="none" /><path d="M 86.24171649860922 115.8653595955263 l -7.829136086210244 9.028165418853355 a32.95002689062159,32.95002689062159 0 0,0 -0.4253027028874548,-0.3752801862008319 l 7.983381142004286 -8.892062090880234" fill="#ff980e" stroke="none" /><path d="M 85.44109423537348 115.13401014063109 l -9.969214577824907 10.363017451593475 a35.37975556123078,35.37975556123078 0 0,0 -0.4352553111512729,-0.4259889310610403 l 10.146119841351975 -10.189878417609863" fill="#ffb711" stroke="none" /><path d="M 84.9287848128048 114.62390073753433 l -13.413008150478532 13.014909371806356 a39.689479757369824,39.689479757369824 0 0,0 -0.47153643707815496,-0.4944040690986126 l 13.635051138935644 -12.782098186125243" fill="#ffee16" stroke="none" /><path d="M 84.67929136418377 114.36230785411684 l -2.092555574139657 1.9616538681104405 a23.868252905365146,23.868252905365146 0 0,0 -0.27841020400169386,-0.3021592897607406 l 2.1260121861370798 -1.9253433235483581" fill="#ff1a02" stroke="none" /><path d="M 83.95833913139862 113.55231037782056 l -10.59322537933939 8.949364995242545 a34.8675000542835,34.8675000542835 0 0,0 -0.3833831064879198,-0.4618096491754379 l 10.745704485720848 -8.765694088953344" fill="#ffb110" stroke="none" /><path d="M 83.50135304334701 112.99209946851258 l -2.3189977154150805 1.8261284737520218 a23.951693684437505,23.951693684437505 0 0,0 -0.2522833980513629,-0.3261103001256814 l 2.350087930684512 -1.7859401795130876" fill="#ff1c02" stroke="none" /><path d="M 82.6465618267979 111.8261652097733 l -13.06600428778746 8.904329147730397 a36.811626912484414,36.811626912484414 0 0,0 -0.35233441400895954,-0.526692143582339 l 13.217341807207148 -8.678100089942237" fill="#ffca12" stroke="none" /><path d="M 82.44556493220864 111.52570212397912 l -13.685623194640243 8.9855592454727 a37.37182204825031,37.37182204825031 0 0,0 -0.3484390954183765,-0.5407852139067927 l 13.838267153435664 -8.74865243164446" fill="#ffd113" stroke="none" /><path d="M 82.05923443525364 110.91462005526583 l -13.968729916919742 8.49815350117471 a37.35065834825548,37.35065834825548 0 0,0 -0.329431249112305,-0.5521457223622702 l 14.112942041730278 -8.256445684926328" fill="#ffd113" stroke="none" /><line stroke="#e1ed5e" stroke-width="0.3" x1="26.63291911575756" x2="22.317208475507996" y1="142.92168965132927" y2="145.44649492493687" /><path d="M 25.769776987707644 143.4266507060508 a86.0,86.0 0 0,1 -11.730757126820373,-40.83630448921669" fill="none" id="id81" stroke="none" /><text fill="#e1ed5e" style="font-size:6.75px; font-family:Arial;" text-anchor="middle"><textPath startOffset="21.46611528233685" xlink:href="#id81">September</textPath></text><path d="M 79.97269907076064 106.31721596034903 l -10.083994486490594 3.1807966105470333 a31.57376053640521,31.57376053640521 0 0,0 -0.15903135981210245,-0.5197236853588508 l 10.137252618808827 -3.0067459526361344" fill="#ff850c" stroke="none" /><path d="M 79.50377843672027 104.57218783832718 l -15.111993028613174 3.371102840832773 a36.48343203751429,36.48343203751429 0 0,0 -0.1314549502738121,-0.6141137640728986 l 15.167782017611426 -3.1104752573437096" fill="#ffc612" stroke="none" /><path d="M 79.29508885075956 103.50808413554451 l -16.257292338588638 2.7545131166623875 a37.48899319825798,37.48899319825798 0 0,0 -0.10232396766122147,-0.63717144430229 l 16.302298060611147 -2.4742624426668836" fill="#ffd213" stroke="none" /><path d="M 79.10278846688536 102.07522291339032 l -15.98351702228295 1.5872625258467652 a37.062136181951836,37.062136181951836 0 0,0 -0.05757938837000915,-0.6353837526500121 l 16.008471006930034 -1.3118973846481872" fill="#ffcd13" stroke="none" /><path d="M 79.07016306316243 101.71520430193888 l -10.266515609183433 0.8413429971736214 a31.30093203513644,31.30093203513644 0 0,0 -0.03938468292295496,-0.537372707207419 l 10.279476850770724 -0.6644971534694414" fill="#ff820b" stroke="none" /><path d="M 79.0235259727143 100.99374915477108 l -18.02344067655254 0.8538507908952115 a39.04365470170389,39.04365470170389 0 0,0 -0.02602513769133514,-0.671593163713542 l 18.035467947095075 -0.5434803801676726" fill="#ffe615" stroke="none" /><line stroke="#e1ed5e" stroke-width="0.3" x1="15.007084014347285" x2="10.007500721073583" y1="101.09737516637583" y2="101.16192664675087" /><path d="M 14.007167355692545 101.11028546245083 a86.0,86.0 0 0,1 10.666146001902534,-42.60595125391555" fill="none" id="id82" stroke="none" /><text fill="#e1ed5e" style="font-size:6.75px; font-family:Arial;" text-anchor="middle"><textPath startOffset="22.20632615414155" xlink:href="#id82">October</textPath></text><path d="M 79.00486145842228 99.54816195383935 l -5.413919879136629 -0.11651340025287413 a26.415173481076046,26.415173481076046 0 0,0 0.01369602285090942,-0.45450432093620974 l 5.411112161830075 0.2096878686140783" fill="#ff3f05" stroke="none" /><path d="M 79.01574976396665 99.18683210126434 l -25.598078227754602 -0.9919599342363187 a46.617290908005366,46.617290908005366 0 0,0 0.037973982922156854,-0.8015707612478535 l 25.57721063659895 1.4324418021071812" fill="#beff1f" stroke="none" /><path d="M 79.21141760316559 97.0276538004421 l -5.727120893999862 -0.818862282128546 a26.78536508541877,26.78536508541877 0 0,0 0.0691880094266976,-0.4558625360205025 l 5.712176991133862 0.9173239305411399" fill="#ff4406" stroke="none" /><path d="M 79.26566170972629 96.67025291283419 l -14.795069005216567 -2.3759541893674148 a35.98463296778044,35.98463296778044 0 0,0 0.10347833327629873,-0.6107349805693196 l 14.751978810420045 2.630274958252563" fill="#ffbf11" stroke="none" /><path d="M 79.46518482838121 95.60439243477599 l -12.599634826559372 -2.6970318310548644 a33.88506028159632,33.88506028159632 0 0,0 0.1269973543302832,-0.5693042377839422 l 12.551343085227051 2.913514238388766" fill="#ffa40f" stroke="none" /><path d="M 79.81627453868168 94.20196356495316 l -2.666477192100411 -0.7659800933504071 a23.77431543257085,23.77431543257085 0 0,0 0.11637425841306769,-0.3923561466260618 l 2.6528970365756366 0.811765626723008" fill="#ff1902" stroke="none" /><path d="M 80.2630227832202 92.82701384747504 l -11.435029733738869 -4.155819254028739 a33.166788347121354,33.166788347121354 0 0,0 0.1996252314863727,-0.5348963729626122 l 11.361799913750868 4.3520387640206915" fill="#ff9b0e" stroke="none" /><path d="M 80.95270993114464 91.15688171328213 l -14.16843809643979 -6.578005247566764 a36.620972797161585,36.620972797161585 0 0,0 0.27037056027352463,-0.569469353025472 l 14.053109342324513 6.820917016232767" fill="#ffc712" stroke="none" /><path d="M 81.26839172434947 90.50648371742162 l -10.939450286511713 -5.54431033839506 a33.264214190052925,33.264214190052925 0 0,0 0.26324755293944163,-0.5085104822658004 l 10.842393300412157 5.731793542921196" fill="#ff9c0e" stroke="none" /><line stroke="#e1ed5e" stroke-width="0.3" x1="26.266209847984243" x2="21.928928074336255" y1="57.71137044288968" y2="55.22380399835378" /><path d="M 25.398753493254645 57.2138571539825 a86.0,86.0 0 0,1 29.58750427330803,-30.4925239686951" fill="none" id="id83" stroke="none" /><text fill="#e1ed5e" style="font-size:6.75px; font-family:Arial;" text-anchor="middle"><textPath startOffset="21.46611528233685" xlink:href="#id83">November</textPath></text><path d="M 82.34701348167596 88.62581576622439 l -7.435149866449753 -4.790620799429491 a29.844857329572605,29.844857329572605 0 0,0 0.2819676243547638,-0.4294560365790712 l 7.351585606737069 4.917894899986232" fill="#ff6e0a" stroke="none" /><path d="M 82.54541684631803 88.32363383020207 l -14.023869608148127 -9.381366213131038 a37.87243168044302,37.87243168044302 0 0,0 0.36713811979858635,-0.5387298883399122 l 13.8603070226808 9.621374124741365" fill="#ffd714" stroke="none" /><path d="M 83.17141714833178 87.43820079747577 l -7.293686732818176 -5.444417333970249 a30.10162327625812,30.10162327625812 0 0,0 0.3135213928013161,-0.4125574023619589 l 7.198889399792751 5.569159512213235" fill="#ff720a" stroke="none" /><path d="M 83.39014120810768 87.1503855733568 l -9.529281056935991 -7.371982440001968 a33.04795926942719,33.04795926942719 0 0,0 0.35195434453828767,-0.44694627604034665 l 9.400972631803734 7.53492110999536" fill="#ff990e" stroke="none" /><path d="M 84.31358615837235 86.03803664274999 l -12.07122655233147 -10.74420351919184 a37.16021100541471,37.16021100541471 0 0,0 0.4293886436435006,-0.47414166492266857 l 11.884494268071926 10.950397971384065" fill="#ffce13" stroke="none" /><path d="M 84.5562425177563 85.77008943001954 l -12.275155387641002 -11.310353947190334 a37.69142133556804,37.69142133556804 0 0,0 0.44374052550153775,-0.4733514536916368 l 12.078647540169007 11.519974817760025" fill="#ffd513" stroke="none" /><path d="M 84.80347519578584 85.50635884689758 l -4.401775933084437 -4.198180941526615 a27.082791676761474,27.082791676761474 0 0,0 0.32465269065355573,-0.33458313549567104 l 4.328858978727765 4.2733282725724075" fill="#ff4806" stroke="none" /><path d="M 85.31137513191541 84.99185889309783 l -2.0206858822966747 -2.06464111695898 a23.88892962474871,23.88892962474871 0 0,0 0.2963555456862153,-0.28509380014795027 l 1.9848470929980317 2.099118003869239" fill="#ff1b02" stroke="none" /><path d="M 85.57189188830299 84.74124197986013 l -7.941174035849072 -8.398360482938353 a32.55831751895681,32.55831751895681 0 0,0 0.4105326569487421,-0.3815453631686027 l 7.795433495105475 8.533810432181605" fill="#ff930d" stroke="none" /><path d="M 86.37877921826538 84.01681056812373 l -7.845313741232034 -9.205719346885518 a33.09521460710749,33.09521460710749 0 0,0 0.43676615671812374,-0.3657790955291889 l 7.685690047554799 9.339399599808521" fill="#ff9a0e" stroke="none" /><path d="M 88.70189139769569 82.29822771554957 l -10.078924082207887 -15.79156523058371 a39.733879552476324,39.733879552476324 0 0,0 0.579699985563187,-0.36300807777789046 l 9.805604944272458 15.962717649684532" fill="#ffee16" stroke="none" /><line stroke="#e1ed5e" stroke-width="0.3" x1="56.76296977257108" x2="54.21961505331056" y1="26.818313649435495" y2="22.513508569990535" /><path d="M 56.25429882871898 25.957352633546506 a86.0,86.0 0 0,1 42.26535254187918,-11.944610805530505" fill="none" id="id84" stroke="none" /><text fill="#e1ed5e" style="font-size:6.75px; font-family:Arial;" text-anchor="middle"><textPath startOffset="22.20632615414155" xlink:href="#id84">December</textPath></text><path d="M 89.94658935756843 81.56283822128135 l -7.965273219482717 -14.60768252511949 a37.638208022972,37.638208022972 0 0,0 0.5714823365677498,-0.30526607250784105 l 7.712645836386663 14.74262732412908" fill="#ffd413" stroke="none" /><path d="M 90.58718382345135 81.22770947309562 l -7.958540952176274 -15.87198136268069 a38.7555108759154,38.7555108759154 0 0,0 0.5989179448059297,-0.2938864344441912 l 7.68415174035992 16.00662295725971" fill="#ffe215" stroke="none" /><path d="M 91.23893434514133 80.91482961587045 l -5.408460009361309 -11.781829387064054 a33.96390926297877,33.96390926297877 0 0,0 0.533424028652493,-0.23933181271915235 l 5.204853862242041 11.873181530299735" fill="#ffa50f" stroke="none" /><path d="M 92.23578459929587 80.48803036053334 l -1.1957126859253877 -3.00490241720824 a24.234063599286017,24.234063599286017 0 0,0 0.38891844825847127,-0.15089431571366904 l 1.143811072667239 3.0250394368124605" fill="#ff2003" stroke="none" /><path d="M 92.57280143429618 80.3572730644239 l -7.831570452709952 -20.7121700757613 a43.14333951785551,43.14333951785551 0 0,0 0.6969039661738757,-0.25667561215634394 l 7.473884160763508 20.843908955723965" fill="#e6ff1a" stroke="none" /><path d="M 93.25333710446033 80.11325718540243 l -1.2897221959132117 -3.801638529970223 a25.014453743062106,25.014453743062106 0 0,0 0.4089472220102801,-0.1348234694698508 l 1.2240921516605223 3.8232757236993073" fill="#ff2b04" stroke="none" /><path d="M 95.33964822691252 79.52364482259891 l -3.8093052902684215 -16.737081641159822 a38.165101475299124,38.165101475299124 0 0,0 0.6418230128295751,-0.14027765131878853 l 3.5206395532853256 16.80017279057448" fill="#ffdb14" stroke="none" /><path d="M 96.04723909329186 79.375362276772 l -2.9106850259893546 -15.187314791941072 a36.463719407375144,36.463719407375144 0 0,0 0.6174607868570342,-0.11283701208809964 l 2.648829118029427 15.235167285379907" fill="#ffc512" stroke="none" /><path d="M 96.40284397218896 79.31037775812273 l -1.11675728559151 -6.423209389894822 a27.51956790756525,27.51956790756525 0 0,0 0.4674012443955306,-0.07712521017366307 l 1.0060268350570938 6.441480863008112" fill="#ff4e07" stroke="none" /><path d="M 96.75951476605007 79.25152402106235 l -0.16261341885605957 -1.0411961084220827 a22.05381803940972,22.05381803940972 0 0,0 0.37557759194643536,-0.05535037409462941 l 0.14466684648097483 1.043840966677681" fill="#ff0000" stroke="none" /><path d="M 97.11714578562143 79.19881850522333 l -2.3637730977926896 -17.055761257166175 a38.218780889461925,38.218780889461925 0 0,0 0.6524223830122609,-0.08470314996276214 l 2.0698359862725715 17.093922730293077" fill="#ffdb14" stroke="none" /><path d="M 97.47563105711357 79.15227682838746 l -2.248414519843408 -18.568729272644365 a39.70435977663503,39.70435977663503 0 0,0 0.6791965736950838,-0.0763156488306759 l 1.928451242638606 18.60468087494564" fill="#ffee16" stroke="none" /></svg>