<?xml version="1.0" encoding="utf-8" ?>
<svg baseProfile="full" height="200mm" version="1.1" viewBox="0,0,200,200" width="200mm" xmlns="http://www.w3.org/2000/svg" xmlns:ev="http://www.w3.org/2001/xml-events" xmlns:xlink="http://www.w3.org/1999/xlink"><defs /><rect fill="#1a1a1a" height="200" width="200" x="0" y="0" /><text alignment-baseline="middle" fill="#e1ed5e" style="dominant-baseline: central; font-size:9.0px; font-family:Arial;" text-anchor="middle" x="100.0" y="100.0">2023</text><line stroke="#e1ed5e" stroke-width="0.3" x1="100.0" x2="100.0" y1="15.0" y2="10.0" /><path d="M 100.0 14.0 a86.0,86.0 0 0,1 42.46469731375804,11.215312516191453" fill="none" id="id85" stroke="none" /><text fill="#e1ed5e" style="font-size:6.75px; font-family:Arial;" text-anchor="middle"><textPath startOffset="22.20632615414155" xlink:href="#id85">January</textPath></text><path d="M 100.0 79.0 l 0.0 -42.78689759099373 a63.78689759099373,63.78689759099373 0 0,0 1.0979865863095286,0.009450717195102761 l -0.7365061070370001 42.78055825040719" fill="#33ff55" stroke="none" /><path d="M 100.36148047927253 79.00311137660856 l 0.08442154603880554 -4.903694393563414 a25.904421036463003,25.904421036463003 0 0,0 0.44576989491788027,0.01151292123643527 l -0.16881807615155361 4.9015146801846186" fill="#ff2503" stroke="none" /><path d="M 101.44485096284872 79.0497635885617 l 3.421777156012953 -49.615525897833614 a70.73337882171299,70.73337882171299 0 0,0 1.2139525555664459,0.09422608224102082 l -4.27531990094174 49.549274553404125" fill="#3cffa5" stroke="none" /><path d="M 106.74666289553966 80.11325718540242 l 1.6473765156926112 -4.855875207288884 a26.127706447644833,26.127706447644833 0 0,0 0.4246598287206294,0.14815547582631242 l -1.7307183484765143 4.826798878290364" fill="#ff2803" stroke="none" /><path d="M 107.76421540070413 80.48803036053334 l 0.9941814426146657 -2.498441519623384 a23.68897875927226,23.68897875927226 0 0,0 0.3775753954145949,0.15402248414319272 l -1.037040707617648 2.4809581492966117" fill="#ff0400" stroke="none" /><path d="M 108.09893153111575 80.62456947434976 l 1.495274580607834 -3.577211221261753 a24.87714923531877,24.87714923531877 0 0,0 0.3936705119414603,0.16854916838767867 l -1.5566288503396095 3.5509425249112834" fill="#ff1602" stroke="none" /><path d="M 108.43124777332544 80.76684994638697 l 1.4844313169270058 -3.386247330207301 a24.69732434552471,24.69732434552471 0 0,0 0.38788662834189397,0.17403342351317966 l -1.5425000637356798 3.3601935761775903" fill="#ff1302" stroke="none" /><path d="M 109.41281617654863 81.2277094730956 l 14.217058486484754 -28.353549813414322 a52.71826822242815,52.71826822242815 0 0,0 0.8076928530023445,0.41373165026841113 l -14.703011827075855 28.104625637833408" fill="#82ff25" stroke="none" /><path d="M 109.73455568895987 81.39251694778311 l 9.643112110173124 -18.432689779994096 a41.802732120922634,41.802732120922634 0 0,0 0.6347146764479171,0.33904259859721775 l -9.958971833149352 18.263968454895124" fill="#fffc17" stroke="none" /><path d="M 110.05341064243156 81.56283822128135 l 14.379419344051284 -26.370720361442242 a51.03635452336819,51.03635452336819 0 0,0 0.767674046452928,0.42720977570799956 l -14.831217479576248 26.11929518817406" fill="#95ff23" stroke="none" /><line stroke="#e1ed5e" stroke-width="0.3" x1="143.23703022742887" x2="145.7803849466894" y1="26.81831364943548" y2="22.513508569990506" /><path d="M 143.74570117128098 25.957352633546492 a86.0,86.0 0 0,1 28.547481713284135,27.462654790039103" fill="none" id="id86" stroke="none" /><text fill="#e1ed5e" style="font-size:6.75px; font-family:Arial;" text-anchor="middle"><textPath startOffset="19.985693538727396" xlink:href="#id86">February</textPath></text><path d="M 110.68208982089419 81.91981866633111 l 18.637304886450043 -31.54493713943351 a57.63921659317113,57.63921659317113 0 0,0 0.8498708538449319,0.5120376801716836 l -19.177537806512614 31.219452849803215" fill="#4eff2b" stroke="none" /><path d="M 113.06298171725822 83.55741782278167 l 1.9116070646272252 -2.406170117283257 a24.07309228674305,24.07309228674305 0 0,0 0.3222316394212778,0.26055557603688867 l -1.952742102612994 2.372908443982241" fill="#ff0a01" stroke="none" /><path d="M 115.4437574822437 85.77008943001952 l 26.30241065724654 -24.235096404346237 a56.7653002798857,56.7653002798857 0 0,0 0.655926719297838,0.7242906661810758 l -26.715681017160414 23.778752950895615" fill="#57ff2a" stroke="none" /><path d="M 115.68641384162765 86.03803664274999 l 4.921476588790788 -4.380445173128934 a27.58856826092015,27.58856826092015 0 0,0 0.31268112944461574,0.35744858335378416 l -4.996149581813252 4.2950810335722025" fill="#ff3d05" stroke="none" /><path d="M 116.38621287248628 86.86637796730983 l 35.38559215195139 -28.36170848890858 a66.3489431007391,66.3489431007391 0 0,0 0.7066033514944554,0.8973144997041421 l -35.86854958403981 27.7484015952514" fill="#37ff74" stroke="none" /><path d="M 116.60985879189232 87.15038557335679 l 4.468296184275822 -3.4567351734508134 a26.64930870547768,26.64930870547768 0 0,0 0.27756404715633104,0.36524175036584017 l -4.527136171656267 3.379308647203942" fill="#ff3004" stroke="none" /><path d="M 116.82858285166822 87.43820079747576 l 17.390934801427417 -12.981570275126646 a42.70174601444665,42.70174601444665 0 0,0 0.4346171254397378,0.5928172706672481 l -17.61181453938078 12.680290560787903" fill="#f7ff19" stroke="none" /><line stroke="#e1ed5e" stroke-width="0.3" x1="172.23445277983987" x2="176.4835382374775" y1="55.19839476539836" y2="52.563006222186495" /><path d="M 173.08426987136738 54.67131705675599 a86.0,86.0 0 0,1 12.851231095245387,41.99856678651699" fill="none" id="id87" stroke="none" /><text fill="#e1ed5e" style="font-size:6.75px; font-family:Arial;" text-anchor="middle"><textPath startOffset="22.20632615414155" xlink:href="#id87">March</textPath></text><path d="M 118.3937258080291 89.86733742301442 l 19.8464203553116 -10.932917176225896 a43.658532143586484,43.658532143586484 0 0,0 0.3569436366221007,0.6613623483174274 l -20.031672091152167 10.589673844576009" fill="#ebff1a" stroke="none" /><path d="M 118.89224826269711 90.83032412892265 l 38.256558565395125 -18.568475128511764 a63.52472859249859,63.52472859249859 0 0,0 0.46899945984253405,0.987832472202697 l -38.570516219079416 17.907200240668526" fill="#33ff52" stroke="none" /><path d="M 119.196687751892 91.48605970444005 l 11.535464619666191 -5.116104315636553 a33.61909138409123,33.61909138409123 0 0,0 0.2300655123115142,0.531022922396392 l -11.621820841820387 4.916782248653558" fill="#ff920d" stroke="none" /><path d="M 119.61058180528143 92.48833698450437 l 23.13461977593198 -8.861515149011067 a45.773717583622684,45.773717583622684 0 0,0 0.2755041842758277,0.7382142417965037 l -23.283728548709433 8.46197777018523" fill="#d2ff1c" stroke="none" /><path d="M 119.85752413597 93.16781622104841 l 24.835165586696785 -8.544792105358704 a47.264023336923245,47.264023336923245 0 0,0 0.25806765824027783,0.7715894506668921 l -24.978570538708833 8.116029551769499" fill="#c0ff1e" stroke="none" /><path d="M 120.08093135843002 93.85539295169968 l 6.318892070006011 -1.933531271920224 a27.6080965619366,27.6080965619366 0 0,0 0.13514045326370328,0.45562642648720886 l -6.351238420381416 1.8244754586864853" fill="#ff3e05" stroke="none" /><path d="M 120.37134235888165 94.90015583598534 l 36.910115259769974 -9.240227403010456 a59.04915782180795,59.04915782180795 0 0,0 0.23835389311959956,0.9881307674598956 l -37.06370195315039 8.603511403891154" fill="#3fff2d" stroke="none" /><path d="M 120.53481517161879 95.60439243477599 l 30.14565014643188 -6.452867811802498 a51.828553740771966,51.828553740771966 0 0,0 0.17922981258868007,0.8739882183547739 l -30.252259254935556 5.933003937284313" fill="#8cff24" stroke="none" /><path d="M 120.91429891909075 98.10471618934814 l 6.385584264284119 -0.5786708186810756 a27.41175064336301,27.41175064336301 0 0,0 0.038540289864599515,0.47028915532260357 l -6.394599037968213 0.468667746150703" fill="#ff3b05" stroke="none" /><path d="M 120.98425023603335 99.18683210126433 l 41.78335814653351 -1.6191612835321947 a62.814718715586,62.814718715586 0 0,0 0.03256885000276242,1.0808015739544208 l -41.80503869099192 0.8996895621527747" fill="#32ff4a" stroke="none" /><line stroke="#e1ed5e" stroke-width="0.3" x1="184.98032266829074" x2="189.97916517819016" y1="98.17113171792111" y2="98.06355123074" /><path d="M 185.9800911702706 98.14961562048488 a86.0,86.0 0 0,1 -9.607161424134198,41.387399972396054" fill="none" id="id88" stroke="none" /><text fill="#e1ed5e" style="font-size:6.75px; font-family:Arial;" text-anchor="middle"><textPath startOffset="21.466115282336823" xlink:href="#id88">April</textPath></text><path d="M 120.99513854157772 99.54816195383933 l 9.66345642304881 -0.20796801415252836 a30.665694012075587,30.665694012075587 0 0,0 0.0068150750326033144,0.5278350717513193 l -9.665604505199129 0.04159668434074639" fill="#ff6909" stroke="none" /><path d="M 120.99980553446 99.90962569577887 l 8.273836352563817 -0.03560710133126838 a29.27391297118067,29.27391297118067 0 0,0 -0.002168643131243746,0.503916289284382 l -8.273223412143071 -0.10681866615679839" fill="#ff5507" stroke="none" /><path d="M 120.9904718944345 100.63252640178507 l 43.71133598075299 1.3171964024522393 a64.73117766062222,64.73117766062222 0 0,0 -0.043147544060883496,1.113446390409306 l -43.6821863038409 -2.0694200398755513" fill="#35ff61" stroke="none" /><path d="M 120.89721153311464 102.0752229133903 l 36.8145583899756 3.655914330778447 a57.995640541054485,57.995640541054485 0 0,0 -0.10720272803695358,0.9925641202429764 l -36.746173360437595 -4.289074772906214" fill="#4aff2c" stroke="none" /><path d="M 120.8583938346157 102.4346265915055 l 9.506216484103684 1.1095814769015384 a30.570753517697945,30.570753517697945 0 0,0 -0.0655065604515722,0.5221517392787814 l -9.485708414405263 -1.273050970467715" fill="#ff6809" stroke="none" /><path d="M 120.76222939487914 103.15116336523771 l 27.122519094242193 4.11648898185356 a48.43312821307942,48.43312821307942 0 0,0 -0.13219533047469037,0.823180449056194 l -27.047642009406214 -4.582748660602959" fill="#b2ff20" stroke="none" /><path d="M 120.5718875245553 104.21870165774334 l 31.454826988221505 6.450479111401251 a53.109419515549824,53.109419515549824 0 0,0 -0.19136072763956666,0.8939736122655277 l -31.339132221857497 -6.990966543082948" fill="#7eff26" stroke="none" /><path d="M 120.32669344350535 105.2749913415812 l 26.209780091196894 6.801714377701006 a48.077959504082386,48.077959504082386 0 0,0 -0.21477551745905252,0.7992595989187611 l -26.088816497396063 -7.251864909795315" fill="#b6ff1f" stroke="none" /><path d="M 120.23288151984713 105.62410040840565 l 38.22960496262526 10.62661967711222 a60.67905922977976,60.67905922977976 0 0,0 -0.2883912808550719,1.003927882038175 l -38.04102104488409 -11.283105034654978" fill="#2fff30" stroke="none" /><path d="M 120.02730092923936 106.31721596034902 l 11.48293677626061 3.6220652863294913 a33.04064757170608,33.04064757170608 0 0,0 -0.17575696977146626,0.5409243324094543 l -11.418887555472898 -3.8191885187167407" fill="#ff8a0c" stroke="none" /><path d="M 119.9155931802556 106.66101706037122 l 47.49676603217021 15.88588228275336 a71.08297155137876,71.08297155137876 0 0,0 -0.39809567705922005,1.157052381989903 l -47.21627952416775 -16.701107367832563" fill="#3dffa9" stroke="none" /><path d="M 119.67450827220406 107.3425965602758 l 34.95589480591375 13.045664441122591 a58.31090916062591,58.31090916062591 0 0,0 -0.359044481741539,0.9373518442457421 l -34.72615604457871 -13.645439852201477" fill="#47ff2c" stroke="none" /><path d="M 119.54520255179757 107.68017299344265 l 2.2426672660706823 0.8812429814686068 a23.40959450088446,23.40959450088446 0 0,0 -0.1505988103982889,0.3737738968899979 l -2.2271658414150033 -0.9197162462014182" fill="#ff0000" stroke="none" /><path d="M 118.97047184881838 109.00673069616215 l 5.6316332089374415 2.673766055830731 a27.23412524106788,27.23412524106788 0 0,0 -0.20470561801188447,0.42175420490572046 l -5.5847743343108425 -2.770309216701727" fill="#ff3805" stroke="none" /><path d="M 118.81262510543309 109.33194174019688 l 22.07120602434581 10.948350248875904 a45.63746148736066,45.63746148736066 0 0,0 -0.35514926970678073,0.7007432021514256 l -21.87947808485276 -11.326647662730025" fill="#d3ff1c" stroke="none" /><line stroke="#e1ed5e" stroke-width="0.3" x1="174.80103733775053" x2="179.2010983576182" y1="140.37084112569926" y2="142.7455964860345" /><path d="M 175.68104954172406 140.8457921977663 a86.0,86.0 0 0,1 -30.038265399797805,32.042727171017184" fill="none" id="id89" stroke="none" /><text fill="#e1ed5e" style="font-size:6.75px; font-family:Arial;" text-anchor="middle"><textPath startOffset="22.206326154141568" xlink:href="#id89">May</textPath></text><path d="M 118.48025628344425 109.97397251340804 l 23.094306962081863 12.464220155992486 a47.243166694511395,47.243166694511395 0 0,0 -0.3923963220827398,0.7123133037966272 l -22.876334230547613 -12.859903978186919" fill="#c0ff1e" stroke="none" /><path d="M 118.30583269289576 110.29060199501023 l 22.66023904232006 12.738426326096855 a46.99526762163613,46.99526762163613 0 0,0 -0.40247643200171274,0.701751584034397 l -22.43761061416597 -13.126597755989568" fill="#c3ff1e" stroke="none" /><path d="M 116.93607887273984 112.41649034213513 l 37.984823573445404 27.848134068774122 a68.09952646278083,68.09952646278083 0 0,0 -0.7012264448083783,0.9394074156086754 l -37.49983586194194 -28.497854363892113" fill="#39ff88" stroke="none" /><path d="M 116.0416608686014 113.55231037782055 l 5.043566161078781 4.260903816998085 a27.602488997256096,27.602488997256096 0 0,0 -0.30974920412826185,0.3603083025852278 l -4.969474447379738 -4.347089218744844" fill="#ff3e05" stroke="none" /><path d="M 115.32070863581623 114.36230785411682 l 20.95230084724019 19.641610722669036 a49.71918840382035,49.71918840382035 0 0,0 -0.5906957989289644,0.6193421836063304 l -20.611098496932264 -19.999360022857875" fill="#a4ff21" stroke="none" /><path d="M 114.55890576462653 115.13401014063108 l 4.937865086631796 5.132920117920054 a28.122456075731577,28.122456075731577 0 0,0 -0.35175054571491415,0.332602096135521 l -4.848778706526074 -5.217156850801496" fill="#ff4506" stroke="none" /><path d="M 113.48314897796784 116.09983520530334 l 5.596447338851129 6.68255464935474 a29.716464848672686,29.716464848672686 0 0,0 -0.3949882387293434,0.3250484298118665 l -5.480588971577094 -6.777898198023785" fill="#ff5c08" stroke="none" /><path d="M 113.20401910651253 116.32954008644616 l 22.707125054915956 28.08212452898606 a57.113975775606214,57.113975775606214 0 0,0 -0.7697944240194312,0.6115712470603152 l -22.220373138179173 -28.4688296900515" fill="#53ff2b" stroke="none" /><path d="M 112.04921762599082 117.19931262002967 l 13.748077572087258 19.62430187804854 a44.960861026451205,44.960861026451205 0 0,0 -0.6376801389598008,0.43860221425449986 l -13.408240548504574 -19.858044881668135" fill="#dbff1b" stroke="none" /><path d="M 111.7513745106137 117.40417183066458 l 21.581888822312266 31.963486582320293 a59.567374808726825,59.567374808726825 0 0,0 -0.8547217695004324,0.5664629822713283 l -21.02849235407187 -32.33024758568294" fill="#3aff2e" stroke="none" /><path d="M 111.1453310114006 117.79835938074945 l 3.423829274106029 5.467629791931292 a27.451169075434315,27.451169075434315 0 0,0 -0.4026443362575592,0.24733703752934955 l -3.329205737916161 -5.525755296289019" fill="#ff3b05" stroke="none" /><line stroke="#e1ed5e" stroke-width="0.3" x1="143.8653032363475" x2="146.44561519142675" y1="172.8068346515853" y2="177.08958963109032" /><path d="M 144.38136562736335 173.6633856474863 a86.0,86.0 0 0,1 -40.68145358897372,12.25698825130547" fill="none" id="id90" stroke="none" /><text fill="#e1ed5e" style="font-size:6.75px; font-family:Arial;" text-anchor="middle"><textPath startOffset="21.466115282336833" xlink:href="#id90">June</textPath></text><path d="M 109.89434966115114 118.52300852407294 l 10.547813078638896 19.746343949524963 a43.38692609794491,43.38692609794491 0 0,0 -0.6617727209801127,0.34620821030644094 l -10.206349455132287 -19.92498157877612" fill="#eeff19" stroke="none" /><path d="M 109.57404056367764 118.69057910512821 l 15.823178859714622 30.890236385053033 a55.707055380008455,55.707055380008455 0 0,0 -0.8572151076452279,0.4298254504670404 l -15.289109844386633 -31.158029676429376" fill="#62ff29" stroke="none" /><path d="M 106.2309692047433 120.05430185196036 l 4.291154070166423 13.811029422337022 a35.46231437075563,35.46231437075563 0 0,0 -0.5844949746659919,0.17610354118147495 l -4.052784121060185 -13.882848332624222" fill="#ffaa0f" stroke="none" /><path d="M 105.18746579009965 120.34920634021253 l 1.5708384253424916 6.162029117461383 a27.359098694231314,27.359098694231314 0 0,0 -0.4573486537617248,0.11240517185716876 l -1.4645364868375563 -6.188155547632582" fill="#ff3a05" stroke="none" /><path d="M 104.48393922423573 120.51570834832081 l 1.5182324793939377 6.946484596365826 a28.110462580524164,28.110462580524164 0 0,0 -0.4736057944837814,0.09924869901696316 l -1.3984352234807782 -6.97158927610933" fill="#ff4506" stroke="none" /><path d="M 104.13013068566511 120.58985236759428 l 1.3088002009920172 6.524733711365287 a27.654705701257072,27.654705701257072 0 0,0 -0.46753886349689533,0.08960493594105345 l -1.196293722923418 -6.546295845654808" fill="#ff3e05" stroke="none" /><path d="M 101.98527174616119 120.90594882070398 l 3.0490911362022186 32.10852285908175 a53.2529719087876,53.2529719087876 0 0,0 -0.9133028776238047,0.0788036152594718 l -2.495943940836872 -32.15625072661989" fill="#7cff26" stroke="none" /><line stroke="#e1ed5e" stroke-width="0.3" x1="102.19456741930631" x2="102.32365962044197" y1="184.97166512339345" y2="189.96999836594603" /><path d="M 102.22038585953345 185.97133177190398 a86.0,86.0 0 0,1 -42.740103519485714,-10.115201625700543" fill="none" id="id91" stroke="none" /><text fill="#e1ed5e" style="font-size:6.75px; font-family:Arial;" text-anchor="middle"><textPath startOffset="22.20632615414155" xlink:href="#id91">July</textPath></text><path d="M 100.18074693466247 120.99922214144158 l 0.11801290680226763 13.710767765583164 a34.71127564335012,34.71127564335012 0 0,0 -0.5975196829294367,0.0 l 0.11801290680225816 -13.710767765583164" fill="#ffa00e" stroke="none" /><path d="M 99.81925306533755 120.99922214144158 l -0.066177675951648 7.688538235562735 a28.68882303636288,28.68882303636288 0 0,0 -0.49377605213701764,-0.008500802532282655 l 0.19851341798133362 -7.686259955751293" fill="#ff4d07" stroke="none" /><path d="M 99.45781275523022 120.99299961872073 l -0.2068216742050233 8.007948120529514 a29.010618472128925,29.010618472128925 0 0,0 -0.4990926685386591,-0.017189760639637494 l 0.34463469441832545 -8.003201561463783" fill="#ff5207" stroke="none" /><path d="M 99.09653310690486 120.98055641714683 l -0.7023806445821792 16.310876306141076 a37.32599229584891,37.32599229584891 0 0,0 -0.6416727893860784,-0.033167153763481144 l 0.9830415023817466 -16.296369345615393" fill="#ffc312" stroke="none" /><path d="M 98.73552117531835 120.96189622390904 l -1.0075085937338295 16.701972523630168 a37.73233276463699,37.73233276463699 0 0,0 -0.6479849675052098,-0.04468883719613984 l 1.2948563220179694 -16.682155341917746" fill="#ffc812" stroke="none" /><path d="M 98.37488393609728 120.93702456842531 l -0.5914943297784274 7.620459602691204 a28.643380802917555,28.643380802917555 0 0,0 -0.49124173120302855,-0.042386403605601974 l 0.7225803787229976 -7.609148946806938" fill="#ff4c07" stroke="none" /><path d="M 98.01472825383883 120.90594882070398 l -2.573851399095688 27.104000107612098 a48.22593493083504,48.22593493083504 0 0,0 -0.825736866635617,-0.0855910024611243 l 3.0400208623368985 -27.055679736695215" fill="#b5ff20" stroke="none" /><path d="M 97.2962882734958 120.8252237178851 l -1.0858655490137155 8.3638328613506 a29.434026566423835,29.434026566423835 0 0,0 -0.5018801599849353,-0.06955601703147588 l 1.2296743001854813 -8.34390227882652" fill="#ff5808" stroke="none" /><path d="M 96.58105272829116 120.7198165907248 l -1.8564120920378784 11.250398150949948 a32.402531491312025,32.402531491312025 0 0,0 -0.5495330913114328,-0.09554337187904297 l 2.0497941548213605 -11.216776200549898" fill="#ff810b" stroke="none" /><path d="M 95.86986931433489 120.58985236759428 l -7.79307718058007 38.85066135905379 a60.62456233169463,60.62456233169463 0 0,0 -1.0214041809552328,-0.21404517704600817 l 8.46067282296469 -38.71076020128124" fill="#30ff2f" stroke="none" /><path d="M 95.16358092515715 120.4354850818985 l -7.115915176181102 30.06711705015535 a51.897698563199604,51.897698563199604 0 0,0 -0.8675484099999153,-0.21322229183003036 l 7.632416870924228 -29.940173500011287" fill="#8bff24" stroke="none" /><path d="M 94.46302465271185 120.25689768951611 l -10.541461867827024 38.565697183226895 a60.980437935810635,60.980437935810635 0 0,0 -1.0101520815809268,-0.28547906839118814 l 11.203745117512566 -38.37852932149719" fill="#30ff33" stroke="none" /><path d="M 93.42475214034765 119.94407469862007 l -8.80095720181685 26.69510740872269 a49.10846148816141,49.10846148816141 0 0,0 -0.8005387017278217,-0.2715861921554106 l 9.259165636481898 -26.539658229669158" fill="#abff21" stroke="none" /><path d="M 92.7421414339146 119.70592522655815 l -21.773575698256195 59.117775679674445 a84.0,84.0 0 0,0 -1.3525191169588682,-0.5114069995734671 l 22.787965035975347 -58.734220429994345" fill="#4dd2ff" stroke="none" /><path d="M 92.06813273071674 119.44442032107085 l -14.694602076455988 36.022793817036444 a59.90466558871961,59.90466558871961 0 0,0 -0.951424556338015,-0.3976955417121065 l 15.312498092291463 -35.76451323230437" fill="#37ff2e" stroke="none" /><path d="M 91.7346041902142 119.30500536409082 l -9.584696865471818 22.38642028274665 a45.351965569102546,45.351965569102546 0 0,0 -0.715004674455413,-0.3134370372307772 l 9.968622214584975 -22.21811869222142" fill="#d7ff1c" stroke="none" /><path d="M 91.07499286063937 119.00905698771935 l -10.09831071997884 21.5080347789533 a44.76071209896505,44.76071209896505 0 0,0 -0.6946166211590955,-0.3334581899389228 l 10.467040009138177 -21.33102231251481" fill="#deff1b" stroke="none" /><path d="M 90.7491055286396 118.85261126421891 l -12.565306598933695 25.607128203526667 a49.52388376005374,49.52388376005374 0 0,0 -0.7620690244492677,-0.382117229152298 l 13.004229531065722 -25.387043133465067" fill="#a6ff21" stroke="none" /><path d="M 90.10565033884886 118.52300852407294 l -15.96782205066039 29.89303128396325 a54.890480379976346,54.890480379976346 0 0,0 -0.8295707770560182,-0.4523481313881937 l 16.480015639585048 -29.613742500815288" fill="#6bff28" stroke="none" /><line stroke="#e1ed5e" stroke-width="0.3" x1="58.666819895761336" x2="56.23545636021788" y1="174.27360380694188" y2="178.64263932499728" /><path d="M 58.180547188652646 175.14741091055294 a86.0,86.0 0 0,1 -31.652253787137756,-30.449443065178592" fill="none" id="id92" stroke="none" /><text fill="#e1ed5e" style="font-size:6.75px; font-family:Arial;" text-anchor="middle"><textPath startOffset="22.20632615414155" xlink:href="#id92">August</textPath></text><path d="M 89.4739219176387 118.17145234162733 l -17.67648827029972 30.515398200336197 a56.26539046849085,56.26539046849085 0 0,0 -0.8338855839489421,-0.4926743014188455 l 18.199141725277045 -30.2066053266236" fill="#5cff2a" stroke="none" /><path d="M 88.8546689885994 117.79835938074946 l -8.141403229545794 13.001284609207918 a36.340008084603,36.340008084603 0 0,0 -0.5273077036733551,-0.33655272518483753 l 8.363992735266072 -12.859217455199277" fill="#ffb610" stroke="none" /><path d="M 87.65650970185807 116.9893568818739 l -8.963083925467442 12.336626666679186 a36.24890917305211,36.24890917305211 0 0,0 -0.501641800553396,-0.37110261148771095 l 9.174110696439403 -12.180514106451705" fill="#ffb510" stroke="none" /><path d="M 87.36589467227662 116.77436683061367 l -19.211450407749254 25.50714182986781 a52.93264960973958,52.93264960973958 0 0,0 -0.7230884046549874,-0.5544333546180806 l 19.64766754089773 -25.17266913342236" fill="#80ff26" stroke="none" /><path d="M 86.79598089348748 116.32954008644616 l -18.31151950340439 22.64603598059775 a50.12309551126197,50.12309551126197 0 0,0 -0.6662311050952782,-0.5482628427106957 l 18.698620737044358 -22.327478019029872" fill="#9fff22" stroke="none" /><path d="M 86.24171649860922 115.8653595955263 l -36.98753738461738 42.65216522835914 a77.45604591578936,77.45604591578936 0 0,0 -0.9997644551949129,-0.8821758910895161 l 37.71624419271888 -42.00916619549733" fill="#45ffed" stroke="none" /><path d="M 85.70375840098266 115.38237550388516 l -10.095247735094139 10.862217904644124 a35.829086439861854,35.829086439861854 0 0,0 -0.4481436711555052,-0.42374781279513424 l 10.280727240640461 -10.686835455103061" fill="#ffaf10" stroke="none" /><path d="M 85.18274418774928 114.88116024355367 l -30.59885627199774 30.730824197324747 a64.36673334482614,64.36673334482614 0 0,0 -0.7784064460699553,-0.788521620208005 l 31.12330334312323 -30.199562083136076" fill="#34ff5c" stroke="none" /><line stroke="#e1ed5e" stroke-width="0.3" x1="26.63291911575756" x2="22.317208475507996" y1="142.92168965132927" y2="145.44649492493687" /><path d="M 25.769776987707644 143.4266507060508 a86.0,86.0 0 0,1 -11.730757126820373,-40.83630448921669" fill="none" id="id93" stroke="none" /><text fill="#e1ed5e" style="font-size:6.75px; font-family:Arial;" text-anchor="middle"><textPath startOffset="21.46611528233685" xlink:href="#id93">September</textPath></text><line stroke="#e1ed5e" stroke-width="0.3" x1="15.007084014347285" x2="10.007500721073583" y1="101.09737516637583" y2="101.16192664675087" /><path d="M 14.007167355692545 101.11028546245083 a86.0,86.0 0 0,1 10.666146001902534,-42.60595125391555" fill="none" id="id94" stroke="none" /><text fill="#e1ed5e" style="font-size:6.75px; font-family:Arial;" text-anchor="middle"><textPath startOffset="22.20632615414155" xlink:href="#id94">October</textPath></text><line stroke="#e1ed5e" stroke-width="0.3" x1="26.266209847984243" x2="21.928928074336255" y1="57.71137044288968" y2="55.22380399835378" /><path d="M 25.398753493254645 57.2138571539825 a86.0,86.0 0 0,1 29.58750427330803,-30.4925239686951" fill="none" id="id95" stroke="none" /><text fill="#e1ed5e" style="font-size:6.75px; font-family:Arial;" text-anchor="middle"><textPath startOffset="21.46611528233685" xlink:href="#id95">November</textPath></text><line stroke="#e1ed5e" stroke-width="0.3" x1="56.76296977257108" x2="54.21961505331056" y1="26.818313649435495" y2="22.513508569990535" /><path d="M 56.25429882871898 25.957352633546506 a86.0,86.0 0 0,1 42.26535254187918,-11.944610805530505" fill="none" id="id96" stroke="none" /><text fill="#e1ed5e" style="font-size:6.75px; font-family:Arial;" text-anchor="middle"><textPath startOffset="22.20632615414155" xlink:href="#id96">December</textPath></text></svg>