<?xml version="1.0" encoding="utf-8" ?>
<svg baseProfile="full" height="200mm" version="1.1" viewBox="0,0,200,200" width="200mm" xmlns="http://www.w3.org/2000/svg" xmlns:ev="http://www.w3.org/2001/xml-events" xmlns:xlink="http://www.w3.org/1999/xlink"><defs /><rect fill="#1a1a1a" height="200" width="200" x="0" y="0" /><text alignment-baseline="middle" fill="#e1ed5e" style="dominant-baseline: central; font-size:9.0px; font-family:Arial;" text-anchor="middle" x="100.0" y="100.0">2021</text><line stroke="#e1ed5e" stroke-width="0.3" x1="100.0" x2="100.0" y1="15.0" y2="10.0" /><path d="M 100.0 14.0 a86.0,86.0 0 0,1 42.46469731375804,11.215312516191453" fill="none" id="id61" stroke="none" /><text fill="#e1ed5e" style="font-size:6.75px; font-family:Arial;" text-anchor="middle"><textPath startOffset="22.20632615414155" xlink:href="#id61">January</textPath></text><path d="M 100.0 79.0 l 0.0 -6.158908684125816 a27.158908684125816,27.158908684125816 0 0,0 0.4674959679836492,0.0040238853901797805 l -0.1060154887111208 6.157996175344195" fill="#ff4d07" stroke="none" /><path d="M 100.36148047927253 79.00311137660856 l 0.1786863381773196 -10.379141769374018 a31.3806797791,31.3806797791 0 0,0 0.5400067543640829,0.013946781290113905 l -0.35731972773627024 10.374528195941544" fill="#ff860c" stroke="none" /><path d="M 100.72285384407766 79.0124445844662 l 0.6450112152627019 -18.727449172300965 a39.73855362531833,39.73855362531833 0 0,0 0.6834258547319944,0.02942975492923344 l -0.9672779023840277 18.713571690847537" fill="#fff116" stroke="none" /><path d="M 101.08401301168833 79.027996857942 l 0.5176967349224363 -10.015689326935956 a31.02905990624486,31.02905990624486 0 0,0 0.5331648763334447,0.032161961350554234 l -0.690023660095493 10.005294096205098" fill="#ff820b" stroke="none" /><path d="M 101.44485096284872 79.0497635885617 l 0.6040954911524794 -8.759341745376624 a29.780148015536433,29.780148015536433 0 0,0 0.511097976525759,0.03967103965349287 l -0.7547836570405795 8.747645443534667" fill="#ff710a" stroke="none" /><path d="M 101.80526077348638 79.07773832637324 l 0.8542193170854281 -9.900065597843092 a30.936850078534857,30.936850078534857 0 0,0 0.5301616662019476,0.05034523837378547 l -1.02450611037762 9.883894814954129" fill="#ff810b" stroke="none" /><path d="M 102.16513564639614 79.11191278185805 l 0.971072354212719 -9.368394106708353 a30.418587455437468,30.418587455437468 0 0,0 0.5203509260092628,0.05846748949570839 l -1.132189983731707 9.350290663742044" fill="#ff7a0b" stroke="none" /><path d="M 102.52436894288641 79.15227682838746 l 1.023669494228558 -8.454064646548748 a29.51581518596074,29.51581518596074 0 0,0 0.5038564295357797,0.06541502533009767 l -1.169040652272184 8.435191298054514" fill="#ff6d0a" stroke="none" /><path d="M 102.88285421437855 79.19881850522331 l 0.5516409483701814 -3.9803551042460277 a25.018399493805482,25.018399493805482 0 0,0 0.4260645580482313,0.06279084051371292 l -0.6200744868470685 3.9702697795713457" fill="#ff2f04" stroke="none" /><path d="M 103.2404852339499 79.25152402106235 l 0.6091292083702236 -3.9001883469573837 a24.9474684969271,24.9474684969271 0 0,0 0.4237158758868758,0.06991675005905451 l -0.6761742903959745 3.8891253339587046" fill="#ff2e04" stroke="none" /><path d="M 103.59715602781102 79.31037775812273 l 1.7447365859667767 -10.035133476598695 a31.18567669070459,31.18567669070459 0 0,0 0.5280847039486711,0.09650410421413957 l -1.9172164110183487 10.003613891033815" fill="#ff840c" stroke="none" /><path d="M 103.95276090670814 79.375362276772 l 1.8741676206113194 -9.778994763410545 a30.956969561716996,30.956969561716996 0 0,0 0.5224852320845841,0.10480562227030268 l -2.042219262163029 9.745285185063034" fill="#ff810b" stroke="none" /><path d="M 104.307194497241 79.44645832069477 l 3.5840199896676097 -17.10261848734306 a38.4741168134457,38.4741168134457 0 0,0 0.6470197278302596,0.14141345193717741 l -3.8778824416513964 17.038391537310012" fill="#ffe215" stroke="none" /><path d="M 104.66035177308747 79.52364482259891 l 2.155746255738481 -9.471779847127243 a30.714003057008796,30.714003057008796 0 0,0 0.5144980359055389,0.12176506233399234 l -2.3184679786065443 9.43326887265238" fill="#ff7e0b" stroke="none" /><path d="M 105.01212808612495 79.60689891045804 l 2.0172707045394356 -8.20777216698182 a29.45203555603468,29.45203555603468 0 0,0 0.4912755364481688,0.12523707294675568 l -2.158255129672629 8.171832097866197" fill="#ff6d0a" stroke="none" /><path d="M 105.36241919743992 79.69619591428918 l 2.014360701914525 -7.62700257920029 a28.888524410848042,28.888524410848042 0 0,0 0.47968997329881274,0.13111739009628498 l -2.145348564437049 7.591198648277711" fill="#ff6509" stroke="none" /><path d="M 105.71112130821622 79.79150937346287 l 3.218677041129659 -11.389112803810265 a32.83519211305884,32.83519211305884 0 0,0 0.5425777555315233,0.1583933253013461 l -3.4142450143846093 11.332021149590217" fill="#ff9a0e" stroke="none" /><path d="M 106.0581310904928 79.89281104454417 l 2.543640640148993 -8.442449036224481 a29.817315545871388,29.817315545871388 0 0,0 0.4901606415683285,0.15229529731502323 l -2.6885866544280397 8.397413604026937" fill="#ff710a" stroke="none" /><path d="M 106.40334571778207 80.00007090966166 l 3.1896435172123216 -9.962392627115518 a31.460549346172037,31.460549346172037 0 0,0 0.5143308101062354,0.1695667815834159 l -3.3606571495609745 9.906012121272866" fill="#ff880c" stroke="none" /><path d="M 106.74666289553966 80.11325718540242 l 2.918852853815147 -8.603731491586995 a30.085367222162823,30.085367222162823 0 0,0 0.48898463082329,0.17059713622933254 l -3.0665194887017106 8.552213502185456" fill="#ff750a" stroke="none" /><path d="M 107.08798089147638 80.2323363322302 l 3.577178647323012 -9.976390380064927 a31.5983287404343,31.5983287404343 0 0,0 0.5104148373716036,0.18799009217196921 l -3.748375810467192 9.913337020086633" fill="#ff890c" stroke="none" /><path d="M 107.4271985657038 80.35727306442388 l 3.3088353919531466 -8.750883594122238 a30.355552112458113,30.355552112458113 0 0,0 0.48715867131563356,0.1890099960064106 l -3.4589772282684472 8.69263089422528" fill="#ff790b" stroke="none" /><path d="M 107.76421540070413 80.48803036053334 l 1.090072203220124 -2.739421130965618 a23.948336063106463,23.948336063106463 0 0,0 0.3817092560399936,0.15570878968735172 l -1.137065328848505 2.720251455094687" fill="#ff2003" stroke="none" /><path d="M 108.09893153111575 80.62456947434976 l 0.5401767928702024 -1.2922887274222081 a22.400643110352544,22.400643110352544 0 0,0 0.35448083531012486,0.15177019407990558 l -0.5623413859706425 1.2827990053795117" fill="#ff0a01" stroke="none" /><path d="M 108.43124777332544 80.76684994638697 l 4.21345740784694 -9.611632909901395 a31.494603876394756,31.494603876394756 0 0,0 0.49464207286859285,0.2219314796257938 l -4.378281599182313 9.537681099759071" fill="#ff880c" stroke="none" /><path d="M 108.76106565485865 80.91482961587045 l 4.160560320096189 -9.063395451037225 a30.972732788912033,30.972732788912033 0 0,0 0.4826168106727327,0.22659506379576433 l -4.315955342068519 8.990435404601458" fill="#ff810b" stroke="none" /><path d="M 109.08828744355905 81.06846463323043 l 4.348583252340665 -9.05840161287744 a31.048125003338598,31.048125003338598 0 0,0 0.4798099366207242,0.23544065210811305 l -4.503864455971821 8.982205800634494" fill="#ff820c" stroke="none" /><path d="M 109.41281617654863 81.2277094730956 l 4.709455129544811 -9.39222207860554 a31.506797951376114,31.506797951376114 0 0,0 0.4827134195483498,0.247264562183599 l -4.870429036681916 9.309764991109441" fill="#ff880c" stroke="none" /><path d="M 109.73455568895987 81.39251694778311 l 4.748501570628925 -9.076702144619814 a31.243768300211173,31.243768300211173 0 0,0 0.474391918459241,0.25340373360838536 l -4.904038535616477 8.993619684509675" fill="#ff850c" stroke="none" /><path d="M 110.05341064243156 81.56283822128135 l 1.3865780092703721 -2.5428746507014615 a23.896344258711707,23.896344258711707 0 0,0 0.35944188145565736,0.20002901787060545 l -1.4301439797980646 2.518630235270676" fill="#ff1f03" stroke="none" /><path d="M 110.36928655335952 81.73862282372117 l 0.6855224361659327 -1.207275322676058 a22.388328028683947,22.388328028683947 0 0,0 0.33348296009573397,0.19317485532311235 l -0.706202128726995 1.1952963099628962" fill="#ff0a01" stroke="none" /><line stroke="#e1ed5e" stroke-width="0.3" x1="143.23703022742887" x2="145.7803849466894" y1="26.81831364943548" y2="22.513508569990506" /><path d="M 143.74570117128098 25.957352633546492 a86.0,86.0 0 0,1 28.547481713284135,27.462654790039103" fill="none" id="id62" stroke="none" /><text fill="#e1ed5e" style="font-size:6.75px; font-family:Arial;" text-anchor="middle"><textPath startOffset="19.985693538727396" xlink:href="#id62">February</textPath></text><path d="M 110.68208982089419 81.91981866633111 l 5.791139716274501 -9.801907487620241 a32.38484473364822,32.38484473364822 0 0,0 0.47750363853283134,0.28769059939135266 l -5.959005421024971 9.700770278770273" fill="#ff940d" stroke="none" /><path d="M 110.99172775467656 82.1063720568725 l 5.29880486387359 -8.626018119585277 a31.123513302447126,31.123513302447126 0 0,0 0.454078494607471,0.2843439116659572 l -5.446502510853324 8.533529866596375" fill="#ff830c" stroke="none" /><path d="M 111.2981086023043 82.29822771554956 l 5.451396532838407 -8.541197775074204 a31.13260991014532,31.13260991014532 0 0,0 0.4492479702937681,0.2922033765243515 l -5.597611528916456 8.446095474390324" fill="#ff830c" stroke="none" /><path d="M 111.60114157652 82.49532879139004 l 6.4764317365165365 -9.772125217588782 a32.72342097282159,32.72342097282159 0 0,0 0.4668468241150411,0.3152170596017939 l -6.64368325503812 9.659196245688317" fill="#ff980e" stroke="none" /><path d="M 111.90073688211348 82.69761687909136 l 5.900780284608285 -8.579095749108367 a31.41249690706274,31.41249690706274 0 0,0 0.44286962676695973,0.31025847548360974 l -6.047581050958895 8.476252430860823" fill="#ff870c" stroke="none" /><path d="M 112.19680574252982 82.90503203632743 l 6.095841431415984 -8.543893883487375 a31.495589809499066,31.495589809499066 0 0,0 0.4386206073327565,0.31867652488678566 l -6.242007355102529 8.437698123783914" fill="#ff880c" stroke="none" /><path d="M 112.48926042617603 83.11751280151076 l 6.412654739149516 -8.668372493468029 a31.782523938719073,31.782523938719073 0 0,0 0.4370155252653048,0.3291510333478416 l -6.560916418173203 8.556704870614341" fill="#ff8c0c" stroke="none" /><path d="M 113.06298171725822 83.55741782278167 l 1.765270334137718 -2.2219737547146505 a23.83784191230368,23.83784191230368 0 0,0 0.3190826831954998,0.2580093390975363 l -1.803256415897709 2.191258318352987" fill="#ff1e03" stroke="none" /><path d="M 113.89432698308785 84.25364557470405 l 1.1953799613202827 -1.3547166816181095 a22.806707098392117,22.806707098392117 0 0,0 0.2921311246944771,0.26227820814143094 l -1.2185220736107498 1.3339394647073837" fill="#ff1001" stroke="none" /><path d="M 114.16331599549186 84.49514656593476 l 1.119591590586194 -1.2256383691203574 a22.660022512368833,22.660022512368833 0 0,0 0.2857235863955503,0.26554893427330345 l -1.1405230607765908 1.2061848487724136" fill="#ff0d01" stroke="none" /><path d="M 114.42810811169701 84.74124197986012 l 1.9372734707116326 -2.048805489921471 a23.819686584685513,23.819686584685513 0 0,0 0.29549654701005074,0.28426744410206145 l -1.9722532613341017 2.015154959057108" fill="#ff1e03" stroke="none" /><path d="M 114.94478906791727 85.2469230424477 l 1.866234432603499 -1.8422943328212777 a23.622380477005635,23.622380477005635 0 0,0 0.28317130202211027,0.2918329181939634 l -1.8976699983287182 1.8098972190772" fill="#ff1b02" stroke="none" /><path d="M 115.19652480421416 85.50635884689758 l 1.3666945922056537 -1.3034809761124666 a22.888628275614682,22.888628275614682 0 0,0 0.2694674697620382,0.28744910866615475 l -1.388929383938155 1.2797624505682548" fill="#ff1101" stroke="none" /><path d="M 115.4437574822437 85.77008943001952 l 1.3087703059339302 -1.2059037077924981 a22.77963014870003,22.77963014870003 0 0,0 0.26322010095222587,0.29065420977975115 l -1.3293340475021918 1.1831967107432002" fill="#ff0f01" stroke="none" /><path d="M 115.68641384162765 86.03803664274999 l 2.541069240874745 -2.261722531836951 a24.40182622982696,24.40182622982696 0 0,0 0.2765634850599189,0.3161598722559423 l -2.579624589512512 2.217647103378061" fill="#ff2603" stroke="none" /><path d="M 115.9244219780498 86.31012108654704 l 6.892997081408954 -5.925759536223343 a30.08999641614089,30.08999641614089 0 0,0 0.3342703240045881,0.39567062933378877 l -6.993978018900659 5.806229957260448" fill="#ff750a" stroke="none" /><path d="M 116.15771136456269 86.58626213691792 l 7.399046834085831 -6.142508207367077 a30.61645990635678,30.61645990635678 0 0,0 0.333138440756414,0.4083883376347307 l -7.503683766918654 6.014235700124243" fill="#ff7c0b" stroke="none" /><path d="M 116.38621287248628 86.86637796730983 l 8.319363669660337 -6.668006746896033 a31.66180687523064,31.66180687523064 0 0,0 0.3371920908889193,0.4281997130359754 l -8.43290984114322 6.523814639907019" fill="#ff8a0c" stroke="none" /><path d="M 116.60985879189232 87.15038557335679 l 9.897455290224444 -7.656807073302944 a33.513445400039664,33.513445400039664 0 0,0 0.3490569921416278,0.459318085657678 l -10.027788222590186 7.485304211764235" fill="#ffa30f" stroke="none" /><path d="M 116.82858285166822 87.43820079747576 l 8.23685876793791 -6.1484539021733715 a31.27858588280054,31.27858588280054 0 0,0 0.31835253480275977,0.4342324996991863 l -8.341473915254296 6.005758958802689" fill="#ff850c" stroke="none" /><path d="M 117.2510076193507 88.02491185347247 l 1.171393078162176 -0.8131429580663677 a22.425960453104917,22.425960453104917 0 0,0 0.2173988991491781,0.3190060588862497 l -1.185216442980085 0.7928588759097138" fill="#ff0a01" stroke="none" /><path d="M 117.45458315368197 88.32363383020206 l 2.638487998201512 -1.7650351045547152 a24.17442401656803,24.17442401656803 0 0,0 0.22839462205577543,0.34786067864529246 l -2.6684792556152126 1.7193563619317487" fill="#ff2303" stroke="none" /><line stroke="#e1ed5e" stroke-width="0.3" x1="172.23445277983987" x2="176.4835382374775" y1="55.19839476539836" y2="52.563006222186495" /><path d="M 173.08426987136738 54.67131705675599 a86.0,86.0 0 0,1 12.851231095245387,41.99856678651699" fill="none" id="id63" stroke="none" /><text fill="#e1ed5e" style="font-size:6.75px; font-family:Arial;" text-anchor="middle"><textPath startOffset="22.20632615414155" xlink:href="#id63">March</textPath></text><path d="M 117.84615892207809 88.93136811851018 l 10.173193942466089 -6.309668052370297 a32.97103946706931,32.97103946706931 0 0,0 0.29498749666398677,0.4848818827758199 l -10.280297237416299 6.133618396387396" fill="#ff9b0e" stroke="none" /><path d="M 118.03404312379186 89.2402003453031 l 3.94544001372791 -2.3540003650834596 a25.594324174537356,25.594324174537356 0 0,0 0.22247601269200096,0.3802836223497152 l -3.985375700890238 2.285737330379848" fill="#ff3705" stroke="none" /><path d="M 118.21658344932153 89.55222093294921 l 8.476847228735146 -4.861736410526811 a30.77207346803926,30.77207346803926 0 0,0 0.2595732226881436,0.4617517992036772 l -8.559278092715722 4.715101101388342" fill="#ff7e0b" stroke="none" /><path d="M 118.3937258080291 89.86733742301442 l 7.915811667953366 -4.3606308744324656 a30.037431935321024,30.037431935321024 0 0,0 0.2455801801700597,0.4550227766896441 l -7.989699947341891 4.223727114410362" fill="#ff740a" stroke="none" /><path d="M 118.56541770881063 90.18545643968196 l 9.205702768533008 -4.866562780444748 a31.412895695174633,31.412895695174633 0 0,0 0.24859652103158159,0.4802093519496022 l -9.288108722724706 4.707380706234801" fill="#ff870c" stroke="none" /><path d="M 118.73160827565052 90.50648371742162 l 0.761224598869348 -0.38580233035619516 a21.853408652423955,21.853408652423955 0 0,0 0.1671681563261554,0.3370008024143611 l -0.7677527681489116 0.37264193944288415" fill="#ff0200" stroke="none" /><path d="M 118.89224826269711 90.83032412892265 l 1.2356533599406705 -0.5997454957246063 a22.37351151636039,22.37351151636039 0 0,0 0.16518236359994207,0.3479161844962476 l -1.2457939173823687 0.5783868955878183" fill="#ff0901" stroke="none" /><path d="M 119.04729006885535 91.15688171328212 l 10.747165544553303 -4.989605125656333 a32.84895466072892,32.84895466072892 0 0,0 0.23369322459471262,0.5149120431836621 l -10.831461086111362 4.803871073630608" fill="#ff9a0e" stroke="none" /><path d="M 119.196687751892 91.48605970444005 l 8.679712115462886 -3.8495469473068833 a30.495073149103852,30.495073149103852 0 0,0 0.20868691978824958,0.48167818330723183 l -8.744689745093815 3.6995696194130483" fill="#ff7b0b" stroke="none" /><path d="M 119.34039704204932 91.81776055985345 l 8.710890977033216 -3.685270553450104 a30.458374102660834,30.458374102660834 0 0,0 0.20012357518448917,0.4846151109688352 l -8.773036239103902 3.5347808720279654" fill="#ff7a0b" stroke="none" /><path d="M 119.47837535516314 92.15188598940014 l 8.945717222550494 -3.6043564922139746 a30.64454469370128,30.64454469370128 0 0,0 0.1929241175926581,0.4909708360338765 l -9.006434890024853 3.4498366512843135" fill="#ff7d0b" stroke="none" /><path d="M 119.61058180528143 92.48833698450437 l 10.460923860295303 -4.006966017098664 a32.20208483600616,32.20208483600616 0 0,0 0.19381884590250342,0.5193381463511354 l -10.528347294699431 3.826304733718195" fill="#ff910d" stroke="none" /><path d="M 119.85752413597 93.16781622104841 l 0.6925806703978926 -0.2382894458295848 a21.732427365001175,21.732427365001175 0 0,0 0.11866185402759405,0.354783839976645 l -0.6965798181972568 0.22633250293062582" fill="#ff0000" stroke="none" /><path d="M 119.97218684219823 93.5106431181261 l 9.041278814011303 -2.937689565805565 a30.50656313173865,30.50656313173865 0 0,0 0.15797244998359983,0.5008158363128017 l -9.09050674776311 2.781623563066344" fill="#ff7b0b" stroke="none" /><path d="M 120.08093135843002 93.85539295169968 l 9.43837907770715 -2.8880697598253136 a30.87035696173738,30.87035696173738 0 0,0 0.15110907855825284,0.5094646925515645 l -9.486694053377105 2.725175680527219" fill="#ff800b" stroke="none" /><path d="M 120.18372546131832 94.20196356495316 l 6.4625558847887214 -1.8564528414410972 a27.72391595102973,27.72391595102973 0 0,0 0.12781151598885274,0.4598060262241273 l -6.493554171343937 1.744935511798018" fill="#ff5507" stroke="none" /><path d="M 120.28053869075195 94.5502522615342 l 9.379757080453409 -2.5205104615820346 a30.712508217513143,30.712508217513143 0 0,0 0.13280040017207928,0.5117341145556263 l -9.42175381249579 2.358679921477558" fill="#ff7e0b" stroke="none" /><path d="M 120.37134235888165 94.90015583598534 l 11.146399707188426 -2.790434743820198 a32.49037651654327,32.49037651654327 0 0,0 0.13114848741804785,0.5436951493742727 l -11.192780994867292 2.5981543627865196" fill="#ff950d" stroke="none" /><path d="M 120.45610955862082 95.25157060432595 l 0.9385395974495256 -0.21786102585940043 a21.96349364428066,21.96349364428066 0 0,0 0.08231667765952194,0.36900952526918274 l -0.9421506621110851 0.2016733310402538" fill="#ff0300" stroke="none" /><path d="M 120.53481517161879 95.60439243477599 l 1.242024218514588 -0.26586316971772356 a22.27016037742843,22.27016037742843 0 0,0 0.07701308222356147,0.3755431395615448 l -1.2464165966531464 0.24444437399276756" fill="#ff0801" stroke="none" /><path d="M 120.6074358757038 95.95851677861258 l 10.365747266471164 -2.032906660841669 a31.563210964666418,31.563210964666418 0 0,0 0.09997162516167517,0.5340524191152367 l -10.399204615542699 1.8541761642638688" fill="#ff890c" stroke="none" /><path d="M 120.67395015179393 96.31383870115 l 10.480367032624228 -1.8686474074743056 a31.645653398076476,31.645653398076476 0 0,0 0.0910010523660032,0.5370933623383654 l -10.510979946510455 1.687968256820103" fill="#ff8a0c" stroke="none" /><path d="M 120.78858239683441 97.02765380044208 l 10.105014727625658 -1.4448124238961353 a31.207781619224427,31.207781619224427 0 0,0 0.07145690479912523,0.5324369399533158 l -10.12838763148262 1.2706571418781554" fill="#ff840c" stroke="none" /><path d="M 120.83666639777658 97.38593545837742 l 5.268901067397575 -0.6610101246843906 a26.31020271204015,26.31020271204015 0 0,0 0.05250720514598192,0.4498496680809742 l -5.279498625547146 0.5702167182785636" fill="#ff4106" stroke="none" /><path d="M 120.87857604477298 97.74499172005257 l 4.4416031169773085 -0.4797191045761781 a25.46743423768475,25.46743423768475 0 0,0 0.043322378688996126,0.4362504412128976 l -4.449202621348533 0.4031931326588456" fill="#ff3505" stroke="none" /><path d="M 120.91429891909075 98.10471618934814 l 1.4315665204527273 -0.12973061447489492 a22.437432688793866,22.437432688793866 0 0,0 0.03154651342390384,0.38494736815999503 l -1.433587517696126 0.10506932910713082" fill="#ff0a01" stroke="none" /><path d="M 120.94382443527127 98.46500227214037 l 8.598373616655346 -0.630184998238753 a29.62143619031075,29.62143619031075 0 0,0 0.0328930659789745,0.5088411718791289 l -8.607947273638736 0.48208476210658885" fill="#ff6f0a" stroke="none" /><path d="M 120.96714384426684 98.82574320788733 l 10.364112658830482 -0.5804381261580518 a31.38035354037752,31.38035354037752 0 0,0 0.025562124830146846,0.5395760539844738 l -10.372568391894125 0.40195096555057824" fill="#ff860c" stroke="none" /><path d="M 120.98425023603335 99.18683210126433 l 10.098784167634284 -0.3913414589042052 a31.106363826912137,31.106363826912137 0 0,0 0.01612836160577568,0.5352218026534524 l -10.104024223695705 0.2174495088257536" fill="#ff830c" stroke="none" /><line stroke="#e1ed5e" stroke-width="0.3" x1="184.98032266829074" x2="189.97916517819016" y1="98.17113171792111" y2="98.06355123074" /><path d="M 185.9800911702706 98.14961562048488 a86.0,86.0 0 0,1 -9.607161424134198,41.387399972396054" fill="none" id="id64" stroke="none" /><text fill="#e1ed5e" style="font-size:6.75px; font-family:Arial;" text-anchor="middle"><textPath startOffset="21.466115282336823" xlink:href="#id64">April</textPath></text><path d="M 120.99513854157772 99.54816195383933 l 1.0056888440593046 -0.021643509588919776 a22.005921712944236,22.005921712944236 0 0,0 0.004890546666781883,0.37877822891377794 l -1.005912397843802 0.004329022614679173" fill="#ff0400" stroke="none" /><path d="M 120.99980553446 99.90962569577887 l 7.861276447502857 -0.033831617538895326 a28.861349245670773,28.861349245670773 0 0,0 -0.0021380799642900087,0.49681448564586755 l -7.860694070249064 -0.10149234631065693" fill="#ff6409" stroke="none" /><path d="M 120.99824983174949 100.27111621757518 l 1.7218602180550773 0.022231578024490155 a22.722003732162662,22.722003732162662 0 0,0 -0.008415729557132753,0.3910458835456479 l -1.721222425812937 -0.051867277360252886" fill="#ff0e01" stroke="none" /><path d="M 120.9904718944345 100.63252640178507 l 0.9397112172533911 0.02831723640877057 a21.94013777591887,21.94013777591887 0 0,0 -0.014624530181600502,0.3773941413480673 l -0.9390845542205875 -0.04448862477084408" fill="#ff0300" stroke="none" /><path d="M 120.95626037817324 101.35467743843564 l 1.2867344374574778 0.0831784908292769 a22.289420092086225,22.289420092086225 0 0,0 -0.028045865914722544,0.3826635578621773 l -1.2851120128784177 -0.10531518518822418" fill="#ff0801" stroke="none" /><path d="M 120.92983693683757 101.71520430193887 l 1.380354598314265 0.11312033401763638 a22.384981959108348,22.384981959108348 0 0,0 -0.034777098749823564,0.3837623867754038 l -1.3782029032873664 -0.13686410934161103" fill="#ff0901" stroke="none" /><path d="M 120.89721153311464 102.0752229133903 l 12.26311911128302 1.2178039031208479 a33.323438508954034,33.323438508954034 0 0,0 -0.061597104237562615,0.5703126841697177 l -12.240339705544406 -1.4287129091753568" fill="#ffa00e" stroke="none" /><path d="M 120.8583938346157 102.4346265915055 l 22.603644206141464 2.6383351319157478 a43.75709875327111,43.75709875327111 0 0,0 -0.09376206683970588,0.7473759260329286 l -22.55488063005491 -3.027028812236072" fill="#ddff1b" stroke="none" /><path d="M 120.81339534386255 102.79330883721812 l 2.4011535344635786 0.3222522455622518 a23.422681325687893,23.422681325687893 0 0,0 -0.05706874846497863,0.39913869384558676 l -2.3952507349819983 -0.3635364113882479" fill="#ff1802" stroke="none" /><path d="M 120.76222939487914 103.15116336523771 l 3.150723036433624 0.4781973466138908 a24.18680535248422,24.18680535248422 0 0,0 -0.06601644049568545,0.41108443798424676 l -3.1420248415766503 -0.5323610142913425" fill="#ff2303" stroke="none" /><path d="M 120.70491114924044 103.5080841355445 l 62.114733447721314 10.524252406633499 a84.0,84.0 0 0,0 -0.25381423064324515,1.4235249970671267 l -61.924372774738885 -11.591896154433844" fill="#4dd2ff" stroke="none" /><path d="M 120.64145759157962 103.86396538481128 l 47.49765885462589 8.891296017230756 a69.32269385636985,69.32269385636985 0 0,0 -0.22965640275691276,1.1710130499151672 l -47.33757251889331 -9.707572794213867" fill="#3bff9a" stroke="none" /><path d="M 120.5718875245553 104.21870165774334 l 47.74409730880926 9.790939320648794 a69.73767865433965,69.73767865433965 0 0,0 -0.25127469011935694,1.173871698585956 l -47.56848857996546 -10.61132483865092" fill="#3bff9f" stroke="none" /><path d="M 120.49622156327973 104.57218783832717 l 59.975745702731416 13.379069612904381 a82.4498948437314,82.4498948437314 0 0,0 -0.32092417826723973,1.3825329606091818 l -59.73656095853362 -14.409471230862128" fill="#4be0ff" stroke="none" /><path d="M 120.02730092923936 106.31721596034902 l 1.197441871917768 0.37770935442554576 a22.25560001315805,22.25560001315805 0 0,0 -0.11838680855965093,0.36435713172275863 l -1.19076281234187 -0.39826538612609963" fill="#ff0801" stroke="none" /><path d="M 119.79798401119884 107.00284435728193 l 12.140975617986353 4.294445462235971 a33.87810353991061,33.87810353991061 0 0,0 -0.19919637477770985,0.5481028719494789 l -12.065254982203417 -4.502796131191579" fill="#ffa70f" stroke="none" /><path d="M 119.12269723197855 108.67885076344098 l 1.5223153667604028 0.6909039934446255 a22.67176326195804,22.67176326195804 0 0,0 -0.16434370711753324,0.35398172442862297 l -1.5101970428030382 -0.7170057851520791" fill="#ff0e01" stroke="none" /><path d="M 118.97047184881838 109.00673069616215 l 1.1640383218967787 0.552657823637098 a22.288571257195954,22.288571257195954 0 0,0 -0.1675323041742507,0.3451661680283357 l -1.1543527611078137 -0.5726129476307092" fill="#ff0801" stroke="none" /><path d="M 118.81262510543309 109.33194174019688 l 0.7496699769355313 0.37187136350879096 a21.836835339428497,21.836835339428497 0 0,0 -0.16993355613464828,0.33529502785430876 l -0.7431577510146139 -0.38472060306579403" fill="#ff0200" stroke="none" /><path d="M 118.64920377521936 109.65438752849418 l 9.881427067951238 5.1154530455245215 a32.12701490788098,32.12701490788098 0 0,0 -0.2584656469956171,0.4889195987934609 l -9.791908912730728 -5.284787659404117" fill="#ff900d" stroke="none" /><line stroke="#e1ed5e" stroke-width="0.3" x1="174.80103733775053" x2="179.2010983576182" y1="140.37084112569926" y2="142.7455964860345" /><path d="M 175.68104954172406 140.8457921977663 a86.0,86.0 0 0,1 -30.038265399797805,32.042727171017184" fill="none" id="id65" stroke="none" /><text fill="#e1ed5e" style="font-size:6.75px; font-family:Arial;" text-anchor="middle"><textPath startOffset="22.206326154141568" xlink:href="#id65">May</textPath></text><path d="M 118.48025628344425 109.97397251340804 l 3.6386149573920803 1.9637955781173941 a25.134732383213066,25.134732383213066 0 0,0 -0.20876620332168758,0.3789712992717441 l -3.604272344618883 -2.0261373957869444" fill="#ff3104" stroke="none" /><path d="M 118.30583269289576 110.29060199501023 l 1.2404809999329502 0.6973349132397759 a22.42304922346972,22.42304922346972 0 0,0 -0.1920352687151412,0.3348296777058189 l -1.2282937350654295 -0.718584436803911" fill="#ff0a01" stroke="none" /><path d="M 117.94076556474637 110.91462005526583 l 2.1027146805442127 1.2792281210043326 a23.461266668474675,23.461266668474675 0 0,0 -0.21286670945351852,0.3432089138749096 l -2.0803833314227336 -1.3152333662445133" fill="#ff1902" stroke="none" /><path d="M 117.75023020441432 111.22182372390056 l 2.6057624084069886 1.647381812898274 a24.082833853216062,24.082833853216062 0 0,0 -0.22453817831229697,0.34848823907965293 l -2.577019366717641 -1.6919916518993823" fill="#ff2203" stroke="none" /><path d="M 117.55443506779139 111.5257021239791 l 3.7754710480637734 2.4788581637429514 a25.5165162936408,25.5165162936408 0 0,0 -0.24422573979802564,0.36508434401452966 l -3.7322422028550264 -2.543479421963288" fill="#ff3605" stroke="none" /><path d="M 117.35343817320211 111.8261652097733 l 2.1742221218093394 1.4817069538973382 a23.631101923566025,23.631101923566025 0 0,0 -0.2319663768229973,0.3341648666834341 l -2.1483948378242035 -1.5189130827677895" fill="#ff1b02" stroke="none" /><path d="M 117.14729908036423 112.12312394758627 l 1.2196906515929977 0.8623201168693958 a22.493734002271154,22.493734002271154 0 0,0 -0.22624434124798457,0.31423360210416823 l -1.2046665179694103 -0.8831873244246975" fill="#ff0b01" stroke="none" /><path d="M 116.93607887273984 112.41649034213513 l 26.155063362061338 19.17528219331149 a53.43113915154033,53.43113915154033 0 0,0 -0.5501848499603561,0.7370625164450867 l -25.821117245405894 -19.62265758926589" fill="#71ff27" stroke="none" /><path d="M 116.71984013943494 112.70617746262582 l 7.230132206883545 5.494510840581134 a30.08099449984848,30.08099449984848 0 0,0 -0.3168433768889173,0.4095627755459505 l -7.13448201277656 -5.618151610240335" fill="#ff750a" stroke="none" /><path d="M 116.498646956653 112.99209946851258 l 5.589484962736983 4.401521215917094 a28.114473358080073,28.114473358080073 0 0,0 -0.3026751827749012,0.37763382894857833 l -5.512891867907228 -4.4970828784439245" fill="#ff5a08" stroke="none" /><path d="M 115.80600337817218 113.82643327865902 l 15.075507000179401 13.187425479599117 a41.0294558611171,41.0294558611171 0 0,0 -0.4695746009506528,0.5275720420942244 l -14.846273549580413 -13.444971691434207" fill="#fdff18" stroke="none" /><path d="M 115.56566222782051 114.09645910891815 l 0.7160565403249102 0.6484697915597024 a21.96604867346711,21.96604867346711 0 0,0 -0.2562220249860249,0.2780784036578112 l -0.7047881073431609 -0.6606994500188484" fill="#ff0300" stroke="none" /><path d="M 115.32070863581623 114.36230785411682 l 15.172177105901662 14.223067848358273 a41.7964087561254,41.7964087561254 0 0,0 -0.49656810288286996,0.520649670619571 l -14.92510245163983 -14.48212463556035" fill="#f4ff19" stroke="none" /><path d="M 114.55890576462653 115.13401014063108 l 16.490876978365026 17.14229787961527 a44.786706373708654,44.786706373708654 0 0,0 -0.5601839457159087,0.5296888855933288 l -16.19335719825831 -17.42362140195452" fill="#d1ff1d" stroke="none" /><path d="M 114.29624159901734 115.38237550388516 l 4.06882372871751 4.377946051118284 a26.976766530648227,26.976766530648227 0 0,0 -0.342862435283678,0.3131967054417623 l -3.992861743966969 -4.44733552314663" fill="#ff4b06" stroke="none" /><path d="M 112.92097659922987 116.55440617244103 l 14.89757997399227 19.08683821086641 a45.21250259616477,45.21250259616477 0 0,0 -0.617627052750143,0.47357008708019427 l -14.566824192748633 -19.340447639773977" fill="#ccff1d" stroke="none" /><path d="M 112.34349029814194 116.9893568818739 l 0.833954939630282 1.1478405013947488 a22.41880888705135,22.41880888705135 0 0,0 -0.31415441893513213,0.22414083659305922 l -0.8140731928462652 -1.1620255998320272" fill="#ff0a01" stroke="none" /><path d="M 112.04921762599082 117.19931262002967 l 12.526971390767761 17.88126862836586 a42.83265398399597,42.83265398399597 0 0,0 -0.6074957667839728,0.4178411278361652 l -12.217318739360906 -18.094250545567117" fill="#e8ff1a" stroke="none" /><path d="M 111.45004920935366 117.60387380957326 l 2.0121285289458593 3.0935462428641074 a24.690350874068272,24.690350874068272 0 0,0 -0.3582666297702419,0.22866271391827325 l -1.958580097128687 -3.1277233856061897" fill="#ff2a04" stroke="none" /><line stroke="#e1ed5e" stroke-width="0.3" x1="143.8653032363475" x2="146.44561519142675" y1="172.8068346515853" y2="177.08958963109032" /><path d="M 144.38136562736335 173.6633856474863 a86.0,86.0 0 0,1 -40.68145358897372,12.25698825130547" fill="none" id="id66" stroke="none" /><text fill="#e1ed5e" style="font-size:6.75px; font-family:Arial;" text-anchor="middle"><textPath startOffset="21.466115282336833" xlink:href="#id66">June</textPath></text><path d="M 110.8373102113329 117.98757091392108 l 9.200003798397635 15.269999428360665 a38.82730917532609,38.82730917532609 0 0,0 -0.5754431474702845,0.33998195453099816 l -8.935792779898968 -15.42609995518541" fill="#ffe615" stroke="none" /><path d="M 110.21172684928248 118.3499491758327 l 0.37691426872163747 0.6772956011033688 a21.775108829287824,21.775108829287824 0 0,0 -0.32909156245207166,0.17944695913602943 l -0.36519989440091594 -0.6836832119991688" fill="#ff0100" stroke="none" /><path d="M 109.89434966115114 118.52300852407294 l 2.1206738468254906 3.9700698971413737 a25.500967957317375,25.500967957317375 0 0,0 -0.3889615252909087,0.20348628657523007 l -2.0520214190080863 -4.005985602661321" fill="#ff3605" stroke="none" /><path d="M 109.57404056367764 118.69057910512821 l 4.811280620135839 9.392650932437293 a31.553213384761527,31.553213384761527 0 0,0 -0.4855379812065574,0.24345882338011515 l -4.648888731246521 -9.47407759672671" fill="#ff890c" stroke="none" /><path d="M 109.2508944713604 118.85261126421891 l 6.659946569807736 13.572458761664967 a36.118416754071504,36.118416754071504 0 0,0 -0.560501641525717,0.2690748495610061 l -6.4253322602817855 -13.685087887725533" fill="#ffc412" stroke="none" /><path d="M 108.92500713936063 119.00905698771935 l 6.5282998195783675 13.90439484983686 a36.36069317037733,36.36069317037733 0 0,0 -0.5688405429785699,0.26112679341469064 l -6.287991280832379 -14.014708713585623" fill="#ffc712" stroke="none" /><path d="M 108.2653958097858 119.30500536409082 l 6.010805341192397 14.039089237183445 a36.271732300538375,36.271732300538375 0 0,0 -0.5760789493189199,0.24080104753669554 l -5.768254932376015 -14.140475327740115" fill="#ffc612" stroke="none" /><path d="M 107.93186726928326 119.44442032107085 l 1.6892268511291404 4.141022006027844 a25.47230931499405,25.47230931499405 0 0,0 -0.40741008778328325,0.16211688191493523 l -1.617695687303991 -4.169485732348848" fill="#ff3605" stroke="none" /><path d="M 107.2578585660854 119.70592522655815 l 0.2918047476716834 0.7922836310482598 a21.844312360913158,21.844312360913158 0 0,0 -0.35396153371013545,0.12691801264029565 l -0.27812365333181316 -0.7971891847285156" fill="#ff0200" stroke="none" /><path d="M 106.91757812671514 119.82793768551818 l 5.197928577128173 14.89888542393845 a36.77958327613791,36.77958327613791 0 0,0 -0.5995602173989425,0.20340337832487637 l -4.9406986267920034 -14.986151789161449" fill="#ffcc13" stroke="none" /><path d="M 106.57524785965236 119.94407469862006 l 5.668566146530825 17.193923190974107 a39.10424361454277,39.10424361454277 0 0,0 -0.641083637754808,0.20525473605506647 l -5.371761163685077 -17.288950773688878" fill="#ffe915" stroke="none" /><path d="M 105.88484417918355 120.15858648285463 l 6.528384459804782 22.363039482305744 a44.29646622434798,44.29646622434798 0 0,0 -0.7337790458360842,0.20737328787405646 l -6.1424742458640935 -22.472101563518322" fill="#d6ff1c" stroke="none" /><path d="M 103.06178313531737 120.77559828337769 l 2.520786795437462 17.10469079797288 a38.289442251336794,38.289442251336794 0 0,0 -0.6528740252193639,0.09048239089373762 l -2.2259841790312667 -17.145547754359217" fill="#ffdf14" stroke="none" /><path d="M 101.98527174616119 120.90594882070398 l 1.6665898842870042 17.550062299218443 a38.6290160970162,38.6290160970162 0 0,0 -0.662498078447325,0.05716312185496788 l -1.3642474880981372 -17.576149673352074" fill="#ffe415" stroke="none" /><path d="M 100.90346689309514 120.98055641714683 l 0.08931576213952049 2.074115167727945 a23.076037339347653,23.076037339347653 0 0,0 -0.3969953645096244,0.013673323054309015 l -0.053600045955243786 -2.0753452892083475" fill="#ff1302" stroke="none" /><line stroke="#e1ed5e" stroke-width="0.3" x1="102.19456741930631" x2="102.32365962044197" y1="184.97166512339345" y2="189.96999836594603" /><path d="M 102.22038585953345 185.97133177190398 a86.0,86.0 0 0,1 -42.740103519485714,-10.115201625700543" fill="none" id="id67" stroke="none" /><text fill="#e1ed5e" style="font-size:6.75px; font-family:Arial;" text-anchor="middle"><textPath startOffset="22.20632615414155" xlink:href="#id67">July</textPath></text><path d="M 100.54218724476979 120.99299961872073 l 0.458350373885318 17.746911822502245 a38.75282975474363,38.75282975474363 0 0,0 -0.6669921335281516,0.01148287445932142 l -0.15279855046449858 -17.752172174240727" fill="#ffe515" stroke="none" /><path d="M 100.18074693466247 120.99922214144158 l 0.14885228889748897 17.293694560616895 a38.29433515807475,38.29433515807475 0 0,0 -0.6591984471198769,0.0 l 0.14885228889747704 -17.293694560616895" fill="#ffdf14" stroke="none" /><path d="M 99.81925306533755 120.99922214144158 l -0.015549187041954026 1.806508273142267 a22.806575190283848,22.806575190283848 0 0,0 -0.3925340766315419,-0.00675783010981404 l 0.04664295356616386 -1.8059729657532932" fill="#ff1001" stroke="none" /><path d="M 98.73552117531835 120.96189622390904 l -1.142107169989362 18.93328026266227 a39.96769649409906,39.96769649409906 0 0,0 -0.6863733200789296,-0.04733632274661472 l 1.4678432508472214 -18.91081559539937" fill="#fff417" stroke="none" /><path d="M 98.01472825383883 120.90594882070398 l -0.15419965616588735 1.6238029510104524 a22.631108076637453,22.631108076637453 0 0,0 -0.3874956555740337,-0.04016550907439104 l 0.18212790834551465 -1.6209080734803005" fill="#ff0d01" stroke="none" /><path d="M 97.65516085044442 120.86867818915974 l -0.10643805049813124 0.9472809353886906 a21.953241957293486,21.953241957293486 0 0,0 -0.3751626911233467,-0.045426977238984846 l 0.122728164672867 -0.9453084294243572" fill="#ff0300" stroke="none" /><path d="M 96.93821686468263 120.77559828337769 l -0.16904285795871155 1.147033070080661 a22.159422421589955,22.159422421589955 0 0,0 -0.3768833796257726,-0.05886143289937067 l 0.1887621011930019 -1.1439533298341846" fill="#ff0601" stroke="none" /><path d="M 95.51606077576429 120.51570834832081 l -0.1785281966113371 0.8168336434698584 a21.836115732473406,21.836115732473406 0 0,0 -0.3665138481534476,-0.08341735857308 l 0.1925621941576468 -0.8136395513190917" fill="#ff0200" stroke="none" /><path d="M 95.16358092515715 120.4354850818985 l -3.6431941264846395 15.393711353405864 a36.818951061155374,36.818951061155374 0 0,0 -0.615484372819956,-0.15127108417875226 l 3.9076317840478056 -15.328719010913082" fill="#ffcd13" stroke="none" /><path d="M 94.11515582081647 120.15858648285463 l -0.5196722580173011 1.780141977766951 a22.854444584440536,22.854444584440536 0 0,0 -0.37669024837826026,-0.11349368179914429 l 0.5502374808358071 -1.770932926862081" fill="#ff1001" stroke="none" /><path d="M 93.08242187328487 119.8279376855182 l -0.8257087504756676 2.3667389584789653 a23.506640827520805,23.506640827520805 0 0,0 -0.3808976223289517,-0.1365763356788731 l 0.8663259334343459 -2.352175081760134" fill="#ff1a02" stroke="none" /><path d="M 92.7421414339146 119.70592522655815 l -0.4053457222469337 1.1005605056604923 a22.17283356925165,22.17283356925165 0 0,0 -0.35701406285190707,-0.1349921700915814 l 0.4242300058591237 -1.0934200854622778" fill="#ff0601" stroke="none" /><path d="M 92.40401165467489 119.57807347666478 l -0.4025546108442154 1.0375534283604697 a22.112909399463632,22.112909399463632 0 0,0 -0.3536790578417013,-0.14073619621909836 l 0.42035474472777473 -1.030470387735305" fill="#ff0600" stroke="none" /><path d="M 91.7346041902142 119.30500536409082 l -6.365866725726561 14.86838550934724 a37.173841436847326,37.173841436847326 0 0,0 -0.5860709687281617,-0.2569162896522876 l 6.620858369112467 -14.756604666400499" fill="#ffd113" stroke="none" /><path d="M 90.42595943632237 118.69057910512821 l -1.3353982547516083 2.606983598124381 a23.92910429648437,23.92910429648437 0 0,0 -0.3649861809788697,-0.1909435195759219 l 1.3800753382569737 -2.5836106596037425" fill="#ff2003" stroke="none" /><line stroke="#e1ed5e" stroke-width="0.3" x1="58.666819895761336" x2="56.23545636021788" y1="174.27360380694188" y2="178.64263932499728" /><path d="M 58.180547188652646 175.14741091055294 a86.0,86.0 0 0,1 -31.652253787137756,-30.449443065178592" fill="none" id="id68" stroke="none" /><text fill="#e1ed5e" style="font-size:6.75px; font-family:Arial;" text-anchor="middle"><textPath startOffset="22.20632615414155" xlink:href="#id68">August</textPath></text><path d="M 89.7882731507175 118.34994917583269 l -0.9305938964955903 1.672229482443905 a22.9137284138951,22.9137284138951 0 0,0 -0.34299803720669025,-0.19476323722484942 l 0.9592407006234879 -1.6559630794244224" fill="#ff1101" stroke="none" /><path d="M 88.54995079064634 117.60387380957326 l -0.4236233885607561 0.6512996179016705 a21.776947853858005,21.776947853858005 0 0,0 -0.31247358917085266,-0.2070904562384124 l 0.43477167647157056 -0.643911140571942" fill="#ff0100" stroke="none" /><path d="M 87.65650970185807 116.9893568818739 l -9.602754097753534 13.217057126878444 a37.33718107131982,37.33718107131982 0 0,0 -0.5167021895966205,-0.3822439272588368 l 9.828841257768719 -13.049803250879839" fill="#ffd313" stroke="none" /><path d="M 87.36589467227662 116.77436683061367 l -8.999332368203758 11.948460018266072 a35.95839830601869,35.95839830601869 0 0,0 -0.4912110211135825,-0.37663966467740806 l 9.203672117810827 -11.791781011761296" fill="#ffc212" stroke="none" /><path d="M 83.95833913139862 113.55231037782056 l -2.1318837077072503 1.8010572554128883 a23.79083058971035,23.79083058971035 0 0,0 -0.26159037852472766,-0.3151024624972123 l 2.1625700861255166 -1.7640935358019125" fill="#ff1e03" stroke="none" /><path d="M 82.6465618267979 111.8261652097733 l -4.20556702573472 2.8660447544001797 a26.089303148975503,26.089303148975503 0 0,0 -0.24970804356867282,-0.37327964430290356 l 4.254278174714123 -2.7932281958914555" fill="#ff3e05" stroke="none" /><path d="M 82.44556493220864 111.52570212397912 l -4.259882872839675 2.796908068290679 a26.0960079309968,26.0960079309968 0 0,0 -0.24330816372205802,-0.3776196732623097 l 4.307395899938779 -2.723166795106921" fill="#ff3e05" stroke="none" /><path d="M 82.05923443525364 110.91462005526583 l -5.79728760500805 3.5268947320788095 a27.7858330384961,27.7858330384961 0 0,0 -0.24506988873263738,-0.41075122990956403 l 5.8571383694389185 -3.4265814082831345" fill="#ff5607" stroke="none" /><line stroke="#e1ed5e" stroke-width="0.3" x1="26.63291911575756" x2="22.317208475507996" y1="142.92168965132927" y2="145.44649492493687" /><path d="M 25.769776987707644 143.4266507060508 a86.0,86.0 0 0,1 -11.730757126820373,-40.83630448921669" fill="none" id="id69" stroke="none" /><text fill="#e1ed5e" style="font-size:6.75px; font-family:Arial;" text-anchor="middle"><textPath startOffset="21.46611528233685" xlink:href="#id69">September</textPath></text><path d="M 81.87401531095188 110.60418214915194 l -18.462817504147697 10.80123828631648 a42.390240267684035,42.390240267684035 0 0,0 -0.3630380997506711,-0.6329875274877959 l 18.646007600050748 -10.481830912970375" fill="#edff1a" stroke="none" /><path d="M 81.69416730710424 110.29060199501025 l -3.9156924973197027 2.2012018628577694 a25.491985905433623,25.491985905433623 0 0,0 -0.2117335100874793,-0.3843578229641663 l 3.9530024168586984 -2.1334735214957816" fill="#ff3605" stroke="none" /><path d="M 81.35079622478065 109.6543875284942 l -4.180700585952924 2.164280260105504 a25.707692261997323,25.707692261997323 0 0,0 -0.20005644124670954,-0.3947303379392625 l 4.2173356969859 -2.0919957104635567" fill="#ff3905" stroke="none" /><path d="M 80.58989483394504 108.01547362559985 l -15.19602029015352 6.275251927167267 a37.44073658350422,37.44073658350422 0 0,0 -0.24086407774805724,-0.597804887851427 l 15.301786982158964 -6.012747671473035" fill="#ffd513" stroke="none" /><path d="M 80.20201598880116 107.00284435728193 l -4.71584299477838 1.6680645103628184 a26.002160969234424,26.002160969234424 0 0,0 -0.14562345453676562,-0.4232499237119249 l 4.743857280258374 -1.5866418835615979" fill="#ff3d05" stroke="none" /><path d="M 79.97269907076064 106.31721596034903 l -4.7103371585586675 1.4857826914274095 a25.93911189926325,25.93911189926325 0 0,0 -0.13065064685284344,-0.42697387331092995 l 4.735214577917642 -1.4044818455644317" fill="#ff3c05" stroke="none" /><path d="M 79.86692584326677 105.97154293290107 l -2.3705602169267137 0.7031167719446817 a23.472636030042743,23.472636030042743 0 0,0 -0.11155913845194251,-0.38835199613522997 l 2.38231199226476 -0.6622073003048558" fill="#ff1902" stroke="none" /><path d="M 79.50377843672027 104.57218783832718 l -5.609375482483923 1.2513095783259904 a26.747248816982097,26.747248816982097 0 0,0 -0.09637410920064358,-0.4502277535924056 l 5.630083630409008 -1.1545680053174205" fill="#ff4706" stroke="none" /><path d="M 79.1416061653843 102.43462659150553 l -4.614191454753085 0.5385761388490167 a25.645516875273827,25.645516875273827 0 0,0 -0.04740475913876502,-0.4389091948637764 l 4.622778515392902 -0.4590706221004582" fill="#ff3805" stroke="none" /><path d="M 79.07016306316243 101.71520430193888 l -3.2098882403969946 0.26305098005717326 a24.2206487442669,24.2206487442669 0 0,0 -0.03047585196218458,-0.4158187868468672 l 3.2139406510235147 -0.20775905671354514" fill="#ff2403" stroke="none" /><path d="M 79.04373962182676 101.35467743843564 l -15.70767105297711 1.0153924031216672 a36.74045589050242,36.74045589050242 0 0,0 -0.035364699219177974,-0.6314604612196478 l 15.72282210308382 -0.744860225566582" fill="#ffcc13" stroke="none" /><line stroke="#e1ed5e" stroke-width="0.3" x1="15.007084014347285" x2="10.007500721073583" y1="101.09737516637583" y2="101.16192664675087" /><path d="M 14.007167355692545 101.11028546245083 a86.0,86.0 0 0,1 10.666146001902534,-42.60595125391555" fill="none" id="id70" stroke="none" /><text fill="#e1ed5e" style="font-size:6.75px; font-family:Arial;" text-anchor="middle"><textPath startOffset="22.20632615414155" xlink:href="#id70">October</textPath></text><path d="M 79.00175016825051 100.2711162175752 l -0.8121039737556346 0.010485376610269454 a21.812171661234466,21.812171661234466 0 0,0 -0.0016158692654860962,-0.37547111025384056 l 0.8121641403106237 0.003495211847246486" fill="#ff0100" stroke="none" /><path d="M 79.00019446554 99.90962569577889 l -16.683396197737405 -0.07179829931956429 a37.6835506918181,37.6835506918181 0 0,0 0.008374707755139061,-0.64863034488726 l 16.679688482864552 0.3589649022672962" fill="#ffd814" stroke="none" /><path d="M 79.05617556472873 98.46500227214037 l -2.257522343701088 -0.16545648951953892 a23.26357747431666,23.26357747431666 0 0,0 0.03270805395877713,-0.3991211047597581 l 2.2543398059228137 0.20429151148707514" fill="#ff1602" stroke="none" /><path d="M 79.54389044137918 95.25157060432595 l -4.5806225527368545 -1.0632893179209992 a25.70241290660937,25.70241290660937 0 0,0 0.10374864612540804,-0.43010511797003154 l 4.561641106350631 1.1419796675504277" fill="#ff3905" stroke="none" /><path d="M 79.62865764111835 94.90015583598534 l -1.1788156607239257 -0.295109475943343 a22.215193797202545,22.215193797202545 0 0,0 0.09605814690466603,-0.370151224607899 l 1.1735611819489524 0.31535712610010586" fill="#ff0701" stroke="none" /><path d="M 79.71946130924805 94.55025226153421 l -4.726255527051016 -1.2700303854208275 a25.89392158568897,25.89392158568897 0 0,0 0.11937496054342714,-0.42945524754532 l 4.703693795941229 1.35119693638509" fill="#ff3b05" stroke="none" /><path d="M 79.91906864156998 93.8553929516997 l -4.440449234141288 -1.3587425391138557 a25.643680726383277,25.643680726383277 0 0,0 0.1327909359520564,-0.4209835553635618 l 4.416402814421028 1.434976260903832" fill="#ff3805" stroke="none" /><path d="M 80.02781315780177 93.51064311812611 l -4.701302442660658 -1.5275457615683208 a25.943241923176775,25.943241923176775 0 0,0 0.14165344415452652,-0.42352576803134384 l 4.67431170473436 1.6082446325219868" fill="#ff3c05" stroke="none" /><path d="M 80.52162464483688 92.15188598940014 l -15.363450966685692 -6.1901525452865505 a37.56362321896007,37.56362321896007 0 0,0 0.24680787458069,-0.597664844922143 l 15.254621405218803 6.453691960662004" fill="#ffd614" stroke="none" /><path d="M 80.803312248108 91.48605970444005 l -4.426565650811374 -1.963230123471172 a25.84239155569309,25.84239155569309 0 0,0 0.1838473058355426,-0.4050831685247453 l 4.392116028012479 2.0391353008379896" fill="#ff3b05" stroke="none" /><path d="M 81.10775173730289 90.83032412892265 l -4.432130549913347 -2.1512103798281927 a25.926610123579472,25.926610123579472 0 0,0 0.19832620544827254,-0.399813528154616 l 4.394444331511662 2.2271834964817714" fill="#ff3c05" stroke="none" /><path d="M 81.43458229118936 90.18545643968196 l -4.388701968232834 -2.3200720455663846 a25.96421587590521,25.96421587590521 0 0,0 0.21227836076362364,-0.3933195629993508 l 4.348115508250738 2.395272591898208" fill="#ff3c05" stroke="none" /><line stroke="#e1ed5e" stroke-width="0.3" x1="26.266209847984243" x2="21.928928074336255" y1="57.71137044288968" y2="55.22380399835378" /><path d="M 25.398753493254645 57.2138571539825 a86.0,86.0 0 0,1 29.58750427330803,-30.4925239686951" fill="none" id="id71" stroke="none" /><text fill="#e1ed5e" style="font-size:6.75px; font-family:Arial;" text-anchor="middle"><textPath startOffset="21.46611528233685" xlink:href="#id71">November</textPath></text><path d="M 81.96595687620814 89.24020034530311 l -4.315832932833795 -2.5749909425008926 a26.0256335180845,26.0256335180845 0 0,0 0.2328478751257515,-0.38274068348031604 l 4.270869259421827 2.648899399188283" fill="#ff3d05" stroke="none" /><path d="M 82.15384107792192 88.93136811851018 l -4.194533280820727 -2.601553925569108 a25.935807155021024,25.935807155021024 0 0,0 0.2385753434017415,-0.3773688992689121 l 4.149130341173024 2.673370472552236" fill="#ff3c05" stroke="none" /><path d="M 82.54541684631803 88.32363383020207 l -4.102915455598358 -2.7446741524264904 a25.936309495846665,25.936309495846665 0 0,0 0.25142847924751943,-0.3689402686509363 l 4.055062510682098 2.81489244434784" fill="#ff3c05" stroke="none" /><path d="M 83.39014120810768 87.1503855733568 l -3.884086366557022 -3.0047824509140977 a25.910686762581733,25.910686762581733 0 0,0 0.2759437792123436,-0.3504205770701598 l 3.831788506750707 3.0711954219373028" fill="#ff3c05" stroke="none" /><path d="M 83.6137871275137 86.86637796730984 l -3.8157960863714093 -3.0583774263281858 a25.890191433332767,25.890191433332767 0 0,0 0.2817117991879715,-0.34534535582636783 l 3.762585795107045 3.123606951762636" fill="#ff3b05" stroke="none" /><path d="M 84.5562425177563 85.77008943001954 l -3.4604806701679505 -3.188494155146625 a25.705467186795612,25.705467186795612 0 0,0 0.302630071075809,-0.32282465955217593 l 3.4050832771216832 3.247588231576853" fill="#ff3905" stroke="none" /><path d="M 85.57189188830299 84.74124197986013 l -3.818124077539013 -4.037939758907525 a26.557250126460865,26.557250126460865 0 0,0 0.33486430769404274,-0.31121987917097355 l 3.7480518860501144 4.103064224153148" fill="#ff4506" stroke="none" /><path d="M 86.65592168130627 83.78471172551755 l -1.0014345944966532 -1.2169106213243717 a22.575989437574613,22.575989437574613 0 0,0 0.30219209071171227,-0.24435165463761976 l 0.9803391052204403 1.2339683732261257" fill="#ff0c01" stroke="none" /><path d="M 86.93701828274178 83.55741782278169 l -2.9618083665379986 -3.728075145020972 a25.76139192747432,25.76139192747432 0 0,0 0.3495789539575693,-0.2728519184933681 l 2.8971968574210036 3.778505452737562" fill="#ff3a05" stroke="none" /><path d="M 87.51073957382395 83.11751280151077 l -5.279466063241395 -7.136572958373416 a29.877129913609707,29.877129913609707 0 0,0 0.4160812655781758,-0.3023007345488387 l 5.155839481309437 7.226392927738923" fill="#ff720a" stroke="none" /><path d="M 88.09926311788651 82.69761687909137 l -4.9959630400600235 -7.26358942587313 a29.815859461521704,29.815859461521704 0 0,0 0.42536626318601595,-0.2872091996972842 l 4.87019208246747 7.34851053786908" fill="#ff710a" stroke="none" /><path d="M 89.00827224532344 82.1063720568725 l -2.5043523014610396 -4.076879387937274 a25.78463436362916,25.78463436362916 0 0,0 0.380185757508933,-0.22905766497165797 l 2.4338044777344594 4.119383662367552" fill="#ff3a05" stroke="none" /><line stroke="#e1ed5e" stroke-width="0.3" x1="56.76296977257108" x2="54.21961505331056" y1="26.818313649435495" y2="22.513508569990535" /><path d="M 56.25429882871898 25.957352633546506 a86.0,86.0 0 0,1 42.26535254187918,-11.944610805530505" fill="none" id="id72" stroke="none" /><text fill="#e1ed5e" style="font-size:6.75px; font-family:Arial;" text-anchor="middle"><textPath startOffset="22.20632615414155" xlink:href="#id72">December</textPath></text><path d="M 89.3179101791058 81.91981866633112 l -3.1654052777151906 -5.357668993168258 a27.222893829444928,27.222893829444928 0 0,0 0.4054957210285706,-0.2348892945575028 l 3.0727128242212975 5.411362445115808" fill="#ff4e07" stroke="none" /><path d="M 89.63071344664047 81.73862282372117 l -2.380344688740392 -4.192031143797168 a25.82070181070972,25.82070181070972 0 0,0 0.3883875097741436,-0.21613722869107765 l 2.3078330898942023 4.23238377004843" fill="#ff3a05" stroke="none" /><path d="M 90.26544431104013 81.39251694778311 l -1.0121836842179115 -1.9347766196638458 a23.18354674293792,23.18354674293792 0 0,0 0.35519347738266305,-0.18194389490490923 l 0.9787297192464836 1.95191303988126" fill="#ff1502" stroke="none" /><path d="M 91.23893434514133 80.91482961587045 l -6.0295190493849855 -13.134749004882739 a35.45256833189743,35.45256833189743 0 0,0 0.5568043324827777,-0.24982187352830265 l 5.802532598435433 13.23659120892757" fill="#ffbc11" stroke="none" /><path d="M 91.56875222667455 80.76684994638697 l -3.5476681786745714 -8.09285129026207 a29.83629965043494,29.83629965043494 0 0,0 0.4721469991083275,-0.20214870467179244 l 3.4078374217759357 8.152719522896648" fill="#ff720a" stroke="none" /><path d="M 91.90106846888425 80.62456947434976 l -1.9169621707569593 -4.58603301152791 a25.97055758913796,25.97055758913796 0 0,0 0.41394116861277985,-0.16885699612091795 l 1.837737132555799 4.618350893832404" fill="#ff3d05" stroke="none" /><path d="M 93.25333710446033 80.11325718540243 l -3.08729285214933 -9.100232202890885 a30.60966197644145,30.60966197644145 0 0,0 0.5004201315174149,-0.16498064956176886 l 2.930189898389506 9.152026576711888" fill="#ff7c0b" stroke="none" /><path d="M 93.94186890950719 79.89281104454417 l -0.2564167919924454 -0.8510579931218528 a21.88884716283076,21.88884716283076 0 0,0 0.36169733753615285,-0.10558937122085495 l 0.24172923673287122 0.8553456932614065" fill="#ff0200" stroke="none" /><path d="M 94.28887869178378 79.79150937346287 l -2.6239237505709987 -9.284610789456998 a30.648262712038466,30.648262712038466 0 0,0 0.5089101856816061,-0.1391043779404207 l 2.463715675665671 9.328401708223714" fill="#ff7d0b" stroke="none" /><path d="M 94.98787191387505 79.60689891045804 l -1.140890574401048 -4.641999648866545 a25.780145608957355,25.780145608957355 0 0,0 0.43184974151847866,-0.10220488131187024 l 1.060817145920036 4.660950442319287" fill="#ff3a05" stroke="none" /><path d="M 96.40284397218896 79.31037775812273 l -0.8615036783008244 -4.95507715712802 a26.029411319510242,26.029411319510242 0 0,0 0.4420919428127235,-0.07294895855403583 l 0.7760825293492153 4.969172378621683" fill="#ff3d05" stroke="none" /><path d="M 96.75951476605007 79.25152402106235 l -0.1701817777510708 -1.0896554907046885 a22.10286487200445,22.10286487200445 0 0,0 0.37641286188679723,-0.05547347117139969 l 0.1513999354356242 1.0924234460370572" fill="#ff0500" stroke="none" /><path d="M 98.91598698831166 79.02799685794201 l -0.045800205219847775 -0.886079814006611 a21.887262698183672,21.887262698183672 0 0,0 0.37641836082629565,-0.016209366434237822 l 0.030541012004227902 0.8867369069650413" fill="#ff0200" stroke="none" /></svg>