<?xml version="1.0" encoding="utf-8" ?>
<svg baseProfile="full" height="200mm" version="1.1" viewBox="0,0,200,200" width="200mm" xmlns="http://www.w3.org/2000/svg" xmlns:ev="http://www.w3.org/2001/xml-events" xmlns:xlink="http://www.w3.org/1999/xlink"><defs /><rect fill="#1a1a1a" height="200" width="200" x="0" y="0" /><text alignment-baseline="middle" fill="#e1ed5e" style="dominant-baseline: central; font-size:9.0px; font-family:Arial;" text-anchor="middle" x="100.0" y="100.0">2024</text><line stroke="#e1ed5e" stroke-width="0.3" x1="100.0" x2="100.0" y1="15.0" y2="10.0" /><path d="M 100.0 14.0 a86.0,86.0 0 0,1 42.35913384403234,11.155469271406648" fill="none" id="id97" stroke="none" /><text fill="#e1ed5e" style="font-size:6.75px; font-family:Arial;" text-anchor="middle"><textPath startOffset="22.145653131862478" xlink:href="#id97">January</textPath></text><path d="M 100.36049292484886 79.00309439819443 l 0.3959801652584604 -23.063859446354606 a44.0672584598274,44.0672584598274 0 0,0 0.7562501540154897,0.019478321363463526 l -0.7918436333446914 23.0536634076411" fill="#ffdb14" stroke="none" /><path d="M 101.08105385017728 79.02784411241856 l 1.226569625470948 -23.795123053426778 a44.82671513603691,44.82671513603691 0 0,0 0.7681498389072436,0.04620998682434063 l -1.634863816510654 23.770561088777743" fill="#ffe615" stroke="none" /><path d="M 101.44090949804482 79.04949213459386 l 0.9853075246552406 -14.326155163210286 a35.359998352316026,35.359998352316026 0 0,0 0.6052133215485256,0.046847338724412164 l -1.2310898409789996 14.30713005749082" fill="#ff5708" stroke="none" /><path d="M 101.80034050326958 79.07731436759882 l 1.9342916508415406 -22.479401012440505 a43.562467818672374,43.562467818672374 0 0,0 0.7445042247689446,0.07050532414374303 l -2.3198954389954984 22.442883932791577" fill="#ffd413" stroke="none" /><path d="M 102.87502721639298 79.19773525538626 l 2.859850616068355 -20.692454424879745 a41.889145881819864,41.889145881819864 0 0,0 0.7114669849325002,0.10456114607388271 l -3.2146427066085366 20.64031220550698" fill="#ffbb11" stroke="none" /><path d="M 103.23170211078529 79.25015418208739 l 3.1205064782542933 -20.035890090698967 a41.27743702757812,41.27743702757812 0 0,0 0.699205379381892,0.11505397909843866 l -3.4639893606892556 19.97937011310486" fill="#ffb210" stroke="none" /><path d="M 103.58742460773223 79.30868818359171 l 4.673737534898876 -26.956876103878916 a48.35903857640105,48.35903857640105 0 0,0 0.8167272048530548,0.14883490333887223 l -5.135799473302985 26.872673026608677" fill="#e7ff1a" stroke="none" /><path d="M 103.94208987418118 79.37332000966035 l 11.82626962254352 -61.88003997101897 a84.0,84.0 0 0,0 1.4140140578761722,0.2828424133485634 l -12.88678016595065 61.66790816100754" fill="#4dd2ff" stroke="none" /><path d="M 104.9986988182912 79.60360301121754 l 2.5619245155603907 -10.453526282371003 a31.762883858875867,31.762883858875867 0 0,0 0.5284658805803708,0.13433396029377995 l -2.7409956893661556 10.408007090241956" fill="#ff1d02" stroke="none" /><path d="M 105.3480935250658 79.69241777938227 l 7.622374344597834 -28.9433969308424 a50.93026589500134,50.93026589500134 0 0,0 0.8435473206487124,0.22991257333112294 l -8.11810306618124 28.808283863367134" fill="#c5ff1e" stroke="none" /><path d="M 105.69591212413111 79.78721728523813 l 6.076323926592748 -21.56272999936134 a43.40252301608551,43.40252301608551 0 0,0 0.7153975609235698,0.2082418036690857 l -6.445581499897923 21.45524450138974" fill="#ffd113" stroke="none" /><path d="M 106.04205211174951 79.88797359093562 l 6.686626439252007 -22.257604708881715 a44.24030852882417,44.24030852882417 0 0,0 0.7254554593595103,0.22474795573055587 l -7.067722531483147 22.139540165344513" fill="#ffdd14" stroke="none" /><path d="M 106.38641147887787 79.99465700312896 l 2.7469606138392617 -8.604814998297838 a30.032642679134142,30.032642679134142 0 0,0 0.48978558314063964,0.1610022495561545 l -2.8942689346276436 8.556391827339663" fill="#ff0000" stroke="none" /><path d="M 106.72888874123014 80.10723608172694 l 9.379311162970943 -27.72826685894863 a50.271628941569006,50.271628941569006 0 0,0 0.8151047373570882,0.2835357394842688 l -9.85392167237305 27.56317268689577" fill="#cdff1d" stroke="none" /><path d="M 107.06938296918511 80.22567764915836 l 3.946728781247696 -11.039702827237326 a32.72397998063971,32.72397998063971 0 0,0 0.5273404679286536,0.1936467242499847 l -4.135658400830474 10.970325253978618" fill="#ff2d04" stroke="none" /><path d="M 107.74402155503746 80.48000691201159 l 8.231059312137177 -20.747646392490314 a43.32073404321051,43.32073404321051 0 0,0 0.6888936129374092,0.280167035114629 l -8.586007386265026 20.60329210079639" fill="#ffd013" stroke="none" /><path d="M 108.07796709384702 80.6158196554323 l 7.0541833830158165 -16.92747213394637 a39.338506374477376,39.338506374477376 0 0,0 0.6211080432838644,0.26511409031065597 l -7.343726501470111 16.803883393976314" fill="#ff950d" stroke="none" /><path d="M 108.73861861582097 80.90454125486305 l 10.08849428736585 -22.045180701234447 a45.243921075937635,45.243921075937635 0 0,0 0.7034595647619294,0.3292545960642928 l -10.465442565999282 21.868749873599622" fill="#ffec16" stroke="none" /><path d="M 109.06512990194946 81.05736502329252 l 10.524086878445523 -21.991293931560687 a45.379774679216524,45.379774679216524 0 0,0 0.6997988057457638,0.34230666325560805 l -10.900045933453354 21.80739351820786" fill="#ffee16" stroke="none" /><path d="M 109.3889696526874 81.21577127319529 l 12.011936786871006 -24.031920051197673 a47.866704426091076,47.866704426091076 0 0,0 0.7318426560714283,0.3736840747754475 l -12.422706664656014 23.82217802474939" fill="#eeff19" stroke="none" /><path d="M 109.71004243097381 81.37971332152246 l 10.949571254881208 -20.99724663632163 a44.680740633946414,44.680740633946414 0 0,0 0.6770433994600799,0.3604874755913601 l -11.308403470127848 20.806188693007694" fill="#ffe415" stroke="none" /><path d="M 110.02825361518725 81.54914285379988 l 12.832707107502332 -23.610735699880006 a47.87275966469631,47.87275966469631 0 0,0 0.718674557776273,0.39863666251119645 l -13.236125853434705 23.386966121935664" fill="#eeff19" stroke="none" /><path d="M 110.34350942703115 81.72400993836675 l 11.212502265863003 -19.81141714256355 a43.764280271044015,43.764280271044015 0 0,0 0.6506446637756453,0.3756498717776624 l -11.550939397499045 19.616020373509716" fill="#ffd614" stroke="none" /><line stroke="#e1ed5e" stroke-width="0.3" x1="143.13028292997686" x2="145.6673583964461" y1="26.7553504044142" y2="22.446841604673864" /><path d="M 143.63769802327073 25.89364864446614 a86.0,86.0 0 0,1 29.32050498858742,28.57503671076993" fill="none" id="id98" stroke="none" /><text fill="#e1ed5e" style="font-size:6.75px; font-family:Arial;" text-anchor="middle"><textPath startOffset="20.669276256404974" xlink:href="#id98">February</textPath></text><path d="M 110.65571695917076 81.90426304109057 l 10.14350601832243 -17.22589080134144 a40.990548472802914,40.990548472802914 0 0,0 0.6032778963660985,0.3622510431859954 l -10.437716671245964 17.04922575761952" fill="#ffae10" stroke="none" /><path d="M 110.96478420261332 82.08984904055464 l 5.935138571543292 -9.69460281363605 a32.367110168269726,32.367110168269726 0 0,0 0.4713820636605774,0.29417727099089125 l -6.100684763993582 9.591289745803614" fill="#ff2703" stroke="none" /><path d="M 111.8722381534696 82.67804972795209 l 5.656998119179437 -8.253729317319804 a31.00628179515169,31.00628179515169 0 0,0 0.4364575763379284,0.3046812852874607 l -5.797850786691126 8.155403216227217" fill="#ff1001" stroke="none" /><path d="M 112.16784306229584 82.88440491214696 l 33.064665625401645 -46.50959300364686 a78.06500113278273,78.06500113278273 0 0,0 1.085545845521441,0.7858514772490627 l -33.85819248129705 45.935140755024726" fill="#45ffeb" stroke="none" /><path d="M 113.03279911837588 83.53348406188908 l 11.740658809928657 -14.833938869281422 a39.917949457294085,39.917949457294085 0 0,0 0.5336635028158572,0.4298815418112167 l -11.993573083099774 14.630209033676797" fill="#ff9e0e" stroke="none" /><line stroke="#e1ed5e" stroke-width="0.3" x1="172.87174338648825" x2="177.1583165268699" y1="56.24261187166439" y2="53.66864786411523" /><path d="M 173.72905801456457 55.72781907015455 a86.0,86.0 0 0,1 12.242430191666344,42.057860355516425" fill="none" id="id99" stroke="none" /><text fill="#e1ed5e" style="font-size:6.75px; font-family:Arial;" text-anchor="middle"><textPath startOffset="22.145653131862474" xlink:href="#id99">March</textPath></text><line stroke="#e1ed5e" stroke-width="0.3" x1="184.99686870605535" x2="189.99668451229388" y1="99.2704041080226" y2="99.22748670261217" /><path d="M 185.99683186730306 99.26182062694052 a86.0,86.0 0 0,1 -10.086455211305974,41.156179273409016" fill="none" id="id100" stroke="none" /><text fill="#e1ed5e" style="font-size:6.75px; font-family:Arial;" text-anchor="middle"><textPath startOffset="21.40746469413373" xlink:href="#id100">April</textPath></text><line stroke="#e1ed5e" stroke-width="0.3" x1="174.33088141563837" x2="178.70328620479359" y1="141.23008692659167" y2="143.65538615756765" /><path d="M 175.20536237346943 141.71514677278685 a86.0,86.0 0 0,1 -30.301960400862466,31.631185727798858" fill="none" id="id101" stroke="none" /><text fill="#e1ed5e" style="font-size:6.75px; font-family:Arial;" text-anchor="middle"><textPath startOffset="22.145653131862474" xlink:href="#id101">May</textPath></text><line stroke="#e1ed5e" stroke-width="0.3" x1="143.1302829299769" x2="145.66735839644613" y1="173.24464959558577" y2="177.55315839532614" /><path d="M 143.63769802327073 174.10635135553383 a86.0,86.0 0 0,1 -40.68552437913181,11.842963189579606" fill="none" id="id102" stroke="none" /><text fill="#e1ed5e" style="font-size:6.75px; font-family:Arial;" text-anchor="middle"><textPath startOffset="21.407464694133747" xlink:href="#id102">June</textPath></text><line stroke="#e1ed5e" stroke-width="0.3" x1="101.45913802915013" x2="101.54496967792366" y1="184.9874750549273" y2="189.98673829345242" /><path d="M 101.47630435890484 185.9873277026323 a86.0,86.0 0 0,1 -42.54439059252881,-10.42667462771756" fill="none" id="id103" stroke="none" /><text fill="#e1ed5e" style="font-size:6.75px; font-family:Arial;" text-anchor="middle"><textPath startOffset="22.145653131862474" xlink:href="#id103">July</textPath></text><line stroke="#e1ed5e" stroke-width="0.3" x1="58.13341422392154" x2="55.67067388415222" y1="173.97424548756322" y2="178.32567169271397" /><path d="M 57.64086615596768 174.84453072859336 a86.0,86.0 0 0,1 -31.369924170532247,-30.572349798747897" fill="none" id="id104" stroke="none" /><text fill="#e1ed5e" style="font-size:6.75px; font-family:Arial;" text-anchor="middle"><textPath startOffset="22.145653131862474" xlink:href="#id104">August</textPath></text><line stroke="#e1ed5e" stroke-width="0.3" x1="26.387840678322732" x2="22.057713659400548" y1="142.50000000000003" y2="145.00000000000006" /><path d="M 25.521815274538298 143.00000000000003 a86.0,86.0 0 0,1 -11.493303480769221,-40.785679425670985" fill="none" id="id105" stroke="none" /><text fill="#e1ed5e" style="font-size:6.75px; font-family:Arial;" text-anchor="middle"><textPath startOffset="21.40746469413373" xlink:href="#id105">September</textPath></text><line stroke="#e1ed5e" stroke-width="0.3" x1="15.003131293944662" x2="10.003315487706104" y1="100.72959589197737" y2="100.7725132973878" /><path d="M 14.003168132696942 100.73817937305945 a86.0,86.0 0 0,1 10.791469493833604,-42.45332614584628" fill="none" id="id106" stroke="none" /><text fill="#e1ed5e" style="font-size:6.75px; font-family:Arial;" text-anchor="middle"><textPath startOffset="22.145653131862435" xlink:href="#id106">October</textPath></text><line stroke="#e1ed5e" stroke-width="0.3" x1="26.387840678322718" x2="22.05771365940052" y1="57.49999999999999" y2="54.99999999999999" /><path d="M 25.521815274538284 56.99999999999999 a86.0,86.0 0 0,1 29.574782752854787,-30.34633250058573" fill="none" id="id107" stroke="none" /><text fill="#e1ed5e" style="font-size:6.75px; font-family:Arial;" text-anchor="middle"><textPath startOffset="21.40746469413373" xlink:href="#id107">November</textPath></text><line stroke="#e1ed5e" stroke-width="0.3" x1="56.869717070023135" x2="54.33264160355391" y1="26.7553504044142" y2="22.446841604673864" /><path d="M 56.362301976729285 25.89364864446614 a86.0,86.0 0 0,1 42.16139366436587,-11.88097634709845" fill="none" id="id108" stroke="none" /><text fill="#e1ed5e" style="font-size:6.75px; font-family:Arial;" text-anchor="middle"><textPath startOffset="22.145653131862474" xlink:href="#id108">December</textPath></text></svg>