<?xml version="1.0" encoding="utf-8" ?>
<svg baseProfile="full" height="200mm" version="1.1" viewBox="0,0,200,200" width="200mm" xmlns="http://www.w3.org/2000/svg" xmlns:ev="http://www.w3.org/2001/xml-events" xmlns:xlink="http://www.w3.org/1999/xlink"><defs /><rect fill="#1a1a1a" height="200" width="200" x="0" y="0" /><text alignment-baseline="middle" fill="#e1ed5e" style="dominant-baseline: central; font-size:9.0px; font-family:Arial;" text-anchor="middle" x="100.0" y="100.0">2018</text><line stroke="#e1ed5e" stroke-width="0.3" x1="100.0" x2="100.0" y1="15.0" y2="10.0" /><path d="M 100.0 14.0 a86.0,86.0 0 0,1 42.46469731375804,11.215312516191453" fill="none" id="id25" stroke="none" /><text fill="#e1ed5e" style="font-size:6.75px; font-family:Arial;" text-anchor="middle"><textPath startOffset="22.20632615414155" xlink:href="#id25">January</textPath></text><path d="M 104.307194497241 79.44645832069477 l 1.8255325663927107 -8.71127591621785 a29.900499830876775,29.900499830876775 0 0,0 0.5028370984152551,0.10990071367287585 l -1.9752123889614932 8.678561704449104" fill="#ff5307" stroke="none" /><line stroke="#e1ed5e" stroke-width="0.3" x1="143.23703022742887" x2="145.7803849466894" y1="26.81831364943548" y2="22.513508569990506" /><path d="M 143.74570117128098 25.957352633546492 a86.0,86.0 0 0,1 28.547481713284135,27.462654790039103" fill="none" id="id26" stroke="none" /><text fill="#e1ed5e" style="font-size:6.75px; font-family:Arial;" text-anchor="middle"><textPath startOffset="19.985693538727396" xlink:href="#id26">February</textPath></text><line stroke="#e1ed5e" stroke-width="0.3" x1="172.23445277983987" x2="176.4835382374775" y1="55.19839476539836" y2="52.563006222186495" /><path d="M 173.08426987136738 54.67131705675599 a86.0,86.0 0 0,1 12.851231095245387,41.99856678651699" fill="none" id="id27" stroke="none" /><text fill="#e1ed5e" style="font-size:6.75px; font-family:Arial;" text-anchor="middle"><textPath startOffset="22.20632615414155" xlink:href="#id27">March</textPath></text><path d="M 120.98425023603335 99.18683210126433 l 8.927405974445968 -0.3459489796273386 a29.93410645386984,29.93410645386984 0 0,0 0.015520557012713423,0.5150517272352939 l -8.932038225914326 0.19222710496704562" fill="#ff5407" stroke="none" /><line stroke="#e1ed5e" stroke-width="0.3" x1="184.98032266829074" x2="189.97916517819016" y1="98.17113171792111" y2="98.06355123074" /><path d="M 185.9800911702706 98.14961562048488 a86.0,86.0 0 0,1 -9.607161424134198,41.387399972396054" fill="none" id="id28" stroke="none" /><text fill="#e1ed5e" style="font-size:6.75px; font-family:Arial;" text-anchor="middle"><textPath startOffset="21.466115282336823" xlink:href="#id28">April</textPath></text><path d="M 120.99513854157772 99.54816195383933 l 15.116506034503761 -0.3253235284863642 a36.12000628602301,36.12000628602301 0 0,0 0.008027229154520902,0.6217177443345471 l -15.119866270775997 0.06506952609135441" fill="#ffaa0f" stroke="none" /><path d="M 120.92983693683757 101.71520430193887 l 12.076584813281695 0.9896785286469691 a33.11706913170222,33.11706913170222 0 0,0 -0.05145036907341862,0.5677505354350677 l -12.0577598479312 -1.1974104526306077" fill="#ff810b" stroke="none" /><path d="M 120.49622156327973 104.57218783832717 l 8.660097544602724 1.9318483921493863 a29.872954845612835,29.872954845612835 0 0,0 -0.11627611538393061,0.5009144618453027 l -8.62556086328824 -2.0806315113432534" fill="#ff5307" stroke="none" /><path d="M 120.23288151984713 105.62410040840565 l 7.3928440648922775 2.054976562970263 a28.67313964698741,28.67313964698741 0 0,0 -0.1362757362077358,0.4743937154361412 l -7.356375691798442 -2.1819277539109865" fill="#ff4206" stroke="none" /><path d="M 119.9155931802556 106.66101706037122 l 43.76158123854258 14.636603418257423 a67.14440542602003,67.14440542602003 0 0,0 -0.3760379870935734,1.0929424099739304 l -43.50315242050578 -15.387718531320653" fill="#37ff7a" stroke="none" /><line stroke="#e1ed5e" stroke-width="0.3" x1="174.80103733775053" x2="179.2010983576182" y1="140.37084112569926" y2="142.7455964860345" /><path d="M 175.68104954172406 140.8457921977663 a86.0,86.0 0 0,1 -30.038265399797805,32.042727171017184" fill="none" id="id29" stroke="none" /><text fill="#e1ed5e" style="font-size:6.75px; font-family:Arial;" text-anchor="middle"><textPath startOffset="22.206326154141568" xlink:href="#id29">May</textPath></text><path d="M 117.75023020441432 111.22182372390056 l 49.838098531798074 31.508005812743665 a79.96261947675919,79.96261947675919 0 0,0 -0.7455377145324287,1.1570910891755743 l -49.2883559538886 -32.361218501840696" fill="#48f9ff" stroke="none" /><path d="M 116.27256486870786 113.27417163493432 l 5.707139556889831 4.65553836373763 a28.365153045120618,28.365153045120618 0 0,0 -0.31188701436905664,0.37568800046406764 l -5.62615654262723 -4.7530876213154665" fill="#ff3d05" stroke="none" /><path d="M 114.29624159901734 115.38237550388516 l 3.474610912496823 3.738588874267273 a26.10391690410777,26.10391690410777 0 0,0 -0.3317689134469481,0.3030630362687736 l -3.4097424495830113 -3.7978446771226295" fill="#ff1c02" stroke="none" /><path d="M 114.0293411484842 115.62618273729858 l 14.418513683940215 16.05965150044363 a42.58253792234992,42.58253792234992 0 0,0 -0.5496344064999129,0.48498845883952485 l -14.139936924533714 -16.30546310105544" fill="#fffe18" stroke="none" /><line stroke="#e1ed5e" stroke-width="0.3" x1="143.8653032363475" x2="146.44561519142675" y1="172.8068346515853" y2="177.08958963109032" /><path d="M 144.38136562736335 173.6633856474863 a86.0,86.0 0 0,1 -40.68145358897372,12.25698825130547" fill="none" id="id30" stroke="none" /><text fill="#e1ed5e" style="font-size:6.75px; font-family:Arial;" text-anchor="middle"><textPath startOffset="21.466115282336833" xlink:href="#id30">June</textPath></text><path d="M 110.5260780823613 118.17145234162733 l 2.563173112752123 4.424874839163966 a26.113645837189132,26.113645837189132 0 0,0 -0.3908979413858824,0.22196205292850188 l -2.4866264044450426 -4.468340057887096" fill="#ff1c02" stroke="none" /><path d="M 109.89434966115114 118.52300852407294 l 29.683048983453418 55.56902557221878 a84.0,84.0 0 0,0 -1.2812363898940176,0.6702823242211329 l -28.722121691032903 -56.07173731538463" fill="#4dd2ff" stroke="none" /><path d="M 103.06178313531737 120.77559828337769 l 0.799859794938708 5.427414368767473 a26.48603704160508,26.48603704160508 0 0,0 -0.45161393320787185,0.06258957602707976 l -0.7063172705440051 -5.440378510287156" fill="#ff2103" stroke="none" /><line stroke="#e1ed5e" stroke-width="0.3" x1="102.19456741930631" x2="102.32365962044197" y1="184.97166512339345" y2="189.96999836594603" /><path d="M 102.22038585953345 185.97133177190398 a86.0,86.0 0 0,1 -42.740103519485714,-10.115201625700543" fill="none" id="id31" stroke="none" /><text fill="#e1ed5e" style="font-size:6.75px; font-family:Arial;" text-anchor="middle"><textPath startOffset="22.20632615414155" xlink:href="#id31">July</textPath></text><path d="M 98.01472825383883 120.90594882070398 l -0.5068011807174514 5.3368812440104145 a26.360890676878867,26.360890676878867 0 0,0 -0.4513579529451976,-0.04678509731409163 l 0.5985917302682426 -5.327366778240562" fill="#ff2003" stroke="none" /><path d="M 96.93821686468263 120.77559828337769 l -1.764371289149807 11.972065788487702 a33.10137865244509,33.10137865244509 0 0,0 -0.5629821580841904,-0.08792623477989364 l 1.970189310842515 -11.939921246360703" fill="#ff810b" stroke="none" /><path d="M 93.08242187328487 119.8279376855182 l -2.946978053272983 8.446958766569596 a29.946272522710203,29.946272522710203 0 0,0 -0.48524432245379867,-0.17399134986587705 l 3.091941936356508 -8.394979875663761" fill="#ff5407" stroke="none" /><line stroke="#e1ed5e" stroke-width="0.3" x1="58.666819895761336" x2="56.23545636021788" y1="174.27360380694188" y2="178.64263932499728" /><path d="M 58.180547188652646 175.14741091055294 a86.0,86.0 0 0,1 -31.652253787137756,-30.449443065178592" fill="none" id="id32" stroke="none" /><text fill="#e1ed5e" style="font-size:6.75px; font-family:Arial;" text-anchor="middle"><textPath startOffset="22.20632615414155" xlink:href="#id32">August</textPath></text><path d="M 88.8546689885994 117.79835938074946 l -6.675647947276475 10.660569986073293 a33.57823628113033,33.57823628113033 0 0,0 -0.4872333166680309,-0.3109753553440425 l 6.858163065991429 -10.544080201905446" fill="#ff870c" stroke="none" /><line stroke="#e1ed5e" stroke-width="0.3" x1="26.63291911575756" x2="22.317208475507996" y1="142.92168965132927" y2="145.44649492493687" /><path d="M 25.769776987707644 143.4266507060508 a86.0,86.0 0 0,1 -11.730757126820373,-40.83630448921669" fill="none" id="id33" stroke="none" /><text fill="#e1ed5e" style="font-size:6.75px; font-family:Arial;" text-anchor="middle"><textPath startOffset="21.46611528233685" xlink:href="#id33">September</textPath></text><path d="M 81.69416730710424 110.29060199501025 l -9.958566856458344 5.598196469930818 a32.42422240463203,32.42422240463203 0 0,0 -0.26931187107421434,-0.48887927292058986 l 10.053455136984075 -5.425946678612407" fill="#ff770b" stroke="none" /><path d="M 80.58989483394504 108.01547362559985 l -8.220353701414899 3.3946250019306388 a29.893688429448055,29.893688429448055 0 0,0 -0.19231234081060034,-0.4773034584716261 l 8.277568656482886 -3.2526221756162075" fill="#ff5307" stroke="none" /><path d="M 79.76711848015287 105.62410040840567 l -7.5609989450922415 2.101718295208474 a28.84767002619886,28.84767002619886 0 0,0 -0.12886930562930968,-0.47957062680506 l 7.596056327063323 -1.9712567352278751" fill="#ff4406" stroke="none" /><line stroke="#e1ed5e" stroke-width="0.3" x1="15.007084014347285" x2="10.007500721073583" y1="101.09737516637583" y2="101.16192664675087" /><path d="M 14.007167355692545 101.11028546245083 a86.0,86.0 0 0,1 10.666146001902534,-42.60595125391555" fill="none" id="id34" stroke="none" /><text fill="#e1ed5e" style="font-size:6.75px; font-family:Arial;" text-anchor="middle"><textPath startOffset="22.20632615414155" xlink:href="#id34">October</textPath></text><path d="M 79.00175016825051 100.2711162175752 l -5.706664164500031 0.0736808646267215 a26.707139805208996,26.707139805208996 0 0,0 -0.001978493799265981,-0.45973228113678055 l 5.7070869555888 0.024560894713734415" fill="#ff2503" stroke="none" /><path d="M 79.00019446554 99.90962569577889 l -8.932662116606412 -0.03844240949307548 a29.93274483618014,29.93274483618014 0 0,0 0.006652186052270919,-0.5152191407146075 l 8.930676923436426 0.192197808268155" fill="#ff5407" stroke="none" /><path d="M 79.01574976396665 99.18683210126434 l -11.794012614076927 -0.45703383953086246 a32.80286462988888,32.80286462988888 0 0,0 0.02672088825820878,-0.5640357185143723 l 11.78439811758522 0.6599806646682437" fill="#ff7d0b" stroke="none" /><path d="M 79.03285615573316 98.82574320788736 l -60.37820539674082 -3.3814580712232605 a81.47281989140627,81.47281989140627 0 0,0 0.09047133376530878,-1.3995514897891297 l 60.31105347197109 4.420268625265402" fill="#4aeaff" stroke="none" /><path d="M 79.05617556472873 98.46500227214037 l -3.251042798183394 -0.23827278173616423 a24.259762751203898,24.259762751203898 0 0,0 0.03410866750694441,-0.41621213767142423 l 3.2464596468569527 0.29419883661536655" fill="#ff0000" stroke="none" /><line stroke="#e1ed5e" stroke-width="0.3" x1="26.266209847984243" x2="21.928928074336255" y1="57.71137044288968" y2="55.22380399835378" /><path d="M 25.398753493254645 57.2138571539825 a86.0,86.0 0 0,1 29.58750427330803,-30.4925239686951" fill="none" id="id35" stroke="none" /><text fill="#e1ed5e" style="font-size:6.75px; font-family:Arial;" text-anchor="middle"><textPath startOffset="21.46611528233685" xlink:href="#id35">November</textPath></text><line stroke="#e1ed5e" stroke-width="0.3" x1="56.76296977257108" x2="54.21961505331056" y1="26.818313649435495" y2="22.513508569990535" /><path d="M 56.25429882871898 25.957352633546506 a86.0,86.0 0 0,1 42.26535254187918,-11.944610805530505" fill="none" id="id36" stroke="none" /><text fill="#e1ed5e" style="font-size:6.75px; font-family:Arial;" text-anchor="middle"><textPath startOffset="22.20632615414155" xlink:href="#id36">December</textPath></text></svg>