<?xml version="1.0" encoding="utf-8" ?>
<svg baseProfile="full" height="200mm" version="1.1" viewBox="0,0,200,200" width="200mm" xmlns="http://www.w3.org/2000/svg" xmlns:ev="http://www.w3.org/2001/xml-events" xmlns:xlink="http://www.w3.org/1999/xlink"><defs /><rect fill="#1a1a1a" height="200" width="200" x="0" y="0" /><text alignment-baseline="middle" fill="#e1ed5e" style="dominant-baseline: central; font-size:9.0px; font-family:Arial;" text-anchor="middle" x="100.0" y="100.0">2021</text><line stroke="#e1ed5e" stroke-width="0.3" x1="100.0" x2="100.0" y1="15.0" y2="10.0" /><path d="M 100.0 14.0 a86.0,86.0 0 0,1 42.46469731375804,11.215312516191453" fill="none" id="id61" stroke="none" /><text fill="#e1ed5e" style="font-size:6.75px; font-family:Arial;" text-anchor="middle"><textPath startOffset="22.20632615414155" xlink:href="#id61">January</textPath></text><path d="M 100.0 79.0 l 0.0 -6.15911183748921 a27.15911183748921,27.15911183748921 0 0,0 0.46749946493484756,0.004023915489542772 l -0.10601898566231917 6.158199298608226" fill="#ff4d07" stroke="none" /><path d="M 100.36148047927253 79.00311137660856 l 0.17866324268349357 -10.377800248768136 a31.37933805970391,31.37933805970391 0 0,0 0.5399836657139501,0.013946184978399128 l -0.3572735435923114 10.373187271647378" fill="#ff860c" stroke="none" /><path d="M 100.72285384407766 79.0124445844662 l 0.6449920946031767 -18.726894017334782 a39.73799814117265,39.73799814117265 0 0,0 0.6834163014847717,0.029429343546312246 l -0.96724922847728 18.713016947264276" fill="#fff116" stroke="none" /><path d="M 101.08401301168833 79.027996857942 l 0.517735224810032 -10.016433976709427 a31.029805550098573,31.029805550098573 0 0,0 0.5331776885525147,0.03216273421859719 l -0.6900749622021586 10.006037973110526" fill="#ff820b" stroke="none" /><path d="M 101.44485096284872 79.0497635885617 l 0.6040832455533726 -8.759164185058719 a29.779970033455335,29.779970033455335 0 0,0 0.5110949219310853,0.03967080255815697 l -0.7547683568467991 8.747468120312098" fill="#ff710a" stroke="none" /><path d="M 101.80526077348638 79.07773832637324 l 0.8542535700307502 -9.90046257599475 a30.937248531690393,30.937248531690393 0 0,0 0.5301684944533147,0.050345886798529596 l -1.0245471915743092 9.884291144681042" fill="#ff810b" stroke="none" /><path d="M 102.16513564639614 79.11191278185805 l 0.9710743258224239 -9.368413127759318 a30.418606578398133,30.418606578398133 0 0,0 0.5203512531332722,0.05846752625190239 l -1.1321922824654214 9.350309648036815" fill="#ff7a0b" stroke="none" /><path d="M 102.52436894288641 79.15227682838746 l 1.0235803103723309 -8.453328113819948 a29.51507327341818,29.51507327341818 0 0,0 0.5038437645491491,0.06541338105134548 l -1.1689388034293262 8.434456409604465" fill="#ff6d0a" stroke="none" /><path d="M 102.88285421437855 79.19881850522331 l 0.5516261094254341 -3.98024803411347 a25.018291400292416,25.018291400292416 0 0,0 0.4260627172104557,0.06279056922207649 l -0.6200578070645456 3.9701629807304246" fill="#ff2f04" stroke="none" /><path d="M 103.2404852339499 79.25152402106235 l 0.609395616592956 -3.9018941299531047 a24.949194958328242,24.949194958328242 0 0,0 0.4237451986658527,0.06992158856883296 l -0.676470021397684 3.890826278444647" fill="#ff2e04" stroke="none" /><path d="M 103.59715602781102 79.31037775812273 l 1.744821989172278 -10.035624686889935 a31.18617526994376,31.18617526994376 0 0,0 0.5280931466729551,0.09650564706803796 l -1.917310256948134 10.00410355847116" fill="#ff840c" stroke="none" /><path d="M 103.95276090670814 79.375362276772 l 1.8755216347242587 -9.786059711483704 a30.964163089745334,30.964163089745334 0 0,0 0.522606642940188,0.10482997614576281 l -2.043694687131572 9.752325779260733" fill="#ff810b" stroke="none" /><path d="M 104.307194497241 79.44645832069477 l 3.5833880318489815 -17.099602841921648 a38.471035663012465,38.471035663012465 0 0,0 0.6469679120829513,0.14140212702175922 l -3.87719866808546 17.03538721680402" fill="#ffe215" stroke="none" /><path d="M 104.66035177308747 79.52364482259891 l 2.2116022495993213 -9.717196336003914 a30.96569561761148,30.96569561761148 0 0,0 0.5187142016668616,0.122762892550845 l -2.3785401382287072 9.6776875313122" fill="#ff810b" stroke="none" /><path d="M 105.01212808612495 79.60689891045804 l 2.0173189062875476 -8.20796828789195 a29.45223751350523,29.45223751350523 0 0,0 0.49127890520563533,0.1252379317180424 l -2.158306700178208 8.17202736000504" fill="#ff6d0a" stroke="none" /><path d="M 105.36241919743992 79.69619591428918 l 2.0143896428277768 -7.6271121585918085 a28.88863774760071,28.88863774760071 0 0,0 0.4796918552399977,0.13111790450190158 l -2.1453793872914857 7.591307713263613" fill="#ff6509" stroke="none" /><path d="M 105.71112130821622 79.79150937346287 l 3.2179169131430387 -11.386423132471911 a32.83239709490784,32.83239709490784 0 0,0 0.5425315698819978,0.15837984244375566 l -3.413438700748464 11.329344961109452" fill="#ff9a0e" stroke="none" /><path d="M 106.0581310904928 79.89281104454417 l 2.546028045900949 -8.450372935171346 a29.82559128636663,29.82559128636663 0 0,0 0.4902966847431193,0.15233756659165498 l -2.6911101033547866 8.40529523369717" fill="#ff720a" stroke="none" /><path d="M 106.40334571778207 80.00007090966166 l 3.201332620874724 -9.998901860675788 a31.498884177325817,31.498884177325817 0 0,0 0.5149575246796415,0.16977339952481815 l -3.372972967796783 9.942314736891735" fill="#ff880c" stroke="none" /><path d="M 106.74666289553966 80.11325718540242 l 2.9188637495293195 -8.603763608245096 a30.08540113670712,30.08540113670712 0 0,0 0.4889851820444468,0.17059732853957063 l -3.06653093563704 8.552245426533318" fill="#ff750a" stroke="none" /><path d="M 107.08798089147638 80.2323363322302 l 3.578644665597505 -9.980478957139935 a31.602672203577857,31.602672203577857 0 0,0 0.5104849982985393,0.18801593303347205 l -3.749911989668621 9.917399756300139" fill="#ff890c" stroke="none" /><path d="M 107.4271985657038 80.35727306442388 l 3.3084797143349403 -8.749942932812361 a30.354546453336944,30.354546453336944 0 0,0 0.4871425320749619,0.18900373423176814 l -3.458605411409569 8.691696494690046" fill="#ff790b" stroke="none" /><path d="M 107.76421540070413 80.48803036053334 l 1.0898689424078623 -2.738910323550694 a23.947786300273105,23.947786300273105 0 0,0 0.3817004934453162,0.15570521520496713 l -1.136853305441566 2.7197442221621477" fill="#ff2003" stroke="none" /><path d="M 108.09893153111575 80.62456947434976 l 0.5403357142041841 -1.2926689219273446 a22.401055182982223,22.401055182982223 0 0,0 0.3544873561876397,0.15177298597934674 l -0.5625068281821392 1.283176407985207" fill="#ff0a01" stroke="none" /><path d="M 108.43124777332544 80.76684994638697 l 4.213190616488652 -9.611024312174829 a31.493939369945096,31.493939369945096 0 0,0 0.4946316363871885,0.22192679708080376 l -4.37800437134262 9.537077184577495" fill="#ff880c" stroke="none" /><path d="M 108.76106565485865 80.91482961587045 l 4.160401268585917 -9.063048972047916 a30.97235154742301,30.97235154742301 0 0,0 0.48261087017168675,0.2265922746508698 l -4.315790350057203 8.990091714757042" fill="#ff810b" stroke="none" /><path d="M 109.08828744355905 81.06846463323043 l 4.348576193049874 -9.058386907883335 a31.048108691672894,31.048108691672894 0 0,0 0.47980968454433354,0.23544052841532292 l -4.50385714460464 8.982191219333181" fill="#ff820c" stroke="none" /><path d="M 109.41281617654863 81.2277094730956 l 4.70959937633658 -9.392509754751753 a31.507119766077512,31.507119766077512 0 0,0 0.48271835004859337,0.2472670877773254 l -4.870578213973929 9.310050141661927" fill="#ff880c" stroke="none" /><path d="M 109.73455568895987 81.39251694778311 l 4.748741953551144 -9.077161633608746 a31.2442868694739,31.2442868694739 0 0,0 0.4743997921915333,0.2534079394834913 l -4.904286792270988 8.9940749676235" fill="#ff850c" stroke="none" /><path d="M 110.05341064243156 81.56283822128135 l 1.3867960886056658 -2.5432745909932106 a23.89679979228176,23.89679979228176 0 0,0 0.35944873345953354,0.200032831003344 l -1.4303689111372346 2.519026362429687" fill="#ff1f03" stroke="none" /><path d="M 110.36928655335952 81.73862282372117 l 0.6860559735507338 -1.208214936734495 a22.389408554814956,22.389408554814956 0 0,0 0.33349905495785,0.1931841785061014 l -0.7067517609739121 1.1962266008383442" fill="#ff0a01" stroke="none" /><line stroke="#e1ed5e" stroke-width="0.3" x1="143.23703022742887" x2="145.7803849466894" y1="26.81831364943548" y2="22.513508569990506" /><path d="M 143.74570117128098 25.957352633546492 a86.0,86.0 0 0,1 28.547481713284135,27.462654790039103" fill="none" id="id62" stroke="none" /><text fill="#e1ed5e" style="font-size:6.75px; font-family:Arial;" text-anchor="middle"><textPath startOffset="19.985693538727396" xlink:href="#id62">February</textPath></text><path d="M 110.68208982089419 81.91981866633111 l 5.7935377375936765 -9.80596630579343 a32.38955902163372,32.38955902163372 0 0,0 0.47757314912288307,0.2877324787440995 l -5.961472952934197 9.704787217590717" fill="#ff940d" stroke="none" /><path d="M 110.99172775467656 82.1063720568725 l 5.301147676554642 -8.629832025769165 a31.127989310896403,31.127989310896403 0 0,0 0.45414379761997953,0.2843848044063991 l -5.448910626546884 8.537302880039821" fill="#ff830c" stroke="none" /><path d="M 111.2981086023043 82.29822771554956 l 5.451734766811865 -8.541727716942153 a31.13323859178511,31.13323859178511 0 0,0 0.44925704225887003,0.2922092771828069 l -5.5979588348550156 8.446619515599819" fill="#ff830c" stroke="none" /><path d="M 111.60114157652 82.49532879139004 l 6.47489654344669 -9.769808803315915 a32.72064201747016,32.72064201747016 0 0,0 0.46680717830657714,0.315190290574944 l -6.642108416159809 9.6569066004423" fill="#ff980e" stroke="none" /><path d="M 111.90073688211348 82.69761687909136 l 5.900888644034851 -8.579253291984225 a31.412688117739897,31.412688117739897 0 0,0 0.44287232255397335,0.3102603640546892 l -6.047692106172476 8.4764080851656" fill="#ff870c" stroke="none" /><path d="M 112.19680574252982 82.90503203632743 l 6.095266540048385 -8.543088119279995 a31.494599983230252,31.494599983230252 0 0,0 0.4386068226028369,0.3186665096942621 l -6.241418679005011 8.436902374769057" fill="#ff880c" stroke="none" /><path d="M 112.48926042617603 83.11751280151076 l 6.40999492683201 -8.664777064606081 a31.778051611554645,31.778051611554645 0 0,0 0.43695402994766763,0.3291047163495289 l -6.558195110538061 8.553155758750705" fill="#ff8c0c" stroke="none" /><path d="M 113.06298171725822 83.55741782278167 l 1.7659222432198718 -2.222794323011185 a23.838889918878408,23.838889918878408 0 0,0 0.319096711342473,0.2580206822167964 l -1.803922353126836 2.192067543530261" fill="#ff1e03" stroke="none" /><path d="M 113.89432698308785 84.25364557470405 l 1.1949415676920225 -1.3542198528435472 a22.806044506659198,22.806044506659198 0 0,0 0.2921226375565788,0.2622705883052271 l -1.2180751928445912 1.333450255769025" fill="#ff1001" stroke="none" /><path d="M 114.16331599549186 84.49514656593476 l 1.119488202888352 -1.2255251886262957 a22.659869219054233,22.659869219054233 0 0,0 0.28572165349739914,0.26554713785512685 l -1.140417740180598 1.2060734646965283" fill="#ff0d01" stroke="none" /><path d="M 114.42810811169701 84.74124197986012 l 1.9388217264741034 -2.050442881314018 a23.821940058998305,23.821940058998305 0 0,0 0.2955245026204589,0.2842943373771249 l -1.9738294727069805 2.0167654571745914" fill="#ff1e03" stroke="none" /><path d="M 114.94478906791727 85.2469230424477 l 1.8678966115052706 -1.8439351892524802 a23.624716124352585,23.624716124352585 0 0,0 0.2831993003985205,0.29186177298198085 l -1.8993601756069 1.8115092207203851" fill="#ff1b02" stroke="none" /><path d="M 115.19652480421416 85.50635884689758 l 1.3602167438338604 -1.2973027471453449 a22.87967657003987,22.87967657003987 0 0,0 0.26936208146955287,0.2873366877837175 l -1.382346147273876 1.27369664248357" fill="#ff1101" stroke="none" /><path d="M 115.4437574822437 85.77008943001952 l 1.310045140502625 -1.2070783430407468 a22.78136363395926,22.78136363395926 0 0,0 0.26324013148660924,0.29067632799610926 l -1.33062891260527 1.1843492277750909" fill="#ff0f01" stroke="none" /><path d="M 115.68641384162765 86.03803664274999 l 2.541364454028298 -2.2619852913990854 a24.402221442925836,24.402221442925836 0 0,0 0.27656796429483094,0.3161649927957608 l -2.579924281900977 2.2179047424003766" fill="#ff2603" stroke="none" /><path d="M 115.9244219780498 86.31012108654704 l 6.893910408934988 -5.9265447040151145 a30.09120084780398,30.09120084780398 0 0,0 0.33428370405810137,0.39568646709686234 l -6.994904726480207 5.806999287289146" fill="#ff750a" stroke="none" /><path d="M 116.15771136456269 86.58626213691792 l 7.398356751319451 -6.141935317486623 a30.61556301336451,30.61556301336451 0 0,0 0.33312868164207216,0.4083763741144782 l -7.502983925037932 6.013674773764041" fill="#ff7c0b" stroke="none" /><path d="M 116.38621287248628 86.86637796730983 l 8.319484790462077 -6.668103825753896 a31.661962099433836,31.661962099433836 0 0,0 0.3371937439965212,0.42820181231475407 l -8.433032615052563 6.523909619486104" fill="#ff8a0c" stroke="none" /><path d="M 116.60985879189232 87.15038557335679 l 9.88686427593342 -7.648613719480263 a33.50005508150065,33.50005508150065 0 0,0 0.34891752619722083,0.4591345648228527 l -10.017057742354755 7.477294378776379" fill="#ffa20f" stroke="none" /><path d="M 116.82858285166822 87.43820079747576 l 8.251435118986127 -6.159334509090016 a31.296775374732846,31.296775374732846 0 0,0 0.3185376669211081,0.43448501970055775 l -8.35623539842086 6.016387045717962" fill="#ff850c" stroke="none" /><path d="M 117.2510076193507 88.02491185347247 l 1.171475990632903 -0.8132005132055986 a22.426061384130147,22.426061384130147 0 0,0 0.21739987758191104,0.31900749461555306 l -1.1853003338835453 0.7929149953196414" fill="#ff0a01" stroke="none" /><path d="M 117.45458315368197 88.32363383020206 l 2.629971420961184 -1.7593378803073139 a24.164177531706592,24.164177531706592 0 0,0 0.2282978155285248,0.3477132356627757 l -2.6598658718476336 1.7138065806668643" fill="#ff2303" stroke="none" /><line stroke="#e1ed5e" stroke-width="0.3" x1="172.23445277983987" x2="176.4835382374775" y1="55.19839476539836" y2="52.563006222186495" /><path d="M 173.08426987136738 54.67131705675599 a86.0,86.0 0 0,1 12.851231095245387,41.99856678651699" fill="none" id="id63" stroke="none" /><text fill="#e1ed5e" style="font-size:6.75px; font-family:Arial;" text-anchor="middle"><textPath startOffset="22.20632615414155" xlink:href="#id63">March</textPath></text><path d="M 117.84615892207809 88.93136811851018 l 10.168750863642646 -6.30691234431391 a32.9658111904581,32.9658111904581 0 0,0 0.29494071996982313,0.48480499418971845 l -10.275807381898693 6.130939576917111" fill="#ff9b0e" stroke="none" /><path d="M 118.03404312379186 89.2402003453031 l 3.9416704845120627 -2.3517513198262963 a25.589934692212765,25.589934692212765 0 0,0 0.22243785757140871,0.38021840288045894 l -3.981568016553799 2.283553504591941" fill="#ff3705" stroke="none" /><path d="M 118.21658344932153 89.55222093294921 l 8.475470369218021 -4.860946738628055 a30.770486230238053,30.770486230238053 0 0,0 0.25955983378109904,0.46172798183201935 l -8.557887844291553 4.714335246861244" fill="#ff7e0b" stroke="none" /><path d="M 118.3937258080291 89.86733742301442 l 7.9151987250350695 -4.360293218873452 a30.03673214228189,30.03673214228189 0 0,0 0.24557445879877193,0.4550121758575736 l -7.989081283052307 4.22340005968342" fill="#ff740a" stroke="none" /><path d="M 118.56541770881063 90.18545643968196 l 9.204367067538922 -4.865856666755541 a31.41138483658175,31.41138483658175 0 0,0 0.24858456434367843,0.4801862554343106 l -9.286761065042716 4.706697689060886" fill="#ff870c" stroke="none" /><path d="M 118.73160827565052 90.50648371742162 l 0.7610443102384811 -0.38571095683249595 a21.853206530898003,21.853206530898003 0 0,0 0.16716661019285486,0.33699768550397363 l -0.7675709333847441 0.3725536828295725" fill="#ff0200" stroke="none" /><path d="M 118.89224826269711 90.83032412892265 l 1.2343523800157756 -0.5991140428630843 a22.372065389989253,22.372065389989253 0 0,0 0.16517168693115566,0.3478936967088935 l -1.2444822607886876 0.5777779305136506" fill="#ff0901" stroke="none" /><path d="M 119.04729006885535 91.15688171328212 l 10.748232380955152 -4.990100427636826 a32.85013086817669,32.85013086817669 0 0,0 0.2337015923407825,0.5149304804029403 l -10.83253629025928 4.804347938391823" fill="#ff9a0e" stroke="none" /><path d="M 119.196687751892 91.48605970444005 l 8.679224682587773 -3.8493307655128963 a30.494539927409065,30.494539927409065 0 0,0 0.20868327079247556,0.4816697609218849 l -8.744198663222928 3.6993618600044087" fill="#ff7b0b" stroke="none" /><path d="M 119.34039704204932 91.81776055985345 l 8.757088012755869 -3.7048148889095014 a30.508535314349842,30.508535314349842 0 0,0 0.20045315420223173,0.485413212702272 l -8.819562853844298 3.553527105753926" fill="#ff7b0b" stroke="none" /><path d="M 119.47837535516314 92.15188598940014 l 9.242773236780495 -3.7240445783455245 a30.964806326670402,30.964806326670402 0 0,0 0.1949403391928456,0.49610190008655086 l -9.30550712585504 3.564393673363189" fill="#ff810b" stroke="none" /><path d="M 119.61058180528143 92.48833698450437 l 10.46264077792047 -4.00762366748118 a32.203923397986955,32.203923397986955 0 0,0 0.19382991189289048,0.5193677977037084 l -10.530075278314985 3.826932732748139" fill="#ff910d" stroke="none" /><path d="M 119.85752413597 93.16781622104841 l 0.692611963426069 -0.23830021251520161 a21.732460458431515,21.732460458431515 0 0,0 0.11866203472198839,0.35478438022988484 l -0.6966112919198274 0.2263427293630028" fill="#ff0000" stroke="none" /><path d="M 119.97218684219823 93.5106431181261 l 9.04082510383591 -2.937542146433198 a30.50608607262847,30.50608607262847 0 0,0 0.15796997962349743,0.5008080045961903 l -9.090050567227614 2.781483975410589" fill="#ff7b0b" stroke="none" /><path d="M 120.08093135843002 93.85539295169968 l 10.116800508248325 -3.0956613814196614 a31.579828538880328,31.579828538880328 0 0,0 0.15458191162002213,0.5211733591980567 l -10.168588316980049 2.9210586354750747" fill="#ff890c" stroke="none" /><path d="M 120.18372546131832 94.20196356495316 l 6.464439117532475 -1.856993824426864 a27.725875345874584,27.725875345874584 0 0,0 0.12782054910040824,0.4598385231325369 l -6.495446437199247 1.7454439978753753" fill="#ff5507" stroke="none" /><path d="M 120.28053869075195 94.5502522615342 l 9.382682854237787 -2.5212966699420694 a30.715537784449644,30.715537784449644 0 0,0 0.1328134999716354,0.5117845934270607 l -9.424692686079725 2.359415650966158" fill="#ff7e0b" stroke="none" /><path d="M 120.37134235888165 94.90015583598534 l 11.14496044772445 -2.7900744337901306 a32.48889284167242,32.48889284167242 0 0,0 0.13114249851499427,0.5436703215046996 l -11.191335746500265 2.5978188806260247" fill="#ff950d" stroke="none" /><path d="M 120.45610955862082 95.25157060432595 l 0.9384782243494123 -0.21784677946363065 a21.96343063938236,21.96343063938236 0 0,0 0.08231644152432467,0.3690084667213948 l -0.9420890528757746 0.20166014319227196" fill="#ff0300" stroke="none" /><path d="M 120.53481517161879 95.60439243477599 l 1.2279930486957118 -0.2628597087325944 a22.25581135291889,22.25581135291889 0 0,0 0.07696346144914168,0.3753011710430145 l -1.2323358060598504 0.24168288152616865" fill="#ff0801" stroke="none" /><path d="M 120.6074358757038 95.95851677861258 l 10.365494266227582 -2.032857043012182 a31.562953144860632,31.562953144860632 0 0,0 0.09997080855702072,0.5340480567805196 l -10.398950798694463 1.8541309087690991" fill="#ff890c" stroke="none" /><path d="M 120.67395015179393 96.31383870115 l 10.48045579798964 -1.8686632343217275 a31.645743563364675,31.645743563364675 0 0,0 0.09100131164761795,0.5370948926331327 l -10.511068971157481 1.6879825533727575" fill="#ff8a0c" stroke="none" /><path d="M 120.78858239683441 97.02765380044208 l 10.098702610297247 -1.443909918973283 a31.201405308355014,31.201405308355014 0 0,0 0.0714423048687513,0.5323281535138012 l -10.122060914223834 1.2698634233948176" fill="#ff840c" stroke="none" /><path d="M 120.83666639777658 97.38593545837742 l 5.550494316791245 -0.696337413337379 a26.594003302997354,26.594003302997354 0 0,0 0.053073585269048075,0.4547020670928928 l -5.5616582550638825 0.6006916079196334" fill="#ff4506" stroke="none" /><path d="M 120.87857604477298 97.74499172005257 l 4.4429158738273875 -0.4798608899910521 a25.468754629161282,25.468754629161282 0 0,0 0.04332462479274691,0.43627305917114323 l -4.450517624302363 0.4033123001154739" fill="#ff3505" stroke="none" /><path d="M 120.91429891909075 98.10471618934814 l 1.4322625041195551 -0.12979368551453724 a22.438131524411542,22.438131524411542 0 0,0 0.03154749597068181,0.3849593577193859 l -1.4342844839097317 0.10512041058738227" fill="#ff0a01" stroke="none" /><path d="M 120.94382443527127 98.46500227214037 l 8.596309442383975 -0.6300337124587249 a29.61936647950732,29.61936647950732 0 0,0 0.03289076767265413,0.5088056180976073 l -8.605880801061044 0.4819690301080824" fill="#ff6f0a" stroke="none" /><path d="M 120.96714384426684 98.82574320788733 l 10.364249806719698 -0.5804458070726118 a31.380490903181673,31.380490903181673 0 0,0 0.025562236724525036,0.5395784158979473 l -10.37270565167772 0.40195628455166477" fill="#ff860c" stroke="none" /><path d="M 120.98425023603335 99.18683210126433 l 10.098001070604992 -0.3913111128418655 a31.105580142128066,31.105580142128066 0 0,0 0.0161279552724719,0.5352083184292861 l -10.103240720333108 0.21743264698758022" fill="#ff830c" stroke="none" /><line stroke="#e1ed5e" stroke-width="0.3" x1="184.98032266829074" x2="189.97916517819016" y1="98.17113171792111" y2="98.06355123074" /><path d="M 185.9800911702706 98.14961562048488 a86.0,86.0 0 0,1 -9.607161424134198,41.387399972396054" fill="none" id="id64" stroke="none" /><text fill="#e1ed5e" style="font-size:6.75px; font-family:Arial;" text-anchor="middle"><textPath startOffset="21.466115282336823" xlink:href="#id64">April</textPath></text><path d="M 120.99513854157772 99.54816195383933 l 1.0072555325295465 -0.021677226416076438 a22.007488764183737,22.007488764183737 0 0,0 0.004890894924733356,0.37880520187591327 l -1.0074794345719953 0.004335766479700544" fill="#ff0400" stroke="none" /><path d="M 120.99980553446 99.90962569577887 l 7.861970155188163 -0.033834602964131266 a28.862042959780055,28.862042959780055 0 0,0 -0.002138131355381443,0.49682642712564573 l -7.8613877265432786 -0.10150130236519918" fill="#ff6509" stroke="none" /><path d="M 120.99824983174949 100.27111621757518 l 1.7275568628293596 0.022305129525041295 a22.727700851742554,22.727700851742554 0 0,0 -0.008417839644702678,0.3911439310235924 l -1.7269169604996495 -0.052038876338748534" fill="#ff0e01" stroke="none" /><path d="M 120.9904718944345 100.63252640178507 l 0.9383321191553807 0.028275678698108788 a21.938758051813387,21.938758051813387 0 0,0 -0.014623610505660953,0.37737040859855575 l -0.9377063757985166 -0.04442333431067069" fill="#ff0300" stroke="none" /><path d="M 120.95626037817324 101.35467743843564 l 1.2837218354917708 0.0829837469274412 a22.28640120225864,22.28640120225864 0 0,0 -0.028042067369091213,0.38261172972499635 l -1.2821032094583418 -0.1050686131492075" fill="#ff0801" stroke="none" /><path d="M 120.92983693683757 101.71520430193887 l 1.380135564665515 0.11310238416653436 a22.384762191193403,22.384762191193403 0 0,0 -0.034776757320444975,0.3837586191306619 l -1.3779842110679947 -0.1368423918457671" fill="#ff0901" stroke="none" /><path d="M 120.89721153311464 102.0752229133903 l 12.369473041729233 1.2283655090576664 a33.43031556936141,33.43031556936141 0 0,0 -0.061794662404579155,0.5721418274371726 l -12.3464960778236 -1.4411036583796302" fill="#ffa10e" stroke="none" /><path d="M 120.8583938346157 102.4346265915055 l 22.60379488123249 2.6383527189642138 a43.757250451284705,43.757250451284705 0 0,0 -0.0937623918959755,0.7473785170512232 l -22.555030980089665 -3.027048990302832" fill="#ddff1b" stroke="none" /><path d="M 120.81339534386255 102.79330883721812 l 2.4001725509388105 0.3221205904476668 a23.42169154705352,23.42169154705352 0 0,0 -0.057066336895306664,0.3991218273329178 l -2.3942721630269026 -0.3633878897609939" fill="#ff1802" stroke="none" /><path d="M 120.76222939487914 103.15116336523771 l 3.1475235987334242 0.47771175565549806 a24.183569274583995,24.183569274583995 0 0,0 -0.06600760781435254,0.4110294368691553 l -3.1388342365577833 -0.5318204222178583" fill="#ff2303" stroke="none" /><path d="M 120.70491114924044 103.5080841355445 l 62.114733447721314 10.524252406633499 a84.0,84.0 0 0,0 -0.25381423064324515,1.4235249970671267 l -61.924372774738885 -11.591896154433844" fill="#4dd2ff" stroke="none" /><path d="M 120.64145759157962 103.86396538481128 l 47.49530303333831 8.8908550206651 a69.3202971144334,69.3202971144334 0 0,0 -0.22964846268561948,1.1709725636627046 l -47.33522463767702 -9.707091311395748" fill="#3bff9a" stroke="none" /><path d="M 120.5718875245553 104.21870165774334 l 47.742643033135934 9.790641090591558 a69.73619411437687,69.73619411437687 0 0,0 -0.25126934111253146,1.1738467098068435 l -47.567039653298956 -10.611001619814571" fill="#3bff9f" stroke="none" /><path d="M 120.49622156327973 104.57218783832717 l 59.97574785832444 13.379070093762582 a82.44989705230694,82.44989705230694 0 0,0 -0.3209241868637976,1.3825329976429281 l -59.73656310553009 -14.409471748754074" fill="#4be0ff" stroke="none" /><path d="M 120.02730092923936 106.31721596034902 l 1.1953200471848557 0.3770400667808863 a22.25337513425157,22.25337513425157 0 0,0 -0.11837497350182216,0.36432070716011755 l -1.1886528226667867 -0.3975596739187991" fill="#ff0801" stroke="none" /><path d="M 119.79798401119884 107.00284435728193 l 12.14048537609565 4.294272056314638 a33.87758353344435,33.87758353344435 0 0,0 -0.19919331724520015,0.5480944589331702 l -12.064767797845224 -4.502614312253938" fill="#ffa70f" stroke="none" /><path d="M 119.12269723197855 108.67885076344098 l 1.5201985078545517 0.689943255411268 a22.669438587960247,22.669438587960247 0 0,0 -0.1643268559561029,0.35394542852605176 l -1.5080970350586174 -0.7160087512161504" fill="#ff0e01" stroke="none" /><path d="M 118.97047184881838 109.00673069616215 l 1.151293827119551 0.5466070393850296 a22.27446331130749,22.27446331130749 0 0,0 -0.1674262616354721,0.34494768898968936 l -1.1417143088693644 -0.5663436843399945" fill="#ff0801" stroke="none" /><path d="M 118.81262510543309 109.33194174019688 l 0.7496673369523681 0.3718700539536951 a21.836832392490145,21.836832392490145 0 0,0 -0.169933533201668,0.33529498260536306 l -0.7431551339644311 -0.38471924826175247" fill="#ff0200" stroke="none" /><path d="M 118.64920377521936 109.65438752849418 l 9.881199745080277 5.115335364195239 a32.12675893018093,32.12675893018093 0 0,0 -0.25846358762464694,0.48891570323967953 l -9.791683649230738 -5.284666082521053" fill="#ff900d" stroke="none" /><line stroke="#e1ed5e" stroke-width="0.3" x1="174.80103733775053" x2="179.2010983576182" y1="140.37084112569926" y2="142.7455964860345" /><path d="M 175.68104954172406 140.8457921977663 a86.0,86.0 0 0,1 -30.038265399797805,32.042727171017184" fill="none" id="id65" stroke="none" /><text fill="#e1ed5e" style="font-size:6.75px; font-family:Arial;" text-anchor="middle"><textPath startOffset="22.206326154141568" xlink:href="#id65">May</textPath></text><path d="M 118.48025628344425 109.97397251340804 l 3.6358297801197135 1.9622923910872205 a25.131567452931655,25.131567452931655 0 0,0 -0.20873991577390094,0.3789235797367769 l -3.601513454894303 -2.0245864892218037" fill="#ff3104" stroke="none" /><path d="M 118.30583269289576 110.29060199501023 l 1.2408319840058026 0.697532218517329 a22.423451863745832,22.423451863745832 0 0,0 -0.19203871700323297,0.33483569008676395 l -1.2286412708501901 -0.7187877544624093" fill="#ff0a01" stroke="none" /><path d="M 117.94076556474637 110.91462005526583 l 2.102791596748923 1.2792749145008238 a23.461356700323822,23.461356700323822 0 0,0 -0.2128675263226051,0.343210230927974 l -2.0804594307583573 -1.315281476794069" fill="#ff1902" stroke="none" /><path d="M 117.75023020441432 111.22182372390056 l 2.6078802690756486 1.6487207397077739 a24.085339458694396,24.085339458694396 0 0,0 -0.22456153952024713,0.348524496193176 l -2.5791138661783513 -1.6933668358224052" fill="#ff2203" stroke="none" /><path d="M 117.55443506779139 111.5257021239791 l 3.7758518741838314 2.4791082024598836 a25.516971867886873,25.516971867886873 0 0,0 -0.2442301002270121,0.3650908622642336 l -3.7326186685460985 -2.543735978929924" fill="#ff3605" stroke="none" /><path d="M 117.35343817320211 111.8261652097733 l 2.1721631092076787 1.4803037608843335 a23.628610240695846,23.628610240695846 0 0,0 -0.2319419180969736,0.3341296320643789 l -2.1463602839485665 -1.5174746551357294" fill="#ff1b02" stroke="none" /><path d="M 117.14729908036423 112.12312394758627 l 1.219941032595327 0.8624971359970808 a22.494040639545297,22.494040639545297 0 0,0 -0.22624742543792314,0.314237885774242 l -1.204913814781801 -0.8833686272224563" fill="#ff0b01" stroke="none" /><path d="M 116.93607887273984 112.41649034213513 l 26.15351914505224 19.17415006847175 a53.42922438972121,53.42922438972121 0 0,0 -0.5501651334998635,0.7370361030242388 l -25.81959274485729 -19.6214990510053" fill="#71ff27" stroke="none" /><path d="M 116.71984013943494 112.70617746262582 l 7.230218623523982 5.494576512570815 a30.081103038532703,30.081103038532703 0 0,0 -0.31684452012782294,0.4095642533363462 l -7.134567286178091 -5.618218760020412" fill="#ff750a" stroke="none" /><path d="M 116.498646956653 112.99209946851258 l 5.588701333229029 4.400904135465554 a28.113475929641833,28.113475929641833 0 0,0 -0.3026644446461444,0.37762043148189145 l -5.51211897652803 -4.4964524005256985" fill="#ff5a08" stroke="none" /><path d="M 115.80600337817218 113.82643327865902 l 15.074836583111194 13.18683902667736 a41.02856513889621,41.02856513889621 0 0,0 -0.46956440679811884,0.527560588855785 l -14.84561332666474 -13.444373785274008" fill="#fdff18" stroke="none" /><path d="M 115.56566222782051 114.09645910891815 l 0.7136826446788623 0.6463199618631834 a21.96284599517194,21.96284599517194 0 0,0 -0.256184667483528,0.2780378594670471 l -0.70245156919961 -0.6585090761315653" fill="#ff0300" stroke="none" /><path d="M 115.32070863581623 114.36230785411682 l 15.16755046485577 14.218730631026416 a41.79006704803126,41.79006704803126 0 0,0 -0.49649275932941495,0.520570673204993 l -14.920551154147393 -14.477708420813917" fill="#f4ff19" stroke="none" /><path d="M 114.55890576462653 115.13401014063108 l 16.491211441295256 17.14264555446526 a44.787188808422385,44.787188808422385 0 0,0 -0.5601899799212202,0.529694591311087 l -16.19368562698323 -17.42397478252227" fill="#d1ff1d" stroke="none" /><path d="M 114.29624159901734 115.38237550388516 l 4.070720669324396 4.379987108729235 a26.979552979972595,26.979552979972595 0 0,0 -0.34289784978749044,0.3132290557513252 l -3.9947232700700415 -4.449408931067144" fill="#ff4b06" stroke="none" /><path d="M 112.92097659922987 116.55440617244103 l 14.896158010179128 19.085016385221536 a45.21019152936214,45.21019152936214 0 0,0 -0.6175954823371808,0.4735458802337663 l -14.565433799348455 -19.338601607282676" fill="#ccff1d" stroke="none" /><path d="M 112.34349029814194 116.9893568818739 l 0.8348124816660144 1.1490208067487748 a22.420267824703135,22.420267824703135 0 0,0 -0.3141748630056699,0.22415542289456414 l -0.8149102908114599 -1.1632204914875584" fill="#ff0a01" stroke="none" /><path d="M 112.04921762599082 117.19931262002967 l 12.646928194647257 18.052497552505518 a43.041720909307,43.041720909307 0 0,0 -0.610460964134304,0.419880617611836 l -12.33431034589007 -18.267518959482448" fill="#e5ff1a" stroke="none" /><path d="M 111.45004920935366 117.60387380957326 l 2.012726069720144 3.0944649317006574 a24.69144679566918,24.69144679566918 0 0,0 -0.3582825320204955,0.22867286348677404 l -1.9591617356527182 -3.1286522240112404" fill="#ff2b04" stroke="none" /><line stroke="#e1ed5e" stroke-width="0.3" x1="143.8653032363475" x2="146.44561519142675" y1="172.8068346515853" y2="177.08958963109032" /><path d="M 144.38136562736335 173.6633856474863 a86.0,86.0 0 0,1 -40.68145358897372,12.25698825130547" fill="none" id="id66" stroke="none" /><text fill="#e1ed5e" style="font-size:6.75px; font-family:Arial;" text-anchor="middle"><textPath startOffset="21.466115282336833" xlink:href="#id66">June</textPath></text><path d="M 110.8373102113329 117.98757091392108 l 17.584089799573043 29.18575329658985 a55.07357347812017,55.07357347812017 0 0,0 -0.8162221677938176,0.4822384438115156 l -17.079099760750843 -29.484110312695115" fill="#60ff29" stroke="none" /><path d="M 110.21172684928248 118.3499491758327 l 0.3774600024081908 0.678276256536049 a21.776231108368215,21.776231108368215 0 0,0 -0.32910852367963517,0.17945620774965781 l -0.36572866685990574 -0.6846731160454772" fill="#ff0100" stroke="none" /><path d="M 109.89434966115114 118.52300852407294 l 2.1205485944359994 3.9698354147188133 a25.5007021187055,25.5007021187055 0 0,0 -0.38895747050396384,0.20348416530234156 l -2.05190022140554 -4.005748998965871" fill="#ff3605" stroke="none" /><path d="M 109.57404056367764 118.69057910512821 l 9.617987668759643 18.77637327306739 a42.09639495473034,42.09639495473034 0 0,0 -0.6477755014411556,0.3248080840214152 l -9.293358259635728 -18.939149197998105" fill="#f0ff19" stroke="none" /><path d="M 109.2508944713604 118.85261126421891 l 12.998707371934188 26.490365637515964 a50.507725512998505,50.507725512998505 0 0,0 -0.7838013291813171,0.37627226953536574 l -12.540793374752639 -26.71019218355089" fill="#91ff24" stroke="none" /><path d="M 108.92500713936063 119.00905698771935 l 6.521864762949962 13.890689050361463 a36.34555187277539,36.34555187277539 0 0,0 -0.56860366674772,0.2610180551551529 l -6.281793100434823 -14.000894175850688" fill="#ffc712" stroke="none" /><path d="M 108.2653958097858 119.30500536409082 l 11.637181590796226 27.1802897530012 a50.56674054464355,50.56674054464355 0 0,0 -0.8031167224678791,0.33570285512626946 l -11.167593408830884 -27.376577651147446" fill="#90ff24" stroke="none" /><path d="M 107.93186726928326 119.44442032107085 l 1.6893833559970157 4.141405666814132 a25.4727236691573,25.4727236691573 0 0,0 -0.40741671506092564,0.16211951904548058 l -1.6178455648942238 -4.169872030265681" fill="#ff3605" stroke="none" /><path d="M 107.2578585660854 119.70592522655815 l 0.29177896144635057 0.7922136184648433 a21.84423775065077,21.84423775065077 0 0,0 -0.3539603247380942,0.1269175791459348 l -0.2780990760785216 -0.7971187386507381" fill="#ff0200" stroke="none" /><path d="M 106.91757812671514 119.82793768551818 l 5.1984193658128826 14.900292177469659 a36.78107318520581,36.78107318520581 0 0,0 -0.5995845050641384,0.20341161801958776 l -4.941165127811517 -14.98756678238737" fill="#ffcc13" stroke="none" /><path d="M 106.57524785965236 119.94407469862006 l 11.35805552032108 34.45131081953374 a57.27531174761726,57.27531174761726 0 0,0 -0.9389841565698444,0.30063307479131984 l -10.763350018660296 -34.64171674098476" fill="#4aff2c" stroke="none" /><path d="M 105.88484417918355 120.15858648285463 l 6.584628007867717 22.555702260317748 a44.497170690491636,44.497170690491636 0 0,0 -0.7371037519405406,0.20831288302876746 l -6.195393087822572 -22.665703936685034" fill="#d4ff1c" stroke="none" /><path d="M 105.18746579009965 120.34920634021253 l 3.7895553963939563 14.865533156104934 a36.340951929968156,36.340951929968156 0 0,0 -0.6074938954438193,0.14930721924704654 l -3.5331082162069265 -14.92856163366601" fill="#ffc712" stroke="none" /><path d="M 103.06178313531737 120.77559828337769 l 2.529723520114147 17.165330560374834 a38.35073699688739,38.35073699688739 0 0,0 -0.6539191631189899,0.09062723748330756 l -2.233875765808326 -17.206332363350743" fill="#ffe015" stroke="none" /><path d="M 101.98527174616119 120.90594882070398 l 1.663722139373855 17.519863446844173 a38.59868138677183,38.59868138677183 0 0,0 -0.6619778299585549,0.057118232626265315 l -1.3618999916737582 -17.5459059317491" fill="#ffe315" stroke="none" /><path d="M 100.90346689309514 120.98055641714683 l 0.089419387260278 2.0765215787529665 a23.07844598049714,23.07844598049714 0 0,0 -0.3970368022728353,0.013674750254658646 l -0.053662233312790415 -2.077753127433719" fill="#ff1302" stroke="none" /><line stroke="#e1ed5e" stroke-width="0.3" x1="102.19456741930631" x2="102.32365962044197" y1="184.97166512339345" y2="189.96999836594603" /><path d="M 102.22038585953345 185.97133177190398 a86.0,86.0 0 0,1 -42.740103519485714,-10.115201625700543" fill="none" id="id67" stroke="none" /><text fill="#e1ed5e" style="font-size:6.75px; font-family:Arial;" text-anchor="middle"><textPath startOffset="22.20632615414155" xlink:href="#id67">July</textPath></text><path d="M 100.54218724476979 120.99299961872073 l 0.4569867322906686 17.69411285359861 a38.70001317935592,38.70001317935592 0 0,0 -0.6660830840335353,0.01146722434787442 l -0.15234395836446538 -17.699357555225646" fill="#ffe415" stroke="none" /><path d="M 100.18074693466247 120.99922214144158 l 0.1478340397602033 17.175394132069524 a38.17603034741264,38.17603034741264 0 0,0 -0.6571619488453055,0.0 l 0.14783403976019144 -17.175394132069524" fill="#ffde14" stroke="none" /><path d="M 99.81925306533755 120.99922214144158 l -0.015553605978239772 1.807021666217876 a22.807088602376695,22.807088602376695 0 0,0 -0.3925429131946872,-0.006757982239262273 l 0.04665620906559491 -1.806486206699454" fill="#ff1001" stroke="none" /><path d="M 98.73552117531835 120.96189622390904 l -1.1352526024224396 18.819648676910905 a39.85385835296482,39.85385835296482 0 0,0 -0.684418354700991,-0.04720149688817676 l 1.4590337179023607 -18.797318835506445" fill="#fff316" stroke="none" /><path d="M 98.01472825383883 120.90594882070398 l -0.1540602311036565 1.6223347322535198 a22.62963325269332,22.62963325269332 0 0,0 -0.3874704032589834,-0.04016289156868559 l 0.18196323096823352 -1.6194424722290734" fill="#ff0d01" stroke="none" /><path d="M 97.65516085044442 120.86867818915974 l -0.10640073429480264 0.9469488273894476 a21.95290775941469,21.95290775941469 0 0,0 -0.37515697995887176,-0.04542628569650274 l 0.12268513730506343 -0.9449770129675963" fill="#ff0300" stroke="none" /><path d="M 96.93821686468263 120.77559828337769 l -0.16911302631329245 1.1475091944443243 a22.15990368867553,22.15990368867553 0 0,0 -0.37689156492781994,-0.05886271127521122 l 0.1888404548496301 -1.1444281758220074" fill="#ff0601" stroke="none" /><path d="M 96.58105272829116 120.7198165907248 l -2.754756566488014 16.69462740242785 a37.920380251238555,37.920380251238555 0 0,0 -0.6431134489833142,-0.11181351658003125 l 3.0417189869433776 -16.644735307326815" fill="#ffdb14" stroke="none" /><path d="M 95.51606077576429 120.51570834832081 l -0.17850710706950118 0.8167371508842393 a21.836016962093968,21.836016962093968 0 0,0 -0.3665121903168482,-0.08341698125486742 l 0.19253944677921142 -0.8135434360516851" fill="#ff0200" stroke="none" /><path d="M 95.16358092515715 120.4354850818985 l -3.658500578738759 15.458386223770775 a36.88541252621089,36.88541252621089 0 0,0 -0.6165953765818081,-0.15154414187282828 l 3.9240492400637774 -15.393120823583917" fill="#ffce13" stroke="none" /><path d="M 94.11515582081647 120.15858648285463 l -0.5199662544142253 1.7811490650597648 a22.855493707263065,22.855493707263065 0 0,0 -0.3767075401717728,-0.11349889167468288 l 0.550548769026244 -1.7719348042793563" fill="#ff1001" stroke="none" /><path d="M 93.08242187328487 119.8279376855182 l -0.8263033218017047 2.368443185447755 a23.50844579417504,23.50844579417504 0 0,0 -0.38092686970257794,-0.13658682274648373 l 0.8669497521340093 -2.3538688216613135" fill="#ff1a02" stroke="none" /><path d="M 92.7421414339146 119.70592522655815 l -0.40629047989947353 1.103125631928613 a22.175567145625823,22.175567145625823 0 0,0 -0.3570580773079039,-0.1350088125926721 l 0.4252187779676604 -1.0959685692293075" fill="#ff0601" stroke="none" /><path d="M 92.40401165467489 119.57807347666478 l -0.4031212503504889 1.039013897937866 a22.1144759407866,22.1144759407866 0 0,0 -0.35370411347093433,-0.14074616637105947 l 0.42094643986328134 -1.03192088716074" fill="#ff0600" stroke="none" /><path d="M 91.7346041902142 119.30500536409082 l -6.379680437899319 14.900649395279643 a37.208938117309316,37.208938117309316 0 0,0 -0.5866242918371669,-0.2571588502426082 l 6.63522540439423 -14.788625991742583" fill="#ffd213" stroke="none" /><path d="M 90.42595943632237 118.69057910512821 l -1.3363969938197975 2.6089333508369608 a23.931294961992048,23.931294961992048 0 0,0 -0.3650195947927569,-0.1909610001041133 l 1.3811074911390502 -2.5855429317881304" fill="#ff2003" stroke="none" /><line stroke="#e1ed5e" stroke-width="0.3" x1="58.666819895761336" x2="56.23545636021788" y1="174.27360380694188" y2="178.64263932499728" /><path d="M 58.180547188652646 175.14741091055294 a86.0,86.0 0 0,1 -31.652253787137756,-30.449443065178592" fill="none" id="id68" stroke="none" /><text fill="#e1ed5e" style="font-size:6.75px; font-family:Arial;" text-anchor="middle"><textPath startOffset="22.20632615414155" xlink:href="#id68">August</textPath></text><path d="M 89.7882731507175 118.34994917583269 l -0.9312605972198251 1.6734275094363777 a22.915099456757446,22.915099456757446 0 0,0 -0.3430185604930894,-0.19477489088249175 l 0.9599279246341218 -1.657149452759253" fill="#ff1101" stroke="none" /><path d="M 88.54995079064634 117.60387380957326 l -0.4236075257985965 0.651275229704011 a21.776918760707463,21.776918760707463 0 0,0 -0.3124731717183597,-0.20709017957366307 l 0.43475539625691806 -0.6438870290390318" fill="#ff0100" stroke="none" /><path d="M 87.65650970185807 116.9893568818739 l -9.565579886531745 13.165891214644995 a37.27393652566849,37.27393652566849 0 0,0 -0.515826960286843,-0.38159645353924115 l 9.790791817237153 -12.999284812365985" fill="#ffd313" stroke="none" /><path d="M 87.36589467227662 116.77436683061367 l -9.026324117552461 11.984297103143115 a36.00326311611956,36.00326311611956 0 0,0 -0.4918238985002271,-0.3771095929230547 l 9.231276744546175 -11.827148168392693" fill="#ffc312" stroke="none" /><path d="M 87.07902340077011 116.55440617244103 l -10.22941968484095 13.105972839646963 a37.6255090497156,37.6255090497156 0 0,0 -0.5071246866293923,-0.40289052159876587 l 10.4535018641877 -12.927948404043066" fill="#ffd714" stroke="none" /><path d="M 83.95833913139862 113.55231037782056 l -2.132296544295945 1.8014060278767339 a23.791371030530886,23.791371030530886 0 0,0 -0.2615963209031697,-0.31510962047485175 l 2.1629888650926534 -1.7644351502881186" fill="#ff1e03" stroke="none" /><path d="M 82.6465618267979 111.8261652097733 l -8.35942809714763 5.696852505502476 a31.11603512156967,31.11603512156967 0 0,0 -0.29782030625553096,-0.44520094906223234 l 8.45625150881389 -5.552114642234423" fill="#ff830c" stroke="none" /><path d="M 82.44556493220864 111.52570212397912 l -8.420004160275514 5.528315748084653 a31.072673183896008,31.072673183896008 0 0,0 -0.2897084900610156,-0.4496340101564779 l 8.513917513713576 -5.382560138006727" fill="#ff820c" stroke="none" /><path d="M 82.05923443525364 110.91462005526583 l -9.931603302765586 6.042087568565924 a32.62512650897715,32.62512650897715 0 0,0 -0.28775225534414994,-0.48228933143559977 l 10.034136433807967 -5.870236143244213" fill="#ff970d" stroke="none" /><line stroke="#e1ed5e" stroke-width="0.3" x1="26.63291911575756" x2="22.317208475507996" y1="142.92168965132927" y2="145.44649492493687" /><path d="M 25.769776987707644 143.4266507060508 a86.0,86.0 0 0,1 -11.730757126820373,-40.83630448921669" fill="none" id="id69" stroke="none" /><text fill="#e1ed5e" style="font-size:6.75px; font-family:Arial;" text-anchor="middle"><textPath startOffset="21.46611528233685" xlink:href="#id69">September</textPath></text><path d="M 81.87401531095188 110.60418214915194 l -18.384584562440775 10.755469938932547 a42.299602886927666,42.299602886927666 0 0,0 -0.36226186394100396,-0.6316340949245302 l 18.566998422534155 -10.437415998149708" fill="#eeff19" stroke="none" /><path d="M 81.69416730710424 110.29060199501025 l -7.787025361053544 4.377467010651288 a29.933083532746764,29.933083532746764 0 0,0 -0.24862075742711304,-0.4513188915108723 l 7.861222527932173 -4.242777600742595" fill="#ff730a" stroke="none" /><path d="M 81.35079622478065 109.6543875284942 l -4.065242999401814 2.1045097574554004 a25.57768084988572,25.57768084988572 0 0,0 -0.19904469658431698,-0.3927340697361209 l 4.100866365772398 -2.0342214760165946" fill="#ff3705" stroke="none" /><path d="M 81.02952815118164 109.00673069616217 l -15.794713292186591 7.498955755002929 a38.484487564634755,38.484487564634755 0 0,0 -0.27896742215473574,-0.6008710092143478 l 15.921455331181154 -7.225964678509755" fill="#ffe215" stroke="none" /><path d="M 80.58989483394504 108.01547362559985 l -14.97586533769379 6.1843381376803235 a37.20254859008007,37.20254859008007 0 0,0 -0.2393317646420153,-0.5940018123863142 l 15.080099716593192 -5.9256369574512044" fill="#ffd213" stroke="none" /><path d="M 80.20201598880116 107.00284435728193 l -4.7158270389021455 1.6680588665296991 a26.002144044612162,26.002144044612162 0 0,0 -0.1456233597514913,-0.42324964822154965 l 4.743841229596865 -1.5866365152188537" fill="#ff3d05" stroke="none" /><path d="M 79.97269907076064 106.31721596034903 l -4.712522897464509 1.4864721395337679 a25.941403796568075,25.941403796568075 0 0,0 -0.1306621907278442,-0.42701159936235655 l 4.737411860698483 -1.4051335676193635" fill="#ff3c05" stroke="none" /><path d="M 79.86692584326677 105.97154293290107 l -2.3691454947705184 0.7026971602138511 a23.47116039025476,23.47116039025476 0 0,0 -0.1115521251321261,-0.3883275818488879 l 2.3808902567887484 -0.6618121028603673" fill="#ff1902" stroke="none" /><path d="M 79.76711848015287 105.62410040840567 l -15.135539711984816 4.207200788089094 a36.7093953048603,36.7093953048603 0 0,0 -0.1639894757085356,-0.6102658446938111 l 15.205717264035123 -3.946044010219744" fill="#ffcc13" stroke="none" /><path d="M 79.50377843672027 104.57218783832718 l -5.608051659589106 1.2510142669720858 a26.745892455727642,26.745892455727642 0 0,0 -0.09636922203977905,-0.4502049224038661 l 5.628754920353326 -1.1542955251520552" fill="#ff4706" stroke="none" /><path d="M 79.1416061653843 102.43462659150553 l -4.6141908087726105 0.5385760634490959 a25.645516224907837,25.645516224907837 0 0,0 -0.04740475793658831,-0.43890918373311305 l 4.6227778682102505 -0.45907055783120077" fill="#ff3805" stroke="none" /><path d="M 79.07016306316243 101.71520430193888 l -3.210253296316863 0.2630808964624513 a24.22101502396322,24.22101502396322 0 0,0 -0.03047631283694973,-0.41582507511687095 l 3.214306167818148 -0.20778268484881943" fill="#ff2403" stroke="none" /><path d="M 79.04373962182676 101.35467743843564 l -15.709321542044643 1.0154990958360077 a36.7421098244483,36.7421098244483 0 0,0 -0.03536629122110355,-0.6314888874834755 l 15.724474184153278 -0.7449384920170947" fill="#ffcc13" stroke="none" /><line stroke="#e1ed5e" stroke-width="0.3" x1="15.007084014347285" x2="10.007500721073583" y1="101.09737516637583" y2="101.16192664675087" /><path d="M 14.007167355692545 101.11028546245083 a86.0,86.0 0 0,1 10.666146001902534,-42.60595125391555" fill="none" id="id70" stroke="none" /><text fill="#e1ed5e" style="font-size:6.75px; font-family:Arial;" text-anchor="middle"><textPath startOffset="22.20632615414155" xlink:href="#id70">October</textPath></text><path d="M 79.00019446554 99.90962569577889 l -16.382931690154194 -0.07050522683032551 a37.383083401828515,37.383083401828515 0 0,0 0.008307932578770457,-0.6434585338886855 l 16.37929075045771 0.35250001877948295" fill="#ffd413" stroke="none" /><path d="M 79.54389044137918 95.25157060432595 l -4.66051158856 -1.0818337750186497 a25.784426045396998,25.784426045396998 0 0,0 0.10407969489287701,-0.4314775288351715 l 4.641199093406308 1.161896535513218" fill="#ff3a05" stroke="none" /><path d="M 80.52162464483688 92.15188598940014 l -15.598012924531565 -6.284660888726804 a37.81650884339987,37.81650884339987 0 0,0 0.24846943324121068,-0.6016884410122445 l 15.487521804404155 6.55222390019236" fill="#ffd914" stroke="none" /><path d="M 80.803312248108 91.48605970444005 l -4.8538628890028 -2.152741106899076 a26.309828548886646,26.309828548886646 0 0,0 0.18717273458548234,-0.41241030997295275 l 4.816087837453965 2.235973425714101" fill="#ff4106" stroke="none" /><path d="M 81.10775173730289 90.83032412892265 l -4.611053521683478 -2.2380537048898015 a26.12549499714911,26.12549499714911 0 0,0 0.19984757990131963,-0.40288052621643144 l 4.571845928828745 2.3170938196051956" fill="#ff3f05" stroke="none" /><line stroke="#e1ed5e" stroke-width="0.3" x1="26.266209847984243" x2="21.928928074336255" y1="57.71137044288968" y2="55.22380399835378" /><path d="M 25.398753493254645 57.2138571539825 a86.0,86.0 0 0,1 29.58750427330803,-30.4925239686951" fill="none" id="id71" stroke="none" /><text fill="#e1ed5e" style="font-size:6.75px; font-family:Arial;" text-anchor="middle"><textPath startOffset="21.46611528233685" xlink:href="#id71">November</textPath></text><line stroke="#e1ed5e" stroke-width="0.3" x1="56.76296977257108" x2="54.21961505331056" y1="26.818313649435495" y2="22.513508569990535" /><path d="M 56.25429882871898 25.957352633546506 a86.0,86.0 0 0,1 42.26535254187918,-11.944610805530505" fill="none" id="id72" stroke="none" /><text fill="#e1ed5e" style="font-size:6.75px; font-family:Arial;" text-anchor="middle"><textPath startOffset="22.20632615414155" xlink:href="#id72">December</textPath></text></svg>