<?xml version="1.0" encoding="utf-8" ?>
<svg baseProfile="full" height="200mm" version="1.1" viewBox="0,0,200,200" width="200mm" xmlns="http://www.w3.org/2000/svg" xmlns:ev="http://www.w3.org/2001/xml-events" xmlns:xlink="http://www.w3.org/1999/xlink"><defs /><rect fill="#1a1a1a" height="200" width="200" x="0" y="0" /><text alignment-baseline="middle" fill="#e1ed5e" style="dominant-baseline: central; font-size:9.0px; font-family:Arial;" text-anchor="middle" x="100.0" y="100.0">2023</text><line stroke="#e1ed5e" stroke-width="0.3" x1="100.0" x2="100.0" y1="15.0" y2="10.0" /><path d="M 100.0 14.0 a86.0,86.0 0 0,1 42.46469731375804,11.215312516191453" fill="none" id="id85" stroke="none" /><text fill="#e1ed5e" style="font-size:6.75px; font-family:Arial;" text-anchor="middle"><textPath startOffset="22.20632615414155" xlink:href="#id85">January</textPath></text><path d="M 100.0 79.0 l 0.0 -21.48249039212218 a42.48249039212218,42.48249039212218 0 0,0 0.7312662375064242,0.006294239375208374 l -0.3697857582338958 21.47930752935553" fill="#f0ff19" stroke="none" /><path d="M 100.36148047927253 79.00311137660856 l 0.042386458326637004 -2.4620520212197707 a23.46241685484847,23.46241685484847 0 0,0 0.4037472631093923,0.010427600635662157 l -0.08476035663089712 2.460957628441749" fill="#ff1202" stroke="none" /><path d="M 101.44485096284872 79.0497635885617 l 1.718009461230587 -24.911015250253982 a45.9701869698099,45.9701869698099 0 0,0 0.7889574467031885,0.06123828226798555 l -2.1465570972961165 24.87775170579753" fill="#c6ff1e" stroke="none" /><path d="M 106.74666289553966 80.11325718540242 l 0.8271165277947954 -2.438042914050525 a23.57452422814455,23.57452422814455 0 0,0 0.38316235070057614,0.13367782056945607 l -0.8689608825586452 2.4234442403088616" fill="#ff1402" stroke="none" /><path d="M 107.76421540070413 80.48803036053334 l 0.4991596608184859 -1.25442013706285 a22.350085274068718,22.350085274068718 0 0,0 0.3562349551098022,0.1453171827163227 l -0.5206784855166755 1.2456420681629479" fill="#ff0200" stroke="none" /><path d="M 108.09893153111575 80.62456947434976 l 0.7507490287927253 -1.7960499596381823 a22.94664315213383,22.94664315213383 0 0,0 0.3631210582687481,0.15546948663595214 l -0.7815538448517887 1.7828609450394393" fill="#ff0b01" stroke="none" /><path d="M 108.43124777332544 80.76684994638697 l 0.7453048315978419 -1.7001706090473818 a22.856356482971854,22.856356482971854 0 0,0 0.35897309879913575,0.16106076561650062 l -0.7744600488637579 1.68708951291435" fill="#ff0901" stroke="none" /><path d="M 109.41281617654863 81.2277094730956 l 7.138115627351201 -14.235780010781665 a36.92514135650941,36.92514135650941 0 0,0 0.565727475036172,0.28978758568786966 l -7.382103589976129 14.110799899781295" fill="#ffca12" stroke="none" /><path d="M 109.73455568895987 81.39251694778311 l 4.841623836278239 -9.254704206061488 a31.444657548895982,31.444657548895982 0 0,0 0.4774421342707818,0.25503305325924736 l -5.000211017077332 9.169992426300487" fill="#ff820c" stroke="none" /><path d="M 110.05341064243156 81.56283822128135 l 7.219633936906409 -13.240238921114688 a36.08068436348732,36.08068436348732 0 0,0 0.5427151923914733,0.3020204169805834 l -7.446473218369918 13.114003106573925" fill="#ffbf11" stroke="none" /><line stroke="#e1ed5e" stroke-width="0.3" x1="143.23703022742887" x2="145.7803849466894" y1="26.81831364943548" y2="22.513508569990506" /><path d="M 143.74570117128098 25.957352633546492 a86.0,86.0 0 0,1 28.547481713284135,27.462654790039103" fill="none" id="id86" stroke="none" /><text fill="#e1ed5e" style="font-size:6.75px; font-family:Arial;" text-anchor="middle"><textPath startOffset="19.985693538727396" xlink:href="#id86">February</textPath></text><path d="M 110.68208982089419 81.91981866633111 l 9.357437573190406 -15.838115104672157 a39.39585627267728,39.39585627267728 0 0,0 0.5808786445647008,0.3499728838547168 l -9.628678283972745 15.674695611358826" fill="#ffe915" stroke="none" /><path d="M 113.06298171725822 83.55741782278167 l 0.9597816787728795 -1.2080924146561505 a22.542941396572733,22.542941396572733 0 0,0 0.3017497244255447,0.24399395853204897 l -0.9804348017629153 1.1913923588599717" fill="#ff0500" stroke="none" /><path d="M 115.4437574822437 85.77008943001954 l 13.205941913229227 -12.167982606154432 a38.957079454055474,38.957079454055474 0 0,0 0.4501515748834733,0.49706861218251824 l -13.413437128728736 11.938861206702365" fill="#ffe315" stroke="none" /><path d="M 115.68641384162765 86.03803664274999 l 2.470980124438998 -2.1993385041491806 a24.307995258643174,24.307995258643174 0 0,0 0.2755000310318173,0.31494416046520524 l -2.508472019048664 2.1564787874810274" fill="#ff1e03" stroke="none" /><path d="M 116.38621287248628 86.86637796730983 l 17.766435199168523 -14.239876327125824 a43.76884488721579,43.76884488721579 0 0,0 0.4661296931495977,0.5919373740885215 l -18.008918972912085 13.931946559084263" fill="#e0ff1b" stroke="none" /><path d="M 116.60985879189232 87.15038557335679 l 2.2434468319120793 -1.7355612192691146 a23.83641083650575,23.83641083650575 0 0,0 0.24826650231649866,0.326689615576222 l -2.2729892744526916 1.696686827811859" fill="#ff1802" stroke="none" /><path d="M 116.82858285166822 87.43820079747576 l 8.73165877444518 -6.517800411141941 a31.896035386911496,31.896035386911496 0 0,0 0.32463691784625653,0.44280439110798764 l -8.842558304805062 6.36653357636246" fill="#ff880c" stroke="none" /><line stroke="#e1ed5e" stroke-width="0.3" x1="172.23445277983987" x2="176.4835382374775" y1="55.19839476539836" y2="52.563006222186495" /><path d="M 173.08426987136738 54.67131705675599 a86.0,86.0 0 0,1 12.851231095245387,41.99856678651699" fill="none" id="id87" stroke="none" /><text fill="#e1ed5e" style="font-size:6.75px; font-family:Arial;" text-anchor="middle"><textPath startOffset="22.20632615414155" xlink:href="#id87">March</textPath></text><path d="M 118.3937258080291 89.86733742301442 l 9.964511535202838 -5.489210515828043 a32.37641956954241,32.37641956954241 0 0,0 0.26470328649501096,0.49045498841326535 l -10.057522920916314 5.316874544082319" fill="#ff8e0d" stroke="none" /><path d="M 118.89224826269711 90.83032412892265 l 19.20789302540485 -9.32287945617674 a42.35086030654968,42.35086030654968 0 0,0 0.3126739940134732,0.658571173202466 l -19.365525213260078 8.990865867333733" fill="#f1ff19" stroke="none" /><path d="M 119.196687751892 91.48605970444005 l 5.791738167826549 -2.568699017544367 a27.33580662957703,27.33580662957703 0 0,0 0.18706711269591697,0.43177668773551975 l -5.835095990365146 2.468623185222244" fill="#ff4906" stroke="none" /><path d="M 119.61058180528143 92.48833698450437 l 11.615454147030057 -4.449198814740567 a33.43841409243343,33.43841409243343 0 0,0 0.2012601004317227,0.5392770089304518 l -11.690318835963405 4.248598668780782" fill="#ff9c0e" stroke="none" /><path d="M 119.85752413597 93.16781622104841 l 12.469265970227267 -4.2901781769914615 a34.18666836720335,34.18666836720335 0 0,0 0.18666361485288377,0.5581004494167717 l -12.541266878851921 4.074904624652376" fill="#ffa60f" stroke="none" /><path d="M 120.08093135843002 93.85539295169968 l 3.172595954031835 -0.970789407751713 a24.317800048487264,24.317800048487264 0 0,0 0.11903459239053575,0.4013254702752141 l -3.1888364435340733 0.916034550729969" fill="#ff1f03" stroke="none" /><path d="M 120.37134235888165 94.90015583598534 l 18.5318693591618 -4.639343060198394 a40.103761042665155,40.103761042665155 0 0,0 0.16188016774266503,0.6710978045902243 l -18.608982327165283 4.319660023948764" fill="#fff216" stroke="none" /><path d="M 120.53481517161879 95.60439243477599 l 15.13555962447986 -3.2398626349076705 a36.47843257695222,36.47843257695222 0 0,0 0.1261471170312183,0.6151381428809728 l -15.189086037426076 2.978848835863286" fill="#ffc412" stroke="none" /><path d="M 120.91429891909075 98.10471618934814 l 3.206080840842383 -0.29053965121169145 a24.219218483878162,24.219218483878162 0 0,0 0.03405166320118745,0.41551654075455546 l -3.210606987863065 0.23530919324936725" fill="#ff1d03" stroke="none" /><path d="M 120.98425023603335 99.18683210126433 l 20.97863225592793 -0.8129501944562167 a41.99437780331025,41.99437780331025 0 0,0 0.021773696031786614,0.7225629686023326 l -20.98951764641536 0.4517170784288851" fill="#f5ff19" stroke="none" /><line stroke="#e1ed5e" stroke-width="0.3" x1="184.98032266829074" x2="189.97916517819016" y1="98.17113171792111" y2="98.06355123074" /><path d="M 185.9800911702706 98.14961562048488 a86.0,86.0 0 0,1 -9.607161424134198,41.387399972396054" fill="none" id="id88" stroke="none" /><text fill="#e1ed5e" style="font-size:6.75px; font-family:Arial;" text-anchor="middle"><textPath startOffset="21.466115282336823" xlink:href="#id88">April</textPath></text><path d="M 120.99513854157772 99.54816195383933 l 4.851838330211966 -0.10441679853976664 a25.852961781255992,25.852961781255992 0 0,0 0.005745504219956838,0.44499563360345884 l -4.852916841549638 0.02088490687584506" fill="#ff3505" stroke="none" /><path d="M 120.99980553446 99.90962569577887 l 4.154136428609786 -0.017877650760108034 a25.154174897365248,25.154174897365248 0 0,0 -0.0018634484794355418,0.43299980042877806 l -4.153828682840848 -0.05363162787235473" fill="#ff2b04" stroke="none" /><path d="M 120.9904718944345 100.63252640178507 l 21.946633387857677 0.6613393504411108 a42.95659551928466,42.95659551928466 0 0,0 -0.028633367487787942,0.7388999853515149 l -21.931997887518687 -1.0390165828066318" fill="#eaff1a" stroke="none" /><path d="M 120.89721153311464 102.0752229133903 l 18.48389206581182 1.8355652993616758 a39.57480998203755,39.57480998203755 0 0,0 -0.07315252581123315,0.6773015365835603 l -18.449557238499533 -2.1534631578300276" fill="#ffeb16" stroke="none" /><path d="M 120.8583938346157 102.4346265915055 l 4.772891136845985 0.5570998309966605 a25.80529395832133,25.80529395832133 0 0,0 -0.05529520388408992,0.4407571803926007 l -4.762594423715047 -0.6391747656766561" fill="#ff3404" stroke="none" /><path d="M 120.76222939487914 103.15116336523771 l 13.617702816921533 2.0668111029522316 a34.77365376889078,34.77365376889078 0 0,0 -0.09491261088003763,0.5910209185511565 l -13.580108451680205 -2.300911251196593" fill="#ffae10" stroke="none" /><path d="M 120.5718875245553 104.21870165774334 l 15.792872505497307 3.238663313706354 a37.12153100776847,37.12153100776847 0 0,0 -0.13375411084396163,0.6248546768266822 l -15.734784355928902 -3.510031809949205" fill="#ffcc13" stroke="none" /><path d="M 120.32669344350535 105.2749913415812 l 13.159433861530772 3.4150118843783064 a34.5953302911863,34.5953302911863 0 0,0 -0.15454545162894148,0.5751211178304637 l -13.098700333560053 -3.6410239353843186" fill="#ffac0f" stroke="none" /><path d="M 120.23288151984713 105.62410040840565 l 19.194360132273136 5.335424346409076 a40.92210365005792,40.92210365005792 0 0,0 -0.19449177420885752,0.6770513809447278 l -19.09967572117818 -5.665033202858386" fill="#fffc17" stroke="none" /><path d="M 120.02730092923936 106.31721596034902 l 5.765364933149288 1.8185703356438516 a27.04538095392435,27.04538095392435 0 0,0 -0.14386564889385506,0.4427729391656561 l -5.733207033239187 -1.917542174787303" fill="#ff4506" stroke="none" /><path d="M 119.9155931802556 106.66101706037122 l 23.847226075997295 7.976000428258837 a46.14571085396693,46.14571085396693 0 0,0 -0.2584361290032851,0.7511363621540118 l -23.70639911605078 -8.38530949350215" fill="#c4ff1e" stroke="none" /><path d="M 119.67450827220406 107.3425965602758 l 17.55069230525707 6.549980877189303 a39.73310038101956,39.73310038101956 0 0,0 -0.24465319851196407,0.6387123002516779 l -17.435344827151596 -6.851116744274124" fill="#ffed16" stroke="none" /><path d="M 119.54520255179757 107.68017299344265 l 1.1260007317340877 0.4424553998630962 a22.209811732764116,22.209811732764116 0 0,0 -0.14288035728247261,0.3546173292422812 l -1.1182177601942227 -0.46177209694819094" fill="#ff0000" stroke="none" /><path d="M 118.97047184881838 109.00673069616215 l 2.827536304675204 1.342447263978694 a24.130036135705176,24.130036135705176 0 0,0 -0.1813736962757298,0.3736835354423005 l -2.8040093517847597 -1.3909197553862698" fill="#ff1c02" stroke="none" /><path d="M 118.81262510543309 109.33194174019688 l 11.08153425595319 5.496959169121255 a33.370002488797255,33.370002488797255 0 0,0 -0.25968429504546475,0.5123817503801563 l -10.985271291121457 -5.686895131204106" fill="#ff9c0e" stroke="none" /><line stroke="#e1ed5e" stroke-width="0.3" x1="174.80103733775053" x2="179.2010983576182" y1="140.37084112569926" y2="142.7455964860345" /><path d="M 175.68104954172406 140.8457921977663 a86.0,86.0 0 0,1 -30.038265399797805,32.042727171017184" fill="none" id="id89" stroke="none" /><text fill="#e1ed5e" style="font-size:6.75px; font-family:Arial;" text-anchor="middle"><textPath startOffset="22.206326154141568" xlink:href="#id89">May</textPath></text><path d="M 118.48025628344425 109.97397251340804 l 11.595213847195913 6.25804872103571 a34.17619664231908,34.17619664231908 0 0,0 -0.2838635680783122,0.5152948298091508 l -11.48577386966609 -6.456714069242666" fill="#ffa60f" stroke="none" /><path d="M 118.30583269289576 110.29060199501025 l 11.377276571047751 6.395722442347244 a34.05173121595968,34.05173121595968 0 0,0 -0.2916255184164787,0.5084736725472313 l -11.265499056478893 -6.590615960752791" fill="#ffa50f" stroke="none" /><path d="M 116.93607887273984 112.41649034213515 l 19.071460035811512 13.982020343931087 a44.64777961660795,44.64777961660795 0 0,0 -0.45974187186533294,0.6158993673065646 l -18.827956897251084 -14.308232590746966" fill="#d6ff1c" stroke="none" /><path d="M 116.0416608686014 113.55231037782055 l 2.532278984868814 2.1393190547586096 a24.314984596534575,24.314984596534575 0 0,0 -0.27285753570688137,0.31739495768784864 l -2.4950789395911537 -2.1825911116079864" fill="#ff1f03" stroke="none" /><path d="M 115.32070863581623 114.36230785411682 l 10.519753171784869 9.861680500162237 a35.419360217518594,35.419360217518594 0 0,0 -0.4208046823152107,0.44121202705254886 l -10.348441938090692 -10.041299643797293" fill="#ffb610" stroke="none" /><path d="M 114.55890576462653 115.13401014063108 l 2.4792084786135913 2.5771419131813524 a24.576050212330017,24.576050212330017 0 0,0 -0.3073927487138704,0.29065903039694374 l -2.4344798955089133 -2.6194355803242177" fill="#ff2203" stroke="none" /><path d="M 113.48314897796784 116.09983520530334 l 2.809870146140102 3.3551840430658455 a25.37637180790356,25.37637180790356 0 0,0 -0.33730016194010687,0.277575069998597 l -2.751699855655304 -3.4030542319216206" fill="#ff2e04" stroke="none" /><path d="M 113.20401910651253 116.32954008644616 l 11.400817149398268 14.099502519465338 a39.13214281243182,39.13214281243182 0 0,0 -0.5274314198558758,0.41902341861066594 l -11.156428236825041 -14.293659852081129" fill="#ffe515" stroke="none" /><path d="M 112.04921762599082 117.19931262002967 l 6.902649198260219 9.852990057311887 a33.03029422016475,33.03029422016475 0 0,0 -0.4684688443979353,0.3222171429038878 l -6.732023469239401 -9.970347989580867" fill="#ff970d" stroke="none" /><path d="M 111.7513745106137 117.40417183066458 l 10.835857362249207 16.04826084768429 a40.3639479706574,40.3639479706574 0 0,0 -0.579175180109655,0.38384572791939736 l -10.558007483399589 -16.232404596695005" fill="#fff517" stroke="none" /><path d="M 111.1453310114006 117.79835938074945 l 1.7190397908338073 2.745193297154801 a24.2390097315713,24.2390097315713 0 0,0 -0.3555294843031975,0.2183952473272604 l -1.6715311065983012 -2.77437701131044" fill="#ff1d03" stroke="none" /><line stroke="#e1ed5e" stroke-width="0.3" x1="143.8653032363475" x2="146.44561519142675" y1="172.8068346515853" y2="177.08958963109032" /><path d="M 144.38136562736335 173.6633856474863 a86.0,86.0 0 0,1 -40.68145358897372,12.25698825130547" fill="none" id="id90" stroke="none" /><text fill="#e1ed5e" style="font-size:6.75px; font-family:Arial;" text-anchor="middle"><textPath startOffset="21.466115282336833" xlink:href="#id90">June</textPath></text><path d="M 109.89434966115114 118.52300852407294 l 5.295857046841755 9.914265068484433 a32.24005132144663,32.24005132144663 0 0,0 -0.49175151148914437,0.2572611491993792 l -5.124414632826116 -10.003955636628527" fill="#ff8d0c" stroke="none" /><path d="M 109.57404056367764 118.69057910512821 l 7.944518227893218 15.509402263649198 a38.42575474546266,38.42575474546266 0 0,0 -0.5912920233493753,0.296486095528426 l -7.676372296861081 -15.643856200086928" fill="#ffdd14" stroke="none" /><path d="M 106.2309692047433 120.05430185196036 l 2.1545071335779724 6.934256129220353 a28.26125395880549,28.26125395880549 0 0,0 -0.46580605946867876,0.140343544652542 l -2.034826099669048 -6.97031504297862" fill="#ff5608" stroke="none" /><path d="M 105.18746579009965 120.34920634021253 l 0.7886882031638477 3.093838038392978 a24.192782938067843,24.192782938067843 0 0,0 -0.40441890396805724,0.09939632713229996 l -0.7353160144525793 -3.106955623839308" fill="#ff1d02" stroke="none" /><path d="M 104.48393922423573 120.51570834832081 l 0.7622757546799411 3.48769826751507 a24.570028505684583,24.570028505684583 0 0,0 -0.4139564703921326,0.08674860319404334 l -0.7021278228584305 -3.500302851435655" fill="#ff2203" stroke="none" /><path d="M 104.13013068566511 120.58985236759428 l 0.6571237768109836 3.2759451410906792 a24.341201614013432,24.341201614013432 0 0,0 -0.4115197558673461,0.07886874063725063 l -0.600636406371933 -3.2867710800763983" fill="#ff1f03" stroke="none" /><path d="M 101.98527174616119 120.90594882070398 l 1.5308908737509557 16.121080813549092 a37.193605943838286,37.193605943838286 0 0,0 -0.6378804059216823,0.0550390054836916 l -1.2531661500877318 -16.14504407131145" fill="#ffcd13" stroke="none" /><line stroke="#e1ed5e" stroke-width="0.3" x1="102.19456741930631" x2="102.32365962044197" y1="184.97166512339345" y2="189.96999836594603" /><path d="M 102.22038585953345 185.97133177190398 a86.0,86.0 0 0,1 -42.740103519485714,-10.115201625700543" fill="none" id="id91" stroke="none" /><text fill="#e1ed5e" style="font-size:6.75px; font-family:Arial;" text-anchor="middle"><textPath startOffset="22.20632615414155" xlink:href="#id91">July</textPath></text><path d="M 100.18074693466247 120.99922214144158 l 0.05925204394954222 6.883916651502142 a27.884171647303738,27.884171647303738 0 0,0 -0.4799979572239906,0.0 l 0.05925204394953748 -6.883916651502142" fill="#ff5107" stroke="none" /><path d="M 99.81925306533755 120.99922214144158 l -0.03322655690987748 3.8602693365107896 a24.860412329595057,24.860412329595057 0 0,0 -0.42788357818118944,-0.007366403836684027 l 0.09966982498373489 -3.859125455394946" fill="#ff2603" stroke="none" /><path d="M 99.45781275523022 120.99299961872073 l -0.1038412429773188 4.020638986363413 a25.021979719293533,25.021979719293533 0 0,0 -0.43047295397098007,-0.01482635892501727 l 0.17303454862294193 -4.018255829012302" fill="#ff2904" stroke="none" /><path d="M 99.09653310690486 120.98055641714683 l -0.3526520102739425 8.18938187300415 a29.196971324961385,29.196971324961385 0 0,0 -0.5019264292619183,-0.02594386318486808 l 0.4935665079493498 -8.18209820305708" fill="#ff6309" stroke="none" /><path d="M 98.73552117531835 120.96189622390904 l -0.5058509708220432 8.385743871831878 a29.40098717346048,29.40098717346048 0 0,0 -0.5049090878386131,-0.03482148685044895 l 0.6501228194395864 -8.375794040465143" fill="#ff6609" stroke="none" /><path d="M 98.37488393609728 120.93702456842531 l -0.29697809310517714 3.8260883451579764 a24.837596645393845,24.837596645393845 0 0,0 -0.42597150311820076,-0.03675461368364643 l 0.36279391396491956 -3.8204094791956664" fill="#ff2603" stroke="none" /><path d="M 98.01472825383883 120.90594882070398 l -1.2922820083936626 13.608404784702511 a34.669625948559535,34.669625948559535 0 0,0 -0.5936222561418522,-0.061531374024064715 l 1.5263368611411081 -13.584144042222686" fill="#ffad10" stroke="none" /><path d="M 97.2962882734958 120.8252237178851 l -0.5451925130634796 4.1993219700766575 a25.234564899097542,25.234564899097542 0 0,0 -0.4302750573432,-0.05963220227251315 l 0.6173961615935106 -4.18931520231154" fill="#ff2c04" stroke="none" /><path d="M 96.58105272829116 120.7198165907248 l -0.932069329079321 5.648611696404094 a26.72499496340071,26.72499496340071 0 0,0 -0.4532444973152118,-0.07880236557870107 l 1.029162797866583 -5.631730752304387" fill="#ff4106" stroke="none" /><path d="M 95.86986931433489 120.58985236759428 l -3.912756359603816 19.506180778789233 a40.89474179034316,40.89474179034316 0 0,0 -0.6889956584792332,-0.14438573921363454 l 4.247943479512436 -19.43593905884906" fill="#fffb17" stroke="none" /><path d="M 95.16358092515715 120.4354850818985 l -3.5727661506274817 15.0961296451822 a36.51314888187496,36.51314888187496 0 0,0 -0.6103724275554439,-0.15001469240574553 l 3.832091862926136 -15.032393694462424" fill="#ffc412" stroke="none" /><path d="M 94.46302465271185 120.25689768951611 l -5.2926682242599306 19.36310566668789 a41.073420186689944,41.073420186689944 0 0,0 -0.6803887001091524,-0.19228464286987731 l 5.625188092473697 -19.26913223047949" fill="#fffd18" stroke="none" /><path d="M 93.42475214034765 119.94407469862007 l -4.418793817135875 13.403107509838872 a35.11272580753475,35.11272580753475 0 0,0 -0.5723880382378731,-0.19418509986439414 l 4.648851588310974 -13.325059423076354" fill="#ffb210" stroke="none" /><path d="M 92.7421414339146 119.70592522655815 l -10.932099709851157 29.681914781069892 a52.63110603720368,52.63110603720368 0 0,0 -0.8474354412143723,-0.32042757169903957 l 11.441405371825812 -29.48933895926422" fill="#7cff26" stroke="none" /><path d="M 92.06813273071674 119.44442032107085 l -7.377881213569723 18.08636207909531 a40.5332952790276,40.5332952790276 0 0,0 -0.643762419817737,-0.26909274369449315 l 7.688115092884923 -17.956684292380842" fill="#fff717" stroke="none" /><path d="M 91.7346041902142 119.30500536409082 l -4.812294648987185 11.239797361221687 a33.22666039889866,33.22666039889866 0 0,0 -0.5238409670592212,-0.22963648569179484 l 5.00505629070415 -11.15529632223544" fill="#ff9a0e" stroke="none" /><path d="M 91.07499286063937 119.00905698771935 l -5.070170431433037 10.798776646745022 a32.929803236854475,32.929803236854475 0 0,0 -0.5110193200064523,-0.24532032819603575 l 5.255302419439731 -10.709902042049423" fill="#ff960d" stroke="none" /><path d="M 90.7491055286396 118.85261126421891 l -6.30880230826741 12.856853770063825 a35.32130145725606,35.32130145725606 0 0,0 -0.5435209781653102,-0.27253270176250544 l 6.529177194115481 -12.746353227392017" fill="#ffb510" stroke="none" /><path d="M 90.10565033884886 118.52300852407294 l -8.017140832819647 15.0087244812141 a38.0157679135048,38.0157679135048 0 0,0 -0.5745398821448815,-0.31328495323634037 l 8.274303526833169 -14.868498876217993" fill="#ffd714" stroke="none" /><line stroke="#e1ed5e" stroke-width="0.3" x1="58.666819895761336" x2="56.23545636021788" y1="174.27360380694188" y2="178.64263932499728" /><path d="M 58.180547188652646 175.14741091055294 a86.0,86.0 0 0,1 -31.652253787137756,-30.449443065178592" fill="none" id="id92" stroke="none" /><text fill="#e1ed5e" style="font-size:6.75px; font-family:Arial;" text-anchor="middle"><textPath startOffset="22.20632615414155" xlink:href="#id92">August</textPath></text><path d="M 89.4739219176387 118.17145234162733 l -8.875029759416469 15.321203114957594 a38.706084211940095,38.706084211940095 0 0,0 -0.5736465234969925,-0.3389204774195193 l 9.137444153941843 -15.166164065244326" fill="#ffe015" stroke="none" /><path d="M 88.8546689885994 117.79835938074946 l -4.087644267387229 6.527698604662218 a28.701927338660937,28.701927338660937 0 0,0 -0.4164761703055668,-0.26581479677700676 l 4.199402239739719 -6.456369379061407" fill="#ff5c08" stroke="none" /><path d="M 87.65650970185807 116.9893568818739 l -4.500194572489151 6.193986448176572 a28.65618830165872,28.65618830165872 0 0,0 -0.396567571951321,-0.29337120913792886 l 4.606147114859036 -6.115605290298876" fill="#ff5c08" stroke="none" /><path d="M 87.36589467227662 116.77436683061367 l -9.645705158349154 12.806652506770511 a37.032778188167356,37.032778188167356 0 0,0 -0.505887626964678,-0.3878930602014489 l 9.864721513807318 -12.638720104741697" fill="#ffcb12" stroke="none" /><path d="M 86.79598089348748 116.32954008644616 l -9.193866906579487 11.370145482930432 a35.62215432140219,35.62215432140219 0 0,0 -0.4734860646044882,-0.3896467964023265 l 9.388223099728664 -11.210203567670925" fill="#ffb911" stroke="none" /><path d="M 86.24171649860922 115.8653595955263 l -18.5707415407598 21.414843826262846 a49.34551071116782,49.34551071116782 0 0,0 -0.6369275251424725,-0.5620144866447138 l 18.936611418808862 -21.09200619784584" fill="#a0ff22" stroke="none" /><path d="M 85.70375840098266 115.38237550388516 l -5.068632564771473 5.453713751444609 a28.445403263716337,28.445403263716337 0 0,0 -0.3557899101752754,-0.33642156735720924 l 5.161758309337565 -5.36565754734147" fill="#ff5908" stroke="none" /><path d="M 85.18274418774928 114.88116024355367 l -15.363105831058974 15.429364425337202 a42.77361493519575,42.77361493519575 0 0,0 -0.517274310145601,-0.523996145185225 l 15.62642076626011 -15.162627786171312" fill="#ecff1a" stroke="none" /><path d="M 84.9287848128048 114.62390073753433 l -34.632116128899675 33.60423312315825 a69.25585924383856,69.25585924383856 0 0,0 -0.8228039599980375,-0.8627066625310591 l 35.20542664027667 -33.00311934404469" fill="#3bff98" stroke="none" /><path d="M 84.43433777217949 114.09645910891817 l -13.595363608975646 12.312131946578514 a39.34182392048889,39.34182392048889 0 0,0 -0.45025996276108676,-0.5058718413351783 l 13.805282421385071 -12.076285935502472" fill="#ffe815" stroke="none" /><path d="M 83.95833913139862 113.55231037782056 l -12.971399086481792 10.958492882657858 a37.98074675978779,37.98074675978779 0 0,0 -0.41761458827931464,-0.5030436741737127 l 13.158109674654643 -10.733587951370383" fill="#ffd714" stroke="none" /><path d="M 83.50135304334701 112.99209946851258 l -10.49527118135727 8.264653913466677 a34.358713316768515,34.358713316768515 0 0,0 -0.36190062642037923,-0.46780534434372145 l 10.635978624995717 -8.082770575009702" fill="#ffa90f" stroke="none" /><path d="M 83.28015986056508 112.70617746262583 l -9.080505394644245 6.900694745433161 a32.4050500302196,32.4050500302196 0 0,0 -0.33367747481986104,-0.44701550631481557 l 9.19794413615919 -6.743366359609038" fill="#ff8f0d" stroke="none" /><path d="M 82.85270091963577 112.12312394758628 l -31.700950664121354 22.41254161114787 a59.823604861997175,59.823604861997175 0 0,0 -0.5872373160258598,-0.8459591519638847 l 32.08204888730935 -21.86354119699697" fill="#33ff2f" stroke="none" /><path d="M 82.6465618267979 111.8261652097733 l -10.571407034350095 7.2042902876182575 a33.79282788261366,33.79282788261366 0 0,0 -0.3234406411330966,-0.48349987349150836 l 10.693850780893921 -7.021253499920928" fill="#ffa10e" stroke="none" /><path d="M 82.05923443525364 110.91462005526583 l -9.174998994743927 5.5817923529336095 a31.73950708481633,31.73950708481633 0 0,0 -0.279941128953307,-0.46919743430939637 l 9.269720999395465 -5.423032824738102" fill="#ff860c" stroke="none" /><line stroke="#e1ed5e" stroke-width="0.3" x1="26.63291911575756" x2="22.317208475507996" y1="142.92168965132927" y2="145.44649492493687" /><path d="M 25.769776987707644 143.4266507060508 a86.0,86.0 0 0,1 -11.730757126820373,-40.83630448921669" fill="none" id="id93" stroke="none" /><text fill="#e1ed5e" style="font-size:6.75px; font-family:Arial;" text-anchor="middle"><textPath startOffset="21.46611528233685" xlink:href="#id93">September</textPath></text><path d="M 81.87401531095188 110.60418214915194 l -36.30849008785797 21.241430413706404 a63.06548250621181,63.06548250621181 0 0,0 -0.5401048162109223,-0.9417182726341974 l 36.668746900221265 -20.6132922952139" fill="#33ff52" stroke="none" /><path d="M 81.69416730710424 110.29060199501025 l -6.183161432400838 3.4758568178342313 a28.093170371365254,28.093170371365254 0 0,0 -0.2333386498125619,-0.4235774272022396 l 6.242076491664916 -3.368908872234169" fill="#ff5407" stroke="none" /><path d="M 81.51974371655577 109.97397251340807 l -5.961850726518069 3.217668324686823 a27.774736417970587,27.774736417970587 0 0,0 -0.22345105012052585,-0.42268517710114056 l 6.016354284863481 -3.114568132499556" fill="#ff5007" stroke="none" /><path d="M 81.35079622478065 109.6543875284942 l -13.727388638795594 7.106444396799578 a36.45777315156806,36.45777315156806 0 0,0 -0.2837132278599897,-0.5597931144486691 l 13.84768053644185 -6.869097070648223" fill="#ffc412" stroke="none" /><path d="M 80.87730276802145 108.67885076344099 l -12.952263897990504 5.878394875770014 a35.2238063259687,35.2238063259687 0 0,0 -0.2458268022271169,-0.5542745426416886 l 13.0515317849489 -5.65457199663563" fill="#ffb410" stroke="none" /><path d="M 80.73074385275274 108.34839909993369 l -17.850578568658484 7.733757490019826 a40.45389832784903,40.45389832784903 0 0,0 -0.27132818506779643,-0.6413396804501011 l 17.981057734918586 -7.425343283903566" fill="#fff617" stroke="none" /><path d="M 80.20201598880116 107.00284435728193 l -32.90825265789936 11.64014332484674 a55.90624628371138,55.90624628371138 0 0,0 -0.3130993890719294,-0.9100133832183382 l 33.10374287791452 -11.071957238539104" fill="#5aff2a" stroke="none" /><path d="M 79.97269907076064 106.31721596034903 l -14.13499848630146 4.458605697925385 a35.82151635215902,35.82151635215902 0 0,0 -0.1804265427758232,-0.5896443812012921 l 14.209651801583416 -4.214634344172045" fill="#ffbc11" stroke="none" /><path d="M 79.86692584326677 105.97154293290107 l -16.36920376237034 4.855165300809732 a38.074058155933116,38.074058155933116 0 0,0 -0.18095577845660987,-0.6299308039753443 l 16.450352177713054 -4.572677021329792" fill="#ffd814" stroke="none" /><path d="M 79.50377843672027 104.57218783832718 l -16.210656305604466 3.6161867875478992 a37.609099456047275,37.609099456047275 0 0,0 -0.1355108887166633,-0.6330617581864659 l 16.27050123304557 -3.3366112099452696" fill="#ffd213" stroke="none" /><path d="M 79.4281124754447 104.21870165774334 l -11.25294635025727 2.307655209842173 a32.487126452219464,32.487126452219464 0 0,0 -0.10762531260518607,-0.5487791502824947 l 11.291001595838122 -2.1136123324917233" fill="#ff900d" stroke="none" /><path d="M 79.29508885075956 103.50808413554451 l -15.875758165818775 2.6898688412528236 a37.10202135518098,37.10202135518098 0 0,0 -0.10126775112994758,-0.630594382953811 l 15.919707671310013 -2.416195228605799" fill="#ffcc13" stroke="none" /><path d="M 79.0095281055655 100.63252640178507 l -14.103973244708474 0.42500880838766725 a35.11037539453361,35.11037539453361 0 0,0 -0.013004109472597098,-0.6042498685245772 l 14.109199416866078 -0.18216912407296118" fill="#ffb210" stroke="none" /><line stroke="#e1ed5e" stroke-width="0.3" x1="15.007084014347285" x2="10.007500721073583" y1="101.09737516637583" y2="101.16192664675087" /><path d="M 14.007167355692545 101.11028546245083 a86.0,86.0 0 0,1 10.666146001902534,-42.60595125391555" fill="none" id="id94" stroke="none" /><text fill="#e1ed5e" style="font-size:6.75px; font-family:Arial;" text-anchor="middle"><textPath startOffset="22.20632615414155" xlink:href="#id94">October</textPath></text><path d="M 79.00175016825051 100.2711162175752 l -15.703680716068295 0.20275606547511923 a36.70498959102814,36.70498959102814 0 0,0 -0.002719145323596484,-0.6318336114185441 l 15.704844158681393 0.06758702414710017" fill="#ffc712" stroke="none" /><path d="M 79.00019446554 99.90962569577889 l -19.631736811810093 -0.08448671356066031 a40.6319186085555,40.6319186085555 0 0,0 0.009029946425699504,-0.6993793020205149 l 19.627373858266676 0.4224022736416472" fill="#fff817" stroke="none" /><path d="M 79.01574976396665 99.18683210126434 l -13.929186819762242 -0.5397747095997041 a34.93964139413068,34.93964139413068 0 0,0 0.028461485422336258,-0.6007769736188358 l 13.917831726106407 0.779462789841549" fill="#ffb010" stroke="none" /><path d="M 79.03285615573316 98.82574320788736 l -8.48983229560149 -0.475469778385351 a29.503136122490094,29.503136122490094 0 0,0 0.032761699899658,-0.5068089967760879 l 8.48039000469742 0.6215378394144506" fill="#ff6809" stroke="none" /><path d="M 79.05617556472873 98.46500227214037 l -9.648983490412666 -0.7071854416901636 a30.67486401181922,30.67486401181922 0 0,0 0.04312815208169977,-0.5262726950001162 l 9.63538085451147 0.8731720538980582" fill="#ff770b" stroke="none" /><path d="M 79.08570108090925 98.10471618934814 l -9.460427896213071 -0.8573175655037125 a30.499194144113893,30.499194144113893 0 0,0 0.051881851390642275,-0.5224431632111389 l 9.4442689191402 1.0200362594192818" fill="#ff750a" stroke="none" /><path d="M 79.12142395522702 97.74499172005258 l -6.863481935520644 -0.7412961765533521 a27.90339802565308,27.90339802565308 0 0,0 0.05568674101216546,-0.4770899896725918 l 6.84970484150489 0.8593299045508056" fill="#ff5107" stroke="none" /><path d="M 79.16333360222342 97.38593545837743 l -20.917171593761992 -2.6241643231434826 a42.08113625679941,42.08113625679941 0 0,0 0.09635378073425545,-0.7179475840899555 l 20.868901813969902 2.9838302492980975" fill="#f4ff19" stroke="none" /><path d="M 79.21141760316559 97.0276538004421 l -13.290769460737096 -1.9003108216670777 a34.42593512860117,34.42593512860117 0 0,0 0.08892400445559576,-0.585898084366396 l 13.256089562842199 2.1288080184255658" fill="#ffa90f" stroke="none" /><path d="M 79.26566170972629 96.67025291283419 l -6.540926493034731 -1.0504136005036968 a27.62473306023773,27.62473306023773 0 0,0 0.07943839073850044,-0.4688498788881103 l 6.521876240776007 1.162849267707635" fill="#ff4e07" stroke="none" /><path d="M 79.32604984820605 96.31383870115002 l -17.10292360440955 -3.0494479586568906 a38.372654623598144,38.372654623598144 0 0,0 0.12153949256883485,-0.6492688292248378 l 17.047898387930854 3.343394865344301" fill="#ffdc14" stroke="none" /><path d="M 79.3925641242962 95.95851677861259 l -11.805417997166614 -2.3152515938805203 a33.030306896783294,33.030306896783294 0 0,0 0.11422305442801017,-0.5569921788830869 l 11.76381564682361 2.51811942892701" fill="#ff970d" stroke="none" /><path d="M 79.62865764111835 94.90015583598534 l -18.148292776369885 -4.5433169484801805 a39.70834732388691,39.70834732388691 0 0,0 0.17169826630365698,-0.6616234601988209 l 18.06739817819592 4.855036834227866" fill="#ffed16" stroke="none" /><path d="M 79.81627453868168 94.20196356495316 l -10.786385659030627 -3.0985289199153385 a32.222610973070985,32.222610973070985 0 0,0 0.15772830417596664,-0.531781430741186 l 10.731451457742953 3.2837397374030637" fill="#ff8c0c" stroke="none" /><path d="M 80.02781315780177 93.51064311812611 l -19.976389348327587 -6.49072235888886 a42.00441877644215,42.00441877644215 0 0,0 0.2293495395452683,-0.6857259310799529 l 19.861702515010546 6.833621392891136" fill="#f5ff19" stroke="none" /><path d="M 80.14247586403 93.16781622104843 l -14.066957548392097 -4.839880265195515 a35.87628097508562,35.87628097508562 0 0,0 0.20594167350229586,-0.5822248433949998 l 13.981562794079991 5.081302735017126" fill="#ffbc11" stroke="none" /><path d="M 80.2630227832202 92.82701384747504 l -13.721204173126656 -4.9866809111037345 a35.59926129877107,35.59926129877107 0 0,0 0.21426587051886917,-0.5741260067019314 l 13.63333371410616 5.222130054835007" fill="#ffb911" stroke="none" /><path d="M 80.38941819471856 92.48833698450439 l -11.7316257151211 -4.493697324787137 a33.56281646632194,33.56281646632194 0 0,0 0.2112962295707023,-0.5377258570759464 l 11.652535935668705 4.6949721867588465" fill="#ff9e0e" stroke="none" /><path d="M 80.52162464483688 92.15188598940014 l -14.912840904681229 -6.008595352941087 a37.07781210126922,37.07781210126922 0 0,0 0.24361590322302745,-0.5899352330946662 l 14.807203314572002 6.2644051564890635" fill="#ffcc13" stroke="none" /><path d="M 80.65960295795068 91.81776055985345 l -2.71119697437221 -1.1470117581083368 a23.94384527566987,23.94384527566987 0 0,0 0.1638549051525333,-0.3781997123726576 l 2.691051359376996 1.1935106150675936" fill="#ff1902" stroke="none" /><path d="M 80.803312248108 91.48605970444005 l -17.42973992284527 -7.730279670544542 a40.06706735612114,40.06706735612114 0 0,0 0.28504414424180124,-0.6280569878036855 l 17.294093461640117 8.029158667190298" fill="#fff116" stroke="none" /><path d="M 80.95270993114464 91.15688171328213 l -11.258806130933705 -5.227145385152123 a33.41304814988919,33.41304814988919 0 0,0 0.24668663497196872,-0.5195849661863999 l 11.167161302119984 5.4201727669790545" fill="#ff9c0e" stroke="none" /><path d="M 81.10775173730289 90.83032412892265 l -13.244999893419202 -6.4286872714306105 a35.72270498959103,35.72270498959103 0 0,0 0.2732616603236647,-0.5508788325599695 l 13.132378220142122 6.655725692489542" fill="#ffba11" stroke="none" /><path d="M 81.43458229118936 90.18545643968196 l -22.951042057730742 -12.132988633128921 a46.9607346719495,46.9607346719495 0 0,0 0.383941799901144,-0.7113858445631062 l 22.738792158611126 12.5262554610245" fill="#bbff1f" stroke="none" /><line stroke="#e1ed5e" stroke-width="0.3" x1="26.266209847984243" x2="21.928928074336255" y1="57.711370442889674" y2="55.22380399835377" /><path d="M 25.398753493254645 57.213857153982495 a86.0,86.0 0 0,1 29.58750427330803,-30.492523968695096" fill="none" id="id95" stroke="none" /><text fill="#e1ed5e" style="font-size:6.75px; font-family:Arial;" text-anchor="middle"><textPath startOffset="21.46611528233685" xlink:href="#id95">November</textPath></text><path d="M 81.78341655067845 89.55222093294921 l -15.69758712940036 -9.003056070860703 a39.09611174534954,39.09611174534954 0 0,0 0.3398389030924122,-0.5808948457838988 l 15.540288551837621 9.271930328998494" fill="#ffe515" stroke="none" /><path d="M 81.96595687620814 89.24020034530311 l -17.72275776904166 -10.574074910136718 a41.63751930696394,41.63751930696394 0 0,0 0.37252533696815,-0.6123337050334811 l 17.538116633787293 10.877576388377273" fill="#faff18" stroke="none" /><path d="M 82.15384107792192 88.93136811851018 l -4.22130988994934 -2.618161444911127 a25.967315828352696,25.967315828352696 0 0,0 0.23886518179062624,-0.3778273539952881 l 4.175617111912751 2.6904364466206303" fill="#ff3605" stroke="none" /><path d="M 82.34701348167596 88.62581576622439 l -10.927717500035401 -7.040954343393264 a33.999617218454105,33.999617218454105 0 0,0 0.32122087869924204,-0.4892414359567005 l 10.80489998597824 7.228013843327632" fill="#ffa40f" stroke="none" /><path d="M 82.54541684631803 88.32363383020206 l -8.750695635912582 -5.853839394830491 a31.528157947753677,31.528157947753677 0 0,0 0.3056362666997288,-0.4484835078474062 l 8.648634903544112 6.003600925948312" fill="#ff830c" stroke="none" /><path d="M 82.7489923806493 88.02491185347247 l -18.631072782425395 -12.933084475810535 a43.67998119669599,43.67998119669599 0 0,0 0.43406956395020696,-0.6139606150128823 l 18.40569059867131 13.251871591155203" fill="#e1ff1b" stroke="none" /><path d="M 82.95767976084542 87.72973835380427 l -15.66693293231994 -11.279999646486077 a40.305211201396816,40.305211201396816 0 0,0 0.41022526401299025,-0.5595467990932993 l 15.470445055793315 11.548008889250879" fill="#fff417" stroke="none" /><path d="M 83.17141714833178 87.43820079747576 l -9.172374387146245 -6.846775291615569 a32.44599422469948,32.44599422469948 0 0,0 0.3379390276329233,-0.44468814759737135 l 9.053159419289214 7.003648215093968" fill="#ff8f0d" stroke="none" /><path d="M 83.39014120810768 87.1503855733568 l -7.8599102571371295 -6.080534307825012 a30.937358135786717,30.937358135786717 0 0,0 0.3294768525843624,-0.41840214388390423 l 7.754079323958797 6.214928845661964" fill="#ff7b0b" stroke="none" /><path d="M 83.84228863543731 86.58626213691792 l -11.825623255460698 -9.817343981290405 a36.36963266402525,36.36963266402525 0 0,0 0.40403091866138563,-0.4782451697831975 l 11.654881723312188 10.01944810070272" fill="#ffc312" stroke="none" /><path d="M 84.31358615837235 86.03803664274999 l -10.789821439503028 -9.603666783916777 a35.44474514807602,35.44474514807602 0 0,0 0.4095663246154395,-0.452253365160376 l 10.622911474271543 9.78797293634671" fill="#ffb710" stroke="none" /><path d="M 84.5562425177563 85.77008943001954 l -21.333667032805128 -19.656885596370635 a50.008938284870055,50.008938284870055 0 0,0 0.5887544636944104,-0.6280422121513516 l 20.99214524714026 20.021197225400037" fill="#99ff23" stroke="none" /><path d="M 84.80347519578584 85.50635884689758 l -8.433045646338305 -8.042992657891466 a32.653582700960314,32.653582700960314 0 0,0 0.3914320801884458,-0.40340516648543834 l 8.293349302446742 8.186962019927027" fill="#ff920d" stroke="none" /><path d="M 85.05521093208273 85.24692304244772 l -9.16281199327827 -9.04527122263735 a33.87532737895373,33.87532737895373 0 0,0 0.4132212443857137,-0.4114467410410425 l 9.005754948725242 9.201653814328502" fill="#ffa20f" stroke="none" /><path d="M 85.31137513191541 84.99185889309783 l -7.014588595980934 -7.167174354359884 a31.028601168491036,31.028601168491036 0 0,0 0.3849271681742345,-0.370299630806214 l 6.890178184194272 7.286857071928411" fill="#ff7c0b" stroke="none" /><path d="M 85.57189188830299 84.74124197986013 l -7.270057322845762 -7.68860647723561 a31.581512322879593,31.581512322879593 0 0,0 0.39821597528257696,-0.37009834988036544 l 7.136633463768329 7.812609413190623" fill="#ff840c" stroke="none" /><path d="M 85.83668400450813 84.49514656593479 l -9.524103183116749 -10.426218266410345 a35.121422335638975,35.121422335638975 0 0,0 0.44987031944230094,-0.40389801464236214 l 9.343221876078475 10.588615289821986" fill="#ffb210" stroke="none" /><path d="M 86.10567301691215 84.25364557470407 l -10.269292625572447 -11.638125515267307 a36.52109327781882,36.52109327781882 0 0,0 0.4749589073510454,-0.41187968413203235 l 10.067439919574628 11.81317019281902" fill="#ffc512" stroke="none" /><path d="M 86.37877921826538 84.01681056812374 l -8.163707148709937 -9.579323315804656 a33.58608555503324,33.58608555503324 0 0,0 0.44324430831542655,-0.3712043611902673 l 7.997605303435401 9.718428834388735" fill="#ff9e0e" stroke="none" /><path d="M 86.65592168130627 83.78471172551755 l -7.42931776954883 -9.027864378404074 a32.691753408098855,32.691753408098855 0 0,0 0.4375971799039999,-0.35383981997168223 l 7.27281719108033 9.15441029563989" fill="#ff930d" stroke="none" /><path d="M 86.93701828274178 83.55741782278169 l -14.844217656878994 -18.684652092659974 a44.863508159290845,44.863508159290845 0 0,0 0.6087923469874938,-0.4751720833279335 l 14.520392754732075 18.937402565211126" fill="#d3ff1c" stroke="none" /><path d="M 87.22198572758235 83.33499621200491 l -11.695202488349778 -15.252807644019219 a40.22045530857565,40.22045530857565 0 0,0 0.553038627044762,-0.41653722819697137 l 11.430917707546627 15.451861461722045" fill="#fff316" stroke="none" /><path d="M 87.51073957382395 83.11751280151077 l -12.122547581705895 -16.386779310989894 a41.38339265328051,41.38339265328051 0 0,0 0.5763222384105898,-0.41872261604053945 l 11.838680026941523 16.5930211618471" fill="#fdff18" stroke="none" /><path d="M 87.80319425747018 82.90503203632743 l -9.167903648937461 -12.849677405792255 a36.78495064132697,36.78495064132697 0 0,0 0.5186132579451896,-0.363321729580545 l 8.945359251408611 13.005583978136743" fill="#ffc812" stroke="none" /><path d="M 88.39885842347998 82.49532879139004 l -17.29040913285703 -26.089064161201144 a52.29852259754213,52.29852259754213 0 0,0 0.7546750880867077,-0.49086166994487734 l 16.838767018986033 26.382824755305556" fill="#80ff25" stroke="none" /><path d="M 88.70189139769569 82.29822771554957 l -8.006930340597535 -12.545184559281596 a35.882627090188706,35.882627090188706 0 0,0 0.5235118906191789,-0.32782309787865815 l 7.7897992976061134 12.681151998483184" fill="#ffbc11" stroke="none" /><line stroke="#e1ed5e" stroke-width="0.3" x1="56.762969772571076" x2="54.21961505331055" y1="26.818313649435495" y2="22.513508569990535" /><path d="M 56.25429882871897 25.957352633546506 a86.0,86.0 0 0,1 42.265352541879196,-11.944610805530505" fill="none" id="id96" stroke="none" /><text fill="#e1ed5e" style="font-size:6.75px; font-family:Arial;" text-anchor="middle"><textPath startOffset="22.20632615414155" xlink:href="#id96">December</textPath></text><path d="M 89.3179101791058 81.91981866633112 l -14.370044686822514 -24.322301915350014 a49.25017795984151,49.25017795984151 0 0,0 0.7336007901191856,-0.4249489282916004 l 13.949247164238008 24.566055001031664" fill="#a1ff22" stroke="none" /><path d="M 89.63071344664047 81.73862282372117 l -8.101636183269182 -14.26781228644255 a37.40752803706937,37.40752803706937 0 0,0 0.562673190203442,-0.3131270211548804 l 7.854838903993694 14.405154705157615" fill="#ffd013" stroke="none" /><path d="M 90.26544431104013 81.39251694778311 l -6.595628344839307 -12.607462175649859 a35.22850715197099,35.22850715197099 0 0,0 0.5397334625738521,-0.27647244289174705 l 6.377634394676692 12.719127143854111" fill="#ffb410" stroke="none" /><path d="M 90.58718382345135 81.22770947309562 l -9.789345679995744 -19.523215765226826 a42.84003760660802,42.84003760660802 0 0,0 0.6620391964618193,-0.32485975849915094 l 9.451835216523499 19.688830683860807" fill="#ebff1a" stroke="none" /><path d="M 90.91171255644093 81.06846463323043 l -6.167658155236754 -12.847661258641226 a35.25140017460211,35.25140017460211 0 0,0 0.549286962825076,-0.25789759418043023 l 5.945592981112069 12.951923835461663" fill="#ffb410" stroke="none" /><path d="M 91.23893434514133 80.91482961587045 l -9.240764054155436 -20.13014893402727 a43.14982204015848,43.14982204015848 0 0,0 0.6776944235152742,-0.3040617335130118 l 8.892887512173388 20.286230998056812" fill="#e8ff1a" stroke="none" /><path d="M 91.56875222667455 80.76684994638697 l -8.571702513166263 -19.55355186835344 a42.34983547108992,42.34983547108992 0 0,0 0.6701684848548244,-0.2869311705488103 l 8.233850270521131 19.69820256686504" fill="#f1ff19" stroke="none" /><path d="M 92.57280143429618 80.3572730644239 l -10.52757556239312 -27.842300193860016 a50.76614733731785,50.76614733731785 0 0,0 0.8200368775834298,-0.3020265025898695 l 10.04675635903712 28.01938996425621" fill="#91ff24" stroke="none" /><path d="M 93.59665428221793 80.00007090966166 l -4.122505880182997 -12.87605400551774 a34.51990464038681,34.51990464038681 0 0,0 0.5674655244996343,-0.17631430074266574 l 3.900254982972634 12.945108441142931" fill="#ffab0f" stroke="none" /><path d="M 93.94186890950719 79.89281104454417 l -5.896659582211522 -19.571258306310668 a41.44027264790813,41.44027264790813 0 0,0 0.6847704756682219,-0.1999032794903729 l 5.558898888819879 19.669859914719737" fill="#fcff18" stroke="none" /><path d="M 94.28887869178378 79.79150937346287 l -3.50267532824974 -12.394025221790608 a33.87946410583574,33.87946410583574 0 0,0 0.5625638402701929,-0.153769948518026 l 3.2888135987558247 12.45248171113493" fill="#ffa20f" stroke="none" /><path d="M 94.63758080256005 79.69619591428918 l -3.045834418054776 -11.532486182956928 a32.92792290645356,32.92792290645356 0 0,0 0.5492551765807754,-0.1400173741870934 l 2.846870352789001 11.583206553312886" fill="#ff960d" stroke="none" /><path d="M 94.98787191387505 79.60689891045804 l -4.852237688445442 -19.74254687642204 a41.330085286414615,41.330085286414615 0 0,0 0.6923307152180455,-0.16385231198383132 l 4.511683286264862 19.823145100546743" fill="#fdff18" stroke="none" /><path d="M 95.33964822691252 79.52364482259891 l -2.8303763360680603 -12.43592629159945 a33.75395205157478,33.75395205157478 0 0,0 0.5676406550279439,-0.12406426115718332 l 2.6158929568865954 12.4828040508525" fill="#ffa10e" stroke="none" /><path d="M 95.692805502759 79.44645832069477 l -2.9903439959691482 -14.269650464120419 a35.57961184608153,35.57961184608153 0 0,0 0.6005052179224897,-0.12045569745546705 l 2.744272368579522 14.319010117653097" fill="#ffb811" stroke="none" /><path d="M 96.04723909329186 79.375362276772 l -4.288417757593403 -22.376021404714937 a43.78325834396615,43.78325834396615 0 0,0 0.7414066800536582,-0.13548733182757158 l 3.902615956436852 22.44652421789324" fill="#e0ff1b" stroke="none" /><path d="M 96.40284397218896 79.31037775812273 l -2.6523117408740773 -15.255198151572436 a36.484050768920824,36.484050768920824 0 0,0 0.6196569214771519,-0.10224870146911265 l 2.3893256132580394 15.298593115981177" fill="#ffc412" stroke="none" /><path d="M 96.75951476605007 79.25152402106235 l -1.4890723474933572 -9.534368960912134 a30.64994963400712,30.64994963400712 0 0,0 0.5219701303533585,-0.07692482885241267 l 1.3247332367113498 9.558588273925515" fill="#ff770b" stroke="none" /><path d="M 97.11714578562143 79.19881850522333 l -8.648562643135705 -62.403544484330034 a84.0,84.0 0 0,0 1.433941085968569,-0.1861667073434532 l 7.573106828659279 62.54316951483762" fill="#4dd2ff" stroke="none" /><path d="M 97.47563105711357 79.15227682838746 l -3.004611020537555 -24.81384465256487 a45.99509099456047,45.99509099456047 0 0,0 0.7868080076355448,-0.0884070472870712 l 2.577036309392292 24.86188765332254" fill="#c6ff1e" stroke="none" /><path d="M 97.83486435360386 79.11191278185805 l -2.748422889044119 -26.51533501572922 a47.65739708548788,47.65739708548788 0 0,0 0.8166999866357186,-0.07755550453430334 l 2.2915977753181638 26.558716064778704" fill="#b3ff20" stroke="none" /><path d="M 98.19473922651362 79.07773832637324 l -1.1474941104882572 -13.29900499760791 a34.34841850782352,34.34841850782352 0 0,0 0.5895003338146653,-0.04575657152368265 l 0.9184035873112578 13.316786831320055" fill="#ffa80f" stroke="none" /></svg>