<?xml version="1.0" encoding="utf-8" ?>
<svg baseProfile="full" height="200mm" version="1.1" viewBox="0,0,200,200" width="200mm" xmlns="http://www.w3.org/2000/svg" xmlns:ev="http://www.w3.org/2001/xml-events" xmlns:xlink="http://www.w3.org/1999/xlink"><defs /><rect fill="#1a1a1a" height="200" width="200" x="0" y="0" /><text alignment-baseline="middle" fill="#e1ed5e" style="dominant-baseline: central; font-size:9.0px; font-family:Arial;" text-anchor="middle" x="100.0" y="100.0">2024</text><line stroke="#e1ed5e" stroke-width="0.3" x1="100.0" x2="100.0" y1="15.0" y2="10.0" /><path d="M 100.0 14.0 a86.0,86.0 0 0,1 42.35913384403234,11.155469271406648" fill="none" id="id97" stroke="none" /><text fill="#e1ed5e" style="font-size:6.75px; font-family:Arial;" text-anchor="middle"><textPath startOffset="22.145653131862478" xlink:href="#id97">January</textPath></text><path d="M 100.36049292484886 79.00309439819443 l 0.1641631750222917 -9.5616819405844 a30.563091084002664,30.563091084002664 0 0,0 0.5245014813103711,0.013509297623715675 l -0.3282779704034042 9.557454925610639" fill="#ff7f0b" stroke="none" /><path d="M 101.08105385017728 79.02784411241856 l 0.5085041670503515 -9.864844992796533 a30.87794225635129,30.87794225635129 0 0,0 0.5291239007369386,0.03183077993778003 l -0.6777724199197525 9.854662235034061" fill="#ff830c" stroke="none" /><path d="M 101.44090949804482 79.04949213459386 l 0.4084831156004557 -5.939254851109867 a26.95328536542326,26.95328536542326 0 0,0 0.4613260215716224,0.03570955169931507 l -0.5103781319473116 5.931367532415498" fill="#ff4e07" stroke="none" /><path d="M 101.80034050326958 79.07731436759882 l 0.801907485982274 -9.319380531074987 a30.353817888918616,30.353817888918616 0 0,0 0.5187618330126046,0.04912728494093784 l -0.9617688823798916 9.304241490628865" fill="#ff7c0b" stroke="none" /><path d="M 102.87502721639298 79.19773525538626 l 1.1856203881242435 -8.578558512331316 a29.66010172308778,29.66010172308778 0 0,0 0.5037625547498925,0.0740357475319157 l -1.332708048481818 8.556941691500517" fill="#ff730a" stroke="none" /><path d="M 103.23170211078529 79.25015418208739 l 1.2936815934037729 -8.306363854209582 a29.406502991353253,29.406502991353253 0 0,0 0.4981216509791205,0.08196572811109543 l -1.4360807474359638 8.28293212760282" fill="#ff700a" stroke="none" /><path d="M 103.58742460773223 79.30868818359171 l 1.9376111741583377 -11.175626352413001 a32.342352552754264,32.342352552754264 0 0,0 0.5462242421765882,0.09954025261143123 l -2.1291701498859794 11.140717925870204" fill="#ff970d" stroke="none" /><path d="M 103.94208987418118 79.37332000966035 l 4.9028667095969976 -25.65387037888193 a47.118176953772064,47.118176953772064 0 0,0 0.7931638642158426,0.15865498669273276 l -5.342527059343797 25.56592599552634" fill="#b4ff20" stroke="none" /><path d="M 104.9986988182912 79.60360301121754 l 1.0621079022160802 -4.3337626862519505 a25.462014367603444,25.462014367603444 0 0,0 0.42363300208855237,0.10768585252694207 l -1.136346197530027 4.314891601889741" fill="#ff3a05" stroke="none" /><path d="M 105.3480935250658 79.69241777938227 l 3.1600400307952152 -11.999186709254047 a33.408317157445936,33.408317157445936 0 0,0 0.5533349557539196,0.1508139027619836 l -3.365556387483828 11.94317231234792" fill="#ffa50f" stroke="none" /><path d="M 105.69591212413111 79.78721728523813 l 2.5190873578283894 -8.939352344916333 a30.287508894366237,30.287508894366237 0 0,0 0.4992246644613321,0.14531702404647773 l -2.672172034671326 8.89479162656734" fill="#ff7b0b" stroke="none" /><path d="M 106.04205211174951 79.88797359093562 l 2.772103056573884 -9.227429497677505 a30.634833184382344,30.634833184382344 0 0,0 0.502351988926528,0.1556299302897181 l -2.930095678372042 9.17848297958114" fill="#ff800b" stroke="none" /><path d="M 106.38641147887787 79.99465700312896 l 1.1388191015443843 -3.5673346155557923 a24.744700950060626,24.744700950060626 0 0,0 0.40354749710009863,0.13265407776858795 l -1.1998893362922252 3.547259616385183" fill="#ff3004" stroke="none" /><path d="M 106.72888874123014 80.10723608172694 l 3.8884207723645194 -11.49542508640371 a33.13526324477865,33.13526324477865 0 0,0 0.5372555179340947,0.18688535790304556 l -4.085182062343632 11.426981295932073" fill="#ffa10e" stroke="none" /><path d="M 107.06938296918511 80.22567764915836 l 1.6362120745582938 -4.576776380299084 a25.86046005931475,25.86046005931475 0 0,0 0.41673620129939665,0.1530313055149953 l -1.7145374275118153 4.5480142257753675" fill="#ff3f05" stroke="none" /><path d="M 107.74402155503746 80.48000691201159 l 3.4123851370062255 -8.601439680211948 a30.253601293312006,30.253601293312006 0 0,0 0.48109786594403275,0.19565831380956827 l -3.5595374641406976 8.541594109823086" fill="#ff7b0b" stroke="none" /><path d="M 108.07796709384702 80.6158196554323 l 2.9244826962216752 -7.017693850388204 a28.602672294547254,28.602672294547254 0 0,0 0.45160204234601836,0.19276205796014897 l -3.0445198137381233 6.966457142768654" fill="#ff6509" stroke="none" /><path d="M 108.73861861582097 80.90454125486305 l 4.182429825310156 -9.139363976709877 a31.050905090708305,31.050905090708305 0 0,0 0.4827843312676667,0.225967444243226 l -4.338702870449328 9.066220300896118" fill="#ff860c" stroke="none" /><path d="M 109.06512990194946 81.05736502329252 l 4.363015291557314 -9.117023910268504 a31.107226494680454,31.107226494680454 0 0,0 0.47970268924694004,0.2346466235189855 l -4.518878230066321 9.040783536652297" fill="#ff860c" stroke="none" /><path d="M 109.3889696526874 81.21577127319529 l 4.979839532651129 -9.963014927556886 a32.138243497862504,32.138243497862504 0 0,0 0.49136738710020117,0.2508956889846098 l -5.150134141464909 9.876061286899441" fill="#ff940d" stroke="none" /><path d="M 109.71004243097381 81.37971332152246 l 4.539410152427355 -8.704917510943547 a30.8174249884729,30.8174249884729 0 0,0 0.4669737761900397,0.24863723341865002 l -4.688172744403954 8.625709809802323" fill="#ff830c" stroke="none" /><path d="M 110.02825361518725 81.54914285379988 l 5.320109762375783 -9.788402746320783 a32.14075384378931,32.14075384378931 0 0,0 0.4825028307761305,0.2676361866878258 l -5.487356781308014 9.69563364419981" fill="#ff940d" stroke="none" /><path d="M 110.34350942703115 81.72400993836675 l 4.648414575783811 -8.213303152928063 a30.43748413245063,30.43748413245063 0 0,0 0.45251484788241547,0.26125956923721516 l -4.788721891526624 8.132296686414676" fill="#ff7d0b" stroke="none" /><line stroke="#e1ed5e" stroke-width="0.3" x1="143.13028292997686" x2="145.6673583964461" y1="26.7553504044142" y2="22.446841604673864" /><path d="M 143.63769802327073 25.89364864446614 a86.0,86.0 0 0,1 29.32050498858742,28.57503671076993" fill="none" id="id98" stroke="none" /><text fill="#e1ed5e" style="font-size:6.75px; font-family:Arial;" text-anchor="middle"><textPath startOffset="20.669276256404974" xlink:href="#id98">February</textPath></text><path d="M 110.65571695917076 81.90426304109057 l 4.205236271717416 -7.14141054183794 a29.287566387549596,29.287566387549596 0 0,0 0.431039400501957,0.2588267752335217 l -4.327208428776808 7.068169766068498" fill="#ff6e0a" stroke="none" /><path d="M 110.96478420261332 82.08984904055464 l 2.4605555469321536 -4.0191325679854435 a25.712511029014134,25.712511029014134 0 0,0 0.3744670576934601,0.23369513946455997 l -2.5291867334153264 3.9763016316793376" fill="#ff3d05" stroke="none" /><path d="M 111.8722381534696 82.67804972795209 l 2.3452456810140356 -3.421783537115792 a25.148346644048885,25.148346644048885 0 0,0 0.35399879604022527,0.24711865256805865 l -2.4036395682280216 3.3810200687426066" fill="#ff3505" stroke="none" /><path d="M 112.16784306229584 82.88440491214696 l 13.707758535262611 -19.281679049478853 a44.657679324654325,44.657679324654325 0 0,0 0.6209947807347096,0.4495523315000245 l -14.036734326371288 19.043525946605754" fill="#d0ff1d" stroke="none" /><path d="M 113.03279911837588 83.53348406188908 l 4.867374672247296 -6.1497688937988855 a28.84289446870037,28.84289446870037 0 0,0 0.3856009715624845,0.31061284743015505 l -4.97222641416504 6.065307752575322" fill="#ff6809" stroke="none" /><path d="M 113.31354834802062 83.75963576809568 l 5.203312987644087 -6.3471957980684985 a29.207396697272774,29.207396697272774 0 0,0 0.38501700181525106,0.32119487651846806 l -5.3115043236212305 6.25693873763816" fill="#ff6d0a" stroke="none" /><path d="M 113.59037401385872 83.9905735841838 l 4.666829363604677 -5.497513255750789 a28.211237640388678,28.211237640388678 0 0,0 0.366504977599258,0.3165782704947495 l -4.7605138209667945 5.41659085279132" fill="#ff5f08" stroke="none" /><path d="M 114.39649973595853 84.71141617570332 l 26.641469617768408 -28.292317502452036 a59.861589430362095,59.861589430362095 0 0,0 0.7420770842170225,0.7108930602171429 l -27.12321918785074 27.83081231192931" fill="#30ff2f" stroke="none" /><path d="M 114.65682725009322 84.96080404539774 l 1.5613797351125078 -1.6021131582725474 a23.237112703716566,23.237112703716566 0 0,0 0.28328040976200636,0.28085922422727744 l -1.5886520650044769 1.5750739238166107" fill="#ff1a02" stroke="none" /><path d="M 115.41159269507618 85.73525988315684 l 17.87365939394832 -16.543592296797645 a45.354838250613355,45.354838250613355 0 0,0 0.5239613351211218,0.5759252918142002 l -18.15501842991132 16.23432942942577" fill="#c8ff1d" stroke="none" /><path d="M 115.8921839302757 86.27271002978787 l 5.607076004645141 -4.843258707454878 a28.409214278802093,28.409214278802093 0 0,0 0.315620197035043,0.3717997984915861 l -5.689390765187297 4.746292126513739" fill="#ff6209" stroke="none" /><path d="M 116.1254893667686 86.54754324733833 l 5.4202776775129005 -4.521788417437125 a28.05875205637747,28.05875205637747 0 0,0 0.3053770014609415,0.37251028817646165 l -5.497101498212469 4.428075847562168" fill="#ff5d08" stroke="none" /><path d="M 116.57777611688842 87.10902102172516 l 5.601818652115682 -4.356008066182361 a28.096138279644567,28.096138279644567 0 0,0 0.29279925268953255,0.3832836207528797 l -5.675769882159522 4.259203532188599" fill="#ff5e08" stroke="none" /><path d="M 117.42321728460499 88.27688183743584 l 10.846057642330866 -7.2977116259334665 a34.072626413848454,34.072626413848454 0 0,0 0.32235229381980424,0.4880824582438902 l -10.969734375071395 7.110449289350518" fill="#ffad10" stroke="none" /><path d="M 117.62189284568427 88.57770195909679 l 7.139784141073319 -4.627921819818948 a29.508476829108627,29.508476829108627 0 0,0 0.2718746768333275,0.42743214916552896 l -7.218176509532537 4.504675995974747" fill="#ff710a" stroke="none" /><path d="M 117.81537515405839 88.88188828441811 l 6.530967273087773 -4.0758066066578404 a28.698424060612616,28.698424060612616 0 0,0 0.25723632275481767,0.4201762011598296 l -6.599971560297993 3.963093289373456" fill="#ff6609" stroke="none" /><line stroke="#e1ed5e" stroke-width="0.3" x1="172.87174338648825" x2="177.1583165268699" y1="56.24261187166439" y2="53.66864786411523" /><path d="M 173.72905801456457 55.72781907015455 a86.0,86.0 0 0,1 12.242430191666344,42.057860355516425" fill="none" id="id99" stroke="none" /><text fill="#e1ed5e" style="font-size:6.75px; font-family:Arial;" text-anchor="middle"><textPath startOffset="22.145653131862474" xlink:href="#id99">March</textPath></text><path d="M 118.18653347947321 89.5 l 5.359511051019212 -3.0943151480307174 a27.188630296061433,27.188630296061433 0 0,0 0.2298949329214047,0.40620231836510884 l -5.411839348961993 3.0018560595664905" fill="#ff5207" stroke="none" /><path d="M 119.0197475246899 91.09779779509293 l 26.824872762149788 -12.555394919915217 a50.6177605551223,50.6177605551223 0 0,0 0.36159287797693057,0.790145695504193 l -27.03645010498177 12.09306024219634" fill="#8eff24" stroke="none" /><path d="M 119.16976305983485 91.42560881287824 l 6.7065089735934595 -2.9997361605380304 a28.346814251478598,28.346814251478598 0 0,0 0.19487235860342791,0.4459060927753284 l -6.757015214213857 2.884167997986853" fill="#ff6109" stroke="none" /><path d="M 119.31412917781788 91.75594674310238 l 1.0491426877538719 -0.4478166275216354 a22.140719120183523,22.140719120183523 0 0,0 0.14620692977839947,0.35084340670423764 l -1.0566754620687546 0.42974071137612" fill="#ff0a01" stroke="none" /><path d="M 119.71291397450082 92.76114493625339 l 9.271531953901619 -3.4046349575717016 a30.876884324853563,30.876884324853563 0 0,0 0.17843873482081252,0.4991248992456096 l -9.328610858766375 3.244975101945175" fill="#ff830c" stroke="none" /><path d="M 120.05942366710727 93.78553927170692 l 4.03962054944748 -1.25148477236222 a25.229036334553403,25.229036334553403 0 0,0 0.124611832922956,0.41479226399831515 l -4.060508702374063 1.1819549047731812" fill="#ff3605" stroke="none" /><path d="M 120.26092885502905 94.47779374421319 l 6.4680125984742665 -1.7628855956886134 a27.703950521707945,27.703950521707945 0 0,0 0.12111971815038429,0.45991129798851277 l -6.497321797429381 1.651593793327302" fill="#ff5908" stroke="none" /><path d="M 120.43855184770803 95.1765574152323 l 11.286170587383758 -2.6635055279733155 a32.59620231908148,32.59620231908148 0 0,0 0.12384870950150036,0.5457002656841017 l -11.330230158442925 2.4693709283501875" fill="#ff9a0e" stroke="none" /><path d="M 120.51834098615036 95.52812308129327 l 9.469490067942056 -2.0638312861325403 a30.691782174836202,30.691782174836202 0 0,0 0.10777534649772931,0.5157440481062651 l -9.503523125264152 1.900970786740871" fill="#ff810b" stroke="none" /><path d="M 120.592083275326 95.88100663000786 l 15.927130625114302 -3.1858721903311613 a37.24263745709358,37.24263745709358 0 0,0 0.12001654104347362,0.6279772569024303 l -15.979473458439932 2.9119923683954165" fill="#ffd513" stroke="none" /><path d="M 120.65975698304385 96.23510406497455 l 3.8145160704708174 -0.6951318962556822 a24.877336870207714,24.877336870207714 0 0,0 0.07295596816471002,0.4207906370799618 l -3.825886856127762 0.6295482262551277" fill="#ff3104" stroke="none" /><path d="M 120.7213421655516 96.59031103205396 l 62.16402649665483 -10.229066903838131 a84.0,84.0 0 0,0 0.22191403144693922,1.424847272274235 l -62.330462020240034 9.160431449632455" fill="#4dd2ff" stroke="none" /><path d="M 120.82617615685814 97.30363454192243 l 6.832509868641732 -0.8846051941087104 a27.889536809868336,27.889536809868336 0 0,0 0.0573965521955631,0.4753257891394811 l -6.8466885070969585 0.7671857280458164" fill="#ff5b08" stroke="none" /><path d="M 120.86939407059847 97.66154086499901 l 7.410034915607004 -0.8303098681475293 a28.45640878222607,28.45640878222607 0 0,0 0.05022909486289652,0.485920928636883 l -7.423196402951567 0.7029844172277148" fill="#ff6309" stroke="none" /><path d="M 120.9064616781168 98.02013634271609 l 12.431539570263094 -1.177279722326875 a33.48715995059001,33.48715995059001 0 0,0 0.049284133343525646,0.5727563351150762 l -12.44991732630436 0.9637023398361368" fill="#ffa60f" stroke="none" /><path d="M 120.93736805541906 98.37931529534042 l 13.973693571517565 -1.0816522582501402 a35.015494412914904,35.015494412914904 0 0,0 0.041244982362965456,0.5996929915281913 l -13.990202515045596 0.8416158425676147" fill="#ffb911" stroke="none" /><path d="M 120.96210409425399 98.7389718711861 l 5.613457048996984 -0.3376916366241261 a26.623605221064135,26.623605221064135 0 0,0 0.02352818075422112,0.45644042102788723 l -5.6184268192077775 0.24127942221950827" fill="#ff4a06" stroke="none" /><path d="M 120.98066250479742 99.09900007780936 l 7.400170227189204 -0.3177951505282724 a28.406990829552633,28.406990829552633 0 0,0 0.016740257285398977,0.48737432564153843 l -7.404535171471451 0.19071456032261402" fill="#ff6209" stroke="none" /><path d="M 120.99303781780057 99.45929381324524 l 9.026917831172698 -0.2325013826490274 a30.02991154019115,30.02991154019115 0 0,0 0.008849626745356253,0.5154463918018107 l -9.02957888951672 0.07750807487815033" fill="#ff780b" stroke="none" /><line stroke="#e1ed5e" stroke-width="0.3" x1="184.99686870605535" x2="189.99668451229388" y1="99.2704041080226" y2="99.22748670261217" /><path d="M 185.99683186730306 99.26182062694052 a86.0,86.0 0 0,1 -10.086455211305974,41.156179273409016" fill="none" id="id100" stroke="none" /><text fill="#e1ed5e" style="font-size:6.75px; font-family:Arial;" text-anchor="middle"><textPath startOffset="21.40746469413373" xlink:href="#id100">April</textPath></text><path d="M 120.99922638620191 100.18025310272382 l 9.962371140707326 0.08551497448395226 a30.96273815555037,30.96273815555037 0 0,0 -0.009124524903244977,0.5314578313433451 l -9.959435184205413 -0.25651972179636845" fill="#ff840c" stroke="none" /><path d="M 120.96210409425399 101.26102812881392 l 5.724017223574355 0.34434266218156867 a26.734365269563334,26.734365269563334 0 0,0 -0.03149058559691558,0.4578662033456281 l -5.717262676812374 -0.44255228968154026" fill="#ff4b07" stroke="none" /><path d="M 120.93736805541906 101.62068470465957 l 6.814319359444986 0.5274714151886768 a27.83470368240993,27.83470368240993 0 0,0 -0.040965231147864045,0.47607808167890153 l -6.804260505599381 -0.6443705442432357" fill="#ff5a08" stroke="none" /><path d="M 120.9064616781168 101.97986365728391 l 19.206256383254093 1.818852448163634 a40.29218775793662,40.29218775793662 0 0,0 -0.07112071437458162,0.6880283960630049 l -19.172203276397845 -2.1482853665095702" fill="#fffb17" stroke="none" /><path d="M 120.86939407059847 102.33845913500097 l 8.19468198354914 0.9182312087276098 a29.24596636933393,29.24596636933393 0 0,0 -0.06018807865726912,0.49844363276523607 l -8.177711818632206 -1.0587685184162545" fill="#ff6e0a" stroke="none" /><path d="M 120.82617615685814 102.69636545807757 l 13.67600939721835 1.7706332197166499 a34.790155003899294,34.790155003899294 0 0,0 -0.08176594853983916,0.5916176719725597 l -13.643598932123298 -2.0051391998892947" fill="#ffb610" stroke="none" /><path d="M 120.7213421655516 103.40968896794604 l 3.145834565102557 0.5176458805571762 a24.188139327045135,24.188139327045135 0 0,0 -0.07093480833234948,0.4091331242692358 l -3.136484939277973 -0.571572037747" fill="#ff2803" stroke="none" /><path d="M 120.65975698304385 103.76489593502545 l 5.107001888980485 0.93066586735606 a26.191108479959926,26.191108479959926 0 0,0 -0.0844023533370985,0.44162877769942926 l -5.090273243361228 -1.018197210088804" fill="#ff4406" stroke="none" /><path d="M 120.51834098615036 104.47187691870673 l 5.59360812419567 1.2191008561445167 a26.72491561025314,26.72491561025314 0 0,0 -0.10154085673743964,0.4474077503305814 l -5.571856405900567 -1.314942940414115" fill="#ff4b07" stroke="none" /><path d="M 120.43855184770803 104.8234425847677 l 13.070932837911657 3.0847045594422466 a34.4299920875718,34.4299920875718 0 0,0 -0.14069156109804276,0.5740695803929754 l -13.016053750297319 -3.3086299644433215" fill="#ffb210" stroke="none" /><path d="M 120.16314734710363 105.8691983318838 l 10.50402037922514 3.057567245159146 a31.93997996277174,31.93997996277174 0 0,0 -0.1577586790832865,0.5251273344386117 l -10.449985380138225 -3.237432183188481" fill="#ff910d" stroke="none" /><path d="M 119.94978838288452 106.5578916946017 l 3.7202420976389368 1.2229174708913089 a24.91608585269222,24.91608585269222 0 0,0 -0.1370557692066906,0.40518102844535486 l -3.698700906859881 -1.2866001738108241" fill="#ff3204" stroke="none" /><path d="M 119.83427380445688 106.89939002012753 l 5.962577442364003 2.0740939499806506 a27.313017936734727,27.313017936734727 0 0,0 -0.15784301011375498,0.44151499167915853 l -5.926094262206305 -2.176143898040731" fill="#ff5307" stroke="none" /><path d="M 119.58574465831526 107.57618678355244 l 2.109916271837173 0.8161609401105128 a23.262269956111638,23.262269956111638 0 0,0 -0.14726271386958073,0.37119823807602276 l -2.0955948830014677 -0.8522601954000997" fill="#ff1b02" stroke="none" /><path d="M 119.4528033332814 107.91128576633889 l 8.857557104335019 3.602291363536803 a30.562051083547274,30.562051083547274 0 0,0 -0.20181745824970027,0.4842884307333096 l -8.794413801548833 -3.7538123037113906" fill="#ff7f0b" stroke="none" /><path d="M 119.16976305983485 108.57439118712176 l 0.40647344162012283 0.1818104003032294 a21.445281574288593,21.445281574288593 0 0,0 -0.1531964472238528,0.33476188474095825 l -0.4032925295412139 -0.18876126725887651" fill="#ff0000" stroke="none" /><path d="M 119.0197475246899 108.90220220490707 l 1.4172647590114833 0.6633514691102516 a22.564824133475263,22.564824133475263 0 0,0 -0.16721688931692888,0.3494189857764662 l -1.4056686117346424 -0.6875829569518213" fill="#ff1101" stroke="none" /><path d="M 118.8641267826498 109.22738970284198 l 1.3546245545025541 0.66261475070928 a22.508000660317748,22.508000660317748 0 0,0 -0.17275435713620957,0.34562443782846897 l -1.3430502841546121 -0.6857710447014947" fill="#ff1001" stroke="none" /><line stroke="#e1ed5e" stroke-width="0.3" x1="174.33088141563837" x2="178.70328620479359" y1="141.23008692659167" y2="143.65538615756765" /><path d="M 175.20536237346943 141.71514677278685 a86.0,86.0 0 0,1 -30.301960400862466,31.631185727798858" fill="none" id="id101" stroke="none" /><text fill="#e1ed5e" style="font-size:6.75px; font-family:Arial;" text-anchor="middle"><textPath startOffset="22.145653131862474" xlink:href="#id101">May</textPath></text><path d="M 118.18653347947321 110.5 l 0.3583101047161756 0.20687043541124686 a21.413740870822494,21.413740870822494 0 0,0 -0.186530293797246,0.3167692182850323 l -0.3547061007891642 -0.21299082198982863" fill="#ff0000" stroke="none" /><path d="M 118.00360718960297 110.81064883170644 l 4.263175639041961 2.5599144802594807 a25.9727083843277,25.9727083843277 0 0,0 -0.23280456037086575,0.380268753423871 l -4.21860311421569 -2.6327203498079084" fill="#ff4106" stroke="none" /><path d="M 117.81537515405839 111.11811171558189 l 6.127519350097955 3.824025263832821 a28.222856955821328,28.222856955821328 0 0,0 -0.26002969108212476,0.4088098641647987 l -6.06097196738994 -3.928648802676292" fill="#ff6008" stroke="none" /><path d="M 117.62189284568427 111.42229804090321 l 5.716178793801353 3.7051580332291123 a27.811967120729996,27.811967120729996 0 0,0 -0.26312181773473015,0.3983999682327634 l -5.651732537145896 -3.8027378798009366" fill="#ff5a08" stroke="none" /><path d="M 117.423217284605 111.72311816256416 l 6.442294917110866 4.334663530719397 a28.764822710376666,28.764822710376666 0 0,0 -0.2791698136696438,0.40731710123497006 l -6.366935366625901 -4.444615367024411" fill="#ff6709" stroke="none" /><path d="M 117.21940702142032 112.02048342749411 l 10.561701246372563 7.372887733023308 a33.88056701940537,33.88056701940537 0 0,0 -0.33700661445702645,0.47404200772839045 l -10.433579533385576 -7.553106967461202" fill="#ffab0f" stroke="none" /><path d="M 116.57777611688842 112.89097897827486 l 7.223269594844601 5.616858126506719 a30.150121248000545,30.150121248000545 0 0,0 -0.32121877349546935,0.4058494269220907 l -7.125784390707571 -5.740027497343492" fill="#ff7a0b" stroke="none" /><path d="M 116.35404254752997 113.17365903436017 l 5.850810859692837 4.712999071398794 a28.512945358706233,28.512945358706233 0 0,0 -0.3103202073622629,0.3785401956220403 l -5.7690438330919465 -4.812741548719327" fill="#ff6409" stroke="none" /><path d="M 116.1254893667686 113.45245675266167 l 8.3177767792793 6.938985221257252 a31.832124743130706,31.832124743130706 0 0,0 -0.35364798846152806,0.4165964411724615 l -8.197434227310657 -7.08074844487927" fill="#ff900d" stroke="none" /><path d="M 115.89218393027572 113.72728997021213 l 7.788145333993261 6.727214446984142 a31.291288644242428,31.291288644242428 0 0,0 -0.3546181186575262,0.4034903226820836 l -7.6715161513771495 -6.859917047477518" fill="#ff890c" stroke="none" /><path d="M 115.6541949942343 113.99807769240083 l 10.301918678040634 9.212039206686889 a34.81995639625896,34.81995639625896 0 0,0 -0.40225721325323405,0.44215114245726517 l -10.14226376394552 -9.387527924701827" fill="#ffb710" stroke="none" /><path d="M 115.16444852881244 114.52719865689866 l 4.096338168947674 3.924199302933674 a26.672682483933215,26.672682483933215 0 0,0 -0.3195809029367272,0.327918159953995 l -4.0283704648601395 -3.993940154955406" fill="#ff4a06" stroke="none" /><path d="M 114.91283532996324 114.78537596483092 l 6.5539760593620535 6.497959506564724 a30.22919714469497,30.22919714469497 0 0,0 -0.3685199389060052,0.3653702147648688 l -6.441464200326083 -6.609509731558254" fill="#ff7b0b" stroke="none" /><path d="M 114.65682725009322 115.03919595460226 l 4.059146788002766 4.165042195805352 a26.815861856972898,26.815861856972898 0 0,0 -0.33242412650499764,0.31845479345382477 l -3.9870501756324566 -4.234109119564757" fill="#ff4c07" stroke="none" /><path d="M 114.39649973595853 115.28858382429668 l 9.179388129504085 9.748192091661453 a34.38986241482755,34.38986241482755 0 0,0 -0.43326351255105366,0.40102223896858746 l -9.010694845639064 -9.90433207676242" fill="#ffb110" stroke="none" /><path d="M 113.59037401385872 116.0094264158162 l 9.760115477827808 11.497391491419869 a36.08144108656424,36.08144108656424 0 0,0 -0.475631854913643,0.39678900980207915 l -9.56130928875227 -11.663242685133818" fill="#ffc712" stroke="none" /><path d="M 113.31354834802062 116.24036423190432 l 4.770400802912239 5.819113323232257 a28.52454674309655,28.52454674309655 0 0,0 -0.3813449773376165,0.3071845197486237 l -4.669805055219371 -5.900146136774285" fill="#ff6409" stroke="none" /><path d="M 113.03279911837588 116.46651593811092 l 5.010494129529944 6.330595652731715 a29.07350560416228,29.07350560416228 0 0,0 -0.39400145569221307,0.3063779150427661 l -4.9010827292025 -6.415674619395274" fill="#ff6b09" stroke="none" /><path d="M 112.7482090630111 116.68781488649013 l 5.461299149173353 7.149015896325794 a29.996344628941273,29.996344628941273 0 0,0 -0.41187411035037164,0.30907801092067405 l -5.337772049912215 -7.241712934510484" fill="#ff780b" stroke="none" /><path d="M 112.45986205192187 116.90419585922612 l 7.492620409861447 10.165178585391864 a33.62815173646491,33.62815173646491 0 0,0 -0.46762185205111334,0.3385221589160858 l -7.3170175474363655 -10.292301515681027" fill="#ffa70f" stroke="none" /><path d="M 111.8722381534696 117.32195027204791 l 6.322522843200211 9.22474977911346 a32.183483517672045,32.183483517672045 0 0,0 -0.4583904467668867,0.30842554990041754 l -6.163236108336322 -9.331925003070998" fill="#ff950d" stroke="none" /><path d="M 111.5731344415666 117.5232005979908 l 10.367716264359148 15.698043841165688 a39.81271168591645,39.81271168591645 0 0,0 -0.5735198716094752,0.3717486517067531 l -10.096710760492664 -15.873706334576337" fill="#fff517" stroke="none" /><path d="M 111.27062007382361 117.71928675628689 l 2.856251758059669 4.4905021744768945 a26.321915433788917,26.321915433788917 0 0,0 -0.3833421875531563,0.23923387689877568 l -2.778745441716798 -4.538871848217219" fill="#ff4606" stroke="none" /><path d="M 110.96478420261333 117.91015095944535 l 3.985078924712924 6.509326933210563 a28.632312307525915,28.632312307525915 0 0,0 -0.42139570658445796,0.2530360141218942 l -3.8727504615710298 -6.576776947868381" fill="#ff6509" stroke="none" /><line stroke="#e1ed5e" stroke-width="0.3" x1="143.1302829299769" x2="145.66735839644613" y1="173.24464959558577" y2="177.55315839532614" /><path d="M 143.63769802327073 174.10635135553383 a86.0,86.0 0 0,1 -40.68552437913181,11.842963189579606" fill="none" id="id102" stroke="none" /><text fill="#e1ed5e" style="font-size:6.75px; font-family:Arial;" text-anchor="middle"><textPath startOffset="21.407464694133747" xlink:href="#id102">June</textPath></text><path d="M 110.65571695917076 118.09573695890943 l 6.582214568538809 11.178039346931852 a33.97205119739516,33.97205119739516 0 0,0 -0.5050633460028064,0.29159845877253454 l -6.389358754675604 -11.289384702980557" fill="#ffac0f" stroke="none" /><path d="M 110.34350942703117 118.27599006163325 l 3.6344947623446147 6.421803994501081 a28.378964610384067,28.378964610384067 0 0,0 -0.4260301679779092,0.2363117525925644 l -3.523720406210611 -6.4832486625267896" fill="#ff6209" stroke="none" /><path d="M 109.71004243097381 118.62028667847754 l 5.178472809070975 9.930404418627463 a32.199531800561275,32.199531800561275 0 0,0 -0.49230443498705073,0.2513741523123649 l -5.007241152370342 -10.017836522612663" fill="#ff950d" stroke="none" /><path d="M 109.3889696526874 118.78422872680471 l 2.5594138975531764 5.120542278506639 a26.724556989406455,26.724556989406455 0 0,0 -0.41211780352528604,0.20158746919071008 l -2.4711358447658207 -5.163723497794572" fill="#ff4b07" stroke="none" /><path d="M 109.06512990194946 118.94263497670748 l 6.417426485698549 13.409953163748943 a35.86641202689087,35.86641202689087 0 0,0 -0.5576565866530769,0.2610114402854 l -6.186281185173965 -13.518140835604877" fill="#ffc412" stroke="none" /><path d="M 108.73861861582097 119.09545874513695 l 4.622415017046323 10.100811025338144 a32.10824486403716,32.10824486403716 0 0,0 -0.5031615734563943,0.2250577718502064 l -4.448340040734301 -10.1786725480982" fill="#ff940d" stroke="none" /><path d="M 108.4095320186766 119.2426549942271 l 3.648627165121046 8.348772985828761 a30.11122881717737,30.11122881717737 0 0,0 -0.47542034853777915,0.20292867654937527 l -3.5047717414128354 -8.41017631203754" fill="#ff790b" stroke="none" /><path d="M 108.07796709384702 119.3841803445677 l 1.4629552337912328 3.5105599909460934 a24.803192010155232,24.803192010155232 0 0,0 -0.39442453904896385,0.16040902630903736 l -1.402476233551828 -3.535156273834422" fill="#ff3004" stroke="none" /><path d="M 107.74402155503746 119.51999308798841 l 2.65977272639586 6.7043647626593 a28.212690054817756,28.212690054817756 0 0,0 -0.4517089974334609,0.17473074402173275 l -2.54429146646887 -6.7490353948190736" fill="#ff6008" stroke="none" /><path d="M 107.407793817531 119.65005319985036 l 5.2529246066443624 13.934006604110358 a35.89126445156626,35.89126445156626 0 0,0 -0.57838063101241,0.2123893791142657 l -5.012954823977825 -14.022126832233345" fill="#ffc412" stroke="none" /><path d="M 107.06938296918513 119.77432235084164 l 1.2585838119178598 3.5204829206308474 a24.73869405087862,24.73869405087862 0 0,0 -0.4011134538794442,0.13952808093295954 l -1.1979645859933938 -3.5415694341323976" fill="#ff2f04" stroke="none" /><path d="M 106.72888874123015 119.89276391827305 l 0.45110401481355433 1.3336088638657824 a22.407837857838143,22.407837857838143 0 0,0 -0.3654369030850413,0.12012636854325569 l -0.4281443740807789 -1.3411561538110572" fill="#ff0e01" stroke="none" /><path d="M 106.0420521117495 120.11202640906438 l 1.8490076535816735 6.1547451216254165 a27.426485572626415,27.426485572626415 0 0,0 -0.4520668274535689,0.13159006497919615 l -1.7430808137464977 -6.185578880907131" fill="#ff5507" stroke="none" /><path d="M 105.69591212413111 120.21278271476187 l 2.0983891617628587 7.446442861720608 a28.736455801403743,28.736455801403743 0 0,0 -0.4759558951879192,0.12972389571532272 l -1.9702518656402446 -7.481367251580073" fill="#ff6709" stroke="none" /><path d="M 104.9986988182912 120.39639698878246 l 1.7797647572874076 7.262047555945248 a28.476957756741218,28.476957756741218 0 0,0 -0.47579280172134447,0.11228580568960544 l -1.654839801826184 -7.291529505281079" fill="#ff6309" stroke="none" /><path d="M 104.64783097203109 120.47920084513623 l 3.006066361420267 13.24528304488476 a34.58211905073631,34.58211905073631 0 0,0 -0.5800534306009858,0.1264199454367225 l -2.7782505142001455 -13.294934448455201" fill="#ffb410" stroke="none" /><path d="M 104.29559338865022 120.5559693870025 l 2.256574803361496 10.798527323359114 a32.031786899523546,32.031786899523546 0 0,0 -0.5392071068430938,0.10785652274437903 l -2.0708712109874434 -10.835673242766354" fill="#ff930d" stroke="none" /><path d="M 103.94208987418118 120.62667999033965 l 2.2502919176299154 11.77447819589381 a32.98758318011305,32.98758318011305 0 0,0 -0.5571214275276886,0.1015260827867496 l -2.04783575655117 -11.811372452611923" fill="#ff9f0e" stroke="none" /><path d="M 102.875027216393 120.80226474461374 l 2.6108752022178403 18.89099235722103 a40.07056007468421,40.07056007468421 0 0,0 -0.6821959007598873,0.08832391739111073 l -2.2862014795671777 -18.933027870812534" fill="#fff817" stroke="none" /><path d="M 102.51750503828377 120.84855314841334 l 2.3705515769375096 19.631567679613898 a40.7741741758836,40.7741741758836 0 0,0 -0.6956153690045196,0.07794515301176931 l -2.0332003063321906 -19.66936859313264" fill="#feff18" stroke="none" /><path d="M 101.80034050326958 120.92268563240118 l 1.3287924712799362 15.44258272076911 a36.49964678692798,36.49964678692798 0 0,0 -0.6247192730940171,0.04835722273829294 l -1.0635042034106832 -15.463117710502457" fill="#ffcc13" stroke="none" /><path d="M 101.44090949804482 120.95050786540614 l 2.6213122243452416 38.11330444302625 a59.203340866268576,59.203340866268576 0 0,0 -1.0145074563501706,0.06103024932977694 l -1.9666604158626058 -38.15268667018072" fill="#36ff2e" stroke="none" /><path d="M 100.72087961077811 120.9876233191556 l 0.08962973562571698 2.609471958122926 a23.61101079847216,23.61101079847216 0 0,0 -0.4051949491952982,0.010436384565835994 l -0.044821472359674916 -2.610626060038807" fill="#ff2003" stroke="none" /><line stroke="#e1ed5e" stroke-width="0.3" x1="101.45913802915013" x2="101.54496967792366" y1="184.9874750549273" y2="189.98673829345242" /><path d="M 101.47630435890484 185.9873277026323 a86.0,86.0 0 0,1 -42.54439059252881,-10.42667462771756" fill="none" id="id103" stroke="none" /><text fill="#e1ed5e" style="font-size:6.75px; font-family:Arial;" text-anchor="middle"><textPath startOffset="22.145653131862474" xlink:href="#id103">July</textPath></text><path d="M 100.36049292484886 120.99690560180557 l 0.1897320437059425 11.050940356184851 a32.05256897758905,32.05256897758905 0 0,0 -0.5502249685547934,0.004723019598631047 l -1.353549322075976e-15 -11.052568977589047" fill="#ff930d" stroke="none" /><path d="M 100.0 121.0 l 1.626172710621485e-15 13.27870788339699 a34.27870788339699,34.27870788339699 0 0,0 -0.5884396030916755,-0.005051046275330733 l 0.2279466782428218 -13.276751235316095" fill="#ffb010" stroke="none" /><path d="M 99.27912038922189 120.98762331915562 l -0.48671653544200016 14.17022087507125 a35.1785772429457,35.1785772429457 0 0,0 -0.603353204839172,-0.025910582684855528 l 0.7298955008820108 -14.159777723960566" fill="#ffbb11" stroke="none" /><path d="M 98.91894614982273 120.97215588758144 l -0.5634305096311808 10.930401365174346 a31.944913336476834,31.944913336476834 0 0,0 -0.5474074992747965,-0.03293067582363576 l 0.7509823610384236 -10.919118711526018" fill="#ff910d" stroke="none" /><path d="M 98.19965949673042 120.92268563240118 l -1.4174209204471215 16.472579644486895 a37.533449797597754,37.533449797597754 0 0,0 -0.6414653104773544,-0.060747431831174564 l 1.6999857943094911 -16.44582045715054" fill="#ffd914" stroke="none" /><path d="M 97.84075906011543 120.88869738790638 l -0.9174945670920659 8.875927652640227 a29.923221838301842,29.923221838301842 0 0,0 -0.510496004433261,-0.05720214208951566 l 1.0697264731261262 -8.858869750043741" fill="#ff770a" stroke="none" /><path d="M 97.48249496171623 120.84855314841334 l -3.0328954544154305 25.116725135957388 a46.29917659515122,46.29917659515122 0 0,0 -0.7882372600457732,-0.10205309437264223 l 3.4636105363519976 -25.06096044538435" fill="#bdff1f" stroke="none" /><path d="M 96.41257539226777 120.69131181640829 l -4.05743334572199 23.402197317171577 a44.75132848130414,44.75132848130414 0 0,0 -0.7557972304650428,-0.13773143232114088 l 4.45856530973809 -23.329097710919072" fill="#cfff1d" stroke="none" /><path d="M 95.70440661134978 120.55596938700252 l -1.3333667776111828 6.38064271507648 a27.518471325479293,27.518471325479293 0 0,0 -0.461573325620115,-0.10059775800219604 l 1.4427025198504342 -6.356813498940564" fill="#ff5608" stroke="none" /><path d="M 95.35216902796893 120.47920084513623 l -2.3234485149007034 10.237542861674203 a31.49789011401866,31.49789011401866 0 0,0 -0.5262665174306382,-0.12419746516419584 l 2.498847186071229 -10.19614925286378" fill="#ff8c0c" stroke="none" /><path d="M 95.00130118170881 120.39639698878247 l -3.386471694972674 13.817960151788057 a35.2268834709944,35.2268834709944 0 0,0 -0.5860993629015163,-0.14898416612583681 l 3.623176351099569 -13.757790753826958" fill="#ffbc11" stroke="none" /><path d="M 94.6519064749342 120.30758222061772 l -1.224256247837454 4.648700381835249 a25.80720486358177,25.80720486358177 0 0,0 -0.4274393257829683,-0.11650048898039932 l 1.3038769745551173 -4.626999398710705" fill="#ff3e05" stroke="none" /><path d="M 93.95794788825049 120.11202640906438 l -3.2088950013018205 10.68136782279585 a32.15296488361899,32.15296488361899 0 0,0 -0.5272464113630296,-0.16334228599606973 l 3.3917820455364835 -10.624708948993133" fill="#ff940d" stroke="none" /><path d="M 93.61358852112213 120.00534299687104 l -0.402416667469052 1.2605644792857431 a22.32323920010474,22.32323920010474 0 0,0 -0.36405723086125935,-0.11967284287952691 l 0.4239966359780549 -1.2534707150041948" fill="#ff0d01" stroke="none" /><path d="M 93.27111125876986 119.89276391827306 l -12.300475879894545 36.36417128757899 a59.3882099127356,59.3882099127356 0 0,0 -0.9629210801840519,-0.3349539366195228 l 12.922902732123617 -36.147658918390874" fill="#34ff2f" stroke="none" /><path d="M 92.59220618246901 119.65005319985036 l -2.6116929319071627 6.927825789669967 a28.403763241932452,28.403763241932452 0 0,0 -0.4547682405478303,-0.17591412497839742 l 2.7302334349485213 -6.881971776553529" fill="#ff6209" stroke="none" /><path d="M 91.59046798132341 119.24265499422711 l -2.3974081128593863 5.485738932161665 a26.986726759376797,26.986726759376797 0 0,0 -0.42290333701467064,-0.1891592835333767 l 2.491224852729692 -5.443775897718433" fill="#ff4f07" stroke="none" /><path d="M 91.26138138417905 119.09545874513695 l -3.2936846595785636 7.1972953966207935 a28.91513863826541,28.91513863826541 0 0,0 -0.44957710025543884,-0.21042478339811393 l 3.4167504737054926 -7.139694381652153" fill="#ff6909" stroke="none" /><path d="M 90.93487009805054 118.94263497670748 l -8.499749360997185 17.761207095802074 a40.6902568977589,40.6902568977589 0 0,0 -0.6274820310110764,-0.3069329048930794 l 8.80339164127033 -17.612680440811772" fill="#ffff18" stroke="none" /><path d="M 90.6110303473126 118.78422872680471 l -0.8898070731054968 1.7802102043388923 a22.990202250772743,22.990202250772743 0 0,0 -0.35150133857248844,-0.17947908802130733 l 0.9202356333915676 -1.7646731646447489" fill="#ff1702" stroke="none" /><path d="M 90.28995756902619 118.62028667847754 l -5.818389439606762 11.157528933850278 a33.58348551001008,33.58348551001008 0 0,0 -0.5088876521026261,-0.2709540115336547 l 6.00906590749595 -11.05600445459405" fill="#ffa70f" stroke="none" /><line stroke="#e1ed5e" stroke-width="0.3" x1="58.13341422392154" x2="55.67067388415222" y1="173.97424548756322" y2="178.32567169271397" /><path d="M 57.64086615596768 174.84453072859336 a86.0,86.0 0 0,1 -31.369924170532247,-30.572349798747897" fill="none" id="id104" stroke="none" /><text fill="#e1ed5e" style="font-size:6.75px; font-family:Arial;" text-anchor="middle"><textPath startOffset="22.145653131862474" xlink:href="#id104">August</textPath></text><path d="M 89.65649057296885 118.27599006163327 l -4.5325930357980795 8.008657589578894 a30.202336443278135,30.202336443278135 0 0,0 -0.44901890122884663,-0.2592411834957066 l 4.669404404887326 -7.929669508807016" fill="#ff7a0b" stroke="none" /><path d="M 89.03521579738668 117.91015095944536 l -14.469127519458226 23.63423240588703 a48.71159671671454,48.71159671671454 0 0,0 -0.7094168390428842,-0.4427285758053144 l 14.872708487290822 -23.382368033240166" fill="#a2ff22" stroke="none" /><path d="M 88.72937992617639 117.7192867562869 l -5.970981698221444 9.387374983303209 a32.125440733635784,32.125440733635784 0 0,0 -0.46278130438098747,-0.2999692503346598 l 6.131248634859441 -9.283491891264655" fill="#ff940d" stroke="none" /><path d="M 88.4268655584334 117.5232005979908 l -1.0105650216596809 1.5301242443234258 a22.83371804432098,22.83371804432098 0 0,0 -0.32522142017156125,-0.21882348566225673 l 1.036682729928248 -1.5125510846040477" fill="#ff1402" stroke="none" /><path d="M 88.1277618465304 117.32195027204791 l -7.795268197785897 11.373529264982135 a34.78852327904686,34.78852327904686 0 0,0 -0.4896980120048565,-0.3418472442435844 l 7.989361300964519 -11.238037204933422" fill="#ffb610" stroke="none" /><path d="M 87.83215693770417 117.11559508785305 l -8.71902461143201 12.264400029345758 a36.04782038218736,36.04782038218736 0 0,0 -0.501268956487026,-0.36288006773698567 l 8.92827457829299 -12.112919190235708" fill="#ffc612" stroke="none" /><path d="M 86.96720088162412 116.46651593811092 l -16.14998637513337 20.404980206550437 a47.02278380855339,47.02278380855339 0 0,0 -0.6286481109524967,-0.5063944185184732 l 16.497885256441126 -20.124737494238556" fill="#b5ff20" stroke="none" /><path d="M 86.68645165197938 116.24036423190432 l -2.814713585525323 3.433492908313721 a25.439761944066532,25.439761944066532 0 0,0 -0.3353513828061505,-0.27976205072212573 l 2.8732393024933662 -3.3846686736797253" fill="#ff3905" stroke="none" /><path d="M 85.86807049272751 115.53346607816431 l -7.2989159838603515 8.022787248147562 a31.846164749278486,31.846164749278486 0 0,0 -0.4012165281185564,-0.3713600286115692 l 7.435562283292875 -7.896309473403616" fill="#ff900d" stroke="none" /><path d="M 85.60350026404147 115.28858382429668 l -5.700685437617702 6.05393038359701 a29.315520882548824,29.315520882548824 0 0,0 -0.36341127032939996,-0.34813977628005055 l 5.803769193812417 -5.955178477011378" fill="#ff6e0a" stroke="none" /><path d="M 85.34317274990678 115.03919595460226 l -2.7004953702391905 2.770946150522795 a24.86921410803026,24.86921410803026 0 0,0 -0.3031771310320797,-0.3005858890724533 l 2.747664421401233 -2.724180251221682" fill="#ff3104" stroke="none" /><path d="M 85.08716467003676 114.78537596483092 l -8.64376621665678 8.56988831685099 a33.17200395052171,33.17200395052171 0 0,0 -0.3974530488680359,-0.4078218418411466 l 8.789606066675628 -8.420243782942105" fill="#ffa10e" stroke="none" /><path d="M 84.83555147118756 114.52719865689866 l -16.718460725564046 16.015907188208637 a44.15202393082602,44.15202393082602 0 0,0 -0.5196150068210001,-0.5518131305419299 l 16.9909315661213 -15.726552597722218" fill="#d6ff1c" stroke="none" /><path d="M 84.58840730492382 114.26474011684316 l -5.454950047658968 5.049020326437564 a28.43297290989509,28.43297290989509 0 0,0 -0.3284716476114807,-0.36104788048836184 l 5.540819396112328 -4.954634870391528" fill="#ff6309" stroke="none" /><path d="M 84.3458050057657 113.99807769240083 l -4.50573272414921 4.029053985660953 a27.044410922566357,27.044410922566357 0 0,0 -0.30648907530134223,-0.348728306269378 l 4.574232863409145 -3.9511134015802747" fill="#ff5007" stroke="none" /><path d="M 84.1078160697243 113.72728997021213 l -7.186858942116492 6.207837582693612 a30.496746227365616,30.496746227365616 0 0,0 -0.3388122233423031,-0.3991199471660146 l 7.292365728965907 -6.0835508530780436" fill="#ff7e0b" stroke="none" /><path d="M 83.8745106332314 113.45245675266167 l -9.317715370539336 7.773169558134757 a33.13433083057726,33.13433083057726 0 0,0 -0.3606169858918078,-0.4398940872862926 l 9.449779175669773 -7.612073189149969" fill="#ffa10e" stroke="none" /><path d="M 83.64595745247003 113.17365903436017 l -4.985835771726856 4.016236368907201 a27.40224280339039,27.40224280339039 0 0,0 -0.2919429328966244,-0.36886035869171124 l 5.054045135265043 -3.9300560663008093" fill="#ff5407" stroke="none" /><path d="M 83.4222238831116 112.89097897827486 l -28.3229115165239 22.02406730484778 a56.87822260677509,56.87822260677509 0 0,0 -0.5927469785283315,-0.7759248223272102 l 28.696810472406526 -21.5346215692797" fill="#4dff2c" stroke="none" /><path d="M 83.20337586046588 112.60449989151573 l -18.74875972603901 14.069418829030718 a44.44065991928185,44.44065991928185 0 0,0 -0.45265559071886674,-0.6141142438334749 l 18.98751733634171 -13.745498275928364" fill="#d2ff1c" stroke="none" /><path d="M 82.98947788004972 112.3143062007846 l -11.393669464095623 8.248138037271076 a35.06582684874739,35.06582684874739 0 0,0 -0.348796275536479,-0.49062564249634727 l 11.533580838162063 -8.051335168065224" fill="#ffba11" stroke="none" /><path d="M 82.78059297857968 112.02048342749411 l -18.381626082135288 12.831802594354112 a43.41738912638823,43.41738912638823 0 0,0 -0.4213766430781253,-0.6148011152445296 l 18.59919246202874 -12.514366744039533" fill="#deff1b" stroke="none" /><path d="M 82.37810715431573 111.42229804090323 l -13.523641411192372 8.765860974734696 a37.1161160223825,37.1161160223825 0 0,0 -0.34196722885199327,-0.5376292830023143 l 13.672126331670254 -8.532418017053711" fill="#ffd413" stroke="none" /><path d="M 82.18462484594161 111.11811171558189 l -11.106439713649179 6.931239810046736 a34.09179469810386,34.09179469810386 0 0,0 -0.30557942435202534,-0.4991410244937404 l 11.22378710245661 -6.739561669428438" fill="#ffad10" stroke="none" /><line stroke="#e1ed5e" stroke-width="0.3" x1="26.387840678322732" x2="22.057713659400548" y1="142.50000000000003" y2="145.00000000000006" /><path d="M 25.521815274538298 143.00000000000003 a86.0,86.0 0 0,1 -11.493303480769221,-40.785679425670985" fill="none" id="id105" stroke="none" /><text fill="#e1ed5e" style="font-size:6.75px; font-family:Arial;" text-anchor="middle"><textPath startOffset="21.40746469413373" xlink:href="#id105">September</textPath></text><line stroke="#e1ed5e" stroke-width="0.3" x1="15.003131293944662" x2="10.003315487706104" y1="100.72959589197737" y2="100.7725132973878" /><path d="M 14.003168132696942 100.73817937305945 a86.0,86.0 0 0,1 10.791469493833604,-42.45332614584628" fill="none" id="id106" stroke="none" /><text fill="#e1ed5e" style="font-size:6.75px; font-family:Arial;" text-anchor="middle"><textPath startOffset="22.145653131862435" xlink:href="#id106">October</textPath></text><line stroke="#e1ed5e" stroke-width="0.3" x1="26.387840678322718" x2="22.05771365940052" y1="57.49999999999999" y2="54.99999999999999" /><path d="M 25.521815274538284 56.99999999999999 a86.0,86.0 0 0,1 29.574782752854787,-30.34633250058573" fill="none" id="id107" stroke="none" /><text fill="#e1ed5e" style="font-size:6.75px; font-family:Arial;" text-anchor="middle"><textPath startOffset="21.40746469413373" xlink:href="#id107">November</textPath></text><line stroke="#e1ed5e" stroke-width="0.3" x1="56.869717070023135" x2="54.33264160355391" y1="26.7553504044142" y2="22.446841604673864" /><path d="M 56.362301976729285 25.89364864446614 a86.0,86.0 0 0,1 42.16139366436587,-11.88097634709845" fill="none" id="id108" stroke="none" /><text fill="#e1ed5e" style="font-size:6.75px; font-family:Arial;" text-anchor="middle"><textPath startOffset="22.145653131862474" xlink:href="#id108">December</textPath></text></svg>