<?xml version="1.0" encoding="utf-8" ?>
<svg baseProfile="full" height="200mm" version="1.1" viewBox="0,0,200,200" width="200mm" xmlns="http://www.w3.org/2000/svg" xmlns:ev="http://www.w3.org/2001/xml-events" xmlns:xlink="http://www.w3.org/1999/xlink"><defs /><rect fill="#1a1a1a" height="200" width="200" x="0" y="0" /><text alignment-baseline="middle" fill="#e1ed5e" style="dominant-baseline: central; font-size:9.0px; font-family:Arial;" text-anchor="middle" x="100.0" y="100.0">2025</text><line stroke="#e1ed5e" stroke-width="0.3" x1="100.0" x2="100.0" y1="15.0" y2="10.0" /><path d="M 100.0 14.0 a86.0,86.0 0 0,1 42.46469731375804,11.215312516191453" fill="none" id="id109" stroke="none" /><text fill="#e1ed5e" style="font-size:6.75px; font-family:Arial;" text-anchor="middle"><textPath startOffset="22.20632615414155" xlink:href="#id109">January</textPath></text><path d="M 100.0 79.0 l 0.0 -12.222357841828881 a33.22235784182888,33.22235784182888 0 0,0 0.5718682778679879,0.004922250812868509 l -0.2103877985954595 12.220546967624571" fill="#ffa30f" stroke="none" /><path d="M 100.36148047927253 79.00311137660856 l 0.25333174327607366 -14.714981038649842 a35.717161544943906,35.717161544943906 0 0,0 0.6146300404183264,0.015874080608756214 l -0.5065884188892679 14.708440165898727" fill="#ffc312" stroke="none" /><path d="M 100.72285384407766 79.0124445844662 l 0.4729104174717543 -13.730622966992673 a34.7387645487016,34.7387645487016 0 0,0 0.5974392042015272,0.025726988879667387 l -0.7091904540626129 13.72044825158881" fill="#ffb610" stroke="none" /><path d="M 101.08401301168833 79.027996857942 l 1.5907087727698572 -30.774860652890663 a51.815943967443296,51.815943967443296 0 0,0 0.8903409075549386,0.053707794959266475 l -2.120211729164408 30.742919588551093" fill="#80ff25" stroke="none" /><path d="M 101.44485096284872 79.0497635885617 l 0.34082726022680915 -4.9419710827033505 a25.953709862677652,25.953709862677652 0 0,0 0.44542722175963767,0.03457372517357475 l -0.42584467134878795 4.935372095341311" fill="#ff4106" stroke="none" /><path d="M 101.80526077348638 79.07773832637324 l 0.49262571482779605 -5.709338099049084 a26.730551598595287,26.730551598595287 0 0,0 0.45807875520724517,0.04350009741385364 l -0.5908295971252854 5.700012457120052" fill="#ff4c07" stroke="none" /><path d="M 102.16513564639614 79.11191278185805 l 0.6049522066725072 -5.8362599483389745 a26.867529067413606,26.867529067413606 0 0,0 0.4596052874016794,0.05164200920986037 l -0.7053241975839118 5.824981985658513" fill="#ff4e07" stroke="none" /><path d="M 102.52436894288641 79.15227682838746 l 0.6914157119628097 -5.7101175325910685 a26.75182561651107,26.75182561651107 0 0,0 0.4566731175736061,0.059289277267287034 l -0.7896035580442619 5.697369932159645" fill="#ff4c07" stroke="none" /><path d="M 102.88285421437855 79.19881850522331 l 0.788662056273539 -5.6905765434711775 a26.744967296348168,26.744967296348168 0 0,0 0.4554680915521549,0.06712415702152599 l -0.8864991282543497 5.676157902288683" fill="#ff4c07" stroke="none" /><path d="M 103.2404852339499 79.25152402106235 l 0.8827294836542784 -5.6520212762012445 a26.72053807328857,26.72053807328857 0 0,0 0.45383026319029734,0.07488588199414636 l -0.9798889529834509 5.635989131267474" fill="#ff4c07" stroke="none" /><path d="M 103.59715602781102 79.31037775812273 l 1.007740700724792 -5.796182944126646 a26.883135052136907,26.883135052136907 0 0,0 0.45522733259950027,0.08318988529267646 l -1.1073631544271931 5.777977577483232" fill="#ff4e07" stroke="none" /><path d="M 103.95276090670814 79.375362276772 l 2.074019689819859 -10.82177893957169 a32.01873209996131,32.01873209996131 0 0,0 0.5404054372618808,0.10840024684433092 l -2.259991536548865 10.78447473665015" fill="#ff930d" stroke="none" /><path d="M 104.307194497241 79.44645832069477 l 2.7530359998408214 -13.137238219356393 a34.422601657224945,34.422601657224945 0 0,0 0.5788853442292293,0.12652191468383253 l -2.9787640682235788 13.08790280657669" fill="#ffb210" stroke="none" /><path d="M 104.66035177308747 79.52364482259891 l 2.7214733045352126 -11.957435125666528 a33.26322436114668,33.26322436114668 0 0,0 0.5572006869286928,0.1318714001638526 l -2.926897678426429 11.908817813361805" fill="#ffa30f" stroke="none" /><path d="M 105.01212808612495 79.60689891045804 l 1.3978580810372436 -5.687536444717063 a26.85679759123584,26.85679759123584 0 0,0 0.44798559402834975,0.11420150273316797 l -1.4955525637506184 5.6626319458150265" fill="#ff4e07" stroke="none" /><path d="M 105.36241919743992 79.69619591428918 l 1.4644827633030122 -5.5449919184237535 a26.735123812037223,26.735123812037223 0 0,0 0.4439330526248957,0.12134367295059975 l -1.5597137051516188 5.51896170464686" fill="#ff4c07" stroke="none" /><path d="M 105.71112130821622 79.79150937346287 l 2.2684652142802304 -8.026840185211494 a29.34122879360862,29.34122879360862 0 0,0 0.4848425435903447,0.14153883373196224 l -2.4062979755940024 7.9866030225608275" fill="#ff6f0a" stroke="none" /><path d="M 106.0581310904928 79.89281104454417 l 1.707972957638745 -5.668833255184225 a26.920544071207292,26.920544071207292 0 0,0 0.44254121847459565,0.1374997107603264 l -1.805299548824059 5.638593409541378" fill="#ff4e07" stroke="none" /><path d="M 106.40334571778207 80.00007090966166 l 3.5517561203159675 -11.093399245215041 a32.648110505654536,32.648110505654536 0 0,0 0.5337455789485236,0.1759675256241877 l -3.7421845215069087 11.030617995331616" fill="#ff9b0e" stroke="none" /><path d="M 106.74666289553966 80.11325718540242 l 1.898831659671385 -5.597074798129489 a26.91039829179275,26.91039829179275 0 0,0 0.43738110546732406,0.15259367949441743 l -1.9948947692019827 5.563560265462864" fill="#ff4e07" stroke="none" /><path d="M 107.08798089147638 80.2323363322302 l 2.104546768244358 -5.869368629051271 a27.235271060941855,27.235271060941855 0 0,0 0.43993739553553096,0.16203265556014512 l -2.2052664895524656 5.832272705684801" fill="#ff5307" stroke="none" /><path d="M 107.4271985657038 80.35727306442388 l 1.5274549078316637 -4.039663056739594 a25.318795677899768,25.318795677899768 0 0,0 0.4063266850183757,0.1576484411233278 l -1.5967647578497066 4.01277191172572" fill="#ff3805" stroke="none" /><path d="M 107.76421540070413 80.48803036053334 l 4.262137437962412 -10.71102384423992 a32.52787262819801,32.52787262819801 0 0,0 0.518457316982488,0.2114917572851221 l -4.445878624533288 10.63607120077122" fill="#ff9a0e" stroke="none" /><path d="M 108.09893153111575 80.62456947434976 l 10.033742808908396 -24.004164741897096 a47.01683915681259,47.01683915681259 0 0,0 0.7440218718651963,0.31855133661565876 l -10.445448438563908 23.827893877318647" fill="#b5ff20" stroke="none" /><path d="M 108.43124777332544 80.76684994638697 l 2.698523192030845 -6.155803135057592 a27.721304907197204,27.721304907197204 0 0,0 0.43538009799182054,0.1953423589436906 l -2.8040854084894455 6.10844044559737" fill="#ff5908" stroke="none" /><path d="M 108.76106565485865 80.91482961587045 l 1.9775948154090603 -4.308007209365227 a25.740232839204797,25.740232839204797 0 0,0 0.40108404910521056,0.1883143390048379 l -2.0514570758138686 4.273327887720387" fill="#ff3e05" stroke="none" /><path d="M 109.08828744355905 81.06846463323043 l 2.049748161938849 -4.269768101163831 a25.736284109414033,25.736284109414033 0 0,0 0.3977220797089378,0.19516049722514792 l -2.122941508658219 4.233852443803851" fill="#ff3e05" stroke="none" /><path d="M 109.41281617654863 81.2277094730956 l 3.194523766558908 -6.370944371606041 a28.126984936227128,28.126984936227128 0 0,0 0.4309315437609587,0.22073987418633004 l -3.3037157979086222 6.31501197210721" fill="#ff5f08" stroke="none" /><path d="M 109.73455568895987 81.39251694778311 l 2.7744486511528472 -5.303324353480462 a26.985216329933515,26.985216329933515 0 0,0 0.40973189987163855,0.21886459099713987 l -2.865325597552797 5.254781035981567" fill="#ff4f07" stroke="none" /><path d="M 110.05341064243156 81.56283822128135 l 6.82225678115006 -12.511480575471811 a35.250625732870695,35.250625732870695 0 0,0 0.5302296911500615,0.2950722490575032 l -7.0366105613721555 12.39219292885413" fill="#ffbd11" stroke="none" /><path d="M 110.36928655335952 81.73862282372117 l 2.546607392090032 -4.484836817610075 a26.157418975615464,26.157418975615464 0 0,0 0.3896250536117115,0.2256959796089596 l -2.6234291781670716 4.4403366806110665" fill="#ff4406" stroke="none" /><line stroke="#e1ed5e" stroke-width="0.3" x1="143.23703022742887" x2="145.7803849466894" y1="26.81831364943548" y2="22.513508569990506" /><path d="M 143.74570117128098 25.957352633546492 a86.0,86.0 0 0,1 28.547481713284135,27.462654790039103" fill="none" id="id110" stroke="none" /><text fill="#e1ed5e" style="font-size:6.75px; font-family:Arial;" text-anchor="middle"><textPath startOffset="19.985693538727396" xlink:href="#id110">February</textPath></text><path d="M 110.68208982089419 81.91981866633111 l 5.474130689945507 -9.265347621850617 a31.76163432589754,31.76163432589754 0 0,0 0.46831461077247016,0.2821543129824684 l -5.632807366935615 9.169746699409535" fill="#ff900d" stroke="none" /><path d="M 110.99172775467656 82.1063720568725 l 3.0125632340940944 -4.904204950226305 a26.755585411862086,26.755585411862086 0 0,0 0.39035233034583877,0.24443859345157262 l -3.0965347168121964 4.851622015451787" fill="#ff4c07" stroke="none" /><path d="M 111.2981086023043 82.29822771554956 l 3.0616695537684584 -4.7969955997759275 a26.690780899028038,26.690780899028038 0 0,0 0.3851517485701234,0.2505134109628927 l -3.143788328122862 4.743583264653507" fill="#ff4b07" stroke="none" /><path d="M 111.60114157652 82.49532879139004 l 5.50055452143418 -8.29964859299829 a30.95692054856965,30.95692054856965 0 0,0 0.4416451462848156,0.29820077423295993 l -5.642604362125538 8.20373590646666" fill="#ff850c" stroke="none" /><path d="M 111.90073688211348 82.69761687909136 l 2.8057235718930222 -4.079218341951613 a25.950970313301283,25.950970313301283 0 0,0 0.36587020035036266,0.25631545656961074 l -2.8755249118270356 4.030318042618067" fill="#ff4106" stroke="none" /><path d="M 112.19680574252982 82.90503203632743 l 2.2212518335518605 -3.1132929174570876 a24.824467609739422,24.824467609739422 0 0,0 0.34571580102342675,0.2511772320469573 l -2.274512950929076 3.0745964505934555" fill="#ff3104" stroke="none" /><path d="M 112.48926042617603 83.11751280151076 l 9.873287187163092 -13.34631826516606 a37.601385819120765,37.601385819120765 0 0,0 0.5170259418707674,0.3894132203451834 l -10.101559282792241 13.174388455315029" fill="#ffda14" stroke="none" /><path d="M 112.77801427241765 83.33499621200491 l 2.8965885122567627 -3.7777120528985644 a25.760392143926058,25.760392143926058 0 0,0 0.3495653870164616,0.27284132928063987 l -2.9611864544326547 3.7272923343947" fill="#ff3e05" stroke="none" /><path d="M 113.06298171725822 83.55741782278167 l 10.350695857341066 -13.028584967004399 a37.639739510389894,37.639739510389894 0 0,0 0.5038287073946878,0.4073944424418122 l -10.573427963300245 12.848484427298457" fill="#ffdb14" stroke="none" /><path d="M 113.34407831869373 83.78471172551755 l 2.519631262033362 -3.0617736409739917 a24.96522376735273,24.96522376735273 0 0,0 0.3294725526309961,0.2759237877050896 l -2.5719613516234756 3.017948695875083" fill="#ff3304" stroke="none" /><path d="M 113.6212207817346 84.01681056812373 l 3.765852985124986 -4.418865430517188 a26.805860866279403,26.805860866279403 0 0,0 0.34861175405680606,0.3023126778407933 l -3.841358537828556 4.353387759256724" fill="#ff4d07" stroke="none" /><path d="M 113.89432698308785 84.25364557470407 l 0.23813560307077475 -0.26987759909481207 a21.35992010772262,21.35992010772262 0 0,0 0.273599229276422,0.24564008945826799 l -0.24274581994318675 0.2657385008672467" fill="#ff0000" stroke="none" /><path d="M 114.16331599549186 84.49514656593476 l 2.5886516179243326 -2.8338465328704108 a24.8382031435092,24.8382031435092 0 0,0 0.3131885891953948,0.291074661131622 l -2.637048090914574 2.788867285664148" fill="#ff3204" stroke="none" /><path d="M 114.42810811169701 84.74124197986012 l 18.450899120974537 -19.513147722584403 a47.855141265980706,47.855141265980706 0 0,0 0.5936698180515622,0.5711098946016224 l -18.78405218263852 19.19265474122048" fill="#abff21" stroke="none" /><path d="M 114.68862486808459 84.99185889309783 l 20.66523258801251 -21.11475577007424 a50.544623015813514,50.544623015813514 0 0,0 0.6165582338423905,0.6139105368447099 l -21.025626622022223 20.75590938257941" fill="#8eff24" stroke="none" /><path d="M 114.94478906791727 85.2469230424477 l 3.6744929633249206 -3.627356480011649 a26.16329483669167,26.16329483669167 0 0,0 0.31363029950796295,0.3232235925246021 l -3.7363875265359927 3.5635686919369323" fill="#ff4406" stroke="none" /><path d="M 115.19652480421416 85.50635884689758 l 6.756806721103123 -6.4442846781246965 a30.337196692747618,30.337196692747618 0 0,0 0.3571593515360385,0.3809926940030227 l -6.866733394609624 6.327022567243619" fill="#ff7d0b" stroke="none" /><path d="M 115.4437574822437 85.77008943001954 l 6.5819643808186825 -6.0646358000332645 a29.949975558481206,29.949975558481206 0 0,0 0.34607390631713164,0.3821434510590557 l -6.685381927751849 5.95043956170466" fill="#ff780b" stroke="none" /><path d="M 115.68641384162765 86.03803664274999 l 3.4865576145795267 -3.1032707761743783 a25.667587547121148,25.667587547121148 0 0,0 0.29090927040679687,0.33255958482717146 l -3.539458748564172 3.0427956351442593" fill="#ff3d05" stroke="none" /><path d="M 115.9244219780498 86.31012108654704 l 7.9394405971534825 -6.825364246526618 a31.46997201970916,31.46997201970916 0 0,0 0.34960049838359697,0.41381672041262446 l -8.055751709024197 6.687688576484887" fill="#ff8c0c" stroke="none" /><path d="M 116.15771136456269 86.58626213691792 l 2.6393624348707867 -2.1911343152638962 a24.430350368422157,24.430350368422157 0 0,0 0.26582723325172014,0.3258727562007434 l -2.6766881601989154 2.145377389455052" fill="#ff2c04" stroke="none" /><path d="M 116.38621287248628 86.86637796730983 l 3.9939726134093916 -3.2011867001625047 a26.118536267915033,26.118536267915033 0 0,0 0.27815733605608345,0.3532315694714901 l -4.048484030059439 3.1319627367379765" fill="#ff4306" stroke="none" /><path d="M 116.60985879189232 87.15038557335679 l 2.827465215636899 -2.187365845844169 a24.574790747610578,24.574790747610578 0 0,0 0.25595704764096566,0.33680947174763054 l -2.864698203501978 2.138371598215505" fill="#ff2e04" stroke="none" /><path d="M 116.82858285166822 87.43820079747576 l 3.441535001392247 -2.568954974819098 a25.294612069611844,25.294612069611844 0 0,0 0.2574478238685776,0.3511585424310561 l -3.4852454377744513 2.509333988716548" fill="#ff3805" stroke="none" /><path d="M 117.04232023915458 87.72973835380427 l 1.9746918250891246 -1.4217539058313884 a23.433267756088636,23.433267756088636 0 0,0 0.23286796464058482,0.32937522153461096 l -1.9988724095335921 1.3875521839649843" fill="#ff1e03" stroke="none" /><path d="M 117.2510076193507 88.02491185347247 l 9.72697450780474 -6.752149190365507 a32.840842527642906,32.840842527642906 0 0,0 0.3183615269263757,0.46715625701537095 l -9.841760500399849 6.583714910079729" fill="#ff9e0e" stroke="none" /><path d="M 117.45458315368197 88.32363383020206 l 2.5746019212500295 -1.7222980640267638 a24.09756124624755,24.09756124624755 0 0,0 0.22766843956780905,0.34675465289560287 l -2.6038669961757632 1.677725347153487" fill="#ff2703" stroke="none" /><path d="M 117.65298651832404 88.62581576622439 l 13.1492829510568 -8.47235489995514 a36.64239238984072,36.64239238984072 0 0,0 0.3370618579640206,0.5331509137188049 l -13.293172405266779 8.244756338522128" fill="#ffce13" stroke="none" /><line stroke="#e1ed5e" stroke-width="0.3" x1="172.23445277983987" x2="176.4835382374775" y1="55.19839476539836" y2="52.563006222186495" /><path d="M 173.08426987136738 54.67131705675599 a86.0,86.0 0 0,1 12.851231095245387,41.99856678651699" fill="none" id="id111" stroke="none" /><text fill="#e1ed5e" style="font-size:6.75px; font-family:Arial;" text-anchor="middle"><textPath startOffset="22.20632615414155" xlink:href="#id111">March</textPath></text><path d="M 117.84615892207809 88.93136811851018 l 8.593461067913573 -5.329878410472754 a31.112130190823784,31.112130190823784 0 0,0 0.2783560830722856,0.45754421176682375 l -8.683932949272082 5.18116642549885" fill="#ff870c" stroke="none" /><path d="M 118.03404312379186 89.2402003453031 l 31.529864771476802 -18.811922859006884 a57.71540295517455,57.71540295517455 0 0,0 0.5016851639768474,0.8575425688716805 l -31.84900960992398 18.266400877781308" fill="#44ff2d" stroke="none" /><path d="M 118.21658344932153 89.55222093294921 l 11.109313890689434 -6.371538188779552 a33.80676985086175,33.80676985086175 0 0,0 0.2851719500793102,0.5072890788497992 l -11.217343482061178 6.179365599994958" fill="#ffaa0f" stroke="none" /><path d="M 118.3937258080291 89.86733742301442 l 0.9898386099356581 -0.5452783598509652 a22.1300924579171,22.1300924579171 0 0,0 0.18093131612242394,0.33523825007020763 l -0.9990780252765469 0.5281591264482989" fill="#ff0b01" stroke="none" /><path d="M 118.56541770881063 90.18545643968196 l 1.235343091440603 -0.6530598326978597 a22.39734022294264,22.39734022294264 0 0,0 0.1772488889217411,0.3423884362085789 l -1.2464014135224604 0.631698674228936" fill="#ff0f01" stroke="none" /><path d="M 118.73160827565052 90.50648371742162 l 12.15288144148278 -6.159299092055927 a34.62459146676103,34.62459146676103 0 0,0 0.26486161546257275,0.5339448546976973 l -12.257103069898761 5.9491946488592795" fill="#ffb510" stroke="none" /><path d="M 118.89224826269711 90.83032412892265 l 5.739436342391066 -2.785733609393841 a27.3797681204622,27.3797681204622 0 0,0 0.20214327150430303,0.42576528274953707 l -5.786537807737125 2.6865259110037636" fill="#ff5507" stroke="none" /><path d="M 119.04729006885535 91.15688171328212 l 3.8238984677217696 -1.775327951862025 a25.215920875456217,25.215920875456217 0 0,0 0.17939048354422524,0.39526315138000817 l -3.853891268229342 1.7092427916399542" fill="#ff3705" stroke="none" /><path d="M 119.196687751892 91.48605970444005 l 19.779987867658342 -8.772640255897546 a42.638094581180326,42.638094581180326 0 0,0 0.2917852526629555,0.6734805926559453 l -19.92806383016398 8.430860518654997" fill="#e7ff1a" stroke="none" /><path d="M 119.34039704204932 91.81776055985345 l 7.843228782360555 -3.318193299837398 a29.516257658592465,29.516257658592465 0 0,0 0.19393349719833072,0.4696253461327709 l -7.899183966445083 3.182693383251324" fill="#ff720a" stroke="none" /><path d="M 119.47837535516314 92.15188598940014 l 5.58085604753405 -2.2486061460040117 a27.01682506170359,27.01682506170359 0 0,0 0.17008564451785435,0.4328494131698421 l -5.618735241933606 2.1522077279383853" fill="#ff5007" stroke="none" /><path d="M 119.61058180528143 92.48833698450437 l 9.507781987699069 -3.641873302155695 a31.181412449879893,31.181412449879893 0 0,0 0.18767559322395783,0.5028772834057055 l -9.569062169424653 3.477672881720656" fill="#ff880c" stroke="none" /><path d="M 119.7369772167798 92.82701384747503 l 8.463148874383089 -3.0757521284007283 a30.004728759120585,30.004728759120585 0 0,0 0.17223702919282347,0.48693727521590074 l -8.514838984385722 2.929617226758213" fill="#ff780b" stroke="none" /><path d="M 119.85752413597 93.16781622104841 l 9.164645582582299 -3.15318981663675 a30.69192110337713,30.69192110337713 0 0,0 0.16758184443126395,0.5010483846297109 l -9.217564720785333 2.994968329084725" fill="#ff810b" stroke="none" /><path d="M 119.97218684219823 93.5106431181261 l 5.844474160594013 -1.898984768901277 a27.14524380040126,27.14524380040126 0 0,0 0.1405664954794636,0.4456342039286958 l -5.876296139841682 1.798100398546162" fill="#ff5207" stroke="none" /><path d="M 120.08093135843002 93.85539295169968 l 25.039722807544713 -7.661958228154342 a47.18574654594856,47.18574654594856 0 0,0 0.23097221358597023,0.7787234817739144 l -25.167900918242385 7.229805359633898" fill="#b3ff20" stroke="none" /><path d="M 120.18372546131832 94.20196356495316 l 6.207363128051508 -1.783145418371057 a27.458402634285903,27.458402634285903 0 0,0 0.12658745876734767,0.45540244112824074 l -6.237137357385219 1.6760316738238643" fill="#ff5607" stroke="none" /><path d="M 120.28053869075195 94.5502522615342 l 9.560364015761214 -2.5690428133234495 a30.899522265773776,30.899522265773776 0 0,0 0.13360904596131024,0.5148501566489109 l -9.603169393592827 2.4040962311256884" fill="#ff840c" stroke="none" /><path d="M 120.37134235888165 94.90015583598534 l 12.05050531290027 -3.016772194524925 a33.42238273319158,33.42238273319158 0 0,0 0.13491056156684716,0.5592913755035802 l -12.100648674727937 2.808895587361939" fill="#ffa50f" stroke="none" /><path d="M 120.45610955862082 95.25157060432595 l 6.410317977490107 -1.4880122846772674 a27.580756577467618,27.580756577467618 0 0,0 0.10336954063700822,0.4633853819456666 l -6.434981905129153 1.377448733181637" fill="#ff5808" stroke="none" /><path d="M 120.53481517161879 95.60439243477599 l 5.5816991180915085 -1.194798135032502 a26.708143974041008,26.708143974041008 0 0,0 0.09236020096183288,0.45038114094763804 l -5.601438614968338 1.0985413379214521" fill="#ff4c07" stroke="none" /><path d="M 120.6074358757038 95.95851677861258 l 7.819947444910102 -1.5336302187889892 a28.968914586638434,28.968914586638434 0 0,0 0.09175458965939873,0.4901566868927227 l -7.84518775847936 1.3987954544337038" fill="#ff6a09" stroke="none" /><path d="M 120.67395015179393 96.31383870115 l 7.20781810088418 -1.2851525682103007 a28.321492941949145,28.321492941949145 0 0,0 0.08144201132059292,0.48067536098206504 l -7.228871973724996 1.1608914189123978" fill="#ff6209" stroke="none" /><path d="M 120.73433829027371 96.67025291283417 l 4.090170622966704 -0.6568443866965983 a25.142576525945497,25.142576525945497 0 0,0 0.06494460001352118,0.4279037698629962 l -4.100871116419524 0.5863415044415199" fill="#ff3605" stroke="none" /><path d="M 120.78858239683441 97.02765380044208 l 11.038199908802376 -1.578239002669335 a32.1504571913546,32.1504571913546 0 0,0 0.07361536256571864,0.5485199574236933 l -11.06373127042593 1.3880007031809771" fill="#ff950d" stroke="none" /><path d="M 120.83666639777658 97.38593545837742 l 4.7468936616211135 -0.5955216715962207 a25.784103416114608,25.784103416114608 0 0,0 0.05145727010896764,0.4408544658683574 l -4.75644128473367 0.5137234674030107" fill="#ff3f05" stroke="none" /><path d="M 120.87857604477298 97.74499172005257 l 26.401569237678927 -2.8515238350977614 a47.55511337565865,47.55511337565865 0 0,0 0.08089549229933428,0.8146065676832969 l -26.446741855660488 2.3966417367100297" fill="#afff20" stroke="none" /><path d="M 120.91429891909075 98.10471618934814 l 3.8171391321822905 -0.345914631335169 a24.832780725088394,24.832780725088394 0 0,0 0.03491431757645411,0.4260431091562153 l -3.8225279335782396 0.2801576049711849" fill="#ff3104" stroke="none" /><path d="M 120.94382443527127 98.46500227214037 l 10.43376789997524 -0.7647032216572978 a31.461753371580063,31.461753371580063 0 0,0 0.03493664259952785,0.5404543976906674 l -10.445385133579185 0.5849897597135951" fill="#ff8c0c" stroke="none" /><path d="M 120.96714384426684 98.82574320788733 l 4.089557937282891 -0.22903411262215365 a25.095966399659318,25.095966399659318 0 0,0 0.02044292538055149,0.4315178445466364 l -4.0928944708969395 0.15860516145251752" fill="#ff3505" stroke="none" /><path d="M 120.98425023603335 99.18683210126433 l 2.3444093789998353 -0.09084901423944586 a23.346168979364162,23.346168979364162 0 0,0 0.01210477243511705,0.4016984664526054 l -2.3456258458905976 0.05048040036184143" fill="#ff1c02" stroke="none" /><line stroke="#e1ed5e" stroke-width="0.3" x1="184.98032266829074" x2="189.97916517819016" y1="98.17113171792111" y2="98.06355123074" /><path d="M 185.9800911702706 98.14961562048488 a86.0,86.0 0 0,1 -9.607161424134198,41.387399972396054" fill="none" id="id112" stroke="none" /><text fill="#e1ed5e" style="font-size:6.75px; font-family:Arial;" text-anchor="middle"><textPath startOffset="21.466115282336823" xlink:href="#id112">April</textPath></text><path d="M 120.99513854157772 99.54816195383933 l 11.323959794810076 -0.24370383926527986 a32.326581876088994,32.326581876088994 0 0,0 0.007184187024966323,0.5564232023355217 l -11.326476988952757 0.04874437886929547" fill="#ff970d" stroke="none" /><path d="M 120.99980553446 99.90962569577887 l 19.300418963974348 -0.08306086131051113 a40.30059769260067,40.30059769260067 0 0,0 -0.0029855118602394033,0.6937278137429331 l -19.298989154824604 -0.2491764306361067" fill="#fffb17" stroke="none" /><path d="M 120.99824983174949 100.27111621757518 l 14.476291633945092 0.18690878829226193 a35.47749820812179,35.47749820812179 0 0,0 -0.013140083674072933,0.6105680553668175 l -14.470929487586012 -0.4360666594491942" fill="#ffc011" stroke="none" /><path d="M 120.9904718944345 100.63252640178507 l 62.97141568330351 1.8975792053552112 a84.0,84.0 0 0,0 -0.05599146859518722,1.4448910119439753 l -62.92942208185712 -2.9812474643131925" fill="#4dd2ff" stroke="none" /><path d="M 120.9764740272857 100.99374915477107 l 6.180350197971149 0.29279076061277054 a27.187281713245504,27.187281713245504 0 0,0 -0.02616924632730647,0.46726947267938246 l -6.174394600756313 -0.3991319496275763" fill="#ff5207" stroke="none" /><path d="M 120.95626037817324 101.35467743843564 l 12.318754633003715 0.7963223719216524 a33.34446617023893,33.34446617023893 0 0,0 -0.041955978367537394,0.5724559906450377 l -12.30322209597184 -1.0082514990634603" fill="#ffa40f" stroke="none" /><path d="M 120.92983693683757 101.71520430193887 l 15.593085980168661 1.277856499044904 a36.64535866054479,36.64535866054479 0 0,0 -0.05693188670817369,0.6282386257670928 l -15.568779497183412 -1.5460765133605674" fill="#ffce13" stroke="none" /><path d="M 120.89721153311464 102.0752229133903 l 10.847950827815009 1.0772689019077784 a31.901309345657058,31.901309345657058 0 0,0 -0.058968352757209117,0.5459737102628678 l -10.827800173556748 -1.2638389340554377" fill="#ff910d" stroke="none" /><path d="M 120.8583938346157 102.4346265915055 l 4.485778533189513 0.5235875680122317 a25.5162321674379,25.5162321674379 0 0,0 -0.05467580653532051,0.43581997409242085 l -4.4761012174073445 -0.6007252963920475" fill="#ff3b05" stroke="none" /><path d="M 120.81339534386255 102.79330883721812 l 3.9390334872381234 0.5286469059093176 a24.974349300792625,24.974349300792625 0 0,0 -0.06084934677228254,0.42558018960150185 l -3.9293500894492395 -0.5963725674912288" fill="#ff3304" stroke="none" /><path d="M 120.76222939487914 103.15116336523771 l 5.5887083036007015 0.8482197422233421 a26.652710609418534,26.652710609418534 0 0,0 -0.07274698160229265,0.45299552387989295 l -5.57327956763712 -0.94429449579644" fill="#ff4b07" stroke="none" /><path d="M 120.70491114924044 103.5080841355445 l 5.993898817132406 1.015561052103936 a27.07932457437269,27.07932457437269 0 0,0 -0.08182283253789437,0.4589058980394483 l -5.975529542255322 -1.1185857008766025" fill="#ff5107" stroke="none" /><path d="M 120.64145759157962 103.86396538481128 l 30.70815548753599 5.748394913915638 a52.24155657986679,52.24155657986679 0 0,0 -0.17306898060556988,0.882475003491001 l -30.604656573954756 -6.276133644474584" fill="#7cff26" stroke="none" /><path d="M 120.5718875245553 104.21870165774334 l 6.566884532998222 1.3466788904275597 a27.70354506986076,27.70354506986076 0 0,0 -0.09981977945008237,0.4663247778751 l -6.542730714823697 -1.4595174877188286" fill="#ff5908" stroke="none" /><path d="M 120.49622156327973 104.57218783832717 l 15.455580420133204 3.447748484424211 a36.835464493820645,36.835464493820645 0 0,0 -0.14337666768619595,0.6176629318761109 l -15.393943186516456 -3.7132800736488862" fill="#ffd113" stroke="none" /><path d="M 120.41448212921028 104.9243191809786 l 5.722114769760897 1.3802710907947269 a26.8862335769488,26.8862335769488 0 0,0 -0.11239557663220666,0.44896445804261503 l -5.69750787883363 -1.478563388234738" fill="#ff4e07" stroke="none" /><path d="M 120.32669344350535 105.2749913415812 l 14.815433376114976 3.8447612248390604 a36.306183554306656,36.306183554306656 0 0,0 -0.1621882342818114,0.6035627552667264 l -14.747057065491388 -4.099214913281335" fill="#ffca12" stroke="none" /><path d="M 120.23288151984713 105.62410040840565 l 11.226889188674042 3.120719706148105 a32.65255046498865,32.65255046498865 0 0,0 -0.15518880765971838,0.5402325983223663 l -11.171507744128224 -3.3135097799750532" fill="#ff9b0e" stroke="none" /><path d="M 120.13307415673323 105.97154293290107 l 9.93122333475768 2.94563691853789 a31.358859675692536,31.358859675692536 0 0,0 -0.1579489427821566,0.516186283876755 l -9.879047619469391 -3.116150174966702" fill="#ff8a0c" stroke="none" /><path d="M 120.02730092923936 106.31721596034902 l 6.500612904506341 2.050489765819779 a27.816338930391154,27.816338930391154 0 0,0 -0.14796669556586342,0.4553946629932837 l -6.4643539579242315 -2.162083328790858" fill="#ff5b08" stroke="none" /><path d="M 119.9155931802556 106.66101706037122 l 16.259289542369245 5.43812097641206 a38.14461012028826,38.14461012028826 0 0,0 -0.21362647144007296,0.620898522339555 l -16.16327223998594 -5.717192201840915" fill="#ffe115" stroke="none" /><path d="M 119.79798401119884 107.00284435728193 l 11.517420452436156 4.073884632908238 a33.2166898086364,33.2166898086364 0 0,0 -0.1953073962419778,0.5374020732689624 l -11.44558879518895 -4.271534503183332" fill="#ffa30f" stroke="none" /><path d="M 119.67450827220406 107.3425965602758 l 3.000446738366076 1.119777409204312 a24.202589901304247,24.202589901304247 0 0,0 -0.1490253963281459,0.3890582843944029 l -2.9807270624444233 -1.1712592604318588" fill="#ff2903" stroke="none" /><path d="M 119.54520255179757 107.68017299344265 l 13.094252322526755 5.145309842160966 a35.068889695275736,35.068889695275736 0 0,0 -0.22560549136798194,0.5599343278036475 l -13.00374421690138 -5.369943537807426" fill="#ffba11" stroke="none" /><path d="M 119.41010516605496 108.01547362559984 l 3.7473053603920565 1.5474633973555236 a25.054249675362648,25.054249675362648 0 0,0 -0.16804126113036866,0.39719990272611805 l -3.7201131180693787 -1.6117378257478052" fill="#ff3505" stroke="none" /><path d="M 119.26925614724726 108.34839909993367 l 3.8797632413506027 1.680906190905257 a25.22823940092788,25.22823940092788 0 0,0 -0.17606778098760723,0.39698636559034944 l -3.8502543756317227 -1.747440892988294" fill="#ff3705" stroke="none" /><path d="M 119.12269723197855 108.67885076344098 l 9.764665160637879 4.431700751002233 a31.72327642308119,31.72327642308119 0 0,0 -0.22995656707616566,0.4953059875854724 l -9.686933976721882 -4.599126805866536" fill="#ff8f0d" stroke="none" /><path d="M 118.97047184881838 109.00673069616215 l 14.746680353476457 7.001374539580614 a37.32433235667224,37.32433235667224 0 0,0 -0.2805487767395599,0.5780135758863062 l -14.623978320122182 -7.254177071432196" fill="#ffd714" stroke="none" /><path d="M 118.81262510543309 109.33194174019688 l 13.946214020584353 6.917974286258651 a36.56776328613971,36.56776328613971 0 0,0 -0.2845691675791326,0.561481964717552 l -13.82506618321895 -7.157010462678897" fill="#ffcd13" stroke="none" /><path d="M 118.64920377521936 109.65438752849418 l 10.93219100460853 5.659416335739377 a33.310231249756335,33.310231249756335 0 0,0 -0.2679847628616723,0.5069261786395598 l -10.833153733521966 -5.846757529465071" fill="#ffa40f" stroke="none" /><line stroke="#e1ed5e" stroke-width="0.3" x1="174.80103733775053" x2="179.2010983576182" y1="140.37084112569926" y2="142.7455964860345" /><path d="M 175.68104954172406 140.8457921977663 a86.0,86.0 0 0,1 -30.038265399797805,32.042727171017184" fill="none" id="id113" stroke="none" /><text fill="#e1ed5e" style="font-size:6.75px; font-family:Arial;" text-anchor="middle"><textPath startOffset="22.206326154141568" xlink:href="#id113">May</textPath></text><path d="M 118.48025628344425 109.97397251340804 l 22.63696027616389 12.217385739603433 a46.7234617587697,46.7234617587697 0 0,0 -0.38807971251522366,0.7044774035875824 l -22.423304154197155 -12.60523366158882" fill="#b8ff1f" stroke="none" /><path d="M 118.30583269289576 110.29060199501025 l 3.854332218827775 2.166708255554754 a25.42159490656742,25.42159490656742 0 0,0 -0.21771538564614218,0.37960512615851827 l -3.816464837029253 -2.2327332275715874" fill="#ff3a05" stroke="none" /><path d="M 118.12598468904814 110.60418214915192 l 29.455017299819836 17.231966925495247 a55.12533850753788,55.12533850753788 0 0,0 -0.48620318691452197,0.8149045076237987 l -29.154033237207088 -17.736433527005147" fill="#5eff2a" stroke="none" /><path d="M 117.94076556474637 110.91462005526583 l 10.703849553217376 6.511898869670456 a33.5290551178741,33.5290551178741 0 0,0 -0.3042128856417559,0.49048803514604167 l -10.590172027907657 -6.695183236181772" fill="#ffa70f" stroke="none" /><path d="M 117.75023020441432 111.22182372390056 l 4.157989921573869 2.6287112566040434 a25.91924822086736,25.91924822086736 0 0,0 -0.24166013078899382,0.3750618895521857 l -4.112124927407826 -2.6998947460776823" fill="#ff4106" stroke="none" /><path d="M 117.55443506779139 111.5257021239791 l 10.212147524125891 6.704981957816682 a33.21657644797256,33.21657644797256 0 0,0 -0.3179251769014222,0.4752550028131692 l -10.095219241813748 -6.879773874835658" fill="#ffa30f" stroke="none" /><path d="M 117.35343817320211 111.8261652097733 l 3.9182510350091055 2.670242266166007 a25.741612060614965,25.741612060614965 0 0,0 -0.2526834551599706,0.36400936318055305 l -3.8717066726869986 -2.73729289153358" fill="#ff3e05" stroke="none" /><path d="M 117.14729908036423 112.12312394758627 l 11.310957028816652 7.996835733925607 a34.85233304043497,34.85233304043497 0 0,0 -0.35054842957120536,0.4868811088423249 l -11.171628806869846 -8.190350448219062" fill="#ffb811" stroke="none" /><path d="M 116.93607887273984 112.41649034213515 l 7.530292361922569 5.520746749459347 a30.33723447963557,30.33723447963557 0 0,0 -0.31238500742144637,0.41849076666935014 l -7.43414608780603 -5.649550395638012" fill="#ff7d0b" stroke="none" /><path d="M 116.71984013943494 112.70617746262583 l 10.965585478070224 8.33325402061301 a34.77269717408059,34.77269717408059 0 0,0 -0.36626112199272204,0.47344187267169296 l -10.820517538859434 -8.520773887397954" fill="#ffb710" stroke="none" /><path d="M 116.498646956653 112.99209946851258 l 4.9242560079898094 3.8776770017753517 a27.267748891134776,27.267748891134776 0 0,0 -0.29355950489865196,0.36626061919841185 l -4.856778591036303 -3.961865454552014" fill="#ff5307" stroke="none" /><path d="M 116.27256486870786 113.27417163493432 l 25.37546837146184 20.69976830311317 a53.74743963844546,53.74743963844546 0 0,0 -0.590976133714161,0.7118688235424153 l -25.015396237854134 -21.133498383769357" fill="#6cff28" stroke="none" /><path d="M 116.0416608686014 113.55231037782055 l 13.19032587528241 11.143446536531227 a38.267341932349474,38.267341932349474 0 0,0 -0.4294278935797325,0.4995216560892065 l -12.996555472131899 -11.36884529178196" fill="#ffe215" stroke="none" /><path d="M 115.80600337817218 113.82643327865902 l 2.9210975446865066 2.5552544394516783 a24.88099679411244,24.88099679411244 0 0,0 -0.28475844720919,0.3199291341430977 l -2.876680247828978 -2.6051577433356425" fill="#ff3204" stroke="none" /><path d="M 115.56566222782051 114.09645910891815 l 18.804104581899445 17.02923315686525 a46.36905853668777,46.36905853668777 0 0,0 -0.5408698784008714,0.5870074299058047 l -18.50818829550285 -17.35039184157239" fill="#bcff1f" stroke="none" /><path d="M 115.32070863581623 114.36230785411682 l 3.9326991734586114 3.686685620716012 a26.39052628737828,26.39052628737828 0 0,0 -0.3135363530648619,0.328741612686687 l -3.8686562690147848 -3.753834349985206" fill="#ff4706" stroke="none" /><path d="M 115.07121518719521 114.62390073753431 l 0.7287222194147506 0.7070937060875626 a22.015390359545236,22.015390359545236 0 0,0 -0.2662387988032617,0.2696984975580688 l -0.7164427955559532 -0.719532697626296" fill="#ff0901" stroke="none" /><path d="M 114.81725581225074 114.88116024355365 l 4.059806959071988 4.07731625081983 a26.753828321572414,26.753828321572414 0 0,0 -0.32913584861943135,0.3221287017874649 l -3.9890211580767625 -4.146595055529867" fill="#ff4c07" stroke="none" /><path d="M 114.55890576462653 115.13401014063108 l 0.9386756569764165 0.9757551248089311 a22.353960875576174,22.353960875576174 0 0,0 -0.2795992610211308,0.26437855300142554 l -0.921740561564478 -0.9917683145562781" fill="#ff0e01" stroke="none" /><path d="M 114.29624159901734 115.38237550388516 l 6.857997760374077 7.379023082691086 a31.073833179886577,31.073833179886577 0 0,0 -0.39493428930967805,0.36076310948277096 l -6.729963921597535 -7.49597895876044" fill="#ff870c" stroke="none" /><path d="M 114.0293411484842 115.62618273729858 l 5.094363772209748 5.674212237929945 a28.62556402928184,28.62556402928184 0 0,0 -0.3694846682142359,0.32602726045332436 l -4.995936751088925 -5.761062640155559" fill="#ff6609" stroke="none" /><path d="M 113.75828350139079 115.86535959552629 l 1.001937777354176 1.1553841820790696 a22.5293109291076,22.5293109291076 0 0,0 -0.29517101073940666,0.2515511389504444 l -0.981901290037722 -1.1724597112524606" fill="#ff1101" stroke="none" /><path d="M 113.48314897796784 116.09983520530334 l 18.339964037769345 21.89921650808451 a49.56448782272551,49.56448782272551 0 0,0 -0.6588061483193139,0.5421526087725711 l -17.960287760905338 -22.21166423571426" fill="#99ff23" stroke="none" /><path d="M 113.20401910651253 116.32954008644616 l 2.759796762996948 3.4130677567389545 a25.389249330482322,25.389249330482322 0 0,0 -0.3422017518344777,0.2718657677758826 l -2.7006375184451192 -3.4600674385199635" fill="#ff3905" stroke="none" /><path d="M 112.92097659922987 116.55440617244103 l 7.6382091084214245 9.786103630772262 a33.41410740473056,33.41410740473056 0 0,0 -0.45645464178333434,0.34998995509502073 l -7.468625738144596 -9.916132927694655" fill="#ffa50f" stroke="none" /><path d="M 112.63410532772338 116.77436683061366 l 10.103711313594646 13.414749642220878 a37.79406116077721,37.79406116077721 0 0,0 -0.5230248667734219,0.3869212926803713 l -9.871301476402659 -13.58668088364102" fill="#ffdd14" stroke="none" /><path d="M 112.34349029814194 116.9893568818739 l 30.847601948808475 42.45808161223131 a73.48107506695177,73.48107506695177 0 0,0 -1.0296891577375524,0.7346558741029616 l -30.11218546322204 -42.982781748178496" fill="#40ffc7" stroke="none" /><path d="M 112.04921762599082 117.19931262002967 l 3.1811547604104438 4.540848784984548 a26.544281134446347,26.544281134446347 0 0,0 -0.3764776851680727,0.2589447847654144 l -3.102520190619488 -4.594934359115056" fill="#ff4906" stroke="none" /><path d="M 111.7513745106137 117.40417183066458 l 3.2421521011920276 4.801733807337353 a26.79380684902339,26.79380684902339 0 0,0 -0.38445961527072314,0.25479886905937893 l -3.1590177871813405 -4.85683069748805" fill="#ff4d07" stroke="none" /><path d="M 111.45004920935366 117.60387380957326 l 14.316694117944754 22.011195935880675 a47.25757941994128,47.25757941994128 0 0,0 -0.6857259257365986,0.43766272980435694 l -13.935686390161226 -22.254373094508843" fill="#b2ff20" stroke="none" /><path d="M 111.1453310114006 117.79835938074945 l 5.03156800609988 8.035082630533077 a30.480465678409594,30.480465678409594 0 0,0 -0.44707702022378704,0.27463122108556565 l -4.8925117859437846 -8.120502318447022" fill="#ff7f0b" stroke="none" /><line stroke="#e1ed5e" stroke-width="0.3" x1="143.8653032363475" x2="146.44561519142675" y1="172.8068346515853" y2="177.08958963109032" /><path d="M 144.38136562736335 173.6633856474863 a86.0,86.0 0 0,1 -40.68145358897372,12.25698825130547" fill="none" id="id114" stroke="none" /><text fill="#e1ed5e" style="font-size:6.75px; font-family:Arial;" text-anchor="middle"><textPath startOffset="21.466115282336833" xlink:href="#id114">June</textPath></text><path d="M 110.8373102113329 117.98757091392108 l 0.4500787916581002 0.7470326145445144 a21.87214026732724,21.87214026732724 0 0,0 -0.324157751455529,0.1915181133022621 l -0.4371531691741891 -0.754669300140526" fill="#ff0701" stroke="none" /><path d="M 110.5260780823613 118.17145234162733 l 1.0234143873214845 1.766747844680274 a23.04175781003992,23.04175781003992 0 0,0 -0.3449145228518638,0.1958514677913819 l -0.9928510975484216 -1.7841024782662844" fill="#ff1802" stroke="none" /><path d="M 110.21172684928248 118.3499491758327 l 2.7896334825377522 5.012828229670643 a26.736767541663042,26.736767541663042 0 0,0 -0.40407810009974277,0.22033559832432045 l -2.7029325705693608 -5.060104479754734" fill="#ff4c07" stroke="none" /><path d="M 109.89434966115114 118.52300852407294 l 8.328895353661089 15.592353708472718 a38.67744302726953,38.67744302726953 0 0,0 -0.5899398508879804,0.3086286477053413 l -8.059264600246612 -15.733411775122777" fill="#ffe715" stroke="none" /><path d="M 109.57404056367764 118.69057910512821 l 6.9366392985920875 13.541806583308924 a36.215041580571544,36.215041580571544 0 0,0 -0.5572737699937161,0.27942863708854326 l -6.702511620915611 -13.65920306130677" fill="#ffc912" stroke="none" /><path d="M 109.2508944713604 118.85261126421891 l 13.738480910315806 27.997967198191148 a52.187048993999085,52.187048993999085 0 0,0 -0.8098618172188333,0.3887828874866235 l -13.25450642509674 -28.230304362177332" fill="#7dff26" stroke="none" /><path d="M 108.92500713936063 119.00905698771935 l 8.555104699509364 18.22121486622466 a41.12964201422106,41.12964201422106 0 0,0 -0.6434477963952665,0.29537532420359147 l -8.240188907346678 -18.365777260762325" fill="#f9ff18" stroke="none" /><path d="M 108.59647513512805 119.15986991738527 l 1.9705670492900016 4.392010415245594 a25.81382280348719,25.81382280348719 0 0,0 -0.40697252563251574,0.17840479541723378 l -1.894673848999732 -4.425279763957283" fill="#ff3f05" stroke="none" /><path d="M 108.2653958097858 119.30500536409082 l 4.507729125627995 10.528441341803333 a32.45284676217352,32.45284676217352 0 0,0 -0.5154262197971562,0.21544820167751544 l -4.325831446333378 -10.604474586500823" fill="#ff990e" stroke="none" /><path d="M 107.93186726928326 119.44442032107085 l 4.358286903396409 10.684036879643312 a32.538774145371555,32.538774145371555 0 0,0 -0.5204327831840067,0.20709094493748223 l -4.173733044170536 -10.757474668986863" fill="#ff9a0e" stroke="none" /><path d="M 107.59598834532513 119.57807347666477 l 1.3641588562947125 3.5160141259060484 a24.771377032169838,24.771377032169838 0 0,0 -0.39885429749293266,0.15081256670625362 l -1.303434338041505 -3.538974942718933" fill="#ff3104" stroke="none" /><path d="M 107.2578585660854 119.70592522655815 l 2.5935021614272964 7.041658252589577 a28.504079184522972,28.504079184522972 0 0,0 -0.4618752661311575,0.1656120376997779 l -2.4719073346664038 -7.085257831329315" fill="#ff6409" stroke="none" /><path d="M 106.91757812671514 119.82793768551818 l 1.6447268141877849 4.714300320725409 a25.992970439257576,25.992970439257576 0 0,0 -0.4237228815345624,0.1437498070695599 l -1.5633341997159955 -4.741913114693092" fill="#ff4206" stroke="none" /><path d="M 106.57524785965236 119.94407469862006 l 3.5789983003397174 10.855835547465345 a32.43059028517105,32.43059028517105 0 0,0 -0.5316742857755002,0.1702253165847514 l -3.3916026694732766 -10.915833710709801" fill="#ff980e" stroke="none" /><path d="M 106.2309692047433 120.05430185196036 l 3.9674715233824998 12.769260913438817 a34.37141931749683,34.37141931749683 0 0,0 -0.5665146852282675,0.17068622746845194 l -3.7470818637139867 -12.835662510012995" fill="#ffb110" stroke="none" /><path d="M 105.88484417918355 120.15858648285463 l 2.9804244077005007 10.209470522731298 a31.63561084303747,31.63561084303747 0 0,0 -0.5240496662030816,0.14810167025962118 l -2.8042435733928133 -10.259260986329439" fill="#ff8e0d" stroke="none" /><path d="M 105.53697534728816 120.25689768951611 l 4.742404963367329 17.349980110031698 a38.98644530347969,38.98644530347969 0 0,0 -0.6488635825891887,0.17137076959113504 l -4.4430509379666425 -17.429042228926416" fill="#ffeb16" stroke="none" /><path d="M 105.18746579009965 120.34920634021253 l 3.4301596183101917 13.455708177598952 a34.886038944486266,34.886038944486266 0 0,0 -0.5831728276086818,0.14332969250181057 l -3.1980335059582985 -13.512759128414793" fill="#ffb811" stroke="none" /><path d="M 104.83641907484287 120.43548508189849 l 3.5686875064672265 15.078896012074381 a36.49543918260363,36.49543918260363 0 0,0 -0.6125669976631436,0.1394182543212108 l -3.3086003594112205 -15.138090999973276" fill="#ffcc13" stroke="none" /><path d="M 104.48393922423573 120.51570834832081 l 2.8513501430024166 13.045999289330492 a34.35396177526398,34.35396177526398 0 0,0 -0.5787964290389124,0.12129241923737334 l -2.626362252534126 -13.093147689294407" fill="#ffb110" stroke="none" /><path d="M 104.13013068566511 120.58985236759428 l 2.027649429828594 10.108397431178208 a31.309755614801663,31.309755614801663 0 0,0 -0.5293322487190479,0.10144778528837552 l -1.8533495665378414 -10.141802414815052" fill="#ff8a0c" stroke="none" /><path d="M 103.7750983002368 120.6578951692458 l 0.22426494675165012 1.2272108940425377 a22.247534105665334,22.247534105665334 0 0,0 -0.37730867399730267,0.06559994934405682 l -0.20310730128229748 -1.2308894219076008" fill="#ff0d01" stroke="none" /><path d="M 103.41894727170886 120.7198165907248 l 0.6164458855184021 3.735841670253135 a24.786359533241964,24.786359533241964 0 0,0 -0.42156184271329356,0.0658392899746399 l -0.5520481791965914 -3.7458992675748806" fill="#ff3104" stroke="none" /><path d="M 103.06178313531738 120.77559828337769 l 2.3154477286382993 15.711371357907161 a36.88107326757615,36.88107326757615 0 0,0 -0.6288598982601294,0.08715425171441077 l -2.0446592391913394 -15.748900175114175" fill="#ffd113" stroke="none" /><path d="M 102.70371172650421 120.8252237178851 l 0.23531484424775345 1.8125025044496452 a22.82771398324781,22.82771398324781 0 0,0 -0.3901066925244849,0.04723648769290224 l -0.2040807286718883 -1.8162845208678984" fill="#ff1502" stroke="none" /><path d="M 102.34483914955558 120.86867818915974 l 1.9456231977678327 17.315722658109024 a38.424686533772785,38.424686533772785 0 0,0 -0.657917369675826,0.0681958254287251 l -1.647273231486404 -17.34664785199351" fill="#ffe415" stroke="none" /><path d="M 101.98527174616119 120.90594882070398 l 1.3463522858743313 14.177793059087467 a35.24157577320669,35.24157577320669 0 0,0 -0.6044025603077339,0.05215039609669231 l -1.1021054078250558 -14.198867707462822" fill="#ffbd11" stroke="none" /><path d="M 101.62511606390274 120.93702456842531 l 1.026671431638353 13.227021420421545 a34.266806318207585,34.266806318207585 0 0,0 -0.5884707822629281,0.04058439053684009 l -0.7988378885964946 -13.24273415547467" fill="#ffb010" stroke="none" /><path d="M 101.26447882468166 120.96189622390904 l 0.8868795527569334 14.702244739193608 a35.72896994742825,35.72896994742825 0 0,0 -0.6142183073484672,0.031748070638404395 l -0.6336731769949867 -14.715332616594216" fill="#ffc312" stroke="none" /><path d="M 100.90346689309514 120.98055641714683 l 0.9761617182160535 22.668695618859985 a43.68970367282553,43.68970367282553 0 0,0 -0.7516286084931934,0.025887609024057085 l -0.5858127580482079 -22.682140026310137" fill="#dbff1b" stroke="none" /><line stroke="#e1ed5e" stroke-width="0.3" x1="102.19456741930631" x2="102.32365962044197" y1="184.97166512339345" y2="189.96999836594603" /><path d="M 102.22038585953345 185.97133177190398 a86.0,86.0 0 0,1 -42.740103519485714,-10.115201625700543" fill="none" id="id115" stroke="none" /><text fill="#e1ed5e" style="font-size:6.75px; font-family:Arial;" text-anchor="middle"><textPath startOffset="22.20632615414155" xlink:href="#id115">July</textPath></text><path d="M 100.54218724476979 120.99299961872073 l 0.1955577453107262 7.5718189838439205 a28.574343902665774,28.574343902665774 0 0,0 -0.4918057010139557,0.008466881150830639 l -0.06519235440410252 -7.57406334227391" fill="#ff6509" stroke="none" /><path d="M 100.18074693466247 120.99922214144158 l 0.10904414775398784 12.668775192156662 a33.66924447216816,33.66924447216816 0 0,0 -0.5795821648328778,0.0 l 0.10904414775397911 -12.668775192156662" fill="#ffa80f" stroke="none" /><path d="M 99.81925306533755 120.99922214144158 l -0.06711431070395919 7.7973566853246 a28.7976455170056,28.7976455170056 0 0,0 -0.49564904409654875,-0.008533047787441586 l 0.20132304469317588 -7.795046160257999" fill="#ff6809" stroke="none" /><path d="M 99.45781275523022 120.99299961872073 l -0.15040168057315997 5.823417008395266 a26.82535890046154,26.82535890046154 0 0,0 -0.4614979157028681,-0.015894921337658196 l 0.2506199479506711 -5.819965288631514" fill="#ff4d07" stroke="none" /><path d="M 99.09653310690486 120.98055641714683 l -0.20492056154052 4.758721581601504 a25.763131693302423,25.763131693302423 0 0,0 -0.4428951398246081,-0.022892619800374474 l 0.286803769778617 -4.754489155038928" fill="#ff3e05" stroke="none" /><path d="M 98.73552117531835 120.96189622390904 l -0.07222624595190437 1.1973305070312437 a22.199506971081036,22.199506971081036 0 0,0 -0.381236614577122,-0.026292309013954924 l 0.09282562130795638 -1.1959098535010038" fill="#ff0c01" stroke="none" /><path d="M 98.37488393609728 120.93702456842531 l -0.7424412155873512 9.565169108004365 a30.593939702923084,30.593939702923084 0 0,0 -0.524694344127638,-0.045272835809991474 l 0.906979877456531 -9.550972019915712" fill="#ff800b" stroke="none" /><path d="M 98.01472825383883 120.90594882070398 l -1.1414159001502315 12.019705835143242 a33.07377979840995,33.07377979840995 0 0,0 -0.5662977677406024,-0.05869907907818292 l 1.3481462644964273 -11.998277387609297" fill="#ffa10e" stroke="none" /><path d="M 97.65516085044442 120.86867818915974 l -0.6488314907158361 5.774492285028528 a26.81082984204481,26.81082984204481 0 0,0 -0.4581748378831111,-0.055478592153366806 l 0.7481337516503366 -5.762468164149812" fill="#ff4d07" stroke="none" /><path d="M 97.2962882734958 120.8252237178851 l -0.8647184428276017 6.660456752225468 a27.71635482487577,27.71635482487577 0 0,0 -0.47259210568137805,-0.06549695957836174 l 0.9792391396958109 -6.644585227154501" fill="#ff5908" stroke="none" /><path d="M 96.93821686468263 120.77559828337769 l -1.544349864254067 10.479119836619548 a31.592307069446903,31.592307069446903 0 0,0 -0.5373161462415973,-0.08391773157827356 l 1.7245018741041813 -10.450983797694168" fill="#ff8d0d" stroke="none" /><path d="M 96.58105272829116 120.7198165907248 l -2.706177935679748 16.400226746148437 a37.621998566497425,37.621998566497425 0 0,0 -0.6380530230826248,-0.11093369667229469 l 2.9880799302344228 -16.351214470955135" fill="#ffda14" stroke="none" /><path d="M 96.22490169976321 120.6578951692458 l -4.4858083965203805 24.547005729315185 a45.95351612990292,45.95351612990292 0 0,0 -0.7769041166865487,-0.148895523010355 l 4.907680127778624 -24.46615300795636" fill="#c1ff1e" stroke="none" /><path d="M 95.86986931433489 120.58985236759428 l -2.7421140175618968 13.670202493270066 a34.94251144852736,34.94251144852736 0 0,0 -0.5887123290281137,-0.12337039249060325 l 2.977017808019397 -13.620976120052921" fill="#ffb911" stroke="none" /><path d="M 95.51606077576429 120.51570834832081 l -1.480971103230133 6.775999786513416 a27.935953324196504,27.935953324196504 0 0,0 -0.4688981263943212,-0.10671968696611066 l 1.5973893790173168 -6.749503365969618" fill="#ff5c08" stroke="none" /><path d="M 95.16358092515715 120.4354850818985 l -2.6897097600529563 11.364921613618641 a32.678869032445746,32.678869032445746 0 0,0 -0.5462766491498522,-0.13426150951619203 l 2.884939693946019 -11.316938845788417" fill="#ff9c0e" stroke="none" /><path d="M 94.81253420990036 120.34920634021253 l -1.1832451268093518 4.6415919084127495 a25.79003595752274,25.79003595752274 0 0,0 -0.4292316213042639,-0.11336397241195409 l 1.262967190925105 -4.620536586697214" fill="#ff3f05" stroke="none" /><line stroke="#e1ed5e" stroke-width="0.3" x1="58.666819895761336" x2="56.23545636021788" y1="174.27360380694188" y2="178.64263932499728" /><path d="M 58.180547188652646 175.14741091055294 a86.0,86.0 0 0,1 -31.652253787137756,-30.449443065178592" fill="none" id="id116" stroke="none" /><text fill="#e1ed5e" style="font-size:6.75px; font-family:Arial;" text-anchor="middle"><textPath startOffset="22.20632615414155" xlink:href="#id116">August</textPath></text><line stroke="#e1ed5e" stroke-width="0.3" x1="26.63291911575756" x2="22.317208475507996" y1="142.92168965132927" y2="145.44649492493687" /><path d="M 25.769776987707644 143.4266507060508 a86.0,86.0 0 0,1 -11.730757126820373,-40.83630448921669" fill="none" id="id117" stroke="none" /><text fill="#e1ed5e" style="font-size:6.75px; font-family:Arial;" text-anchor="middle"><textPath startOffset="21.46611528233685" xlink:href="#id117">September</textPath></text><line stroke="#e1ed5e" stroke-width="0.3" x1="15.007084014347285" x2="10.007500721073583" y1="101.09737516637583" y2="101.16192664675087" /><path d="M 14.007167355692545 101.11028546245083 a86.0,86.0 0 0,1 10.666146001902534,-42.60595125391555" fill="none" id="id118" stroke="none" /><text fill="#e1ed5e" style="font-size:6.75px; font-family:Arial;" text-anchor="middle"><textPath startOffset="22.20632615414155" xlink:href="#id118">October</textPath></text><line stroke="#e1ed5e" stroke-width="0.3" x1="26.266209847984243" x2="21.928928074336255" y1="57.711370442889674" y2="55.22380399835377" /><path d="M 25.398753493254645 57.213857153982495 a86.0,86.0 0 0,1 29.58750427330803,-30.492523968695096" fill="none" id="id119" stroke="none" /><text fill="#e1ed5e" style="font-size:6.75px; font-family:Arial;" text-anchor="middle"><textPath startOffset="21.46611528233685" xlink:href="#id119">November</textPath></text><line stroke="#e1ed5e" stroke-width="0.3" x1="56.762969772571076" x2="54.21961505331055" y1="26.818313649435495" y2="22.513508569990535" /><path d="M 56.25429882871897 25.957352633546506 a86.0,86.0 0 0,1 42.265352541879196,-11.944610805530505" fill="none" id="id120" stroke="none" /><text fill="#e1ed5e" style="font-size:6.75px; font-family:Arial;" text-anchor="middle"><textPath startOffset="22.20632615414155" xlink:href="#id120">December</textPath></text></svg>