<?xml version="1.0" encoding="utf-8" ?>
<svg baseProfile="full" height="200mm" version="1.1" viewBox="0,0,200,200" width="200mm" xmlns="http://www.w3.org/2000/svg" xmlns:ev="http://www.w3.org/2001/xml-events" xmlns:xlink="http://www.w3.org/1999/xlink"><defs /><rect fill="#1a1a1a" height="200" width="200" x="0" y="0" /><text alignment-baseline="middle" fill="#e1ed5e" style="dominant-baseline: central; font-size:9.0px; font-family:Arial;" text-anchor="middle" x="100.0" y="100.0">2026</text><line stroke="#e1ed5e" stroke-width="0.3" x1="100.0" x2="100.0" y1="15.0" y2="10.0" /><path d="M 100.0 14.0 a86.0,86.0 0 0,1 42.46469731375804,11.215312516191453" fill="none" id="id121" stroke="none" /><text fill="#e1ed5e" style="font-size:6.75px; font-family:Arial;" text-anchor="middle"><textPath startOffset="22.20632615414155" xlink:href="#id121">January</textPath></text><path d="M 100.36148047927253 79.00311137660856 l 0.22434101058720662 -13.031030672633728 a34.03296164653884,34.03296164653884 0 0,0 0.5856478983092263,0.015125557383726153 l -0.4486155440913007 13.025238323107642" fill="#ff850c" stroke="none" /><path d="M 101.08401301168833 79.027996857942 l 1.0380277272430172 -20.082342667989078 a41.109151861703666,41.109151861703666 0 0,0 0.7063686729389717,0.04261008736085117 l -1.3835584490216006 20.061499311247925" fill="#ffe515" stroke="none" /><path d="M 101.80526077348638 79.07773832637324 l 0.9187930377259996 -10.648449598827373 a31.68801475976435,31.68801475976435 0 0,0 0.5430342992586982,0.05156764999094964 l -1.101952464074942 10.631056404321244" fill="#ff6309" stroke="none" /><path d="M 102.52436894288641 79.15227682838746 l 4.118673491482119 -34.014427655926816 a55.26287728854243,55.26287728854243 0 0,0 0.9433775032486056,0.12247747503730053 l -4.7035657232385715 33.938491857725374" fill="#6fff27" stroke="none" /><path d="M 102.88285421437855 79.19881850522331 l 3.3264796491244133 -24.002152649621188 a45.23156616217277,45.23156616217277 0 0,0 0.7702957677803124,0.1135215727040275 l -3.7391443973333818 23.941336592756194" fill="#e5ff1a" stroke="none" /><path d="M 103.2404852339499 79.25152402106235 l 1.8656372609687941 -11.945473316488028 a33.09028267429851,33.09028267429851 0 0,0 0.5620160662157654,0.09273746646507894 l -2.0709825333234346 11.911589587083325" fill="#ff770b" stroke="none" /><path d="M 104.307194497241 79.44645832069477 l 2.5279768973791557 -12.063276584766653 a33.325311726453904,33.325311726453904 0 0,0 0.5604322050499501,0.12248877319188771 l -2.7352518265826333 12.017974313478895" fill="#ff7b0b" stroke="none" /><path d="M 107.4271985657038 80.35727306442388 l 1.9988883281330416 -5.286463968464935 a26.6517480338586,26.6517480338586 0 0,0 0.4277184652189225,0.16594811949989455 l -2.089589958351631 5.251273145074494" fill="#ff1902" stroke="none" /><path d="M 107.76421540070413 80.48803036053334 l 4.241144814841754 -10.65826804035716 a32.47109353813131,32.47109353813131 0 0,0 0.5175523228246109,0.211122587445074 l -4.423981007254753 10.583684566728508" fill="#ff6f0a" stroke="none" /><path d="M 108.76106565485865 80.91482961587045 l 10.706093103729406 -23.3222326007471 a46.66216988154106,46.66216988154106 0 0,0 0.7270894615847567,0.3413782514193187 l -11.105960776613761 23.134489366687777" fill="#d3ff1c" stroke="none" /><path d="M 109.41281617654863 81.2277094730956 l 6.152093776769262 -12.26932403227056 a34.725325863053854,34.725325863053854 0 0,0 0.5320242576905011,0.27252348872335325 l -6.362378522048519 12.161608018234707" fill="#ff8e0d" stroke="none" /><path d="M 109.73455568895987 81.39251694778311 l 6.5032498309125195 -12.430881786446164 a35.02922237160217,35.02922237160217 0 0,0 0.5318686223546024,0.28410579828497745 l -6.716263499795433 12.317097261659434" fill="#ff930d" stroke="none" /><line stroke="#e1ed5e" stroke-width="0.3" x1="143.23703022742887" x2="145.7803849466894" y1="26.81831364943548" y2="22.513508569990506" /><path d="M 143.74570117128098 25.957352633546492 a86.0,86.0 0 0,1 28.547481713284135,27.462654790039103" fill="none" id="id122" stroke="none" /><text fill="#e1ed5e" style="font-size:6.75px; font-family:Arial;" text-anchor="middle"><textPath startOffset="19.985693538727396" xlink:href="#id122">February</textPath></text><path d="M 110.68208982089419 81.91981866633111 l 5.30216178052591 -8.974278260125354 a31.423559365064712,31.423559365064712 0 0,0 0.46332980923266875,0.2791510258300632 l -5.455853655976216 8.881680624836678" fill="#ff6008" stroke="none" /><path d="M 111.2981086023043 82.29822771554956 l 6.278632013946943 -9.837302692070178 a32.670207548367365,32.670207548367365 0 0,0 0.47143572198222017,0.3066349074149865 l -6.447034761713444 9.727768860495663" fill="#ff710a" stroke="none" /><path d="M 111.60114157652 82.49532879139004 l 34.803424729560035 -52.514013625829904 a84.0,84.0 0 0,0 1.1983812223738326,0.8091523508053196 l -35.70221064634041 51.90714936272591" fill="#4dd2ff" stroke="none" /><path d="M 111.90073688211348 82.69761687909136 l 22.609614714846032 -32.871932207858855 a60.89684955772637,60.89684955772637 0 0,0 0.8585552786429475,0.6014728393427036 l -23.172101133072633 32.47787452575222" fill="#33ff2f" stroke="none" /><path d="M 112.77801427241765 83.33499621200491 l 7.13125471932666 -9.300536403944028 a32.71984518980549,32.71984518980549 0 0,0 0.444004318062756,0.3465524129277753 l -7.290291592548846 9.176405601793029" fill="#ff720a" stroke="none" /><path d="M 113.34407831869373 83.78471172551755 l 2.5490870761548994 -3.0975673845307257 a25.011579317865777,25.011579317865777 0 0,0 0.3300843188902724,0.27643612435377773 l -2.602028932004289 3.053230102783129" fill="#ff0000" stroke="none" /><path d="M 113.89432698308785 84.25364557470407 l 16.861970641348357 -19.10956654113509 a46.48532101621959,46.48532101621959 0 0,0 0.5954305043541084,0.53458338586164 l -17.188412133298456 18.816484146504152" fill="#d5ff1c" stroke="none" /><path d="M 114.16331599549186 84.49514656593476 l 7.129371919377049 -7.804660061391418 a31.570745604671426,31.570745604671426 0 0,0 0.39808021613502315,0.369972176548278 l -7.262660019306919 7.6807832987685" fill="#ff6209" stroke="none" /><path d="M 114.42810811169701 84.74124197986012 l 5.9824046663009565 -6.3268215399382175 a29.707343819420803,29.707343819420803 0 0,0 0.36853623108219913,0.3545315623102024 l -6.090424140995574 6.222906890865714" fill="#ff4706" stroke="none" /><path d="M 114.68862486808459 84.99185889309783 l 6.140882413879349 -6.274462763947862 a29.779482888944024,29.779482888944024 0 0,0 0.3632589240798693,0.36169897481656443 l -6.247977138126541 6.167827938481179" fill="#ff4806" stroke="none" /><path d="M 114.94478906791727 85.2469230424477 l 4.7669935459989645 -4.705842439171934 a27.698446128014126,27.698446128014126 0 0,0 0.3320327966816859,0.3421889834872936 l -4.847290606383759 4.623089260134527" fill="#ff2904" stroke="none" /><line stroke="#e1ed5e" stroke-width="0.3" x1="172.23445277983987" x2="176.4835382374775" y1="55.19839476539836" y2="52.563006222186495" /><path d="M 173.08426987136738 54.67131705675599 a86.0,86.0 0 0,1 12.851231095245387,41.99856678651699" fill="none" id="id123" stroke="none" /><text fill="#e1ed5e" style="font-size:6.75px; font-family:Arial;" text-anchor="middle"><textPath startOffset="22.20632615414155" xlink:href="#id123">March</textPath></text><line stroke="#e1ed5e" stroke-width="0.3" x1="184.98032266829074" x2="189.97916517819016" y1="98.17113171792111" y2="98.06355123074" /><path d="M 185.9800911702706 98.14961562048488 a86.0,86.0 0 0,1 -9.607161424134198,41.387399972396054" fill="none" id="id124" stroke="none" /><text fill="#e1ed5e" style="font-size:6.75px; font-family:Arial;" text-anchor="middle"><textPath startOffset="21.466115282336823" xlink:href="#id124">April</textPath></text><line stroke="#e1ed5e" stroke-width="0.3" x1="174.80103733775053" x2="179.2010983576182" y1="140.37084112569926" y2="142.7455964860345" /><path d="M 175.68104954172406 140.8457921977663 a86.0,86.0 0 0,1 -30.038265399797805,32.042727171017184" fill="none" id="id125" stroke="none" /><text fill="#e1ed5e" style="font-size:6.75px; font-family:Arial;" text-anchor="middle"><textPath startOffset="22.206326154141568" xlink:href="#id125">May</textPath></text><line stroke="#e1ed5e" stroke-width="0.3" x1="143.8653032363475" x2="146.44561519142675" y1="172.8068346515853" y2="177.08958963109032" /><path d="M 144.38136562736335 173.6633856474863 a86.0,86.0 0 0,1 -40.68145358897372,12.25698825130547" fill="none" id="id126" stroke="none" /><text fill="#e1ed5e" style="font-size:6.75px; font-family:Arial;" text-anchor="middle"><textPath startOffset="21.466115282336833" xlink:href="#id126">June</textPath></text><line stroke="#e1ed5e" stroke-width="0.3" x1="102.19456741930631" x2="102.32365962044197" y1="184.97166512339345" y2="189.96999836594603" /><path d="M 102.22038585953345 185.97133177190398 a86.0,86.0 0 0,1 -42.740103519485714,-10.115201625700543" fill="none" id="id127" stroke="none" /><text fill="#e1ed5e" style="font-size:6.75px; font-family:Arial;" text-anchor="middle"><textPath startOffset="22.20632615414155" xlink:href="#id127">July</textPath></text><line stroke="#e1ed5e" stroke-width="0.3" x1="58.666819895761336" x2="56.23545636021788" y1="174.27360380694188" y2="178.64263932499728" /><path d="M 58.180547188652646 175.14741091055294 a86.0,86.0 0 0,1 -31.652253787137756,-30.449443065178592" fill="none" id="id128" stroke="none" /><text fill="#e1ed5e" style="font-size:6.75px; font-family:Arial;" text-anchor="middle"><textPath startOffset="22.20632615414155" xlink:href="#id128">August</textPath></text><line stroke="#e1ed5e" stroke-width="0.3" x1="26.63291911575756" x2="22.317208475507996" y1="142.92168965132927" y2="145.44649492493687" /><path d="M 25.769776987707644 143.4266507060508 a86.0,86.0 0 0,1 -11.730757126820373,-40.83630448921669" fill="none" id="id129" stroke="none" /><text fill="#e1ed5e" style="font-size:6.75px; font-family:Arial;" text-anchor="middle"><textPath startOffset="21.46611528233685" xlink:href="#id129">September</textPath></text><line stroke="#e1ed5e" stroke-width="0.3" x1="15.007084014347285" x2="10.007500721073583" y1="101.09737516637583" y2="101.16192664675087" /><path d="M 14.007167355692545 101.11028546245083 a86.0,86.0 0 0,1 10.666146001902534,-42.60595125391555" fill="none" id="id130" stroke="none" /><text fill="#e1ed5e" style="font-size:6.75px; font-family:Arial;" text-anchor="middle"><textPath startOffset="22.20632615414155" xlink:href="#id130">October</textPath></text><line stroke="#e1ed5e" stroke-width="0.3" x1="26.266209847984243" x2="21.928928074336255" y1="57.711370442889674" y2="55.22380399835377" /><path d="M 25.398753493254645 57.213857153982495 a86.0,86.0 0 0,1 29.58750427330803,-30.492523968695096" fill="none" id="id131" stroke="none" /><text fill="#e1ed5e" style="font-size:6.75px; font-family:Arial;" text-anchor="middle"><textPath startOffset="21.46611528233685" xlink:href="#id131">November</textPath></text><line stroke="#e1ed5e" stroke-width="0.3" x1="56.762969772571076" x2="54.21961505331055" y1="26.818313649435495" y2="22.513508569990535" /><path d="M 56.25429882871897 25.957352633546506 a86.0,86.0 0 0,1 42.265352541879196,-11.944610805530505" fill="none" id="id132" stroke="none" /><text fill="#e1ed5e" style="font-size:6.75px; font-family:Arial;" text-anchor="middle"><textPath startOffset="22.20632615414155" xlink:href="#id132">December</textPath></text></svg>