<?xml version="1.0" encoding="utf-8" ?>
<svg baseProfile="full" height="200mm" version="1.1" viewBox="0,0,200,200" width="200mm" xmlns="http://www.w3.org/2000/svg" xmlns:ev="http://www.w3.org/2001/xml-events" xmlns:xlink="http://www.w3.org/1999/xlink"><defs /><rect fill="#1a1a1a" height="200" width="200" x="0" y="0" /><text alignment-baseline="middle" fill="#e1ed5e" style="dominant-baseline: central; font-size:9.0px; font-family:Arial;" text-anchor="middle" x="100.0" y="100.0">2024</text><line stroke="#e1ed5e" stroke-width="0.3" x1="100.0" x2="100.0" y1="15.0" y2="10.0" /><path d="M 100.0 14.0 a86.0,86.0 0 0,1 42.35913384403234,11.155469271406648" fill="none" id="id97" stroke="none" /><text fill="#e1ed5e" style="font-size:6.75px; font-family:Arial;" text-anchor="middle"><textPath startOffset="22.145653131862478" xlink:href="#id97">January</textPath></text><path d="M 100.36049292484886 79.00309439819443 l 0.2661311639076727 -15.5008060937976 a36.50309050976339,36.50309050976339 0 0,0 0.6264394197614,0.01613485731945286 l -0.5321838977398141 15.493953519128102" fill="#ffab0f" stroke="none" /><path d="M 101.08105385017728 79.02784411241856 l 0.8243554366601122 -15.992275242880895 a37.01350771473921,37.01350771473921 0 0,0 0.6342628475494086,0.038155677894981796 l -1.0987626363419831 15.975767587161222" fill="#ffb210" stroke="none" /><path d="M 101.44090949804482 79.04949213459386 l 0.6622075077228493 -9.628351827719754 a30.65109722786165,30.65109722786165 0 0,0 0.5246168898977318,0.04060866518718248 l -0.8273933923958146 9.61556539553752" fill="#ff5908" stroke="none" /><path d="M 101.80034050326958 79.07731436759882 l 1.300002711093758 -15.108002067435088 a36.16382977741685,36.16382977741685 0 0,0 0.6180578236564276,0.0585307184925601 l -1.5591600981351983 15.083459593437343" fill="#ffa70f" stroke="none" /><path d="M 102.87502721639298 79.19773525538626 l 1.9220542841068091 -13.907027329526223 a35.039220128455945,35.039220128455945 0 0,0 0.595124292328867,0.08746277674180267 l -2.160503682043358 13.871983479485536" fill="#ff970e" stroke="none" /><path d="M 103.23170211078529 79.25015418208739 l 2.097236412074314 -13.465762221407108 a34.62810158355173,34.62810158355173 0 0,0 0.586571179039664,0.09652006429446504 l -2.3280850941670486 13.427776158616975" fill="#ff920d" stroke="none" /><path d="M 103.58742460773223 79.30868818359171 l 3.1411351352655648 -18.11723273603271 a39.38751891772175,39.38751891772175 0 0,0 0.6652088043674619,0.12122320342691549 l -3.4516786731840803 18.06064135867443" fill="#ffd213" stroke="none" /><path d="M 103.94208987418118 79.37332000966035 l 7.948223611854798 -41.58846453683258 a63.34116957661216,63.34116957661216 0 0,0 1.0662536217100966,0.2132805865163046 l -8.660973719095852 41.44589455365342" fill="#32ff4b" stroke="none" /><path d="M 104.9986988182912 79.60360301121754 l 1.7218234977114673 -7.025627444372106 a28.23354112066738,28.23354112066738 0 0,0 0.4697452295744928,0.11940740043340525 l -1.8421740205113546 6.995034812103433" fill="#ff3605" stroke="none" /><path d="M 105.3480935250658 79.69241777938227 l 5.122861027000553 -19.452337739238 a41.11559466243402,41.11559466243402 0 0,0 0.6809889778678487,0.18560657414135692 l -5.4560314058030945 19.3615306709525" fill="#ffe815" stroke="none" /><path d="M 105.69591212413111 79.78721728523813 l 4.08378828219507 -14.491923927581917 a36.05633374552434,36.05633374552434 0 0,0 0.5943113769638348,0.17299538024736005 l -4.33195967154051 14.41968485303204" fill="#ffa50f" stroke="none" /><path d="M 106.04205211174951 79.88797359093562 l 4.493961650155992 -14.958936751554948 a36.6193943560592,36.6193943560592 0 0,0 0.6004872126227022,0.18603247344563903 l -4.750089495650324 14.879587690302662" fill="#ffad10" stroke="none" /><path d="M 106.38641147887787 79.99465700312896 l 1.846182939219728 -5.783141762195312 a27.070677069875607,27.070677069875607 0 0,0 0.4414805415672873,0.1451234229309533 l -1.9451862184347577 5.750597417862337" fill="#ff2503" stroke="none" /><path d="M 106.72888874123014 80.10723608172694 l 6.3036667375105395 -18.635670621274578 a40.672936584105415,40.672936584105415 0 0,0 0.6594714352793764,0.22939839814570312 l -6.622643944834934 18.524713790560284" fill="#ffe315" stroke="none" /><path d="M 107.06938296918511 80.22567764915836 l 2.6525255968207073 -7.41958618227715 a28.879476578937656,28.879476578937656 0 0,0 0.465387055660149,0.1708965731208135 l -2.779501804134981 7.372958760147614" fill="#ff4006" stroke="none" /><path d="M 107.74402155503746 80.48000691201159 l 5.531947271910363 -13.944120860635207 a36.001364844413274,36.001364844413274 0 0,0 0.5724997705165311,0.2328306726861685 l -5.770501503617335 13.847102931369745" fill="#ffa40f" stroke="none" /><path d="M 108.07796709384702 80.6158196554323 l 4.740990076901467 -11.376650287726989 a33.32498108227825,33.32498108227825 0 0,0 0.5261616594044014,0.22458712489348784 l -4.9355868114762975 11.293588513174099" fill="#ff7f0b" stroke="none" /><path d="M 108.73861861582097 80.90454125486305 l 6.780295990381592 -14.8161703875877 a37.293904340925025,37.293904340925025 0 0,0 0.5798514605289757,0.27139976194419996 l -7.033636164782073 14.697594394072967" fill="#ffb610" stroke="none" /><path d="M 109.06512990194946 81.05736502329252 l 7.073049954908901 -14.779954056592587 a37.38520911003654,37.38520911003654 0 0,0 0.576515085689511,0.28200241795009967 l -7.325725289860479 14.656357888545266" fill="#ffb711" stroke="none" /><path d="M 109.3889696526874 81.21577127319529 l 8.073007181530969 -16.151422256180105 a39.05662996936252,39.05662996936252 0 0,0 0.5971438426079964,0.3049059008539749 l -8.349078245852544 16.010458403653296" fill="#ffce13" stroke="none" /><path d="M 109.71004243097381 81.37971332152246 l 7.359010369747987 -14.111872705880053 a36.91540087113802,36.91540087113802 0 0,0 0.5593758774723191,0.29783614778241096 l -7.6001750630068665 13.98346609037507" fill="#ffb110" stroke="none" /><path d="M 110.02825361518725 81.54914285379988 l 8.624632186757973 -15.868351811066503 a39.060699586578565,39.060699586578565 0 0,0 0.5863863123503573,0.32525860275460533 l -8.89576268726443 15.717960292878752" fill="#ffce13" stroke="none" /><path d="M 110.34350942703115 81.72400993836675 l 7.535721584397675 -13.314897980734674 a36.29946430548891,36.29946430548891 0 0,0 0.5396650556574423,0.31157576515605867 l -7.763179107915515 13.183575318302443" fill="#ffa90f" stroke="none" /><line stroke="#e1ed5e" stroke-width="0.3" x1="143.13028292997686" x2="145.6673583964461" y1="26.7553504044142" y2="22.446841604673864" /><path d="M 143.63769802327073 25.89364864446614 a86.0,86.0 0 0,1 29.32050498858742,28.57503671076993" fill="none" id="id98" stroke="none" /><text fill="#e1ed5e" style="font-size:6.75px; font-family:Arial;" text-anchor="middle"><textPath startOffset="20.669276256404974" xlink:href="#id98">February</textPath></text><path d="M 110.65571695917076 81.90426304109057 l 6.81726838766946 -11.577212119488909 a34.43528893359418,34.43528893359418 0 0,0 0.5068009441835354,0.304319405408353 l -7.01500208841043 11.458478713544634" fill="#ff8f0d" stroke="none" /><path d="M 110.96478420261332 82.08984904055464 l 3.9889001383874003 -6.515568598572467 a28.63963078144033,28.63963078144033 0 0,0 0.417096496722989,0.2602990622786647 l -4.100160763900102 6.446133739452256" fill="#ff3c05" stroke="none" /><path d="M 111.8722381534696 82.67804972795209 l 3.8019669310913113 -5.547183375620527 a27.725042449521982,27.725042449521982 0 0,0 0.3902694593092647,0.2724383924515138 l -3.8966314815743366 5.481100167363886" fill="#ff2f04" stroke="none" /><path d="M 112.16784306229584 82.88440491214696 l 22.22216847998587 -31.258262925502006 a59.35236333099553,59.35236333099553 0 0,0 0.8253341510397368,0.5974782773979743 l -22.755483641399575 30.872183876730954" fill="#42ff2d" stroke="none" /><path d="M 113.03279911837588 83.53348406188908 l 7.89068612083071 -9.969624145291162 a33.71441438115979,33.71441438115979 0 0,0 0.45072837454448433,0.3630748731454924 l -8.060665265730455 9.83270097835226" fill="#ff850c" stroke="none" /><path d="M 113.31354834802062 83.75963576809568 l 8.435288495057398 -10.28968040524609 a34.3053228009302,34.3053228009302 0 0,0 0.4522187536266051,0.3772569679926259 l -8.610681582845894 10.143361253341595" fill="#ff8d0d" stroke="none" /><path d="M 113.59037401385872 83.9905735841838 l 7.565574496996457 -8.912227734095346 a32.69041148351851,32.69041148351851 0 0,0 0.42469595560474704,0.3668422513444683 l -7.717449932364064 8.781041350286158" fill="#ff760a" stroke="none" /><path d="M 114.39649973595853 84.71141617570332 l 43.18949920787558 -45.86575147289004 a84.0,84.0 0 0,0 1.0413100565387516,0.9975514787776794 l -43.97048175027964 45.117587863806776" fill="#4dd2ff" stroke="none" /><path d="M 114.65682725009322 84.96080404539774 l 2.5312120464953254 -2.597246547314727 a24.62666845077701,24.62666845077701 0 0,0 0.30022029065140254,0.2976543206799246 l -2.5754242572766906 2.553412216406143" fill="#ff0000" stroke="none" /><line stroke="#e1ed5e" stroke-width="0.3" x1="172.87174338648825" x2="177.1583165268699" y1="56.24261187166439" y2="53.66864786411523" /><path d="M 173.72905801456457 55.72781907015455 a86.0,86.0 0 0,1 12.242430191666344,42.057860355516425" fill="none" id="id99" stroke="none" /><text fill="#e1ed5e" style="font-size:6.75px; font-family:Arial;" text-anchor="middle"><textPath startOffset="22.145653131862474" xlink:href="#id99">March</textPath></text><line stroke="#e1ed5e" stroke-width="0.3" x1="184.99686870605535" x2="189.99668451229388" y1="99.2704041080226" y2="99.22748670261217" /><path d="M 185.99683186730306 99.26182062694052 a86.0,86.0 0 0,1 -10.086455211305974,41.156179273409016" fill="none" id="id100" stroke="none" /><text fill="#e1ed5e" style="font-size:6.75px; font-family:Arial;" text-anchor="middle"><textPath startOffset="21.40746469413373" xlink:href="#id100">April</textPath></text><line stroke="#e1ed5e" stroke-width="0.3" x1="174.33088141563837" x2="178.70328620479359" y1="141.23008692659167" y2="143.65538615756765" /><path d="M 175.20536237346943 141.71514677278685 a86.0,86.0 0 0,1 -30.301960400862466,31.631185727798858" fill="none" id="id101" stroke="none" /><text fill="#e1ed5e" style="font-size:6.75px; font-family:Arial;" text-anchor="middle"><textPath startOffset="22.145653131862474" xlink:href="#id101">May</textPath></text><line stroke="#e1ed5e" stroke-width="0.3" x1="143.1302829299769" x2="145.66735839644613" y1="173.24464959558577" y2="177.55315839532614" /><path d="M 143.63769802327073 174.10635135553383 a86.0,86.0 0 0,1 -40.68552437913181,11.842963189579606" fill="none" id="id102" stroke="none" /><text fill="#e1ed5e" style="font-size:6.75px; font-family:Arial;" text-anchor="middle"><textPath startOffset="21.407464694133747" xlink:href="#id102">June</textPath></text><line stroke="#e1ed5e" stroke-width="0.3" x1="101.45913802915013" x2="101.54496967792366" y1="184.9874750549273" y2="189.98673829345242" /><path d="M 101.47630435890484 185.9873277026323 a86.0,86.0 0 0,1 -42.54439059252881,-10.42667462771756" fill="none" id="id103" stroke="none" /><text fill="#e1ed5e" style="font-size:6.75px; font-family:Arial;" text-anchor="middle"><textPath startOffset="22.145653131862474" xlink:href="#id103">July</textPath></text><line stroke="#e1ed5e" stroke-width="0.3" x1="58.13341422392154" x2="55.67067388415222" y1="173.97424548756322" y2="178.32567169271397" /><path d="M 57.64086615596768 174.84453072859336 a86.0,86.0 0 0,1 -31.369924170532247,-30.572349798747897" fill="none" id="id104" stroke="none" /><text fill="#e1ed5e" style="font-size:6.75px; font-family:Arial;" text-anchor="middle"><textPath startOffset="22.145653131862474" xlink:href="#id104">August</textPath></text><line stroke="#e1ed5e" stroke-width="0.3" x1="26.387840678322732" x2="22.057713659400548" y1="142.50000000000003" y2="145.00000000000006" /><path d="M 25.521815274538298 143.00000000000003 a86.0,86.0 0 0,1 -11.493303480769221,-40.785679425670985" fill="none" id="id105" stroke="none" /><text fill="#e1ed5e" style="font-size:6.75px; font-family:Arial;" text-anchor="middle"><textPath startOffset="21.40746469413373" xlink:href="#id105">September</textPath></text><line stroke="#e1ed5e" stroke-width="0.3" x1="15.003131293944662" x2="10.003315487706104" y1="100.72959589197737" y2="100.7725132973878" /><path d="M 14.003168132696942 100.73817937305945 a86.0,86.0 0 0,1 10.791469493833604,-42.45332614584628" fill="none" id="id106" stroke="none" /><text fill="#e1ed5e" style="font-size:6.75px; font-family:Arial;" text-anchor="middle"><textPath startOffset="22.145653131862435" xlink:href="#id106">October</textPath></text><line stroke="#e1ed5e" stroke-width="0.3" x1="26.387840678322718" x2="22.05771365940052" y1="57.49999999999999" y2="54.99999999999999" /><path d="M 25.521815274538284 56.99999999999999 a86.0,86.0 0 0,1 29.574782752854787,-30.34633250058573" fill="none" id="id107" stroke="none" /><text fill="#e1ed5e" style="font-size:6.75px; font-family:Arial;" text-anchor="middle"><textPath startOffset="21.40746469413373" xlink:href="#id107">November</textPath></text><line stroke="#e1ed5e" stroke-width="0.3" x1="56.869717070023135" x2="54.33264160355391" y1="26.7553504044142" y2="22.446841604673864" /><path d="M 56.362301976729285 25.89364864446614 a86.0,86.0 0 0,1 42.16139366436587,-11.88097634709845" fill="none" id="id108" stroke="none" /><text fill="#e1ed5e" style="font-size:6.75px; font-family:Arial;" text-anchor="middle"><textPath startOffset="22.145653131862474" xlink:href="#id108">December</textPath></text></svg>