<?xml version="1.0" encoding="utf-8" ?>
<svg baseProfile="full" height="200mm" version="1.1" viewBox="0,0,200,200" width="200mm" xmlns="http://www.w3.org/2000/svg" xmlns:ev="http://www.w3.org/2001/xml-events" xmlns:xlink="http://www.w3.org/1999/xlink"><defs /><rect fill="#1a1a1a" height="200" width="200" x="0" y="0" /><text alignment-baseline="middle" fill="#e1ed5e" style="dominant-baseline: central; font-size:9.0px; font-family:Arial;" text-anchor="middle" x="100.0" y="100.0">2022</text><line stroke="#e1ed5e" stroke-width="0.3" x1="100.0" x2="100.0" y1="15.0" y2="10.0" /><path d="M 100.0 14.0 a86.0,86.0 0 0,1 42.46469731375804,11.215312516191453" fill="none" id="id73" stroke="none" /><text fill="#e1ed5e" style="font-size:6.75px; font-family:Arial;" text-anchor="middle"><textPath startOffset="22.20632615414155" xlink:href="#id73">January</textPath></text><path d="M 100.36148047927253 79.00311137660856 l 0.047686442360556414 -2.7699059188629125 a23.770316371127457,23.770316371127457 0 0,0 0.4090456766436595,0.010564443025409716 l -0.09535875419908368 2.768674683695143" fill="#ff2203" stroke="none" /><path d="M 101.80526077348638 79.07773832637324 l 0.2395987802118131 -2.776855537935485 a23.78717316542083,23.78717316542083 0 0,0 0.4076383771327702,0.038710175735781976 l -0.28736228443482753 2.772319817684525" fill="#ff2203" stroke="none" /><path d="M 102.52436894288641 79.15227682838746 l 0.3340901375857616 -2.759112816048982 a23.779266045508745,23.779266045508745 0 0,0 0.40592936400992186,0.052701281699242146 l -0.3815342301035296 2.7529532111856034" fill="#ff2203" stroke="none" /><path d="M 103.59715602781102 79.31037775812273 l 0.46778256114293293 -2.690526740168851 a23.730888987870628,23.730888987870628 0 0,0 0.4018485668882018,0.0734352570474206 l -0.5140262491340356 2.6820760017706915" fill="#ff2103" stroke="none" /><path d="M 105.71112130821622 79.79150937346287 l 1.5075267952142477 -5.33430117593771 a26.54323065313896,26.54323065313896 0 0,0 0.4386076518982193,0.12804160100282239 l -1.599124664835894 5.307561246016184" fill="#ff4906" stroke="none" /><path d="M 106.0581310904928 79.89281104454417 l 0.7989230664764196 -2.6516588727707537 a23.76939936514977,23.76939936514977 0 0,0 0.3907402067966794,0.12140488427759359 l -0.8444486459838173 2.6375138536106393" fill="#ff2203" stroke="none" /><path d="M 108.09893153111575 80.62456947434976 l 0.9552382554221993 -2.285258540866611 a23.476870348489367,23.476870348489367 0 0,0 0.371511682526379,0.1590619140542584 l -0.9944336957388936 2.2684770988495617" fill="#ff1e03" stroke="none" /><path d="M 108.43124777332544 80.76684994638697 l 0.2238503985820343 -0.5106418908848228 a21.557551918364346,21.557551918364346 0 0,0 0.33857457641701555,0.15190854322629874 l -0.23260709346583006 0.5067130171419928" fill="#ff0200" stroke="none" /><path d="M 109.41281617654863 81.2277094730956 l 0.5873220804110391 -1.171315844222147 a22.31031600504008,22.31031600504008 0 0,0 0.3418147711048751,0.17509080191765508 l -0.6073973391046698 1.1610325169919913" fill="#ff0d01" stroke="none" /><path d="M 109.73455568895987 81.39251694778311 l 0.7464622700359076 -1.4268534160799093 a22.610315680717935,22.610315680717935 0 0,0 0.34330529306454827,0.18338179813986843 l -0.770912609628767 1.413792891438287" fill="#ff1101" stroke="none" /><path d="M 110.05341064243156 81.56283822128135 l 0.7926715090485251 -1.4536969959255495 a22.6557666131494,22.6557666131494 0 0,0 0.3407814722238067,0.18964452033627696 l -0.8175770703443669 1.4398370780290926" fill="#ff1202" stroke="none" /><line stroke="#e1ed5e" stroke-width="0.3" x1="143.23703022742887" x2="145.7803849466894" y1="26.81831364943548" y2="22.513508569990506" /><path d="M 143.74570117128098 25.957352633546492 a86.0,86.0 0 0,1 28.547481713284135,27.462654790039103" fill="none" id="id74" stroke="none" /><text fill="#e1ed5e" style="font-size:6.75px; font-family:Arial;" text-anchor="middle"><textPath startOffset="19.985693538727396" xlink:href="#id74">February</textPath></text><path d="M 110.68208982089419 81.91981866633111 l 0.38763841693490386 -0.6561050307188597 a21.762061253193203,21.762061253193203 0 0,0 0.3208742705373311,0.19332315771202396 l -0.39887475368987246 0.6493352635482212" fill="#ff0500" stroke="none" /><path d="M 111.2981086023043 82.29822771554956 l 0.7008724400419347 -1.0981204704953078 a22.3027243549313,22.3027243549313 0 0,0 0.32183147116134303,0.20932814116811693 l -0.7196709369875579 1.0858934051676628" fill="#ff0d01" stroke="none" /><path d="M 111.60114157652 82.49532879139004 l 0.8638035266765957 -1.3033714504368004 a22.563628367136083,22.563628367136083 0 0,0 0.3219027207594931,0.21735015399959232 l -0.8861109418426306 1.2883093841385378" fill="#ff1101" stroke="none" /><path d="M 112.77801427241765 83.33499621200491 l 0.9003202694043095 -1.1741918877347444 a22.47962940519656,22.47962940519656 0 0,0 0.30504583583627615,0.23809311342708553 l -0.920398660400016 1.1585203850844348" fill="#ff0f01" stroke="none" /><path d="M 113.06298171725822 83.55741782278167 l 0.872213685381817 -1.097869193144296 a22.40216742160936,22.40216742160936 0 0,0 0.2998653870001746,0.24247028871428386 l -0.8909824709464828 1.0826928071658826" fill="#ff0e01" stroke="none" /><path d="M 113.34407831869373 83.78471172551755 l 1.070183054324918 -1.300451504997117 a22.684181072988732,22.684181072988732 0 0,0 0.29936903879206994,0.25071296059570064 l -1.0924096300761053 1.281837387007597" fill="#ff1202" stroke="none" /><path d="M 113.89432698308785 84.25364557470407 l 1.842396356709514 -2.087976341706522 a23.784612996224546,23.784612996224546 0 0,0 0.30465712191742955,0.27352417212508945 l -1.8780644662229335 2.055953160812135" fill="#ff2203" stroke="none" /><path d="M 115.4437574822437 85.77008943001954 l 2.0134268362061114 -1.855175714287973 a23.73780287012028,23.73780287012028 0 0,0 0.2742918487732194,0.3028799102568394 l -2.0450623255953664 1.8202430167615846" fill="#ff2103" stroke="none" /><path d="M 115.9244219780498 86.31012108654704 l 0.6657796884911265 -0.5723563047401836 a21.877983105294845,21.877983105294845 0 0,0 0.24304291698921185,0.28768615403298947 l -0.6755332189674554 0.5608112010780876" fill="#ff0701" stroke="none" /><path d="M 116.38621287248628 86.86637796730983 l 0.32331990770288555 -0.2591423348676215 a21.41435553868344,21.41435553868344 0 0,0 0.22805872537793317,0.2896114215038085 l -0.3277327136747828 0.25353851941077465" fill="#ff0000" stroke="none" /><path d="M 116.60985879189232 87.15038557335679 l 0.5735226644529798 -0.44368499428538893 a21.72511007495088,21.72511007495088 0 0,0 0.22627639403196526,0.29775321072529537 l -0.5810749987090585 0.43374700767906" fill="#ff0400" stroke="none" /><path d="M 117.2510076193507 88.02491185347247 l 3.0317126565134305 -2.1045162750938453 a24.690565049392653,24.690565049392653 0 0,0 0.239352141565286,0.3512197332440566 l -3.06748926374745 2.052018518579382" fill="#ff2f04" stroke="none" /><path d="M 117.45458315368197 88.32363383020206 l 2.306108681987926 -1.5426876231393134 a23.774531015456002,23.774531015456002 0 0,0 0.2246165212501829,0.34210637191777765 l -2.3323218385960343 1.5027631872438618" fill="#ff2203" stroke="none" /><line stroke="#e1ed5e" stroke-width="0.3" x1="172.23445277983987" x2="176.4835382374775" y1="55.19839476539836" y2="52.563006222186495" /><path d="M 173.08426987136738 54.67131705675599 a86.0,86.0 0 0,1 12.851231095245387,41.99856678651699" fill="none" id="id75" stroke="none" /><text fill="#e1ed5e" style="font-size:6.75px; font-family:Arial;" text-anchor="middle"><textPath startOffset="22.20632615414155" xlink:href="#id75">March</textPath></text><path d="M 117.84615892207809 88.93136811851018 l 2.3073340834555087 -1.431066018681955 a23.71509493802734,23.71509493802734 0 0,0 0.2121757943332228,0.34876121801506926 l -2.331625676074956 1.3911370274598043" fill="#ff2103" stroke="none" /><path d="M 118.03404312379186 89.2402003453031 l 0.41776574527402893 -0.24925501679728426 a21.486473309980084,21.486473309980084 0 0,0 0.186768944404209,0.31924866802963475 l -0.4219943641485652 0.2420269364137542" fill="#ff0100" stroke="none" /><path d="M 118.21658344932153 89.55222093294921 l 2.358749947911638 -1.352816701263277 a23.719156917868112,23.719156917868112 0 0,0 0.20007940014219344,0.3559189273935453 l -2.3816869893462647 1.3120142639349377" fill="#ff2103" stroke="none" /><path d="M 118.56541770881063 90.18545643968196 l 2.402588782731118 -1.2701202114324366 a23.717653070278576,23.717653070278576 0 0,0 0.18769762894577635,0.3625720761678622 l -2.4240958448370105 1.2285754130042295" fill="#ff2103" stroke="none" /><path d="M 119.61058180528143 92.48833698450437 l 2.1516999827833794 -0.8241899879157897 a23.30414885632214,23.30414885632214 0 0,0 0.14026368972924838,0.37583695375526827 l -2.1655682610142533 0.7870298971311882" fill="#ff1b02" stroke="none" /><path d="M 120.6074358757038 95.95851677861258 l 0.48092950533003387 -0.09431879532150222 a21.490091036694093,21.490091036694093 0 0,0 0.06806656421032996,0.36361430774584247 l -0.48248179345022313 0.08602641011309696" fill="#ff0100" stroke="none" /><path d="M 120.96714384426684 98.82574320788733 l 8.416983686027915 -0.4713899201451014 a29.430173356917074,29.430173356917074 0 0,0 0.023973527390454174,0.5060432728258315 l -8.423850821651866 0.32643554069627007" fill="#ff700a" stroke="none" /><line stroke="#e1ed5e" stroke-width="0.3" x1="184.98032266829074" x2="189.97916517819016" y1="98.17113171792111" y2="98.06355123074" /><path d="M 185.9800911702706 98.14961562048488 a86.0,86.0 0 0,1 -9.607161424134198,41.387399972396054" fill="none" id="id76" stroke="none" /><text fill="#e1ed5e" style="font-size:6.75px; font-family:Arial;" text-anchor="middle"><textPath startOffset="21.466115282336823" xlink:href="#id76">April</textPath></text><path d="M 120.95626037817324 101.35467743843564 l 0.7091457538231573 0.045841373218822715 a21.710625873201927,21.710625873201927 0 0,0 -0.027317592815288748,0.37272685003607425 l -0.7082516023435308 -0.05804135975166722" fill="#ff0400" stroke="none" /><line stroke="#e1ed5e" stroke-width="0.3" x1="174.80103733775053" x2="179.2010983576182" y1="140.37084112569926" y2="142.7455964860345" /><path d="M 175.68104954172406 140.8457921977663 a86.0,86.0 0 0,1 -30.038265399797805,32.042727171017184" fill="none" id="id77" stroke="none" /><text fill="#e1ed5e" style="font-size:6.75px; font-family:Arial;" text-anchor="middle"><textPath startOffset="22.206326154141568" xlink:href="#id77">May</textPath></text><path d="M 112.34349029814194 116.9893568818739 l 1.6036187617890767 2.2071918710548544 a23.72823919200875,23.72823919200875 0 0,0 -0.3325034453558685,0.2372323797473868 l -1.5653879885843236 -2.2344685126464605" fill="#ff2103" stroke="none" /><line stroke="#e1ed5e" stroke-width="0.3" x1="143.8653032363475" x2="146.44561519142675" y1="172.8068346515853" y2="177.08958963109032" /><path d="M 144.38136562736335 173.6633856474863 a86.0,86.0 0 0,1 -40.68145358897372,12.25698825130547" fill="none" id="id78" stroke="none" /><text fill="#e1ed5e" style="font-size:6.75px; font-family:Arial;" text-anchor="middle"><textPath startOffset="21.466115282336833" xlink:href="#id78">June</textPath></text><path d="M 109.2508944713604 118.85261126421891 l 3.7584279794422746 7.659387087416331 a29.531822280822226,29.531822280822226 0 0,0 -0.45828794153278274,0.22000606204807838 l -3.6260273699092593 -7.722947425963969" fill="#ff710a" stroke="none" /><path d="M 104.48393922423573 120.51570834832081 l 1.9183346461986823 8.777102486842795 a29.984293844223274,29.984293844223274 0 0,0 -0.505176151671273,0.10586457431843538 l -1.7669670330980314 -8.808823041887772" fill="#ff770b" stroke="none" /><path d="M 102.70371172650421 120.8252237178851 l 0.34840941405058046 2.6836085821922784 a23.706130843513506,23.706130843513506 0 0,0 -0.405118107871088,0.04905416103678715 l -0.3021638831281122 -2.6892082719544166" fill="#ff2103" stroke="none" /><path d="M 102.34483914955558 120.86867818915974 l 0.3073501362874503 2.735365061945855 a23.752578087609862,23.752578087609862 0 0,0 -0.4066977536611685,0.04215588505376828 l -0.26021978602067913 -2.740250315455382" fill="#ff2203" stroke="none" /><path d="M 101.98527174616119 120.90594882070398 l 0.2747413163114787 2.893169617130221 a23.906185338957926,23.906185338957926 0 0,0 -0.4099975471880736,0.0353763135510939 l -0.22489945138186346 -2.897470182959978" fill="#ff2403" stroke="none" /><path d="M 101.62511606390274 120.93702456842531 l 0.19230598488739992 2.477555431070864 a23.485007546437686,23.485007546437686 0 0,0 -0.40331277545872735,0.027814810320354343 l -0.14963044864974226 -2.4804985859075033" fill="#ff1e03" stroke="none" /><path d="M 101.26447882468166 120.96189622390904 l 0.15458233091252796 2.5625884082749613 a23.56724658871242,23.56724658871242 0 0,0 -0.40514558157937636,0.020941398829914856 l -0.11044868091967197 -2.564869613867078" fill="#ff1f03" stroke="none" /><line stroke="#e1ed5e" stroke-width="0.3" x1="102.19456741930631" x2="102.32365962044197" y1="184.97166512339345" y2="189.96999836594603" /><path d="M 102.22038585953345 185.97133177190398 a86.0,86.0 0 0,1 -42.740103519485714,-10.115201625700543" fill="none" id="id79" stroke="none" /><text fill="#e1ed5e" style="font-size:6.75px; font-family:Arial;" text-anchor="middle"><textPath startOffset="22.20632615414155" xlink:href="#id79">July</textPath></text><path d="M 100.54218724476979 120.99299961872073 l 0.07000847240510574 2.7106647171893825 a23.711568622628587,23.711568622628587 0 0,0 -0.40811031981400764,0.007025989261955775 l -0.023338462698430144 -2.711468183730498" fill="#ff2103" stroke="none" /><path d="M 100.18074693466247 120.99922214144158 l 0.03893591532479709 4.523583964024906 a25.52375152777929,25.52375152777929 0 0,0 -0.4393656999745019,0.0 l 0.03893591532479397 -4.523583964024906" fill="#ff3a05" stroke="none" /><path d="M 99.81925306533755 120.99922214144158 l -0.018185161286167508 2.112756391909714 a23.112834653172452,23.112834653172452 0 0,0 -0.3978052440239115,-0.00684857803678055 l 0.05455009520274696 -2.112130336593774" fill="#ff1802" stroke="none" /><path d="M 98.37488393609728 120.93702456842531 l -2.402474497200693 30.952046250843804 a52.045145366450996,52.045145366450996 0 0,0 -0.8925883256045142,-0.07701627654895814 l 2.934907140546749 -30.906105722016182" fill="#7eff26" stroke="none" /><path d="M 98.01472825383883 120.90594882070398 l -2.066744132870867 21.763895623274912 a42.86180651299341,42.86180651299341 0 0,0 -0.7338908796509767,-0.07607079037458343 l 2.4410676091274373 -21.72509546444457" fill="#e5ff1a" stroke="none" /><path d="M 97.65516085044442 120.86867818915974 l -3.9498597870462313 35.15309474587775 a56.37430511755648,56.37430511755648 0 0,0 -0.9633901024392736,-0.116653124874252 l 4.554377312536894 -35.07989609227815" fill="#52ff2b" stroke="none" /><path d="M 97.2962882734958 120.8252237178851 l -3.524608366418829 27.148144910961445 a48.37598648895034,48.37598648895034 0 0,0 -0.8248598873726322,-0.11431806424943024 l 3.991396844978292 -27.08345228121941" fill="#a6ff21" stroke="none" /><path d="M 96.93821686468263 120.77559828337769 l -9.185349405952088 62.32679485013308 a84.0,84.0 0 0,0 -1.4286565455659315,-0.22312677061157693 l 10.256841815126537 -62.1594497721744" fill="#4dd2ff" stroke="none" /><path d="M 96.58105272829116 120.7198165907248 l -7.00974000271383 42.481066732656494 a64.05551632079286,64.05551632079286 0 0,0 -1.086354191454251,-0.18887660115020868 l 7.739943165640131 -42.35411155298528" fill="#34ff60" stroke="none" /><path d="M 92.06813273071674 119.44442032107085 l -2.2968869667808702 5.630658468659987 a27.08111869057497,27.08111869057497 0 0,0 -0.4301107615258793,-0.1797863332008338 l 2.3934691878042123 -5.59028709243918" fill="#ff5007" stroke="none" /><line stroke="#e1ed5e" stroke-width="0.3" x1="58.666819895761336" x2="56.23545636021788" y1="174.27360380694188" y2="178.64263932499728" /><path d="M 58.180547188652646 175.14741091055294 a86.0,86.0 0 0,1 -31.652253787137756,-30.449443065178592" fill="none" id="id80" stroke="none" /><text fill="#e1ed5e" style="font-size:6.75px; font-family:Arial;" text-anchor="middle"><textPath startOffset="22.20632615414155" xlink:href="#id80">August</textPath></text><path d="M 89.4739219176387 118.17145234162733 l -7.112163456965631 12.277919496025888 a35.18908651709087,35.18908651709087 0 0,0 -0.5215225863466975,-0.3081247365924495 l 7.322453914340711 -12.15367618713969" fill="#ffbb11" stroke="none" /><path d="M 88.8546689885994 117.79835938074946 l -7.126921796609533 11.381224593939857 a34.428525144359284,34.428525144359284 0 0,0 -0.4995713400081593,-0.3188500655930826 l 7.321774938664616 -11.25686009952297" fill="#ffb210" stroke="none" /><path d="M 87.65650970185807 116.9893568818739 l -7.054089807677613 9.709121676667447 a33.0011343941777,33.0011343941777 0 0,0 -0.4566964594373756,-0.33785312262143385 l 7.220171237533553 -9.586258605306247" fill="#ff9f0e" stroke="none" /><path d="M 87.36589467227662 116.77436683061367 l -8.712710134405322 11.567910199594325 a35.48198412759963,35.48198412759963 0 0,0 -0.4847029477265918,-0.37164955152274953 l 8.9105418106254 -11.416221306244209" fill="#ffbf11" stroke="none" /><path d="M 86.79598089348748 116.32954008644616 l -3.0985944545888318 3.8320621887688513 a25.92808159557049,25.92808159557049 0 0,0 -0.3446334325168767,-0.28360985243675424 l 3.1640980156503975 -3.778157217474916" fill="#ff4006" stroke="none" /><path d="M 86.24171649860922 115.8653595955263 l -7.829136086210244 9.028165418853355 a32.95002689062159,32.95002689062159 0 0,0 -0.4253027028874548,-0.3752801862008319 l 7.983381142004286 -8.892062090880234" fill="#ff9f0e" stroke="none" /><path d="M 85.44109423537348 115.13401014063109 l -9.969214577824907 10.363017451593475 a35.37975556123078,35.37975556123078 0 0,0 -0.4352553111512729,-0.4259889310610403 l 10.146119841351975 -10.189878417609863" fill="#ffbe11" stroke="none" /><path d="M 84.9287848128048 114.62390073753433 l -11.74646151517341 11.397825927209238 a37.367339246023256,37.367339246023256 0 0,0 -0.44394792068013184,-0.4654776199527204 l 11.940915987232499 -11.193941190674018" fill="#ffd714" stroke="none" /><path d="M 84.67929136418377 114.36230785411682 l -2.0925555741396575 1.9616538681104403 a23.868252905365146,23.868252905365146 0 0,0 -0.27841020400169386,-0.3021592897607379 l 2.12601218613708 -1.9253433235483581" fill="#ff2303" stroke="none" /><path d="M 83.95833913139862 113.55231037782056 l -10.59322537933939 8.949364995242545 a34.8675000542835,34.8675000542835 0 0,0 -0.3833831064879236,-0.46180964917544176 l 10.74570448572085 -8.765694088953342" fill="#ffb711" stroke="none" /><path d="M 83.50135304334701 112.99209946851258 l -2.3189977154150805 1.8261284737520218 a23.951693684437505,23.951693684437505 0 0,0 -0.2522833980513629,-0.3261103001256814 l 2.350087930684512 -1.7859401795130876" fill="#ff2403" stroke="none" /><path d="M 82.85270091963577 112.12312394758628 l -0.9000846040022304 0.6363589488054451 a22.102318014951503,22.102318014951503 0 0,0 -0.21695960881981566,-0.3125464981172025 l 0.91090511998418 -0.62077118850123" fill="#ff0a01" stroke="none" /><path d="M 82.6465618267979 111.8261652097733 l -11.031883565675802 7.518099659589893 a34.35006657279856,34.35006657279856 0 0,0 -0.3287741290508184,-0.49147271427135897 l 11.15966080013735 -7.327090031112713" fill="#ffb110" stroke="none" /><path d="M 82.44556493220864 111.52570212397912 l -13.685623194640243 8.9855592454727 a37.37182204825031,37.37182204825031 0 0,0 -0.3484390954183765,-0.5407852139067927 l 13.838267153435664 -8.74865243164446" fill="#ffd714" stroke="none" /><path d="M 82.05923443525364 110.91462005526583 l -13.968729916919742 8.49815350117471 a37.35065834825548,37.35065834825548 0 0,0 -0.329431249112305,-0.5521457223622702 l 14.112942041730278 -8.256445684926328" fill="#ffd714" stroke="none" /><line stroke="#e1ed5e" stroke-width="0.3" x1="26.63291911575756" x2="22.317208475507996" y1="142.92168965132927" y2="145.44649492493687" /><path d="M 25.769776987707644 143.4266507060508 a86.0,86.0 0 0,1 -11.730757126820373,-40.83630448921669" fill="none" id="id81" stroke="none" /><text fill="#e1ed5e" style="font-size:6.75px; font-family:Arial;" text-anchor="middle"><textPath startOffset="21.46611528233685" xlink:href="#id81">September</textPath></text><path d="M 80.58989483394504 108.01547362559985 l -1.3657258106820478 0.5639814478938168 a22.47759333496451,22.47759333496451 0 0,0 -0.14460305225425094,-0.358892916885045 l 1.3752314771936867 -0.5403891631659664" fill="#ff0f01" stroke="none" /><path d="M 79.97269907076064 106.31721596034903 l -10.083994486490594 3.1807966105470333 a31.57376053640521,31.57376053640521 0 0,0 -0.15903135981210245,-0.5197236853588508 l 10.137252618808827 -3.0067459526361344" fill="#ff8d0c" stroke="none" /><path d="M 79.67330655649465 105.27499134158121 l -8.249501202050665 2.1408325724066555 a29.522759775196803,29.522759775196803 0 0,0 -0.12341734662129718,-0.492990950348573 l 8.28512986296702 -1.9985137826606907" fill="#ff710a" stroke="none" /><path d="M 79.50377843672027 104.57218783832718 l -12.569099534508517 2.803847716662161 a33.87803654004033,33.87803654004033 0 0,0 -0.1220673429014606,-0.5702579877246903 l 12.615500916134419 -2.5870759095213067" fill="#ffab0f" stroke="none" /><path d="M 79.29508885075956 103.50808413554451 l -12.90296809720758 2.186181691724448 a34.08686272972968,34.08686272972968 0 0,0 -0.09303805576169566,-0.5793480620398478 l 12.938687907330568 -1.9637543999913865" fill="#ffad10" stroke="none" /><path d="M 79.18660465613746 102.79330883721812 l -2.7345143647788155 0.36699169042061003 a23.759030937126198,23.759030937126198 0 0,0 -0.05091050161562489,-0.40580678916587426 l 2.7404263756412885 -0.31986714696732715" fill="#ff2203" stroke="none" /><path d="M 79.10278846688536 102.07522291339032 l -12.792678013265697 1.270392391572668 a33.85560218658221,33.85560218658221 0 0,0 -0.052597747124760744,-0.5804117566221645 l 12.812650356667532 -1.0499992464019374" fill="#ffaa0f" stroke="none" /><path d="M 79.07016306316243 101.71520430193888 l -10.266515609183433 0.8413429971736215 a31.30093203513644,31.30093203513644 0 0,0 -0.03938468292295496,-0.5373727072074194 l 10.279476850770724 -0.6644971534694414" fill="#ff890c" stroke="none" /><path d="M 79.0235259727143 100.99374915477108 l -17.197931230608862 0.8147427256839194 a38.21721941318651,38.21721941318651 0 0,0 -0.025474264768680577,-0.6573775813286361 l 17.209407628228742 -0.5185878973412864" fill="#ffe115" stroke="none" /><line stroke="#e1ed5e" stroke-width="0.3" x1="15.007084014347285" x2="10.007500721073583" y1="101.09737516637583" y2="101.16192664675087" /><path d="M 14.007167355692545 101.11028546245083 a86.0,86.0 0 0,1 10.666146001902534,-42.60595125391555" fill="none" id="id82" stroke="none" /><text fill="#e1ed5e" style="font-size:6.75px; font-family:Arial;" text-anchor="middle"><textPath startOffset="22.20632615414155" xlink:href="#id82">October</textPath></text><path d="M 79.00019446554 99.90962569577889 l -4.052778866736116 -0.017441450571640028 a25.052816396885124,25.052816396885124 0 0,0 0.005567681705021047,-0.43122308385438385 l 4.0518781779133795 0.08720079248649584" fill="#ff3404" stroke="none" /><path d="M 79.00486145842228 99.54816195383935 l -5.413919879136629 -0.11651340025287413 a26.415173481076046,26.415173481076046 0 0,0 0.01369602285090942,-0.45450432093620974 l 5.411112161830075 0.2096878686140783" fill="#ff4706" stroke="none" /><path d="M 79.01574976396665 99.18683210126434 l -25.598078227754602 -0.9919599342363187 a46.617290908005366,46.617290908005366 0 0,0 0.037973982922156854,-0.8015707612478532 l 25.57721063659895 1.432441802107181" fill="#baff1f" stroke="none" /><path d="M 79.03285615573316 98.82574320788736 l -0.6375671705286236 -0.035706703115216565 a21.638566257786326,21.638566257786326 0 0,0 0.024028503649686853,-0.3717103161931926 l 0.6368580758745236 0.046676083561420945" fill="#ff0300" stroke="none" /><path d="M 79.21141760316559 97.0276538004421 l -5.727120893999862 -0.8188622821285461 a26.78536508541877,26.78536508541877 0 0,0 0.0691880094266976,-0.4558625360205017 l 5.712176991133862 0.9173239305411399" fill="#ff4c07" stroke="none" /><path d="M 79.26566170972629 96.67025291283419 l -13.991510982441442 -2.24691004297383 a35.17077924155888,35.17077924155888 0 0,0 0.10113799463242491,-0.5969221694142024 l 13.950761126288793 2.4874180007038604" fill="#ffbb11" stroke="none" /><path d="M 79.3925641242962 95.95851677861259 l -2.163090446248055 -0.4242203541276992 a23.20429652894202,23.20429652894202 0 0,0 0.08024344532042939,-0.39129553726197286 l 2.1554677050126307 0.46139154755307454" fill="#ff1a02" stroke="none" /><path d="M 79.46518482838121 95.60439243477599 l -12.599634826559372 -2.6970318310548644 a33.88506028159632,33.88506028159632 0 0,0 0.1269973543302832,-0.5693042377839422 l 12.551343085227051 2.913514238388766" fill="#ffab0f" stroke="none" /><path d="M 79.62865764111835 94.90015583598534 l -0.6370340140617684 -0.15947766925017157 a21.65669282169148,21.65669282169148 0 0,0 0.09364319751274143,-0.36084543948095765 l 0.6341944846787196 0.17041953427999307" fill="#ff0400" stroke="none" /><path d="M 79.81627453868168 94.20196356495316 l -2.666477192100411 -0.7659800933504071 a23.77431543257085,23.77431543257085 0 0,0 0.11637425841306769,-0.3923561466260618 l 2.6528970365756366 0.811765626723008" fill="#ff2203" stroke="none" /><path d="M 80.2630227832202 92.82701384747504 l -11.435029733738869 -4.155819254028739 a33.166788347121354,33.166788347121354 0 0,0 0.1996252314863727,-0.5348963729626122 l 11.361799913750868 4.3520387640206915" fill="#ffa10e" stroke="none" /><path d="M 80.95270993114464 91.15688171328213 l -14.16843809643979 -6.578005247566764 a36.620972797161585,36.620972797161585 0 0,0 0.27037056027352463,-0.56946935302547 l 14.053109342324513 6.820917016232766" fill="#ffcd13" stroke="none" /><path d="M 81.26839172434947 90.50648371742162 l -10.939450286511713 -5.54431033839506 a33.264214190052925,33.264214190052925 0 0,0 0.26324755293944163,-0.5085104822658004 l 10.842393300412157 5.731793542921196" fill="#ffa30f" stroke="none" /><line stroke="#e1ed5e" stroke-width="0.3" x1="26.266209847984243" x2="21.928928074336255" y1="57.711370442889674" y2="55.22380399835377" /><path d="M 25.398753493254645 57.213857153982495 a86.0,86.0 0 0,1 29.58750427330803,-30.492523968695096" fill="none" id="id83" stroke="none" /><text fill="#e1ed5e" style="font-size:6.75px; font-family:Arial;" text-anchor="middle"><textPath startOffset="21.46611528233685" xlink:href="#id83">November</textPath></text><path d="M 82.34701348167596 88.62581576622439 l -7.9560555269258435 -5.12625108751256 a30.464526916848563,30.464526916848563 0 0,0 0.28782212583485517,-0.4383728439875131 l 7.866636765733068 5.262441995477739" fill="#ff7e0b" stroke="none" /><path d="M 82.54541684631803 88.32363383020206 l -14.023869608148127 -9.38136621313104 a37.87243168044302,37.87243168044302 0 0,0 0.36713811979858635,-0.538729888339908 l 13.8603070226808 9.621374124741365" fill="#ffdd14" stroke="none" /><path d="M 83.17141714833178 87.43820079747576 l -7.293686732818176 -5.444417333970251 a30.10162327625812,30.10162327625812 0 0,0 0.3135213928013161,-0.4125574023619589 l 7.198889399792751 5.569159512213236" fill="#ff790b" stroke="none" /><path d="M 83.39014120810768 87.1503855733568 l -9.529281056935991 -7.37198244000197 a33.04795926942719,33.04795926942719 0 0,0 0.35195434453828767,-0.446946276040343 l 9.400972631803734 7.53492110999536" fill="#ffa00e" stroke="none" /><path d="M 84.31358615837235 86.03803664274999 l -12.478591138228541 -11.10678539920337 a37.70556550072559,37.70556550072559 0 0,0 0.43569025013901547,-0.4811000562068862 l 12.28555724747348 11.319938242679811" fill="#ffdb14" stroke="none" /><path d="M 84.5562425177563 85.77008943001954 l -12.275155387641002 -11.310353947190334 a37.69142133556804,37.69142133556804 0 0,0 0.4437405255015419,-0.473351453691641 l 12.078647540169005 11.519974817760026" fill="#ffdb14" stroke="none" /><path d="M 84.80347519578584 85.50635884689758 l -4.401775933084436 -4.198180941526616 a27.082791676761474,27.082791676761474 0 0,0 0.3246526906535527,-0.33458313549566804 l 4.328858978727765 4.2733282725724075" fill="#ff5007" stroke="none" /><path d="M 85.31137513191541 84.99185889309783 l -2.0206858822966747 -2.0646411169589802 a23.88892962474871,23.88892962474871 0 0,0 0.2963555456862153,-0.28509380014794494 l 1.9848470929980317 2.099118003869239" fill="#ff2303" stroke="none" /><path d="M 85.57189188830299 84.74124197986013 l -7.941174035849072 -8.398360482938351 a32.55831751895681,32.55831751895681 0 0,0 0.4105326569487421,-0.3815453631686063 l 7.795433495105475 8.533810432181605" fill="#ff990e" stroke="none" /><path d="M 86.37877921826538 84.01681056812374 l -7.845313741232034 -9.205719346885516 a33.09521460710749,33.09521460710749 0 0,0 0.43676615671812374,-0.3657790955291926 l 7.685690047554799 9.339399599808521" fill="#ffa00e" stroke="none" /><path d="M 88.70189139769569 82.29822771554957 l -10.078924082207887 -15.79156523058371 a39.733879552476324,39.733879552476324 0 0,0 0.579699985563187,-0.36300807777789046 l 9.805604944272458 15.962717649684532" fill="#fff417" stroke="none" /><line stroke="#e1ed5e" stroke-width="0.3" x1="56.762969772571076" x2="54.21961505331055" y1="26.818313649435495" y2="22.513508569990535" /><path d="M 56.25429882871897 25.957352633546506 a86.0,86.0 0 0,1 42.265352541879196,-11.944610805530505" fill="none" id="id84" stroke="none" /><text fill="#e1ed5e" style="font-size:6.75px; font-family:Arial;" text-anchor="middle"><textPath startOffset="22.20632615414155" xlink:href="#id84">December</textPath></text><path d="M 89.94658935756843 81.56283822128135 l -7.965273219482717 -14.60768252511949 a37.638208022972,37.638208022972 0 0,0 0.5714823365677477,-0.30526607250784105 l 7.712645836386664 14.74262732412908" fill="#ffda14" stroke="none" /><path d="M 90.58718382345135 81.22770947309562 l -8.307918994257346 -16.56875754386303 a39.534973551706514,39.534973551706514 0 0,0 0.610963565500554,-0.2997971682054881 l 8.021484161746367 16.709309872203345" fill="#fff116" stroke="none" /><path d="M 91.23893434514133 80.91482961587045 l -5.40846000936131 -11.781829387064054 a33.96390926297877,33.96390926297877 0 0,0 0.533424028652493,-0.23933181271915235 l 5.204853862242042 11.873181530299735" fill="#ffac0f" stroke="none" /><path d="M 91.56875222667455 80.76684994638697 l -0.5201754941055896 -1.1866112349345757 a22.295619067296,22.295619067296 0 0,0 0.3528188736277409,-0.15105862882175142 l 0.4996728626875404 1.1953893917191132" fill="#ff0d01" stroke="none" /><path d="M 91.90106846888425 80.62456947434976 l -1.0432348242330671 -2.4957766072238976 a23.705039698721375,23.705039698721375 0 0,0 0.377831388533802,-0.15412691016412114 l 1.0001195661108848 2.513364403571596" fill="#ff2103" stroke="none" /><path d="M 92.23578459929587 80.48803036053334 l -1.195712685925388 -3.00490241720824 a24.234063599286017,24.234063599286017 0 0,0 0.3889184482584726,-0.15089431571366904 l 1.143811072667239 3.0250394368124605" fill="#ff2803" stroke="none" /><path d="M 92.57280143429618 80.3572730644239 l -7.831570452709952 -20.7121700757613 a43.14333951785551,43.14333951785551 0 0,0 0.6969039661738734,-0.25667561215634394 l 7.47388416076351 20.843908955723965" fill="#e1ff1b" stroke="none" /><path d="M 93.25333710446033 80.11325718540243 l -1.2897221959132117 -3.801638529970223 a25.014453743062106,25.014453743062106 0 0,0 0.4089472220102801,-0.1348234694698508 l 1.2240921516605223 3.8232757236993073" fill="#ff3304" stroke="none" /><path d="M 94.63758080256005 79.69619591428918 l -0.11010573632279698 -0.4168949156526733 a21.431189800283164,21.431189800283164 0 0,0 0.35748358533066166,-0.09113052560484314 l 0.1029132623071359 0.4187284374263796" fill="#ff0000" stroke="none" /><path d="M 94.98787191387505 79.60689891045804 l -0.10579125279241289 -0.4304382640494198 a21.443248111474,21.443248111474 0 0,0 0.35920127429532994,-0.08501133629798852 l 0.09836629153454894 0.4321955124882793" fill="#ff0000" stroke="none" /><path d="M 95.33964822691252 79.52364482259891 l -3.8093052902684215 -16.737081641159822 a38.165101475299124,38.165101475299124 0 0,0 0.6418230128295751,-0.14027765131878853 l 3.5206395532853256 16.80017279057448" fill="#ffe115" stroke="none" /><path d="M 96.04723909329186 79.375362276772 l -2.996085078545949 -15.632913498034133 a36.91742787748396,36.91742787748396 0 0,0 0.6251436890269216,-0.1142410133517718 l 2.726546268416134 15.682169992736641" fill="#ffd113" stroke="none" /><path d="M 96.40284397218896 79.31037775812273 l -1.2135894565322727 -6.980155216580133 a28.084868821407856,28.084868821407856 0 0,0 0.4770024980007999,-0.0787094992852479 l 1.093257752392587 7.000010978805008" fill="#ff5e08" stroke="none" /><path d="M 96.75951476605007 79.25152402106235 l -0.1487243214950119 -0.9522657223349484 a21.963809592055533,21.963809592055533 0 0,0 0.37404474371799257,-0.055124472111406905 l 0.13231059734837058 0.9546846786073243" fill="#ff0801" stroke="none" /><path d="M 97.11714578562143 79.19881850522333 l -2.3637730977926887 -17.055761257166175 a38.218780889461925,38.218780889461925 0 0,0 0.6524223830122597,-0.08470314996276214 l 2.0698359862725715 17.093922730293077" fill="#ffe115" stroke="none" /><path d="M 97.47563105711357 79.15227682838746 l -2.1454519879678093 -17.718404137865768 a38.84782366075522,38.84782366075522 0 0,0 0.6645443692917272,-0.07466930294327183 l 1.8401409151663641 17.752709394279638" fill="#ffe915" stroke="none" /></svg>