<?xml version="1.0" encoding="utf-8" ?>
<svg baseProfile="full" height="200mm" version="1.1" viewBox="0,0,200,200" width="200mm" xmlns="http://www.w3.org/2000/svg" xmlns:ev="http://www.w3.org/2001/xml-events" xmlns:xlink="http://www.w3.org/1999/xlink"><defs /><rect fill="#1a1a1a" height="200" width="200" x="0" y="0" /><text alignment-baseline="middle" fill="#e1ed5e" style="dominant-baseline: central; font-size:9.0px; font-family:Arial;" text-anchor="middle" x="100.0" y="100.0">2023</text><line stroke="#e1ed5e" stroke-width="0.3" x1="100.0" x2="100.0" y1="15.0" y2="10.0" /><path d="M 100.0 14.0 a86.0,86.0 0 0,1 42.46469731375804,11.215312516191453" fill="none" id="id85" stroke="none" /><text fill="#e1ed5e" style="font-size:6.75px; font-family:Arial;" text-anchor="middle"><textPath startOffset="22.20632615414155" xlink:href="#id85">January</textPath></text><path d="M 100.0 79.0 l 0.0 -28.046270772320824 a49.046270772320824,49.046270772320824 0 0,0 0.8442509269194635,0.007266734267525883 l -0.48277044764693505 28.042115414661858" fill="#a6ff21" stroke="none" /><path d="M 100.36148047927253 79.00311137660856 l 0.05533725678958015 -3.2143097183923883 a24.214786023632172,24.214786023632172 0 0,0 0.4166942239712498,0.010761982437468747 l -0.11065811595569773 3.2128809438125603" fill="#ff1802" stroke="none" /><path d="M 101.44485096284872 79.0497635885617 l 2.242931692721784 -32.5223503499502 a53.59960145251966,53.59960145251966 0 0,0 0.9198962957026949,0.07140165702081112 l -2.8024181777868202 32.47892343074093" fill="#74ff27" stroke="none" /><path d="M 106.74666289553966 80.11325718540242 l 1.0798344919684646 -3.182964845969349 a24.361146789523104,24.361146789523104 0 0,0 0.39594751432954484,0.13813831311633468 l -1.134464010361283 3.1639056796808065" fill="#ff1a02" stroke="none" /><path d="M 107.76421540070413 80.48803036053334 l 0.651673374473792 -1.637696849114755 a22.76259160232836,22.76259160232836 0 0,0 0.3628098371081531,0.14799924216890542 l -0.6797670811703327 1.6262367207622703" fill="#ff0300" stroke="none" /><path d="M 108.09893153111575 80.62456947434976 l 0.9801335952790159 -2.344816758633362 a23.541422337228198,23.541422337228198 0 0,0 0.3725331908275623,0.1594992705984823 l -1.0203505438968934 2.3275979600720893" fill="#ff0e01" stroke="none" /><path d="M 108.43124777332544 80.76684994638697 l 0.9730259729373539 -2.2196423408140062 a23.42354939399736,23.42354939399736 0 0,0 0.3678812113865211,0.16505757606921112 l -1.0110893027906553 2.2025644342282638" fill="#ff0c01" stroke="none" /><path d="M 109.41281617654863 81.2277094730956 l 9.319102209967275 -18.585393664786057 a41.79092406976868,41.79092406976868 0 0,0 0.6402757873058434,0.327974126704553 l -9.637638484861872 18.422227012769003" fill="#fbff18" stroke="none" /><path d="M 109.73455568895987 81.39251694778311 l 6.320938150624167 -12.082395259728356 a34.635928069490625,34.635928069490625 0 0,0 0.5258970110974378,0.2809159703613945 l -6.527980208249916 11.971800562865207" fill="#ffa80f" stroke="none" /><path d="M 110.05341064243156 81.56283822128135 l 9.425527700725352 -17.285674011425463 a40.68845089046903,40.68845089046903 0 0,0 0.6120238804416509,0.3405906268415829 l -9.721675670239037 17.1208679870237" fill="#fff517" stroke="none" /><line stroke="#e1ed5e" stroke-width="0.3" x1="143.23703022742887" x2="145.7803849466894" y1="26.81831364943548" y2="22.513508569990506" /><path d="M 143.74570117128098 25.957352633546492 a86.0,86.0 0 0,1 28.547481713284135,27.462654790039103" fill="none" id="id86" stroke="none" /><text fill="#e1ed5e" style="font-size:6.75px; font-family:Arial;" text-anchor="middle"><textPath startOffset="19.985693538727396" xlink:href="#id86">February</textPath></text><path d="M 110.68208982089419 81.91981866633111 l 12.216517876764716 -20.67730773484772 a45.01654355220387,45.01654355220387 0 0,0 0.6637537872156256,0.39990423000559877 l -12.57063373019798 20.463956895383507" fill="#d4ff1c" stroke="none" /><path d="M 113.06298171725822 83.55741782278167 l 1.2530342783278063 -1.5772141107000484 a23.01437316643561,23.01437316643561 0 0,0 0.3080600991073153,0.24909650933423305 l -1.2799977759996126 1.555411504101688" fill="#ff0601" stroke="none" /><path d="M 115.4437574822437 85.77008943001952 l 17.240897863396146 -15.885799490465168 a44.443702450494484,44.443702450494484 0 0,0 0.5135498587705317,0.5670745807157912 l -17.511791362782713 15.586672122479829" fill="#dbff1b" stroke="none" /><path d="M 115.68641384162765 86.03803664274999 l 3.2259657226916634 -2.8713264654818027 a25.31872325060981,25.31872325060981 0 0,0 0.28695533987932603,0.32803955872826973 l -3.2749129261488377 2.8153713505505853" fill="#ff2803" stroke="none" /><path d="M 116.38621287248628 86.86637796730983 l 23.194808570122603 -18.590741573490323 a50.72565923334476,50.72565923334476 0 0,0 0.5402184141294603,0.6860225259055333 l -23.511381064846027 18.188726653631754" fill="#93ff23" stroke="none" /><path d="M 116.60985879189232 87.15038557335679 l 2.928911693319551 -2.2658462314690873 a24.703050479257158,24.703050479257158 0 0,0 0.25729292807960874,0.33856733381474274 l -2.9674805616232733 2.2150941217733133" fill="#ff1f03" stroke="none" /><path d="M 116.82858285166822 87.43820079747576 l 11.399538033514217 -8.509255297414926 a35.225220317946615,35.225220317946615 0 0,0 0.3585212649709446,0.48902260250606305 l -11.54432191099879 8.311770251237368" fill="#ffb010" stroke="none" /><line stroke="#e1ed5e" stroke-width="0.3" x1="172.23445277983987" x2="176.4835382374775" y1="55.19839476539836" y2="52.563006222186495" /><path d="M 173.08426987136738 54.67131705675599 a86.0,86.0 0 0,1 12.851231095245387,41.99856678651699" fill="none" id="id87" stroke="none" /><text fill="#e1ed5e" style="font-size:6.75px; font-family:Arial;" text-anchor="middle"><textPath startOffset="22.20632615414155" xlink:href="#id87">March</textPath></text><path d="M 118.3937258080291 89.86733742301442 l 13.009077789821628 -7.166389075153025 a35.85238153691532,35.85238153691532 0 0,0 0.29312207302941945,0.5431106837958578 l -13.130507962069512 6.9413974080247085" fill="#ffb811" stroke="none" /><path d="M 118.89224826269711 90.83032412892265 l 25.076690780405375 -12.171400840077844 a48.874422306227544,48.874422306227544 0 0,0 0.36083708139515613,0.7600149183469408 l -25.282486055642288 11.737943506090362" fill="#a8ff21" stroke="none" /><path d="M 119.196687751892 91.48605970444005 l 7.56135131133659 -3.3535417385808497 a29.271654964144446,29.271654964144446 0 0,0 0.20031470269653184,0.46235395195107276 l -7.617956723875803 3.2228886420431744" fill="#ff6008" stroke="none" /><path d="M 119.61058180528143 92.48833698450437 l 15.164450964704944 -5.808611217806575 a37.23885886817695,37.23885886817695 0 0,0 0.22413432811300604,0.6005685667657886 l -15.262189881319575 5.546719514011453" fill="#ffca12" stroke="none" /><path d="M 119.85752413597 93.16781622104841 l 16.279137257816426 -5.601003264385397 a38.215735459935566,38.215735459935566 0 0,0 0.20866284039706387,0.6238753336795907 l -16.37313739198526 5.3199548277834925" fill="#ffd714" stroke="none" /><path d="M 120.08093135843002 93.85539295169968 l 4.141953914736809 -1.267405319203117 a25.33152380519234,25.33152380519234 0 0,0 0.12399672687372877,0.41805532094335174 l -4.16315653872224 1.1959206115132355" fill="#ff2803" stroke="none" /><path d="M 120.37134235888165 94.90015583598534 l 24.19411420544261 -6.05685231539666 a45.94074221342512,45.94074221342512 0 0,0 0.1854413367319815,0.76877406106313 l -24.29478834243541 5.639493022674124" fill="#c9ff1d" stroke="none" /><path d="M 120.53481517161879 95.60439243477599 l 19.76009279047252 -4.229773320744355 a41.207727468296994,41.207727468296994 0 0,0 0.14250162773765,0.6948885452717928 l -19.829973714125167 3.889009119309151" fill="#fffc17" stroke="none" /><path d="M 120.91429891909075 98.10471618934814 l 4.185669805451862 -0.3793114103273101 a25.202821536334362,25.202821536334362 0 0,0 0.035434586431686975,0.43239170698274204 l -4.191578875703044 0.307205786136799" fill="#ff2603" stroke="none" /><path d="M 120.98425023603335 99.18683210126433 l 27.38846334587259 -1.061339763777619 a48.40901980265588,48.40901980265588 0 0,0 0.02509962851019266,0.8329344756473307 l -27.40267466883843 0.5897351407052892" fill="#adff20" stroke="none" /><line stroke="#e1ed5e" stroke-width="0.3" x1="184.98032266829074" x2="189.97916517819016" y1="98.17113171792111" y2="98.06355123074" /><path d="M 185.9800911702706 98.14961562048488 a86.0,86.0 0 0,1 -9.607161424134198,41.387399972396054" fill="none" id="id88" stroke="none" /><text fill="#e1ed5e" style="font-size:6.75px; font-family:Arial;" text-anchor="middle"><textPath startOffset="21.466115282336823" xlink:href="#id88">April</textPath></text><path d="M 120.99513854157772 99.54816195383933 l 6.334273590670382 -0.1363204056685661 a27.335740302006222,27.335740302006222 0 0,0 0.0060750335914971035,0.4705180465833613 l -6.335681631379595 0.027266101024742133" fill="#ff4506" stroke="none" /><path d="M 120.99980553446 99.90962569577887 l 5.423395191866416 -0.023340005038468243 a26.423445414401712,26.423445414401712 0 0,0 -0.001957477411993044,0.45484881288135853 l -5.42299341716492 -0.070018286046575" fill="#ff3805" stroke="none" /><path d="M 120.9904718944345 100.63252640178507 l 28.652228456828755 0.8634055994580557 a49.665234427289846,49.665234427289846 0 0,0 -0.03310511206795489,0.854295843215257 l -28.633121211909597 -1.3564786896873189" fill="#9fff22" stroke="none" /><path d="M 120.89721153311464 102.0752229133903 l 24.131477884622463 2.396405652533291 a45.250174946740415,45.250174946740415 0 0,0 -0.0836432213384393,0.7744323481531039 l -24.08665236178297 -2.811434322571186" fill="#d2ff1c" stroke="none" /><path d="M 120.8583938346157 102.4346265915055 l 6.231204797367488 0.7273166389068274 a27.273508007484036,27.273508007484036 0 0,0 -0.058441271327656384,0.46583443336119446 l -6.2177620167929835 -0.8344688265554171" fill="#ff4406" stroke="none" /><path d="M 120.76222939487914 103.15116336523771 l 17.778468582042656 2.698306517101673 a38.98206893499497,38.98206893499497 0 0,0 -0.10639922870101093,0.66254809868719 l -17.729387598980356 -3.003933845482068" fill="#ffe015" stroke="none" /><path d="M 120.5718875245553 104.21870165774334 l 20.618241669240785 4.2282075578117935 a42.04731880034019,42.04731880034019 0 0,0 -0.1515024188613113,0.7077688631677602 l -20.54240521165503 -4.582490240395723" fill="#f8ff18" stroke="none" /><path d="M 120.32669344350535 105.2749913415812 l 17.180179697707764 4.458437837127597 a38.749260333688866,38.749260333688866 0 0,0 -0.17310203105888666,0.6441770531062793 l -17.100889590307098 -4.753505823409424" fill="#ffdd14" stroke="none" /><path d="M 120.23288151984713 105.62410040840565 l 25.059023034339756 6.965614934453581 a47.00912199307491,47.00912199307491 0 0,0 -0.2234217384965942,0.7777603818850964 l -24.935408658957062 -7.39593279184326" fill="#bdff1f" stroke="none" /><path d="M 120.02730092923936 106.31721596034902 l 7.526919973656503 2.374218031568701 a28.89249235357597,28.89249235357597 0 0,0 -0.15369120396896516,0.47301288826393134 l -7.484936518671291 -2.5034298198104272" fill="#ff5b08" stroke="none" /><path d="M 119.9155931802556 106.66101706037122 l 31.13353002785163 10.41299512337387 a53.828755069824794,53.828755069824794 0 0,0 -0.301464531196307,0.8761970400755394 l -30.949674665712095 -10.94736486653871" fill="#72ff27" stroke="none" /><path d="M 119.67450827220406 107.3425965602758 l 22.91314738888155 8.551268213416265 a45.456829543552715,45.456829543552715 0 0,0 -0.279896575786869,0.7307216371612496 l -22.762556533501176 -8.94441341741066" fill="#cfff1d" stroke="none" /><path d="M 119.54520255179757 107.68017299344265 l 1.470040057535709 0.5776436401333829 a22.579458750884662,22.579458750884662 0 0,0 -0.14525837374893397,0.36051937109232113 l -1.459879069529385 -0.6028623790685175" fill="#ff0000" stroke="none" /><path d="M 118.97047184881838 109.00673069616215 l 3.6914644145991984 1.752619867430013 a25.08639032936926,25.08639032936926 0 0,0 -0.1885621436563363,0.38849386619413306 l -3.660749014328148 -1.8159026895894215" fill="#ff2503" stroke="none" /><path d="M 118.81262510543309 109.33194174019688 l 14.467396686428103 7.176505259283236 a37.14954471862878,37.14954471862878 0 0,0 -0.28909657213108564,0.5704149634135365 l -14.341721444510748 -7.4244744343994675" fill="#ffc912" stroke="none" /><line stroke="#e1ed5e" stroke-width="0.3" x1="174.80103733775053" x2="179.2010983576182" y1="140.37084112569926" y2="142.7455964860345" /><path d="M 175.68104954172406 140.8457921977663 a86.0,86.0 0 0,1 -30.038265399797805,32.042727171017184" fill="none" id="id89" stroke="none" /><text fill="#e1ed5e" style="font-size:6.75px; font-family:Arial;" text-anchor="middle"><textPath startOffset="22.206326154141568" xlink:href="#id89">May</textPath></text><path d="M 118.48025628344425 109.97397251340804 l 15.13802642456552 8.170138830873466 a38.202064194351514,38.202064194351514 0 0,0 -0.317301962054415,0.575995227713869 l -14.995148053059596 -8.42950457698514" fill="#ffd614" stroke="none" /><path d="M 118.30583269289576 110.29060199501023 l 14.853500387469058 8.34987751087084 a38.03956948420617,38.03956948420617 0 0,0 -0.3257781256646351,0.5680216220162219 l -14.707570265652043 -8.604318978745379" fill="#ffd413" stroke="none" /><path d="M 116.93607887273984 112.41649034213513 l 24.898571926465827 18.254100029938435 a51.87314450911003,51.87314450911003 0 0,0 -0.5341420505329769,0.7155705649352987 l -24.58066860923776 -18.679983474383047" fill="#87ff25" stroke="none" /><path d="M 116.0416608686014 113.55231037782055 l 3.30599389476429 2.7929686169043 a25.327848117394034,25.327848117394034 0 0,0 -0.2842236726341664,0.3306163427588679 l -3.257427712559343 -2.8494620588246984" fill="#ff2803" stroke="none" /><path d="M 115.32070863581623 114.36230785411682 l 13.733968479839424 12.874827663327709 a39.82506514107219,39.82506514107219 0 0,0 -0.4731472782668371,0.4960930296448836 l -13.510314650193624 -13.1093278095551" fill="#ffeb16" stroke="none" /><path d="M 114.55890576462653 115.13401014063108 l 3.2367081759630887 3.364564284515476 a25.668679967719296,25.668679967719296 0 0,0 -0.32105916219097047,0.30358147735406155 l -3.178313179381311 -3.419780398615459" fill="#ff2d04" stroke="none" /><path d="M 113.48314897796784 116.09983520530334 l 3.668400521319678 4.380330140741144 a26.713532578598272,26.713532578598272 0 0,0 -0.3550735673705401,0.29220137266056234 l -3.592456825404447 -4.442826632258885" fill="#ff3c05" stroke="none" /><path d="M 113.20401910651253 116.32954008644616 l 14.88423357633611 18.40747782021378 a44.67225483253747,44.67225483253747 0 0,0 -0.6021022387509921,0.4783464331789665 l -14.565173844867767 -18.660958167397876" fill="#d8ff1c" stroke="none" /><path d="M 112.04921762599082 117.19931262002967 l 9.01169114600148 12.863481934370617 a36.70604166513004,36.70604166513004 0 0,0 -0.5206019906049799,0.35807479624050026 l -8.788932270773618 -13.01669751997621" fill="#ffc312" stroke="none" /><path d="M 111.7513745106137 117.40417183066458 l 14.146655442859279 20.951661606423524 a46.28042690084686,46.28042690084686 0 0,0 -0.6640696942067024,0.44010918270655713 l -13.783911049912613 -21.1920688102214" fill="#c6ff1e" stroke="none" /><path d="M 111.1453310114006 117.79835938074945 l 2.244276830203949 3.583962246881657 a25.228659820517997,25.228659820517997 0 0,0 -0.37004533250245575,0.22731206688121453 l -2.1822522977691845 -3.6220627805912495" fill="#ff2703" stroke="none" /><line stroke="#e1ed5e" stroke-width="0.3" x1="143.8653032363475" x2="146.44561519142675" y1="172.8068346515853" y2="177.08958963109032" /><path d="M 144.38136562736335 173.6633856474863 a86.0,86.0 0 0,1 -40.68145358897372,12.25698825130547" fill="none" id="id90" stroke="none" /><text fill="#e1ed5e" style="font-size:6.75px; font-family:Arial;" text-anchor="middle"><textPath startOffset="21.466115282336833" xlink:href="#id90">June</textPath></text><path d="M 109.89434966115114 118.52300852407294 l 6.91395820485013 12.943478970261413 a35.674347205651564,35.674347205651564 0 0,0 -0.5441341883999374,0.28466529000090246 l -6.690133113923697 -13.060573679207032" fill="#ffb610" stroke="none" /><path d="M 109.57404056367764 118.69057910512821 l 10.371893821809392 20.248159662283033 a43.75003628920608,43.75003628920608 0 0,0 -0.6732215840759223,0.33756727810649745 l -10.021818330050708 -20.42369478129883" fill="#e3ff1b" stroke="none" /><path d="M 106.2309692047433 120.05430185196036 l 2.8127972756540047 9.052955288463988 a30.479864343378267,30.479864343378267 0 0,0 -0.5023735154718877,0.15136101917889327 l -2.6565487857418715 -9.100031676748607" fill="#ff700a" stroke="none" /><path d="M 105.18746579009965 120.34920634021253 l 1.0296647407779114 4.0391322312563425 a25.168308848918837,25.168308848918837 0 0,0 -0.42072629285625457,0.10340428656421821 l -0.9599851631784462 -4.05625777613459" fill="#ff2603" stroke="none" /><path d="M 104.48393922423573 120.51570834832081 l 0.995182207867702 4.553332886337623 a25.66081838314476,25.66081838314476 0 0,0 -0.432334126222219,0.09059981965583865 l -0.916656620216105 -4.5697886867200035" fill="#ff2d04" stroke="none" /><path d="M 104.13013068566511 120.58985236759428 l 0.8579019954841623 4.2768805099054275 a25.36207550712555,25.36207550712555 0 0,0 -0.42877896031939755,0.08217650824773896 l -0.784155420593061 -4.291014216501635" fill="#ff2903" stroke="none" /><path d="M 101.98527174616119 120.90594882070398 l 1.998640715502848 21.04673105335434 a42.141415580369625,42.141415580369625 0 0,0 -0.7227366799850112,0.06236076186645569 l -1.636059717776295 -21.07801606749946" fill="#f7ff19" stroke="none" /><line stroke="#e1ed5e" stroke-width="0.3" x1="102.19456741930631" x2="102.32365962044197" y1="184.97166512339345" y2="189.96999836594603" /><path d="M 102.22038585953345 185.97133177190398 a86.0,86.0 0 0,1 -42.740103519485714,-10.115201625700543" fill="none" id="id91" stroke="none" /><text fill="#e1ed5e" style="font-size:6.75px; font-family:Arial;" text-anchor="middle"><textPath startOffset="22.20632615414155" xlink:href="#id91">July</textPath></text><path d="M 100.18074693466247 120.99922214144158 l 0.07735596935407975 8.987235039235353 a29.98756794669472,29.98756794669472 0 0,0 -0.5162058080330642,0.0 l 0.07735596935407354 -8.987235039235353" fill="#ff6a09" stroke="none" /><path d="M 99.81925306533755 120.99922214144158 l -0.04337863045283058 5.0397396712241065 a26.039926354550236,26.039926354550236 0 0,0 -0.448184716988606,-0.007715906351914191 l 0.13012303733410452 -5.038246287593033" fill="#ff3204" stroke="none" /><path d="M 99.45781275523022 120.99299961872073 l -0.13556899431661004 5.249108815179517 a26.250859196913904,26.250859196913904 0 0,0 -0.4516143418523579,-0.015554511070258549 l 0.22590368784361103 -5.245997505683165" fill="#ff3505" stroke="none" /><path d="M 99.09653310690486 120.98055641714683 l -0.46040163817195146 10.691573336042854 a31.701481676310713,31.701481676310713 0 0,0 -0.5449815778152056,-0.028169322571641606 l 0.644371284400646 -10.682064206709011" fill="#ff810b" stroke="none" /><path d="M 98.73552117531835 120.96189622390904 l -0.6604091536481715 10.947931965233076 a31.96783271962125,31.96783271962125 0 0,0 -0.5489900445659617,-0.03786156771254507 l 0.8487619589930633 -10.934942053004246" fill="#ff850c" stroke="none" /><path d="M 98.37488393609728 120.93702456842531 l -0.3877170598307199 4.995114987528266 a26.010139544674708,26.010139544674708 0 0,0 -0.446080931111906,-0.03848973974700342 l 0.47364230868416757 -4.987700995502599" fill="#ff3204" stroke="none" /><path d="M 98.01472825383883 120.90594882070398 l -1.687127072329478 17.76632962028801 a38.8462563563037,38.8462563563037 0 0,0 -0.6651355966490273,-0.06894402416804084 l 1.992695265584099 -17.734656227664207" fill="#ffdf14" stroke="none" /><path d="M 97.2962882734958 120.8252237178851 l -0.7117711478194176 5.48238676629945 a26.528397853100255,26.528397853100255 0 0,0 -0.4523362282293272,-0.06268967953548321 l 0.8060359672355752 -5.469322521271362" fill="#ff3905" stroke="none" /><path d="M 96.58105272829116 120.7198165907248 l -1.2168546711660684 7.3744938428154825 a28.474215325267405,28.474215325267405 0 0,0 -0.48291052736287243,-0.0839601851637861 l 1.3436141700009903 -7.35245507913069" fill="#ff5507" stroke="none" /><path d="M 95.86986931433489 120.58985236759428 l -5.108263628867301 25.46611765535249 a46.97339996493074,46.97339996493074 0 0,0 -0.7914090472992863,-0.16584746058760547 l 5.5458641375959745 -25.374414214038342" fill="#bdff1f" stroke="none" /><path d="M 95.16358092515715 120.4354850818985 l -4.6643924907061045 19.708615338103467 a41.25305102577591,41.25305102577591 0 0,0 -0.6896070503294934,-0.16948863491481245 l 5.0029528257788085 -19.625405444874623" fill="#fffc17" stroke="none" /><path d="M 94.46302465271185 120.25689768951611 l -6.909795066408439 25.279327238527916 a47.206671927055936,47.206671927055936 0 0,0 -0.7819871343301719,-0.22099737522006752 l 7.343913368843226 -25.156641069969325" fill="#bbff1f" stroke="none" /><path d="M 93.42475214034765 119.94407469862007 l -5.7689162485507905 17.498305622392657 a39.42474136419428,39.42474136419428 0 0,0 -0.6426801066707347,-0.218031985921502 l 6.069266088158751 -17.39641064957303" fill="#ffe615" stroke="none" /><path d="M 92.7421414339146 119.70592522655815 l -14.272303768139011 38.750955024102375 a62.295704015430466,62.295704015430466 0 0,0 -1.003049173634298,-0.3792673699624772 l 14.937223162533591 -38.499539404033264" fill="#32ff47" stroke="none" /><path d="M 92.06813273071674 119.44442032107085 l -9.632125999585023 23.61248621074946 a46.50151674557251,46.50151674557251 0 0,0 -0.7385515719669129,-0.30871461698047564 l 10.037149031049397 -23.443186550749008" fill="#c3ff1e" stroke="none" /><path d="M 91.7346041902142 119.30500536409082 l -6.282647695780133 14.67401565017992 a36.96240575135893,36.96240575135893 0 0,0 -0.5827375409136486,-0.25545501285881844 l 6.5343059113515265 -14.563696084026649" fill="#ffc712" stroke="none" /><path d="M 91.07499286063937 119.00905698771935 l -6.619315088064996 14.098245050559362 a36.574846571979656,36.574846571979656 0 0,0 -0.5675847222687116,-0.2724751587557551 l 6.861012478333949 -13.982215615304044" fill="#ffc212" stroke="none" /><path d="M 90.7491055286396 118.85261126421891 l -8.236399717027002 16.785148999651092 a39.69704541469402,39.69704541469402 0 0,0 -0.6108545286808766,-0.3062951418125886 l 8.524108153390637 -16.6408860169292" fill="#ffe915" stroke="none" /><path d="M 90.10565033884886 118.52300852407294 l -10.46670560595453 19.594504317881743 a43.214781693845346,43.214781693845346 0 0,0 -0.6531136142715778,-0.35612961687051803 l 10.802442032094751 -19.411434049251458" fill="#eaff1a" stroke="none" /><line stroke="#e1ed5e" stroke-width="0.3" x1="58.666819895761336" x2="56.23545636021788" y1="174.27360380694188" y2="178.64263932499728" /><path d="M 58.180547188652646 175.14741091055294 a86.0,86.0 0 0,1 -31.652253787137756,-30.449443065178592" fill="none" id="id92" stroke="none" /><text fill="#e1ed5e" style="font-size:6.75px; font-family:Arial;" text-anchor="middle"><textPath startOffset="22.20632615414155" xlink:href="#id92">August</textPath></text><path d="M 89.4739219176387 118.17145234162733 l -11.58671472448454 20.002457968160055 a44.116017885323515,44.116017885323515 0 0,0 -0.6538248651523433,-0.38629125492703664 l 11.929307460665266 -19.80004814093927" fill="#dfff1b" stroke="none" /><path d="M 88.8546689885994 117.79835938074946 l -5.336586952977664 8.522177794320982 a31.055181483429777,31.055181483429777 0 0,0 -0.45062280660649867,-0.28760879565644093 l 5.482491561631086 -8.429054569840735" fill="#ff780b" stroke="none" /><path d="M 87.65650970185807 116.9893568818739 l -5.875188267485179 8.086502910730959 a30.99546729791338,30.99546729791338 0 0,0 -0.42894041169873903,-0.3173198620577719 l 6.013513649602483 -7.984173099933418" fill="#ff780b" stroke="none" /><path d="M 87.36589467227662 116.77436683061367 l -12.592863011833877 16.71960919501312 a41.931448360512015,41.931448360512015 0 0,0 -0.572806090823323,-0.4392032847385717 l 12.878797831150687 -16.50036656844718" fill="#f9ff18" stroke="none" /><path d="M 86.79598089348748 116.32954008644616 l -12.002969674370956 14.844190459961165 a40.08982114676486,40.08982114676486 0 0,0 -0.5328698392077568,-0.43851560007402407 l 12.2567096421234 -14.635379741029961" fill="#ffee16" stroke="none" /><path d="M 86.24171649860922 115.8653595955263 l -24.244863430076645 27.957955410913556 a58.00622479396809,58.00622479396809 0 0,0 -0.7487157528297402,-0.6606546001843643 l 24.722521535812973 -27.536477668956902" fill="#46ff2c" stroke="none" /><path d="M 85.70375840098266 115.38237550388516 l -6.6173073401728955 7.120046595893541 a30.72027880063125,30.72027880063125 0 0,0 -0.38424363802139433,-0.3633263430278635 l 6.738886812585107 -7.005085616119749" fill="#ff740a" stroke="none" /><path d="M 85.18274418774928 114.88116024355367 l -20.057163679668527 20.14366698734844 a49.42634578292127,49.42634578292127 0 0,0 -0.5977278038485547,-0.6054951095454795 l 20.400932108572615 -19.795431383822294" fill="#a2ff22" stroke="none" /><path d="M 84.9287848128048 114.62390073753433 l -45.21364556158557 43.87170221260298 a84.0,84.0 0 0,0 -0.99797379448417,-1.0463715336699995 l 45.962125907448694 -43.086923562350485" fill="#4dd2ff" stroke="none" /><path d="M 84.4343377721795 114.09645910891817 l -17.749303831426992 16.073992356347592 a44.94600210415571,44.94600210415571 0 0,0 -0.5143987547343379,-0.5779324540477813 l 18.023361435809665 -15.766085732558944" fill="#d5ff1c" stroke="none" /><path d="M 83.95833913139862 113.55231037782056 l -16.934692600105233 14.306761135863413 a43.169060143783966,43.169060143783966 0 0,0 -0.47466231752552984,-0.5717613390463052 l 17.1784509175243 -14.013138539703345" fill="#eaff1a" stroke="none" /><path d="M 83.50135304334701 112.99209946851258 l -13.702006238961173 10.789844066757173 a38.44034718569174,38.44034718569174 0 0,0 -0.40489251148788674,-0.5233781511579031 l 13.885705567667127 -10.552387921486018" fill="#ffd914" stroke="none" /><path d="M 83.28015986056508 112.70617746262583 l -11.854971579137947 9.009139527813886 a35.889759775556726,35.889759775556726 0 0,0 -0.3695598186897179,-0.4950857697373187 l 12.008292664522749 -8.80374087856726" fill="#ffb911" stroke="none" /><path d="M 82.85270091963577 112.12312394758628 l -41.38688903554542 29.260490718183664 a71.68580571628966,71.68580571628966 0 0,0 -0.7036784266527366,-1.0137012564103056 l 41.88442836936029 -28.543748199586346" fill="#3effb2" stroke="none" /><path d="M 82.6465618267979 111.8261652097733 l -13.801404712301183 9.405495938359065 a37.701560582149746,37.701560582149746 0 0,0 -0.360852218961015,-0.5394251062747096 l 13.961260036672927 -9.166533917878535" fill="#ffd013" stroke="none" /><path d="M 82.05923443525364 110.91462005526583 l -11.978336842953869 7.2872584541061185 a35.020866210766265,35.020866210766265 0 0,0 -0.3088825796117861,-0.5177049703221391 l 12.102000298263887 -7.079991389897868" fill="#ffad10" stroke="none" /><line stroke="#e1ed5e" stroke-width="0.3" x1="26.63291911575756" x2="22.317208475507996" y1="142.92168965132927" y2="145.44649492493687" /><path d="M 25.769776987707644 143.4266507060508 a86.0,86.0 0 0,1 -11.730757126820373,-40.83630448921669" fill="none" id="id93" stroke="none" /><text fill="#e1ed5e" style="font-size:6.75px; font-family:Arial;" text-anchor="middle"><textPath startOffset="21.46611528233685" xlink:href="#id93">September</textPath></text><path d="M 81.87401531095188 110.60418214915194 l -47.40222040139339 27.7315571006928 a75.91820971418552,75.91820971418552 0 0,0 -0.6501780225134034,-1.1336401859207421 l 47.87255042005917 -26.91149706891375" fill="#43ffde" stroke="none" /><path d="M 81.69416730710424 110.29060199501025 l -8.07237040942319 4.537873388950514 a30.260424338067686,30.260424338067686 0 0,0 -0.25133961259840387,-0.4562544033916343 l 8.14928643147311 -4.398248467161058" fill="#ff6d0a" stroke="none" /><path d="M 81.51974371655577 109.97397251340807 l -7.783440221688635 4.200797740041336 a29.844695774153955,29.844695774153955 0 0,0 -0.24010411875403107,-0.4541865070829593 l 7.854596848667552 -4.066196217872251" fill="#ff6809" stroke="none" /><path d="M 81.35079622478065 109.6543875284942 l -17.921667913405674 9.277754121755434 a41.180755742591614,41.180755742591614 0 0,0 -0.3204673277457694,-0.6323124403856731 l 18.07871391093771 -8.967887469667076" fill="#fffc17" stroke="none" /><path d="M 80.87730276802145 108.67885076344099 l -16.909710828070896 7.674485191573846 a39.569761529019814,39.569761529019814 0 0,0 -0.27615720605405564,-0.6226615962786631 l 17.039309118856227 -7.382275258802488" fill="#ffe815" stroke="none" /><path d="M 80.73074385275274 108.34839909993369 l -23.304661184104294 10.096737049262252 a46.397860775030686,46.397860775030686 0 0,0 -0.31119491261613946,-0.7355728479334552 l 23.475007077912743 -9.694089675662637" fill="#c4ff1e" stroke="none" /><path d="M 80.20201598880116 107.00284435728193 l -42.96307121942657 15.196683697202594 a66.57153370250273,66.57153370250273 0 0,0 -0.372829655313629,-1.0836174960345886 l 43.21829170568342 -14.45489349807871" fill="#37ff79" stroke="none" /><path d="M 79.97269907076064 106.31721596034903 l -18.453819258242593 5.820892288953788 a40.350096440469926,40.350096440469926 0 0,0 -0.20323618715225739,-0.6641876187806705 l 18.551282217900983 -5.502377697621069" fill="#fff116" stroke="none" /><path d="M 79.86692584326677 105.97154293290107 l -21.37066572202847 6.338617087003132 a43.29088199193407,43.29088199193407 0 0,0 -0.20574994183284678,-0.7162425393766761 l 21.476608300747422 -5.9698170721218595" fill="#e9ff1a" stroke="none" /><path d="M 79.50377843672027 104.57218783832718 l -21.16367552575453 4.721079909992616 a42.683859372260216,42.683859372260216 0 0,0 -0.15379596430251705,-0.7184835439084676 l 21.241805528781487 -4.356082546667984" fill="#f0ff19" stroke="none" /><path d="M 79.4281124754447 104.21870165774334 l -14.691182193729698 3.01273835961422 a35.9969139049623,35.9969139049623 0 0,0 -0.11925274823987578,-0.6080671940810504 l 14.740864874945242 -2.759407438465215" fill="#ffba11" stroke="none" /><path d="M 79.29508885075956 103.50808413554451 l -20.72645229240815 3.511733904532334 a42.02184815009644,42.02184815009644 0 0,0 -0.11469612449808415,-0.714212876735581 l 20.783830171267528 -3.1544417981035386" fill="#f8ff18" stroke="none" /><path d="M 79.0095281055655 100.63252640178507 l -18.41331453506522 0.55486640064008 a39.42167280378748,39.42167280378748 0 0,0 -0.01460091904380978,-0.6784473347561001 l 18.420137516794036 -0.237829250093851" fill="#ffe615" stroke="none" /><line stroke="#e1ed5e" stroke-width="0.3" x1="15.007084014347285" x2="10.007500721073583" y1="101.09737516637583" y2="101.16192664675087" /><path d="M 14.007167355692545 101.11028546245083 a86.0,86.0 0 0,1 10.666146001902534,-42.60595125391555" fill="none" id="id94" stroke="none" /><text fill="#e1ed5e" style="font-size:6.75px; font-family:Arial;" text-anchor="middle"><textPath startOffset="22.20632615414155" xlink:href="#id94">October</textPath></text><path d="M 79.00175016825051 100.2711162175752 l -20.50179813632938 0.2647063449929861 a41.5035069261792,41.5035069261792 0 0,0 -0.0030746246771517828,-0.7144344940534234 l 20.503317058296034 0.08823762726411262" fill="#feff18" stroke="none" /><path d="M 79.00019446554 99.90962569577889 l -25.630036197147472 -0.11030086372363603 a46.63027354024197,46.63027354024197 0 0,0 0.010363007367204103,-0.8026263410247441 l 25.62434018266255 0.5514634628088521" fill="#c1ff1e" stroke="none" /><path d="M 79.01574976396665 99.18683210126434 l -18.18512370095385 -0.7046979835743641 a39.19877257583728,39.19877257583728 0 0,0 0.03193093144991694,-0.6740114957688299 l 18.17029916127043 1.0176205859662029" fill="#ffe315" stroke="none" /><path d="M 79.03285615573316 98.82574320788736 l -11.083823664194442 -0.6207452630138754 a32.10119235490093,32.10119235490093 0 0,0 0.03564670636999712,-0.5514387699381439 l 11.071496366820032 0.8114430972050313" fill="#ff870c" stroke="none" /><path d="M 79.05617556472873 98.46500227214037 l -12.597143008568738 -0.9232595486768568 a33.63093108890058,33.63093108890058 0 0,0 0.0472843142871768,-0.5769884010797688 l 12.579384210462063 1.1399618669644036" fill="#ff9b0e" stroke="none" /><path d="M 79.08570108090925 98.10471618934814 l -12.350975960241001 -1.1192631832295097 a33.40158688409609,33.40158688409609 0 0,0 0.05681908048927065,-0.5721603864529199 l 12.329879754069502 1.3316991003868601" fill="#ff980e" stroke="none" /><path d="M 79.12142395522702 97.74499172005258 l -8.960556680855506 -0.9677925096489536 a30.012668770822373,30.012668770822373 0 0,0 0.05989620731454175,-0.5131541262736022 l 8.942570120537376 1.1218903742474176" fill="#ff6a09" stroke="none" /><path d="M 79.16333360222342 97.38593545837743 l -27.30822393500875 -3.425953965976644 a48.52228651586884,48.52228651586884 0 0,0 0.11110217478786155,-0.8278402504628134 l 27.245205761163056 3.8955125585041173" fill="#acff21" stroke="none" /><path d="M 79.21141760316559 97.0276538004421 l -17.35164369979275 -2.4809335828024235 a38.52810801332632,38.52810801332632 0 0,0 0.09952013317414032,-0.655713333419819 l 17.306367673179306 2.779246028614334" fill="#ffda14" stroke="none" /><path d="M 79.26566170972629 96.67025291283419 l -8.539447344185529 -1.3713579629230706 a29.64886024899176,29.64886024899176 0 0,0 0.08525902278493663,-0.503203578713265 l 8.51457645988037 1.5181473299521642" fill="#ff6509" stroke="none" /><path d="M 79.32604984820605 96.31383870115002 l -22.3285670167686 -3.981179164681725 a43.68071190601438,43.68071190601438 0 0,0 0.13835194912049692,-0.7390816443927879 l 22.256729343738243 4.364938886537085" fill="#e4ff1a" stroke="none" /><path d="M 79.3925641242962 95.95851677861259 l -15.412456548817117 -3.0226557499977926 a36.706058214974576,36.706058214974576 0 0,0 0.12693427579793576,-0.6189766085812296 l 15.358142977104187 3.287508014742425" fill="#ffc312" stroke="none" /><path d="M 79.62865764111835 94.90015583598534 l -23.693339271692437 -5.931486294916568 a45.424513413992635,45.424513413992635 0 0,0 0.19641487814271236,-0.7568666481552193 l 23.587728061679417 6.338449368620651" fill="#cfff1d" stroke="none" /><path d="M 79.81627453868168 94.20196356495316 l -14.082068108769509 -4.045256369144248 a35.65157811678064,35.65157811678064 0 0,0 0.17451295186030316,-0.5883709186374443 l 14.010349259797499 4.287056674528231" fill="#ffb610" stroke="none" /><path d="M 80.02781315780177 93.51064311812611 l -26.07999419480502 -8.473903791532003 a48.42212870419078,48.42212870419078 0 0,0 0.26439106278828833,-0.7904956254073182 l 25.93026583824496 8.921572519861643" fill="#adff20" stroke="none" /><path d="M 80.14247586403 93.16781622104843 l -18.364989027977092 -6.318661847188008 a40.42159389794845,40.42159389794845 0 0,0 0.23203326729308033,-0.6559892925733546 l 18.253502679874202 6.633848766187974" fill="#fff216" stroke="none" /><path d="M 80.2630227832202 92.82701384747504 l -17.91359384026206 -6.510316100933344 a40.059933368402596,40.059933368402596 0 0,0 0.2411138934617441,-0.6460653601916285 l 17.798875358298687 6.817704598154314" fill="#ffee16" stroke="none" /><path d="M 80.38941819471856 92.48833698450439 l -15.316117703302496 -5.866705844591025 a37.40127126073996,37.40127126073996 0 0,0 0.2354613953949694,-0.5992235682780688 l 15.212862758025834 6.129478417764858" fill="#ffcc13" stroke="none" /><path d="M 80.52162464483688 92.15188598940014 l -19.469324382921993 -7.8444672453661015 a41.990241977906365,41.990241977906365 0 0,0 0.27589251215960975,-0.6680956017922555 l 19.331410183876184 8.178437417611669" fill="#f9ff18" stroke="none" /><path d="M 80.65960295795068 91.81776055985345 l -3.5395786555651916 -1.4974708127293739 a24.84331053831317,24.84331053831317 0 0,0 0.17001021536280164,-0.3924070169932981 l 3.513277730359709 1.55817697430927" fill="#ff2103" stroke="none" /><path d="M 80.803312248108 91.48605970444005 l -22.755239101445643 -10.092196613543646 a45.89283710327898,45.89283710327898 0 0,0 0.3264896919622956,-0.7193767583902568 l 22.578147092519995 10.482395380775975" fill="#caff1d" stroke="none" /><path d="M 80.95270993114464 91.15688171328213 l -14.69883237732192 -6.824252317227798 a37.205742591618446,37.205742591618446 0 0,0 0.2746878824220665,-0.5785627345247204 l 14.579186301058103 7.07625746739305" fill="#ffca12" stroke="none" /><path d="M 81.10775173730289 90.83032412892265 l -17.291889655699215 -8.392914444930144 a40.22109416096791,40.22109416096791 0 0,0 0.30767219261987855,-0.6202483659099912 l 17.144857450125926 8.689322399339098" fill="#fff016" stroke="none" /><path d="M 81.43458229118936 90.18545643968196 l -29.963525099216948 -15.840113425909411 a54.89280203401719,54.89280203401719 0 0,0 0.4487928343068832,-0.8315449621517519 l 29.68642416569159 16.353539371393637" fill="#66ff29" stroke="none" /><line stroke="#e1ed5e" stroke-width="0.3" x1="26.266209847984243" x2="21.928928074336255" y1="57.71137044288968" y2="55.22380399835378" /><path d="M 25.398753493254645 57.2138571539825 a86.0,86.0 0 0,1 29.58750427330803,-30.4925239686951" fill="none" id="id95" stroke="none" /><text fill="#e1ed5e" style="font-size:6.75px; font-family:Arial;" text-anchor="middle"><textPath startOffset="21.46611528233685" xlink:href="#id95">November</textPath></text><line stroke="#e1ed5e" stroke-width="0.3" x1="56.76296977257108" x2="54.21961505331056" y1="26.818313649435495" y2="22.513508569990535" /><path d="M 56.25429882871898 25.957352633546506 a86.0,86.0 0 0,1 42.26535254187918,-11.944610805530505" fill="none" id="id96" stroke="none" /><text fill="#e1ed5e" style="font-size:6.75px; font-family:Arial;" text-anchor="middle"><textPath startOffset="22.20632615414155" xlink:href="#id96">December</textPath></text></svg>