<?xml version="1.0" encoding="utf-8" ?>
<svg baseProfile="full" height="200mm" version="1.1" viewBox="0,0,200,200" width="200mm" xmlns="http://www.w3.org/2000/svg" xmlns:ev="http://www.w3.org/2001/xml-events" xmlns:xlink="http://www.w3.org/1999/xlink"><defs /><rect fill="#1a1a1a" height="200" width="200" x="0" y="0" /><text alignment-baseline="middle" fill="#e1ed5e" style="dominant-baseline: central; font-size:9.0px; font-family:Arial;" text-anchor="middle" x="100.0" y="100.0">2023</text><line stroke="#e1ed5e" stroke-width="0.3" x1="100.0" x2="100.0" y1="15.0" y2="10.0" /><path d="M 100.0 14.0 a86.0,86.0 0 0,1 42.46469731375804,11.215312516191453" fill="none" id="id85" stroke="none" /><text fill="#e1ed5e" style="font-size:6.75px; font-family:Arial;" text-anchor="middle"><textPath startOffset="22.20632615414155" xlink:href="#id85">January</textPath></text><path d="M 100.0 79.0 l 0.0 -43.114602025098506 a64.1146020250985,64.1146020250985 0 0,0 1.1036274794476204,0.009499270143235837 l -0.7421470001750919 43.10821413156383" fill="#32ff49" stroke="none" /><path d="M 101.44485096284872 79.0497635885617 l 3.4479845140986654 -49.99553072998071 a71.11428628826225,71.11428628826225 0 0,0 1.2204898311802312,0.09473350064612424 l -4.308064534641238 49.92877196714612" fill="#3bffa0" stroke="none" /><path d="M 109.41281617654863 81.2277094730956 l 24.134831626546905 -48.13289270858616 a74.84482758945408,74.84482758945408 0 0,0 1.1466923016730768,0.5873803346875817 l -24.959784415808738 47.71031984858608" fill="#41ffcb" stroke="none" /><path d="M 109.73455568895987 81.39251694778311 l 23.471628892705102 -44.86572893350009 a71.63448425343321,71.63448425343321 0 0,0 1.0876671496950894,0.5809941230683232 l -24.240441088928502 44.45505608393001" fill="#3cffa6" stroke="none" /><path d="M 110.05341064243156 81.56283822128135 l 14.501181079922505 -26.594021776510306 a51.29069571604797,51.29069571604797 0 0,0 0.7714997729255105,0.4293387883479655 l -14.956804941920051 26.34046759060216" fill="#acff21" stroke="none" /><path d="M 110.36928655335952 81.73862282372117 l 18.15838274777243 -31.978774485779194 a57.77456840843848,57.77456840843848 0 0,0 0.8605749418364274,0.4985005525806303 l -18.706154422074185 31.661469775808513" fill="#60ff29" stroke="none" /><line stroke="#e1ed5e" stroke-width="0.3" x1="143.23703022742887" x2="145.7803849466894" y1="26.81831364943548" y2="22.513508569990506" /><path d="M 143.74570117128098 25.957352633546492 a86.0,86.0 0 0,1 28.547481713284135,27.462654790039103" fill="none" id="id86" stroke="none" /><text fill="#e1ed5e" style="font-size:6.75px; font-family:Arial;" text-anchor="middle"><textPath startOffset="19.985693538727396" xlink:href="#id86">February</textPath></text><path d="M 110.68208982089419 81.91981866633111 l 21.387718802162347 -36.200204336443655 a63.04627581083303,63.04627581083303 0 0,0 0.9295961226066324,0.5600712625484874 l -22.007676990986614 35.826686464436555" fill="#31ff3b" stroke="none" /><path d="M 115.19652480421416 85.50635884689758 l 27.9032110636146 -26.61260606524706 a59.55930483352428,59.55930483352428 0 0,0 0.7011907826461791,0.7479814378134718 l -28.35716916823124 26.128355210555533" fill="#4cff2c" stroke="none" /><path d="M 115.4437574822437 85.77008943001952 l 27.670952211491812 -25.496073465829017 a58.626205741020634,58.626205741020634 0 0,0 0.6774296023624446,0.7480346867270752 l -28.105725454470296 25.015985991832395" fill="#56ff2a" stroke="none" /><path d="M 115.68641384162765 86.03803664274999 l 4.888696282577254 -4.351268495858172 a27.54468401577437,27.54468401577437 0 0,0 0.3121837576634043,0.3568800014284535 l -4.962871903818507 4.266472938226771" fill="#ff0300" stroke="none" /><path d="M 116.38621287248628 86.86637796730983 l 31.585536714735806 -25.31594726244124 a61.478924335419656,61.478924335419656 0 0,0 0.6547385979566213,0.8314515296592775 l -32.016629393286394 24.768503338828925" fill="#37ff2e" stroke="none" /><path d="M 116.60985879189232 87.15038557335679 l 21.45649301707824 -16.59903709428268 a48.127645033236846,48.127645033236846 0 0,0 0.501270186148683,0.659612806740916 l -21.739039143451038 16.22723951166073" fill="#d3ff1c" stroke="none" /><path d="M 116.82858285166822 87.43820079747576 l 17.524131802577937 -13.080995996090747 a42.867959476912006,42.867959476912006 0 0,0 0.4363088412127097,0.5951247690803934 l -17.746703256304272 12.777408783338858" fill="#ffe515" stroke="none" /><line stroke="#e1ed5e" stroke-width="0.3" x1="172.23445277983987" x2="176.4835382374775" y1="55.19839476539836" y2="52.563006222186495" /><path d="M 173.08426987136738 54.67131705675599 a86.0,86.0 0 0,1 12.851231095245387,41.99856678651699" fill="none" id="id87" stroke="none" /><text fill="#e1ed5e" style="font-size:6.75px; font-family:Arial;" text-anchor="middle"><textPath startOffset="22.20632615414155" xlink:href="#id87">March</textPath></text><path d="M 118.3937258080291 89.86733742301442 l 19.99842389652914 -11.016652282954077 a43.832073621745025,43.832073621745025 0 0,0 0.3583624778720758,0.6639912456689906 l -20.185094473619678 10.670780053952628" fill="#fff216" stroke="none" /><path d="M 118.89224826269711 90.83032412892265 l 39.76796650043595 -19.302062824406256 a65.20475979865881,65.20475979865881 0 0,0 0.4814030347285004,1.0139575642185157 l -40.09432772900621 18.6146628445472" fill="#33ff57" stroke="none" /><path d="M 119.196687751892 91.48605970444005 l 8.21300047447972 -3.642555246554661 a29.98451921462729,29.98451921462729 0 0,0 0.2051930462877423,0.47361384155482467 l -8.274484230610142 3.5006422604132332" fill="#ff2904" stroke="none" /><path d="M 119.47837535516314 92.15188598940014 l 20.43152722039209 -8.232152431224595 a43.027610814805584,43.027610814805584 0 0,0 0.27088227061415243,0.6893658321713452 l -20.570203040887943 7.879237594157465" fill="#ffe715" stroke="none" /><path d="M 119.61058180528143 92.48833698450437 l 23.45786777813336 -8.985332488398468 a46.11986784645684,46.11986784645684 0 0,0 0.2775876035573131,0.7437967696599868 l -23.6090599701923 8.580212581709148" fill="#edff19" stroke="none" /><path d="M 119.7369772167798 92.82701384747503 l 18.00678273521427 -6.544183630176535 a40.159085673869754,40.159085673869754 0 0,0 0.23052638359428154,0.6517291294377024 l -18.11676219961836 6.233256874312218" fill="#ffc011" stroke="none" /><path d="M 119.85752413597 93.16781622104841 l 25.009619182954783 -8.604814645045545 a47.448513885509904,47.448513885509904 0 0,0 0.25907500041049103,0.774601275538898 l -25.154031477137043 8.173040266584334" fill="#dcff1b" stroke="none" /><path d="M 120.08093135843002 93.85539295169968 l 6.3651691858064785 -1.9476917053606377 a27.65649169931661,27.65649169931661 0 0,0 0.1353773453937573,0.45642510898436495 l -6.3977524283119385 1.8378372096297428" fill="#ff0400" stroke="none" /><path d="M 120.28053869075195 94.5502522615342 l 36.88973350124892 -9.912938940458845 a59.19841353028202,59.19841353028202 0 0,0 0.25597300457182437,0.9863684045753798 l -37.054902837691046 9.276474110334615" fill="#50ff2b" stroke="none" /><path d="M 120.37134235888165 94.90015583598534 l 43.29538748551084 -10.838742254040483 a65.6314789265385,65.6314789265385 0 0,0 0.2649236515877957,1.0982795696580998 l -43.475543937359454 10.091877452722978" fill="#34ff5c" stroke="none" /><path d="M 120.45610955862082 95.25157060432595 l 21.989997350354763 -5.104487220797769 a43.57467105531988,43.57467105531988 0 0,0 0.16331291412350102,0.7320997715712461 l -22.074604651480303 4.725209279676559" fill="#ffef16" stroke="none" /><path d="M 120.53481517161879 95.60439243477599 l 30.438290444517552 -6.515509325612305 a52.12782335719845,52.12782335719845 0 0,0 0.18026472545802005,0.8790348210475004 l -30.545934465890568 5.990598848401393" fill="#a2ff22" stroke="none" /><path d="M 120.91429891909075 98.10471618934814 l 6.34942075016418 -0.5753936290839987 a27.375438941046013,27.375438941046013 0 0,0 0.03848923644772798,0.46966617432320795 l -6.358384470431402 0.4660135375530218" fill="#ff0000" stroke="none" /><path d="M 120.96714384426684 98.82574320788733 l 31.90914876969776 -1.787059551441799 a52.9591513818359,52.9591513818359 0 0,0 0.043139999579011976,0.910617207935817 l -31.93518237751027 1.2375312368829823" fill="#98ff23" stroke="none" /><path d="M 120.98425023603335 99.18683210126433 l 41.2582196311893 -1.5988114602950343 a62.28918605665441,62.28918605665441 0 0,0 0.03229636618542983,1.0717591626127494 l -41.27962769183038 0.8883821502572857" fill="#2fff31" stroke="none" /><line stroke="#e1ed5e" stroke-width="0.3" x1="184.98032266829074" x2="189.97916517819016" y1="98.17113171792111" y2="98.06355123074" /><path d="M 185.9800911702706 98.14961562048488 a86.0,86.0 0 0,1 -9.607161424134198,41.387399972396054" fill="none" id="id88" stroke="none" /><text fill="#e1ed5e" style="font-size:6.75px; font-family:Arial;" text-anchor="middle"><textPath startOffset="21.466115282336823" xlink:href="#id88">April</textPath></text><path d="M 120.99513854157772 99.54816195383933 l 9.850745934605987 -0.21199868662467203 a30.853026890823294,30.853026890823294 0 0,0 0.006856707471257286,0.5310595500056265 l -9.85293564919496 0.04240287855858284" fill="#ff3705" stroke="none" /><path d="M 120.99980553446 99.90962569577887 l 8.299956922418076 -0.035719513244919884 a29.300033782920536,29.300033782920536 0 0,0 -0.0021705781892258458,0.5043659286113148 l -8.299342046939346 -0.10715589357007961" fill="#ff1f03" stroke="none" /><path d="M 120.99824983174949 100.27111621757518 l 43.63691446391509 0.5634124410797556 a64.64055152618727,64.64055152618727 0 0,0 -0.02394143608463001,1.112464458786091 l -43.620750965145454 -1.3144667156559615" fill="#33ff4f" stroke="none" /><path d="M 120.9904718944345 100.63252640178507 l 44.04612067952842 1.3272847969368469 a65.06611432663153,65.06611432663153 0 0,0 -0.04337080115393394,1.1192076639603457 l -44.01674774552328 -2.085269707911199" fill="#33ff55" stroke="none" /><path d="M 120.92983693683757 101.71520430193887 l 37.06404624344739 3.037405965267295 a58.18829599395821,58.18829599395821 0 0,0 -0.09040079279771078,0.9975652155461711 l -37.00627085437261 -3.674952569362037" fill="#5bff2a" stroke="none" /><path d="M 120.89721153311464 102.0752229133903 l 37.09652073600331 3.6839149432172293 a58.27898979352288,58.27898979352288 0 0,0 -0.10772648831563075,0.997413489934802 l -37.02761194618663 -4.3219247550368225" fill="#5aff2a" stroke="none" /><path d="M 120.8583938346157 102.4346265915055 l 9.626322403498497 1.123600440560694 a30.691674827712973,30.691674827712973 0 0,0 -0.0657656688539803,0.5242170881850053 l -9.60555522539767 -1.2891352830330947" fill="#ff3405" stroke="none" /><path d="M 120.81339534386255 102.79330883721812 l 21.397059275196064 2.8716407763574976 a42.588896830887236,42.588896830887236 0 0,0 -0.10376672964325738,0.7257442654424854 l -21.344458494536205 -3.2395305137803923" fill="#ffe115" stroke="none" /><path d="M 120.76222939487914 103.15116336523771 l 27.136021195212557 4.118538247619886 a48.446784941120754,48.446784941120754 0 0,0 -0.1322326056981425,0.8234125619082123 l -27.061106835153126 -4.585030039221304" fill="#cfff1d" stroke="none" /><path d="M 120.64145759157962 103.86396538481128 l 31.96435509999449 5.983548453699236 a53.519576397245864,53.519576397245864 0 0,0 -0.17730288176525996,0.9040635742886372 l -31.856622285253565 -6.5328757550558185" fill="#91ff24" stroke="none" /><path d="M 120.5718875245553 104.21870165774334 l 31.695739203371417 6.499883268419435 a53.355345248524465,53.355345248524465 0 0,0 -0.1922468327342296,0.8981132002682175 l -31.579158331912744 -7.0445102881038215" fill="#93ff23" stroke="none" /><path d="M 120.41448212921028 104.9243191809786 l 29.158168787044787 7.033444636580191 a50.994468664566,50.994468664566 0 0,0 -0.2131779705849501,0.8515400240659581 l -29.03277950216478 -7.534312500043546" fill="#afff20" stroke="none" /><path d="M 120.32669344350535 105.2749913415812 l 60.980080330516046 15.82497402474362 a84.0,84.0 0 0,0 -0.3752476946328911,1.396436267297807 l -60.69864455954138 -16.872301225216972" fill="#4dd2ff" stroke="none" /><path d="M 120.23288151984713 105.62410040840565 l 38.23944283308471 10.629354293593545 a60.689270097640865,60.689270097640865 0 0,0 -0.2884398103691824,1.004096819643268 l -38.05081038582943 -11.286008588741396" fill="#3fff2d" stroke="none" /><path d="M 120.02730092923936 106.31721596034902 l 36.60246974934897 11.545525126213875 a59.380202477215285,59.380202477215285 0 0,0 -0.31586803585377116,0.9721418538670411 l -36.39830946247895 -12.17386588005871" fill="#4eff2c" stroke="none" /><path d="M 119.9155931802556 106.66101706037122 l 36.42692396211739 12.183436354236433 a59.4103750403405,59.4103750403405 0 0,0 -0.3327240400878794,0.9670518051662138 l -36.21180909108629 -12.808660862491946" fill="#4dff2c" stroke="none" /><line stroke="#e1ed5e" stroke-width="0.3" x1="174.80103733775053" x2="179.2010983576182" y1="140.37084112569926" y2="142.7455964860345" /><path d="M 175.68104954172406 140.8457921977663 a86.0,86.0 0 0,1 -30.038265399797805,32.042727171017184" fill="none" id="id89" stroke="none" /><text fill="#e1ed5e" style="font-size:6.75px; font-family:Arial;" text-anchor="middle"><textPath startOffset="22.206326154141568" xlink:href="#id89">May</textPath></text><line stroke="#e1ed5e" stroke-width="0.3" x1="143.8653032363475" x2="146.44561519142675" y1="172.8068346515853" y2="177.08958963109032" /><path d="M 144.38136562736335 173.6633856474863 a86.0,86.0 0 0,1 -40.68145358897372,12.25698825130547" fill="none" id="id90" stroke="none" /><text fill="#e1ed5e" style="font-size:6.75px; font-family:Arial;" text-anchor="middle"><textPath startOffset="21.466115282336833" xlink:href="#id90">June</textPath></text><line stroke="#e1ed5e" stroke-width="0.3" x1="102.19456741930631" x2="102.32365962044197" y1="184.97166512339345" y2="189.96999836594603" /><path d="M 102.22038585953345 185.97133177190398 a86.0,86.0 0 0,1 -42.740103519485714,-10.115201625700543" fill="none" id="id91" stroke="none" /><text fill="#e1ed5e" style="font-size:6.75px; font-family:Arial;" text-anchor="middle"><textPath startOffset="22.20632615414155" xlink:href="#id91">July</textPath></text><line stroke="#e1ed5e" stroke-width="0.3" x1="58.666819895761336" x2="56.23545636021788" y1="174.27360380694188" y2="178.64263932499728" /><path d="M 58.180547188652646 175.14741091055294 a86.0,86.0 0 0,1 -31.652253787137756,-30.449443065178592" fill="none" id="id92" stroke="none" /><text fill="#e1ed5e" style="font-size:6.75px; font-family:Arial;" text-anchor="middle"><textPath startOffset="22.20632615414155" xlink:href="#id92">August</textPath></text><line stroke="#e1ed5e" stroke-width="0.3" x1="26.63291911575756" x2="22.317208475507996" y1="142.92168965132927" y2="145.44649492493687" /><path d="M 25.769776987707644 143.4266507060508 a86.0,86.0 0 0,1 -11.730757126820373,-40.83630448921669" fill="none" id="id93" stroke="none" /><text fill="#e1ed5e" style="font-size:6.75px; font-family:Arial;" text-anchor="middle"><textPath startOffset="21.46611528233685" xlink:href="#id93">September</textPath></text><line stroke="#e1ed5e" stroke-width="0.3" x1="15.007084014347285" x2="10.007500721073583" y1="101.09737516637583" y2="101.16192664675087" /><path d="M 14.007167355692545 101.11028546245083 a86.0,86.0 0 0,1 10.666146001902534,-42.60595125391555" fill="none" id="id94" stroke="none" /><text fill="#e1ed5e" style="font-size:6.75px; font-family:Arial;" text-anchor="middle"><textPath startOffset="22.20632615414155" xlink:href="#id94">October</textPath></text><line stroke="#e1ed5e" stroke-width="0.3" x1="26.266209847984243" x2="21.928928074336255" y1="57.71137044288968" y2="55.22380399835378" /><path d="M 25.398753493254645 57.2138571539825 a86.0,86.0 0 0,1 29.58750427330803,-30.4925239686951" fill="none" id="id95" stroke="none" /><text fill="#e1ed5e" style="font-size:6.75px; font-family:Arial;" text-anchor="middle"><textPath startOffset="21.46611528233685" xlink:href="#id95">November</textPath></text><line stroke="#e1ed5e" stroke-width="0.3" x1="56.76296977257108" x2="54.21961505331056" y1="26.818313649435495" y2="22.513508569990535" /><path d="M 56.25429882871898 25.957352633546506 a86.0,86.0 0 0,1 42.26535254187918,-11.944610805530505" fill="none" id="id96" stroke="none" /><text fill="#e1ed5e" style="font-size:6.75px; font-family:Arial;" text-anchor="middle"><textPath startOffset="22.20632615414155" xlink:href="#id96">December</textPath></text></svg>