<?xml version="1.0" encoding="utf-8" ?>
<svg baseProfile="full" height="200mm" version="1.1" viewBox="0,0,200,200" width="200mm" xmlns="http://www.w3.org/2000/svg" xmlns:ev="http://www.w3.org/2001/xml-events" xmlns:xlink="http://www.w3.org/1999/xlink"><defs /><rect fill="#1a1a1a" height="200" width="200" x="0" y="0" /><text alignment-baseline="middle" fill="#e1ed5e" style="dominant-baseline: central; font-size:9.0px; font-family:Arial;" text-anchor="middle" x="100.0" y="100.0">2024</text><line stroke="#e1ed5e" stroke-width="0.3" x1="100.0" x2="100.0" y1="15.0" y2="10.0" /><path d="M 100.0 14.0 a86.0,86.0 0 0,1 42.35913384403234,11.155469271406648" fill="none" id="id97" stroke="none" /><text fill="#e1ed5e" style="font-size:6.75px; font-family:Arial;" text-anchor="middle"><textPath startOffset="22.145653131862478" xlink:href="#id97">January</textPath></text><path d="M 100.36049292484886 79.00309439819443 l 0.1641631750222917 -9.5616819405844 a30.563091084002664,30.563091084002664 0 0,0 0.5245014813103711,0.013509297623715675 l -0.3282779704034042 9.557454925610639" fill="#ff770a" stroke="none" /><path d="M 101.08105385017728 79.02784411241856 l 0.5085041670503515 -9.864844992796533 a30.87794225635129,30.87794225635129 0 0,0 0.5291239007369386,0.03183077993778003 l -0.6777724199197525 9.854662235034061" fill="#ff7b0b" stroke="none" /><path d="M 101.44090949804482 79.04949213459386 l 0.4084831156004557 -5.939254851109867 a26.95328536542326,26.95328536542326 0 0,0 0.4613260215716224,0.03570955169931507 l -0.5103781319473116 5.931367532415498" fill="#ff4506" stroke="none" /><path d="M 101.80034050326958 79.07731436759882 l 0.801907485982274 -9.319380531074987 a30.353817888918616,30.353817888918616 0 0,0 0.5187618330126046,0.04912728494093784 l -0.9617688823798916 9.304241490628865" fill="#ff740a" stroke="none" /><path d="M 102.87502721639298 79.19773525538626 l 1.1856203881242435 -8.578558512331316 a29.66010172308778,29.66010172308778 0 0,0 0.5037625547498925,0.0740357475319157 l -1.332708048481818 8.556941691500517" fill="#ff6a09" stroke="none" /><path d="M 103.23170211078529 79.25015418208739 l 1.2936815934037729 -8.306363854209582 a29.406502991353253,29.406502991353253 0 0,0 0.4981216509791205,0.08196572811109543 l -1.4360807474359638 8.28293212760282" fill="#ff6709" stroke="none" /><path d="M 103.58742460773223 79.30868818359171 l 1.9376111741583377 -11.175626352413001 a32.342352552754264,32.342352552754264 0 0,0 0.5462242421765882,0.09954025261143123 l -2.1291701498859794 11.140717925870204" fill="#ff8f0d" stroke="none" /><path d="M 103.94208987418118 79.37332000966035 l 4.9028667095969976 -25.65387037888193 a47.118176953772064,47.118176953772064 0 0,0 0.7931638642158426,0.15865498669273276 l -5.342527059343797 25.56592599552634" fill="#b9ff1f" stroke="none" /><path d="M 104.9986988182912 79.60360301121754 l 1.0621079022160802 -4.3337626862519505 a25.462014367603444,25.462014367603444 0 0,0 0.42363300208855237,0.10768585252694207 l -1.136346197530027 4.314891601889741" fill="#ff3004" stroke="none" /><path d="M 105.3480935250658 79.69241777938227 l 3.1600400307952152 -11.999186709254047 a33.408317157445936,33.408317157445936 0 0,0 0.5533349557539196,0.1508139027619836 l -3.365556387483828 11.94317231234792" fill="#ff9d0e" stroke="none" /><path d="M 105.69591212413111 79.78721728523813 l 2.5190873578283894 -8.939352344916333 a30.287508894366237,30.287508894366237 0 0,0 0.4992246644613321,0.14531702404647773 l -2.672172034671326 8.89479162656734" fill="#ff730a" stroke="none" /><path d="M 106.04205211174951 79.88797359093562 l 2.772103056573884 -9.227429497677505 a30.634833184382344,30.634833184382344 0 0,0 0.502351988926528,0.1556299302897181 l -2.930095678372042 9.17848297958114" fill="#ff780b" stroke="none" /><path d="M 106.38641147887787 79.99465700312896 l 1.1388191015443843 -3.5673346155557923 a24.744700950060626,24.744700950060626 0 0,0 0.40354749710009863,0.13265407776858795 l -1.1998893362922252 3.547259616385183" fill="#ff2603" stroke="none" /><path d="M 106.72888874123014 80.10723608172694 l 3.8884207723645194 -11.49542508640371 a33.13526324477865,33.13526324477865 0 0,0 0.5372555179340947,0.18688535790304556 l -4.085182062343632 11.426981295932073" fill="#ff990e" stroke="none" /><path d="M 107.06938296918511 80.22567764915836 l 1.6362120745582938 -4.576776380299084 a25.86046005931475,25.86046005931475 0 0,0 0.41673620129939665,0.1530313055149953 l -1.7145374275118153 4.5480142257753675" fill="#ff3605" stroke="none" /><path d="M 107.74402155503746 80.48000691201159 l 3.4123851370062255 -8.601439680211948 a30.253601293312006,30.253601293312006 0 0,0 0.48109786594403275,0.19565831380956827 l -3.5595374641406976 8.541594109823086" fill="#ff730a" stroke="none" /><path d="M 108.07796709384702 80.6158196554323 l 2.9244826962216752 -7.017693850388204 a28.602672294547254,28.602672294547254 0 0,0 0.45160204234601836,0.19276205796014897 l -3.0445198137381233 6.966457142768654" fill="#ff5c08" stroke="none" /><path d="M 108.73861861582097 80.90454125486305 l 4.182429825310156 -9.139363976709877 a31.050905090708305,31.050905090708305 0 0,0 0.4827843312676667,0.225967444243226 l -4.338702870449328 9.066220300896118" fill="#ff7d0b" stroke="none" /><path d="M 109.06512990194946 81.05736502329252 l 4.363015291557314 -9.117023910268504 a31.107226494680454,31.107226494680454 0 0,0 0.47970268924694004,0.2346466235189855 l -4.518878230066321 9.040783536652297" fill="#ff7e0b" stroke="none" /><path d="M 109.3889696526874 81.21577127319529 l 4.979839532651129 -9.963014927556886 a32.138243497862504,32.138243497862504 0 0,0 0.49136738710020117,0.2508956889846098 l -5.150134141464909 9.876061286899441" fill="#ff8c0c" stroke="none" /><path d="M 109.71004243097381 81.37971332152246 l 4.539410152427355 -8.704917510943547 a30.8174249884729,30.8174249884729 0 0,0 0.4669737761900397,0.24863723341865002 l -4.688172744403954 8.625709809802323" fill="#ff7a0b" stroke="none" /><path d="M 110.02825361518725 81.54914285379988 l 5.320109762375783 -9.788402746320783 a32.14075384378931,32.14075384378931 0 0,0 0.4825028307761305,0.2676361866878258 l -5.487356781308014 9.69563364419981" fill="#ff8c0c" stroke="none" /><path d="M 110.34350942703115 81.72400993836675 l 4.648414575783811 -8.213303152928063 a30.43748413245063,30.43748413245063 0 0,0 0.45251484788241547,0.26125956923721516 l -4.788721891526624 8.132296686414676" fill="#ff750a" stroke="none" /><line stroke="#e1ed5e" stroke-width="0.3" x1="143.13028292997686" x2="145.6673583964461" y1="26.7553504044142" y2="22.446841604673864" /><path d="M 143.63769802327073 25.89364864446614 a86.0,86.0 0 0,1 29.32050498858742,28.57503671076993" fill="none" id="id98" stroke="none" /><text fill="#e1ed5e" style="font-size:6.75px; font-family:Arial;" text-anchor="middle"><textPath startOffset="20.669276256404974" xlink:href="#id98">February</textPath></text><path d="M 110.65571695917076 81.90426304109057 l 4.205236271717416 -7.14141054183794 a29.287566387549596,29.287566387549596 0 0,0 0.431039400501957,0.2588267752335217 l -4.327208428776808 7.068169766068498" fill="#ff6509" stroke="none" /><path d="M 110.96478420261332 82.08984904055464 l 2.4605555469321536 -4.0191325679854435 a25.712511029014134,25.712511029014134 0 0,0 0.3744670576934601,0.23369513946455997 l -2.5291867334153264 3.9763016316793376" fill="#ff3404" stroke="none" /><path d="M 111.8722381534696 82.67804972795209 l 2.3452456810140356 -3.421783537115792 a25.148346644048885,25.148346644048885 0 0,0 0.35399879604022527,0.24711865256805865 l -2.4036395682280216 3.3810200687426066" fill="#ff2b04" stroke="none" /><path d="M 112.16784306229584 82.88440491214696 l 13.707758535262611 -19.281679049478853 a44.657679324654325,44.657679324654325 0 0,0 0.6209947807347096,0.4495523315000245 l -14.036734326371288 19.043525946605754" fill="#d5ff1c" stroke="none" /><path d="M 113.03279911837588 83.53348406188908 l 4.867374672247296 -6.1497688937988855 a28.84289446870037,28.84289446870037 0 0,0 0.3856009715624845,0.31061284743015505 l -4.97222641416504 6.065307752575322" fill="#ff5f08" stroke="none" /><path d="M 113.31354834802062 83.75963576809568 l 5.203312987644087 -6.3471957980684985 a29.207396697272774,29.207396697272774 0 0,0 0.38501700181525106,0.32119487651846806 l -5.3115043236212305 6.25693873763816" fill="#ff6409" stroke="none" /><path d="M 113.59037401385872 83.9905735841838 l 4.666829363604677 -5.497513255750789 a28.211237640388678,28.211237640388678 0 0,0 0.366504977599258,0.3165782704947495 l -4.7605138209667945 5.41659085279132" fill="#ff5708" stroke="none" /><path d="M 114.39649973595853 84.71141617570332 l 26.641469617768408 -28.292317502452036 a59.861589430362095,59.861589430362095 0 0,0 0.7420770842170225,0.7108930602171429 l -27.12321918785074 27.83081231192931" fill="#32ff2f" stroke="none" /><path d="M 114.65682725009322 84.96080404539774 l 1.5613797351125078 -1.6021131582725474 a23.237112703716566,23.237112703716566 0 0,0 0.28328040976200636,0.28085922422727744 l -1.5886520650044769 1.5750739238166107" fill="#ff1001" stroke="none" /><path d="M 115.41159269507618 85.73525988315684 l 17.87365939394832 -16.543592296797645 a45.354838250613355,45.354838250613355 0 0,0 0.5239613351211218,0.5759252918142002 l -18.15501842991132 16.23432942942577" fill="#cdff1d" stroke="none" /><path d="M 115.8921839302757 86.27271002978787 l 5.607076004645141 -4.843258707454878 a28.409214278802093,28.409214278802093 0 0,0 0.315620197035043,0.3717997984915861 l -5.689390765187297 4.746292126513739" fill="#ff5908" stroke="none" /><path d="M 116.1254893667686 86.54754324733833 l 5.4202776775129005 -4.521788417437125 a28.05875205637747,28.05875205637747 0 0,0 0.3053770014609415,0.37251028817646165 l -5.497101498212469 4.428075847562168" fill="#ff5407" stroke="none" /><path d="M 116.57777611688842 87.10902102172516 l 5.601818652115682 -4.356008066182361 a28.096138279644567,28.096138279644567 0 0,0 0.29279925268953255,0.3832836207528797 l -5.675769882159522 4.259203532188599" fill="#ff5507" stroke="none" /><path d="M 117.42321728460499 88.27688183743584 l 10.846057642330866 -7.2977116259334665 a34.072626413848454,34.072626413848454 0 0,0 0.32235229381980424,0.4880824582438902 l -10.969734375071395 7.110449289350518" fill="#ffa60f" stroke="none" /><path d="M 117.62189284568427 88.57770195909679 l 7.139784141073319 -4.627921819818948 a29.508476829108627,29.508476829108627 0 0,0 0.2718746768333275,0.42743214916552896 l -7.218176509532537 4.504675995974747" fill="#ff6809" stroke="none" /><path d="M 117.81537515405839 88.88188828441811 l 6.530967273087773 -4.0758066066578404 a28.698424060612616,28.698424060612616 0 0,0 0.25723632275481767,0.4201762011598296 l -6.599971560297993 3.963093289373456" fill="#ff5d08" stroke="none" /><line stroke="#e1ed5e" stroke-width="0.3" x1="172.87174338648825" x2="177.1583165268699" y1="56.24261187166439" y2="53.66864786411523" /><path d="M 173.72905801456457 55.72781907015455 a86.0,86.0 0 0,1 12.242430191666344,42.057860355516425" fill="none" id="id99" stroke="none" /><text fill="#e1ed5e" style="font-size:6.75px; font-family:Arial;" text-anchor="middle"><textPath startOffset="22.145653131862474" xlink:href="#id99">March</textPath></text><path d="M 118.18653347947321 89.5 l 5.359511051019212 -3.0943151480307174 a27.188630296061433,27.188630296061433 0 0,0 0.2298949329214047,0.40620231836510884 l -5.411839348961993 3.0018560595664905" fill="#ff4806" stroke="none" /><path d="M 119.0197475246899 91.09779779509293 l 26.824872762149788 -12.555394919915217 a50.6177605551223,50.6177605551223 0 0,0 0.36159287797693057,0.790145695504193 l -27.03645010498177 12.09306024219634" fill="#92ff23" stroke="none" /><path d="M 119.16976305983485 91.42560881287824 l 6.7065089735934595 -2.9997361605380304 a28.346814251478598,28.346814251478598 0 0,0 0.19487235860342791,0.4459060927753284 l -6.757015214213857 2.884167997986853" fill="#ff5808" stroke="none" /><path d="M 119.31412917781788 91.75594674310238 l 1.0491426877538719 -0.4478166275216354 a22.140719120183523,22.140719120183523 0 0,0 0.14620692977839947,0.35084340670423764 l -1.0566754620687546 0.42974071137612" fill="#ff0000" stroke="none" /><path d="M 119.71291397450082 92.76114493625339 l 9.271531953901619 -3.4046349575717016 a30.876884324853563,30.876884324853563 0 0,0 0.17843873482081252,0.4991248992456096 l -9.328610858766375 3.244975101945175" fill="#ff7b0b" stroke="none" /><path d="M 120.05942366710727 93.78553927170692 l 4.03962054944748 -1.25148477236222 a25.229036334553403,25.229036334553403 0 0,0 0.124611832922956,0.41479226399831515 l -4.060508702374063 1.1819549047731812" fill="#ff2d04" stroke="none" /><path d="M 120.26092885502905 94.47779374421319 l 6.4680125984742665 -1.7628855956886134 a27.703950521707945,27.703950521707945 0 0,0 0.12111971815038429,0.45991129798851277 l -6.497321797429381 1.651593793327302" fill="#ff4f07" stroke="none" /><path d="M 120.43855184770803 95.1765574152323 l 11.286170587383758 -2.6635055279733155 a32.59620231908148,32.59620231908148 0 0,0 0.12384870950150036,0.5457002656841017 l -11.330230158442925 2.4693709283501875" fill="#ff920d" stroke="none" /><path d="M 120.51834098615036 95.52812308129327 l 9.469490067942056 -2.0638312861325403 a30.691782174836202,30.691782174836202 0 0,0 0.10777534649772931,0.5157440481062651 l -9.503523125264152 1.900970786740871" fill="#ff790b" stroke="none" /><path d="M 120.592083275326 95.88100663000786 l 15.927130625114302 -3.1858721903311613 a37.24263745709358,37.24263745709358 0 0,0 0.12001654104347362,0.6279772569024303 l -15.979473458439932 2.9119923683954165" fill="#ffce13" stroke="none" /><path d="M 120.65975698304385 96.23510406497455 l 3.8145160704708174 -0.6951318962556822 a24.877336870207714,24.877336870207714 0 0,0 0.07295596816471002,0.4207906370799618 l -3.825886856127762 0.6295482262551277" fill="#ff2803" stroke="none" /><path d="M 120.7213421655516 96.59031103205396 l 62.16402649665483 -10.229066903838131 a84.0,84.0 0 0,0 0.22191403144693922,1.424847272274235 l -62.330462020240034 9.160431449632455" fill="#4dd2ff" stroke="none" /><path d="M 120.82617615685814 97.30363454192243 l 6.832509868641732 -0.8846051941087104 a27.889536809868336,27.889536809868336 0 0,0 0.0573965521955631,0.4753257891394811 l -6.8466885070969585 0.7671857280458164" fill="#ff5207" stroke="none" /><path d="M 120.86939407059847 97.66154086499901 l 7.410034915607004 -0.8303098681475293 a28.45640878222607,28.45640878222607 0 0,0 0.05022909486289652,0.485920928636883 l -7.423196402951567 0.7029844172277148" fill="#ff5a08" stroke="none" /><path d="M 120.9064616781168 98.02013634271609 l 12.431539570263094 -1.177279722326875 a33.48715995059001,33.48715995059001 0 0,0 0.049284133343525646,0.5727563351150762 l -12.44991732630436 0.9637023398361368" fill="#ff9e0e" stroke="none" /><path d="M 120.93736805541906 98.37931529534042 l 13.973693571517565 -1.0816522582501402 a35.015494412914904,35.015494412914904 0 0,0 0.041244982362965456,0.5996929915281913 l -13.990202515045596 0.8416158425676147" fill="#ffb210" stroke="none" /><path d="M 120.96210409425399 98.7389718711861 l 5.613457048996984 -0.3376916366241261 a26.623605221064135,26.623605221064135 0 0,0 0.02352818075422112,0.45644042102788723 l -5.6184268192077775 0.24127942221950827" fill="#ff4006" stroke="none" /><path d="M 120.98066250479742 99.09900007780936 l 7.400170227189204 -0.3177951505282724 a28.406990829552633,28.406990829552633 0 0,0 0.016740257285398977,0.48737432564153843 l -7.404535171471451 0.19071456032261402" fill="#ff5908" stroke="none" /><path d="M 120.99303781780057 99.45929381324524 l 9.026917831172698 -0.2325013826490274 a30.02991154019115,30.02991154019115 0 0,0 0.008849626745356253,0.5154463918018107 l -9.02957888951672 0.07750807487815033" fill="#ff700a" stroke="none" /><line stroke="#e1ed5e" stroke-width="0.3" x1="184.99686870605535" x2="189.99668451229388" y1="99.2704041080226" y2="99.22748670261217" /><path d="M 185.99683186730306 99.26182062694052 a86.0,86.0 0 0,1 -10.086455211305974,41.156179273409016" fill="none" id="id100" stroke="none" /><text fill="#e1ed5e" style="font-size:6.75px; font-family:Arial;" text-anchor="middle"><textPath startOffset="21.40746469413373" xlink:href="#id100">April</textPath></text><line stroke="#e1ed5e" stroke-width="0.3" x1="174.33088141563837" x2="178.70328620479359" y1="141.23008692659167" y2="143.65538615756765" /><path d="M 175.20536237346943 141.71514677278685 a86.0,86.0 0 0,1 -30.301960400862466,31.631185727798858" fill="none" id="id101" stroke="none" /><text fill="#e1ed5e" style="font-size:6.75px; font-family:Arial;" text-anchor="middle"><textPath startOffset="22.145653131862474" xlink:href="#id101">May</textPath></text><line stroke="#e1ed5e" stroke-width="0.3" x1="143.1302829299769" x2="145.66735839644613" y1="173.24464959558577" y2="177.55315839532614" /><path d="M 143.63769802327073 174.10635135553383 a86.0,86.0 0 0,1 -40.68552437913181,11.842963189579606" fill="none" id="id102" stroke="none" /><text fill="#e1ed5e" style="font-size:6.75px; font-family:Arial;" text-anchor="middle"><textPath startOffset="21.407464694133747" xlink:href="#id102">June</textPath></text><line stroke="#e1ed5e" stroke-width="0.3" x1="101.45913802915013" x2="101.54496967792366" y1="184.9874750549273" y2="189.98673829345242" /><path d="M 101.47630435890484 185.9873277026323 a86.0,86.0 0 0,1 -42.54439059252881,-10.42667462771756" fill="none" id="id103" stroke="none" /><text fill="#e1ed5e" style="font-size:6.75px; font-family:Arial;" text-anchor="middle"><textPath startOffset="22.145653131862474" xlink:href="#id103">July</textPath></text><line stroke="#e1ed5e" stroke-width="0.3" x1="58.13341422392154" x2="55.67067388415222" y1="173.97424548756322" y2="178.32567169271397" /><path d="M 57.64086615596768 174.84453072859336 a86.0,86.0 0 0,1 -31.369924170532247,-30.572349798747897" fill="none" id="id104" stroke="none" /><text fill="#e1ed5e" style="font-size:6.75px; font-family:Arial;" text-anchor="middle"><textPath startOffset="22.145653131862474" xlink:href="#id104">August</textPath></text><line stroke="#e1ed5e" stroke-width="0.3" x1="26.387840678322732" x2="22.057713659400548" y1="142.50000000000003" y2="145.00000000000006" /><path d="M 25.521815274538298 143.00000000000003 a86.0,86.0 0 0,1 -11.493303480769221,-40.785679425670985" fill="none" id="id105" stroke="none" /><text fill="#e1ed5e" style="font-size:6.75px; font-family:Arial;" text-anchor="middle"><textPath startOffset="21.40746469413373" xlink:href="#id105">September</textPath></text><line stroke="#e1ed5e" stroke-width="0.3" x1="15.003131293944662" x2="10.003315487706104" y1="100.72959589197737" y2="100.7725132973878" /><path d="M 14.003168132696942 100.73817937305945 a86.0,86.0 0 0,1 10.791469493833604,-42.45332614584628" fill="none" id="id106" stroke="none" /><text fill="#e1ed5e" style="font-size:6.75px; font-family:Arial;" text-anchor="middle"><textPath startOffset="22.145653131862435" xlink:href="#id106">October</textPath></text><line stroke="#e1ed5e" stroke-width="0.3" x1="26.387840678322718" x2="22.05771365940052" y1="57.49999999999999" y2="54.99999999999999" /><path d="M 25.521815274538284 56.99999999999999 a86.0,86.0 0 0,1 29.574782752854787,-30.34633250058573" fill="none" id="id107" stroke="none" /><text fill="#e1ed5e" style="font-size:6.75px; font-family:Arial;" text-anchor="middle"><textPath startOffset="21.40746469413373" xlink:href="#id107">November</textPath></text><line stroke="#e1ed5e" stroke-width="0.3" x1="56.869717070023135" x2="54.33264160355391" y1="26.7553504044142" y2="22.446841604673864" /><path d="M 56.362301976729285 25.89364864446614 a86.0,86.0 0 0,1 42.16139366436587,-11.88097634709845" fill="none" id="id108" stroke="none" /><text fill="#e1ed5e" style="font-size:6.75px; font-family:Arial;" text-anchor="middle"><textPath startOffset="22.145653131862474" xlink:href="#id108">December</textPath></text></svg>