<?xml version="1.0" encoding="utf-8" ?>
<svg baseProfile="full" height="200mm" version="1.1" viewBox="0,0,200,200" width="200mm" xmlns="http://www.w3.org/2000/svg" xmlns:ev="http://www.w3.org/2001/xml-events" xmlns:xlink="http://www.w3.org/1999/xlink"><defs /><rect fill="#1a1a1a" height="200" width="200" x="0" y="0" /><text alignment-baseline="middle" fill="#e1ed5e" style="dominant-baseline: central; font-size:9.0px; font-family:Arial;" text-anchor="middle" x="100.0" y="100.0">2020</text><line stroke="#e1ed5e" stroke-width="0.3" x1="100.0" x2="100.0" y1="15.0" y2="10.0" /><path d="M 100.0 14.0 a86.0,86.0 0 0,1 42.35913384403234,11.155469271406648" fill="none" id="id49" stroke="none" /><text fill="#e1ed5e" style="font-size:6.75px; font-family:Arial;" text-anchor="middle"><textPath startOffset="22.145653131862478" xlink:href="#id49">January</textPath></text><path d="M 101.80034050326958 79.07731436759882 l 0.07800440922782548 -0.9065294755358749 a21.909879320500433,21.909879320500433 0 0,0 0.37445072639568006,0.03546087310462325 l -0.09355469900851848 0.9050568469260679" fill="#ff0000" stroke="none" /><path d="M 104.29559338865022 79.4440306129975 l 0.1908213948241828 -0.913149452356238 a21.932874443352986,21.932874443352986 0 0,0 0.36788489002488617,0.08017879952154446 l -0.20646870146820312 0.9097391947009748" fill="#ff0000" stroke="none" /><path d="M 105.69591212413111 79.78721728523813 l 2.004302887129908 -7.112563864967762 a28.389573383937833,28.389573383937833 0 0,0 0.46794126569560823,0.13621088259491415 l -2.12610416520712 7.077109288070332" fill="#ff5c08" stroke="none" /><path d="M 106.04205211174951 79.88797359093562 l 0.4379729215919148 -1.4578694130066225 a22.522236350054758,22.522236350054758 0 0,0 0.3693210978962106,0.11441662019281033 l -0.46293465235975556 1.4501362050071656" fill="#ff0901" stroke="none" /><path d="M 106.38641147887787 79.99465700312896 l 3.0232936881435077 -9.470424417784793 a30.941289824652674,30.941289824652674 0 0,0 0.5046042015616578,0.16587342376630496 l -3.185420627352908 9.417130072616466" fill="#ff7f0b" stroke="none" /><path d="M 106.72888874123014 80.10723608172694 l 3.0182966733421956 -8.923057798564324 a30.419717367566193,30.419717367566193 0 0,0 0.49322562760372374,0.17156947646833387 l -3.1710280729909375 8.8699298895274" fill="#ff780b" stroke="none" /><path d="M 107.06938296918511 80.22567764915836 l 3.423108554973978 -9.575043862106927 a31.168536627283572,31.168536627283572 0 0,0 0.5022748057970724,0.1844422659196707 l -3.586972512425175 9.514870747178534" fill="#ff820b" stroke="none" /><path d="M 107.40779381753099 80.34994680014964 l 4.119648973247077 -10.927858345279242 a32.67859562093255,32.67859562093255 0 0,0 0.5232119176435773,0.20238960961668098 l -4.306633153384181 10.855528847524523" fill="#ff960d" stroke="none" /><path d="M 107.74402155503746 80.48000691201159 l 1.2375293536920464 -3.1193823853108626 a24.35589412333541,24.35589412333541 0 0,0 0.3873115326764689,0.15751622854068772 l -1.290895347558955 3.0976789001908815" fill="#ff2303" stroke="none" /><path d="M 108.07796709384702 80.6158196554323 l 1.8803512864891336 -4.512158569723371 a25.888281489330314,25.888281489330314 0 0,0 0.4087450526655502,0.17446895749969057 l -1.9575314143251137 4.479214962564279" fill="#ff3905" stroke="none" /><path d="M 108.4095320186766 80.7573450057729 l 1.6681087474524738 -3.816959261085213 a25.165544957638993,25.165544957638993 0 0,0 0.39436397882823976,0.1763939916225682 l -1.733386129136345 3.7877615185527924" fill="#ff2f04" stroke="none" /><path d="M 108.73861861582097 80.90454125486305 l 1.4466717471059027 -3.161238850108657 a24.476534224095996,24.476534224095996 0 0,0 0.3805649842608432,0.1781236284866265 l -1.500725445238251 3.135938990051497" fill="#ff2503" stroke="none" /><path d="M 109.06512990194946 81.05736502329252 l 2.068965243643296 -4.323341619340883 a25.792900993858417,25.792900993858417 0 0,0 0.39775079184091866,0.19455984383575092 l -2.142876284746282 4.28718802540791" fill="#ff3805" stroke="none" /><path d="M 109.71004243097381 81.37971332152246 l 1.668947813806213 -3.20042749199124 a24.60944911817605,24.60944911817605 0 0,0 0.3729048546064386,0.19855083112846206 l -1.7236414841992111 3.171306193140205" fill="#ff2703" stroke="none" /><line stroke="#e1ed5e" stroke-width="0.3" x1="143.13028292997686" x2="145.6673583964461" y1="26.7553504044142" y2="22.446841604673864" /><path d="M 143.63769802327073 25.89364864446614 a86.0,86.0 0 0,1 29.32050498858742,28.57503671076992" fill="none" id="id50" stroke="none" /><text fill="#e1ed5e" style="font-size:6.75px; font-family:Arial;" text-anchor="middle"><textPath startOffset="20.669276256404974" xlink:href="#id50">February</textPath></text><path d="M 111.8722381534696 82.67804972795209 l 1.9076808324212247 -2.7833633462349527 a24.37436774456365,24.37436774456365 0 0,0 0.34310394070614114,0.23951319740776242 l -1.9551798643011267 2.7502053330220635" fill="#ff2403" stroke="none" /><path d="M 114.91283532996326 85.21462403516908 l 1.1602631510595516 -1.1503464315794303 a22.633862751994233,22.633862751994233 0 0,0 0.27118945758774793,0.27826427397229203 l -1.1798394097981135 1.1302594655393985" fill="#ff0b01" stroke="none" /><path d="M 115.16444852881244 85.47280134310134 l 3.4895029926505168 -3.3428649312080396 a25.83232626009642,25.83232626009642 0 0,0 0.3040147017240242,0.3228530779267778 l -3.5463735281107986 3.2824703933367645" fill="#ff3805" stroke="none" /><path d="M 115.41159269507618 85.73525988315684 l 21.408216127624915 -19.81512524162061 a50.17106282102539,50.17106282102539 0 0,0 0.5796007234089218,0.6370827261287136 l -21.745214551875712 19.444704939934223" fill="#95ff23" stroke="none" /><path d="M 115.6541949942343 86.00192230759917 l 8.85380007562238 -7.91712262286206 a32.87731478089745,32.87731478089745 0 0,0 0.3725922459335381,0.4239415800571546 l -8.988403385514507 7.763968764993609" fill="#ff980e" stroke="none" /><path d="M 115.8921839302757 86.27271002978787 l 8.454447611371876 -7.302750484668947 a32.171743331045704,32.171743331045704 0 0,0 0.35742107717079863,0.4210411301846849 l -8.578563252049786 7.156542572034708" fill="#ff8f0d" stroke="none" /><path d="M 116.1254893667686 86.54754324733833 l 9.172169395339774 -7.651749929101296 a32.944788336103294,32.944788336103294 0 0,0 0.35855410303459856,0.43737770562055733 l -9.302170317613001 7.493169941782246" fill="#ff990e" stroke="none" /><path d="M 116.7966241395341 87.39550010848427 l 9.54745949034895 -7.164591593563644 a32.93672297669746,32.93672297669746 0 0,0 0.33548088220202443,0.4551442476760229 l -9.669042392134804 6.999641036618746" fill="#ff990e" stroke="none" /><path d="M 117.01052211995028 87.68569379921539 l 7.930668834956074 -5.741192640767355 a30.79064865614862,30.79064865614862 0 0,0 0.3062715052732478,0.4308092275982319 l -8.028055438759282 5.604206186459619" fill="#ff7d0b" stroke="none" /><path d="M 117.21940702142032 87.97951657250589 l 8.484785141015378 -5.923038990050603 a31.347655278702273,31.347655278702273 0 0,0 0.3042368510749928,0.44389065794686133 l -8.585211728905694 5.776513597033693" fill="#ff840c" stroke="none" /><path d="M 117.42321728460499 88.27688183743584 l 8.486873396872321 -5.710347178541322 a31.22912923733071,31.22912923733071 0 0,0 0.2954507034878043,0.4473500217399598 l -8.58364853928085 5.563817278462305" fill="#ff820c" stroke="none" /><path d="M 117.62189284568427 88.57770195909679 l 6.406195384674971 -4.15241845088945 a28.634259512088782,28.634259512088782 0 0,0 0.26382012518963127,0.4147690561561668 l -6.476533201490493 4.04183572005461" fill="#ff5f08" stroke="none" /><path d="M 117.81537515405839 88.88188828441811 l 53.44612546217514 -33.35433514674568 a84.0,84.0 0 0,0 0.7529281421783907,1.2298515355017905 l -54.010821568808936 32.43194649511934" fill="#4dd2ff" stroke="none" /><line stroke="#e1ed5e" stroke-width="0.3" x1="172.87174338648825" x2="177.1583165268699" y1="56.24261187166439" y2="53.66864786411523" /><path d="M 173.72905801456457 55.72781907015455 a86.0,86.0 0 0,1 12.242430191666344,42.057860355516425" fill="none" id="id51" stroke="none" /><text fill="#e1ed5e" style="font-size:6.75px; font-family:Arial;" text-anchor="middle"><textPath startOffset="22.145653131862474" xlink:href="#id51">March</textPath></text><path d="M 118.00360718960297 89.18935116829356 l 1.431330517426484 -0.859472850248497 a22.669551026602853,22.669551026602853 0 0,0 0.19746937439620837,0.3353461686535135 l -1.44587360195246 0.834775513301427" fill="#ff0b01" stroke="none" /><path d="M 118.18653347947321 89.5 l 12.07035300800983 -6.968821558388287 a34.93764311677657,34.93764311677657 0 0,0 0.29541712963476285,0.5219737617419884 l -12.18820350266597 6.760591026547179" fill="#ffb310" stroke="none" /><path d="M 118.36410011445183 89.81374322990088 l 11.97179223168486 -6.640551342575826 a34.69016915059911,34.69016915059911 0 0,0 0.2843844734241021,0.5232354002095588 l -12.084022054724302 6.434061108891664" fill="#ffb010" stroke="none" /><path d="M 118.53625476483649 90.13048839642627 l 3.9277974032573324 -2.091330883165973 a25.44986036903618,25.44986036903618 0 0,0 0.20201363663012717,0.38738778473468366 l -3.963119108862404 2.023596855326791" fill="#ff3304" stroke="none" /><path d="M 118.70294669586156 90.45014215332178 l 14.295497457570164 -7.299382861287475 a37.05123788731113,37.05123788731113 0 0,0 0.28437722563282797,0.5689449480169804 l -14.418694596414728 7.052906057106745" fill="#ffce13" stroke="none" /><path d="M 118.8641267826498 90.77261029715802 l 11.179065242352237 -5.468241000137606 a33.44480451145593,33.44480451145593 0 0,0 0.24784310930754547,0.5178967760953358 l -11.271287609619694 5.275531721977166" fill="#ffa00e" stroke="none" /><path d="M 119.16976305983485 91.42560881287824 l 1.6437169135984884 -0.7352136682175183 a22.800651112787705,22.800651112787705 0 0,0 0.1567448327923146,0.3586628522076794 l -1.6560956284077732 0.7068887462339896" fill="#ff0d01" stroke="none" /><path d="M 119.31412917781788 91.75594674310238 l 5.5825984967126745 -2.382879336420362 a27.069886317505276,27.069886317505276 0 0,0 0.1787568392177835,0.4289513399802929 l -5.622681180466941 2.2866954869987928" fill="#ff4a06" stroke="none" /><path d="M 119.4528033332814 92.08871423366111 l 10.010980116678397 -4.071378461359255 a31.80721265970788,31.80721265970788 0 0,0 0.20135680936265843,0.507550695597139 l -10.07939560100718 3.898926748548551" fill="#ff8a0c" stroke="none" /><path d="M 119.58574465831526 92.42381321644754 l 10.758544707747932 -4.161636212820375 a32.535402038787765,32.535402038787765 0 0,0 0.19702403948070926,0.522629672586607 l -10.828399431043081 3.976338260039609" fill="#ff940d" stroke="none" /><path d="M 119.71291397450082 92.76114493625339 l 5.165261419876402 -1.8967555397042262 a26.50250916519566,26.50250916519566 0 0,0 0.15315904789033244,0.4284131157037284 l -5.197060637810678 1.8078074676195808" fill="#ff4206" stroke="none" /><path d="M 119.83427380445688 93.10060997987247 l 5.5743901232562765 -1.9390622497129 a26.902015558647637,26.902015558647637 0 0,0 0.14797976124337428,0.43747586983562947 l -5.606855306072016 1.8430847054031088" fill="#ff4706" stroke="none" /><path d="M 119.94978838288452 93.4421083053983 l 1.5743062316802598 -0.5175057280483745 a22.657182032750228,22.657182032750228 0 0,0 0.11828698056414254,0.3705322818732169 l -1.5829579280216595 0.49040441248377054" fill="#ff0b01" stroke="none" /><path d="M 120.05942366710727 93.78553927170692 l 3.551737693746914 -1.1003374165321371 a24.718276896010202,24.718276896010202 0 0,0 0.12208907822969019,0.4063948341059303 l -3.5701030919802315 1.0392049788354834" fill="#ff2803" stroke="none" /><path d="M 120.16314734710363 94.1308016681162 l 8.477606174603041 -2.4677076034707124 a29.829461323766857,29.829461323766857 0 0,0 0.13889379565908844,0.4928850815994588 l -8.518718462336713 2.3218145979682405" fill="#ff700a" stroke="none" /><path d="M 120.26092885502905 94.47779374421319 l 10.009507081704447 -2.7281356654194435 a31.374630414025603,31.374630414025603 0 0,0 0.13716767180339956,0.5208479919251171 l -10.054864234312577 2.555907169121528" fill="#ff840c" stroke="none" /><path d="M 120.35273937422433 94.82641323984039 l 11.038991419571829 -2.8060684512150083 a32.39005494781674,32.39005494781674 0 0,0 0.1323557491116855,0.5400566228857995 l -11.085534695199806 2.616156003721114" fill="#ff920d" stroke="none" /><path d="M 120.43855184770803 95.1765574152323 l 20.06881962599448 -4.736186787171952 a41.62011121365943,41.62011121365943 0 0,0 0.15813489598152347,0.6967715295410466 l -20.147165383533668 4.390980923691879" fill="#f7ff18" stroke="none" /><path d="M 120.51834098615036 95.52812308129327 l 19.92015231694415 -4.341504482423468 a41.38776911535832,41.38776911535832 0 0,0 0.14533470659233777,0.69547918280038 l -19.991744734360857 3.998908848337684" fill="#faff18" stroke="none" /><path d="M 120.592083275326 95.88100663000786 l 5.912501712010367 -1.182665931669913 a27.029624797651856,27.029624797651856 0 0,0 0.08710452039425026,0.4557676575695446 l -5.931932524686774 1.080995709067054" fill="#ff4906" stroke="none" /><path d="M 120.65975698304385 96.23510406497455 l 6.0834834995617335 -1.1086133451178635 a27.18367164704056,27.18367164704056 0 0,0 0.07971958950543657,0.4598014076108454 l -6.1016179065594045 1.0040189045864254" fill="#ff4b07" stroke="none" /><path d="M 120.7213421655516 96.59031103205396 l 13.636716418819326 -2.2439164973375254 a34.82010115499594,34.82010115499594 0 0,0 0.09198891693684969,0.5906348351310584 l -13.67322682789444 2.0094934802750255" fill="#ffb210" stroke="none" /><path d="M 120.77682067341334 96.94652285012252 l 15.480342996805382 -2.2750773256419294 a36.6466289064575,36.6466289064575 0 0,0 0.08612914696666348,0.6231876022642231 l -15.517116660327257 2.0090014151776208" fill="#ffc912" stroke="none" /><path d="M 120.82617615685814 97.30363454192243 l 15.601092988572582 -2.0198738321336402 a36.731306135722704,36.731306135722704 0 0,0 0.0755928771496929,0.6260174628969997 l -15.633467951981938 1.7517626923132277" fill="#ffca12" stroke="none" /><path d="M 120.86939407059847 97.66154086499901 l 16.87737261112975 -1.8911448039075711 a37.982995463823784,37.982995463823784 0 0,0 0.06704470324874658,0.648596685879769 l -16.907349706860163 1.601143595744871" fill="#ffda14" stroke="none" /><path d="M 120.9064616781168 98.02013634271609 l 20.35906103277994 -1.928024247040209 a41.45015021053962,41.45015021053962 0 0,0 0.061003522935345535,0.7089534066068138 l -20.389158178413027 1.5782497930577328" fill="#faff18" stroke="none" /><path d="M 120.93736805541906 98.37931529534042 l 1.6745341600824666 -0.12961953448457478 a22.67954335371347,22.67954335371347 0 0,0 0.02671438405504875,0.38842128115904356 l -1.6765125053025816 0.10085482917119705" fill="#ff0b01" stroke="none" /><path d="M 120.96210409425399 98.7389718711861 l 36.769851769567126 -2.211982974860438 a57.83632538455772,57.83632538455772 0 0,0 0.05111191765761284,0.9915575478991516 l -36.80240527668131 1.5804536335845556" fill="#45ff2d" stroke="none" /><path d="M 120.98066250479742 99.09900007780936 l 10.376807374136886 -0.44562475729957357 a31.386371488843444,31.386371488843444 0 0,0 0.018496008152744728,0.5384910964520766 l -10.38292806928648 0.267427396283377" fill="#ff850c" stroke="none" /><path d="M 120.99303781780057 99.45929381324524 l 22.16649317779686 -0.5709302342955385 a43.173844527590326,43.173844527590326 0 0,0 0.012723061428931004,0.7410545433067609 l -22.173027670824453 0.19032877501971113" fill="#e5ff1a" stroke="none" /><line stroke="#e1ed5e" stroke-width="0.3" x1="184.99686870605535" x2="189.99668451229388" y1="99.2704041080226" y2="99.22748670261217" /><path d="M 185.99683186730306 99.26182062694052 a86.0,86.0 0 0,1 -10.086455211305974,41.156179273409016" fill="none" id="id52" stroke="none" /><text fill="#e1ed5e" style="font-size:6.75px; font-family:Arial;" text-anchor="middle"><textPath startOffset="21.40746469413373" xlink:href="#id52">April</textPath></text><path d="M 120.99922638620191 99.81974689727618 l 22.297146836773543 -0.19139418878107317 a43.29796826610307,43.29796826610307 0 0,0 0.0,0.7432945830097973 l -22.297146836773543 -0.19139418878107048" fill="#e3ff1b" stroke="none" /><path d="M 120.99922638620191 100.18025310272382 l 11.359087208143428 0.09750410209033898 a32.359505678159245,32.359505678159245 0 0,0 -0.009536143539169909,0.5554325533051837 l -11.35573963300559 -0.2924835713645937" fill="#ff910d" stroke="none" /><path d="M 120.99303781780057 100.54070618675476 l 23.68774797615652 0.6101123616390046 a44.69560383859698,44.69560383859698 0 0,0 -0.026339147017505615,0.766835526884323 l -23.673784142142168 -1.0166541530874382" fill="#d3ff1c" stroke="none" /><path d="M 120.98066250479742 100.90099992219065 l 27.942538760414134 1.1999728437167039 a48.96829289039472,48.96829289039472 0 0,0 -0.043274937289082806,0.8395222224158001 l -27.91782223366848 -1.6794668595092348" fill="#a3ff22" stroke="none" /><path d="M 120.96210409425399 101.26102812881392 l 3.396988632109897 0.2043544006408164 a24.40312980765429,24.40312980765429 0 0,0 -0.02874460793409857,0.417940290787525 l -3.3929800630107323 -0.2626381155826845" fill="#ff2403" stroke="none" /><path d="M 120.93736805541906 101.62068470465957 l 5.15306606539021 0.39887990372871296 a26.168480923044484,26.168480923044484 0 0,0 -0.038512997373075473,0.4475794080813906 l -5.145459445319394 -0.4872803591857611" fill="#ff3d05" stroke="none" /><path d="M 120.9064616781168 101.97986365728391 l 21.95825845151725 2.0794699052739167 a43.056502653652245,43.056502653652245 0 0,0 -0.07600007340369928,0.735231768472032 l -21.919325985631883 -2.45610619602888" fill="#e6ff1a" stroke="none" /><path d="M 120.86939407059847 102.33845913500099 l 11.741709282885372 1.3156830160091815 a32.81519185973768,32.81519185973768 0 0,0 -0.0675335300555586,0.5592745075986484 l -11.717393666570151 -1.5170512005312382" fill="#ff970e" stroke="none" /><path d="M 120.82617615685814 102.69636545807758 l 9.999497803194286 1.2946351875438675 a31.08295772999739,31.08295772999739 0 0,0 -0.07305306693609462,0.5285756010049807 l -9.97580021970298 -1.4660990967489338" fill="#ff800b" stroke="none" /><path d="M 120.77682067341334 103.0534771498775 l 13.491155196354956 1.9827352204197002 a34.63607375626973,34.63607375626973 0 0,0 -0.09150274715175029,0.5875132763560578 l -13.455130957064938 -2.2140366787072083" fill="#ffaf10" stroke="none" /><path d="M 120.7213421655516 103.40968896794604 l 14.073025023473116 2.3157109121984054 a35.26227717933484,35.26227717933484 0 0,0 -0.10341113217755984,0.5964479299611948 l -14.031199073803322 -2.5569518750801885" fill="#ffb711" stroke="none" /><path d="M 120.65975698304385 103.76489593502545 l 14.412808967232639 2.6264939097573965 a35.65017175953696,35.65017175953696 0 0,0 -0.11488472874979642,0.601125446484467 l -14.365597946200683 -2.873521921275178" fill="#ffbc11" stroke="none" /><path d="M 120.592083275326 104.11899336999214 l 11.605040970792752 2.321333212286442 a32.83492981881356,32.83492981881356 0 0,0 -0.11530108998860226,0.5517574550598795 l -11.563482169979785 -2.5202071186317303" fill="#ff980e" stroke="none" /><path d="M 120.51834098615036 104.47187691870673 l 11.69722181210159 2.5493550511631318 a32.97180894010576,32.97180894010576 0 0,0 -0.12527582039125465,0.5519883795839884 l -11.651735130152671 -2.7497777646861374" fill="#ff9a0e" stroke="none" /><path d="M 120.43855184770803 104.8234425847677 l 12.629145607150416 2.9804439759068564 a33.976068937090545,33.976068937090545 0 0,0 -0.13883669117831363,0.5665010781445682 l -12.576121389455807 -3.1968008786595243" fill="#ffa70f" stroke="none" /><path d="M 120.35273937422433 105.17358676015961 l 23.47935052717545 5.968359088721978 a45.22604407223565,45.22604407223565 0 0,0 -0.19772507559143362,0.7507943177941031 l -23.373435970779283 -6.370533910888884" fill="#cdff1d" stroke="none" /><path d="M 120.26092885502905 105.52220625578681 l 11.404771564266962 3.108421204607412 a32.82079087110356,32.82079087110356 0 0,0 -0.152822210603875,0.5423121125480672 l -11.349730861588508 -3.3037412410584874" fill="#ff980e" stroke="none" /><path d="M 120.16314734710363 105.8691983318838 l 7.622468916286407 2.2187896104786784 a28.938832389924894,28.938832389924894 0 0,0 -0.14293534239434127,0.47578526763008855 l -7.583257253888436 -2.3493124816994904" fill="#ff6309" stroke="none" /><path d="M 120.05942366710727 106.21446072829308 l 15.342074550226814 4.753013913319393 a37.06145674479513,37.06145674479513 0 0,0 -0.19348777828212332,0.6060977096509537 l -15.258222056167435 -5.015680656661728" fill="#ffce13" stroke="none" /><path d="M 119.94978838288452 106.5578916946017 l 12.800996511006465 4.207941813266323 a34.474876102533734,34.474876102533734 0 0,0 -0.1896357513966254,0.5606244029393339 l -12.726875338037473 -4.427067890679819" fill="#ffad10" stroke="none" /><path d="M 119.83427380445688 106.89939002012753 l 7.560678151248867 2.629996333437784 a29.00504433595893,29.00504433595893 0 0,0 -0.16762129754666016,0.4688666019371241 l -7.514416683658264 -2.7593978917558295" fill="#ff6409" stroke="none" /><path d="M 119.71291397450082 107.23885506374661 l 10.452298422659677 3.838228760219435 a32.13474482563968,32.13474482563968 0 0,0 -0.19459778691781146,0.5161937494073773 l -10.384869951927426 -4.01709078982097" fill="#ff8e0d" stroke="none" /><path d="M 119.58574465831526 107.57618678355244 l 11.064027520578701 4.279803527341567 a32.862943277651134,32.862943277651134 0 0,0 -0.20804015351638264,0.524397088748057 l -10.988928692096195 -4.469101633303189" fill="#ff980e" stroke="none" /><path d="M 119.4528033332814 107.91128576633889 l 10.963090383542825 4.458593418153817 a32.83504989537998,32.83504989537998 0 0,0 -0.21682727684972278,0.5203065312407633 l -10.884937262156617 -4.646132458835858" fill="#ff980e" stroke="none" /><path d="M 119.31412917781788 108.2440532568976 l 5.141902779470496 2.194772540116865 a26.590723629046373,26.590723629046373 0 0,0 -0.18279997831834133,0.4182821241324628 l -5.103468919135189 -2.2827167340251724" fill="#ff4306" stroke="none" /><path d="M 119.16976305983485 108.57439118712176 l 8.680892486443218 3.8828527926913 a30.509702422836213,30.509702422836213 0 0,0 -0.21794901600356031,0.4762579335027101 l -8.612959005584601 -4.031299708408699" fill="#ff790b" stroke="none" /><path d="M 119.0197475246899 108.90220220490707 l 10.365928095104426 4.851777754902208 a32.445182945494544,32.445182945494544 0 0,0 -0.2404354021716319,0.5024175172421593 l -10.281113434972882 -5.029007774209471" fill="#ff930d" stroke="none" /><path d="M 118.8641267826498 109.22738970284198 l 10.511120546265296 5.14151577814592 a32.70123239812986,32.70123239812986 0 0,0 -0.25098987981018483,0.5021478910753769 l -10.421310753243379 -5.321195525385043" fill="#ff960d" stroke="none" /><path d="M 118.70294669586154 109.54985784667822 l 10.399679760933005 5.310150586584443 a32.676944736623646,32.676944736623646 0 0,0 -0.2593801437212697,0.4973956261394424 l -10.306991548236786 -5.487892455828389" fill="#ff960d" stroke="none" /><path d="M 118.5362547648365 109.86951160357373 l 13.633420859171528 7.259028702025088 a36.44550620795956,36.44550620795956 0 0,0 -0.2987744466344415,0.5497113301401184 l -13.506801062921747 -7.4919948656398105" fill="#ffc612" stroke="none" /><line stroke="#e1ed5e" stroke-width="0.3" x1="174.33088141563837" x2="178.70328620479359" y1="141.23008692659167" y2="143.65538615756765" /><path d="M 175.20536237346943 141.71514677278685 a86.0,86.0 0 0,1 -30.301960400862466,31.63118572779886" fill="none" id="id53" stroke="none" /><text fill="#e1ed5e" style="font-size:6.75px; font-family:Arial;" text-anchor="middle"><textPath startOffset="22.145653131862474" xlink:href="#id53">May</textPath></text><path d="M 118.36410011445183 110.18625677009912 l 5.743388245461685 3.185760643539603 a27.5677682218569,27.5677682218569 0 0,0 -0.23310075414407838,0.41186669728972286 l -5.687854126296226 -3.283884110928448" fill="#ff5107" stroke="none" /><path d="M 118.18653347947321 110.5 l 5.4527068417554245 3.1481217628996068 a27.296243525799216,27.296243525799216 0 0,0 -0.23777145502709174,0.4037879124411567 l -5.39786167659857 -3.2412608436343127" fill="#ff4d07" stroke="none" /><path d="M 118.00360718960297 110.81064883170644 l 4.24375821323824 2.5482548739723048 a25.950059259761506,25.950059259761506 0 0,0 -0.23260154652227538,0.37993714555928165 l -4.199388702260561 -2.6207291356561435" fill="#ff3a05" stroke="none" /><path d="M 117.81537515405839 111.11811171558189 l 1.9496784737210975 1.2167435651984202 a23.298197348867845,23.298197348867845 0 0,0 -0.21465661923878676,0.3374758589601506 l -1.9285041628564208 -1.250033098837245" fill="#ff1402" stroke="none" /><path d="M 117.62189284568427 111.42229804090321 l 1.7989807634161898 1.1660775961774044 a23.143844385082176,23.143844385082176 0 0,0 -0.21895791755893287,0.3315301944582028 l -1.7786984069365304 -1.1967876689746682" fill="#ff1202" stroke="none" /><path d="M 117.423217284605 111.72311816256415 l 9.684467952638862 6.516142242607922 a32.672575947561384,32.672575947561384 0 0,0 -0.3170955382282819,0.4626518667900369 l -9.571182677595258 -6.681428844468" fill="#ff960d" stroke="none" /><path d="M 117.21940702142032 112.02048342749411 l 9.709127525226064 6.777725061451058 a32.84080716462033,32.84080716462033 0 0,0 -0.32666422708468,0.45949414467653027 l -9.591348199611422 -6.943396432837092" fill="#ff980e" stroke="none" /><path d="M 117.01052211995028 112.31430620078461 l 11.161859893774286 8.080325785002739 a34.7796509781644,34.7796509781644 0 0,0 -0.3542522430385058,0.48061120379494027 l -11.02150563115195 -8.27074329806656" fill="#ffb110" stroke="none" /><path d="M 116.79662413953412 112.60449989151573 l 9.184873688680623 6.892500448353292 a32.48339963197171,32.48339963197171 0 0,0 -0.33852037039366667,0.44313403149518465 l -9.065201340932655 -7.049155393089354" fill="#ff930d" stroke="none" /><path d="M 116.57777611688842 112.89097897827484 l 1.34633991760842 1.0469220631964975 a22.705484382852408,22.705484382852408 0 0,0 -0.24190376499942134,0.3056375047042411 l -1.328169721967437 -1.0698795118154192" fill="#ff0c01" stroke="none" /><path d="M 116.35404254752997 113.17365903436017 l 9.066228872937778 7.303112215370422 a32.64181918802999,32.64181918802999 0 0,0 -0.35525674291723114,0.43335546242062095 l -8.939525310781919 -7.457669959489539" fill="#ff950d" stroke="none" /><path d="M 116.1254893667686 113.45245675266167 l 8.935700547769876 7.454479206152482 a32.63683825247969,32.63683825247969 0 0,0 -0.3625881806782132,0.42712796512392653 l -8.806417803584548 -7.606773953725963" fill="#ff950d" stroke="none" /><path d="M 115.89218393027572 113.72728997021213 l 15.981049628227785 13.804050043562981 a42.11742751437946,42.11742751437946 0 0,0 -0.477308655378503,0.5430896314793706 l -15.741729908890697 -14.076351952853646" fill="#f2ff19" stroke="none" /><path d="M 115.6541949942343 113.99807769240083 l 9.044417678835202 8.087574059061435 a33.133027046455894,33.133027046455894 0 0,0 -0.3827689780732561,0.4207301581581469 l -8.904250999920066 -8.241641792777257" fill="#ff9c0e" stroke="none" /><path d="M 115.41159269507618 114.26474011684316 l 12.656914166300414 11.715050795570837 a38.246445760095064,38.246445760095064 0 0,0 -0.45011361666333566,0.47800506269079124 l -12.453944715900818 -11.930597318206123" fill="#ffdd14" stroke="none" /><path d="M 115.16444852881244 114.52719865689866 l 1.215594040975331 1.1645115934046937 a22.68337640580729,22.68337640580729 0 0,0 -0.2717827094364489,0.27887300263169196 l -1.1954245303880726 -1.185207288104123" fill="#ff0b01" stroke="none" /><path d="M 114.91283532996326 114.78537596483092 l 5.7723779918245075 5.723041724249453 a29.12856409570596,29.12856409570596 0 0,0 -0.3551022744529999,0.352067230515517 l -5.673283797241544 -5.821288964993632" fill="#ff6609" stroke="none" /><path d="M 114.65682725009322 115.03919595460226 l 1.696846851518191 1.7411143537063698 a23.431207196063212,23.431207196063212 0 0,0 -0.2904660915488546,0.2782599450949888 l -1.6667082741040242 -1.769986429106939" fill="#ff1602" stroke="none" /><path d="M 114.39649973595853 115.28858382429668 l 7.956707746556597 8.449747895651385 a32.60635333186866,32.60635333186866 0 0,0 -0.4107938265538132,0.38022463306247584 l -7.810484148688817 -8.585090274846241" fill="#ff950d" stroke="none" /><path d="M 114.13192950727249 115.5334660781643 l 8.165360145790768 8.975161160785849 a33.133697877092004,33.133697877092004 0 0,0 -0.4240087338210771,0.3791512243504067 l -8.010086385146312 -9.114007915019643" fill="#ff9c0e" stroke="none" /><path d="M 113.86319453409587 115.77377054828091 l 5.449185027231146 6.20017226789047 a29.254438418966984,29.254438418966984 0 0,0 -0.3800576718432418,0.32828476499424564 l -5.341947875625048 -6.292801165349434" fill="#ff6809" stroke="none" /><path d="M 113.59037401385872 116.0094264158162 l 4.412909429863923 5.198396212276772 a27.818877680087496,27.818877680087496 0 0,0 -0.3667133017456675,0.3059252789267726 l -4.323021793956361 -5.273383675115415" fill="#ff5407" stroke="none" /><path d="M 113.31354834802062 116.24036423190432 l 6.071820747524304 7.4066340477359525 a30.57732922620644,30.57732922620644 0 0,0 -0.4087886488024419,0.32929119884511493 l -5.94378132836661 -7.509773540374471" fill="#ff7a0b" stroke="none" /><path d="M 113.03279911837588 116.46651593811092 l 6.998366477240114 8.842207425397374 a32.276602569192136,32.276602569192136 0 0,0 -0.437409529150145,0.34013229551503926 l -6.845547003454738 -8.961040772533208" fill="#ff900d" stroke="none" /><path d="M 112.7482090630111 116.68781488649013 l 6.204503133128987 8.12189376849211 a31.22061727664618,31.22061727664618 0 0,0 -0.42868436552770556,0.32169273979707635 l -6.064165778690515 -8.227205535553201" fill="#ff820c" stroke="none" /><path d="M 112.45986205192187 116.90419585922612 l 7.252676191675267 9.839648170800922 a33.22374689145841,33.22374689145841 0 0,0 -0.46199833327784334,0.3344511649976399 l -7.082696848023455 -9.962700107171639" fill="#ff9d0e" stroke="none" /><path d="M 112.16784306229584 117.11559508785304 l 7.137024088353564 10.039118174282637 a33.31750813090663,33.31750813090663 0 0,0 -0.4689913787311532,0.3273924060603611 l -6.963637618448653 -10.16015539614812" fill="#ff9e0e" stroke="none" /><path d="M 111.8722381534696 117.32195027204791 l 6.841477303431205 9.981919845732419 a33.10142700263035,33.10142700263035 0 0,0 -0.47146474694156304,0.3172225225454176 l -6.669116268392639 -10.097892042334959" fill="#ff9b0e" stroke="none" /><path d="M 111.5731344415666 117.5232005979908 l 6.66801928607867 10.096231071295767 a33.099436476320506,33.099436476320506 0 0,0 -0.47681214753730333,0.30906387335274593 l -6.493721506284357 -10.209208786352407" fill="#ff9b0e" stroke="none" /><path d="M 111.27062007382361 117.71928675628689 l 0.9236166616285298 1.452078800729918 a22.720930149996526,22.720930149996526 0 0,0 -0.330898831768201,0.20650534419514008 l -0.8985537010706139 -1.4677199417666056" fill="#ff0c01" stroke="none" /><path d="M 110.96478420261333 117.91015095944535 l 0.8309906127122585 1.3573607144964432 a22.59153181170663,22.59153181170663 0 0,0 -0.33249059343758103,0.19965104812857412 l -0.8075672627172432 -1.3714257631609408" fill="#ff0a01" stroke="none" /><line stroke="#e1ed5e" stroke-width="0.3" x1="143.1302829299769" x2="145.6673583964461" y1="173.24464959558577" y2="177.55315839532614" /><path d="M 143.63769802327073 174.10635135553383 a86.0,86.0 0 0,1 -40.685524379131806,11.842963189579606" fill="none" id="id54" stroke="none" /><text fill="#e1ed5e" style="font-size:6.75px; font-family:Arial;" text-anchor="middle"><textPath startOffset="21.407464694133747" xlink:href="#id54">June</textPath></text><path d="M 110.65571695917076 118.09573695890943 l 3.6503084188190598 6.199021728800008 a28.193929520549666,28.193929520549666 0 0,0 -0.41915986461564775,0.24200206066933405 l -3.543356086343011 -6.260770686745514" fill="#ff5908" stroke="none" /><path d="M 110.34350942703117 118.27599006163325 l 5.559355067487383 9.822847717136208 a32.28692899067083,32.28692899067083 0 0,0 -0.48469723861430775,0.2688533877245581 l -5.389913640716981 -9.91683402029391" fill="#ff910d" stroke="none" /><path d="M 110.02825361518725 118.45085714620011 l 6.634718253587805 12.207134302710696 a34.89365373790881,34.89365373790881 0 0,0 -0.528740517974948,0.28152454439354946 l -6.424188919826303 -12.319229314826813" fill="#ffb310" stroke="none" /><path d="M 109.71004243097381 118.62028667847754 l 6.063259516563538 11.62709959374479 a34.11306832621788,34.11306832621788 0 0,0 -0.5215608392082461,0.2663126807678405 l -5.86277145564171 -11.729470226185466" fill="#ffa80f" stroke="none" /><path d="M 109.3889696526874 118.78422872680471 l 5.2696674006491095 10.542864811544735 a32.78649196953751,32.78649196953751 0 0,0 -0.5055985422374376,0.2473135828743778 l -5.087908609149602 -10.631772144516336" fill="#ff970d" stroke="none" /><path d="M 109.06512990194946 118.94263497670748 l 2.2925307855655856 4.790507616939327 a26.31080602458042,26.31080602458042 0 0,0 -0.40908452924586075,0.19147221557586136 l -2.2099575424482185 -4.829156064085722" fill="#ff3f05" stroke="none" /><path d="M 108.73861861582097 119.09545874513695 l 0.6992264340768635 1.527935948738001 a22.680329095611256,22.680329095611256 0 0,0 -0.35541868210424876,0.15897425576210308 l -0.6728943491169878 -1.5397139554099546" fill="#ff0b01" stroke="none" /><path d="M 108.4095320186766 119.2426549942271 l 1.9962660881698664 4.567847476651048 a25.985008411700463,25.985008411700463 0 0,0 -0.41027225527243705,0.17512082947949073 l -1.9175587577269981 -4.60144295578994" fill="#ff3a05" stroke="none" /><path d="M 108.07796709384702 119.3841803445677 l 6.747092971013834 16.190566937480767 a38.54017449504279,38.54017449504279 0 0,0 -0.6128723494076902,0.24924984905164277 l -6.468166160415704 -16.304004043111703" fill="#ffe115" stroke="none" /><path d="M 107.74402155503746 119.51999308798841 l 3.873539388015905 9.763849641009358 a31.50414523903536,31.50414523903536 0 0,0 -0.5044079750379116,0.19511584066211216 l -3.705359150484465 -9.828905369809512" fill="#ff860c" stroke="none" /><path d="M 107.407793817531 119.65005319985036 l 4.325614238996067 11.474205682824046 a33.26247669096081,33.26247669096081 0 0,0 -0.5360182359558493,0.19683332086918465 l -4.12800685138609 -11.546769852701953" fill="#ff9d0e" stroke="none" /><path d="M 107.06938296918513 119.77432235084164 l 4.083646148182573 11.422685070666518 a33.130700725316494,33.130700725316494 0 0,0 -0.5371815411940036,0.18685962495273442 l -3.8869588349435475 -11.491103128187843" fill="#ff9c0e" stroke="none" /><path d="M 106.72888874123015 119.89276391827305 l 2.5147544808563165 7.434424780063847 a28.848226672912443,28.848226672912443 0 0,0 -0.4704696045074603,0.15465270371534168 l -2.386762138701122 -7.476498405181208" fill="#ff6209" stroke="none" /><path d="M 106.38641147887787 120.00534299687104 l 4.425676311617137 13.863368011887685 a35.55264867466537,35.55264867466537 0 0,0 -0.582994647492631,0.18061323205356594 l -4.187041031252881 -13.937297831747895" fill="#ffbb11" stroke="none" /><path d="M 106.0420521117495 120.11202640906438 l 3.5909429552422085 11.953081207100524 a33.480826160609055,33.480826160609055 0 0,0 -0.5518596548898473,0.16063830264964615 l -3.3852232879707547 -12.012963204052689" fill="#ffa00e" stroke="none" /><path d="M 105.69591212413111 120.21278271476187 l 3.2923039882932152 11.68322538972915 a33.13824621016328,33.13824621016328 0 0,0 -0.5488618272523876,0.14959473169777315 l -3.0912607601061324 -11.738020615571065" fill="#ff9c0e" stroke="none" /><path d="M 105.3480935250658 120.30758222061773 l 2.9602830990229836 11.240677102589489 a32.623945016690364,32.623945016690364 0 0,0 -0.5427920810922519,0.13797562444172634 l -2.7668857247053347 -11.289837958866485" fill="#ff950d" stroke="none" /><path d="M 104.9986988182912 120.39639698878246 l 2.9885357854675085 12.194245845044854 a33.5551175968373,33.5551175968373 0 0,0 -0.5606386591527336,0.1323091970201209 l -2.7787649725748964 -12.2437511857112" fill="#ffa10e" stroke="none" /><path d="M 104.64783097203107 120.47920084513623 l 2.297599534554864 10.123647484813468 a31.38109830499436,31.38109830499436 0 0,0 -0.5263620109899299,0.11471815043032603 l -2.1234751069457976 -10.161597093377512" fill="#ff840c" stroke="none" /><path d="M 104.29559338865022 120.5559693870025 l 0.8707695431212584 4.166947485958215 a25.25695794528923,25.25695794528923 0 0,0 -0.42516301897411996,0.08504451117962553 l -0.7991100386161798 -4.1812813938007025" fill="#ff3004" stroke="none" /><path d="M 103.94208987418118 120.62667999033965 l 1.4825345867231776 7.75724741722213 a28.897644983970213,28.897644983970213 0 0,0 -0.48804718847556045,0.08893845544748406 l -1.3491526646965606 -7.781554046600977" fill="#ff6309" stroke="none" /><path d="M 103.58742460773223 120.69131181640829 l 2.129151965256404 12.28038273548216 a33.46359050278384,33.46359050278384 0 0,0 -0.5668453319266544,0.09327418365858138 l -1.9180291302766765 -12.315122917636412" fill="#ffa00e" stroke="none" /><path d="M 103.2317021107853 120.74984581791261 l 2.040471417584477 13.101290236322859 a34.259235628887055,34.259235628887055 0 0,0 -0.5818766309473681,0.08551582672699745 l -1.815269681029424 -13.134387136348739" fill="#ffaa0f" stroke="none" /><path d="M 102.875027216393 120.80226474461374 l 1.341669130581668 9.7076494771591 a30.799925225599587,30.799925225599587 0 0,0 -0.5243645882027428,0.06788949408762872 l -1.174826720488149 -9.729250567447123" fill="#ff7d0b" stroke="none" /><path d="M 102.51750503828377 120.84855314841334 l 0.9385490680178541 7.772532658088949 a28.82899343939797,28.82899343939797 0 0,0 -0.4918282543963041,0.05511038176067419 l -0.8049849120207507 -7.787498800356594" fill="#ff6209" stroke="none" /><path d="M 102.15924093988457 120.88869738790638 l 0.1759342449869456 1.7020042255676018 a22.711073125967765,22.711073125967765 0 0,0 -0.3881435267097465,0.0367575955307164 l -0.14669115489218382 -1.704773576603502" fill="#ff0c01" stroke="none" /><path d="M 101.80034050326958 120.92268563240118 l 1.5882615998144813 18.458007301720443 a39.526214088685535,39.526214088685535 0 0,0 -0.6765212791726413,0.05236702562756201 l -1.271171325866604 -18.482552094343056" fill="#ffed16" stroke="none" /><path d="M 101.44090949804482 120.95050786540614 l 0.7225664143911361 10.505957083717526 a31.530775682167032,31.530775682167032 0 0,0 -0.5403108433748636,0.03250375862724868 l -0.5421112188838075 -10.516812820169466" fill="#ff860c" stroke="none" /><path d="M 101.08105385017728 120.97215588758144 l 0.6419034331154879 12.452755116559713 a33.469288272008534,33.469288272008534 0 0,0 -0.5740369260286787,0.02465161553254436 l -0.4280407464859798 -12.46193930051809" fill="#ffa00e" stroke="none" /><path d="M 100.72087961077811 120.9876233191556 l 0.49098500437195075 14.29449269065853 a35.302922343276855,35.302922343276855 0 0,0 -0.6058430089005445,0.015604366836176374 l -0.24552868140066234 -14.300814774844751" fill="#ffb811" stroke="none" /><line stroke="#e1ed5e" stroke-width="0.3" x1="101.45913802915013" x2="101.54496967792366" y1="184.9874750549273" y2="189.98673829345242" /><path d="M 101.47630435890484 185.9873277026323 a86.0,86.0 0 0,1 -42.54439059252881,-10.42667462771756" fill="none" id="id55" stroke="none" /><text fill="#e1ed5e" style="font-size:6.75px; font-family:Arial;" text-anchor="middle"><textPath startOffset="22.145653131862474" xlink:href="#id55">July</textPath></text><path d="M 100.36049292484886 120.99690560180557 l 0.21024118703742217 12.245495136103292 a33.24729980383661,33.24729980383661 0 0,0 -0.5707341118862729,0.004899065927753723 l -1.4998616502966513e-15 -12.247299803836611" fill="#ff9d0e" stroke="none" /><path d="M 100.0 121.0 l 2.6504294686005797e-15 21.64239902023924 a42.64239902023924,42.64239902023924 0 0,0 -0.7320134831132321,-0.006283455358790538 l 0.37152055826437724 -21.639209963074883" fill="#ebff1a" stroke="none" /><path d="M 99.63950707515114 120.99690560180557 l -0.37085775298935225 21.600604878667433 a42.60378824644566,42.60378824644566 0 0,0 -0.7311351454365876,-0.01883144783153503 l 0.7416062124966839 -21.59105571348585" fill="#ecff1a" stroke="none" /><path d="M 99.27912038922189 120.98762331915562 l -0.38887637947084935 11.321711486945395 a32.32838805091623,32.32838805091623 0 0,0 -0.554469170344747,-0.023811291908609877 l 0.5831713104164351 -11.313367626610956" fill="#ff910d" stroke="none" /><path d="M 98.91894614982273 120.97215588758144 l -1.1854008254048056 22.996459330477187 a44.0269910508334,44.0269910508334 0 0,0 -0.7544457803931733,-0.045385584694311414 l 1.5799909579304254 -22.97272176795818" fill="#dbff1b" stroke="none" /><path d="M 98.55909050195518 120.95050786540614 l -1.5612081605611967 22.69962401646698 a43.7532481507491,43.7532481507491 0 0,0 -0.7488701887939186,-0.05796728879873236 l 1.9506473441303513 -22.669478960673196" fill="#deff1b" stroke="none" /><path d="M 98.19965949673042 120.92268563240118 l -1.0566086086135527 12.279393656012111 a33.32476897597301,33.32476897597301 0 0,0 -0.5695368635985815,-0.05393573312803046 l 1.2672450355971494 -12.259446167378897" fill="#ff9e0e" stroke="none" /><path d="M 97.84075906011543 120.88869738790638 l -1.4414067048749948 13.944302330912008 a35.01860266876612,35.01860266876612 0 0,0 -0.5974241958250162,-0.06694262724981793 l 1.6805668023008102 -13.917503943155218" fill="#ffb410" stroke="none" /><path d="M 97.48249496171623 120.84855314841334 l -0.76211584448954 6.311412468878284 a27.357259465582185,27.357259465582185 0 0,0 -0.4657536662492215,-0.06030113680920852 l 0.8703473326295549 -6.297399735868679" fill="#ff4e07" stroke="none" /><path d="M 97.12497278360702 120.80226474461374 l -3.395011821884635 24.564614319909893 a45.79811246761855,45.79811246761855 0 0,0 -0.7778589013216757,-0.11431847145188744 l 3.816195828813996 -24.502714775159124" fill="#c6ff1e" stroke="none" /><path d="M 96.76829788921471 120.74984581791261 l -1.4695096762446045 9.435306276603809 a30.549055619373874,30.549055619373874 0 0,0 -0.5174755402045016,-0.08515040321811149 l 1.631262719502169 -9.40868987489003" fill="#ff790b" stroke="none" /><path d="M 96.41257539226777 120.69131181640829 l -1.3546122698329393 7.813043598194012 a28.929604319817123,28.929604319817123 0 0,0 -0.488586944016687,-0.08903681688727735 l 1.4885339474006836 -7.788638607375369" fill="#ff6309" stroke="none" /><path d="M 96.05791012581884 120.62667999033965 l -2.6140245368930475 13.677680958653534 a34.92523180008837,34.92523180008837 0 0,0 -0.587913913570341,-0.11759924820350787 l 2.848434935994347 -13.630792313787165" fill="#ffb310" stroke="none" /><path d="M 95.70440661134978 120.55596938700252 l -3.856510872481929 18.454800597477167 a39.85344374914607,39.85344374914607 0 0,0 -0.6684705102668759,-0.14569003642722878 l 4.172743799367941 -18.385879102916217" fill="#fff116" stroke="none" /><path d="M 95.35216902796893 120.47920084513623 l -1.4422814231598473 6.354958069224285 a27.51656871100051,27.51656871100051 0 0,0 -0.4597466285760542,-0.10849895251878085 l 1.5511602054757894 -6.329262973059277" fill="#ff5007" stroke="none" /><path d="M 95.00130118170881 120.39639698878247 l -5.423339944093757 22.129077691196443 a43.78395697880882,43.78395697880882 0 0,0 -0.7284706100020734,-0.18517438040036777 l 5.802415847321209 -22.032718078960812" fill="#deff1b" stroke="none" /><path d="M 94.6519064749342 120.30758222061772 l -1.613114333435597 6.125257870672193 a27.334107816809485,27.334107816809485 0 0,0 -0.452729099406794,-0.12339332924020396 l 1.7180248337770863 -6.096664047287847" fill="#ff4d07" stroke="none" /><path d="M 94.30408787586889 120.21278271476187 l -9.241087277569193 32.79335866126096 a55.07054543675153,55.07054543675153 0 0,0 -0.9077199007435874,-0.2642240338548759 l 9.802667190694386 -32.62989093310357" fill="#61ff29" stroke="none" /><path d="M 93.95794788825049 120.11202640906438 l -2.453252796365354 8.166080681870259 a29.526624360536182,29.526624360536182 0 0,0 -0.4841795084872021,-0.15000004939682476 l 2.5930729377241897 -8.122764044666784" fill="#ff6b09" stroke="none" /><path d="M 93.61358852112213 120.00534299687104 l -3.6851926890791153 11.543813610886037 a33.11776703186358,33.11776703186358 0 0,0 -0.5400991518234501,-0.17754131893665281 l 3.8828145785503088 -11.478851370547362" fill="#ff9b0e" stroke="none" /><path d="M 93.27111125876986 119.89276391827306 l -7.058156405857941 20.86618526171538 a43.02760221235579,43.02760221235579 0 0,0 -0.6976500093357164,-0.2426788880403145 l 7.415312187238678 -20.741947941106474" fill="#e7ff1a" stroke="none" /><path d="M 92.93061703081489 119.77432235084164 l -9.11869578536388 25.506615027793803 a48.08759906307847,48.08759906307847 0 0,0 -0.7749221520882373,-0.28456214803704066 l 9.555207089106236 -25.346322030748045" fill="#acff20" stroke="none" /><path d="M 92.59220618246901 119.65005319985036 l -6.658837947499207 17.663358773280873 a39.87682086487801,39.87682086487801 0 0,0 -0.6384615837308931,-0.2469706563040644 l 6.9610717937236295 -17.54644822883877" fill="#fff116" stroke="none" /><path d="M 92.25597844496254 119.51999308798841 l -3.661549195095555 9.229495872606595 a30.92927673954992,30.92927673954992 0 0,0 -0.49184257075137916,-0.20002809171507557 l 3.8194462270373752 -9.165280524312228" fill="#ff7e0b" stroke="none" /><path d="M 91.92203290615298 119.3841803445677 l -4.485542439154597 10.763668949581811 a32.66090306235536,32.66090306235536 0 0,0 -0.5156766604159853,-0.22011170230190907 l 4.669654174741013 -10.685082597620498" fill="#ff950d" stroke="none" /><path d="M 91.59046798132341 119.24265499422711 l -2.2624758298417036 5.176987462528603 a26.649778408733944,26.649778408733944 0 0,0 -0.4176230900562677,-0.1867974962309129 l 2.3510123227536064 -5.137386215387836" fill="#ff4406" stroke="none" /><path d="M 91.26138138417905 119.09545874513695 l -9.028324641264435 19.728518694344256 a42.696200029063924,42.696200029063924 0 0,0 -0.6638471992518948,-0.3107140088600068 l 9.36566055438782 -19.570628453913724" fill="#ebff1a" stroke="none" /><path d="M 90.93487009805054 118.94263497670748 l -7.403182466309324 15.469804033927934 a38.149983891467734,38.149983891467734 0 0,0 -0.5883086320985228,-0.2877712324808965 l 7.667651347669915 -15.340439051349817" fill="#ffdc14" stroke="none" /><path d="M 90.6110303473126 118.78422872680471 l -6.084499293315065 12.17307443112226 a34.60899969711198,34.60899969711198 0 0,0 -0.5291432231650273,-0.2701843000427966 l 6.292569738193673 -12.066832179406626" fill="#ffaf10" stroke="none" /><path d="M 90.28995756902619 118.62028667847754 l -2.3232852494534306 4.4552058024696555 a26.024590838335712,26.024590838335712 0 0,0 -0.39434837473033185,-0.20996829778336323 l 2.399422439970326 -4.414667036963719" fill="#ff3b05" stroke="none" /><path d="M 89.97174638481275 118.45085714620012 l -6.940784812168403 12.770262297504065 a35.534582655029396,35.534582655029396 0 0,0 -0.5334516049259719,-0.29589661286594304 l 7.158980605250476 -12.649232769204973" fill="#ffbb11" stroke="none" /><line stroke="#e1ed5e" stroke-width="0.3" x1="58.13341422392154" x2="55.670673884152215" y1="173.97424548756322" y2="178.32567169271397" /><path d="M 57.64086615596767 174.84453072859336 a86.0,86.0 0 0,1 -31.369924170532244,-30.572349798747886" fill="none" id="id56" stroke="none" /><text fill="#e1ed5e" style="font-size:6.75px; font-family:Arial;" text-anchor="middle"><textPath startOffset="22.145653131862474" xlink:href="#id56">August</textPath></text><path d="M 89.65649057296885 118.27599006163327 l -3.8894879906168907 6.87235259587898 a28.89666683045686,28.89666683045686 0 0,0 -0.429607478009388,-0.2480339930745992 l 4.006887936486679 -6.804571705528209" fill="#ff6309" stroke="none" /><path d="M 89.34428304082925 118.09573695890944 l -4.025102836972614 6.835504588710932 a28.932564265765087,28.932564265765087 0 0,0 -0.4258146611116714,-0.2556894693486084 l 4.141850254641713 -6.7654011188264045" fill="#ff6309" stroke="none" /><path d="M 89.03521579738668 117.91015095944536 l -6.120867121002043 9.997976441134549 a32.72282164115983,32.72282164115983 0 0,0 -0.47656250786109355,-0.2974102513160062 l 6.291593757652849 -9.891430392976995" fill="#ff960d" stroke="none" /><path d="M 88.72937992617639 117.7192867562869 l -10.558967261110894 16.60045033231216 a40.67401181398381,40.67401181398381 0 0,0 -0.5859272841656301,-0.379790986623547 l 10.842380177533533 -16.416745503984718" fill="#fffb17" stroke="none" /><path d="M 88.4268655584334 117.5232005979908 l -6.474730964651312 9.803567917098277 a32.74870567210589,32.74870567210589 0 0,0 -0.4664409250735961,-0.3138422709866055 l 6.642068177821914 -9.69097597205455" fill="#ff970d" stroke="none" /><path d="M 88.1277618465304 117.32195027204791 l -7.579839513615659 11.059212376613534 a34.407466033640034,34.407466033640034 0 0,0 -0.48433408856266313,-0.33810280909764934 l 7.768568693352088 -10.927464751710756" fill="#ffac0f" stroke="none" /><path d="M 87.83215693770417 117.11559508785305 l -6.880046788187954 9.677647419450745 a32.874001153059446,32.874001153059446 0 0,0 -0.4571348857943759,-0.3309304040779833 l 7.045162684356284 -9.558116243999693" fill="#ff980e" stroke="none" /><path d="M 87.54013794807813 116.9041958592261 l -3.3696606557102595 4.5715918415379635 a26.679266229035065,26.679266229035065 0 0,0 -0.3663279369141043,-0.2748993132629012 l 3.44764158153513 -4.513073501011047" fill="#ff4406" stroke="none" /><path d="M 87.2517909369889 116.68781488649013 l -2.4433745826141333 3.1984557620197074 a25.02494703226786,25.02494703226786 0 0,0 -0.33913576482921853,-0.2637140219755348 l 2.49792029207858 -3.1560406884233796" fill="#ff2d04" stroke="none" /><path d="M 86.96720088162412 116.46651593811092 l -8.011215089946662 10.12190856039839 a33.90862502834656,33.90862502834656 0 0,0 -0.45332477881050404,-0.36516635263238273 l 8.183790639112427 -9.982893913972598" fill="#ffa60f" stroke="none" /><path d="M 86.68645165197938 116.24036423190432 l -5.7408028628962295 7.002846051244874 a30.055201285894945,30.055201285894945 0 0,0 -0.3961929098983908,-0.33051821652636804 l 5.860170106956513 -6.903265650806636" fill="#ff730a" stroke="none" /><path d="M 86.40962598614128 116.0094264158162 l -13.424236942387838 15.813717363369218 a41.743283113670685,41.743283113670685 0 0,0 -0.54230591502275,-0.46843093313917966 l 13.69372233717345 -15.580942297765317" fill="#f6ff19" stroke="none" /><path d="M 86.13680546590413 115.77377054828092 l -7.744390028139424 8.81169423395335 a32.73122040457139,32.73122040457139 0 0,0 -0.41885826845051555,-0.3745456464567062 l 7.894513323413311 -8.677453057613265" fill="#ff960d" stroke="none" /><path d="M 85.86807049272751 115.53346607816431 l -8.869007610733275 9.748592985650673 a34.179315657465764,34.179315657465764 0 0,0 -0.4306109218965627,-0.39856704065966975 l 9.035048303943805 -9.594908198858622" fill="#ffa90f" stroke="none" /><path d="M 85.60350026404147 115.28858382429668 l -3.888031264699576 4.128954467548428 a26.6714241694983,26.6714241694983 0 0,0 -0.3306335977370155,-0.3167395073974943 l 3.9583373483019035 -4.06160282984535" fill="#ff4406" stroke="none" /><path d="M 85.34317274990678 115.03919595460226 l -12.35797796343163 12.680374068918834 a38.7062561224097,38.7062561224097 0 0,0 -0.4718625861359952,-0.46782959681318226 l 12.57383246969759 -12.46636446187699" fill="#ffe315" stroke="none" /><path d="M 85.08716467003676 114.78537596483093 l -8.287216516337896 8.216386031556494 a32.669916752411744,32.669916752411744 0 0,0 -0.3914372504862418,-0.401649102738514 l 8.427040567974947 -8.072914236750243" fill="#ff960d" stroke="none" /><path d="M 84.83555147118756 114.52719865689866 l -9.613853257615906 9.209853946637116 a34.31343622726151,34.31343622726151 0 0,0 -0.4038269327633714,-0.42885020840451893 l 9.77053602411553 -9.043462278288107" fill="#ffab0f" stroke="none" /><path d="M 84.58840730492382 114.26474011684316 l -8.582951995011705 7.944252230549699 a32.6952216076169,32.6952216076169 0 0,0 -0.3777112349281957,-0.415170812455539 l 8.71806093078178 -7.795743842536488" fill="#ff960d" stroke="none" /><path d="M 84.3458050057657 113.99807769240083 l -5.035024521420253 4.502349974555904 a27.754452400060778,27.754452400060778 0 0,0 -0.31453583795725487,-0.3578840450479596 l 5.111571423336101 -4.415253651696645" fill="#ff5307" stroke="none" /><path d="M 84.1078160697243 113.72728997021213 l -10.249500967400099 8.853274820299031 a34.5437345338897,34.5437345338897 0 0,0 -0.3837733839773094,-0.45208408134082234 l 10.399968914884521 -8.67602395650865" fill="#ffae10" stroke="none" /><path d="M 83.87451063323141 113.45245675266167 l -7.233785098306861 6.0346808074899405 a30.420457488719634,30.420457488719634 0 0,0 -0.3310805866315707,-0.40386448274014425 l 7.336312504177059 -5.909614043051303" fill="#ff780b" stroke="none" /><path d="M 83.64595745247003 113.17365903436017 l -1.3703450284858416 1.103852953313345 a22.75964111103215,22.75964111103215 0 0,0 -0.2424807496708703,-0.30636650598801224 l 1.3890922087982736 -1.08016650341065" fill="#ff0c01" stroke="none" /><path d="M 83.4222238831116 112.89097897827486 l -9.415142717468102 7.321271924084817 a32.92669002601666,32.92669002601666 0 0,0 -0.3431400478315106,-0.4491813375549654 l 9.53943474265391 -7.158569673288984" fill="#ff990e" stroke="none" /><path d="M 83.20337586046588 112.60449989151573 l -8.89856461287911 6.6776487802501645 a32.12544135762536,32.12544135762536 0 0,0 -0.3272174774463883,-0.44393335209216556 l 9.01188410990933 -6.523909118889119" fill="#ff8e0d" stroke="none" /><path d="M 82.98947788004972 112.3143062007846 l -10.722268438732714 7.762095471878982 a34.23696213588329,34.23696213588329 0 0,0 -0.340551641066069,-0.47902853160985387 l 10.853935178328744 -7.576889713559624" fill="#ffaa0f" stroke="none" /><path d="M 82.78059297857968 112.02048342749411 l -7.553847337441292 5.273172102882551 a30.21232617876656,30.21232617876656 0 0,0 -0.2932181976150347,-0.427814113252331 l 7.643255271871649 -5.142723254560169" fill="#ff750a" stroke="none" /><path d="M 82.576782715395 111.72311816256416 l -10.372980664485553 6.979404322484423 a33.502432265863526,33.502432265863526 0 0,0 -0.31695783466384325,-0.47991455953116346 l 10.491262938070125 -6.800309884614199" fill="#ffa10e" stroke="none" /><path d="M 82.37810715431573 111.42229804090323 l -4.798618293821118 3.1104064027933864 a26.718510778195036,26.718510778195036 0 0,0 -0.24616948293731977,-0.38701931484178015 l 4.851305468384328 -3.0275734132729317" fill="#ff4506" stroke="none" /><path d="M 82.18462484594161 111.1181117155819 l -4.724562686390942 2.9484765434534324 a26.569111823705168,26.569111823705168 0 0,0 -0.2381503810089553,-0.38900074968216763 l 4.7744810318552995 -2.866938677646708" fill="#ff4306" stroke="none" /><path d="M 81.99639281039703 110.81064883170646 l -8.574084788705205 5.1484915621518885 a31.001094706553637,31.001094706553637 0 0,0 -0.27004358269454676,-0.45859304058150946 l 8.661202081529522 -5.000547353276823" fill="#ff7f0b" stroke="none" /><line stroke="#e1ed5e" stroke-width="0.3" x1="26.387840678322732" x2="22.057713659400548" y1="142.50000000000003" y2="145.00000000000006" /><path d="M 25.521815274538298 143.00000000000003 a86.0,86.0 0 0,1 -11.493303480769221,-40.785679425670985" fill="none" id="id57" stroke="none" /><text fill="#e1ed5e" style="font-size:6.75px; font-family:Arial;" text-anchor="middle"><textPath startOffset="21.40746469413373" xlink:href="#id57">September</textPath></text><path d="M 81.81346652052679 110.50000000000001 l -11.643791349176551 6.722546069834926 a34.44509213966984,34.44509213966984 0 0,0 -0.2912523382271307,-0.5146149743873035 l 11.75747705242506 -6.5216743253485" fill="#ffad10" stroke="none" /><path d="M 81.63589988554817 110.18625677009913 l -11.685838934765169 6.481937869085339 a34.36317141055805,34.36317141055805 0 0,0 -0.28170379810919627,-0.5183032595608839 l 11.795388082489694 -6.28037977604987" fill="#ffac0f" stroke="none" /><path d="M 81.4637452351635 109.86951160357371 l -16.44998003591702 8.758687820315522 a39.636428185567425,39.636428185567425 0 0,0 -0.3146225120565706,-0.603330151401674 l 16.59791061694854 -8.475011425809344" fill="#ffee16" stroke="none" /><path d="M 81.29705330413844 109.54985784667822 l -11.367521340159248 5.804337393081641 a33.763654413674075,33.763654413674075 0 0,0 -0.2591442261278527,-0.5184620460907616 l 11.465485479498838 -5.608343490827127" fill="#ffa40f" stroke="none" /><path d="M 81.1358732173502 109.22738970284198 l -8.988343134736247 4.396649038817863 a31.006039929877268,31.006039929877268 0 0,0 -0.22977061626724282,-0.48013221646029913 l 9.062493008963402 -4.2417043202924605" fill="#ff7f0b" stroke="none" /><path d="M 80.9802524753101 108.90220220490707 l -8.922226906901704 4.176052702076896 a30.851169938071543,30.851169938071543 0 0,0 -0.220388322290829,-0.481588257965087 l 8.99259969404759 -4.022275461897119" fill="#ff7d0b" stroke="none" /><path d="M 80.83023694016515 108.57439118712176 l -12.12082069899624 5.421488928045824 a34.278058465534,34.278058465534 0 0,0 -0.23564715393640717,-0.5392068040765184 l 12.212101734949615 -5.212620054193455" fill="#ffab0f" stroke="none" /><path d="M 80.68587082218212 108.24405325689762 l -9.648912874743123 4.118547146402309 a31.491136747823003,31.491136747823003 0 0,0 -0.20795270443287622,-0.4990107881149767 l 9.718191423712485 -3.9523038488460513" fill="#ff860c" stroke="none" /><path d="M 80.5471966667186 107.91128576633889 l -5.804497603389376 2.360638643371122 a27.266163677428963,27.266163677428963 0 0,0 -0.1726095203746636,-0.43508874822832755 l 5.844165798730165 -2.260648877929229" fill="#ff4c07" stroke="none" /><path d="M 80.41425534168474 107.57618678355246 l -10.882987409009457 4.20977332300204 a32.66883054876186,32.66883054876186 0 0,0 -0.19783204006991004,-0.5247729901457093 l 10.953650132893804 -4.022332052662186" fill="#ff960d" stroke="none" /><path d="M 80.28708602549918 107.23885506374661 l -10.902820117125039 4.003666566802815 a32.61468176423793,32.61468176423793 0 0,0 -0.18848153490375336,-0.5272163984628283 l 10.969941822072736 -3.8159152119590654" fill="#ff950d" stroke="none" /><path d="M 80.16572619554312 106.89939002012753 l -9.043444852154003 3.1457795619673568 a30.574958164213683,30.574958164213683 0 0,0 -0.16818349537055816,-0.49720461981435876 l 9.096113769096926 -2.9900732676788366" fill="#ff7a0b" stroke="none" /><path d="M 80.05021161711548 106.5578916946017 l -9.347816976640656 3.0728131114594235 a30.839911719458065,30.839911719458065 0 0,0 -0.1610067850841468,-0.5043514610802694 l 9.39918847750206 -2.9118926166877626" fill="#ff7d0b" stroke="none" /><path d="M 79.94057633289273 106.21446072829308 l -11.129672247275128 3.448000912054063 a32.65153700681982,32.65153700681982 0 0,0 -0.1612732178992868,-0.5368260911152756 l 11.187221785178044 -3.2564372173480636" fill="#ff950d" stroke="none" /><path d="M 79.83685265289637 105.86919833188381 l -12.686760123971565 3.6929309732649442 a34.21331228785934,34.21331228785934 0 0,0 -0.15930615555382652,-0.5653213457580715 l 12.748284771599968 -3.474601703603878" fill="#ffaa0f" stroke="none" /><path d="M 79.73907114497094 105.5222062557868 l -11.099679063963263 3.025266886963549 a32.504569312249046,32.504569312249046 0 0,0 -0.14210768498934,-0.5396060266293087 l 11.149976229757335 -2.834280355961436" fill="#ff930d" stroke="none" /><path d="M 79.64726062577567 105.17358676015961 l -11.311945030628037 2.8754521917686997 a32.6716890672729,32.6716890672729 0 0,0 -0.13350659294063133,-0.5447524584343265 l 11.359639150084963 -2.680843908726274" fill="#ff960d" stroke="none" /><path d="M 79.56144815229197 104.8234425847677 l -10.430195764888799 2.4614978005631087 a31.7167138207606,31.7167138207606 0 0,0 -0.12050710809431156,-0.5309765533171901 l 10.470913734540776 -2.2820869133068924" fill="#ff890c" stroke="none" /><path d="M 79.48165901384964 104.47187691870673 l -7.757268947344095 1.6906606621482478 a28.93936741787181,28.93936741787181 0 0,0 -0.10162167622326668,-0.48629650818923864 l 7.785148334391728 -1.5572477026736" fill="#ff6309" stroke="none" /><path d="M 79.407916724674 104.11899336999214 l -1.6851646740252555 0.337080130594271 a22.71854676777331,22.71854676777331 0 0,0 -0.07321182351125904,-0.38307519698281967 l 1.6907027898186713 -0.30810236857813683" fill="#ff0c01" stroke="none" /><path d="M 79.34024301695615 103.76489593502545 l -11.806841844658011 2.151599890692047 a33.001287282387395,33.001287282387395 0 0,0 -0.09678049048938257,-0.5582041507282401 l 11.842037152639628 -1.948602707043214" fill="#ff9a0e" stroke="none" /><path d="M 79.2786578344484 103.40968896794605 l -13.01176529427028 2.1410810276147756 a34.186745771417165,34.186745771417165 0 0,0 -0.09031569733555317,-0.5798915650039906 l 13.0466024837441 -1.9174012806793346" fill="#ffa90f" stroke="none" /><path d="M 79.22317932658666 103.0534771498775 l -11.820667662130383 1.737231079286262 a32.94764226955984,32.94764226955984 0 0,0 -0.07743556250381145,-0.5602851557952812 l 11.848747741189406 -1.5340576152908958" fill="#ff990e" stroke="none" /><path d="M 79.17382384314188 102.69636545807758 l -11.865737261722392 1.5362572488659416 a32.96477359162807,32.96477359162807 0 0,0 -0.0678413686453703,-0.5618238527253443 l 11.890360716627423 -1.332339719217198" fill="#ff990e" stroke="none" /><path d="M 79.13060592940153 102.33845913500099 l -12.084145177260064 1.3540536722267902 a33.15977080426965,33.15977080426965 0 0,0 -0.05853111283669408,-0.5662354215497899 l 12.105608682578424 -1.146413728394069" fill="#ff9c0e" stroke="none" /><path d="M 79.0935383218832 101.97986365728391 l -1.772806461616728 0.16788661509503275 a22.780738236203764,22.780738236203764 0 0,0 -0.03352714719771983,-0.38963627141375573 l 1.7754272315121886 -0.13742929630561473" fill="#ff0d01" stroke="none" /><path d="M 79.06263194458094 101.62068470465958 l -6.0072775931618505 0.46500127838951205 a27.025247735173078,27.025247735173078 0 0,0 -0.03183321797623577,-0.4628480029434732 l 6.014374772303152 -0.3618098512916955" fill="#ff4906" stroke="none" /><path d="M 79.03789590574601 101.26102812881392 l -10.104331043102027 0.6078514642855941 a31.122597948710077,31.122597948710077 0 0,0 -0.02750409285286623,-0.5335720535681491 l 10.113276725411467 -0.4343076173407144" fill="#ff810b" stroke="none" /><path d="M 79.01933749520258 100.90099992219065 l -12.472996738134892 0.5356441479373707 a33.48449287246956,33.48449287246956 0 0,0 -0.01973243238326755,-0.5744882388665788 l 12.480353857515007 -0.32144964450667185" fill="#ffa00e" stroke="none" /><path d="M 79.00696218219943 100.54070618675478 l -9.180240948299764 0.23645044227168477 a30.183285505770264,30.183285505770264 0 0,0 -0.008894825091878644,-0.518078968892452 l 9.182947204990308 -0.07882455741018037" fill="#ff740a" stroke="none" /><line stroke="#e1ed5e" stroke-width="0.3" x1="15.003131293944662" x2="10.003315487706104" y1="100.72959589197737" y2="100.7725132973878" /><path d="M 14.003168132696942 100.73817937305945 a86.0,86.0 0 0,1 10.791469493833604,-42.453326145846276" fill="none" id="id58" stroke="none" /><text fill="#e1ed5e" style="font-size:6.75px; font-family:Arial;" text-anchor="middle"><textPath startOffset="22.145653131862435" xlink:href="#id58">October</textPath></text><path d="M 79.00077361379809 100.18025310272382 l -1.434014070370599 0.012309286103213855 a22.43406689960588,22.43406689960588 0 0,0 0.0,-0.3851247776540623 l 1.434014070370599 0.012309286103213328" fill="#ff0801" stroke="none" /><path d="M 79.00077361379809 99.81974689727619 l -3.0002256134695204 -0.025753328515696425 a24.000336142109447,24.000336142109447 0 0,0 0.007072748660497724,-0.41195215143822694 l 2.9993414332103567 0.07725239592297574" fill="#ff1e03" stroke="none" /><path d="M 79.00696218219943 99.45929381324524 l -1.6666377915863797 -0.04292667754001417 a22.66719051940339,22.66719051940339 0 0,0 0.013357789408554317,-0.3888974640034377 l 1.6656553151809748 0.07153040610759044" fill="#ff0b01" stroke="none" /><path d="M 79.01933749520258 99.09900007780938 l -9.566967533779987 -0.410846750028269 a30.57578523382856,30.57578523382856 0 0,0 0.027020855955101186,-0.5241973868492432 l 9.558505088368316 0.5750159302542242" fill="#ff7a0b" stroke="none" /><path d="M 79.03789590574601 98.7389718711861 l -6.145653561666382 -0.36970725726579345 a27.156763854176777,27.156763854176777 0 0,0 0.03198813168229094,-0.46510041423061066 l 6.138401468819027 0.4751510956507288" fill="#ff4b07" stroke="none" /><path d="M 79.06263194458094 98.37931529534042 l -7.118746226965628 -0.5510359800648504 a28.140041211033967,28.140041211033967 0 0,0 0.041414606236632054,-0.48130050138020736 l 7.108237998031253 0.6731575288207388" fill="#ff5808" stroke="none" /><path d="M 79.0935383218832 98.0201363427161 l -5.166974149890109 -0.4893178240773601 a26.190091887297605,26.190091887297605 0 0,0 0.046228764140357634,-0.44722135770380456 l 5.157812993268087 0.5779437040640774" fill="#ff3d05" stroke="none" /><path d="M 79.13060592940154 97.66154086499901 l -6.4656193795560775 -0.7244861374707262 a27.50608285565734,27.50608285565734 0 0,0 0.05660740553286738,-0.4687905227194108 l 6.452229887763541 0.8353703371135732" fill="#ff5007" stroke="none" /><path d="M 79.17382384314186 97.30363454192245 l -11.163633709526358 -1.4453558874313392 a32.256809994034974,32.256809994034974 0 0,0 0.07581192626868563,-0.5485373328113722 l 11.137177266702464 1.6367815284427785" fill="#ff900d" stroke="none" /><path d="M 79.22317932658666 96.9465228501225 l -9.424587097087388 -1.3850897497908072 a30.525823616126935,30.525823616126935 0 0,0 0.08064414978443604,-0.5177932918257351 l 9.399421455164685 1.546671223547993" fill="#ff790b" stroke="none" /><path d="M 79.2786578344484 96.59031103205396 l -9.93956016435306 -1.6355508425980552 a31.073226038341314,31.073226038341314 0 0,0 0.09112620460363365,-0.5255917323072422 l 9.910019142257193 1.80593560782589" fill="#ff800b" stroke="none" /><path d="M 79.34024301695615 96.23510406497455 l -4.1437673831265105 -0.7551324533598421 a25.212010582557976,25.212010582557976 0 0,0 0.08124715405443507,-0.4251194417922242 l 4.130193936789916 0.826154460185381" fill="#ff3004" stroke="none" /><path d="M 79.407916724674 95.88100663000787 l -9.85740463929618 -1.9717570005770988 a31.052673867789736,31.052673867789736 0 0,0 0.10904263123977041,-0.5218084643591658 l 9.822104297232043 2.140681916221674" fill="#ff800b" stroke="none" /><path d="M 79.48165901384962 95.52812308129327 l -10.916755987058261 -2.379256157144044 a32.173022023708725,32.173022023708725 0 0,0 0.1222408432551473,-0.5386157103314341 l 10.874304282245452 2.566306201414486" fill="#ff8f0d" stroke="none" /><path d="M 79.56144815229197 95.17655741523228 l -9.784979158143113 -2.3092284382048676 a31.053773078059262,31.053773078059262 0 0,0 0.12689528946808826,-0.5177760841535102 l 9.743896342158727 2.476860346966495" fill="#ff800b" stroke="none" /><path d="M 79.64726062577567 94.8264132398404 l -9.728504364045033 -2.4729477663198565 a31.037891602133868,31.037891602133868 0 0,0 0.13569547346278843,-0.515257815031814 l 9.68461940977752 2.639586085724455" fill="#ff800b" stroke="none" /><path d="M 79.73907114497095 94.47779374421319 l -11.687155950491704 -3.185386324780558 a33.11347597715918,33.11347597715918 0 0,0 0.15418502922374894,-0.5471482750524841 l 11.630752429193372 3.385542523736055" fill="#ff9b0e" stroke="none" /><path d="M 79.83685265289637 94.1308016681162 l -10.27858832845653 -2.991947260662315 a31.705191564678678,31.705191564678678 0 0,0 0.15659900686087738,-0.5212671627731496 l 10.225713001592025 3.167952027026188" fill="#ff890c" stroke="none" /><path d="M 79.94057633289273 93.78553927170692 l -11.592414960035283 -3.5913597873375624 a33.13597749370668,33.13597749370668 0 0,0 0.17299391954861626,-0.5419009890592373 l 11.52905632470941 3.7898298100881913" fill="#ff9c0e" stroke="none" /><path d="M 80.05021161711548 93.44210830539832 l -10.818572060312066 -3.5562795203701385 a32.38809138754905,32.38809138754905 0 0,0 0.17815698679563666,-0.5266894750393252 l 10.755929651944061 3.741470669883625" fill="#ff920d" stroke="none" /><path d="M 80.16572619554312 93.10060997987247 l -11.144522810768123 -3.876643542271729 a32.799523457901515,32.799523457901515 0 0,0 0.18954974235669633,-0.5302043648248347 l 11.076332898367482 4.0673828634774845" fill="#ff970e" stroke="none" /><path d="M 80.28708602549916 92.7611449362534 l -8.484071814657533 -3.1154686869818105 a30.03800971983492,30.03800971983492 0 0,0 0.18190062645936825,-0.4825130227779479 l 8.429340504383728 3.260649989953903" fill="#ff720a" stroke="none" /><path d="M 80.41425534168474 92.42381321644754 l -11.268572813200327 -4.3589260406609664 a33.08225845917682,33.08225845917682 0 0,0 0.20942853688932733,-0.5278967218070237 l 11.192085601344868 4.551723779681573" fill="#ff9b0e" stroke="none" /><path d="M 80.5471966667186 92.08871423366112 l -1.5623652567515214 -0.6354003485149967 a22.686629419403452,22.686629419403452 0 0,0 0.14981186547855496,-0.35949394005385166 l 1.551227546736488 0.6621267980101122" fill="#ff0b01" stroke="none" /><path d="M 80.68587082218212 91.75594674310238 l -8.512292170937625 -3.633391355592603 a30.255303925117804,30.255303925117804 0 0,0 0.20799241790789363,-0.47592735604407177 l 8.448665871012754 3.7789807814125416" fill="#ff750a" stroke="none" /><path d="M 80.83023694016515 91.42560881287825 l -11.08944943744521 -4.960169681266866 a33.14821682769175,33.14821682769175 0 0,0 0.236797499357482,-0.5174452712406852 l 11.002667473232682 5.149803934722222" fill="#ff9c0e" stroke="none" /><path d="M 80.9802524753101 91.09779779509293 l -10.891294833967827 -5.097675916012043 a33.025248558973885,33.025248558973885 0 0,0 0.2447339850860045,-0.5113999022653001 l 10.802181590921917 5.28388832034243" fill="#ff9a0e" stroke="none" /><path d="M 81.1358732173502 90.77261029715801 l -10.779917670437888 -5.272997921174408 a33.00046382679139,33.00046382679139 0 0,0 0.25328655350737805,-0.5067427769504791 l 10.687811203718766 5.457272554288657" fill="#ff9a0e" stroke="none" /><path d="M 81.29705330413844 90.45014215332179 l -10.757782129339224 -5.493000207473047 a33.07902842208881,33.07902842208881 0 0,0 0.26257176781480146,-0.503515986170198 l 10.661902292549483 5.676862436747732" fill="#ff9b0e" stroke="none" /><path d="M 81.46374523516351 90.13048839642627 l -10.463133057506429 -5.571029014808994 a32.85383978561072,32.85383978561072 0 0,0 0.26933053819452846,-0.4955378549472093 l 10.36595716969655 5.749821703230824" fill="#ff980e" stroke="none" /><path d="M 81.63589988554816 89.8137432299009 l -4.193440825766783 -2.3260309372775336 a25.79534835860543,25.79534835860543 0 0,0 0.2181139621971009,-0.38538647192607534 l 4.152893498548313 2.397674179302715" fill="#ff3805" stroke="none" /><line stroke="#e1ed5e" stroke-width="0.3" x1="26.387840678322718" x2="22.05771365940052" y1="57.5" y2="55.0" /><path d="M 25.521815274538284 57.0 a86.0,86.0 0 0,1 29.574782752854787,-30.346332500585742" fill="none" id="id59" stroke="none" /><text fill="#e1ed5e" style="font-size:6.75px; font-family:Arial;" text-anchor="middle"><textPath startOffset="21.40746469413373" xlink:href="#id59">November</textPath></text><path d="M 81.81346652052679 89.5 l -5.186381349102065 -2.994358668024132 a26.988717336048264,26.988717336048264 0 0,0 0.2350926633637816,-0.39923873855706626 l 5.134214975608504 3.0829485748747714" fill="#ff4806" stroke="none" /><path d="M 81.99639281039701 89.18935116829357 l -10.490603197175313 -6.299305800391654 a33.23658485883348,33.23658485883348 0 0,0 0.29791381059663286,-0.48661982051754127 l 10.380921422123286 6.478462737033736" fill="#ff9d0e" stroke="none" /><path d="M 82.18462484594161 88.88188828441811 l -10.26101919186198 -6.403634877420072 a33.095249253284145,33.095249253284145 0 0,0 0.3049212010353277,-0.47938677409285013 l 10.149580299200759 6.578835326191596" fill="#ff9b0e" stroke="none" /><path d="M 82.37810715431573 88.57770195909679 l -9.821943455946457 -6.3664650827901985 a32.70480460760436,32.70480460760436 0 0,0 0.30941168597160945,-0.4684887286169932 l 9.711207331054121 6.53413368974625" fill="#ff960d" stroke="none" /><path d="M 82.576782715395 88.27688183743585 l -9.20213123111942 -6.191604570365695 a32.09122113883394,32.09122113883394 0 0,0 0.31145334410589165,-0.4544197369464467 l 9.094488150198215 6.348659042382179" fill="#ff8e0d" stroke="none" /><path d="M 82.78059297857968 87.97951657250589 l -10.144664555087276 -7.081763733804537 a33.37196817473571,33.37196817473571 0 0,0 0.33194763257336046,-0.4669259161553596 l 10.021601823983945 7.254866876669414" fill="#ff9f0e" stroke="none" /><path d="M 82.98947788004972 87.6856937992154 l -5.00592737860087 -3.623905375995727 a27.17996756415408,27.17996756415408 0 0,0 0.2768447699880891,-0.3755931000664026 l 4.942980589028962 3.709304785330993" fill="#ff4b07" stroke="none" /><path d="M 83.2033758604659 87.39550010848427 l -1.374097649516202 -1.0311484933150026 a22.71796727724126,22.71796727724126 0 0,0 0.2367515341501816,-0.30991535802892844 l 1.3561941380117137 1.0545847645848176" fill="#ff0c01" stroke="none" /><path d="M 83.42222388311158 87.10902102172516 l -8.451493788301422 -6.57193268818636 a31.705981809799134,31.705981809799134 0 0,0 0.33779488001523833,-0.4267927960111494 l 8.33743247764462 6.7160454281121895" fill="#ff890c" stroke="none" /><path d="M 83.64595745247001 86.82634096563983 l -7.860104572324911 -6.3315438558561645 a31.093051643903983,31.093051643903983 0 0,0 0.3384007548948512,-0.4127938977786325 l 7.750256998191432 6.465540035333293" fill="#ff810b" stroke="none" /><path d="M 83.8745106332314 86.54754324733833 l -8.99440879053219 -7.503455710295811 a32.71329317858874,32.71329317858874 0 0,0 0.3634375782928752,-0.42812855337821853 l 8.8642766487322 7.656751046123584" fill="#ff960d" stroke="none" /><path d="M 84.10781606972428 86.27271002978789 l -9.315782308960658 -8.04675088178749 a33.3099146943223,33.3099146943223 0 0,0 0.37749481703484805,-0.429519806017878 l 9.176276427967219 8.20548296561667" fill="#ff9e0e" stroke="none" /><path d="M 84.34580500576568 86.00192230759919 l -8.442718095586363 -7.549530581456564 a32.32585099857354,32.32585099857354 0 0,0 0.37344408449986705,-0.41048046664006926 l 8.31187631024463 7.693348623654293" fill="#ff910d" stroke="none" /><path d="M 84.58840730492382 85.73525988315684 l -17.563518046310374 -16.256530095565438 a44.9322363541541,44.9322363541541 0 0,0 0.5287971472434382,-0.561564245473312 l 17.281865065330663 16.55563580098326" fill="#d0ff1d" stroke="none" /><path d="M 84.83555147118756 85.47280134310135 l -1.2209858087290257 -1.169676784946011 a22.690843022388332,22.690843022388332 0 0,0 0.27187217130705343,-0.27896479839209265 l 1.2007268362711698 1.190464275405834" fill="#ff0b01" stroke="none" /><path d="M 85.08716467003674 85.21462403516908 l -9.89904954067246 -9.814442788036189 a34.939672487125485,34.939672487125485 0 0,0 0.42594468879602304,-0.4223041577759853 l 9.72911293174646 9.982926956040847" fill="#ffb310" stroke="none" /><path d="M 85.34317274990677 84.96080404539775 l -7.8340054536438775 -8.038379733650986 a32.224401551534626,32.224401551534626 0 0,0 0.39947135001854117,-0.3826845169102454 l 7.6948616177600355 8.171676380866801" fill="#ff900d" stroke="none" /><path d="M 85.60350026404147 84.71141617570332 l -8.385196271860663 -8.904787860713023 a33.231384359994905,33.231384359994905 0 0,0 0.41866833141322707,-0.3875131572008194 l 8.231098169133483 9.047418764046208" fill="#ff9d0e" stroke="none" /><path d="M 85.86807049272753 84.46653392183569 l -6.811427951901364 -7.486952505690842 a31.121759163624354,31.121759163624354 0 0,0 0.3982621482878785,-0.3561284688052934 l 6.681900776790093 7.602776504379536" fill="#ff810b" stroke="none" /><path d="M 86.13680546590413 84.22622945171909 l -8.16506435983042 -9.290344401295734 a33.368458881156535,33.368458881156535 0 0,0 0.43350477673662485,-0.37445110123593206 l 8.004380103330947 9.429139634996377" fill="#ff9f0e" stroke="none" /><path d="M 86.40962598614128 83.9905735841838 l -9.13989694205891 -10.76677561580144 a35.123072373689595,35.123072373689595 0 0,0 0.4629984712440991,-0.3862497918230853 l 8.953724136652902 10.922087591536405" fill="#ffb610" stroke="none" /><path d="M 86.68645165197937 83.75963576809568 l -11.378056872732989 -13.879379338565165 a38.94707076441546,38.94707076441546 0 0,0 0.5206838149537799,-0.4194260240534184 l 11.138122287423965 14.072653656411983" fill="#ffe615" stroke="none" /><path d="M 86.96720088162412 83.53348406188908 l -5.785432415973176 -7.309704862416211 a30.322178576675327,30.322178576675327 0 0,0 0.41092335618647763,-0.31953648721830863 l 5.659099115151453 7.4079424012553226" fill="#ff760a" stroke="none" /><path d="M 87.25179093698888 83.31218511350988 l -6.518840397354332 -8.53337133772481 a31.738421975024174,31.738421975024174 0 0,0 0.43579424348511986,-0.32702812476482224 l 6.37139316495846 8.644018489753636" fill="#ff890c" stroke="none" /><path d="M 87.54013794807813 83.09580414077388 l -7.115001898564797 -9.652866551082994 a32.99170899703614,32.99170899703614 0 0,0 0.45877169177859844,-0.3321153253836799 l 6.94824919641223 9.773582647839753" fill="#ff9a0e" stroke="none" /><path d="M 87.83215693770416 82.88440491214696 l -7.218617799821348 -10.153889947722503 a33.45832749651243,33.45832749651243 0 0,0 0.4709736118611836,-0.32877615873310556 l 7.0432490967864 10.276310922260736" fill="#ffa00e" stroke="none" /><path d="M 88.12776184653039 82.6780497279521 l -7.003447132637421 -10.218238667071265 a33.38792449108718,33.38792449108718 0 0,0 0.47554534038198165,-0.3199681279232339 l 6.827005504158449 10.336956469051609" fill="#ff9f0e" stroke="none" /><path d="M 88.4268655584334 82.4767994020092 l -11.754960676847151 -17.798508692862228 a42.32993230659945,42.32993230659945 0 0,0 0.6097815575397059,-0.39525303842546616 l 11.447693487050419 17.9976755729916" fill="#efff19" stroke="none" /><path d="M 88.72937992617638 82.28071324371311 l -6.351713397027909 -9.985948451681253 a32.83483965069316,32.83483965069316 0 0,0 0.4781938947914425,-0.2984283574174042 l 6.179355373446769 10.093512605940195" fill="#ff980e" stroke="none" /><path d="M 89.03521579738668 82.08984904055464 l -6.377714436046148 -10.417517227433997 a33.21474136490968,33.21474136490968 0 0,0 0.4888375502528761,-0.29353290348321764 l 6.197944129235838 10.525464131453138" fill="#ff9d0e" stroke="none" /><line stroke="#e1ed5e" stroke-width="0.3" x1="56.869717070023135" x2="54.33264160355391" y1="26.7553504044142" y2="22.446841604673864" /><path d="M 56.362301976729285 25.89364864446614 a86.0,86.0 0 0,1 42.16139366436587,-11.88097634709845" fill="none" id="id60" stroke="none" /><text fill="#e1ed5e" style="font-size:6.75px; font-family:Arial;" text-anchor="middle"><textPath startOffset="22.145653131862474" xlink:href="#id60">December</textPath></text><path d="M 89.34428304082924 81.90426304109057 l -6.444387665699802 -10.943979134072197 a33.70042564927772,33.70042564927772 0 0,0 0.5010250820959563,-0.2892669660188532 l 6.255570115743446 11.052992997367225" fill="#ffa30f" stroke="none" /><path d="M 89.65649057296885 81.72400993836675 l -6.335468117664574 -11.194165111083178 a33.86263926276937,33.86263926276937 0 0,0 0.5083520872362568,-0.28197433350569334 l 6.142371842272214 11.301272360022018" fill="#ffa50f" stroke="none" /><path d="M 89.97174638481275 81.54914285379989 l -6.134426082419616 -11.286653056842821 a33.846000178507296,33.846000178507296 0 0,0 0.5128655141757641,-0.27307199903362467 l 5.939771752457291 11.390295523599022" fill="#ffa50f" stroke="none" /><path d="M 90.28995756902619 81.37971332152246 l -4.684707644208918 -8.98354460962709 a31.131661239148762,31.131661239148762 0 0,0 0.4759775698440528,-0.24303753863683283 l 4.529802852651284 9.062640099936758" fill="#ff810b" stroke="none" /><path d="M 90.6110303473126 81.2157712731953 l -4.259385538550721 -8.52162432635832 a30.526827715750763,30.526827715750763 0 0,0 0.470752394204237,-0.23026858570859546 l 4.112472895084431 8.593486662164128" fill="#ff790b" stroke="none" /><path d="M 90.93487009805054 81.0573650232925 l -2.718981140714507 -5.6816248431288985 a27.29870774854816,27.29870774854816 0 0,0 0.4244445798392315,-0.1986614948279786 l 2.621047847003752 5.72746256952742" fill="#ff4d07" stroke="none" /><path d="M 91.26138138417902 80.90454125486306 l -5.287074041913319 -11.55321094652845 a33.70550412615172,33.70550412615172 0 0,0 0.5281918884719624,-0.23625351338391692 l 5.0879687505857385 11.642268210822213" fill="#ffa30f" stroke="none" /><path d="M 91.5904679813234 80.7573450057729 l -5.893863942719288 -13.486314123162135 a35.71795844551441,35.71795844551441 0 0,0 0.5639439146215528,-0.24071412297391812 l 5.661484952927303 13.585502895795457" fill="#ffbd11" stroke="none" /><path d="M 91.92203290615298 80.6158196554323 l -4.925176250616042 -11.818630054019756 a33.803803241748575,33.803803241748575 0 0,0 0.537553775589431,-0.21861844077693907 l 4.72156801383617 11.901435751375987" fill="#ffa40f" stroke="none" /><path d="M 92.25597844496254 80.48000691201159 l -4.274229885720115 -10.773851445629976 a32.59072543409109,32.59072543409109 0 0,0 0.5218050417332892,-0.20184539979144256 l 4.088652581493298 10.84563673355946" fill="#ff950d" stroke="none" /><path d="M 92.592206182469 80.34994680014964 l -5.120685927977195 -13.583227798045552 a35.516387353146136,35.516387353146136 0 0,0 0.5723395606837512,-0.2101710144120399 l 4.8867572156393155 13.669129661466314" fill="#ffbb11" stroke="none" /><path d="M 92.93061703081487 80.22567764915836 l -4.191776740643818 -11.725145582515488 a33.45190873619723,33.45190873619723 0 0,0 0.5423896113691662,-0.18867126210894375 l 3.989881357229649 11.795375277193017" fill="#ffa00e" stroke="none" /><path d="M 93.27111125876988 80.10723608172694 l -0.8785018070859745 -2.597134493108403 a23.741691631155255,23.741691631155255 0 0,0 0.3871899787356708,-0.12727703658060135 l 0.8337890907025414 2.611832451091033" fill="#ff1b02" stroke="none" /><path d="M 93.61358852112211 79.99465700312896 l -3.1158676303346446 -9.760410973181541 a31.245694386188273,31.245694386188273 0 0,0 0.5123689306816536,-0.1587332044509245 l 2.947858066781376 9.812460765439107" fill="#ff830c" stroke="none" /><path d="M 93.9579478882505 79.88797359093562 l -3.6703188335476225 -12.217297690373933 a33.75670816453487,33.75670816453487 0 0,0 0.5564069783861516,-0.16196196224602258 l 3.460051842779845 12.278503346922475" fill="#ffa40f" stroke="none" /><path d="M 94.30408787586887 79.78721728523814 l -3.958961167031867 -14.048956532594312 a35.59611431774877,35.59611431774877 0 0,0 0.5895709816270706,-0.160690192748157 l 3.7172087844701203 14.114847219486608" fill="#ffbc11" stroke="none" /><path d="M 94.6519064749342 79.69241777938228 l -3.069040227230287 -11.653645632925889 a33.05099433466676,33.05099433466676 0 0,0 0.5498972606747868,-0.1397817333070221 l 2.8685376733301204 11.704612598068174" fill="#ff9b0e" stroke="none" /><path d="M 95.00130118170881 79.60360301121753 l -2.908412534335749 -11.867315638300823 a33.21851234516463,33.21851234516463 0 0,0 0.5550146610720124,-0.1309819487864227 l 2.7042657195238307 11.915493730733477" fill="#ff9d0e" stroke="none" /><path d="M 95.35216902796891 79.52079915486377 l -2.764667709765629 -12.181636044653983 a33.49142282807823,33.49142282807823 0 0,0 0.5617589448071232,-0.12243274740660985 l 2.555146348339388 12.227300250194308" fill="#ffa00e" stroke="none" /><path d="M 95.70440661134978 79.44403061299748 l -0.8640848590930077 -4.134958853000184 a25.224278324130452,25.224278324130452 0 0,0 0.4246129065488057,-0.08493447328776438 l 0.7929754670132253 4.1491827229508145" fill="#ff3004" stroke="none" /><path d="M 96.05791012581881 79.37332000966035 l -2.4141180812033944 -12.631685910057591 a33.86030540229666,33.86030540229666 0 0,0 0.5718606779785113,-0.10421206520915359 l 2.196922669673844 12.671266149198107" fill="#ffa50f" stroke="none" /><path d="M 96.41257539226777 79.30868818359171 l -2.19359401960349 -12.652067380146637 a33.84082021191056,33.84082021191056 0 0,0 0.5732352887863278,-0.09432564862818044 l 1.9760812277640898 12.687859027270486" fill="#ffa50f" stroke="none" /><path d="M 96.76829788921471 79.25015418208739 l -1.9130750239683862 -12.28331400130114 a33.431398107288345,33.431398107288345 0 0,0 0.5678162090145006,-0.08344942890008337 l 1.7019337093462006 12.314344503500108" fill="#ffa00e" stroke="none" /><path d="M 97.12497278360702 79.19773525538626 l -1.0210466228253547 -7.387784728958029 a28.45800907799183,28.45800907799183 0 0,0 0.4844937804864375,-0.0627274197873771 l 0.8940750204481229 7.404223744945801" fill="#ff5d08" stroke="none" /><path d="M 97.48249496171623 79.15144685158666 l -0.5409132820451674 -4.47953793057322 a25.512077930414886,25.512077930414886 0 0,0 0.43524102847763063,-0.0487696650668285 l 0.4639363519667379 4.48816335614702" fill="#ff3404" stroke="none" /><path d="M 97.84075906011542 79.11130261209362 l -2.0708974012696513 -20.034053790604695 a41.14080254933819,41.14080254933819 0 0,0 0.7031167617927782,-0.06658588836951752 l 1.7266810760918574 20.066651434479397" fill="#fdff18" stroke="none" /><path d="M 98.1996594967304 79.07731436759882 l -0.8569857637634354 -9.95947360741047 a30.996276263489264,30.996276263489264 0 0,0 0.530524892171953,-0.04106598192802315 l 0.6858918768162648 9.972717356333545" fill="#ff7f0b" stroke="none" /><path d="M 98.5590905019552 79.04949213459386 l -1.4627973477957066 -21.268752397061462 a42.31899633210311,42.31899633210311 0 0,0 0.7251776115329536,-0.04362488433495516 l 1.0974753841302696 21.290729259221113" fill="#efff19" stroke="none" /><path d="M 98.9189461498227 79.02784411241856 l -0.6498005979033398 -12.605958003699367 a33.62269456209995,33.62269456209995 0 0,0 0.5766680209740613,-0.024764606070406956 l 0.4333068163284582 12.615255178195603" fill="#ffa20f" stroke="none" /><path d="M 99.27912038922189 79.0123766808444 l -0.42846840046913204 -12.4743899796261 a33.48174629344775,33.48174629344775 0 0,0 0.574589313610466,-0.014799382509993417 l 0.21426577278792208 12.479907079486138" fill="#ffa00e" stroke="none" /><path d="M 99.63950707515114 79.00309439819443 l -0.19519342092300931 -11.369038199382892 a32.37071370014209,32.37071370014209 0 0,0 0.5556863457718587,-0.004769898953632815 l 2.7850216273799935e-15 11.37071370014209" fill="#ff920d" stroke="none" /></svg>