<?xml version="1.0" encoding="utf-8" ?>
<svg baseProfile="full" height="200mm" version="1.1" viewBox="0,0,200,200" width="200mm" xmlns="http://www.w3.org/2000/svg" xmlns:ev="http://www.w3.org/2001/xml-events" xmlns:xlink="http://www.w3.org/1999/xlink"><defs /><rect fill="#1a1a1a" height="200" width="200" x="0" y="0" /><text alignment-baseline="middle" fill="#e1ed5e" style="dominant-baseline: central; font-size:9.0px; font-family:Arial;" text-anchor="middle" x="100.0" y="100.0">2020</text><line stroke="#e1ed5e" stroke-width="0.3" x1="100.0" x2="100.0" y1="15.0" y2="10.0" /><path d="M 100.0 14.0 a86.0,86.0 0 0,1 42.35913384403234,11.155469271406648" fill="none" id="id49" stroke="none" /><text fill="#e1ed5e" style="font-size:6.75px; font-family:Arial;" text-anchor="middle"><textPath startOffset="22.145653131862478" xlink:href="#id49">January</textPath></text><path d="M 101.80034050326958 79.07731436759882 l 0.14423830667682916 -1.676267762275234 a22.682461975783173,22.682461975783173 0 0,0 0.38765454793387727,0.036711288732252025 l -0.17299241799571938 1.6735447180377983" fill="#ff0000" stroke="none" /><path d="M 104.29559338865022 79.4440306129975 l 0.35284870611304536 -1.6885087914203927 a22.724982361680723,22.724982361680723 0 0,0 0.38117108902148666,0.08307446475443758 l -0.38178221175366617 1.6822028685322363" fill="#ff0100" stroke="none" /><path d="M 105.69591212413111 79.78721728523813 l 3.7061655535745235 -13.15187408211016 a34.66409363924967,34.66409363924967 0 0,0 0.5713632830044183,0.1663155245448787 l -3.9313888489605464 13.086314863262766" fill="#ffa80f" stroke="none" /><path d="M 106.04205211174951 79.88797359093562 l 0.8098577145327164 -2.695752939732637 a23.814774134786894,23.814774134786894 0 0,0 0.3905162166362041,0.12098292215776568 l -0.8560145640405507 2.681453429768225" fill="#ff1101" stroke="none" /><path d="M 106.38641147887787 79.99465700312896 l 5.590386062548497 -17.511804717891497 a39.38248407604107,39.38248407604107 0 0,0 0.6422669205235202,0.2111258938181077 l -5.89017572071976 17.41325790267137" fill="#ffe415" stroke="none" /><path d="M 106.72888874123014 80.10723608172694 l 5.581146059829222 -16.499666621220694 a38.418042081490434,38.418042081490434 0 0,0 0.6229105513370992,0.21668062484655137 l -5.863562383211339 16.40142756380555" fill="#ffd814" stroke="none" /><path d="M 107.06938296918511 80.22567764915836 l 6.329685545061307 -17.705257006600227 a39.802687168836385,39.802687168836385 0 0,0 0.6414124348214956,0.23553553055441603 l -6.632687131536927 17.593990627037087" fill="#ffea15" stroke="none" /><path d="M 107.40779381753099 80.34994680014964 l 7.617661589726272 -20.206752399389625 a42.59494409869656,42.59494409869656 0 0,0 0.6819810325485469,0.26380491401097533 l -7.963414884768345 20.07300759724061" fill="#f2ff19" stroke="none" /><path d="M 107.74402155503746 80.48000691201159 l 2.288321137309988 -5.76806410802567 a27.205399034852928,27.205399034852928 0 0,0 0.4326248399630025,0.1759447561323054 l -2.3870004384634305 5.72793209531407" fill="#ff4206" stroke="none" /><path d="M 108.07796709384702 80.6158196554323 l 3.4769660869893686 -8.343452863714292 a30.038943459226658,30.038943459226658 0 0,0 0.4742790490484853,0.20244152366326099 l -3.619680211208284 8.28253669039163" fill="#ff6909" stroke="none" /><path d="M 108.4095320186766 80.7573450057729 l 3.0845074460165676 -7.057956670954196 a28.7025280624999,28.7025280624999 0 0,0 0.44979129950137303,0.20118592715260386 l -3.205212148373572 7.00396699289174" fill="#ff5708" stroke="none" /><path d="M 108.73861861582097 80.90454125486305 l 2.675047284959514 -5.845461086807723 a27.428475191999468,27.428475191999468 0 0,0 0.4264622243563459,0.19960585433883293 l -2.7749982231873647 5.798679000898357" fill="#ff4506" stroke="none" /><path d="M 109.06512990194946 81.05736502329252 l 3.8257330101010383 -7.994310584904003 a29.862574952714642,29.862574952714642 0 0,0 0.46050899186094996,0.22525802431905617 l -3.9624022512240553 7.9274588104877255" fill="#ff6709" stroke="none" /><path d="M 109.71004243097381 81.37971332152246 l 3.0860589674145347 -5.9179249821447035 a27.674248725111468,27.674248725111468 0 0,0 0.41934549804928645,0.22327785798213393 l -3.1871932812503805 5.864076656439997" fill="#ff4806" stroke="none" /><line stroke="#e1ed5e" stroke-width="0.3" x1="143.13028292997686" x2="145.6673583964461" y1="26.7553504044142" y2="22.446841604673864" /><path d="M 143.63769802327073 25.89364864446614 a86.0,86.0 0 0,1 29.32050498858742,28.57503671076992" fill="none" id="id50" stroke="none" /><text fill="#e1ed5e" style="font-size:6.75px; font-family:Arial;" text-anchor="middle"><textPath startOffset="20.669276256404974" xlink:href="#id50">February</textPath></text><path d="M 111.8722381534696 82.67804972795209 l 3.527501274250108 -5.146729779783681 a27.23955869160218,27.23955869160218 0 0,0 0.3834355839760979,0.2676678167234586 l -3.6153319493999665 5.085417147255096" fill="#ff4206" stroke="none" /><path d="M 114.91283532996326 85.21462403516908 l 2.145447851794685 -2.1271108008540875 a24.021183020586562,24.021183020586562 0 0,0 0.2878117476167397,0.29532020788586477 l -2.1816464005622387 2.0899679009004832" fill="#ff1402" stroke="none" /><path d="M 115.16444852881244 85.47280134310134 l 6.452455800717679 -6.18130669663228 a29.935476391219794,29.935476391219794 0 0,0 0.3523037311626647,0.37413435378597715 l -6.557615365616602 6.069630882901806" fill="#ff6809" stroke="none" /><path d="M 115.41159269507618 85.73525988315684 l 39.58602947945537 -36.640237901079026 a74.94034448718304,74.94034448718304 0 0,0 0.8657476129663016,0.9516082833093094 l -40.20917479326355 35.95529204221205" fill="#42ffd4" stroke="none" /><path d="M 115.6541949942343 86.00192230759917 l 16.37160185180154 -14.639587328187663 a42.96239659812982,42.96239659812982 0 0,0 0.4868845264846667,0.5539852149797773 l -16.620497442244798 14.356389835396591" fill="#eeff19" stroke="none" /><path d="M 115.8921839302757 86.27271002978787 l 15.63315739999529 -13.503549022665995 a41.65772123203746,41.65772123203746 0 0,0 0.4628082302542638,0.5451869315247795 l -15.862660193756668 13.233195308691661" fill="#fdff18" stroke="none" /><path d="M 116.1254893667686 86.54754324733833 l 16.960300003976126 -14.14888547728938 a43.08716225490099,43.08716225490099 0 0,0 0.46893847539709377,0.5720286916549151 l -17.200685298611848 13.855654503935972" fill="#ecff1a" stroke="none" /><path d="M 116.7966241395341 87.39550010848427 l 17.65425061974979 -13.248078790884941 a43.07224856226549,43.07224856226549 0 0,0 0.4387174752119978,0.5952045132558198 l -17.879070114545613 12.943067968360246" fill="#ecff1a" stroke="none" /><path d="M 117.01052211995028 87.68569379921539 l 14.66463569037216 -10.616065335372847 a39.103932808543064,39.103932808543064 0 0,0 0.3889629119906456,0.5471250468748255 l -14.844713700892767 10.362763061788518" fill="#ffe115" stroke="none" /><path d="M 117.21940702142032 87.97951657250589 l 15.689254663571214 -10.952318244094608 a40.13389627907287,40.13389627907287 0 0,0 0.3895095220602087,0.5683060333189377 l -15.874953922446744 10.68137747570562" fill="#ffee16" stroke="none" /><path d="M 117.42321728460499 88.27688183743584 l 15.693116066941805 -10.559028851356246 a39.91472923872506,39.91472923872506 0 0,0 0.3776229155633843,0.5717692240788999 l -15.872063421425914 10.288079748938289" fill="#ffeb16" stroke="none" /><path d="M 117.62189284568427 88.57770195909679 l 11.845724923416537 -7.678255779370286 a35.116543867912036,35.116543867912036 0 0,0 0.32354428427068194,0.5086653541507284 l -11.975786899313109 7.473776750540883" fill="#ffae10" stroke="none" /><path d="M 117.81537515405839 88.88188828441811 l 43.76003684382425 -27.309499468877892 a72.58245424379784,72.58245424379784 0 0,0 0.6505877670063185,1.0626862238359909 l -44.22239257528597 26.554276128917348" fill="#3fffbb" stroke="none" /><line stroke="#e1ed5e" stroke-width="0.3" x1="172.87174338648825" x2="177.1583165268699" y1="56.24261187166439" y2="53.66864786411523" /><path d="M 173.72905801456457 55.72781907015455 a86.0,86.0 0 0,1 12.242430191666344,42.057860355516425" fill="none" id="id51" stroke="none" /><text fill="#e1ed5e" style="font-size:6.75px; font-family:Arial;" text-anchor="middle"><textPath startOffset="22.145653131862474" xlink:href="#id51">March</textPath></text><path d="M 118.00360718960297 89.18935116829356 l 2.6466797476215036 -1.5892551431609239 a24.08717437093101,24.08717437093101 0 0,0 0.2098179733872265,0.35631678940186223 l -2.6735714311384977 1.5435871854655052" fill="#ff1502" stroke="none" /><path d="M 118.18653347947321 89.5 l 22.3193444588753 -12.88607953146764 a46.77215906293527,46.77215906293527 0 0,0 0.3954845188328695,0.6987832501830031 l -22.537262342729548 12.501039511185517" fill="#c1ff1e" stroke="none" /><path d="M 118.36410011445183 89.81374322990088 l 22.137095280622493 -12.27907358744549 a46.31455383034155,46.31455383034155 0 0,0 0.3796793248754292,0.6985671935971923 l -22.344619955113263 11.897251560373695" fill="#c6ff1e" stroke="none" /><path d="M 118.53625476483649 90.13048839642627 l 7.262907982045076 -3.867089415520039 a29.228256978442104,29.228256978442104 0 0,0 0.23200545696347932,0.4449010547936279 l -7.328221507983499 3.7418421176219128" fill="#ff5e08" stroke="none" /><path d="M 118.70294669586156 90.45014215332178 l 26.433869146557157 -13.497321935006758 a50.680416733504956,50.680416733504956 0 0,0 0.3889844746462698,0.7782295196619525 l -26.661673534415165 13.041560559181056" fill="#94ff23" stroke="none" /><path d="M 118.8641267826498 90.77261029715802 l 20.671260211422698 -10.11134921946573 a44.01174443118855,44.01174443118855 0 0,0 0.3261495393742988,0.6815270976822985 l -20.84178900875691 9.755009619718328" fill="#e1ff1b" stroke="none" /><path d="M 119.16976305983485 91.42560881287824 l 3.0394043954753363 -1.3594869264329543 a24.32959213453794,24.32959213453794 0 0,0 0.16725565564636644,0.3827136718533828 l -3.062293933138673 1.3071111848037222" fill="#ff1802" stroke="none" /><path d="M 119.31412917781788 91.75594674310238 l 10.322808184735413 -4.40619298194588 a32.223854302911704,32.223854302911704 0 0,0 0.2127912276778901,0.5106214825004689 l -10.396925256949787 4.228338990004135" fill="#ff870c" stroke="none" /><path d="M 119.4528033332814 92.08871423366111 l 18.51134871091376 -7.5284043673968535 a40.983665915344176,40.983665915344176 0 0,0 0.2594487072157875,0.6539802266233765 l -18.637856093095674 7.2095231235599115" fill="#fff817" stroke="none" /><path d="M 119.58574465831526 92.42381321644754 l 19.893673784775896 -7.6953003847384736 a42.33016419689346,42.33016419689346 0 0,0 0.2563380016638757,0.6799670042000815 l -20.02284247025421 7.352665100344233" fill="#f5ff19" stroke="none" /><path d="M 119.71291397450082 92.76114493625339 l 9.551108304277266 -3.5072992659656004 a31.17471463880324,31.17471463880324 0 0,0 0.1801599079758931,0.5039393268892293 l -9.609908382297101 3.342824982695454" fill="#ff790b" stroke="none" /><path d="M 119.83427380445688 93.10060997987247 l 10.307630044170772 -3.585528795207929 a31.913443721793648,31.913443721793648 0 0,0 0.1755460951284309,0.5189708377502671 l -10.367661560871568 3.4080562829835004" fill="#ff830c" stroke="none" /><path d="M 119.94978838288452 93.4421083053983 l 2.91105678891981 -0.9569221874528385 a24.064302808332695,24.064302808332695 0 0,0 0.1256331751435097,0.3935441317623222 l -2.9270546798405768 0.9068090219991293" fill="#ff1402" stroke="none" /><path d="M 120.05942366710727 93.78553927170692 l 6.5675342686087035 -2.0346389044523057 a27.87548266239255,27.87548266239255 0 0,0 0.13768322111516376,0.4583026640515663 l -6.601493809727494 1.921598636810016" fill="#ff4b07" stroke="none" /><path d="M 120.16314734710363 94.1308016681162 l 15.675980004237779 -4.563049315053109 a37.32659695542428,37.32659695542428 0 0,0 0.17380242552503336,0.616763493866578 l -15.752000921837395 4.293277897283518" fill="#ffca12" stroke="none" /><path d="M 120.26092885502905 94.47779374421319 l 9.974519315570335 -2.7185995941759065 a31.338366376277207,31.338366376277207 0 0,0 0.13700912798750448,0.5202459752322957 l -10.01971792436257 2.5469731145708123" fill="#ff7b0b" stroke="none" /><path d="M 120.35273937422433 94.82641323984039 l 20.41224907080131 -5.1887138923186225 a42.06140223215846,42.06140223215846 0 0,0 0.17187585541593844,0.7013121428764932 l -20.49831245273354 4.837545924834035" fill="#f9ff18" stroke="none" /><path d="M 120.43855184770803 95.1765574152323 l 18.28229538440009 -4.3145719306089845 a39.784511052110346,39.784511052110346 0 0,0 0.15116056477130396,0.6660413393783498 l -18.35366681072906 4.000096257291609" fill="#ffe915" stroke="none" /><path d="M 120.51834098615036 95.52812308129327 l 18.10190847641137 -3.945226700094598 a39.526842801824415,39.526842801824415 0 0,0 0.13879999390913958,0.6642082170186556 l -18.16696618114488 3.633902031790538" fill="#ffe615" stroke="none" /><path d="M 120.592083275326 95.88100663000786 l 10.932833715507673 -2.18687293496727 a32.14940654405577,32.14940654405577 0 0,0 0.10360331151259725,0.5420963044262533 l -10.968763319302427 1.998874065507702" fill="#ff860c" stroke="none" /><path d="M 120.65975698304385 96.23510406497455 l 11.248996913884781 -2.0499419615127996 a32.43425527151464,32.43425527151464 0 0,0 0.09511759668569952,0.5486130211654282 l -11.282529328062715 1.8565359074267787" fill="#ff8a0c" stroke="none" /><path d="M 120.7213421655516 96.59031103205396 l 12.554673990985156 -2.0658668276028473 a33.72350756549895,33.72350756549895 0 0,0 0.08909189902846698,0.5720339019788179 l -12.588287382151888 1.850044743692588" fill="#ff9b0e" stroke="none" /><path d="M 120.77682067341334 96.94652285012252 l 19.52387271438338 -2.869336947532701 a40.73359319247055,40.73359319247055 0 0,0 0.09573458021227084,0.6926877322882207 l -19.57025181115086 2.5337609070443947" fill="#fff517" stroke="none" /><path d="M 120.82617615685814 97.30363454192243 l 9.421512159667977 -1.2198033743136747 a30.50014798025581,30.50014798025581 0 0,0 0.06276917926086616,0.5198188484240548 l -9.441063425188506 1.0578908489662069" fill="#ff6f0a" stroke="none" /><path d="M 120.86939407059847 97.66154086499901 l 9.122749327319502 -1.0222230903603136 a30.179841792513322,30.179841792513322 0 0,0 0.053271168120490264,0.5153502278577083 l -9.138952887921658 0.865468340219674" fill="#ff6b09" stroke="none" /><path d="M 120.9064616781168 98.02013634271609 l 18.620015188779288 -1.7633347975342 a39.70332364149662,39.70332364149662 0 0,0 0.058432661934181056,0.6790761048218029 l -18.64754147341121 1.4434376453367348" fill="#ffe815" stroke="none" /><path d="M 120.93736805541906 98.37931529534042 l 3.096388705635404 -0.23968006874699438 a24.10565122828386,24.10565122828386 0 0,0 0.028394205948771525,0.41284552282354486 l -3.1000468727492416 0.18649112176911536" fill="#ff1502" stroke="none" /><path d="M 120.96210409425399 98.7389718711861 l 33.853430165314684 -2.0365382932623235 a54.91463138790929,54.91463138790929 0 0,0 0.04852991781608577,0.9414674407603275 l -33.88340167258734 1.4550990591252653" fill="#67ff28" stroke="none" /><path d="M 120.98066250479742 99.09900007780936 l 9.543786821776598 -0.40985127051438713 a30.552583156584344,30.552583156584344 0 0,0 0.018004656172264617,0.5241859196524346 l -9.54941616494571 0.2459590862978327" fill="#ff700a" stroke="none" /><path d="M 120.99303781780057 99.45929381324524 l 21.702450313051564 -0.5589781361730634 a42.70964776653899,42.70964776653899 0 0,0 0.01258626555238606,0.733086869301136 l -21.708848010202615 0.18634435090286092" fill="#f1ff19" stroke="none" /><line stroke="#e1ed5e" stroke-width="0.3" x1="184.99686870605535" x2="189.99668451229388" y1="99.2704041080226" y2="99.22748670261217" /><path d="M 185.99683186730306 99.26182062694052 a86.0,86.0 0 0,1 -10.086455211305974,41.156179273409016" fill="none" id="id52" stroke="none" /><text fill="#e1ed5e" style="font-size:6.75px; font-family:Arial;" text-anchor="middle"><textPath startOffset="21.40746469413373" xlink:href="#id52">April</textPath></text><path d="M 120.99922638620191 99.81974689727618 l 22.155038058201992 -0.1901743558314819 a43.155854252228565,43.155854252228565 0 0,0 0.0,0.7408549171106149 l -22.155038058201992 -0.1901743558314792" fill="#ebff1a" stroke="none" /><path d="M 120.99922638620191 100.18025310272382 l 11.349200856738145 0.09741923965385459 a32.349618962539694,32.349618962539694 0 0,0 -0.009533229986032952,0.5552628534415645 l -11.345856195153445 -0.29222900906449006" fill="#ff890c" stroke="none" /><path d="M 120.99303781780057 100.54070618675476 l 21.82045376751403 0.5620174865729387 a42.827690355954545,42.827690355954545 0 0,0 -0.02523838444557647,0.7347880256399275 l -21.80759069607161 -0.9365117767769768" fill="#efff19" stroke="none" /><path d="M 120.98066250479742 100.90099992219065 l 29.574601414122924 1.2700606364003542 a50.60185978658056,50.60185978658056 0 0,0 -0.04471857562763372,0.8675284205126063 l -29.548441249038717 -1.777560850289691" fill="#95ff23" stroke="none" /><path d="M 120.96210409425399 101.26102812881392 l 6.281387077298532 0.37787264851017127 a27.29274275283402,27.29274275283402 0 0,0 -0.032148302125998264,0.4674292573295547 l -6.273974814007467 -0.4856453299940692" fill="#ff4306" stroke="none" /><path d="M 120.93736805541906 101.62068470465957 l 9.528557819018479 0.7375706380034076 a30.55706150217853,30.55706150217853 0 0,0 -0.04497181295403186,0.5226406355061952 l -9.514492383366708 -0.9010323208852604" fill="#ff700a" stroke="none" /><path d="M 120.9064616781168 101.97986365728391 l 21.748340641179652 2.059590470384222 a42.84564564279307,42.84564564279307 0 0,0 -0.07562788459793658,0.7316311793987444 l -21.709780364100048 -2.4326261720658975" fill="#efff19" stroke="none" /><path d="M 120.86939407059847 102.33845913500099 l 12.100135368485018 1.3558454065058931 a33.17586106614252,33.17586106614252 0 0,0 -0.06827578580085382,0.5654214499563297 l -12.0750774964245 -1.563360533385631" fill="#ff940d" stroke="none" /><path d="M 120.82617615685814 102.69636545807758 l 18.490116713003957 2.3939157935312534 a39.64444284195767,39.64444284195767 0 0,0 -0.09317479249353129,0.6741663835122147 l -18.446297403955214 -2.7109704852435534" fill="#ffe815" stroke="none" /><path d="M 120.77682067341334 103.0534771498775 l 24.94655622547029 3.666284683300067 a46.214525791486764,46.214525791486764 0 0,0 -0.12209109202139222,0.783912393017208 l -24.879943641310632 -4.0939852582487255" fill="#c7ff1e" stroke="none" /><path d="M 120.7213421655516 103.40968896794604 l 26.02249436025875 4.281991544260099 a47.37244137949336,47.37244137949336 0 0,0 -0.13892573562831093,0.8012867250265272 l -25.945153807138208 -4.728071302207214" fill="#baff1f" stroke="none" /><path d="M 120.65975698304385 103.76489593502545 l 26.65079039081654 4.856661793744757 a48.08969900597013,48.08969900597013 0 0,0 -0.1549718207032838,0.810878050777809 l -26.563492277831095 -5.31344240955588" fill="#b1ff20" stroke="none" /><path d="M 120.592083275326 104.11899336999214 l 21.458933861719004 4.292387764837308 a42.88402237262052,42.88402237262052 0 0,0 -0.15058885613410503,0.7206221903812495 l -21.382087294760534 -4.6601264065039665" fill="#efff19" stroke="none" /><path d="M 120.51834098615036 104.47187691870673 l 21.629385873214904 4.714023980667761 a43.1371261762393,43.1371261762393 0 0,0 -0.16389876821335575,0.722168214100297 l -21.545276243443883 -5.0846265287070755" fill="#ebff1a" stroke="none" /><path d="M 120.43855184770803 104.8234425847677 l 23.352610386807363 5.511152465425123 a44.99410788871269,44.99410788871269 0 0,0 -0.18385979476776576,0.7502107049613098 l -23.2545630655233 -5.911218994994533" fill="#d5ff1c" stroke="none" /><path d="M 120.35273937422433 105.17358676015961 l 43.41577348557669 11.036119843972038 a65.79648790431474,65.79648790431474 0 0,0 -0.28765760551049624,1.0922827822496743 l -43.21992639926147 -11.779783130594517" fill="#36ff70" stroke="none" /><path d="M 120.26092885502905 105.52220625578681 l 21.088614794343147 5.747795739102747 a42.857877980321796,42.857877980321796 0 0,0 -0.199557520733311,0.7081592408334951 l -20.98683878153526 -6.108962903839251" fill="#efff19" stroke="none" /><path d="M 120.16314734710363 105.8691983318838 l 14.094741823770171 4.102773925931151 a35.67973095686827,35.67973095686827 0 0,0 -0.1762301426727044,0.5866128292098375 l -14.022235361093836 -4.344124358731713" fill="#ffb510" stroke="none" /><path d="M 120.05942366710727 106.21446072829308 l 28.369099592449775 8.788819571292194 a50.69931246919805,50.69931246919805 0 0,0 -0.26468731106944265,0.8291292320228206 l -28.214047565603078 -9.274517837006396" fill="#94ff23" stroke="none" /><path d="M 119.94978838288452 106.5578916946017 l 23.67038067208295 7.780924280414293 a45.91645447929658,45.91645447929658 0 0,0 -0.2525723753365542,0.7466853485125315 l -23.533322875174033 -8.186111303400986" fill="#caff1d" stroke="none" /><path d="M 119.83427380445688 106.89939002012753 l 13.980484240057818 4.8631381412477355 a35.8021637664013,35.8021637664013 0 0,0 -0.20690211936901706,0.5787420516485148 l -13.894941950644858 -5.102415149277172" fill="#ffb610" stroke="none" /><path d="M 119.71291397450082 107.23885506374661 l 19.3273923908846 7.097286198212378 a41.5893071279866,41.5893071279866 0 0,0 -0.2518516070522508,0.6680663094770045 l -19.20271010001791 -7.42802078788354" fill="#feff18" stroke="none" /><path d="M 119.58574465831526 107.57618678355244 l 20.458543438655234 7.913804101641245 a42.935822186334775,42.935822186334775 0 0,0 -0.27180690918429606,0.6851309685590484 l -20.319677854504814 -8.263836087413859" fill="#eeff19" stroke="none" /><path d="M 119.4528033332814 107.91128576633889 l 20.271900121040463 8.244405299150156 a42.88424440674376,42.88424440674376 0 0,0 -0.28318744646648264,0.679546780749478 l -20.127386830037498 -8.591184589340912" fill="#efff19" stroke="none" /><path d="M 119.31412917781788 108.2440532568976 l 9.50791573642407 4.0583638522620005 a31.33783240376276,31.33783240376276 0 0,0 -0.21543434333972244,0.492955937808117 l -9.436847511067382 -4.220981859845962" fill="#ff7b0b" stroke="none" /><path d="M 119.16976305983485 108.57439118712176 l 16.051877644905318 7.179800698925215 a38.58443385506904,38.58443385506904 0 0,0 -0.2756316425253749,0.6023048825095332 l -15.926261537524887 -7.454294563649436" fill="#ffda14" stroke="none" /><path d="M 119.0197475246899 108.90220220490707 l 19.167684626708006 8.97144423843373 a42.163339662545326,42.163339662545326 0 0,0 -0.31245191453207516,0.6529043299734427 l -19.01085345421602 -9.299161070472277" fill="#f7ff18" stroke="none" /><path d="M 118.8641267826498 109.22738970284198 l 19.436160646269112 9.507200130520626 a42.63680186601873,42.63680186601873 0 0,0 -0.32724778214947964,0.6547147788975809 l -19.2700929509079 -9.839446765581952" fill="#f2ff19" stroke="none" /><path d="M 118.70294669586154 109.54985784667822 l 19.230094984979136 9.819023519181933 a42.591891441037944,42.591891441037944 0 0,0 -0.3380821252531403,0.6483170529720451 l -19.058704790751044 -10.147686815258481" fill="#f2ff19" stroke="none" /><path d="M 118.5362547648365 109.86951160357373 l 25.209620307437586 13.422702876199795 a49.560355539592145,49.560355539592145 0 0,0 -0.40628788956466594,0.7475239556402821 l -24.975487068257582 -13.85348166531468" fill="#a1ff22" stroke="none" /><line stroke="#e1ed5e" stroke-width="0.3" x1="174.33088141563837" x2="178.70328620479359" y1="141.23008692659167" y2="143.65538615756765" /><path d="M 175.20536237346943 141.71514677278685 a86.0,86.0 0 0,1 -30.301960400862466,31.63118572779886" fill="none" id="id53" stroke="none" /><text fill="#e1ed5e" style="font-size:6.75px; font-family:Arial;" text-anchor="middle"><textPath startOffset="22.145653131862474" xlink:href="#id53">May</textPath></text><path d="M 118.36410011445183 110.18625677009912 l 10.620125237965237 5.890804446191782 a33.1444899890172,33.1444899890172 0 0,0 -0.2802550264491581,0.49518377821769466 l -10.517436846494698 -6.072244994508599" fill="#ff930d" stroke="none" /><path d="M 118.18653347947321 110.5 l 10.082624936788944 5.821206221393127 a32.64241244278626,32.64241244278626 0 0,0 -0.2843407333606166,0.48287272806817405 l -9.981210493298565 -5.99343011775485" fill="#ff8d0d" stroke="none" /><path d="M 118.00360718960297 110.81064883170644 l 7.847152547948773 4.711989638037388 a30.153177014553506,30.153177014553506 0 0,0 -0.2702758994088529,0.4414753696619686 l -7.765108684084515 -4.846002123823914" fill="#ff6b09" stroke="none" /><path d="M 117.81537515405839 111.11811171558189 l 3.605159303142064 2.2498860415898636 a25.249607134921142,25.249607134921142 0 0,0 -0.2326358225716163,0.36574215286565664 l -3.5660057889445578 -2.3114418691341942" fill="#ff2603" stroke="none" /><path d="M 117.62189284568427 111.42229804090321 l 3.3265034839438146 2.1561993686174707 a24.964192369943305,24.964192369943305 0 0,0 -0.2361797583804476,0.35760625647111566 l -3.2889992866426403 -2.2129855034276473" fill="#ff2103" stroke="none" /><path d="M 117.423217284605 111.72311816256415 l 17.907593588393706 12.049028156780805 a42.58381309338033,42.58381309338033 0 0,0 -0.41328657876043107,0.6029974696305176 l -17.698117272817957 -12.354660361481365" fill="#f2ff19" stroke="none" /><path d="M 117.21940702142032 112.02048342749411 l 17.953191715840116 12.532722132790392 a42.894890199392286,42.894890199392286 0 0,0 -0.4266711863270578,0.6001664570655599 l -17.7354054309831 -12.839065816565455" fill="#eeff19" stroke="none" /><path d="M 117.01052211995028 112.31430620078461 l 20.63944572337984 14.941367035059391 a46.48001508329031,46.48001508329031 0 0,0 -0.4734276836204237,0.6422955772503884 l -20.379916020175585 -15.29346892157866" fill="#c4ff1e" stroke="none" /><path d="M 116.79662413953412 112.60449989151573 l 16.983791570377946 12.744953820958234 a42.23400631073653,42.23400631073653 0 0,0 -0.4401347033100294,0.5761504551466108 l -16.762504889713615 -13.034625189345721" fill="#f6ff19" stroke="none" /><path d="M 116.57777611688842 112.89097897827484 l 2.489523244257683 1.9358683324814996 a24.1536189028486,24.1536189028486 0 0,0 -0.2573321604789412,0.32513077838669874 l -2.4559246531371803 -1.9783190547828788" fill="#ff1602" stroke="none" /><path d="M 116.35404254752997 113.17365903436017 l 16.76440490380182 13.504217900545733 a42.526940629918464,42.526940629918464 0 0,0 -0.46284131185799565,0.5645911435221346 l -16.5301167727052 -13.790011325766363" fill="#f3ff19" stroke="none" /><path d="M 116.1254893667686 113.45245675266167 l 16.523044386082972 13.784111289307955 a42.51773035941512,42.51773035941512 0 0,0 -0.4723627447709597,0.5564421256009677 l -16.2839870778049 -14.065720197358477" fill="#f3ff19" stroke="none" /><path d="M 115.89218393027572 113.72728997021213 l 29.550631305488867 25.525131505713446 a60.0483309366342,60.0483309366342 0 0,0 -0.6805161138415393,0.7743024169316587 l -29.10810412768874 -26.028646200456397" fill="#33ff2f" stroke="none" /><path d="M 115.6541949942343 113.99807769240083 l 16.724073725922292 14.954769851475872 a43.435235307451,43.435235307451 0 0,0 -0.5017851404791224,0.5515497692051333 l -16.464890884601292 -15.239657196238678" fill="#e8ff1a" stroke="none" /><path d="M 115.41159269507618 114.26474011684316 l 23.403957355399275 21.66235352736203 a52.89048102863552,52.89048102863552 0 0,0 -0.6224558970052516,0.6610265920766225 l -23.028645624657763 -22.060921579383148" fill="#7cff26" stroke="none" /><path d="M 115.16444852881244 114.52719865689866 l 2.2477604511384572 2.1533036657921705 a24.11273894228478,24.11273894228478 0 0,0 -0.28890873229922476,0.2964458108091676 l -2.210464917688423 -2.1915721686690754" fill="#ff1502" stroke="none" /><path d="M 114.91283532996326 114.78537596483092 l 10.673730309367695 10.58250239336622 a36.030564714032415,36.030564714032415 0 0,0 -0.43924360424155073,0.43548940796053565 l -10.490494784996182 -10.764171811555418" fill="#ffb911" stroke="none" /><path d="M 114.65682725009322 115.03919595460226 l 3.1376472045068207 3.2195024434560326 a25.495556246269068,25.495556246269068 0 0,0 -0.31605689424154004,0.3027753551872049 l -3.0819178243999685 -3.2728899289488176" fill="#ff2904" stroke="none" /><path d="M 114.39649973595853 115.28858382429668 l 14.712784359840281 15.62446713435395 a42.46136055453306,42.46136055453306 0 0,0 -0.5349529462968048,0.4951444607085585 l -14.442401642229509 -15.874729341194888" fill="#f4ff19" stroke="none" /><path d="M 114.13192950727249 115.5334660781643 l 15.098604457031131 16.596011184475483 a43.43647574342093,43.43647574342093 0 0,0 -0.5558523877997723,0.49704663272647054 l -14.81148704240798 -16.85275334708534" fill="#e8ff1a" stroke="none" /><path d="M 113.86319453409587 115.77377054828091 l 10.076112733588635 11.464766644321227 a36.263319495729874,36.263319495729874 0 0,0 -0.4711132233500384,0.40693638168930196 l -9.87782003047574 -11.636047158475247" fill="#ffbc11" stroke="none" /><path d="M 113.59037401385872 116.0094264158162 l 8.159930829329703 9.612377999096168 a33.60881762644513,33.60881762644513 0 0,0 -0.4430373008320053,0.36959747352168953 l -7.993719194335803 -9.751037656529729" fill="#ff9a0e" stroke="none" /><path d="M 113.31354834802062 116.24036423190432 l 11.227431266228153 13.695640590010314 a38.709482883715594,38.709482883715594 0 0,0 -0.5175074999785567,0.4168674095489201 l -10.990672995894345 -13.886356293352637" fill="#ffdc14" stroke="none" /><path d="M 113.03279911837588 116.46651593811092 l 12.940711174835966 16.35016582972402 a41.85161692459363,41.85161692459363 0 0,0 -0.5671692370321533,0.4410342292086659 l -12.658131993168583 -16.569901110553477" fill="#fbff18" stroke="none" /><path d="M 112.7482090630111 116.68781488649013 l 11.47277486686445 15.018230581746428 a39.898989733640796,39.898989733640796 0 0,0 -0.547845449294064,0.4111134385594419 l -11.213276428659618 -15.212963047569884" fill="#ffeb16" stroke="none" /><path d="M 112.45986205192187 116.90419585922612 l 13.410956420517667 18.194538033188664 a43.60298578405457,43.60298578405457 0 0,0 -0.6063285644446599,0.4389351219323725 l -13.096646845699041 -18.42207392649411" fill="#e6ff1a" stroke="none" /><path d="M 112.16784306229584 117.11559508785304 l 13.19710359204466 18.563378920772234 a43.77636011691352,43.77636011691352 0 0,0 -0.6162146162430924,0.4301656597765238 l -12.87649388462781 -18.787189396353877" fill="#e4ff1a" stroke="none" /><path d="M 111.8722381534696 117.32195027204791 l 12.65060669240818 18.457613232184915 a43.376803523178424,43.376803523178424 0 0,0 -0.6178172830604596,0.4156950403523749 l -12.331893121250719 -18.67205794659441" fill="#e9ff1a" stroke="none" /><path d="M 111.5731344415666 117.5232005979908 l 12.329864686281619 18.668986637517083 a43.37312283195634,43.37312283195634 0 0,0 -0.6248091824070633,0.40499376330587666 l -12.007569871617545 -18.877894242526853" fill="#e9ff1a" stroke="none" /><path d="M 111.27062007382361 117.71928675628689 l 1.7078637555309202 2.6850454923244405 a24.182179740886422,24.182179740886422 0 0,0 -0.3521799051817955,0.21978630794660742 l -1.6615197215594097 -2.7139675971125956" fill="#ff1602" stroke="none" /><path d="M 110.96478420261333 117.91015095944535 l 1.5365885086301054 2.509901849737726 a23.942908687025636,23.942908687025636 0 0,0 -0.35237946609028925,0.2115937447027988 l -1.4932762859823818 -2.5359095949764483" fill="#ff1302" stroke="none" /><line stroke="#e1ed5e" stroke-width="0.3" x1="143.1302829299769" x2="145.6673583964461" y1="173.24464959558577" y2="177.55315839532614" /><path d="M 143.63769802327073 174.10635135553383 a86.0,86.0 0 0,1 -40.685524379131806,11.842963189579606" fill="none" id="id54" stroke="none" /><text fill="#e1ed5e" style="font-size:6.75px; font-family:Arial;" text-anchor="middle"><textPath startOffset="21.407464694133747" xlink:href="#id54">June</textPath></text><path d="M 110.65571695917076 118.09573695890943 l 6.749801843135016 11.462639177273958 a34.30232768465597,34.30232768465597 0 0,0 -0.509973574908109,0.29443338075279585 l -6.5520358003665065 -11.576819455302926" fill="#ffa30f" stroke="none" /><path d="M 110.34350942703117 118.27599006163325 l 10.279828654398523 18.163472238165166 a41.87071155735687,41.87071155735687 0 0,0 -0.6285707221188828,0.34865758375117956 l -9.966513744123546 -18.33726273734949" fill="#fbff18" stroke="none" /><path d="M 110.02825361518725 118.45085714620011 l 12.268287596157863 22.572267370900626 a46.6908181030785,46.6908181030785 0 0,0 -0.7075019295464393,0.3767049272788201 l -11.878996850824871 -22.779542765902015" fill="#c1ff1e" stroke="none" /><path d="M 109.71004243097381 118.62028667847754 l 11.211600655252775 21.499722561405605 a45.247434080130574,45.247434080130574 0 0,0 -0.6917961604970982,0.3532360487926154 l -10.840877273042095 -21.689016561871057" fill="#d2ff1c" stroke="none" /><path d="M 109.3889696526874 118.78422872680471 l 9.744165876569175 19.494859111085802 a42.79445572596802,42.79445572596802 0 0,0 -0.6599307559648996,0.3228052022943331 l -9.408074871342206 -19.65925806347736" fill="#f0ff19" stroke="none" /><path d="M 109.06512990194946 118.94263497670748 l 4.239129067033879 8.858149348604998 a30.82023549255122,30.82023549255122 0 0,0 -0.47919784425980716,0.22428878723120332 l -4.086442508902565 -8.929614367406735" fill="#ff740a" stroke="none" /><path d="M 108.73861861582097 119.09545874513695 l 1.2929427686627153 2.825313288546869 a24.107104147188622,24.107104147188622 0 0,0 -0.3777773748001575,0.16897501461389322 l -1.2442519910069307 -2.847092054070613" fill="#ff1502" stroke="none" /><path d="M 108.4095320186766 119.2426549942271 l 3.691304672188797 8.446427473937561 a30.21780164981923,30.21780164981923 0 0,0 -0.4771030063112921,0.20364690309587521 l -3.545766590707074 -8.508549026692839" fill="#ff6c09" stroke="none" /><path d="M 108.07796709384702 119.3841803445677 l 12.476080195515644 29.938050711715917 a53.43361616382317,53.43361616382317 0 0,0 -0.8497103685890998,0.3455698096237059 l -11.960315365736104 -30.147807777918917" fill="#76ff27" stroke="none" /><path d="M 107.74402155503746 119.51999308798841 l 7.162579240124705 18.0543786281761 a40.423262574052984,40.423262574052984 0 0,0 -0.6472105770430415,0.25035495486698517 l -6.851596400588135 -18.174673471181126" fill="#fff116" stroke="none" /><path d="M 107.407793817531 119.65005319985036 l 7.998512896209601 21.217005737693814 a43.67460123186654,43.67460123186654 0 0,0 -0.7038075644782673,0.25844788642698496 l -7.633116180077205 -21.35118447312952" fill="#e5ff1a" stroke="none" /><path d="M 107.06938296918513 119.77432235084164 l 7.551088602708072 21.121738740223808 a43.430933696487514,43.430933696487514 0 0,0 -0.7041896303975888,0.2449537077153144 l -7.187393200265461 -21.248250880507715" fill="#e8ff1a" stroke="none" /><path d="M 106.72888874123015 119.89276391827305 l 4.650043909278064 13.747028559125976 a35.512191514848446,35.512191514848446 0 0,0 -0.5791484823873647,0.19037760951126997 l -4.413372689242965 -13.824827090039266" fill="#ffb310" stroke="none" /><path d="M 106.38641147887787 120.00534299687104 l 8.183538128248514 25.63481662981554 a47.90936862768736,47.90936862768736 0 0,0 -0.7856209457214511,0.2433873772014758 l -7.742276549655439 -25.77152059482366" fill="#b3ff20" stroke="none" /><path d="M 106.0420521117495 120.11202640906438 l 6.640028895346886 22.102496640251392 a44.078352225914344,44.078352225914344 0 0,0 -0.7265371568436746,0.21148437769121428 l -6.259631726121604 -22.213224712245122" fill="#e0ff1b" stroke="none" /><path d="M 105.69591212413111 120.21278271476187 l 6.0878142279089 21.603505025163894 a43.444886086719436,43.444886086719436 0 0,0 -0.7195685435825957,0.196121606332621 l -5.716064283391608 -21.70482712564066" fill="#e8ff1a" stroke="none" /><path d="M 105.3480935250658 120.30758222061773 l 5.473872896595156 20.7851869814579 a42.493889418675394,42.493889418675394 0 0,0 -0.7070066682452609,0.17971833033987278 l -5.116260935124498 -20.876090543633044" fill="#f3ff19" stroke="none" /><path d="M 104.9986988182912 120.39639698878246 l 5.526115067161789 22.548435265410692 a44.2157248573877,44.2157248573877 0 0,0 -0.7387560072162732,0.17434440617472205 l -5.138226906205637 -22.639975815231637" fill="#dfff1b" stroke="none" /><path d="M 104.64783097203107 120.47920084513623 l 4.248501713765273 18.719682452024138 a40.195735930578095,40.195735930578095 0 0,0 -0.6742118517334369,0.1469413350777414 l -3.9265274454126993 -18.789855245235596" fill="#ffee16" stroke="none" /><path d="M 104.29559338865022 120.5559693870025 l 1.6101439091569123 7.705121483972273 a28.871560232315204,28.871560232315204 0 0,0 -0.4860094290632398,0.09721549730054968 l -1.4776379945627136 -7.731626377935684" fill="#ff5908" stroke="none" /><path d="M 103.94208987418118 120.62667999033965 l 2.74136142425272 14.34396136076623 a35.60357113782569,35.60357113782569 0 0,0 -0.6013023830538504,0.10957732462867963 l -2.4947243076478127 -14.388906859326273" fill="#ffb410" stroke="none" /><path d="M 103.58742460773223 120.69131181640829 l 3.93702454984656 22.707711379954397 a44.04648169290499,44.04648169290499 0 0,0 -0.7461106880727275,0.12277222979394828 l -3.546636358720759 -22.771949608244014" fill="#e1ff1b" stroke="none" /><path d="M 103.2317021107853 120.74984581791261 l 3.7730449471805905 24.22565516071869 a45.517712702034444,45.517712702034444 0 0,0 -0.7730964462370417,0.11361855455859392 l -3.356623395335864 -24.286854788576168" fill="#cfff1d" stroke="none" /><path d="M 102.875027216393 120.80226474461374 l 2.480886470795055 17.95045865045989 a39.12108615516311,39.12108615516311 0 0,0 -0.6660312348663108,0.08623107776330184 l -2.1723774140379684 -17.990401324423587" fill="#ffe115" stroke="none" /><path d="M 102.51750503828377 120.84855314841334 l 1.735475335870128 14.37222536893708 a35.4766272555776,35.4766272555776 0 0,0 -0.6052381846649533,0.06781820099775392 l -1.4885012496043755 -14.399899330441805" fill="#ffb210" stroke="none" /><path d="M 102.15924093988457 120.88869738790638 l 0.3253208098694404 3.1471837282386184 a24.163953073075522,24.163953073075522 0 0,0 -0.4129739670605146,0.03910906404804564 l -0.2712472794239105 -3.152304547791848" fill="#ff1602" stroke="none" /><path d="M 101.80034050326958 120.92268563240118 l 2.9368617233928442 34.1307849669477 a55.25690644588844,55.25690644588844 0 0,0 -0.9457640680693532,0.07320812029857286 l -2.350528660548255 -34.17617085424133" fill="#63ff29" stroke="none" /><path d="M 101.44090949804482 120.95050786540614 l 1.3361008320558856 19.426612864267394 a40.472505047156616,40.472505047156616 0 0,0 -0.693536167836506,0.041721413654815326 l -1.0024203120869146 -19.446686255746904" fill="#fff216" stroke="none" /><path d="M 101.08105385017728 120.97215588758144 l 1.1869465477548138 23.026445931123984 a44.05701746380488,44.05701746380488 0 0,0 -0.7556287026296142,0.032449947761113054 l -0.79149208452437 -23.04342844731093" fill="#e0ff1b" stroke="none" /><path d="M 100.72087961077811 120.9876233191556 l 0.9078825970912349 26.432011227506518 a47.44759853637248,47.44759853637248 0 0,0 -0.814261085325005,0.020972477175056937 l -0.45400819769548606 -26.44370142203162" fill="#b9ff1f" stroke="none" /><line stroke="#e1ed5e" stroke-width="0.3" x1="101.45913802915013" x2="101.54496967792366" y1="184.9874750549273" y2="189.98673829345242" /><path d="M 101.47630435890484 185.9873277026323 a86.0,86.0 0 0,1 -42.54439059252881,-10.42667462771756" fill="none" id="id55" stroke="none" /><text fill="#e1ed5e" style="font-size:6.75px; font-family:Arial;" text-anchor="middle"><textPath startOffset="22.145653131862474" xlink:href="#id55">July</textPath></text><path d="M 100.36049292484886 120.99690560180557 l 0.3887579319194035 22.643200561806534 a43.6465375810923,43.6465375810923 0 0,0 -0.749250856768253,0.006431417480203215 l -2.7734009760454934e-15 -22.646537581092304" fill="#e5ff1a" stroke="none" /><path d="M 100.0 121.0 l 4.9009211440953396e-15 40.01905812767854 a61.01905812767854,61.01905812767854 0 0,0 -1.0474732731413794,-0.008991298252209875 l 0.6869803482925223 -40.01316122762076" fill="#30ff37" stroke="none" /><path d="M 99.63950707515114 120.99690560180557 l -0.6857547520541498 39.94177639105615 a60.947662770844246,60.947662770844246 0 0,0 -1.0459393429104027,-0.026939687271093693 l 1.3713074090352964 -39.92411898643501" fill="#30ff36" stroke="none" /><path d="M 99.27912038922189 120.98762331915562 l -0.7190730759548238 20.93502802887815 a41.94737369357975,41.94737369357975 0 0,0 -0.7194458768989273,-0.030896101539125836 l 1.0783447134545898 -20.919599358913196" fill="#faff18" stroke="none" /><path d="M 98.91894614982273 120.97215588758144 l -2.19193003936902 42.52285718494201 a63.579313527445024,63.579313527445024 0 0,0 -1.089494050494907,-0.06554125662538124 l 2.921568441996374 -42.47896395049194" fill="#33ff56" stroke="none" /><path d="M 98.55909050195518 120.95050786540614 l -2.886837086243407 41.973977660328615 a63.07313429009391,63.07313429009391 0 0,0 -1.0795447647888086,-0.08356359231291735 l 3.6069508458074515 -41.91823630102065" fill="#33ff50" stroke="none" /><path d="M 98.19965949673042 120.92268563240118 l -1.9537797675187618 22.705882468623088 a43.78978617843728,43.78978617843728 0 0,0 -0.7483892085103793,-0.0708732361432597 l 2.343268539414156 -22.668997476974646" fill="#e4ff1b" stroke="none" /><path d="M 97.84075906011543 120.88869738790638 l -2.6653116715052763 25.784472645977594 a46.9218617374877,46.9218617374877 0 0,0 -0.800496118599666,-0.08969725976421461 l 3.1075436917057413 -25.734919625706407" fill="#bfff1e" stroke="none" /><path d="M 97.48249496171623 120.84855314841334 l -1.4092318625181035 11.670461404190634 a32.7552372936083,32.7552372936083 0 0,0 -0.5576535134140358,-0.07219941192373122 l 1.6093631978229328 -11.644550396066506" fill="#ff8e0d" stroke="none" /><path d="M 97.12497278360702 120.80226474461374 l -6.277731748550632 45.42253968393988 a66.8543021672542,66.8543021672542 0 0,0 -1.1354881507227275,-0.16687765547426975 l 7.056545004881046 -45.30808095516672" fill="#37ff7c" stroke="none" /><path d="M 96.76829788921471 120.74984581791261 l -2.7172770032482663 17.446867603852358 a38.65720202916461,38.65720202916461 0 0,0 -0.6548207824188874,-0.10775051055849395 l 3.0163752887202167 -17.397651094798196" fill="#ffdb14" stroke="none" /><path d="M 96.41257539226777 120.69131181640829 l -2.504819688252458 14.447134331910885 a35.66266729060355,35.66266729060355 0 0,0 -0.6023004474715193,-0.10975920521285015 l 2.7524548692750344 -14.402006952766667" fill="#ffb510" stroke="none" /><path d="M 96.05791012581884 120.62667999033965 l -4.833604619860874 25.291461858009257 a46.749209240989856,46.749209240989856 0 0,0 -0.7869528459684999,-0.1574126090935488 l 5.2670539513603325 -25.204759852252845" fill="#c1ff1e" stroke="none" /><path d="M 95.70440661134978 120.55596938700252 l -7.13109173486501 34.124855435596324 a55.86198829429279,55.86198829429279 0 0,0 -0.9369853218872277,-0.20421158986210136 l 7.715839473371374 -33.9974123876005" fill="#5dff2a" stroke="none" /><path d="M 95.35216902796893 120.47920084513623 l -2.666929117050666 11.750981771171274 a33.04981674141861,33.04981674141861 0 0,0 -0.552196096159664,-0.13031677514166345 l 2.868257366950218 -11.703468852383383" fill="#ff920d" stroke="none" /><path d="M 95.00130118170881 120.39639698878247 l -10.02832247321026 40.91897786413307 a63.129918123254235,63.129918123254235 0 0,0 -1.0503456776847746,-0.2669937639226501 l 10.729273444120413 -40.74079886837515" fill="#33ff51" stroke="none" /><path d="M 94.6519064749342 120.30758222061772 l -2.982817025782613 11.326242092857468 a32.71242747492231,32.71242747492231 0 0,0 -0.5418090807787079,-0.14767247428420122 l 3.1768075074960165 -11.273369124429124" fill="#ff8e0d" stroke="none" /><path d="M 94.30408787586889 120.21278271476187 l -17.08773637239334 60.6383481442856 a84.0,84.0 0 0,0 -1.3845599504735728,-0.4030252227899269 l 18.12615633524852 -60.33607922719316" fill="#4dd2ff" stroke="none" /><path d="M 93.95794788825049 120.11202640906438 l -4.536320865714717 15.09993680356172 a36.76661975403341,36.76661975403341 0 0,0 -0.6029014242832493,-0.18678040238932125 l 4.7948629228696 -15.01983981336575" fill="#ffc312" stroke="none" /><path d="M 93.61358852112213 120.00534299687104 l -6.814306505394192 21.34571807298784 a43.40701794529868,43.40701794529868 0 0,0 -0.70790079394196,-0.23270105166512578 l 7.179730036983895 -21.225596099920693" fill="#e8ff1a" stroke="none" /><path d="M 93.27111125876986 119.89276391827306 l -13.051269002855356 38.58375774841739 a61.73133909624691,61.73133909624691 0 0,0 -1.0009126022001726,-0.3481693601047303 l 13.71168737710055 -38.354029955744075" fill="#31ff40" stroke="none" /><path d="M 92.93061703081489 119.77432235084164 l -16.861421709387766 47.16439746273173 a71.0878022085652,71.0878022085652 0 0,0 -1.1455658786878453,-0.4206676583949746 l 17.66857673972973 -46.867998955328034" fill="#3dffab" stroke="none" /><path d="M 92.59220618246901 119.65005319985036 l -12.312887431497725 32.66139677107543 a55.9052150249551,55.9052150249551 0 0,0 -0.8950897125073047,-0.3462399295148836 l 12.871749406498559 -32.4452169534225" fill="#5cff2a" stroke="none" /><path d="M 92.25597844496254 119.51999308798841 l -6.770587213499392 17.066302652936184 a39.360270625925374,39.360270625925374 0 0,0 -0.625913656279272,-0.25455363502326 l 7.062555330969105 -16.947561761333635" fill="#ffe415" stroke="none" /><path d="M 91.92203290615298 119.3841803445677 l -8.294236856035587 19.90314904357777 a42.562228708435725,42.562228708435725 0 0,0 -0.6720067696329242,-0.2868397299637116 l 8.634678700838942 -19.757834663954654" fill="#f2ff19" stroke="none" /><path d="M 91.59046798132341 119.24265499422711 l -4.183554312173567 9.572790982896544 a31.447030864562976,31.447030864562976 0 0,0 -0.49279982750061163,-0.22042309468027102 l 4.347267542529814 -9.499564137306418" fill="#ff7c0b" stroke="none" /><path d="M 91.26138138417905 119.09545874513695 l -16.694316017204635 36.48009334194541 a61.11854181696221,61.11854181696221 0 0,0 -0.9502806521407361,-0.44477932768488193 l 17.31808538321686 -36.188137782690006" fill="#30ff38" stroke="none" /><path d="M 90.93487009805054 118.94263497670748 l -13.68925825514922 28.60528475972598 a52.712112950120215,52.712112950120215 0 0,0 -0.812870358030313,-0.3976156255657261 l 14.178288862441601 -28.36607538406303" fill="#7eff26" stroke="none" /><path d="M 90.6110303473126 118.78422872680471 l -11.250875222718397 22.50928710796193 a46.16446302597852,46.16446302597852 0 0,0 -0.7058167810405515,-0.36039507754297784 l 11.63561922547253 -22.312834078746118" fill="#c8ff1d" stroke="none" /><path d="M 90.28995756902619 118.62028667847754 l -4.295997285610862 8.238141243633391 a30.290993694327287,30.290993694327287 0 0,0 -0.4589968083082685,-0.2443899473261123 l 4.436782909705694 -8.163180828584707" fill="#ff6d0a" stroke="none" /><path d="M 89.97174638481275 118.45085714620012 l -12.834236656949189 23.613549898585486 a47.875962668889926,47.875962668889926 0 0,0 -0.7187226418566226,-0.3986633339400098 l 13.237703486961914 -23.389753649212327" fill="#b4ff20" stroke="none" /><line stroke="#e1ed5e" stroke-width="0.3" x1="58.13341422392154" x2="55.670673884152215" y1="173.97424548756322" y2="178.32567169271397" /><path d="M 57.64086615596767 174.84453072859336 a86.0,86.0 0 0,1 -31.369924170532244,-30.572349798747886" fill="none" id="id56" stroke="none" /><text fill="#e1ed5e" style="font-size:6.75px; font-family:Arial;" text-anchor="middle"><textPath startOffset="22.145653131862474" xlink:href="#id56">August</textPath></text><path d="M 89.65649057296885 118.27599006163327 l -7.192069873485044 12.707698335623013 a35.60176242973043,35.60176242973043 0 0,0 -0.5292923041907827,-0.3055870543045491 l 7.409154645536228 -12.582364384042291" fill="#ffb410" stroke="none" /><path d="M 89.34428304082925 118.09573695890944 l -7.442835900588166 12.639562518546162 a35.66814054007259,35.66814054007259 0 0,0 -0.5249454226401197,-0.31521464338831845 l 7.658714079785714 -12.509933874621925" fill="#ffb510" stroke="none" /><path d="M 89.03521579738668 117.91015095944536 l -11.318123137740274 18.48730355552336 a42.67672263316386,42.67672263316386 0 0,0 -0.621527268900641,-0.38787898375205276 l 11.633814535430627 -18.29028877492976" fill="#f1ff19" stroke="none" /><path d="M 88.72937992617639 117.7192867562869 l -19.524634223566792 30.69596795499324 a57.37930442240543,57.37930442240543 0 0,0 -0.8265744761369785,-0.5357755890424861 l 20.04869433196078 -30.35627852424686" fill="#4dff2c" stroke="none" /><path d="M 88.4268655584334 117.5232005979908 l -11.97245437500471 18.127821872524713 a42.72458491211178,42.72458491211178 0 0,0 -0.6085277112727286,-0.40944460187317616 l 12.281878374374445 -17.919627596594413" fill="#f0ff19" stroke="none" /><path d="M 88.1277618465304 117.32195027204791 l -14.015915602063721 20.44963973412346 a45.79180621535297,45.79180621535297 0 0,0 -0.6445848905370484,-0.44997031458024317 l 14.364895583774535 -20.206024603738086" fill="#ccff1d" stroke="none" /><path d="M 87.83215693770417 117.11559508785305 l -12.721925701497309 17.894981709559865 a42.95626935387476,42.95626935387476 0 0,0 -0.5973355416582283,-0.43242486695713594 l 13.027242253529492 -17.67395607122966" fill="#eeff19" stroke="none" /><path d="M 87.54013794807813 116.9041958592261 l -6.230854792267366 8.453351196022183 a31.50155692674238,31.50155692674238 0 0,0 -0.4325418944992148,-0.3245875014526917 l 6.375049675677348 -8.345144667305476" fill="#ff7d0b" stroke="none" /><path d="M 87.2517909369889 116.68781488649013 l -4.518055015891965 5.914279047317002 a28.442547801402384,28.442547801402384 0 0,0 -0.3854507739769652,-0.2997288532226509 l 4.618915734504158 -5.835849142473559" fill="#ff5307" stroke="none" /><path d="M 86.96720088162412 116.46651593811092 l -14.813574135570432 18.716466999006123 a44.86939705134854,44.86939705134854 0 0,0 -0.5998594598471423,-0.483204319029685 l 15.132684365772837 -18.459414386183028" fill="#d7ff1c" stroke="none" /><path d="M 86.68645165197938 116.24036423190432 l -10.615344595344583 12.94899437543291 a37.744013742615735,37.744013742615735 0 0,0 -0.4975481778905844,-0.4150723859104779 l 10.83606710739706 -12.764859805610563" fill="#ffd013" stroke="none" /><path d="M 86.40962598614128 116.0094264158162 l -24.822817378736687 29.241216456065345 a59.356498829384556,59.356498829384556 0 0,0 -0.771127185242273,-0.6660812964521576 l 25.321124043741825 -28.810791027148465" fill="#39ff2e" stroke="none" /><path d="M 86.13680546590413 115.77377054828092 l -14.320186704334203 16.29374374911653 a42.692252824657565,42.692252824657565 0 0,0 -0.5463286389373437,-0.4885304377673386 l 14.597780370094918 -16.04551778146581" fill="#f1ff19" stroke="none" /><path d="M 85.86807049272751 115.53346607816431 l -16.399722173906888 18.026167477597905 a45.36993232062292,45.36993232062292 0 0,0 -0.5715968271208112,-0.5290614897378828 l 16.706748772341665 -17.741988241727643" fill="#d1ff1c" stroke="none" /><path d="M 85.60350026404147 115.28858382429668 l -7.189376234988383 7.634868421418282 a31.487056138906944,31.487056138906944 0 0,0 -0.3903308120029052,-0.37392808825859686 l 7.319379532856599 -7.510328202854102" fill="#ff7d0b" stroke="none" /><path d="M 85.34317274990678 115.03919595460226 l -22.851193067674703 23.447337167668614 a53.740718453792034,53.740718453792034 0 0,0 -0.6551456258186411,-0.6495461242021839 l 23.25033061362331 -23.051611033237766" fill="#73ff27" stroke="none" /><path d="M 85.08716467003676 114.78537596483093 l -15.323929624152997 15.192956653687581 a42.5788959635757,42.5788959635757 0 0,0 -0.510162486517246,-0.5234716540287552 l 15.582478911821052 -14.927662307591088" fill="#f2ff19" stroke="none" /><path d="M 84.83555147118756 114.52719865689866 l -17.777019635748754 17.02998267859429 a45.61793527416583,45.61793527416583 0 0,0 -0.5368669800003472,-0.570134128209729 l 18.066742449485353 -16.722307090440072" fill="#ceff1d" stroke="none" /><path d="M 84.58840730492382 114.26474011684316 l -15.870775438260587 14.689752808734324 a42.62568728603587,42.62568728603587 0 0,0 -0.49243284470415966,-0.5412699578673739 l 16.120605983806627 -14.415145275309278" fill="#f2ff19" stroke="none" /><path d="M 84.3458050057657 113.99807769240083 l -9.310286665012082 8.325315745930324 a33.48968854912472,33.48968854912472 0 0,0 -0.37953215934115714,-0.4318379275726889 l 9.451829888311833 -8.164265540546335" fill="#ff980e" stroke="none" /><path d="M 84.1078160697243 113.72728997021213 l -18.952398697136115 16.370630599802297 a46.04378091683422,46.04378091683422 0 0,0 -0.5115364002183238,-0.6025885932172024 l 19.230629660861553 -16.04287522413554" fill="#c9ff1d" stroke="none" /><path d="M 83.87451063323141 113.45245675266167 l -13.376024814141736 11.15875563476494 a38.419410642870034,38.419410642870034 0 0,0 -0.41813707168596526,-0.5100592393200383 l 13.56560870506633 -10.927494113746409" fill="#ffd814" stroke="none" /><path d="M 83.64595745247003 113.17365903436017 l -2.533911203590032 2.041139499449448 a24.25376035440409,24.25376035440409 0 0,0 -0.25839906545023855,-0.32647877796489466 l 2.5685766996818327 -1.9973407775698702" fill="#ff1702" stroke="none" /><path d="M 83.4222238831116 112.89097897827486 l -17.409583075258357 13.537797100242738 a43.05369658768486,43.05369658768486 0 0,0 -0.4486769698001364,-0.5873325561926056 l 17.63941202241279 -13.236943630809265" fill="#ecff1a" stroke="none" /><path d="M 83.20337586046588 112.60449989151573 l -16.454376160548946 12.347670627602122 a41.57210404311114,41.57210404311114 0 0,0 -0.4234375760224929,-0.5744743954156453 l 16.66391575615527 -12.063389922917597" fill="#ffff18" stroke="none" /><path d="M 82.98947788004972 112.3143062007846 l -19.826595171308973 14.352925920607182 a45.47652668516123,45.47652668516123 0 0,0 -0.45235046646807237,-0.6362875804882533 l 20.070060736307006 -14.010461113409425" fill="#d0ff1d" stroke="none" /><path d="M 82.78059297857968 112.02048342749411 l -13.967853351283932 9.750646437354932 a38.03455409423083,38.03455409423083 0 0,0 -0.36913488000271577,-0.5385788216534965 l 14.13317796810197 -9.509432880631385" fill="#ffd313" stroke="none" /><path d="M 82.576782715395 111.72311816256416 l -19.180725564718106 12.905648168526717 a44.11830417307523,44.11830417307523 0 0,0 -0.41739184930722206,-0.631984458515181 l 19.399441852946055 -12.574483831672476" fill="#e0ff1b" stroke="none" /><path d="M 82.37810715431573 111.42229804090323 l -8.873146837990703 5.751466578066816 a31.574124200479396,31.574124200479396 0 0,0 -0.2909064016761717,-0.4573531817039509 l 8.970570931292764 -5.598299721684191" fill="#ff7e0b" stroke="none" /><path d="M 82.18462484594161 111.1181117155819 l -8.7362102786168 5.452041341175461 a31.29786991654566,31.29786991654566 0 0,0 -0.2805362744095913,-0.4582349211285523 l 8.828514517481793 -5.301269303922352" fill="#ff7a0b" stroke="none" /><path d="M 81.99639281039703 110.81064883170646 l -15.8543790468865 9.52009908434547 a39.49306955424407,39.49306955424407 0 0,0 -0.3440152709116574,-0.5842131389298684 l 16.015468027927927 -9.246534777122045" fill="#ffe615" stroke="none" /><line stroke="#e1ed5e" stroke-width="0.3" x1="26.387840678322732" x2="22.057713659400548" y1="142.50000000000003" y2="145.00000000000006" /><path d="M 25.521815274538298 143.00000000000003 a86.0,86.0 0 0,1 -11.493303480769221,-40.785679425670985" fill="none" id="id57" stroke="none" /><text fill="#e1ed5e" style="font-size:6.75px; font-family:Arial;" text-anchor="middle"><textPath startOffset="21.40746469413373" xlink:href="#id57">September</textPath></text><path d="M 81.81346652052679 110.50000000000001 l -21.530587362033856 12.430690409281016 a45.86138081856201,45.86138081856201 0 0,0 -0.387783384163103,-0.6851760831299922 l 21.74080411121834 -12.059257556051904" fill="#cbff1d" stroke="none" /><path d="M 81.63589988554817 110.18625677009913 l -21.608337743136516 11.985780694660692 a45.709900827036094,45.709900827036094 0 0,0 -0.3747224759998264,-0.6894471499676055 l 21.81090556875167 -11.6130787112185" fill="#cdff1d" stroke="none" /><path d="M 81.4637452351635 109.86951160357371 l -30.41773264788634 16.195729349394565 a55.46070383200452,55.46070383200452 0 0,0 -0.44023103894120313,-0.8442010638080321 l 30.691271755802493 -15.671182042482029" fill="#61ff29" stroke="none" /><path d="M 81.29705330413844 109.54985784667822 l -21.019735236100008 10.732826583095893 a44.60133123064362,44.60133123064362 0 0,0 -0.34232602088700975,-0.6848813568843473 l 21.200881170198752 -10.370413370047793" fill="#daff1c" stroke="none" /><path d="M 81.1358732173502 109.22738970284198 l -16.620386032257617 8.129863666542317 a39.50221378910721,39.50221378910721 0 0,0 -0.29273161057557434,-0.6116964792842448 l 16.757496900793104 -7.843354685192968" fill="#ffe615" stroke="none" /><path d="M 80.9802524753101 108.90220220490707 l -16.498130215681137 7.721957980368893 a39.21584298527394,39.21584298527394 0 0,0 -0.2801421748379031,-0.6121612096338859 l 16.628256855374094 -7.437607788520318" fill="#ffe215" stroke="none" /><path d="M 80.83023694016515 108.57439118712176 l -22.412664495035155 10.024899751045854 a45.55251809459732,45.55251809459732 0 0,0 -0.31315429531756367,-0.7165583116127331 l 22.581452672369686 -9.63867936965727" fill="#cfff1d" stroke="none" /><path d="M 80.68587082218212 108.24405325689762 l -17.8418485326948 7.615624196713318 a40.399208513988114,40.399208513988114 0 0,0 -0.26677743438436785,-0.6401687256075356 l 17.96995181161565 -7.308222961664502" fill="#fff116" stroke="none" /><path d="M 80.5471966667186 107.91128576633889 l -10.733122828702118 4.365067615617264 a32.58679165882071,32.58679165882071 0 0,0 -0.20629196484411758,-0.5199905112925854 l 10.80647346851236 -4.180176087111112" fill="#ff8c0c" stroke="none" /><path d="M 80.41425534168474 107.57618678355246 l -20.123781347744902 7.784310933368361 a42.57688745948321,42.57688745948321 0 0,0 -0.2578320792158189,-0.6839302224137055 l 20.254444110775157 -7.43771243076051" fill="#f2ff19" stroke="none" /><path d="M 80.28708602549918 107.23885506374661 l -20.160454098217937 7.403197996252172 a42.4767606965777,42.4767606965777 0 0,0 -0.24547487882003738,-0.6866369248886147 l 20.284569147081918 -7.056026114982635" fill="#f3ff19" stroke="none" /><path d="M 80.16572619554312 106.89939002012753 l -16.72227486769651 5.8168752470327165 a38.70509854223738,38.70509854223738 0 0,0 -0.2129049114812677,-0.629415540070792 l 16.81966520075014 -5.528958032487763" fill="#ffdc14" stroke="none" /><path d="M 80.05021161711548 106.5578916946017 l -17.285090742724297 5.681952652660596 a39.195025362205186,39.195025362205186 0 0,0 -0.20462655931918947,-0.6409897826015494 l 17.380082017820744 -5.3843938363676545" fill="#ffe215" stroke="none" /><path d="M 79.94057633289273 106.21446072829308 l -20.579927400340043 6.37571411536866 a42.54490989269108,42.54490989269108 0 0,0 -0.21013879138970953,-0.6994836925984409 l 20.686342511733383 -6.021492819179495" fill="#f3ff19" stroke="none" /><path d="M 79.83685265289637 105.86919833188381 l -23.459145651012943 6.828615401757831 a45.43279564398155,45.43279564398155 0 0,0 -0.21154701273029494,-0.7507057182569593 l 23.572911155817813 -6.424901759597876" fill="#d0ff1d" stroke="none" /><path d="M 79.73907114497094 105.5222062557868 l -20.524466869126783 5.59403471343063 a42.273151262494,42.273151262494 0 0,0 -0.1848152364490308,-0.7017735557953716 l 20.61747158638055 -5.240880653262454" fill="#f6ff19" stroke="none" /><path d="M 79.64726062577567 105.17358676015961 l -20.916968830232925 5.317011681474866 a42.5821731590189,42.5821731590189 0 0,0 -0.17400388595651936,-0.7099952336742767 l 21.00516024270574 -4.9571606231924905" fill="#f2ff19" stroke="none" /><path d="M 79.56144815229197 104.8234425847677 l -19.286522266214885 4.551566740349241 a40.816324102039104,40.816324102039104 0 0,0 -0.15508092068975027,-0.6833151509092359 l 19.3618140484623 -4.2198172555009785" fill="#fff617" stroke="none" /><path d="M 79.48165901384964 104.47187691870673 l -14.344001172212344 3.1262082937024736 a35.68072027947005,35.68072027947005 0 0,0 -0.12529419013540763,-0.5995780568053363 l 14.395553073172119 -2.8795137856117283" fill="#ffb510" stroke="none" /><path d="M 79.407916724674 104.11899336999214 l -3.116045637152366 0.623296397378246 a24.177772618014227,24.177772618014227 0 0,0 -0.07791426273428403,-0.407680346059362 l 3.126286192168807 -0.5697134862855695" fill="#ff1602" stroke="none" /><path d="M 79.34024301695615 103.76489593502545 l -21.832084772294028 3.978533110520203 a43.19163471256992,43.19163471256992 0 0,0 -0.1266649860277317,-0.730569979497791 l 21.897164575813996 -3.603170098101819" fill="#ebff1a" stroke="none" /><path d="M 79.2786578344484 103.40968896794605 l -24.060114184576022 3.959082633124754 a45.383671378009225,45.383671378009225 0 0,0 -0.11989611282567465,-0.7698190520088694 l 24.124531789539965 -3.545475399184434" fill="#d1ff1d" stroke="none" /><path d="M 79.22317932658666 103.0534771498775 l -21.85765015405101 3.212321863123939 a43.09243947619163,43.09243947619163 0 0,0 -0.10127848491250865,-0.7328006650061063 l 21.909573155518732 -2.8366328899177478" fill="#ecff1a" stroke="none" /><path d="M 79.17382384314188 102.69636545807758 l -21.940988554945356 2.840700242331732 a43.12411708147981,43.12411708147981 0 0,0 -0.0887492558169362,-0.734971151455108 l 21.986519897021953 -2.4636354139532246" fill="#ecff1a" stroke="none" /><path d="M 79.13060592940153 102.33845913500099 l -22.34484762155221 2.50378678288695 a43.48468731124689,43.48468731124689 0 0,0 -0.07675587249098931,-0.7425434390359019 l 22.384535886524866 -2.1198388215681168" fill="#e7ff1a" stroke="none" /><path d="M 79.0935383218832 101.97986365728391 l -3.278104463845144 0.3104399009584957 a24.2927711441867,24.2927711441867 0 0,0 -0.035752454795222335,-0.4154977188529387 l 3.282950541338107 -0.2541211347298948" fill="#ff1802" stroke="none" /><path d="M 79.06263194458094 101.62068470465958 l -11.108084226939242 0.8598359715996494 a32.141312897986175,32.141312897986175 0 0,0 -0.037859464954778495,-0.5504683114320738 l 11.121207653059088 -0.6690242360132325" fill="#ff860c" stroke="none" /><path d="M 79.03789590574601 101.26102812881392 l -18.683964332099116 1.1239808978427572 a39.71774175005808,39.71774175005808 0 0,0 -0.03509991225025722,-0.6809289206380744 l 18.700505833805945 -0.8030801838279521" fill="#ffe915" stroke="none" /><path d="M 79.01933749520258 100.90099992219065 l -23.063874805328634 0.9904620218863109 a44.085132359435846,44.085132359435846 0 0,0 -0.025979395796828456,-0.7563617626174443 l 23.07747888812231 -0.5943939947047466" fill="#e0ff1b" stroke="none" /><path d="M 79.00696218219943 100.54070618675478 l -16.975225149140684 0.4372215845728016 a37.980854854159574,37.980854854159574 0 0,0 -0.011192719914576377,-0.6519198222054098 l 16.980229300653928 -0.14575484639833938" fill="#ffd313" stroke="none" /><line stroke="#e1ed5e" stroke-width="0.3" x1="15.003131293944662" x2="10.003315487706104" y1="100.72959589197737" y2="100.7725132973878" /><path d="M 14.003168132696942 100.73817937305945 a86.0,86.0 0 0,1 10.791469493833604,-42.453326145846276" fill="none" id="id58" stroke="none" /><text fill="#e1ed5e" style="font-size:6.75px; font-family:Arial;" text-anchor="middle"><textPath startOffset="22.145653131862435" xlink:href="#id58">October</textPath></text><path d="M 79.00077361379809 100.18025310272382 l -2.6516419175343096 0.022761156728238485 a23.65173960431273,23.65173960431273 0 0,0 0.0,-0.40602851890411107 l 2.6516419175343096 0.02276115672823751" fill="#ff0e01" stroke="none" /><path d="M 79.00077361379809 99.81974689727619 l -5.547730781107258 -0.04762059649150042 a26.547935160116342,26.547935160116342 0 0,0 0.00782351012631234,-0.45568024300559834 l 5.546095839382279 0.1428477554661511" fill="#ff3805" stroke="none" /><path d="M 79.00696218219943 99.45929381324524 l -3.081787494857114 -0.07937591401468165 a24.08280954636892,24.08280954636892 0 0,0 0.014192014577693004,-0.41318501958341347 l 3.07997079328257 0.13226719816223365" fill="#ff1502" stroke="none" /><path d="M 79.01933749520258 99.09900007780938 l -17.690323031282993 -0.7596985877385122 a38.70662788041115,38.70662788041115 0 0,0 0.034206356712210985,-0.6635941819152088 l 17.674675085114213 1.063264563030433" fill="#ffdc14" stroke="none" /><path d="M 79.03789590574601 98.7389718711861 l -11.363955857523173 -0.6836273651968199 a32.384499949764205,32.384499949764205 0 0,0 0.038145916590826584,-0.554633255352697 l 11.350545979767283 0.8786040447038416" fill="#ff890c" stroke="none" /><path d="M 79.06263194458094 98.37931529534042 l -13.163305915703452 -1.0189231284403977 a34.20268256726883,34.20268256726883 0 0,0 0.05033719105587305,-0.5849944619739845 l 13.143875101949837 1.244738637790063" fill="#ffa10e" stroke="none" /><path d="M 79.0935383218832 98.0201363427161 l -9.554275321108964 -0.9047998064516133 a30.597022434135845,30.597022434135845 0 0,0 0.05400754375325129,-0.5224739941185419 l 9.53733538487405 1.0686783228530679" fill="#ff710a" stroke="none" /><path d="M 79.13060592940154 97.66154086499901 l -11.955606101704673 -1.33965060070396 a33.03042729877391,33.03042729877391 0 0,0 0.06797648370498607,-0.5629427992453298 l 11.930847531740017 1.5446870768727259" fill="#ff920d" stroke="none" /><path d="M 79.17382384314186 97.30363454192245 l -20.64272569412724 -2.672614122870827 a41.815018384155934,41.815018384155934 0 0,0 0.09827621179061365,-0.7110777122767251 l 20.593804965781416 3.026580143347619" fill="#fcff18" stroke="none" /><path d="M 79.22317932658666 96.9465228501225 l -17.427046720421302 -2.561175734589026 a38.614243626656084,38.614243626656084 0 0,0 0.10201241041029965,-0.6549928535996696 l 17.380512817872734 2.8599567701201463" fill="#ffdb14" stroke="none" /><path d="M 79.2786578344484 96.59031103205396 l -18.379285753340948 -3.0243044765737643 a39.6264479268052,39.6264479268052 0 0,0 0.1162096203669891,-0.6702662087719307 l 18.324661315481723 3.3393637182662874" fill="#ffe715" stroke="none" /><path d="M 79.34024301695615 96.23510406497455 l -7.662259050756797 -1.3963188423262867 a28.788447860154157,28.788447860154157 0 0,0 0.09277242886373194,-0.4854245497120358 l 7.637160329610905 1.527645957071637" fill="#ff5808" stroke="none" /><path d="M 79.407916724674 95.88100663000787 l -18.22737159956868 -3.6459848072277024 a39.588444815080635,39.588444815080635 0 0,0 0.13901631169367965,-0.6652433759255906 l 18.162097577050634 3.958344634438702" fill="#ffe715" stroke="none" /><path d="M 79.48165901384962 95.52812308129327 l -20.18622297847911 -4.399493344723111 a41.660085668436636,41.660085668436636 0 0,0 0.15828677823421727,-0.6974407507705669 l 20.10772533868723 4.745368429432687" fill="#fdff18" stroke="none" /><path d="M 79.56144815229197 95.17655741523228 l -18.093449314082726 -4.270004772215284 a39.59047736977246,39.59047736977246 0 0,0 0.16177889473812834,-0.6601130977147609 l 18.017482892828298 4.579973694538162" fill="#ffe715" stroke="none" /><path d="M 79.64726062577567 94.8264132398404 l -17.989021516330443 -4.572738923929754 a39.56111086065222,39.56111086065222 0 0,0 0.1729583870503947,-0.6567511673663301 l 17.90787364847532 4.880870595668869" fill="#ffe715" stroke="none" /><path d="M 79.73907114497095 94.47779374421319 l -21.610773042886144 -5.890112291677742 a43.39908333659455,43.39908333659455 0 0,0 0.20207751482062353,-0.7171018108414805 l 21.506477035990937 6.260222026422236" fill="#e8ff1a" stroke="none" /><path d="M 79.83685265289637 94.1308016681162 l -19.00618426831098 -5.5324232414078365 a40.79501824609064,40.79501824609064 0 0,0 0.20149568657160427,-0.6707136076764484 l 18.90841226173575 5.857874452675008" fill="#fff617" stroke="none" /><path d="M 79.94057633289273 93.78553927170692 l -21.435587047996954 -6.640799661463796 a43.44069099283604,43.44069099283604 0 0,0 0.22679202399199636,-0.7104227849896828 l 21.3184303082277 7.007791480144871" fill="#e8ff1a" stroke="none" /><path d="M 80.05021161711548 93.44210830539832 l -20.004670634490566 -6.575932580804623 a42.05777140396716,42.05777140396716 0 0,0 0.2313469396826196,-0.6839361195144416 l 19.88883827323558 6.918370374793226" fill="#f9ff18" stroke="none" /><path d="M 80.16572619554312 93.10060997987247 l -20.60738764460867 -7.1683191458294715 a42.81855231017025,42.81855231017025 0 0,0 0.24745010606318013,-0.6921619870322733 l 20.481297368501547 7.521016089242666" fill="#efff19" stroke="none" /><path d="M 80.28708602549916 92.7611449362534 l -15.687935648569601 -5.760827270705649 a37.712224739889265,37.712224739889265 0 0,0 0.2283732300956204,-0.6057871252005601 l 15.586731734659546 6.029282676100354" fill="#ffcf13" stroke="none" /><path d="M 80.41425534168474 92.42381321644754 l -20.83676906639239 -8.06010989966188 a43.34135888259249,43.34135888259249 0 0,0 0.27437417517239404,-0.6916021559113233 l 20.695336216253864 8.416613072786786" fill="#e9ff1a" stroke="none" /><path d="M 80.5471966667186 92.08871423366112 l -2.8889766780537527 -1.1749216645432576 a24.1187541044705,24.1187541044705 0 0,0 0.1592689455366566,-0.3821874894641841 l 2.8683818879806173 1.2243416634487057" fill="#ff1502" stroke="none" /><path d="M 80.68587082218212 91.75594674310238 l -15.740118037282633 -6.7185204248423345 a38.114024439815836,38.114024439815836 0 0,0 0.26201779757553634,-0.5995479974267043 l 15.62246635769012 6.987730492044906" fill="#ffd413" stroke="none" /><path d="M 80.83023694016515 91.42560881287825 l -20.505551220364026 -9.171872240786971 a43.463322800785534,43.463322800785534 0 0,0 0.3104844585303662,-0.6784645754122755 l 20.345082296978614 9.522525798413918" fill="#e8ff1a" stroke="none" /><path d="M 80.9802524753101 91.09779779509293 l -20.139142644890818 -9.4261356427342 a43.235941617716215,43.235941617716215 0 0,0 0.3204004436833916,-0.6695136988345287 l 19.97436294324752 9.770461843633816" fill="#eaff1a" stroke="none" /><path d="M 81.1358732173502 90.77261029715801 l -19.933194626963957 -9.750324357168887 a43.19011205709484,43.19011205709484 0 0,0 0.33149457189319276,-0.6632112031966733 l 19.76288014185902 10.09106741652933" fill="#ebff1a" stroke="none" /><path d="M 81.29705330413844 90.45014215332179 l -19.892263697583775 -10.157131581976724 a43.33538620637213,43.33538620637213 0 0,0 0.34398377183128204,-0.6596342384468983 l 19.714971856777552 10.497112063528109" fill="#e9ff1a" stroke="none" /><path d="M 81.46374523516351 90.13048839642627 l -19.347426763290304 -10.30141500330587 a42.918988877939086,42.918988877939086 0 0,0 0.3518430250068695,-0.6473515371068436 l 19.167738388668084 10.632021373887335" fill="#eeff19" stroke="none" /><path d="M 81.63589988554816 89.8137432299009 l -7.754110438699697 -4.301074349411899 a29.867100385961614,29.867100385961614 0 0,0 0.25254288152877025,-0.44621907346980105 l 7.679134192149558 4.433550192980807" fill="#ff6709" stroke="none" /><line stroke="#e1ed5e" stroke-width="0.3" x1="26.387840678322718" x2="22.05771365940052" y1="57.5" y2="55.0" /><path d="M 25.521815274538284 57.0 a86.0,86.0 0 0,1 29.574782752854787,-30.346332500585742" fill="none" id="id59" stroke="none" /><text fill="#e1ed5e" style="font-size:6.75px; font-family:Arial;" text-anchor="middle"><textPath startOffset="21.40746469413373" xlink:href="#id59">November</textPath></text><path d="M 81.81346652052679 89.5 l -9.590161261139572 -5.536882185690853 a32.073764371381706,32.073764371381706 0 0,0 0.2793873675537393,-0.4744608300189027 l 9.493700183456054 5.7006941840033285" fill="#ff850c" stroke="none" /><path d="M 81.99639281039701 89.18935116829357 l -19.398221923067034 -11.648074908615634 a43.62672452771898,43.62672452771898 0 0,0 0.3910451029522084,-0.6387427874920338 l 19.19540885565943 11.97935481223221" fill="#e6ff1a" stroke="none" /><path d="M 82.18462484594161 88.88188828441811 l -18.97369709819768 -11.840990277845393 a43.365380218860224,43.365380218860224 0 0,0 0.399544469917426,-0.6281502692827238 l 18.76763493665436 12.16495422180679" fill="#e9ff1a" stroke="none" /><path d="M 82.37810715431573 88.57770195909679 l -18.161800164700413 -11.772259442114303 a42.64340725474992,42.64340725474992 0 0,0 0.4034382315556854,-0.6108569027814732 l 17.957037494224004 12.082296223234835" fill="#f1ff19" stroke="none" /><path d="M 82.576782715395 88.27688183743585 l -17.015702570325463 -11.448924075993023 a41.50882728143258,41.50882728143258 0 0,0 0.40285357203411787,-0.587775401022632 l 16.816659261476033 11.739334212085692" fill="#ffff18" stroke="none" /><path d="M 82.78059297857968 87.97951657250589 l -18.758545211932336 -13.094921419967275 a43.87706243081107,43.87706243081107 0 0,0 0.4364407553644869,-0.6139085793933584 l 18.53098935803788 13.41500722607015" fill="#e3ff1b" stroke="none" /><path d="M 82.98947788004972 87.6856937992154 l -9.25648300633499 -6.700979856972277 a32.427406035059605,32.427406035059605 0 0,0 0.33029317433498745,-0.44810612562624197 l 9.140087812416185 6.858892291867383" fill="#ff8a0c" stroke="none" /><path d="M 83.2033758604659 87.39550010848427 l -2.5408501921469266 -1.9067013529161456 a24.176701079444733,24.176701079444733 0 0,0 0.25195348692059416,-0.329815202194638 l 2.5077447278720255 1.9500374683516701" fill="#ff1602" stroke="none" /><path d="M 83.42222388311158 87.10902102172516 l -15.627695472366812 -12.152190522583446 a40.79647949192485,40.79647949192485 0 0,0 0.4346448559041229,-0.5491595767076619 l 15.416784185821124 12.41867004320579" fill="#fff617" stroke="none" /><path d="M 83.64595745247001 86.82634096563983 l -14.534154992491459 -11.707686443101757 a39.66310754391543,39.66310754391543 0 0,0 0.4316728280020123,-0.5265706611424201 l 14.331035345250818 11.955459385942673" fill="#ffe815" stroke="none" /><path d="M 83.8745106332314 86.54754324733833 l -16.63160206388393 -13.874673965117111 a42.65910350983361,42.65910350983361 0 0,0 0.47393336975032924,-0.5582923178773849 l 16.390974130626486 14.15813306544405" fill="#f1ff19" stroke="none" /><path d="M 84.10781606972428 86.27271002978789 l -17.225855293512407 -14.879283529337789 a43.76231905890637,43.76231905890637 0 0,0 0.4959498929301779,-0.5642999378883992 l 16.967894336623637 15.172795745037488" fill="#e4ff1a" stroke="none" /><path d="M 84.34580500576568 86.00192230759919 l -15.611468299189474 -13.959871218225848 a41.942682418593094,41.942682418593094 0 0,0 0.4845424375052445,-0.5325970181598637 l 15.369528160842362 14.225805811943372" fill="#faff18" stroke="none" /><path d="M 84.58840730492382 85.73525988315684 l -32.47678083028227 -30.06002348632407 a65.25320672105633,65.25320672105633 0 0,0 0.7679499700528659,-0.8155362557117909 l 31.955975026493135 30.61310120198037" fill="#35ff6a" stroke="none" /><path d="M 84.83555147118756 85.47280134310135 l -2.257730393331292 -2.162854644883687 a24.12654549684901,24.12654549684901 0 0,0 0.28907415664966096,-0.2966155507658048 l 2.2202694355308283 2.2012928877172224" fill="#ff1502" stroke="none" /><path d="M 85.08716467003674 85.21462403516908 l -18.30437737546905 -18.147930645668964 a46.775911580846056,46.775911580846056 0 0,0 0.5702386337134473,-0.565364828523563 l 17.990146821625622 18.459475484421198" fill="#c0ff1e" stroke="none" /><path d="M 85.34317274990677 84.96080404539775 l -14.48589499383786 -14.863804401374352 a41.75509178622953,41.75509178622953 0 0,0 0.5176190117702545,-0.49586730426015413 l 14.228603496202306 15.110283835940075" fill="#fcff18" stroke="none" /><path d="M 85.60350026404147 84.71141617570332 l -15.505104434206846 -16.465883596326996 a43.61710826174406,43.61710826174406 0 0,0 0.5495137289254135,-0.5086217037297383 l 15.22016093396748 16.7296230461891" fill="#e6ff1a" stroke="none" /><path d="M 85.86807049272753 84.46653392183569 l -12.595042300288473 -13.844157814677338 a39.71619074875407,39.71619074875407 0 0,0 0.5082442597877846,-0.45447515109186293 l 12.355533013677297 14.058328495652601" fill="#ffe815" stroke="none" /><path d="M 86.13680546590413 84.22622945171909 l -15.098057517871137 -17.178817943145795 a43.8705733801471,43.8705733801471 0 0,0 0.5699425072701837,-0.4923027632937684 l 14.800935530838103 17.435464838904274" fill="#e3ff1b" stroke="none" /><path d="M 86.40962598614128 83.9905735841838 l -16.900624864331867 -19.908893594166198 a47.11503714239565,47.11503714239565 0 0,0 0.6210786441871459,-0.5181258944083534 l 16.556371885982813 20.196081672486432" fill="#bdff1f" stroke="none" /><path d="M 86.68645165197937 83.75963576809568 l -21.039216537136944 -25.664423246550047 a54.186009899874904,54.186009899874904 0 0,0 0.7244133589006151,-0.5835361233992613 l 20.595552407881083 26.021807663742706" fill="#6eff28" stroke="none" /><path d="M 86.96720088162412 83.53348406188908 l -10.697869304233302 -13.516408394080853 a38.237682661136226,38.237682661136226 0 0,0 0.5181935345501287,-0.4029504267317581 l 10.464265825047928 13.698059872433413" fill="#ffd614" stroke="none" /><path d="M 87.25179093698888 83.31218511350988 l -12.054017326952424 -15.779095620135184 a40.85646474848528,40.85646474848528 0 0,0 0.5609923568523305,-0.4209791230872003 l 11.781371981189341 15.983693770486388" fill="#fff717" stroke="none" /><path d="M 87.54013794807813 83.09580414077388 l -13.156382261085405 -17.849159293535834 a43.17392346171104,43.17392346171104 0 0,0 0.600362167022881,-0.4346159103144488 l 12.848039083688557 18.072375975223363" fill="#ebff1a" stroke="none" /><path d="M 87.83215693770416 82.88440491214696 l -13.34797889376277 -18.775603927270428 a44.036749844152695,44.036749844152695 0 0,0 0.6198799725087837,-0.4327243631158899 l 13.02370383008022 19.001973106191446" fill="#e1ff1b" stroke="none" /><path d="M 88.12776184653039 82.6780497279521 l -12.950105837760416 -18.894591435894203 a43.9065673277024,43.9065673277024 0 0,0 0.6253627268873924,-0.42077195170159876 l 12.623846822776034 19.114113061652912" fill="#e2ff1b" stroke="none" /><path d="M 88.4268655584334 82.4767994020092 l -21.73615106973115 -32.91130309997267 a60.44127451115703,60.44127451115703 0 0,0 0.8706835211582,-0.5643665391148757 l 21.167981916315927 33.27958348079145" fill="#2fff30" stroke="none" /><path d="M 88.72937992617638 82.28071324371311 l -11.744982033105705 -18.465062545705525 a42.88385564234038,42.88385564234038 0 0,0 0.6245438738681891,-0.38976156835894743 l 11.426274030447818 18.66395991090601" fill="#efff19" stroke="none" /><path d="M 89.03521579738668 82.08984904055464 l -11.793060672210265 -19.263078325138707 a43.5863336240936,43.5863336240936 0 0,0 0.6414813326174583,-0.38519110898105235 l 11.460646583035372 19.462683434655684" fill="#e6ff1a" stroke="none" /><line stroke="#e1ed5e" stroke-width="0.3" x1="56.869717070023135" x2="54.33264160355391" y1="26.7553504044142" y2="22.446841604673864" /><path d="M 56.362301976729285 25.89364864446614 a86.0,86.0 0 0,1 42.16139366436587,-11.88097634709845" fill="none" id="id60" stroke="none" /><text fill="#e1ed5e" style="font-size:6.75px; font-family:Arial;" text-anchor="middle"><textPath startOffset="22.145653131862474" xlink:href="#id60">December</textPath></text><path d="M 89.34428304082924 81.90426304109057 l -11.916346443375206 -20.23656142301801 a44.484414635798814,44.484414635798814 0 0,0 0.6613509196246411,-0.38183113147409103 l 11.567203055890165 20.438139451768272" fill="#dbff1b" stroke="none" /><path d="M 89.65649057296885 81.72400993836675 l -11.714942813399347 -20.69918144713685 a44.78436456377827,44.78436456377827 0 0,0 0.6723110099269994,-0.3729195840689063 l 11.357887615316244 20.897233946638902" fill="#d8ff1c" stroke="none" /><path d="M 89.97174638481275 81.54914285379989 l -11.343195074756743 -20.870201326864755 a44.75359715764863,44.75359715764863 0 0,0 0.6781473880641204,-0.3610752873406039 l 10.983258870906061 21.061847081927933" fill="#d8ff1c" stroke="none" /><path d="M 90.28995756902619 81.37971332152246 l -8.662514139465499 -16.611513057727812 a39.73450072148979,39.73450072148979 0 0,0 0.6075079304986876,-0.310197877978014 l 8.37607898725323 16.757768887378663" fill="#ffe915" stroke="none" /><path d="M 90.6110303473126 81.2157712731953 l -7.876049106018675 -15.757374168171276 a38.616100311821825,38.616100311821825 0 0,0 0.5954965856881873,-0.29128722077454733 l 7.604392271068434 15.890255139043038" fill="#ffdb14" stroke="none" /><path d="M 90.93487009805054 81.0573650232925 l -5.027680351728065 -10.505918250754272 a32.64696904824101,32.64696904824101 0 0,0 0.50760018343513,-0.2375825160834304 l 4.846591454421411 10.590676998408245" fill="#ff8d0d" stroke="none" /><path d="M 91.26138138417902 80.90454125486306 l -9.776352575830595 -21.3630947289199 a44.49380527040596,44.49380527040596 0 0,0 0.697253093830604,-0.311872440169119 l 9.408186079144373 21.527770919998865" fill="#dbff1b" stroke="none" /><path d="M 91.5904679813234 80.7573450057729 l -10.898370531831384 -24.937604575086116 a48.215043674270426,48.215043674270426 0 0,0 0.7612579681673236,-0.3249357594137269 l 10.46867748849363 25.12101498415925" fill="#b0ff20" stroke="none" /><path d="M 91.92203290615298 80.6158196554323 l -9.107165729554431 -21.853882403657707 a44.67557061062036,44.67557061062036 0 0,0 0.7104384523422915,-0.28892913373875895 l 8.730672816021698 22.006998793975757" fill="#d9ff1c" stroke="none" /><path d="M 92.25597844496254 80.48000691201159 l -7.903497855655153 -19.921977543175025 a42.43246293791536,42.43246293791536 0 0,0 0.6793795719258332,-0.2627986131563676 l 7.560346021235792 20.054716044469433" fill="#f4ff19" stroke="none" /><path d="M 92.592206182469 80.34994680014964 l -9.468683560157352 -25.11680809059748 a47.84231765370303,47.84231765370303 0 0,0 0.7709694906677296,-0.2831106760133672 l 9.036124917835496 25.27564961561957" fill="#b4ff20" stroke="none" /><path d="M 92.93061703081487 80.22567764915836 l -7.751033371355958 -21.68101984365842 a44.024880885359295,44.024880885359295 0 0,0 0.713819896565291,-0.24830361419253624 l 7.3777077027456635 21.81088189041954" fill="#e1ff1b" stroke="none" /><path d="M 93.27111125876988 80.10723608172694 l -1.6244416735024059 -4.8023731633405236 a26.06967442254279,26.06967442254279 0 0,0 0.42515574888793384,-0.13975713932566527 l 1.5417631869667099 4.829551224068217" fill="#ff3104" stroke="none" /><path d="M 93.61358852112211 79.99465700312896 l -5.761564958667679 -18.048020171909098 a39.94535993056308,39.94535993056308 0 0,0 0.6550266126382976,-0.20292891898496696 l 5.450897713157767 18.14426567870071" fill="#ffeb16" stroke="none" /><path d="M 93.9579478882505 79.88797359093562 l -6.786803191711596 -22.59106053709671 a44.588486889874794,44.588486889874794 0 0,0 0.7349456333325389,-0.21393196265067987 l 6.397997545997431 22.70423619404991" fill="#daff1c" stroke="none" /><path d="M 94.30408787586887 79.78721728523814 l -7.32053303889778 -25.977989204678554 a47.9897411453313,47.9897411453313 0 0,0 0.7948440254607928,-0.21663827365371685 l 6.873507612502311 26.09982797247641" fill="#b3ff20" stroke="none" /><path d="M 94.6519064749342 79.69241777938228 l -5.674976195330998 -21.548808962781653 a43.283548248248806,43.283548248248806 0 0,0 0.7201448880172389,-0.18305801442930597 l 5.304226014088378 21.64305220904622" fill="#eaff1a" stroke="none" /><path d="M 95.00130118170881 79.60360301121753 l -5.37795880031624 -21.943907138230895 a43.59330656077591,43.59330656077591 0 0,0 0.7283566468731176,-0.1718901854497264 l 5.000469999703217 22.032993467326854" fill="#e6ff1a" stroke="none" /><path d="M 95.35216902796891 79.52079915486377 l -5.112159593645806 -22.525118426351007 a44.09794657176353,44.09794657176353 0 0,0 0.7396644824998688,-0.1612064313148413 l 4.7247326945268195 22.609556315799562" fill="#e0ff1b" stroke="none" /><path d="M 95.70440661134978 79.44403061299748 l -1.5977832296203434 -7.645971157773441 a28.811132196702303,28.811132196702303 0 0,0 0.48499221368409023,-0.09701202573594013 l 1.4662945304052764 7.672272580172248" fill="#ff5808" stroke="none" /><path d="M 96.05791012581881 79.37332000966035 l -4.463956686521274 -23.357307672427563 a44.7800490117994,44.7800490117994 0 0,0 0.7562822863984459,-0.13781982567027312 l 4.0623396665717895 23.4304956720292" fill="#d8ff1c" stroke="none" /><path d="M 96.41257539226777 79.30868818359171 l -4.056184644638794 -23.39499514115311 a44.744018857935174,44.744018857935174 0 0,0 0.7579263862659582,-0.1247164984352486 l 3.653980755319764 23.461177638084028" fill="#d8ff1c" stroke="none" /><path d="M 96.76829788921471 79.25015418208739 l -3.537475698290426 -22.713131596866933 a43.98695458847453,43.98695458847453 0 0,0 0.7470972563087482,-0.10979756897040628 l 3.147053336373993 22.770510239136225" fill="#e1ff1b" stroke="none" /><path d="M 97.12497278360702 79.19773525538626 l -1.8880219384045924 -13.660786229219013 a34.790638391326084,34.790638391326084 0 0,0 0.5923059435941264,-0.07668586277636917 l 1.653238172919672 13.691183688195776" fill="#ffa90f" stroke="none" /><path d="M 97.48249496171623 79.15144685158666 l -1.0002052016486496 -8.283133892000889 a29.34330375320345,29.34330375320345 0 0,0 0.5006024887235869,-0.05609355301834763 l 0.8578668113242636 8.299083205526205" fill="#ff6008" stroke="none" /><path d="M 97.84075906011542 79.11130261209362 l -3.829305771525899 -37.045059673351545 a58.24244928698995,58.24244928698995 0 0,0 0.9953924037441325,-0.09426469554015018 l 3.1928138043967507 37.10533612439688" fill="#45ff2d" stroke="none" /><path d="M 98.1996594967304 79.07731436759882 l -1.5846562602680814 -18.416107791160847 a39.484159749332996,39.484159749332996 0 0,0 0.6758014871027932,-0.05231130916906984 l 1.2682857783900707 18.44059686732497" fill="#ffe615" stroke="none" /><path d="M 98.5590905019552 79.04949213459386 l -2.7048652062881735 -39.32814646311775 a60.42105275114592,60.42105275114592 0 0,0 1.0353741467905244,-0.062285537610101714 l 2.0293467073651654 39.36878397855254" fill="#2fff30" stroke="none" /><path d="M 98.9189461498227 79.02784411241856 l -1.2015492309598201 -23.309734084162674 a44.34068173016365,44.34068173016365 0 0,0 0.760493872219181,-0.032658879076829454 l 0.8012295981398189 23.32692553166533" fill="#ddff1b" stroke="none" /><path d="M 99.27912038922189 79.0123766808444 l -0.7922828614430607 -23.066451054485228 a44.080053647717094,44.080053647717094 0 0,0 0.7564697356992656,-0.019483977008727883 l 0.39619981167305124 23.076652748844" fill="#e0ff1b" stroke="none" /><path d="M 99.63950707515114 79.00309439819443 l -0.3609330393896408 -21.02254006736598 a42.02563824341442,42.02563824341442 0 0,0 0.7214259642384878,-0.0061925742428760155 l 5.149796114965529e-15 21.02563824341442" fill="#f9ff18" stroke="none" /></svg>