<?xml version="1.0" encoding="utf-8" ?>
<svg baseProfile="full" height="200mm" version="1.1" viewBox="0,0,200,200" width="200mm" xmlns="http://www.w3.org/2000/svg" xmlns:ev="http://www.w3.org/2001/xml-events" xmlns:xlink="http://www.w3.org/1999/xlink"><defs /><rect fill="#1a1a1a" height="200" width="200" x="0" y="0" /><text alignment-baseline="middle" fill="#e1ed5e" style="dominant-baseline: central; font-size:9.0px; font-family:Arial;" text-anchor="middle" x="100.0" y="100.0">2023</text><line stroke="#e1ed5e" stroke-width="0.3" x1="100.0" x2="100.0" y1="15.0" y2="10.0" /><path d="M 100.0 14.0 a86.0,86.0 0 0,1 42.46469731375804,11.215312516191453" fill="none" id="id85" stroke="none" /><text fill="#e1ed5e" style="font-size:6.75px; font-family:Arial;" text-anchor="middle"><textPath startOffset="22.20632615414155" xlink:href="#id85">January</textPath></text><path d="M 100.0 79.0 l 0.0 -53.82217677454079 a74.8221767745408,74.8221767745408 0 0,0 1.2879407771749927,0.011085712886560139 l -0.9264602979024643 53.81420243826279" fill="#41ffd1" stroke="none" /><path d="M 100.36148047927253 79.00311137660856 l 0.10619492485561854 -6.168418870225567 a27.169332923470733,27.169332923470733 0 0,0 0.46753682181264183,0.01207509673943733 l -0.21235838186312817 6.16567698134377" fill="#ff2f04" stroke="none" /><path d="M 101.44485096284872 79.0497635885617 l 4.304296533356983 -62.41199423154967 a83.56024290718554,83.56024290718554 0 0,0 1.4340919677626436,0.11131313746651107 l -5.377978690481968 62.3286558318947" fill="#4cd6ff" stroke="none" /><path d="M 106.74666289553966 80.11325718540242 l 2.072255644459207 -6.108266514205623 a27.450206451312916,27.450206451312916 0 0,0 0.4461547359053105,0.15565462687948134 l -2.177092384427791 6.071691034153934" fill="#ff3304" stroke="none" /><path d="M 107.76421540070413 80.48803036053334 l 1.250593344296074 -3.14282102001074 a24.382500210882327,24.382500210882327 0 0,0 0.38862933906413616,0.15853166530583637 l -1.3045065529485975 3.1208284685213243" fill="#ff0500" stroke="none" /><path d="M 108.09893153111575 80.62456947434976 l 1.880924706746962 -4.499818999523527 a25.877114800876033,25.877114800876033 0 0,0 0.4094945499931304,0.17532419565855686 l -1.958103014530408 4.4667752759021795" fill="#ff1c02" stroke="none" /><path d="M 108.43124777332544 80.76684994638697 l 1.867284828945555 -4.2596031184812375 a25.650910809657105,25.650910809657105 0 0,0 0.4028632886970797,0.18075301445538067 l -1.940330236109415 4.226829773509325" fill="#ff1802" stroke="none" /><path d="M 109.41281617654863 81.2277094730956 l 17.883816732593253 -35.666287021580025 a60.89880863924022,60.89880863924022 0 0,0 0.9330263332388014,0.4779323268243074 l -18.49510355342081 35.353162169443216" fill="#2fff2f" stroke="none" /><path d="M 109.73455568895987 81.39251694778311 l 12.13019204177357 -23.186712372853584 a47.168018450615406,47.168018450615406 0 0,0 0.7161788727820351,0.38255795099512263 l -12.527515961083918 22.974475695356706" fill="#c6ff1e" stroke="none" /><path d="M 110.05341064243156 81.56283822128135 l 18.08805249796109 -33.172060908297375 a58.783108237316675,58.783108237316675 0 0,0 0.884198469601884,0.49205549103207735 l -18.656375056635007 32.85579001970512" fill="#45ff2d" stroke="none" /><line stroke="#e1ed5e" stroke-width="0.3" x1="143.23703022742887" x2="145.7803849466894" y1="26.81831364943548" y2="22.513508569990506" /><path d="M 143.74570117128098 25.957352633546492 a86.0,86.0 0 0,1 28.547481713284135,27.462654790039103" fill="none" id="id86" stroke="none" /><text fill="#e1ed5e" style="font-size:6.75px; font-family:Arial;" text-anchor="middle"><textPath startOffset="19.985693538727396" xlink:href="#id86">February</textPath></text><path d="M 110.68208982089419 81.91981866633111 l 23.444100289493086 -39.6807732892918 a67.08893150442938,67.08893150442938 0 0,0 0.9892037205094265,0.5959841733309558 l -24.12366607622015 39.27134250650223" fill="#37ff7a" stroke="none" /><path d="M 113.06298171725822 83.55741782278167 l 2.4046345762045687 -3.026751662155956 a24.865681449556128,24.865681449556128 0 0,0 0.3328408832308669,0.2691341800407907 l -2.4563788579999266 2.984911384851038" fill="#ff0d01" stroke="none" /><path d="M 115.4437574822437 85.77008943001952 l 33.08613327199659 -30.485632664737125 a65.9896211793521,65.9896211793521 0 0,0 0.762514344405168,0.8419873840069468 l -33.60599125701779 29.91159249346063" fill="#36ff6d" stroke="none" /><path d="M 115.68641384162765 86.03803664274999 l 6.190787317316916 -5.510217092929773 a29.28784290509101,29.28784290509101 0 0,0 0.33194023379359294,0.3794650688974824 l -6.284719414688357 5.402836467829342" fill="#ff4e07" stroke="none" /><path d="M 116.38621287248628 86.86637796730983 l 44.511981548178845 -35.676549922127194 a78.04500605391718,78.04500605391718 0 0,0 0.8311641492370452,1.0554940634901735 l -45.11949977800985 34.90506346468398" fill="#45fff2" stroke="none" /><path d="M 116.60985879189232 87.15038557335679 l 5.620725985090376 -4.348270663293059 a28.10633649363195,28.10633649363195 0 0,0 0.29273962015782545,0.38521102557513476 l -5.694741545472315 4.250874861836893" fill="#ff3c05" stroke="none" /><path d="M 116.82858285166822 87.43820079747576 l 21.87627567916874 -16.329680568054552 a48.29889933762327,48.29889933762327 0 0,0 0.4915847887090923,0.6705210993450994 l -22.154123080391457 15.950697025037956" fill="#b8ff1f" stroke="none" /><line stroke="#e1ed5e" stroke-width="0.3" x1="172.23445277983987" x2="176.4835382374775" y1="55.19839476539836" y2="52.563006222186495" /><path d="M 173.08426987136738 54.67131705675599 a86.0,86.0 0 0,1 12.851231095245387,41.99856678651699" fill="none" id="id87" stroke="none" /><text fill="#e1ed5e" style="font-size:6.75px; font-family:Arial;" text-anchor="middle"><textPath startOffset="22.20632615414155" xlink:href="#id87">March</textPath></text><path d="M 118.3937258080291 89.86733742301442 l 24.965061849454298 -13.752654061183991 a49.50245264663515,49.50245264663515 0 0,0 0.404722389916606,0.7498891218371 l -25.19809233858937 13.320883956014432" fill="#aaff21" stroke="none" /><path d="M 118.89224826269711 90.83032412892265 l 48.12340631879982 -23.357518471046802 a74.49239109302925,74.49239109302925 0 0,0 0.5499730885766443,1.1583835851666553 l -48.51833760121823 22.525692470239605" fill="#41ffcd" stroke="none" /><path d="M 119.196687751892 91.48605970444005 l 14.510606070836534 -6.4356119834952095 a36.873713810734564,36.873713810734564 0 0,0 0.252337868438324,0.5824305911090216 l -14.619234649117539 6.184882247799585" fill="#ffb710" stroke="none" /><path d="M 119.61058180528143 92.48833698450437 l 29.101329268941722 -11.147011391186672 a52.16317102245228,52.16317102245228 0 0,0 0.31396121268775967,0.8412599583088821 l -29.288895070131108 10.644428295848455" fill="#8cff24" stroke="none" /><path d="M 119.85752413597 93.16781622104841 l 31.240467238586284 -10.748601489936524 a54.03784537881744,54.03784537881744 0 0,0 0.29505359951799315,0.8821727074277979 l -31.42085813187605 10.209255679586411" fill="#77ff27" stroke="none" /><path d="M 120.08093135843002 93.85539295169968 l 7.948613831788891 -2.4322133123832326 a29.312407800621905,29.312407800621905 0 0,0 0.14348298396956516,0.4837532927332064 l -7.989302712870159 2.2950306329034964" fill="#ff4e07" stroke="none" /><path d="M 120.37134235888165 94.90015583598534 l 46.42969834527506 -11.623398300008276 a68.86251431416733,68.86251431416733 0 0,0 0.2779658335910096,1.1523478340506639 l -46.622896979126885 10.822465234298205" fill="#3aff8f" stroke="none" /><path d="M 120.53481517161879 95.60439243477599 l 37.92059257659851 -8.117143602921173 a59.77962559941525,59.77962559941525 0 0,0 0.20672564290321002,1.0080676519138032 l -38.05469751541672 7.4632002948439595" fill="#3bff2e" stroke="none" /><path d="M 120.91429891909075 98.10471618934814 l 8.032506782014705 -0.7279173029800813 a29.0654217994529,29.0654217994529 0 0,0 0.040865313411093174,0.49866033165851437 l -8.043846579245294 0.5895430541137978" fill="#ff4a06" stroke="none" /><path d="M 120.98425023603335 99.18683210126433 l 52.55981188199173 -2.0367633489534835 a73.59926073634495,73.59926073634495 0 0,0 0.0381605351779033,1.266362382452027 l -52.58708411162528 1.1317308190764575" fill="#40ffc3" stroke="none" /><line stroke="#e1ed5e" stroke-width="0.3" x1="184.98032266829074" x2="189.97916517819016" y1="98.17113171792111" y2="98.06355123074" /><path d="M 185.9800911702706 98.14961562048488 a86.0,86.0 0 0,1 -9.607161424134198,41.387399972396054" fill="none" id="id88" stroke="none" /><text fill="#e1ed5e" style="font-size:6.75px; font-family:Arial;" text-anchor="middle"><textPath startOffset="21.466115282336823" xlink:href="#id88">April</textPath></text><path d="M 120.99513854157772 99.54816195383933 l 12.155783408888308 -0.26160558141340146 a33.158598100275825,33.158598100275825 0 0,0 0.007369092443834186,0.5707443307997587 l -12.158485508449857 0.052324992553180065" fill="#ff840c" stroke="none" /><path d="M 120.99980553446 99.90962569577887 l 10.40776283964665 -0.044790620731611754 a31.407859219168717,31.407859219168717 0 0,0 -0.002326728177055645,0.5406496865544053 l -10.406991814180094 -0.13436854402647824" fill="#ff6c09" stroke="none" /><path d="M 120.9904718944345 100.63252640178507 l 54.9850394552243 1.6569179260731497 a76.00999855395668,76.00999855395668 0 0,0 -0.050665612463739185,1.3074543301010304 l -54.94837170990936 -2.6031495031881864" fill="#43ffdd" stroke="none" /><path d="M 120.89721153311464 102.0752229133903 l 46.309496156575655 4.5988206311352835 a67.53728167258215,67.53728167258215 0 0,0 -0.12484008749546802,1.1558641639537577 l -46.22347376757914 -5.395281116973832" fill="#38ff80" stroke="none" /><path d="M 120.8583938346157 102.4346265915055 l 11.957989311479755 1.395756499254136 a33.039171257967645,33.039171257967645 0 0,0 -0.07079584963540278,0.564312578251961 l -11.932191952597504 -1.6013868317934923" fill="#ff830c" stroke="none" /><path d="M 120.76222939487914 103.15116336523771 l 34.11775799254104 5.178183279135617 a55.508477110847956,55.508477110847956 0 0,0 -0.1515070726700182,0.9434346861409978 l -34.02356916550973 -5.764697194969819" fill="#67ff28" stroke="none" /><path d="M 120.5718875245553 104.21870165774334 l 39.567422596421416 8.114138826634605 a61.39084277186723,61.39084277186723 0 0,0 -0.22119986342142423,1.0333721206785635 l -39.421888694275545 -8.794024766729338" fill="#30ff35" stroke="none" /><path d="M 120.32669344350535 105.2749913415812 l 32.96961211759303 8.555962086945433 a55.061705923482236,55.061705923482236 0 0,0 -0.2459735501231061,0.9153590844147272 l -32.81745049112815 -9.122212104535707" fill="#6cff28" stroke="none" /><path d="M 120.23288151984713 105.62410040840565 l 48.08950104277683 13.367358583571097 a70.91278780077312,70.91278780077312 0 0,0 -0.3370294457833687,1.1732437148813568 l -47.85227896010736 -14.193159773957035" fill="#3cffa6" stroke="none" /><path d="M 120.02730092923936 106.31721596034902 l 14.44453063577261 4.556241492273755 a36.146082061830064,36.146082061830064 0 0,0 -0.1922760696051929,0.5917648940166695 l -14.36396231515117 -4.80420528626822" fill="#ffad10" stroke="none" /><path d="M 119.9155931802556 106.66101706037122 l 59.746779540766816 19.98305118111367 a84.0,84.0 0 0,0 -0.47043667622707686,1.3673091876427985 l -59.393952033596506 -21.00853307184577" fill="#4dd2ff" stroke="none" /><path d="M 119.67450827220406 107.3425965602758 l 43.971459850647385 16.410305425818873 a67.93386203548303,67.93386203548303 0 0,0 -0.4182969985949264,1.092041468437504 l -43.68246857245895 -17.164770461089525" fill="#38ff84" stroke="none" /><path d="M 119.54520255179757 107.68017299344265 l 2.821079368613532 1.1085266331604853 a24.03105923736951,24.03105923736951 0 0,0 -0.15459682283782938,0.38369663589032343 l -2.8015799315183125 -1.1569226368936223" fill="#ff0000" stroke="none" /><path d="M 118.97047184881838 109.00673069616215 l 7.084102264161511 3.3633639598347433 a28.841984571230263,28.841984571230263 0 0,0 -0.21679111130177872,0.446653900687772 l -7.025157896245018 -3.484806816487791" fill="#ff4706" stroke="none" /><path d="M 118.81262510543309 109.33194174019688 l 27.763647732190254 13.772067517431351 a51.991772764749044,51.991772764749044 0 0,0 -0.4045983173993008,0.7983108644811379 l -27.522470745004682 -14.247932593615184" fill="#8eff24" stroke="none" /><line stroke="#e1ed5e" stroke-width="0.3" x1="174.80103733775053" x2="179.2010983576182" y1="140.37084112569926" y2="142.7455964860345" /><path d="M 175.68104954172406 140.8457921977663 a86.0,86.0 0 0,1 -30.038265399797805,32.042727171017184" fill="none" id="id89" stroke="none" /><text fill="#e1ed5e" style="font-size:6.75px; font-family:Arial;" text-anchor="middle"><textPath startOffset="22.206326154141568" xlink:href="#id89">May</textPath></text><path d="M 118.48025628344425 109.97397251340804 l 29.050619273230865 15.678899344500039 a54.01160954593363,54.01160954593363 0 0,0 -0.4486142318240412,0.8143651395728128 l -28.776428631955316 -16.176635002470658" fill="#77ff26" stroke="none" /><path d="M 118.30583269289576 110.29060199501023 l 28.504599776026318 16.02382673561646 a53.6997741833869,53.6997741833869 0 0,0 -0.4598951044738151,0.8018658793238129 l -28.224552675400123 -16.51211246079859" fill="#7bff26" stroke="none" /><path d="M 116.93607887273984 112.41649034213513 l 47.781587453773604 35.030518197845836 a80.24708688882706,80.24708688882706 0 0,0 -0.826310877154716,1.1069784537423863 l -47.1715153099238 -35.84780953109753" fill="#48f6ff" stroke="none" /><path d="M 116.0416608686014 113.55231037782055 l 6.344365326286551 5.3598445171228954 a29.305353974462463,29.305353974462463 0 0,0 -0.3288583892267505,0.38253660197989653 l -6.25116442748902 -5.468258218264323" fill="#ff4e07" stroke="none" /><path d="M 115.32070863581623 114.36230785411682 l 26.35616283314948 24.707429235877346 a57.12622840448995,57.12622840448995 0 0,0 -0.6786961776832994,0.7116102289093719 l -25.926960104087218 -25.157446581369225" fill="#56ff2a" stroke="none" /><path d="M 114.55890576462653 115.13401014063108 l 6.211402614932083 6.456764792744432 a29.95942710409595,29.95942710409595 0 0,0 -0.37472704392508505,0.35432780931394653 l -6.09933973661619 -6.5627272388043" fill="#ff5708" stroke="none" /><path d="M 113.48314897796784 116.09983520530334 l 7.039841515512369 8.406069565529975 a31.964550793537363,31.964550793537363 0 0,0 -0.42486956924413216,0.34963873051491356 l -6.894101817723546 -8.526003414902068" fill="#ff740a" stroke="none" /><path d="M 113.20401910651253 116.32954008644616 l 28.563578281135815 35.32485774154144 a66.42822447204726,66.42822447204726 0 0,0 -0.895333867090613,0.711307373172294 l -27.95128692132785 -35.81129902871886" fill="#36ff73" stroke="none" /><path d="M 112.04921762599082 117.19931262002967 l 17.293879740201895 24.68565622246954 a51.14066853277337,51.14066853277337 0 0,0 -0.7253283827747476,0.49888747556977725 l -16.866394472804267 -24.97968448740441" fill="#97ff23" stroke="none" /><path d="M 111.7513745106137 117.40417183066458 l 27.148129467734062 40.20727189919988 a69.51438598161414,69.51438598161414 0 0,0 -0.997449680848395,0.6610552591976313 l -26.452005088145704 -40.66862517948883" fill="#3aff96" stroke="none" /><path d="M 111.1453310114006 117.79835938074945 l 4.306877918523619 6.877800302609809 a29.11500674107212,29.11500674107212 0 0,0 -0.42704893668386945,0.2623283363704934 l -4.187849781907441 -6.9509171058086805" fill="#ff4b07" stroke="none" /><line stroke="#e1ed5e" stroke-width="0.3" x1="143.8653032363475" x2="146.44561519142675" y1="172.8068346515853" y2="177.08958963109032" /><path d="M 144.38136562736335 173.6633856474863 a86.0,86.0 0 0,1 -40.68145358897372,12.25698825130547" fill="none" id="id90" stroke="none" /><text fill="#e1ed5e" style="font-size:6.75px; font-family:Arial;" text-anchor="middle"><textPath startOffset="21.466115282336833" xlink:href="#id90">June</textPath></text><path d="M 109.89434966115114 118.52300852407294 l 13.26822677189881 24.83917447957069 a49.160795984792195,49.160795984792195 0 0,0 -0.7498404853794222,0.39228110230056484 l -12.838695383992892 -25.063885000815972" fill="#aeff20" stroke="none" /><path d="M 109.57404056367764 118.69057910512821 l 19.90417575641192 38.85721697367547 a64.65844160619375,64.65844160619375 0 0,0 -0.9949582257316154,0.4988927093757803 l -19.232363622997543 -39.19407752396056" fill="#34ff5d" stroke="none" /><path d="M 106.2309692047433 120.05430185196036 l 5.39789669115674 17.373067664617814 a39.192327194941,39.192327194941 0 0,0 -0.6459735834331048,0.19462654168628837 l -5.098048133283389 -17.463409575409827" fill="#ffd513" stroke="none" /><path d="M 105.18746579009965 120.34920634021253 l 1.9759774176948282 7.75129395031633 a28.999190250234737,28.999190250234737 0 0,0 -0.4847652610691247,0.1191435068905859 l -1.842258871882493 -7.784158715520946" fill="#ff4906" stroke="none" /><path d="M 104.48393922423573 120.51570834832081 l 1.9098037364595015 8.738070366333911 a29.944340335586382,29.944340335586382 0 0,0 -0.5045030139331022,0.10572351176060604 l -1.7591092610970214 -8.769649858821058" fill="#ff5708" stroke="none" /><path d="M 104.13013068566511 120.58985236759428 l 1.6463562386251247 8.207544622114115 a29.37103802335494,29.37103802335494 0 0,0 -0.4965556996160426,0.09516608164394004 l -1.5048329244373781 -8.234667902106523" fill="#ff4f07" stroke="none" /><path d="M 101.98527174616119 120.90594882070398 l 3.8354901003363393 40.389714856415345 a61.57141913332976,61.57141913332976 0 0,0 -1.0559664983612314,0.0911132327539063 l -3.139679284233566 -40.44975234144791" fill="#30ff38" stroke="none" /><line stroke="#e1ed5e" stroke-width="0.3" x1="102.19456741930631" x2="102.32365962044197" y1="184.97166512339345" y2="189.96999836594603" /><path d="M 102.22038585953345 185.97133177190398 a86.0,86.0 0 0,1 -42.740103519485714,-10.115201625700543" fill="none" id="id91" stroke="none" /><text fill="#e1ed5e" style="font-size:6.75px; font-family:Arial;" text-anchor="middle"><textPath startOffset="22.20632615414155" xlink:href="#id91">July</textPath></text><path d="M 100.18074693466247 120.99922214144158 l 0.1484499201672905 17.246947265211933 a38.247586131044514,38.247586131044514 0 0,0 -0.65839370965948,0.0 l 0.1484499201672786 -17.246947265211933" fill="#ffc912" stroke="none" /><path d="M 99.81925306533755 120.99922214144158 l -0.08324573114989317 9.671508974732903 a30.671867229242437,30.671867229242437 0 0,0 -0.5279071049003954,-0.009088399558312348 l 0.24971252594295648 -9.668643097895432" fill="#ff6109" stroke="none" /><path d="M 99.45781275523022 120.99299961872073 l -0.26016358597152295 10.073298687475159 a31.076657756347306,31.076657756347306 0 0,0 -0.5346363802543157,-0.01841395793835836 l 0.43352031790048173 -10.067327931110707" fill="#ff6709" stroke="none" /><path d="M 99.09653310690486 120.98055641714683 l -0.8835334493537876 20.51765650991208 a41.536671103537316,41.536671103537316 0 0,0 -0.7140587555600774,-0.03690868139270814 l 1.2365802733273539 -20.49940802175717" fill="#fff316" stroke="none" /><path d="M 98.73552117531835 120.96189622390904 l -1.2673577353555388 21.00962136220796 a42.04781189132758,42.04781189132758 0 0,0 -0.7220955617035835,-0.0497999376764356 l 1.6288160578380522 -20.984693080015237" fill="#fffa17" stroke="none" /><path d="M 98.37488393609728 120.93702456842531 l -0.7440481589198965 9.585872005957864 a30.614704872090392,30.614704872090392 0 0,0 -0.5250504723975744,-0.0453035640556312 l 0.9089429490590126 -9.57164418962357" fill="#ff6008" stroke="none" /><path d="M 98.01472825383883 120.90594882070398 l -3.2376800561180823 34.09446272627475 a55.24784607444858,55.24784607444858 0 0,0 -0.9459678360058725,-0.0980534340311247 l 3.8240804887295488 -34.033679923787865" fill="#6aff28" stroke="none" /><path d="M 97.2962882734958 120.8252237178851 l -1.3659239351979062 10.52097058028063 a31.609268124987562,31.609268124987562 0 0,0 -0.5389702461460719,-0.07469636500777437 l 1.5468227725308086 -10.49589964978025" fill="#ff6f0a" stroke="none" /><path d="M 96.58105272829116 120.7198165907248 l -2.335204125785676 14.152017373464622 a35.34338781627029,35.34338781627029 0 0,0 -0.5994087582108049,-0.10421489587937179 l 2.57846185546853 -14.109723899064244" fill="#ffa20f" stroke="none" /><path d="M 95.86986931433489 120.58985236759428 l -9.803009828857256 48.87073569725132 a70.84423546705543,70.84423546705543 0 0,0 -1.1935854960357735,-0.2501274457087053 l 10.642786786322418 -48.694752270816075" fill="#3cffa5" stroke="none" /><path d="M 95.16358092515715 120.4354850818985 l -8.95119922426144 37.82180480678047 a59.86660374144647,59.86660374144647 0 0,0 -1.0007606950959336,-0.24596263046783753 l 9.600913204100584 -37.6621209179986" fill="#3aff2e" stroke="none" /><path d="M 94.46302465271185 120.25689768951611 l -13.260237503915034 48.51227567539185 a71.29189586668463,71.29189586668463 0 0,0 -1.1809632637500478,-0.33375201465896415 l 14.093331935769697 -48.27683486739436" fill="#3dffaa" stroke="none" /><path d="M 93.42475214034765 119.94407469862007 l -11.070834787541623 33.58011145613085 a56.357987333829,56.357987333829 0 0,0 -0.9187164216719108,-0.3116784911135388 l 11.64722094215076 -33.38456997811919" fill="#5eff2a" stroke="none" /><line stroke="#e1ed5e" stroke-width="0.3" x1="58.666819895761336" x2="56.23545636021788" y1="174.27360380694188" y2="178.64263932499728" /><path d="M 58.180547188652646 175.14741091055294 a86.0,86.0 0 0,1 -31.652253787137756,-30.449443065178592" fill="none" id="id92" stroke="none" /><text fill="#e1ed5e" style="font-size:6.75px; font-family:Arial;" text-anchor="middle"><textPath startOffset="22.20632615414155" xlink:href="#id92">August</textPath></text><line stroke="#e1ed5e" stroke-width="0.3" x1="26.63291911575756" x2="22.317208475507996" y1="142.92168965132927" y2="145.44649492493687" /><path d="M 25.769776987707644 143.4266507060508 a86.0,86.0 0 0,1 -11.730757126820373,-40.83630448921669" fill="none" id="id93" stroke="none" /><text fill="#e1ed5e" style="font-size:6.75px; font-family:Arial;" text-anchor="middle"><textPath startOffset="21.46611528233685" xlink:href="#id93">September</textPath></text><line stroke="#e1ed5e" stroke-width="0.3" x1="15.007084014347285" x2="10.007500721073583" y1="101.09737516637583" y2="101.16192664675087" /><path d="M 14.007167355692545 101.11028546245083 a86.0,86.0 0 0,1 10.666146001902534,-42.60595125391555" fill="none" id="id94" stroke="none" /><text fill="#e1ed5e" style="font-size:6.75px; font-family:Arial;" text-anchor="middle"><textPath startOffset="22.20632615414155" xlink:href="#id94">October</textPath></text><line stroke="#e1ed5e" stroke-width="0.3" x1="26.266209847984243" x2="21.928928074336255" y1="57.71137044288968" y2="55.22380399835378" /><path d="M 25.398753493254645 57.2138571539825 a86.0,86.0 0 0,1 29.58750427330803,-30.4925239686951" fill="none" id="id95" stroke="none" /><text fill="#e1ed5e" style="font-size:6.75px; font-family:Arial;" text-anchor="middle"><textPath startOffset="21.46611528233685" xlink:href="#id95">November</textPath></text><line stroke="#e1ed5e" stroke-width="0.3" x1="56.76296977257108" x2="54.21961505331056" y1="26.818313649435495" y2="22.513508569990535" /><path d="M 56.25429882871898 25.957352633546506 a86.0,86.0 0 0,1 42.26535254187918,-11.944610805530505" fill="none" id="id96" stroke="none" /><text fill="#e1ed5e" style="font-size:6.75px; font-family:Arial;" text-anchor="middle"><textPath startOffset="22.20632615414155" xlink:href="#id96">December</textPath></text></svg>