<?xml version="1.0" encoding="utf-8" ?>
<svg baseProfile="full" height="200mm" version="1.1" viewBox="0,0,200,200" width="200mm" xmlns="http://www.w3.org/2000/svg" xmlns:ev="http://www.w3.org/2001/xml-events" xmlns:xlink="http://www.w3.org/1999/xlink"><defs /><rect fill="#1a1a1a" height="200" width="200" x="0" y="0" /><text alignment-baseline="middle" fill="#e1ed5e" style="dominant-baseline: central; font-size:9.0px; font-family:Arial;" text-anchor="middle" x="100.0" y="100.0">2018</text><line stroke="#e1ed5e" stroke-width="0.3" x1="100.0" x2="100.0" y1="15.0" y2="10.0" /><path d="M 100.0 14.0 a86.0,86.0 0 0,1 42.46469731375804,11.215312516191453" fill="none" id="id25" stroke="none" /><text fill="#e1ed5e" style="font-size:6.75px; font-family:Arial;" text-anchor="middle"><textPath startOffset="22.20632615414155" xlink:href="#id25">January</textPath></text><path d="M 104.307194497241 79.44645832069477 l 7.6063825310082755 -36.296967894057474 a58.08540054401822,58.08540054401822 0 0,0 0.9768229439322236,0.21349566093776118 l -8.230048199094027 36.160658735023844" fill="#88ff25" stroke="none" /><line stroke="#e1ed5e" stroke-width="0.3" x1="143.23703022742887" x2="145.7803849466894" y1="26.81831364943548" y2="22.513508569990506" /><path d="M 143.74570117128098 25.957352633546492 a86.0,86.0 0 0,1 28.547481713284135,27.462654790039103" fill="none" id="id26" stroke="none" /><text fill="#e1ed5e" style="font-size:6.75px; font-family:Arial;" text-anchor="middle"><textPath startOffset="19.985693538727396" xlink:href="#id26">February</textPath></text><line stroke="#e1ed5e" stroke-width="0.3" x1="172.23445277983987" x2="176.4835382374775" y1="55.19839476539836" y2="52.563006222186495" /><path d="M 173.08426987136738 54.67131705675599 a86.0,86.0 0 0,1 12.851231095245387,41.99856678651699" fill="none" id="id27" stroke="none" /><text fill="#e1ed5e" style="font-size:6.75px; font-family:Arial;" text-anchor="middle"><textPath startOffset="22.20632615414155" xlink:href="#id27">March</textPath></text><path d="M 120.98425023603335 99.18683210126433 l 37.19750942894811 -1.4414534825074445 a58.225428081607284,58.225428081607284 0 0,0 0.030189345304924012,1.0018373973734989 l -37.21681046870868 0.8009459377089465" fill="#86ff25" stroke="none" /><line stroke="#e1ed5e" stroke-width="0.3" x1="184.98032266829074" x2="189.97916517819016" y1="98.17113171792111" y2="98.06355123074" /><path d="M 185.9800911702706 98.14961562048488 a86.0,86.0 0 0,1 -9.607161424134198,41.387399972396054" fill="none" id="id28" stroke="none" /><text fill="#e1ed5e" style="font-size:6.75px; font-family:Arial;" text-anchor="middle"><textPath startOffset="21.466115282336823" xlink:href="#id28">April</textPath></text><path d="M 120.99513854157772 99.54816195383933 l 62.98541562473312 -1.3555141384820022 a84.0,84.0 0 0,0 0.018667971529137795,1.4458549677581494 l -62.99941660337998 0.27112291266339017" fill="#4dd2ff" stroke="none" /><path d="M 120.92983693683757 101.71520430193887 l 50.31908246890451 4.123658821649788 a71.48776705886074,71.48776705886074 0 0,0 -0.11106272674027268,1.2255679348711552 l -50.240645145887164 -4.989208145069514" fill="#3aff8e" stroke="none" /><path d="M 120.49622156327973 104.57218783832717 l 36.08372476764862 8.04936495416124 a57.970629819800166,57.970629819800166 0 0,0 -0.2256422130533278,0.9720607482283613 l -35.93982198866473 -8.669294359738165" fill="#89ff24" stroke="none" /><path d="M 120.23288151984713 105.62410040840565 l 30.803504130732637 8.562398785958381 a52.97140190391789,52.97140190391789 0 0,0 -0.25175885449889035,0.8764056001694582 l -30.65155263934765 -9.091361861632421" fill="#cfff1d" stroke="none" /><line stroke="#e1ed5e" stroke-width="0.3" x1="174.80103733775053" x2="179.2010983576182" y1="140.37084112569926" y2="142.7455964860345" /><path d="M 175.68104954172406 140.8457921977663 a86.0,86.0 0 0,1 -30.038265399797805,32.042727171017184" fill="none" id="id29" stroke="none" /><text fill="#e1ed5e" style="font-size:6.75px; font-family:Arial;" text-anchor="middle"><textPath startOffset="22.206326154141568" xlink:href="#id29">May</textPath></text><path d="M 116.27256486870786 113.27417163493432 l 23.779738267465422 19.39806845097658 a51.68812492965206,51.68812492965206 0 0,0 -0.5683330859170915,0.6845938138133298 l -23.442309181654785 -19.80452352190368" fill="#e2ff1b" stroke="none" /><path d="M 114.29624159901734 115.38237550388516 l 14.477539449811752 15.57744716657717 a42.26631159247787,42.26631159247787 0 0,0 -0.5371856003050597,0.4907063093310222 l -14.207254300039828 -15.824346242494773" fill="#ff870c" stroke="none" /><line stroke="#e1ed5e" stroke-width="0.3" x1="143.8653032363475" x2="146.44561519142675" y1="172.8068346515853" y2="177.08958963109032" /><path d="M 144.38136562736335 173.6633856474863 a86.0,86.0 0 0,1 -40.68145358897372,12.25698825130547" fill="none" id="id30" stroke="none" /><text fill="#e1ed5e" style="font-size:6.75px; font-family:Arial;" text-anchor="middle"><textPath startOffset="21.466115282336833" xlink:href="#id30">June</textPath></text><path d="M 110.5260780823613 118.17145234162733 l 10.67988352972156 18.436970831488537 a42.30684879679717,42.30684879679717 0 0,0 -0.6332957184262679,0.3596018369254108 l -10.360939044374094 -18.618075834208575" fill="#ff880c" stroke="none" /><path d="M 103.06178313531737 120.77559828337769 l 3.3327477600138544 22.61421713484533 a43.85847817011906,43.85847817011906 0 0,0 -0.7478317650845784,0.10364266838216014 l -2.942987403742445 -22.668234368720093" fill="#ffa10e" stroke="none" /><line stroke="#e1ed5e" stroke-width="0.3" x1="102.19456741930631" x2="102.32365962044197" y1="184.97166512339345" y2="189.96999836594603" /><path d="M 102.22038585953345 185.97133177190398 a86.0,86.0 0 0,1 -42.740103519485714,-10.115201625700543" fill="none" id="id31" stroke="none" /><text fill="#e1ed5e" style="font-size:6.75px; font-family:Arial;" text-anchor="middle"><textPath startOffset="22.20632615414155" xlink:href="#id31">July</textPath></text><path d="M 98.01472825383883 120.90594882070398 l -2.111670708411955 22.236995938517712 a43.337035200545714,43.337035200545714 0 0,0 -0.7420278675177242,-0.07691422243710792 l 2.494131172535273 -22.197352347624843" fill="#ff990e" stroke="none" /><path d="M 96.93821686468263 120.77559828337769 l -7.351543981776661 49.883586713316845 a71.42239008913597,71.42239008913597 0 0,0 -1.2147388702477053,-0.189717229166062 l 8.209118715632885 -49.74965117680368" fill="#39ff8d" stroke="none" /><path d="M 93.08242187328487 119.8279376855182 l -12.279070117042364 35.19564689505543 a58.27612001403402,58.27612001403402 0 0,0 -0.9442963677700132,-0.33859108102680097 l 12.883086045442104 -34.97906827298867" fill="#85ff25" stroke="none" /><line stroke="#e1ed5e" stroke-width="0.3" x1="58.666819895761336" x2="56.23545636021788" y1="174.27360380694188" y2="178.64263932499728" /><path d="M 58.180547188652646 175.14741091055294 a86.0,86.0 0 0,1 -31.652253787137756,-30.449443065178592" fill="none" id="id32" stroke="none" /><text fill="#e1ed5e" style="font-size:6.75px; font-family:Arial;" text-anchor="middle"><textPath startOffset="22.20632615414155" xlink:href="#id32">August</textPath></text><path d="M 88.8546689885994 117.79835938074946 l -27.815188216369357 44.41902314177353 a73.40929604928371,73.40929604928371 0 0,0 -1.0651975431019824,-0.6798594700851142 l 28.575667561518262 -43.93364924286461" fill="#3cffa9" stroke="none" /><line stroke="#e1ed5e" stroke-width="0.3" x1="26.63291911575756" x2="22.317208475507996" y1="142.92168965132927" y2="145.44649492493687" /><path d="M 25.769776987707644 143.4266507060508 a86.0,86.0 0 0,1 -11.730757126820373,-40.83630448921669" fill="none" id="id33" stroke="none" /><text fill="#e1ed5e" style="font-size:6.75px; font-family:Arial;" text-anchor="middle"><textPath startOffset="21.46611528233685" xlink:href="#id33">September</textPath></text><path d="M 81.69416730710424 110.29060199501025 l -41.49401131776227 23.325808927187154 a68.60090689625805,68.60090689625805 0 0,0 -0.5697912617013119,-1.034336647047691 l 41.8893789889151 -22.60810176174164" fill="#35ff65" stroke="none" /><path d="M 80.58989483394504 108.01547362559985 l -34.251459516116114 14.144264961008936 a58.05701971653099,58.05701971653099 0 0,0 -0.37349293274812523,-0.9269788291483597 l 34.48985506312163 -13.552586764017772" fill="#88ff25" stroke="none" /><path d="M 79.76711848015287 105.62410040840567 l -31.5041491736114 8.75715592264882 a53.69861151496716,53.69861151496716 0 0,0 -0.23988428780928153,-0.8926986740837831 l 31.65022153776245 -8.213566315389498" fill="#c5ff1e" stroke="none" /><line stroke="#e1ed5e" stroke-width="0.3" x1="15.007084014347285" x2="10.007500721073583" y1="101.09737516637583" y2="101.16192664675087" /><path d="M 14.007167355692545 101.11028546245083 a86.0,86.0 0 0,1 10.666146001902534,-42.60595125391555" fill="none" id="id34" stroke="none" /><text fill="#e1ed5e" style="font-size:6.75px; font-family:Arial;" text-anchor="middle"><textPath startOffset="22.20632615414155" xlink:href="#id34">October</textPath></text><path d="M 79.00175016825051 100.2711162175752 l -23.777757466664756 0.3070034749770201 a44.77973930212818,44.77973930212818 0 0,0 -0.0033173315146509167,-0.7708310155347476 l 23.77951909546891 0.10233701876140293" fill="#ffb010" stroke="none" /><path d="M 79.00019446554 99.90962569577889 l -37.2194100121783 -0.16017663962894915 a58.21975467692555,58.21975467692555 0 0,0 0.01293862765169325,-1.002110970491564 l 37.21113837740889 0.8008238681809852" fill="#86ff25" stroke="none" /><path d="M 79.01574976396665 99.18683210126434 l -49.14169879503947 -1.9043068730110781 a70.17858217892196,70.17858217892196 0 0,0 0.05716677716048752,-1.2067003132263407 l 49.101638409645474 2.7499182928604275" fill="#37ff7c" stroke="none" /><path d="M 79.05617556472873 98.46500227214037 l -13.546006027450273 -0.9928028444839162 a34.58233914993049,34.58233914993049 0 0,0 0.04862197210147201,-0.5933112145771692 l 13.526909571529306 1.2258279762688635" fill="#ff0000" stroke="none" /><line stroke="#e1ed5e" stroke-width="0.3" x1="26.266209847984243" x2="21.928928074336255" y1="57.71137044288968" y2="55.22380399835378" /><path d="M 25.398753493254645 57.2138571539825 a86.0,86.0 0 0,1 29.58750427330803,-30.4925239686951" fill="none" id="id35" stroke="none" /><text fill="#e1ed5e" style="font-size:6.75px; font-family:Arial;" text-anchor="middle"><textPath startOffset="21.46611528233685" xlink:href="#id35">November</textPath></text><line stroke="#e1ed5e" stroke-width="0.3" x1="56.76296977257108" x2="54.21961505331056" y1="26.818313649435495" y2="22.513508569990535" /><path d="M 56.25429882871898 25.957352633546506 a86.0,86.0 0 0,1 42.26535254187918,-11.944610805530505" fill="none" id="id36" stroke="none" /><text fill="#e1ed5e" style="font-size:6.75px; font-family:Arial;" text-anchor="middle"><textPath startOffset="22.20632615414155" xlink:href="#id36">December</textPath></text></svg>