<?xml version="1.0" encoding="utf-8" ?>
<svg baseProfile="full" height="200mm" version="1.1" viewBox="0,0,200,200" width="200mm" xmlns="http://www.w3.org/2000/svg" xmlns:ev="http://www.w3.org/2001/xml-events" xmlns:xlink="http://www.w3.org/1999/xlink"><defs /><rect fill="#1a1a1a" height="200" width="200" x="0" y="0" /><text alignment-baseline="middle" fill="#e1ed5e" style="dominant-baseline: central; font-size:9.0px; font-family:Arial;" text-anchor="middle" x="100.0" y="100.0">2021</text><line stroke="#e1ed5e" stroke-width="0.3" x1="100.0" x2="100.0" y1="15.0" y2="10.0" /><path d="M 100.0 14.0 a86.0,86.0 0 0,1 42.46469731375804,11.215312516191453" fill="none" id="id61" stroke="none" /><text fill="#e1ed5e" style="font-size:6.75px; font-family:Arial;" text-anchor="middle"><textPath startOffset="22.20632615414155" xlink:href="#id61">January</textPath></text><line stroke="#e1ed5e" stroke-width="0.3" x1="143.23703022742887" x2="145.7803849466894" y1="26.81831364943548" y2="22.513508569990506" /><path d="M 143.74570117128098 25.957352633546492 a86.0,86.0 0 0,1 28.547481713284135,27.462654790039103" fill="none" id="id62" stroke="none" /><text fill="#e1ed5e" style="font-size:6.75px; font-family:Arial;" text-anchor="middle"><textPath startOffset="19.985693538727396" xlink:href="#id62">February</textPath></text><line stroke="#e1ed5e" stroke-width="0.3" x1="172.23445277983987" x2="176.4835382374775" y1="55.19839476539836" y2="52.563006222186495" /><path d="M 173.08426987136738 54.67131705675599 a86.0,86.0 0 0,1 12.851231095245387,41.99856678651699" fill="none" id="id63" stroke="none" /><text fill="#e1ed5e" style="font-size:6.75px; font-family:Arial;" text-anchor="middle"><textPath startOffset="22.20632615414155" xlink:href="#id63">March</textPath></text><line stroke="#e1ed5e" stroke-width="0.3" x1="184.98032266829074" x2="189.97916517819016" y1="98.17113171792111" y2="98.06355123074" /><path d="M 185.9800911702706 98.14961562048488 a86.0,86.0 0 0,1 -9.607161424134198,41.387399972396054" fill="none" id="id64" stroke="none" /><text fill="#e1ed5e" style="font-size:6.75px; font-family:Arial;" text-anchor="middle"><textPath startOffset="21.466115282336823" xlink:href="#id64">April</textPath></text><line stroke="#e1ed5e" stroke-width="0.3" x1="174.80103733775053" x2="179.2010983576182" y1="140.37084112569926" y2="142.7455964860345" /><path d="M 175.68104954172406 140.8457921977663 a86.0,86.0 0 0,1 -30.038265399797805,32.042727171017184" fill="none" id="id65" stroke="none" /><text fill="#e1ed5e" style="font-size:6.75px; font-family:Arial;" text-anchor="middle"><textPath startOffset="22.206326154141568" xlink:href="#id65">May</textPath></text><line stroke="#e1ed5e" stroke-width="0.3" x1="143.8653032363475" x2="146.44561519142675" y1="172.8068346515853" y2="177.08958963109032" /><path d="M 144.38136562736335 173.6633856474863 a86.0,86.0 0 0,1 -40.68145358897372,12.25698825130547" fill="none" id="id66" stroke="none" /><text fill="#e1ed5e" style="font-size:6.75px; font-family:Arial;" text-anchor="middle"><textPath startOffset="21.466115282336833" xlink:href="#id66">June</textPath></text><path d="M 110.8373102113329 117.98757091392108 l 22.481184951217077 37.3138630022898 a64.56292057431963,64.56292057431963 0 0,0 -0.9568597725224272,0.565329619623388 l -21.83555730766627 -37.69531119420694" fill="#30ff33" stroke="none" /><path d="M 109.57404056367764 118.69057910512821 l 12.888608921785265 25.161326924141893 a49.27027789962933,49.27027789962933 0 0,0 -0.7581665605071268,0.38016045271788745 l -12.453588453595376 -25.37945521776908" fill="#f5ff19" stroke="none" /><path d="M 109.2508944713604 118.85261126421891 l 15.690834330931384 31.97671327546868 a56.61899035489734,56.61899035489734 0 0,0 -0.8786386527275263,0.42179994809220694 l -15.138083010203625 -32.24206750006044" fill="#8fff24" stroke="none" /><path d="M 108.2653958097858 119.30500536409082 l 15.085936844388872 35.235347272595995 a59.32903844206541,59.32903844206541 0 0,0 -0.9422822667143348,0.39387406390794794 l -14.477183118177074 -35.48980637952392" fill="#6cff28" stroke="none" /><path d="M 106.57524785965236 119.94407469862006 l 15.25199584203632 46.262430081639145 a69.71176258588929,69.71176258588929 0 0,0 -1.1428700883052225,0.36591091162747374 l -14.453404408640157 -46.51811383992632" fill="#37ff7c" stroke="none" /><path d="M 105.88484417918355 120.15858648285463 l 17.654532537550654 60.47575944856389 a84.0,84.0 0 0,0 -1.3914753275815817,0.39324482664592386 l -16.610926041864467 -60.77069306854833" fill="#4dd2ff" stroke="none" /><path d="M 105.18746579009965 120.34920634021253 l 10.160456895749945 39.857079014776296 a62.13175940706298,62.13175940706298 0 0,0 -1.0386261929987899,0.2552690485893727 l -9.472877418007945 -40.0260693216797" fill="#49ff2c" stroke="none" /><path d="M 103.06178313531737 120.77559828337769 l 6.782628592457857 46.02323571412878 a67.52034260644999,67.52034260644999 0 0,0 -1.151290676220923,0.15955839713968667 l -5.989409325050103 -46.13316867676107" fill="#34ff5d" stroke="none" /><path d="M 101.98527174616119 120.90594882070398 l 4.460728321770548 46.97380002426533 a68.18512462503745,68.18512462503745 0 0,0 -1.1693933371051595,0.10090017767597899 l -3.651490666923846 -47.04362445421997" fill="#35ff67" stroke="none" /><line stroke="#e1ed5e" stroke-width="0.3" x1="102.19456741930631" x2="102.32365962044197" y1="184.97166512339345" y2="189.96999836594603" /><path d="M 102.22038585953345 185.97133177190398 a86.0,86.0 0 0,1 -42.740103519485714,-10.115201625700543" fill="none" id="id67" stroke="none" /><text fill="#e1ed5e" style="font-size:6.75px; font-family:Arial;" text-anchor="middle"><textPath startOffset="22.20632615414155" xlink:href="#id67">July</textPath></text><path d="M 100.54218724476979 120.99299961872073 l 1.2252608841098627 47.44099297996755 a68.45681277919388,68.45681277919388 0 0,0 -1.1782405542795908,0.020284479662611776 l -0.40846063993760384 -47.45505493690932" fill="#36ff6b" stroke="none" /><path d="M 100.18074693466247 120.99922214144158 l 0.39636876403428545 46.050217899563634 a67.05192370351529,67.05192370351529 0 0,0 -1.15423139739345,0.0 l 0.39636876403425364 -46.050217899563634" fill="#33ff57" stroke="none" /><path d="M 98.73552117531835 120.96189622390904 l -3.04380960987594 50.45875021562352 a71.5504723050523,71.5504723050523 0 0,0 -1.2287507046217945,-0.08474184270801621 l 3.9119230752766643 -50.39888002839921" fill="#3aff95" stroke="none" /><path d="M 96.58105272829116 120.7198165907248 l -7.3859813155706195 44.761198708002745 a66.36648134659845,66.36648134659845 0 0,0 -1.1255471710177185,-0.19569080302573827 l 8.155377458060387 -44.627429326456" fill="#32ff4d" stroke="none" /><path d="M 95.16358092515715 120.4354850818985 l -9.809076143529488 41.44662116667725 a63.59155292923255,63.59155292923255 0 0,0 -1.063028846375493,-0.2612666270757594 l 10.52105827464819 -41.27163328128746" fill="#38ff2e" stroke="none" /><path d="M 91.7346041902142 119.30500536409082 l -17.105032468879237 39.95123175755318 a64.45898128933925,64.45898128933925 0 0,0 -1.0162398113106434,-0.4454896687434666 l 17.790192954847626 -39.650877535515264" fill="#30ff31" stroke="none" /><line stroke="#e1ed5e" stroke-width="0.3" x1="58.666819895761336" x2="56.23545636021788" y1="174.27360380694188" y2="178.64263932499728" /><path d="M 58.180547188652646 175.14741091055294 a86.0,86.0 0 0,1 -31.652253787137756,-30.449443065178592" fill="none" id="id68" stroke="none" /><text fill="#e1ed5e" style="font-size:6.75px; font-family:Arial;" text-anchor="middle"><textPath startOffset="22.20632615414155" xlink:href="#id68">August</textPath></text><path d="M 87.65650970185807 116.9893568818739 l -25.646982812929078 35.300043458350515 a64.633253323218,64.633253323218 0 0,0 -0.8944473726891156,-0.6616907830987682 l 26.250815156036758 -34.853342726511976" fill="#30ff34" stroke="none" /><path d="M 87.36589467227662 116.77436683061367 l -24.201144337599693 32.1319842053809 a61.2263569842483,61.2263569842483 0 0,0 -0.8363848989420475,-0.6413042752270407 l 24.750657965035227 -31.7106405883265" fill="#55ff2b" stroke="none" /><path d="M 87.07902340077011 116.55440617244103 l -27.426852731923343 35.139391877162325 a65.57588038699171,65.57588038699171 0 0,0 -0.8838457905714646,-0.7021805503947879 l 28.027656015212166 -34.6620774127624" fill="#31ff42" stroke="none" /><path d="M 82.6465618267979 111.8261652097733 l -11.135321434391624 7.5885913576713255 a34.47524034074886,34.47524034074886 0 0,0 -0.3299722023194874,-0.4932636712513034 l 11.264296742121843 -7.395790772214202" fill="#ff1c02" stroke="none" /><path d="M 82.44556493220864 111.52570212397912 l -11.154533887428174 7.323723857922098 a34.34393335538217,34.34393335538217 0 0,0 -0.32020833921365194,-0.4969704533541876 l 11.278947090018873 -7.130631804646462" fill="#ff1902" stroke="none" /><path d="M 82.05923443525364 110.91462005526583 l -11.084806165969491 6.7436613700344825 a33.974971923314925,33.974971923314925 0 0,0 -0.299657835610169,-0.5022437687691452 l 11.199244877277891 -6.551855507379226" fill="#ff1302" stroke="none" /><line stroke="#e1ed5e" stroke-width="0.3" x1="26.63291911575756" x2="22.317208475507996" y1="142.92168965132927" y2="145.44649492493687" /><path d="M 25.769776987707644 143.4266507060508 a86.0,86.0 0 0,1 -11.730757126820373,-40.83630448921669" fill="none" id="id69" stroke="none" /><text fill="#e1ed5e" style="font-size:6.75px; font-family:Arial;" text-anchor="middle"><textPath startOffset="21.46611528233685" xlink:href="#id69">September</textPath></text><path d="M 81.87401531095188 110.60418214915194 l -49.29226768150677 28.83728492583773 a78.10793863447765,78.10793863447765 0 0,0 -0.6689312784792105,-1.1663380684137767 l 49.78135095613836 -27.984527011565646" fill="#44ffe8" stroke="none" /><path d="M 81.69416730710424 110.29060199501025 l -10.380117153811778 5.835170466345956 a32.90781451393049,32.90781451393049 0 0,0 -0.2733285316487263,-0.49617067858126 l 10.47902209491202 -5.655629269366875" fill="#ff0000" stroke="none" /><path d="M 81.35079622478065 109.6543875284942 l -10.89962329234608 5.642556564196968 a33.273558265442645,33.273558265442645 0 0,0 -0.2589337691753713,-0.5109008916360617 l 10.995135731307718 -5.4541014608582215" fill="#ff0601" stroke="none" /><path d="M 81.02952815118164 109.00673069616217 l -42.34837251322428 20.106004198895302 a67.87895113336907,67.87895113336907 0 0,0 -0.4920428259422756,-1.0598164728949007 l 42.68818995600638 -19.374067658721575" fill="#35ff63" stroke="none" /><path d="M 80.58989483394504 108.01547362559985 l -40.152898776723646 16.581285798443858 a64.44184985591073,64.44184985591073 0 0,0 -0.4145678784738796,-1.0289234759078996 l 40.43236926945492 -15.887662954693154" fill="#30ff31" stroke="none" /><path d="M 79.76711848015287 105.62410040840567 l -40.58101353627663 11.280236805568661 a63.11962015523375,63.11962015523375 0 0,0 -0.28197014225424294,-1.0493157947956238 l 40.769171754872644 -10.580030077597499" fill="#3eff2e" stroke="none" /><line stroke="#e1ed5e" stroke-width="0.3" x1="15.007084014347285" x2="10.007500721073583" y1="101.09737516637583" y2="101.16192664675087" /><path d="M 14.007167355692545 101.11028546245083 a86.0,86.0 0 0,1 10.666146001902534,-42.60595125391555" fill="none" id="id70" stroke="none" /><text fill="#e1ed5e" style="font-size:6.75px; font-family:Arial;" text-anchor="middle"><textPath startOffset="22.20632615414155" xlink:href="#id70">October</textPath></text><path d="M 79.00019446554 99.90962569577889 l -43.92548830984887 -0.18903677165302019 a64.92589507522536,64.92589507522536 0 0,0 0.014428985247239222,-1.1175408086982919 l 43.915726317483916 0.9451138384117841" fill="#30ff38" stroke="none" /><path d="M 79.54389044137918 95.25157060432595 l -12.495641877347095 -2.9005844458437187 a33.827878080741996,33.827878080741996 0 0,0 0.13654735704871726,-0.5660769494856246 l 12.443861720037564 3.11524662698874" fill="#ff1001" stroke="none" /><path d="M 80.52162464483688 92.15188598940014 l -41.82098462787002 -16.850268536799078 a66.08798404238962,66.08798404238962 0 0,0 0.4342242169171748,-1.0515083836208639 l 41.524738724066644 17.567651490873253" fill="#32ff49" stroke="none" /><path d="M 80.803312248108 91.48605970444005 l -13.014050331213653 -5.7718731978877305 a35.23657354267019,35.23657354267019 0 0,0 0.25067916406787577,-0.5523383092411793 l 12.912768850182426 5.995033515970983" fill="#ff2904" stroke="none" /><path d="M 81.10775173730289 90.83032412892265 l -12.363036200933388 -6.000611106132598 a34.74234324096991,34.74234324096991 0 0,0 0.26576236039035683,-0.5357607015079037 l 12.257913827589618 6.212531396139465" fill="#ff2003" stroke="none" /><line stroke="#e1ed5e" stroke-width="0.3" x1="26.266209847984243" x2="21.928928074336255" y1="57.71137044288968" y2="55.22380399835378" /><path d="M 25.398753493254645 57.2138571539825 a86.0,86.0 0 0,1 29.58750427330803,-30.4925239686951" fill="none" id="id71" stroke="none" /><text fill="#e1ed5e" style="font-size:6.75px; font-family:Arial;" text-anchor="middle"><textPath startOffset="21.46611528233685" xlink:href="#id71">November</textPath></text><line stroke="#e1ed5e" stroke-width="0.3" x1="56.76296977257108" x2="54.21961505331056" y1="26.818313649435495" y2="22.513508569990535" /><path d="M 56.25429882871898 25.957352633546506 a86.0,86.0 0 0,1 42.26535254187918,-11.944610805530505" fill="none" id="id72" stroke="none" /><text fill="#e1ed5e" style="font-size:6.75px; font-family:Arial;" text-anchor="middle"><textPath startOffset="22.20632615414155" xlink:href="#id72">December</textPath></text></svg>