<?xml version="1.0" encoding="utf-8" ?>
<svg baseProfile="full" height="200mm" version="1.1" viewBox="0,0,200,200" width="200mm" xmlns="http://www.w3.org/2000/svg" xmlns:ev="http://www.w3.org/2001/xml-events" xmlns:xlink="http://www.w3.org/1999/xlink"><defs /><rect fill="#1a1a1a" height="200" width="200" x="0" y="0" /><text alignment-baseline="middle" fill="#e1ed5e" style="dominant-baseline: central; font-size:9.0px; font-family:Arial;" text-anchor="middle" x="100.0" y="100.0">2026</text><line stroke="#e1ed5e" stroke-width="0.3" x1="100.0" x2="100.0" y1="15.0" y2="10.0" /><path d="M 100.0 14.0 a86.0,86.0 0 0,1 42.46469731375804,11.215312516191453" fill="none" id="id121" stroke="none" /><text fill="#e1ed5e" style="font-size:6.75px; font-family:Arial;" text-anchor="middle"><textPath startOffset="22.20632615414155" xlink:href="#id121">January</textPath></text><path d="M 100.36148047927253 79.00311137660856 l 0.22434101058720662 -13.031030672633728 a34.03296164653884,34.03296164653884 0 0,0 0.5856478983092263,0.015125557383726153 l -0.4486155440913007 13.025238323107642" fill="#ffa70f" stroke="none" /><path d="M 101.08401301168833 79.027996857942 l 1.0380277272430172 -20.082342667989078 a41.109151861703666,41.109151861703666 0 0,0 0.7063686729389717,0.04261008736085117 l -1.3835584490216006 20.061499311247925" fill="#feff18" stroke="none" /><path d="M 101.80526077348638 79.07773832637324 l 0.9187930377259996 -10.648449598827373 a31.68801475976435,31.68801475976435 0 0,0 0.5430342992586982,0.05156764999094964 l -1.101952464074942 10.631056404321244" fill="#ff890c" stroke="none" /><path d="M 102.52436894288641 79.15227682838746 l 4.118673491482119 -34.014427655926816 a55.26287728854243,55.26287728854243 0 0,0 0.9433775032486056,0.12247747503730053 l -4.7035657232385715 33.938491857725374" fill="#5fff29" stroke="none" /><path d="M 102.88285421437855 79.19881850522331 l 3.3264796491244133 -24.002152649621188 a45.23156616217277,45.23156616217277 0 0,0 0.7702957677803124,0.1135215727040275 l -3.7391443973333818 23.941336592756194" fill="#cdff1d" stroke="none" /><path d="M 103.2404852339499 79.25152402106235 l 1.8656372609687941 -11.945473316488028 a33.09028267429851,33.09028267429851 0 0,0 0.5620160662157654,0.09273746646507894 l -2.0709825333234346 11.911589587083325" fill="#ff9b0e" stroke="none" /><path d="M 104.307194497241 79.44645832069477 l 2.5279768973791557 -12.063276584766653 a33.325311726453904,33.325311726453904 0 0,0 0.5604322050499501,0.12248877319188771 l -2.7352518265826333 12.017974313478895" fill="#ff9e0e" stroke="none" /><path d="M 107.4271985657038 80.35727306442388 l 1.9988883281330416 -5.286463968464935 a26.6517480338586,26.6517480338586 0 0,0 0.4277184652189225,0.16594811949989455 l -2.089589958351631 5.251273145074494" fill="#ff4406" stroke="none" /><path d="M 107.76421540070413 80.48803036053334 l 4.241144814841754 -10.65826804035716 a32.47109353813131,32.47109353813131 0 0,0 0.5175523228246109,0.211122587445074 l -4.423981007254753 10.583684566728508" fill="#ff930d" stroke="none" /><path d="M 108.76106565485865 80.91482961587045 l 10.706093103729406 -23.3222326007471 a46.66216988154106,46.66216988154106 0 0,0 0.7270894615847567,0.3413782514193187 l -11.105960776613761 23.134489366687777" fill="#bcff1f" stroke="none" /><path d="M 109.41281617654863 81.2277094730956 l 6.152093776769262 -12.26932403227056 a34.725325863053854,34.725325863053854 0 0,0 0.5320242576905011,0.27252348872335325 l -6.362378522048519 12.161608018234707" fill="#ffb010" stroke="none" /><path d="M 109.73455568895987 81.39251694778311 l 6.5032498309125195 -12.430881786446164 a35.02922237160217,35.02922237160217 0 0,0 0.5318686223546024,0.28410579828497745 l -6.716263499795433 12.317097261659434" fill="#ffb410" stroke="none" /><line stroke="#e1ed5e" stroke-width="0.3" x1="143.23703022742887" x2="145.7803849466894" y1="26.81831364943548" y2="22.513508569990506" /><path d="M 143.74570117128098 25.957352633546492 a86.0,86.0 0 0,1 28.547481713284135,27.462654790039103" fill="none" id="id122" stroke="none" /><text fill="#e1ed5e" style="font-size:6.75px; font-family:Arial;" text-anchor="middle"><textPath startOffset="19.985693538727396" xlink:href="#id122">February</textPath></text><path d="M 110.68208982089419 81.91981866633111 l 5.30216178052591 -8.974278260125354 a31.423559365064712,31.423559365064712 0 0,0 0.46332980923266875,0.2791510258300632 l -5.455853655976216 8.881680624836678" fill="#ff850c" stroke="none" /><path d="M 111.2981086023043 82.29822771554956 l 6.278632013946943 -9.837302692070178 a32.670207548367365,32.670207548367365 0 0,0 0.47143572198222017,0.3066349074149865 l -6.447034761713444 9.727768860495663" fill="#ff960d" stroke="none" /><path d="M 111.60114157652 82.49532879139004 l 34.803424729560035 -52.514013625829904 a84.0,84.0 0 0,0 1.1983812223738326,0.8091523508053196 l -35.70221064634041 51.90714936272591" fill="#4dd2ff" stroke="none" /><path d="M 111.90073688211348 82.69761687909136 l 22.609614714846032 -32.871932207858855 a60.89684955772637,60.89684955772637 0 0,0 0.8585552786429475,0.6014728393427036 l -23.172101133072633 32.47787452575222" fill="#30ff39" stroke="none" /><path d="M 112.77801427241765 83.33499621200491 l 7.13125471932666 -9.300536403944028 a32.71984518980549,32.71984518980549 0 0,0 0.444004318062756,0.3465524129277753 l -7.290291592548846 9.176405601793029" fill="#ff960d" stroke="none" /><path d="M 113.34407831869373 83.78471172551755 l 2.5490870761548994 -3.0975673845307257 a25.011579317865777,25.011579317865777 0 0,0 0.3300843188902724,0.27643612435377773 l -2.602028932004289 3.053230102783129" fill="#ff2d04" stroke="none" /><path d="M 113.89432698308785 84.25364557470407 l 16.861970641348357 -19.10956654113509 a46.48532101621959,46.48532101621959 0 0,0 0.5954305043541084,0.53458338586164 l -17.188412133298456 18.816484146504152" fill="#beff1e" stroke="none" /><path d="M 114.16331599549186 84.49514656593476 l 7.129371919377049 -7.804660061391418 a31.570745604671426,31.570745604671426 0 0,0 0.39808021613502315,0.369972176548278 l -7.262660019306919 7.6807832987685" fill="#ff870c" stroke="none" /><path d="M 114.42810811169701 84.74124197986012 l 5.9824046663009565 -6.3268215399382175 a29.707343819420803,29.707343819420803 0 0,0 0.36853623108219913,0.3545315623102024 l -6.090424140995574 6.222906890865714" fill="#ff6e0a" stroke="none" /><path d="M 114.68862486808459 84.99185889309783 l 6.140882413879349 -6.274462763947862 a29.779482888944024,29.779482888944024 0 0,0 0.3632589240798693,0.36169897481656443 l -6.247977138126541 6.167827938481179" fill="#ff6f0a" stroke="none" /><path d="M 114.94478906791727 85.2469230424477 l 4.7669935459989645 -4.705842439171934 a27.698446128014126,27.698446128014126 0 0,0 0.3320327966816859,0.3421889834872936 l -4.847290606383759 4.623089260134527" fill="#ff5207" stroke="none" /><path d="M 115.19652480421416 85.50635884689758 l 0.6588311547304729 -0.6283582898176538 a21.910435407278328,21.910435407278328 0 0,0 0.2579512201206958,0.27516437649605846 l -0.6695496968216317 0.6169244964435405" fill="#ff0000" stroke="none" /><path d="M 115.4437574822437 85.77008943001954 l 7.893016629198342 -7.272642094386442 a31.732708630250016,31.732708630250016 0 0,0 0.3666735023623131,0.4048900395172866 l -8.01703377217669 7.135699267599607" fill="#ff890c" stroke="none" /><path d="M 115.9244219780498 86.31012108654704 l 5.8246038877292445 -5.00728516562495 a28.68107513170118,28.68107513170118 0 0,0 0.3186185915240223,0.37714391488735594 l -5.909933092740384 4.9062823011084875" fill="#ff6008" stroke="none" /><path d="M 116.15771136456269 86.58626213691792 l 9.946027938010772 -8.256949795004461 a33.92674327357494,33.92674327357494 0 0,0 0.36915771414040127,0.4525437078366773 l -10.086684144227583 8.084521917559682" fill="#ffa60f" stroke="none" /><path d="M 116.60985879189232 87.15038557335679 l 3.308233157048944 -2.5592945150301616 a25.182630157695215,25.182630157695215 0 0,0 0.2622879573297986,0.34514020679724244 l -3.3517970546028564 2.5019695323518856" fill="#ff2f04" stroke="none" /><path d="M 116.82858285166822 87.43820079747576 l 1.1907230525016541 -0.888822548112527 a22.485875805641946,22.485875805641946 0 0,0 0.22886058809718884,0.3121655849658636 l -1.2058462531124694 0.8681945194751697" fill="#ff0801" stroke="none" /><line stroke="#e1ed5e" stroke-width="0.3" x1="172.23445277983987" x2="176.4835382374775" y1="55.19839476539836" y2="52.563006222186495" /><path d="M 173.08426987136738 54.67131705675599 a86.0,86.0 0 0,1 12.851231095245387,41.99856678651699" fill="none" id="id123" stroke="none" /><text fill="#e1ed5e" style="font-size:6.75px; font-family:Arial;" text-anchor="middle"><textPath startOffset="22.20632615414155" xlink:href="#id123">March</textPath></text><path d="M 118.03404312379186 89.2402003453031 l 6.3506763871065415 -3.7890563490408877 a28.395136144112538,28.395136144112538 0 0,0 0.2468217807240799,0.4218984317131972 l -6.414957842300948 3.679178504973795" fill="#ff5c08" stroke="none" /><path d="M 118.21658344932153 89.55222093294921 l 0.924582872183597 -0.5302771293325731 a22.06585520659631,22.06585520659631 0 0,0 0.18613322086648185,0.3311102306185563 l -0.9335737343425119 0.5142833887792229" fill="#ff0200" stroke="none" /><path d="M 118.73160827565052 90.50648371742162 l 27.589642501474636 -13.982927491535433 a51.93073931532696,51.93073931532696 0 0,0 0.39724539480638393,0.800822475687107 l -27.82624790923443 13.505945427349376" fill="#82ff25" stroke="none" /><path d="M 119.04729006885535 91.15688171328212 l 5.1341760519597655 -2.383652790931789 a26.660526862424916,26.660526862424916 0 0,0 0.18966766389441575,0.41790755598977414 l -5.174446032817528 2.2949232260999524" fill="#ff4406" stroke="none" /><path d="M 119.196687751892 91.48605970444005 l 13.30816312670761 -5.90231542903508 a35.55831491728647,35.55831491728647 0 0,0 0.24333619980731688,0.5616534988153754 l -13.407790036357609 5.672362785633102" fill="#ffbb11" stroke="none" /><path d="M 119.47837535516314 92.15188598940014 l 10.580642388691796 -4.263091056504765 a32.40718802831936,32.40718802831936 0 0,0 0.20402091845430279,0.519210983840832 l -10.652456857027799 4.080331067768149" fill="#ff920d" stroke="none" /><path d="M 119.61058180528143 92.48833698450437 l 13.418491576355265 -5.139836640170557 a35.369197502726344,35.369197502726344 0 0,0 0.21288115584401832,0.5704156598101571 l -13.50497732070091 4.908097843331067" fill="#ffb911" stroke="none" /><path d="M 119.85752413597 93.16781622104841 l 5.18897252049996 -1.7853189371059317 a26.487513054717297,26.487513054717297 0 0,0 0.1446252346718788,0.4324110434215919 l -5.218935048943609 1.6957347907620257" fill="#ff4106" stroke="none" /><path d="M 119.97218684219823 93.5106431181261 l 24.72769441670475 -8.034514958415842 a47.00023657167256,47.00023657167256 0 0,0 0.24338180898887601,0.7715868445715734 l -24.86233170946183 7.60767794741785" fill="#b9ff1f" stroke="none" /><path d="M 120.18372546131832 94.20196356495316 l 13.501215381566976 -3.878398903599993 a35.04723441944735,35.04723441944735 0 0,0 0.16157314032687678,0.5812645521295126 l -13.565975292460214 3.6454230480515286" fill="#ffb510" stroke="none" /><path d="M 120.28053869075195 94.5502522615342 l 4.233696585337123 -1.1376708845417696 a25.38388889209447,25.38388889209447 0 0,0 0.10975953441899315,0.42294825984831835 l -4.252652451626418 1.0646261991446007" fill="#ff3204" stroke="none" /><path d="M 120.37134235888165 94.90015583598534 l 12.19110393973228 -3.0519702229064505 a33.567320219953956,33.567320219953956 0 0,0 0.13549560656161294,0.5617167647099834 l -12.241832346554713 2.841668226537061" fill="#ffa10e" stroke="none" /><path d="M 120.45610955862082 95.25157060432595 l 14.100066571120031 -3.2730158388818027 a35.4749614849777,35.4749614849777 0 0,0 0.13295612332163223,0.5960162307749697 l -14.1543170814437 3.029821438556869" fill="#ffba11" stroke="none" /><path d="M 120.53481517161879 95.60439243477599 l 11.232185713517168 -2.404320666327434 a32.48663370050026,32.48663370050026 0 0,0 0.1123429625086628,0.5478241829832976 l -11.271907971940827 2.2106208271807244" fill="#ff930d" stroke="none" /><path d="M 120.6074358757038 95.95851677861258 l 11.080136785330003 -2.1730111003953083 a32.29120934285005,32.29120934285005 0 0,0 0.10227744826261237,0.5463702183219208 l -11.115899957502474 1.9819628046108246" fill="#ff910d" stroke="none" /><path d="M 120.67395015179393 96.31383870115 l 8.871169118472867 -1.5817277317576568 a30.011076747312604,30.011076747312604 0 0,0 0.08630062183542515,0.5093511552707767 l -8.897081601828516 1.4287907881710422" fill="#ff720a" stroke="none" /><path d="M 120.78858239683441 97.02765380044208 l 25.244221096622724 -3.6094122824253825 a46.50095205673104,46.50095205673104 0 0,0 0.10647389630987472,0.793354199926531 l -25.302610991990434 3.174339740434187" fill="#beff1e" stroke="none" /><path d="M 120.83666639777658 97.38593545837742 l 3.9260949645968397 -0.4925483490531234 a24.95687067607568,24.95687067607568 0 0,0 0.049806363817591195,0.4267105089553257 l -3.9339916814180196 0.42489410177294495" fill="#ff2c04" stroke="none" /><path d="M 120.87857604477298 97.74499172005257 l 18.86003701380406 -2.0369942631643476 a39.9697217109325,39.9697217109325 0 0,0 0.0679920640569494,0.6846708062074579 l -18.89230620354324 1.7120479262524546" fill="#fff216" stroke="none" /><path d="M 120.94382443527127 98.46500227214037 l 5.9539427345399485 -0.43637152314616506 a26.969912410780744,26.969912410780744 0 0,0 0.02994868657533744,0.46329292571803443 l -5.960572012119702 0.3338195331750954" fill="#ff4806" stroke="none" /><path d="M 120.96714384426684 98.82574320788733 l 6.910214532736475 -0.38700389572804056 a27.921043050274363,27.921043050274363 0 0,0 0.022744204807019233,0.48009421604548347 l -6.915852345776991 0.2679985730595573" fill="#ff5507" stroke="none" /><path d="M 120.98425023603335 99.18683210126433 l 12.742293626426395 -0.49378100321551943 a33.75185737613165,33.75185737613165 0 0,0 0.01750002551432435,0.5807406499928622 l -12.748905346396365 0.2743702057976581" fill="#ffa40f" stroke="none" /><line stroke="#e1ed5e" stroke-width="0.3" x1="184.98032266829074" x2="189.97916517819016" y1="98.17113171792111" y2="98.06355123074" /><path d="M 185.9800911702706 98.14961562048488 a86.0,86.0 0 0,1 -9.607161424134198,41.387399972396054" fill="none" id="id124" stroke="none" /><text fill="#e1ed5e" style="font-size:6.75px; font-family:Arial;" text-anchor="middle"><textPath startOffset="21.466115282336823" xlink:href="#id124">April</textPath></text><path d="M 120.99513854157772 99.54816195383933 l 16.127426773451077 -0.34707963410122755 a37.13116110530902,37.13116110530902 0 0,0 0.008251945932830207,0.6391223064611811 l -16.131011726501626 0.06942106957958372" fill="#ffcf13" stroke="none" /><path d="M 120.9904718944345 100.63252640178507 l 9.125566749217228 0.27498962048882325 a30.129709074543157,30.129709074543157 0 0,0 -0.020083412612254888,0.5182636408844552 l -9.11948120375377 -0.43203050838728463" fill="#ff740a" stroke="none" /><path d="M 120.9764740272857 100.99374915477107 l 40.866996832952154 1.9360519555360647 a61.91283083971404,61.91283083971404 0 0,0 -0.059594487531130204,1.0640996081806313 l -40.827615994533495 -2.639223280052119" fill="#32ff45" stroke="none" /><path d="M 120.92983693683757 101.71520430193887 l 15.483748664035733 1.2688962842300635 a36.53565481307953,36.53565481307953 0 0,0 -0.05676145183610168,0.626357891155887 l -15.459612615922557 -1.5352355639345212" fill="#ffc812" stroke="none" /><path d="M 120.8583938346157 102.4346265915055 l 14.330127813258615 1.6726364700206506 a35.42741404081727,35.42741404081727 0 0,0 -0.07591334110113328,0.6051040203786007 l -14.299212962910634 -1.9190582446866462" fill="#ffb911" stroke="none" /><path d="M 120.76222939487914 103.15116336523771 l 13.23474870739809 2.0086886856748687 a34.386314040240265,34.386314040240265 0 0,0 -0.09385539022706514,0.5844376045359009 l -13.198211562809737 -2.2362055199039745" fill="#ffac0f" stroke="none" /><path d="M 120.70491114924044 103.5080841355445 l 6.073129190049525 1.0289852494975102 a27.159684147966928,27.159684147966928 0 0,0 -0.08206564686344961,0.4602677297271275 l -6.054517100846887 -1.133371729957856" fill="#ff4b07" stroke="none" /><path d="M 120.64145759157962 103.86396538481128 l 19.50516446108747 3.651257667648341 a40.843969441863955,40.843969441863955 0 0,0 -0.135310366267162,0.6899446424551223 l -19.439424161844645 -3.9864660371714082" fill="#fffd17" stroke="none" /><path d="M 120.49622156327973 104.57218783832717 l 12.65036080977618 2.8219750487344912 a33.961295143356665,33.961295143356665 0 0,0 -0.13218938310873515,0.5694684027148497 l -12.599910860736891 -3.039312108797906" fill="#ffa60f" stroke="none" /><path d="M 120.41448212921028 104.9243191809786 l 19.774633841320618 4.769976926444356 a41.34179990652534,41.34179990652534 0 0,0 -0.17282582278430644,0.6903532522105608 l -19.689596704241254 -5.109658018052312" fill="#fbff18" stroke="none" /><path d="M 120.32669344350535 105.2749913415812 l 12.465662100419324 3.234970794908059 a33.87857785804546,33.87857785804546 0 0,0 -0.15134355046038653,0.5632056524457992 l -12.40813047361716 -3.4490673805294065" fill="#ffa50f" stroke="none" /><path d="M 120.23288151984713 105.62410040840565 l 18.76341784692584 5.215636036442276 a40.474822426994564,40.474822426994564 0 0,0 -0.19236596661627112,0.6696511658351787 l -18.67085924342347 -5.5378446777820365" fill="#fff917" stroke="none" /><path d="M 120.13307415673323 105.97154293290107 l 5.829999671418442 1.7291990813549607 a27.081038203440098,27.081038203440098 0 0,0 -0.13640232450774195,0.445770688676978 l -5.799370574404567 -1.8292967425839959" fill="#ff4a06" stroke="none" /><path d="M 120.02730092923936 106.31721596034902 l 10.967445919037834 3.459463891255462 a32.50012001684852,32.50012001684852 0 0,0 -0.17288167851352196,0.5320750958402951 l -10.906271989508063 -3.647737887073552" fill="#ff930d" stroke="none" /><path d="M 119.9155931802556 106.66101706037122 l 13.23050096968147 4.425105086183288 a34.95090358838837,34.95090358838837 0 0,0 -0.1957403204196957,0.5689129951526318 l -13.152369818318544 -4.652190784425221" fill="#ffb310" stroke="none" /><path d="M 119.67450827220406 107.3425965602758 l 19.400975289601448 7.240513076948413 a41.70803882083446,41.70803882083446 0 0,0 -0.2568137145938089,0.6704595704534317 l -19.273467295414132 -7.573396214234989" fill="#f6ff19" stroke="none" /><path d="M 119.54520255179757 107.68017299344265 l 12.394307991657247 4.870270812372918 a34.316846788106794,34.316846788106794 0 0,0 -0.22076744228584888,0.5479266867473106 l -12.308637935114005 -5.082896866963042" fill="#ffab0f" stroke="none" /><path d="M 119.41010516605496 108.01547362559984 l 7.074279935249105 2.9213496658567637 a28.653738986434636,28.653738986434636 0 0,0 -0.19218338197195253,0.45426474492841407 l -7.022945572084843 -3.042688936451341" fill="#ff5f08" stroke="none" /><path d="M 119.26925614724726 108.34839909993367 l 20.27386273962535 8.783644586708453 a43.09483927551368,43.09483927551368 0 0,0 -0.300758709423782,0.6781314917701787 l -20.119662945470296 -9.131324414971319" fill="#e6ff1a" stroke="none" /><path d="M 119.12269723197855 108.67885076344098 l 15.847484735159982 7.192393066934109 a38.403255168514036,38.403255168514036 0 0,0 -0.2783785825059417,0.5996027009964896 l -15.72133153581421 -7.464115835209429" fill="#ffdf14" stroke="none" /><path d="M 118.97047184881838 109.00673069616215 l 14.342705207591761 6.809576708935041 a36.877138521369346,36.877138521369346 0 0,0 -0.2771874390936296,0.5710882247403659 l -14.223364511883418 -7.055453889640683" fill="#ffcc13" stroke="none" /><path d="M 118.64920377521936 109.65438752849418 l 15.417867044024616 7.981577396006651 a38.36134216918913,38.36134216918913 0 0,0 -0.30862154955291154,0.5837956646864736 l -15.278192986246811 -8.24578807577926" fill="#ffdf14" stroke="none" /><line stroke="#e1ed5e" stroke-width="0.3" x1="174.80103733775053" x2="179.2010983576182" y1="140.37084112569926" y2="142.7455964860345" /><path d="M 175.68104954172406 140.8457921977663 a86.0,86.0 0 0,1 -30.038265399797805,32.042727171017184" fill="none" id="id125" stroke="none" /><text fill="#e1ed5e" style="font-size:6.75px; font-family:Arial;" text-anchor="middle"><textPath startOffset="22.206326154141568" xlink:href="#id125">May</textPath></text><path d="M 118.48025628344425 109.97397251340804 l 20.513458752355696 11.071311491184208 a44.31042530970694,44.31042530970694 0 0,0 -0.3680373086309425,0.6680946188278709 l -20.319845034273243 -11.422776628409883" fill="#d8ff1c" stroke="none" /><path d="M 118.30583269289576 110.29060199501025 l 6.931302559869906 3.896423459518342 a28.95141943003537,28.95141943003537 0 0,0 -0.2479454758593845,0.4323138365471934 l -6.863205087858142 -4.015157141923851" fill="#ff6409" stroke="none" /><path d="M 118.12598468904814 110.60418214915192 l 4.956341750999334 2.8995914772453424 a26.74220813691153,26.74220813691153 0 0,0 -0.23586516061973792,0.3953235761373716 l -4.905695714681369 -2.984477147268818" fill="#ff4506" stroke="none" /><path d="M 117.75023020441432 111.22182372390056 l 17.970022563834053 11.360778040822872 a42.260032658430895,42.260032658430895 0 0,0 -0.39401470800227584,0.6115195767386251 l -17.771802992454727 -11.66841921748295" fill="#f0ff19" stroke="none" /><path d="M 117.55443506779139 111.5257021239791 l 12.769352675907136 8.383964205636955 a36.27570697424831,36.27570697424831 0 0,0 -0.34720497385021704,0.519024326516599 l -12.623144596646197 -8.60252544635936" fill="#ffc412" stroke="none" /><path d="M 117.35343817320211 111.8261652097733 l 9.277384214120762 6.322428866007813 a32.22688579358256,32.22688579358256 0 0,0 -0.3163438572608833,0.45571692042406414 l -9.167179449697741 -6.481187048618898" fill="#ff900d" stroke="none" /><path d="M 117.14729908036423 112.12312394758627 l 22.285977812206657 15.756164865633163 a48.29325078328304,48.29325078328304 0 0,0 -0.4857385932048632,0.6746484220636229 l -22.011459426626192 -16.137446893147917" fill="#aaff21" stroke="none" /><path d="M 116.93607887273984 112.41649034213515 l 11.261399431300903 8.256164743229805 a34.96364470396806,34.96364470396806 0 0,0 -0.3600235353575669,0.48231035981675696 l -11.117614629248244 -8.448787982555876" fill="#ffb310" stroke="none" /><path d="M 116.71984013943494 112.70617746262583 l 20.881571381822727 15.868868928366162 a47.2271047666307,47.2271047666307 0 0,0 -0.49744350556698935,0.643012787004696 l -20.60532105903767 -16.225959709484112" fill="#b6ff1f" stroke="none" /><path d="M 116.498646956653 112.99209946851258 l 9.265527378503847 7.2962742730370636 a32.79345648523735,32.79345648523735 0 0,0 -0.3530482434819405,0.44048196739277506 l -9.138561222967052 -7.454684074008089" fill="#ff970d" stroke="none" /><path d="M 116.27256486870786 113.27417163493432 l 14.122172119885915 11.520011632458495 a39.2248844549331,39.2248844549331 0 0,0 -0.431294415445601,0.5195219072453666 l -13.92178170454677 -11.761394796817632" fill="#ffe915" stroke="none" /><path d="M 116.0416608686014 113.55231037782055 l 8.382475664379417 7.081680186903356 a31.973426654126445,31.973426654126445 0 0,0 -0.35879892789210527,0.41736421257977435 l -8.259334226916533 -7.224921498644659" fill="#ff8c0c" stroke="none" /><path d="M 115.80600337817218 113.82643327865902 l 16.984916779483953 14.857697608708738 a43.56631507884761,43.56631507884761 0 0,0 -0.498608489649199,0.5601919238331825 l -16.726649440186417 -15.147863702282788" fill="#e0ff1b" stroke="none" /><path d="M 115.32070863581623 114.36230785411682 l 9.99316689056807 9.36803529990631 a34.69757167833177,34.69757167833177 0 0,0 -0.41222937222869355,0.43222084871047356 l -9.83043096696041 -9.538663265199292" fill="#ffb010" stroke="none" /><path d="M 115.07121518719521 114.62390073753431 l 25.4335724191334 24.67870266853486 a56.43874957445949,56.43874957445949 0 0,0 -0.6825309316465186,0.6914002302797344 l -25.005000862431345 -25.11284339279526" fill="#53ff2b" stroke="none" /><path d="M 114.81725581225074 114.88116024355365 l 4.074563669006652 4.0921366040612055 a26.77474251192956,26.77474251192956 0 0,0 -0.3293931430039452,0.3223805184960012 l -4.003520573626913 -4.161667225479778" fill="#ff4506" stroke="none" /><path d="M 114.55890576462653 115.13401014063108 l 10.192351308124973 10.594968505725106 a35.701611572393816,35.701611572393816 0 0,0 -0.4465492387888718,0.4222401774730288 l -10.008466234945294 -10.768843319944056" fill="#ffbd11" stroke="none" /><line stroke="#e1ed5e" stroke-width="0.3" x1="143.8653032363475" x2="146.44561519142675" y1="172.8068346515853" y2="177.08958963109032" /><path d="M 144.38136562736335 173.6633856474863 a86.0,86.0 0 0,1 -40.68145358897372,12.25698825130547" fill="none" id="id126" stroke="none" /><text fill="#e1ed5e" style="font-size:6.75px; font-family:Arial;" text-anchor="middle"><textPath startOffset="21.466115282336833" xlink:href="#id126">June</textPath></text><line stroke="#e1ed5e" stroke-width="0.3" x1="102.19456741930631" x2="102.32365962044197" y1="184.97166512339345" y2="189.96999836594603" /><path d="M 102.22038585953345 185.97133177190398 a86.0,86.0 0 0,1 -42.740103519485714,-10.115201625700543" fill="none" id="id127" stroke="none" /><text fill="#e1ed5e" style="font-size:6.75px; font-family:Arial;" text-anchor="middle"><textPath startOffset="22.20632615414155" xlink:href="#id127">July</textPath></text><line stroke="#e1ed5e" stroke-width="0.3" x1="58.666819895761336" x2="56.23545636021788" y1="174.27360380694188" y2="178.64263932499728" /><path d="M 58.180547188652646 175.14741091055294 a86.0,86.0 0 0,1 -31.652253787137756,-30.449443065178592" fill="none" id="id128" stroke="none" /><text fill="#e1ed5e" style="font-size:6.75px; font-family:Arial;" text-anchor="middle"><textPath startOffset="22.20632615414155" xlink:href="#id128">August</textPath></text><line stroke="#e1ed5e" stroke-width="0.3" x1="26.63291911575756" x2="22.317208475507996" y1="142.92168965132927" y2="145.44649492493687" /><path d="M 25.769776987707644 143.4266507060508 a86.0,86.0 0 0,1 -11.730757126820373,-40.83630448921669" fill="none" id="id129" stroke="none" /><text fill="#e1ed5e" style="font-size:6.75px; font-family:Arial;" text-anchor="middle"><textPath startOffset="21.46611528233685" xlink:href="#id129">September</textPath></text><line stroke="#e1ed5e" stroke-width="0.3" x1="15.007084014347285" x2="10.007500721073583" y1="101.09737516637583" y2="101.16192664675087" /><path d="M 14.007167355692545 101.11028546245083 a86.0,86.0 0 0,1 10.666146001902534,-42.60595125391555" fill="none" id="id130" stroke="none" /><text fill="#e1ed5e" style="font-size:6.75px; font-family:Arial;" text-anchor="middle"><textPath startOffset="22.20632615414155" xlink:href="#id130">October</textPath></text><line stroke="#e1ed5e" stroke-width="0.3" x1="26.266209847984243" x2="21.928928074336255" y1="57.711370442889674" y2="55.22380399835377" /><path d="M 25.398753493254645 57.213857153982495 a86.0,86.0 0 0,1 29.58750427330803,-30.492523968695096" fill="none" id="id131" stroke="none" /><text fill="#e1ed5e" style="font-size:6.75px; font-family:Arial;" text-anchor="middle"><textPath startOffset="21.46611528233685" xlink:href="#id131">November</textPath></text><line stroke="#e1ed5e" stroke-width="0.3" x1="56.762969772571076" x2="54.21961505331055" y1="26.818313649435495" y2="22.513508569990535" /><path d="M 56.25429882871897 25.957352633546506 a86.0,86.0 0 0,1 42.265352541879196,-11.944610805530505" fill="none" id="id132" stroke="none" /><text fill="#e1ed5e" style="font-size:6.75px; font-family:Arial;" text-anchor="middle"><textPath startOffset="22.20632615414155" xlink:href="#id132">December</textPath></text></svg>