<?xml version="1.0" encoding="utf-8" ?>
<svg baseProfile="full" height="200mm" version="1.1" viewBox="0,0,200,200" width="200mm" xmlns="http://www.w3.org/2000/svg" xmlns:ev="http://www.w3.org/2001/xml-events" xmlns:xlink="http://www.w3.org/1999/xlink"><defs /><rect fill="#1a1a1a" height="200" width="200" x="0" y="0" /><text alignment-baseline="middle" fill="#e1ed5e" style="dominant-baseline: central; font-size:9.0px; font-family:Arial;" text-anchor="middle" x="100.0" y="100.0">2023</text><line stroke="#e1ed5e" stroke-width="0.3" x1="100.0" x2="100.0" y1="15.0" y2="10.0" /><path d="M 100.0 14.0 a86.0,86.0 0 0,1 42.46469731375804,11.215312516191453" fill="none" id="id85" stroke="none" /><text fill="#e1ed5e" style="font-size:6.75px; font-family:Arial;" text-anchor="middle"><textPath startOffset="22.20632615414155" xlink:href="#id85">January</textPath></text><path d="M 100.0 79.0 l 0.0 -28.23538045178794 a49.23538045178794,49.23538045178794 0 0,0 0.8475061391846466,0.007294752907199505 l -0.48602565991211827 28.2311970754893" fill="#a0ff22" stroke="none" /><path d="M 100.36148047927253 79.00311137660856 l 0.05570307186196277 -3.2355583853938086 a24.236037839319412,24.236037839319412 0 0,0 0.4170599306447315,0.010771427561904998 l -0.11138963770156209 3.2341201656895437" fill="#ff2003" stroke="none" /><path d="M 101.44485096284872 79.0497635885617 l 2.2580552753513805 -32.74164122466663 a53.81941321400082,53.81941321400082 0 0,0 0.9236687869089499,0.07169447494439814 l -2.8213142516226717 32.69792148753377" fill="#6fff27" stroke="none" /><path d="M 106.74666289553966 80.11325718540242 l 1.087745850060529 -3.2062846925552937 a24.385772077981372,24.385772077981372 0 0,0 0.39634775500125624,0.13827794922776318 l -1.142775609125059 3.187085890155323" fill="#ff2203" stroke="none" /><path d="M 107.76421540070413 80.48803036053334 l 0.6563760639157551 -1.6495150083079042 a22.775311043145557,22.775311043145557 0 0,0 0.36301257053726416,0.14808194222497306 l -0.6846725040414067 1.6379721798993518" fill="#ff0b01" stroke="none" /><path d="M 108.09893153111575 80.62456947434976 l 0.9872076143319297 -2.3617402459069945 a23.55976480617493,23.55976480617493 0 0,0 0.37282345274914447,0.1596235456051522 l -1.0277148248713894 2.3443971723390518" fill="#ff1602" stroke="none" /><path d="M 108.43124777332544 80.76684994638697 l 0.9779771485547695 -2.230936837921874 a23.435881458095235,23.435881458095235 0 0,0 0.36807489401774457,0.16514447582012792 l -1.0162341610392942 2.213772031585215" fill="#ff1402" stroke="none" /><path d="M 109.41281617654863 81.2277094730956 l 22.15914601310992 -44.192717565501255 a70.4370714935107,70.4370714935107 0 0,0 1.079161382761814,0.5527883751061121 l -22.91656788346049 43.80473666508264" fill="#3cffa6" stroke="none" /><path d="M 109.73455568895987 81.39251694778311 l 24.31258274755082 -46.47320184769636 a73.44864316484492,73.44864316484492 0 0,0 1.1152125570897764,0.5957079257406962 l -25.108940351168908 46.04781519545391" fill="#40ffc5" stroke="none" /><path d="M 110.05341064243156 81.56283822128135 l 10.043409189744757 -18.41881990373043 a41.97910853203028,41.97910853203028 0 0,0 0.6314375784523318,0.351394328765762 l -10.358970857269124 18.24321017740449" fill="#f4ff19" stroke="none" /><path d="M 110.36928655335952 81.73862282372117 l 24.164840371863068 -42.55676243147038 a69.93891640449584,69.93891640449584 0 0,0 1.0417676942457406,0.6034590899590244 l -24.893804798574138 42.13449918412131" fill="#3cffa0" stroke="none" /><line stroke="#e1ed5e" stroke-width="0.3" x1="143.23703022742887" x2="145.7803849466894" y1="26.81831364943548" y2="22.513508569990506" /><path d="M 143.74570117128098 25.957352633546492 a86.0,86.0 0 0,1 28.547481713284135,27.462654790039103" fill="none" id="id86" stroke="none" /><text fill="#e1ed5e" style="font-size:6.75px; font-family:Arial;" text-anchor="middle"><textPath startOffset="19.985693538727396" xlink:href="#id86">February</textPath></text><path d="M 110.68208982089419 81.91981866633111 l 16.199384363643684 -27.41858678398199 a52.84649046585535,52.84649046585535 0 0,0 0.7792037197855604,0.4694615226008721 l -16.668950149646882 27.135678651922504" fill="#79ff26" stroke="none" /><path d="M 113.06298171725822 83.55741782278167 l 1.2673257455045503 -1.5952030070005137 a23.03734807501373,23.03734807501373 0 0,0 0.30836763095110575,0.2493451786978388 l -1.2945967750201473 1.5731517310385474" fill="#ff0f01" stroke="none" /><path d="M 114.94478906791727 85.2469230424477 l 0.7376463270516632 -0.7281837823868056 a22.03652000691929,22.03652000691929 0 0,0 0.2641609328268093,0.27224106167957646 l -0.7500715235815816 0.7153785251571149" fill="#ff0000" stroke="none" /><path d="M 115.19652480421416 85.50635884689758 l 18.273571903761454 -17.428365838292656 a46.25215566868117,46.25215566868117 0 0,0 0.5445259195527181,0.5808622850070553 l -18.570865145284635 17.111234136407543" fill="#c2ff1e" stroke="none" /><path d="M 115.4437574822437 85.77008943001952 l 18.12146758770712 -16.697158283296787 a45.64107713290525,45.64107713290525 0 0,0 0.5273856007349282,0.5823523525608377 l -18.406196829058082 16.382753143466402" fill="#c9ff1d" stroke="none" /><path d="M 115.68641384162765 86.03803664274999 l 7.0812253501913975 -6.302766831347569 a30.47990623321393,30.47990623321393 0 0,0 0.3454507467090084,0.39490992068811037 l -7.188667960478254 6.179941354456511" fill="#ff770a" stroke="none" /><path d="M 116.38621287248628 86.86637796730983 l 26.511532432351043 -21.24911040662408 a54.97625707732535,54.97625707732535 0 0,0 0.5854864552171913,0.743508341045405 l -26.873372968162197 20.789609671625637" fill="#63ff29" stroke="none" /><path d="M 116.60985879189232 87.15038557335679 l 25.173620479178343 -19.47465784826451 a52.82724408956386,52.82724408956386 0 0,0 0.5502185378114816,0.724023099867871 l -25.50511495721394 19.038449972515608" fill="#79ff26" stroke="none" /><path d="M 116.82858285166822 87.43820079747576 l 11.476402547912283 -8.566631287073633 a35.321137770805656,35.321137770805656 0 0,0 0.3594975100084893,0.49035419964014776 l -11.622162670434397 8.36781464376199" fill="#ffb711" stroke="none" /><line stroke="#e1ed5e" stroke-width="0.3" x1="172.23445277983987" x2="176.4835382374775" y1="55.19839476539836" y2="52.563006222186495" /><path d="M 173.08426987136738 54.67131705675599 a86.0,86.0 0 0,1 12.851231095245387,41.99856678651699" fill="none" id="id87" stroke="none" /><text fill="#e1ed5e" style="font-size:6.75px; font-family:Arial;" text-anchor="middle"><textPath startOffset="22.20632615414155" xlink:href="#id87">March</textPath></text><path d="M 118.3937258080291 89.86733742301442 l 13.096795067850044 -7.214710420687359 a35.95252779645087,35.95252779645087 0 0,0 0.29394084929874426,0.5446277518723522 l -13.219044016367253 6.988201685482548" fill="#ffbf11" stroke="none" /><path d="M 118.89224826269711 90.83032412892265 l 26.043697754187992 -12.640754216730544 a49.94931536114952,49.94931536114952 0 0,0 0.3687729557123969,0.7767298935593256 l -26.257428903742145 12.190581907530678" fill="#98ff23" stroke="none" /><path d="M 119.196687751892 91.48605970444005 l 12.986949903763136 -5.759853862871194 a35.20692733579241,35.20692733579241 0 0,0 0.24093154933557362,0.5561032339885552 l -13.08417216294139 5.535451484296035" fill="#ffb510" stroke="none" /><path d="M 119.47837535516314 92.15188598940014 l 26.871785943392453 -10.827024118121694 a49.970973940167994,49.970973940167994 0 0,0 0.31459452731350795,0.8006087575474451 l -27.054174020587663 10.362866355678465" fill="#98ff23" stroke="none" /><path d="M 119.61058180528143 92.48833698450437 l 16.900649215952125 -6.4736468766644535 a39.098067515743516,39.098067515743516 0 0,0 0.23532458725922095,0.6305528978308259 l -17.009578391712974 6.181770841804295" fill="#ffe715" stroke="none" /><path d="M 119.7369772167798 92.82701384747503 l 23.6747827458463 -8.604098131887058 a46.18979640104628,46.18979640104628 0 0,0 0.2651446501984893,0.7495996308737137 l -23.8193804768546 8.195300874586732" fill="#c3ff1e" stroke="none" /><path d="M 119.85752413597 93.16781622104841 l 20.27004150007489 -6.974114586854673 a42.4362509941766,42.4362509941766 0 0,0 0.23170739910346203,0.6927756310449253 l -20.38708619295012 6.624165852887433" fill="#efff19" stroke="none" /><path d="M 120.08093135843002 93.85539295169968 l 8.339160947286542 -2.551717657861352 a29.720829565482312,29.720829565482312 0 0,0 0.14548219106094046,0.49049362518624146 l -8.381849035459185 2.407794645928581" fill="#ff6d0a" stroke="none" /><path d="M 120.28053869075195 94.5502522615342 l 48.44245565961662 -13.017364439984553 a71.16097374749913,71.16097374749913 0 0,0 0.3076989259025721,1.1856894797940172 l -48.659350917389496 12.181578534641686" fill="#3dffad" stroke="none" /><path d="M 120.37134235888165 94.90015583598534 l 32.31959228989918 -8.091017333038613 a54.31697176018315,54.31697176018315 0 0,0 0.2192522664010893,0.9089421927651115 l -32.454077356561086 7.533489908614095" fill="#6aff28" stroke="none" /><path d="M 120.45610955862082 95.25157060432595 l 28.70238727588072 -6.662618768062651 a50.465531119991375,50.465531119991375 0 0,0 0.18913907438412714,0.8478733840185056 l -28.812820737266886 6.1675672144941815" fill="#93ff23" stroke="none" /><path d="M 120.53481517161879 95.60439243477599 l 23.38108083556806 -5.004868801837646 a44.91074345901808,44.91074345901808 0 0,0 0.15530713385594477,0.7573327408875309 l -23.463767265339 4.601660404786704" fill="#d2ff1c" stroke="none" /><path d="M 120.91429891909075 98.10471618934814 l 8.373330977981363 -0.7588032811997197 a29.40764259982439,29.40764259982439 0 0,0 0.0413464679719824,0.5045316360211747 l -8.38515192977284 0.614557727970776" fill="#ff6809" stroke="none" /><path d="M 120.96714384426684 98.82574320788733 l 41.96993721101464 -2.3505101219616993 a63.03570538637309,63.03570538637309 0 0,0 0.05134826055319974,1.0838806238668606 l -42.00417907980133 1.627718391471839" fill="#33ff52" stroke="none" /><path d="M 120.98425023603335 99.18683210126433 l 33.44315263846201 -1.2959671111535036 a54.46825345237872,54.46825345237872 0 0,0 0.02824128505032691,0.937190761426942 l -33.46050561796798 0.7201062023015624" fill="#68ff28" stroke="none" /><line stroke="#e1ed5e" stroke-width="0.3" x1="184.98032266829074" x2="189.97916517819016" y1="98.17113171792111" y2="98.06355123074" /><path d="M 185.9800911702706 98.14961562048488 a86.0,86.0 0 0,1 -9.607161424134198,41.387399972396054" fill="none" id="id88" stroke="none" /><text fill="#e1ed5e" style="font-size:6.75px; font-family:Arial;" text-anchor="middle"><textPath startOffset="21.466115282336823" xlink:href="#id88">April</textPath></text><path d="M 120.99513854157772 99.54816195383933 l 12.828585447767825 -0.2760850075957157 a33.831555927559975,33.831555927559975 0 0,0 0.007518649081453841,0.5823276572005983 l -12.831437103966994 0.05522109233465476" fill="#ffa30f" stroke="none" /><path d="M 120.99980553446 99.90962569577887 l 10.895773574402348 -0.04689081306594627 a31.895874473074407,31.895874473074407 0 0,0 -0.002362880874830167,0.5490503003057828 l -10.894966396238015 -0.1406689654435213" fill="#ff8a0c" stroke="none" /><path d="M 120.99824983174949 100.27111621757518 l 57.44897352660764 0.7417450754662791 a78.45376180040645,78.45376180040645 0 0,0 -0.0290575448289961,1.3501899287734929 l -57.427693919093635 -1.7305248200298868" fill="#46fff8" stroke="none" /><path d="M 120.9904718944345 100.63252640178507 l 28.84542397232084 0.8692273487198063 a49.858517639107944,49.858517639107944 0 0,0 -0.033233947911817864,0.8576205238761574 l -28.82618789155782 -1.3656251196099698" fill="#99ff23" stroke="none" /><path d="M 120.92983693683757 101.71520430193887 l 48.54352205796717 3.978151292643103 a69.70625443923504,69.70625443923504 0 0,0 -0.1082949853853787,1.1950261396520676 l -48.467852476304714 -4.813158820843742" fill="#3bff9e" stroke="none" /><path d="M 120.89721153311464 102.0752229133903 l 24.294190998421968 2.4125640754659745 a45.41368840806395,45.41368840806395 0 0,0 -0.08394546973092387,0.7772307928874385 l -24.249063227189993 -2.830391190238204" fill="#ccff1d" stroke="none" /><path d="M 120.8583938346157 102.4346265915055 l 12.57707947226202 1.468017737580097 a33.66246437821029,33.66246437821029 0 0,0 -0.07213143295481905,0.5749584913998586 l -12.549946530060351 -1.6842939832673507" fill="#ffa10e" stroke="none" /><path d="M 120.81339534386255 102.79330883721812 l 28.163051921980692 3.7796861356356684 a49.415550686975905,49.415550686975905 0 0,0 -0.12039969263982665,0.8420751699007581 l -28.093818178324266 -4.263906777516836" fill="#9eff22" stroke="none" /><path d="M 120.76222939487914 103.15116336523771 l 21.66532348412235 3.288229426654393 a42.91343639035145,42.91343639035145 0 0,0 -0.11712966134397088,0.7293665129978996 l -21.605512068417088 -3.660675169345497" fill="#e9ff1a" stroke="none" /><path d="M 120.64145759157962 103.86396538481128 l 41.803558697956916 7.825392322910606 a63.5296870999658,63.5296870999658 0 0,0 -0.21046498045617654,1.0731564010657868 l -41.66266378452507 -8.543812451044337" fill="#34ff58" stroke="none" /><path d="M 120.5718875245553 104.21870165774334 l 20.7572658234643 4.25671740792589 a42.1892361249031,42.1892361249031 0 0,0 -0.15201376699391642,0.7101577114067325 l -20.68091801774594 -4.613388938748791" fill="#f2ff19" stroke="none" /><path d="M 120.41448212921028 104.9243191809786 l 38.1155988766198 9.194128631559174 a60.20881124207972,60.20881124207972 0 0,0 -0.2516977336570925,1.0054073297892578 l -37.95168982866765 -9.848863800745828" fill="#2fff30" stroke="none" /><path d="M 120.32669344350535 105.2749913415812 l 60.980080330516046 15.82497402474362 a84.0,84.0 0 0,0 -0.3752476946328911,1.396436267297807 l -60.69864455954138 -16.872301225216972" fill="#4dd2ff" stroke="none" /><path d="M 120.23288151984713 105.62410040840565 l 29.147086057528306 8.101967010441841 a51.25218165824159,51.25218165824159 0 0,0 -0.24358786214970068,0.8479613038684389 l -29.003305558492507 -8.602485789814862" fill="#8aff24" stroke="none" /><path d="M 120.02730092923936 106.31721596034902 l 48.058362874536044 15.159060027705614 a71.39249292408708,71.39249292408708 0 0,0 -0.37976641328039445,1.1688008381251718 l -47.790304210239405 -15.984059765808581" fill="#3dffb0" stroke="none" /><path d="M 119.9155931802556 106.66101706037122 l 38.83313990243971 12.988225108674046 a61.94760977341713,61.94760977341713 0 0,0 -0.3469336624049802,1.008351618996477 l -38.603815409091496 -13.654749430759821" fill="#32ff45" stroke="none" /><path d="M 119.79798401119884 107.00284435728193 l 16.848089990701556 5.959422527850505 a38.871005936998344,38.871005936998344 0 0,0 -0.22855362778767094,0.628881423794428 l -16.743012101908658 -6.248551748651063" fill="#ffe415" stroke="none" /><path d="M 119.67450827220406 107.3425965602758 l 16.736825612420134 6.246242928740032 a38.86440265739097,38.86440265739097 0 0,0 -0.2393042658943795,0.6247479250591659 l -16.62682706693225 -6.533414420632343" fill="#ffe415" stroke="none" /><line stroke="#e1ed5e" stroke-width="0.3" x1="174.80103733775053" x2="179.2010983576182" y1="140.37084112569926" y2="142.7455964860345" /><path d="M 175.68104954172406 140.8457921977663 a86.0,86.0 0 0,1 -30.038265399797805,32.042727171017184" fill="none" id="id89" stroke="none" /><text fill="#e1ed5e" style="font-size:6.75px; font-family:Arial;" text-anchor="middle"><textPath startOffset="22.206326154141568" xlink:href="#id89">May</textPath></text><line stroke="#e1ed5e" stroke-width="0.3" x1="143.8653032363475" x2="146.44561519142675" y1="172.8068346515853" y2="177.08958963109032" /><path d="M 144.38136562736335 173.6633856474863 a86.0,86.0 0 0,1 -40.68145358897372,12.25698825130547" fill="none" id="id90" stroke="none" /><text fill="#e1ed5e" style="font-size:6.75px; font-family:Arial;" text-anchor="middle"><textPath startOffset="21.466115282336833" xlink:href="#id90">June</textPath></text><line stroke="#e1ed5e" stroke-width="0.3" x1="102.19456741930631" x2="102.32365962044197" y1="184.97166512339345" y2="189.96999836594603" /><path d="M 102.22038585953345 185.97133177190398 a86.0,86.0 0 0,1 -42.740103519485714,-10.115201625700543" fill="none" id="id91" stroke="none" /><text fill="#e1ed5e" style="font-size:6.75px; font-family:Arial;" text-anchor="middle"><textPath startOffset="22.20632615414155" xlink:href="#id91">July</textPath></text><line stroke="#e1ed5e" stroke-width="0.3" x1="58.666819895761336" x2="56.23545636021788" y1="174.27360380694188" y2="178.64263932499728" /><path d="M 58.180547188652646 175.14741091055294 a86.0,86.0 0 0,1 -31.652253787137756,-30.449443065178592" fill="none" id="id92" stroke="none" /><text fill="#e1ed5e" style="font-size:6.75px; font-family:Arial;" text-anchor="middle"><textPath startOffset="22.20632615414155" xlink:href="#id92">August</textPath></text><line stroke="#e1ed5e" stroke-width="0.3" x1="26.63291911575756" x2="22.317208475507996" y1="142.92168965132927" y2="145.44649492493687" /><path d="M 25.769776987707644 143.4266507060508 a86.0,86.0 0 0,1 -11.730757126820373,-40.83630448921669" fill="none" id="id93" stroke="none" /><text fill="#e1ed5e" style="font-size:6.75px; font-family:Arial;" text-anchor="middle"><textPath startOffset="21.46611528233685" xlink:href="#id93">September</textPath></text><line stroke="#e1ed5e" stroke-width="0.3" x1="15.007084014347285" x2="10.007500721073583" y1="101.09737516637583" y2="101.16192664675087" /><path d="M 14.007167355692545 101.11028546245083 a86.0,86.0 0 0,1 10.666146001902534,-42.60595125391555" fill="none" id="id94" stroke="none" /><text fill="#e1ed5e" style="font-size:6.75px; font-family:Arial;" text-anchor="middle"><textPath startOffset="22.20632615414155" xlink:href="#id94">October</textPath></text><line stroke="#e1ed5e" stroke-width="0.3" x1="26.266209847984243" x2="21.928928074336255" y1="57.71137044288968" y2="55.22380399835378" /><path d="M 25.398753493254645 57.2138571539825 a86.0,86.0 0 0,1 29.58750427330803,-30.4925239686951" fill="none" id="id95" stroke="none" /><text fill="#e1ed5e" style="font-size:6.75px; font-family:Arial;" text-anchor="middle"><textPath startOffset="21.46611528233685" xlink:href="#id95">November</textPath></text><line stroke="#e1ed5e" stroke-width="0.3" x1="56.76296977257108" x2="54.21961505331056" y1="26.818313649435495" y2="22.513508569990535" /><path d="M 56.25429882871898 25.957352633546506 a86.0,86.0 0 0,1 42.26535254187918,-11.944610805530505" fill="none" id="id96" stroke="none" /><text fill="#e1ed5e" style="font-size:6.75px; font-family:Arial;" text-anchor="middle"><textPath startOffset="22.20632615414155" xlink:href="#id96">December</textPath></text></svg>