<?xml version="1.0" encoding="utf-8" ?>
<svg baseProfile="full" height="200mm" version="1.1" viewBox="0,0,200,200" width="200mm" xmlns="http://www.w3.org/2000/svg" xmlns:ev="http://www.w3.org/2001/xml-events" xmlns:xlink="http://www.w3.org/1999/xlink"><defs /><rect fill="#1a1a1a" height="200" width="200" x="0" y="0" /><text alignment-baseline="middle" fill="#e1ed5e" style="dominant-baseline: central; font-size:9.0px; font-family:Arial;" text-anchor="middle" x="100.0" y="100.0">2025</text><line stroke="#e1ed5e" stroke-width="0.3" x1="100.0" x2="100.0" y1="15.0" y2="10.0" /><path d="M 100.0 14.0 a86.0,86.0 0 0,1 42.46469731375804,11.215312516191453" fill="none" id="id109" stroke="none" /><text fill="#e1ed5e" style="font-size:6.75px; font-family:Arial;" text-anchor="middle"><textPath startOffset="22.20632615414155" xlink:href="#id109">January</textPath></text><path d="M 100.0 79.0 l 0.0 -20.972357159618134 a41.972357159618134,41.972357159618134 0 0,0 0.7224851324884048,0.006218657632024487 l -0.36100465321587644 20.96924987859467" fill="#f1ff19" stroke="none" /><path d="M 100.36148047927253 79.00311137660856 l 0.4346922147600536 -25.249452023358103 a46.25319355648777,46.25319355648777 0 0,0 0.795936770880526,0.020556698549636765 l -0.8692556208354474 25.238228532666106" fill="#bfff1e" stroke="none" /><path d="M 100.72285384407766 79.0124445844662 l 0.8114675014487766 -23.56039093392611 a44.57436108286575,44.57436108286575 0 0,0 0.7665923402602461,0.03301107874142943 l -1.2169006740983543 23.542932128660485" fill="#d2ff1c" stroke="none" /><path d="M 101.08401301168833 79.027996857942 l 2.729498919209794 -52.80661698032273 a73.87711188459971,73.87711188459971 0 0,0 1.2694126519088438,0.07657443777872465 l -3.6380736199582495 52.7518092731637" fill="#41ffcb" stroke="none" /><path d="M 101.44485096284872 79.0497635885617 l 0.5848258677837217 -8.479933574212108 a29.500076159581084,29.500076159581084 0 0,0 0.506291279165292,0.039297947427838535 l -0.7307073363113549 8.468610364595804" fill="#ff6f0a" stroke="none" /><path d="M 101.80526077348638 79.07773832637324 l 0.8452970016982237 -9.79665947502284 a30.833059742045442,30.833059742045442 0 0,0 0.528383021718453,0.050176334648351556 l -1.013805150506921 9.78065759585931" fill="#ff800b" stroke="none" /><path d="M 102.16513564639614 79.11191278185805 l 1.0380381516416555 -10.014444814735045 a31.06809953028064,31.06809953028064 0 0,0 0.5314617052357462,0.059715915000964404 l -1.210266560387127 9.99509294626348" fill="#ff840c" stroke="none" /><path d="M 102.52436894288641 79.15227682838746 l 1.1864009747309041 -9.79799690588816 a30.86956385260445,30.86956385260445 0 0,0 0.5269659037402518,0.06841529832818874 l -1.354881606979002 9.776123284395835" fill="#ff810b" stroke="none" /><path d="M 102.88285421437855 79.19881850522331 l 1.353266083063114 -9.764466501331354 a30.857795653552124,30.857795653552124 0 0,0 0.5255097581573352,0.07744647797980357 l -1.521144821649105 9.739725539190582" fill="#ff810b" stroke="none" /><path d="M 103.2404852339499 79.25152402106235 l 1.5146764843658553 -9.698309476145731 a30.81587752304342,30.81587752304342 0 0,0 0.5233868333176709,0.0863633120488537 l -1.6813925238224015 9.670799901157253" fill="#ff800b" stroke="none" /><path d="M 103.59715602781102 79.31037775812273 l 1.7291833681676685 -9.945676639469221 a31.094877856498883,31.094877856498883 0 0,0 0.5265471559276369,0.0962231271410552 l -1.9001256451982063 9.914438030977427" fill="#ff840c" stroke="none" /><path d="M 103.95276090670814 79.375362276772 l 3.558812649235431 -18.56910229271853 a39.90705443557517,39.90705443557517 0 0,0 0.6735428852948471,0.13510636642766147 l -3.8779219439974035 18.505091970213662" fill="#fff417" stroke="none" /><path d="M 104.307194497241 79.44645832069477 l 4.723937476642278 -22.54220139786881 a44.031856832337766,44.031856832337766 0 0,0 0.7404843147319178,0.16184119053483784 l -5.111264515527723 22.457546709238102" fill="#d9ff1c" stroke="none" /><path d="M 104.66035177308747 79.52364482259891 l 4.669779013321557 -20.51777598183274 a42.042480064715065,42.042480064715065 0 0,0 0.7042642203865271,0.1666765871011222 l -5.022266920670608 20.43435348259075" fill="#f0ff19" stroke="none" /><path d="M 105.01212808612495 79.60689891045804 l 2.3985862067989303 -9.759249992561372 a31.049685378595452,31.049685378595452 0 0,0 0.5179251808213585,0.132030660676566 l -2.5662202763053137 9.716516335715939" fill="#ff830c" stroke="none" /><path d="M 105.36241919743992 79.69619591428918 l 2.512907571809357 -9.51465768432925 a30.840905208080326,30.840905208080326 0 0,0 0.5121089878242409,0.13997873140145298 l -2.6763144488573087 9.469992412101504" fill="#ff810b" stroke="none" /><path d="M 105.71112130821622 79.79150937346287 l 3.8924619368643674 -13.773263833866038 a35.312723590121486,35.312723590121486 0 0,0 0.583517167838136,0.1703446623862489 l -4.12896932242593 13.704220842561085" fill="#ffbb11" stroke="none" /><path d="M 106.0581310904928 79.89281104454417 l 2.9307126620021426 -9.727157169230319 a31.159068033147946,31.159068033147946 0 0,0 0.5122174313211687,0.1591484492581816 l -3.0977154660340296 9.675268585089617" fill="#ff850c" stroke="none" /><path d="M 106.40334571778207 80.00007090966166 l 6.0944622030457625 -19.035175871603748 a40.98700552877391,40.98700552877391 0 0,0 0.6700734791844329,0.22091269093181018 l -6.421218504472613 18.927449456412702" fill="#fdff18" stroke="none" /><path d="M 106.74666289553966 80.11325718540242 l 3.2582073171128707 -9.604026754456775 a31.14165887917797,31.14165887917797 0 0,0 0.5061527904183898,0.17658677000641249 l -3.4230421115945338 9.546519131278155" fill="#ff850c" stroke="none" /><path d="M 107.08798089147638 80.2323363322302 l 3.6111940964196396 -10.071256036102302 a31.69910841830959,31.69910841830959 0 0,0 0.5120427539400915,0.18858966758269632 l -3.7840191761323076 10.00760310071328" fill="#ff8c0c" stroke="none" /><path d="M 107.4271985657038 80.35727306442388 l 2.620961543330482 -6.931662247730451 a28.410626217009522,28.410626217009522 0 0,0 0.45594568228733484,0.17689984118630991 l -2.7398903906174836 6.8855197026535935" fill="#ff6008" stroke="none" /><path d="M 107.76421540070413 80.48803036053334 l 7.313406281267261 -18.379057503766603 a40.78068922362512,40.78068922362512 0 0,0 0.649997832973826,0.2651504365436491 l -7.628687983829474 18.250446181039372" fill="#ffff18" stroke="none" /><path d="M 108.09893153111575 80.62456947434976 l 17.21691023609314 -41.188772477475524 a65.64232270255361,65.64232270255361 0 0,0 1.0387623814489568,0.44474384093991143 l -17.92335637533241 40.886309108572824" fill="#36ff72" stroke="none" /><path d="M 108.43124777332544 80.76684994638697 l 4.630398890228792 -10.562749317557758 a32.53309442553034,32.53309442553034 0 0,0 0.510952203959458,0.22924936001735519 l -4.811533212655029 10.481479627023873" fill="#ff970d" stroke="none" /><path d="M 108.76106565485865 80.91482961587045 l 3.3933571020010183 -7.392114272077145 a29.133770702026666,29.133770702026666 0 0,0 0.4539621219383111,0.21314130321752575 l -3.5200974352389274 7.3326079862196165" fill="#ff6a09" stroke="none" /><path d="M 109.08828744355905 81.06846463323043 l 3.5171651080557664 -7.326499744582267 a29.126995072269267,29.126995072269267 0 0,0 0.45012127650461625,0.22087255552557417 l -3.642757651570814 7.264872028921861" fill="#ff6909" stroke="none" /><path d="M 109.41281617654863 81.2277094730956 l 5.481486817369846 -10.931910400144819 a33.22920123008015,33.22920123008015 0 0,0 0.5091022381705291,0.2607819400291552 l -5.66884954312913 10.835935934803164" fill="#ffa00e" stroke="none" /><path d="M 109.73455568895987 81.39251694778311 l 4.7606794683972 -9.099980045900073 a31.270039232476094,31.270039232476094 0 0,0 0.4747908049775738,0.25361680497216377 l -4.916615319903085 9.016684514426156" fill="#ff860c" stroke="none" /><path d="M 110.05341064243156 81.56283822128135 l 11.70631785621949 -21.46846317380903 a45.452664247399255,45.452664247399255 0 0,0 0.6836857963452467,0.3804704054552239 l -12.074127741636772 21.263777370793626" fill="#c8ff1d" stroke="none" /><path d="M 110.36928655335952 81.73862282372117 l 4.369726403317618 -7.695536389846804 a29.84962084878824,29.84962084878824 0 0,0 0.44462185410342964,0.2575536762516062 l -4.501544989886376 7.619178556205148" fill="#ff730a" stroke="none" /><line stroke="#e1ed5e" stroke-width="0.3" x1="143.23703022742887" x2="145.7803849466894" y1="26.81831364943548" y2="22.513508569990506" /><path d="M 143.74570117128098 25.957352633546492 a86.0,86.0 0 0,1 28.547481713284135,27.462654790039103" fill="none" id="id110" stroke="none" /><text fill="#e1ed5e" style="font-size:6.75px; font-family:Arial;" text-anchor="middle"><textPath startOffset="19.985693538727396" xlink:href="#id110">February</textPath></text><path d="M 110.68208982089419 81.91981866633111 l 9.393066825049296 -15.898420096035519 a39.46590008447646,39.46590008447646 0 0,0 0.5819114170008789,0.3505951176917444 l -9.665340308267812 15.734378368885158" fill="#ffef16" stroke="none" /><path d="M 110.99172775467656 82.1063720568725 l 5.169260541131533 -8.415130626278815 a30.876015289550494,30.876015289550494 0 0,0 0.4504676064656877,0.282082773842836 l -5.313347299969483 8.324903511113035" fill="#ff810b" stroke="none" /><path d="M 111.2981086023043 82.29822771554956 l 5.25352212865277 -8.231169984838493 a30.76481715525439,30.76481715525439 0 0,0 0.44394066875045424,0.2887513599683833 l -5.3944298231875045 8.139519700710583" fill="#ff800b" stroke="none" /><path d="M 111.60114157652 82.49532879139004 l 9.438407506338256 -14.241376078515826 a38.08509083573819,38.08509083573819 0 0,0 0.5433387822613142,0.3668647711949011 l -9.682150983006112 14.076799395022254" fill="#ffde14" stroke="none" /><path d="M 111.90073688211348 82.69761687909136 l 4.8143441390270345 -6.999535204794266 a29.49537536381638,29.49537536381638 0 0,0 0.41584105578655106,0.29132323422965306 l -4.9341163343972365 6.915627127800677" fill="#ff6e0a" stroke="none" /><path d="M 112.19680574252982 82.90503203632743 l 3.8114484453464126 -5.3421027147450495 a27.562408145370114,27.562408145370114 0 0,0 0.383845493080094,0.2788800749058741 l -3.9028392547802953 5.275703405022501" fill="#ff5407" stroke="none" /><path d="M 112.48926042617603 83.11751280151076 l 16.941584259627735 -22.900962076652345 a49.48633604488887,49.48633604488887 0 0,0 0.6804461842555635,0.5124979588524833 l -17.33327659764168 22.605947528294013" fill="#9bff22" stroke="none" /><path d="M 112.77801427241765 83.33499621200491 l 4.970259389362282 -6.482180234360389 a29.16836207499866,29.16836207499866 0 0,0 0.3958111243189022,0.308936860782925 l -5.081103068840615 6.39566498435424" fill="#ff6a09" stroke="none" /><path d="M 113.06298171725822 83.55741782278167 l 17.760770317804266 -22.355763163579716 a49.55214718559473,49.55214718559473 0 0,0 0.6632828651287044,0.5363286153693381 l -18.14295658149746 22.04672845094625" fill="#9aff22" stroke="none" /><path d="M 113.34407831869373 83.78471172551755 l 4.323438032313082 -5.253700732002341 a27.80393178983249,27.80393178983249 0 0,0 0.36693572087880344,0.3072981137295863 l -4.4132312901510025 5.178501460878935" fill="#ff5708" stroke="none" /><path d="M 113.6212207817346 84.01681056812373 l 6.461831247025356 -7.582336014736494 a30.962282996653094,30.962282996653094 0 0,0 0.4026662616399909,0.3491882141549684 l -6.591391307312111 7.469982807161855" fill="#ff820c" stroke="none" /><path d="M 113.89432698308785 84.25364557470407 l 0.4086171411975318 -0.4630832668166847 a21.61758730563869,21.61758730563869 0 0,0 0.2768996885667245,0.24860327439657126 l -0.4165278173602463 0.455980983650816" fill="#ff0000" stroke="none" /><path d="M 114.16331599549186 84.49514656593476 l 4.441870136311505 -4.862600358460022 a27.585976962755907,27.585976962755907 0 0,0 0.34783567702641627,0.3232753532945165 l -4.524913697132768 4.785420419090865" fill="#ff5407" stroke="none" /><path d="M 114.42810811169701 84.74124197986012 l 31.659917937999097 -33.48263147278246 a67.08076620655302,67.08076620655302 0 0,0 0.8321744584821381,0.8005511697288575 l -32.23157564009365 32.932697216291295" fill="#38ff82" stroke="none" /><path d="M 114.68862486808459 84.99185889309783 l 35.459495150693996 -36.230832469379145 a71.69565087624686,71.69565087624686 0 0,0 0.8745647161046084,0.8708090572779037 l -36.07789566696593 35.61508756145112" fill="#3effb4" stroke="none" /><path d="M 114.94478906791727 85.2469230424477 l 6.305066485913212 -6.224184942753746 a29.859703245221503,29.859703245221503 0 0,0 0.35794068485916664,0.3688893396218525 l -6.411271434475488 6.11473140758178" fill="#ff730a" stroke="none" /><path d="M 115.19652480421416 85.50635884689758 l 11.59401202675628 -11.05775511213985 a37.021705995199895,37.021705995199895 0 0,0 0.4358559770674018,0.4649407671563468 l -11.782635325794145 10.856544928105448" fill="#ffd113" stroke="none" /><path d="M 115.4437574822437 85.77008943001954 l 11.29399986424868 -10.406315187894393 a36.357272828319836,36.357272828319836 0 0,0 0.42011064103093426,0.46389666270613616 l -11.471454145895649 10.210365737918709" fill="#ffc812" stroke="none" /><path d="M 115.68641384162765 86.03803664274999 l 5.98258801589846 -5.324905711580427 a29.009118566059172,29.009118566059172 0 0,0 0.3287812499598566,0.37585380428995 l -6.073361129436165 5.221136351087528" fill="#ff6809" stroke="none" /><path d="M 115.9244219780498 86.31012108654704 l 13.623294785334092 -11.71164995945045 a38.965436414983266,38.965436414983266 0 0,0 0.4328677503075328,0.5123788828473209 l -13.822873149128743 11.475412126974021" fill="#ffe915" stroke="none" /><path d="M 116.15771136456269 86.58626213691792 l 4.5288848824529815 -3.7597697628474576 a26.886141940875465,26.886141940875465 0 0,0 0.2925487607494167,0.35863018932394275 l -4.592932135278807 3.681255403915414" fill="#ff4b07" stroke="none" /><path d="M 116.38621287248628 86.86637796730983 l 6.853261966156064 -5.492919752411827 a29.78290196821058,29.78290196821058 0 0,0 0.3171821187266806,0.4027890804344204 l -6.946798165476709 5.374138278024368" fill="#ff720a" stroke="none" /><path d="M 116.60985879189232 87.15038557335679 l 4.851650649254812 -3.753303442057443 a27.133987345159337,27.133987345159337 0 0,0 0.2826121842876561,0.3718845070946778 l -4.915538773766581 3.6692341590817317" fill="#ff4e07" stroke="none" /><path d="M 116.82858285166822 87.43820079747576 l 5.905333664795151 -4.4080726449113765 a28.369129537155587,28.369129537155587 0 0,0 0.2887401729778167,0.393841271449009 l -5.980336450286595 4.305768929790873" fill="#ff5f08" stroke="none" /><path d="M 117.04232023915458 87.72973835380427 l 3.3883758577428758 -2.4395890786418213 a25.175246798210043,25.175246798210043 0 0,0 0.25017887143376855,0.3538602715446894 l -3.429867348980527 2.3809023067653388" fill="#ff3304" stroke="none" /><path d="M 117.2510076193507 88.02491185347247 l 16.690526173438954 -11.586020164680628 a41.31771461564112,41.31771461564112 0 0,0 0.4005369442964727,0.5877385420920731 l -16.887487583404162 11.297003599318147" fill="#f9ff18" stroke="none" /><path d="M 117.45458315368197 88.32363383020206 l 4.417762246454985 -2.955293127686996 a26.31510872294791,26.31510872294791 0 0,0 0.24861933864547073,0.3786643095494476 l -4.467978220458381 2.878810754159874" fill="#ff4306" stroke="none" /><path d="M 117.65298651832404 88.62581576622439 l 22.562868966138527 -14.537723019105465 a47.8407981729934,47.8407981729934 0 0,0 0.4400724752661537,0.6960889722375257 l -22.809769037650636 14.147186399153734" fill="#adff20" stroke="none" /><line stroke="#e1ed5e" stroke-width="0.3" x1="172.23445277983987" x2="176.4835382374775" y1="55.19839476539836" y2="52.563006222186495" /><path d="M 173.08426987136738 54.67131705675599 a86.0,86.0 0 0,1 12.851231095245387,41.99856678651699" fill="none" id="id111" stroke="none" /><text fill="#e1ed5e" style="font-size:6.75px; font-family:Arial;" text-anchor="middle"><textPath startOffset="22.20632615414155" xlink:href="#id111">March</textPath></text><path d="M 117.84615892207809 88.93136811851018 l 14.745529224874096 -9.14554418127282 a38.351415230269524,38.351415230269524 0 0,0 0.34312500167298776,0.5640072841059042 l -14.900770024833308 8.890369123959834" fill="#ffe115" stroke="none" /><path d="M 118.03404312379186 89.2402003453031 l 54.10212937137558 -32.279398964090696 a84.0,84.0 0 0,0 0.7301613021186908,1.2480823505844187 l -54.6497503479646 31.34333720115238" fill="#4dd2ff" stroke="none" /><path d="M 118.21658344932153 89.55222093294921 l 19.062483829141645 -10.932929331680908 a42.97515036371345,42.97515036371345 0 0,0 0.36251045244002655,0.6448656448875166 l -19.247851922874105 10.603180176858597" fill="#e5ff1a" stroke="none" /><path d="M 118.3937258080291 89.86733742301442 l 1.6984651510452162 -0.9356437327557454 a22.93912688186208,22.93912688186208 0 0,0 0.18754582364836717,0.347493927946187 l -1.7143190739120482 0.9062688214770996" fill="#ff1302" stroke="none" /><path d="M 118.56541770881063 90.18545643968196 l 2.1197265587899365 -1.1205860796406335 a23.397697613529235,23.397697613529235 0 0,0 0.18516555376860078,0.3576809128689008 l -2.1387015457186536 1.083932444511388" fill="#ff1a02" stroke="none" /><path d="M 118.73160827565052 90.50648371742162 l 20.853142528441456 -10.56874803398651 a44.37845136696157,44.37845136696157 0 0,0 0.33947399298745307,0.6843588548788655 l -21.031976534382316 10.208229590608696" fill="#d5ff1c" stroke="none" /><path d="M 118.89224826269711 90.83032412892265 l 9.84830508362095 -4.780043340558718 a31.947051080436868,31.947051080436868 0 0,0 0.23586326194955268,0.49678818229693944 l -9.929126539412259 4.609812742621239" fill="#ff8f0d" stroke="none" /><path d="M 119.04729006885535 91.15688171328212 l 6.561431553960897 -3.0462871700974867 a28.234103231224605,28.234103231224605 0 0,0 0.20086236216012543,0.44257358970477806 l -6.61289623308437 2.9328915715506456" fill="#ff5d08" stroke="none" /><path d="M 119.196687751892 91.48605970444005 l 33.94050276892981 -15.052982989082325 a58.12883010649991,58.12883010649991 0 0,0 0.39779299582288147,0.9181610795479076 l -34.194586474595376 14.466522764947815" fill="#41ff2d" stroke="none" /><path d="M 119.34039704204932 91.81776055985345 l 13.45820482733051 -5.693691504488685 a35.61305581056436,35.61305581056436 0 0,0 0.23399187455092268,0.5666298842940622 l -13.55421838876763 5.46118704974132" fill="#ffbf11" stroke="none" /><path d="M 119.47837535516314 92.15188598940014 l 9.576196982609792 -3.8583857399360864 a31.324276689816436,31.324276689816436 0 0,0 0.19720340112781098,0.5018611458670726 l -9.641193933619304 3.6929755891732294" fill="#ff870c" stroke="none" /><path d="M 119.61058180528143 92.48833698450437 l 16.3144134889747 -6.249094373713595 a38.47029673419483,38.47029673419483 0 0,0 0.23154614219919703,0.6204285435946567 l -16.419564219675525 5.967342693089605" fill="#ffe315" stroke="none" /><path d="M 119.7369772167798 92.82701384747503 l 14.521926389779422 -5.277686433833249 a36.45122390505165,36.45122390505165 0 0,0 0.20924203535551425,0.5915554107855491 l -14.610621505944746 5.026933396621086" fill="#ffc912" stroke="none" /><path d="M 119.85752413597 93.16781622104841 l 15.725625356954222 -5.410561847588766 a37.630377998526214,37.630377998526214 0 0,0 0.20546671322391707,0.6143193202426269 l -15.81642936394991 5.139069424423825" fill="#ffd814" stroke="none" /><path d="M 119.97218684219823 93.5106431181261 l 10.02853959050801 -3.258470037407538 a31.544630543697075,31.544630543697075 0 0,0 0.16334788515166693,0.5178574347656982 l -10.083142959427883 3.0853624362154206" fill="#ff8a0c" stroke="none" /><path d="M 120.08093135843002 93.85539295169968 l 42.965687692472635 -13.147162485539132 a65.93215107590846,65.93215107590846 0 0,0 0.3227350629211297,1.088102191976097 l -43.18562865250547 12.405630906816505" fill="#37ff75" stroke="none" /><line stroke="#e1ed5e" stroke-width="0.3" x1="184.98032266829074" x2="189.97916517819016" y1="98.17113171792111" y2="98.06355123074" /><path d="M 185.9800911702706 98.14961562048488 a86.0,86.0 0 0,1 -9.607161424134198,41.387399972396054" fill="none" id="id112" stroke="none" /><text fill="#e1ed5e" style="font-size:6.75px; font-family:Arial;" text-anchor="middle"><textPath startOffset="21.466115282336823" xlink:href="#id112">April</textPath></text><line stroke="#e1ed5e" stroke-width="0.3" x1="174.80103733775053" x2="179.2010983576182" y1="140.37084112569926" y2="142.7455964860345" /><path d="M 175.68104954172406 140.8457921977663 a86.0,86.0 0 0,1 -30.038265399797805,32.042727171017184" fill="none" id="id113" stroke="none" /><text fill="#e1ed5e" style="font-size:6.75px; font-family:Arial;" text-anchor="middle"><textPath startOffset="22.206326154141568" xlink:href="#id113">May</textPath></text><line stroke="#e1ed5e" stroke-width="0.3" x1="143.8653032363475" x2="146.44561519142675" y1="172.8068346515853" y2="177.08958963109032" /><path d="M 144.38136562736335 173.6633856474863 a86.0,86.0 0 0,1 -40.68145358897372,12.25698825130547" fill="none" id="id114" stroke="none" /><text fill="#e1ed5e" style="font-size:6.75px; font-family:Arial;" text-anchor="middle"><textPath startOffset="21.466115282336833" xlink:href="#id114">June</textPath></text><line stroke="#e1ed5e" stroke-width="0.3" x1="102.19456741930631" x2="102.32365962044197" y1="184.97166512339345" y2="189.96999836594603" /><path d="M 102.22038585953345 185.97133177190398 a86.0,86.0 0 0,1 -42.740103519485714,-10.115201625700543" fill="none" id="id115" stroke="none" /><text fill="#e1ed5e" style="font-size:6.75px; font-family:Arial;" text-anchor="middle"><textPath startOffset="22.20632615414155" xlink:href="#id115">July</textPath></text><line stroke="#e1ed5e" stroke-width="0.3" x1="58.666819895761336" x2="56.23545636021788" y1="174.27360380694188" y2="178.64263932499728" /><path d="M 58.180547188652646 175.14741091055294 a86.0,86.0 0 0,1 -31.652253787137756,-30.449443065178592" fill="none" id="id116" stroke="none" /><text fill="#e1ed5e" style="font-size:6.75px; font-family:Arial;" text-anchor="middle"><textPath startOffset="22.20632615414155" xlink:href="#id116">August</textPath></text><line stroke="#e1ed5e" stroke-width="0.3" x1="26.63291911575756" x2="22.317208475507996" y1="142.92168965132927" y2="145.44649492493687" /><path d="M 25.769776987707644 143.4266507060508 a86.0,86.0 0 0,1 -11.730757126820373,-40.83630448921669" fill="none" id="id117" stroke="none" /><text fill="#e1ed5e" style="font-size:6.75px; font-family:Arial;" text-anchor="middle"><textPath startOffset="21.46611528233685" xlink:href="#id117">September</textPath></text><line stroke="#e1ed5e" stroke-width="0.3" x1="15.007084014347285" x2="10.007500721073583" y1="101.09737516637583" y2="101.16192664675087" /><path d="M 14.007167355692545 101.11028546245083 a86.0,86.0 0 0,1 10.666146001902534,-42.60595125391555" fill="none" id="id118" stroke="none" /><text fill="#e1ed5e" style="font-size:6.75px; font-family:Arial;" text-anchor="middle"><textPath startOffset="22.20632615414155" xlink:href="#id118">October</textPath></text><line stroke="#e1ed5e" stroke-width="0.3" x1="26.266209847984243" x2="21.928928074336255" y1="57.711370442889674" y2="55.22380399835377" /><path d="M 25.398753493254645 57.213857153982495 a86.0,86.0 0 0,1 29.58750427330803,-30.492523968695096" fill="none" id="id119" stroke="none" /><text fill="#e1ed5e" style="font-size:6.75px; font-family:Arial;" text-anchor="middle"><textPath startOffset="21.46611528233685" xlink:href="#id119">November</textPath></text><line stroke="#e1ed5e" stroke-width="0.3" x1="56.762969772571076" x2="54.21961505331055" y1="26.818313649435495" y2="22.513508569990535" /><path d="M 56.25429882871897 25.957352633546506 a86.0,86.0 0 0,1 42.265352541879196,-11.944610805530505" fill="none" id="id120" stroke="none" /><text fill="#e1ed5e" style="font-size:6.75px; font-family:Arial;" text-anchor="middle"><textPath startOffset="22.20632615414155" xlink:href="#id120">December</textPath></text></svg>