<?xml version="1.0" encoding="utf-8" ?>
<svg baseProfile="full" height="200mm" version="1.1" viewBox="0,0,200,200" width="200mm" xmlns="http://www.w3.org/2000/svg" xmlns:ev="http://www.w3.org/2001/xml-events" xmlns:xlink="http://www.w3.org/1999/xlink"><defs /><rect fill="#1a1a1a" height="200" width="200" x="0" y="0" /><text alignment-baseline="middle" fill="#e1ed5e" style="dominant-baseline: central; font-size:9.0px; font-family:Arial;" text-anchor="middle" x="100.0" y="100.0">2025</text><line stroke="#e1ed5e" stroke-width="0.3" x1="100.0" x2="100.0" y1="15.0" y2="10.0" /><path d="M 100.0 14.0 a86.0,86.0 0 0,1 42.46469731375804,11.215312516191453" fill="none" id="id109" stroke="none" /><text fill="#e1ed5e" style="font-size:6.75px; font-family:Arial;" text-anchor="middle"><textPath startOffset="22.20632615414155" xlink:href="#id109">January</textPath></text><path d="M 100.0 79.0 l 0.0 -24.987342424062206 a45.987342424062206,45.987342424062206 0 0,0 0.7915965038057087,0.006813521024191146 l -0.4301160245331803 24.983640279646572" fill="#fff817" stroke="none" /><path d="M 100.36148047927253 79.00311137660856 l 0.5179104635981329 -30.083251917070974 a51.08770973594133,51.08770973594133 0 0,0 0.8791303603554776,0.022705343520777972 l -1.0356674591484782 30.069879781407835" fill="#c1ff1e" stroke="none" /><path d="M 100.72285384407766 79.0124445844662 l 0.9668162796569485 -28.07083397589352 a49.087478594932435,49.087478594932435 0 0,0 0.8442091861643954,0.03635342339743452 l -1.4498662982106756 28.05003282597189" fill="#dbff1b" stroke="none" /><path d="M 101.08401301168833 79.027996857942 l 3.2520390350649873 -62.916009426173986 a84.0,84.0 0 0,0 1.4433518046415523,0.08706692247878367 l -4.334552888546152 62.8507092343149" fill="#4dd2ff" stroke="none" /><path d="M 101.44485096284872 79.0497635885617 l 0.6967859695284371 -10.103347103020523 a31.127345820670136,31.127345820670136 0 0,0 0.5342190863276497,0.04146568276677341 l -0.870595245218428 10.089856158065285" fill="#ff1602" stroke="none" /><path d="M 101.80526077348638 79.07773832637324 l 1.0071221594554987 -11.672149346458408 a32.7155181451823,32.7155181451823 0 0,0 0.5606425206987757,0.05323976278644819 l -1.2078898072445188 11.653084039156782" fill="#ff3004" stroke="none" /><path d="M 102.16513564639614 79.11191278185805 l 1.2367620171114295 -11.931627898006628 a32.99555436749213,32.99555436749213 0 0,0 0.5644334173789658,0.06342067103584632 l -1.4419621380001206 11.908571273500181" fill="#ff3405" stroke="none" /><path d="M 102.52436894288641 79.15227682838746 l 1.4135276822828082 -11.673742817461504 a32.75901066743346,32.75901066743346 0 0,0 0.5592201349013928,0.07260282323553745 l -1.6142625456920472 11.647681671061829" fill="#ff3004" stroke="none" /><path d="M 102.88285421437855 79.19881850522331 l 1.6123377430113892 -11.633793292765658 a32.74498954347505,32.74498954347505 0 0,0 0.5576487617279041,0.08218293166821573 l -1.812355485167949 11.604315876936473" fill="#ff3004" stroke="none" /><path d="M 103.2404852339499 79.25152402106235 l 1.8046488379188699 -11.554971049300658 a32.695046531689314,32.695046531689314 0 0,0 0.5553032477040021,0.09162979389298949 l -2.003281291761747 11.522194992468043" fill="#ff2f04" stroke="none" /><path d="M 103.59715602781102 79.31037775812273 l 2.0602213001404697 -11.849694621257285 a33.027459183992534,33.027459183992534 0 0,0 0.5592726487334547,0.1022035017752326 l -2.2638890699768255 11.812475638131314" fill="#ff3505" stroke="none" /><path d="M 103.95276090670814 79.375362276772 l 4.240118056960883 -22.124004181513996 a43.526654482204286,43.526654482204286 0 0,0 0.7346337348576908,0.14736061613709395 l -4.620318201285699 22.047739609299693" fill="#ffd513" stroke="none" /><path d="M 104.307194497241 79.44645832069477 l 5.6282964485271165 -26.857720428549953 a48.44111636815551,48.44111636815551 0 0,0 0.8146348902637975,0.1780476343232758 l -6.089774062944442 26.756859296130806" fill="#e4ff1a" stroke="none" /><path d="M 104.66035177308747 79.52364482259891 l 5.56376979289865 -24.44573541906955 a46.07088978252513,46.07088978252513 0 0,0 0.7717451307644112,0.18264713836679544 l -5.9837386106255845 24.346342368561885" fill="#fff917" stroke="none" /><path d="M 105.01212808612495 79.60689891045804 l 2.857775805874586 -11.627578126301456 a32.97361497793737,32.97361497793737 0 0,0 0.5500173445092279,0.1402116677624357 l -3.0575020390688388 11.576663462370153" fill="#ff3404" stroke="none" /><path d="M 105.36241919743992 79.69619591428918 l 2.993983055835121 -11.336160632618114 a32.72486556115457,32.72486556115457 0 0,0 0.543391890287852,0.14852953036324457 l -3.1886728353466838 11.282944561428575" fill="#ff3004" stroke="none" /><path d="M 105.71112130821622 79.79150937346287 l 4.637641756184422 -16.41004189917339 a38.05277678829262,38.05277678829262 0 0,0 0.6287945613487832,0.18356237513988635 l -4.919426535256632 16.3277811951148" fill="#ff840c" stroke="none" /><path d="M 106.0581310904928 79.89281104454417 l 3.491773493777168 -11.589341395931822 a33.103938041947494,33.103938041947494 0 0,0 0.5441887444265895,0.16908209186841353 l -3.6907476109144755 11.527519169180888" fill="#ff3605" stroke="none" /><path d="M 106.40334571778207 80.00007090966166 l 7.261196860180775 -22.679303713263202 a44.81335332876773,44.81335332876773 0 0,0 0.7326282852707573,0.24153602698753235 l -7.65050796769395 22.550953962016433" fill="#ffe815" stroke="none" /><path d="M 106.74666289553966 80.11325718540242 l 3.881964306713472 -11.44263867609223 a33.08319604865365,33.08319604865365 0 0,0 0.537709055928966,0.18759613141953682 l -4.078355366705711 11.374121691500484" fill="#ff3605" stroke="none" /><path d="M 107.08798089147638 80.2323363322302 l 4.302527501330825 -11.999315160388665 a33.74736471660089,33.74736471660089 0 0,0 0.5451286938319033,0.20077549846858345 l -4.508438520935305 11.923476394113758" fill="#ff4006" stroke="none" /><path d="M 107.4271985657038 80.35727306442388 l 3.1227230713769605 -8.258671966806197 a29.82932964815679,29.82932964815679 0 0,0 0.4787136318192094,0.1857334518833585 l -3.264419868195837 8.203695811032292" fill="#ff0000" stroke="none" /><path d="M 107.76421540070413 80.48803036053334 l 8.7134977554254 -21.89757688098175 a44.567539464108464,44.567539464108464 0 0,0 0.7103559214949151,0.2897720163527489 l -9.089137546508704 21.74434397844542" fill="#ffe415" stroke="none" /><path d="M 108.09893153111575 80.62456947434976 l 20.512946078467134 -49.07402415896153 a74.18872816652453,74.18872816652453 0 0,0 1.1740056837435822,0.5026479649225384 l -21.354635520001032 48.7136566660762" fill="#3fffbe" stroke="none" /><path d="M 108.43124777332544 80.76684994638697 l 5.516850669171572 -12.584900787668591 a34.74101048472784,34.74101048472784 0 0,0 0.545628880018872,0.24480777376436894 l -5.732661667657224 12.488072683387692" fill="#ff5007" stroke="none" /><path d="M 108.76106565485865 80.91482961587045 l 4.04298740620755 -8.807273743642094 a30.690914196411,30.690914196411 0 0,0 0.4782255162000081,0.22453329215998974 l -4.193991133707156 8.7363754688421" fill="#ff0e01" stroke="none" /><path d="M 109.08828744355905 81.06846463323043 l 4.190497436605424 -8.729097854588263 a30.68284142807131,30.68284142807131 0 0,0 0.47416493586532454,0.23267067475340758 l -4.340133639481181 8.655672019700024" fill="#ff0e01" stroke="none" /><line stroke="#e1ed5e" stroke-width="0.3" x1="143.23703022742887" x2="145.7803849466894" y1="26.81831364943548" y2="22.513508569990506" /><path d="M 143.74570117128098 25.957352633546492 a86.0,86.0 0 0,1 28.547481713284135,27.462654790039103" fill="none" id="id110" stroke="none" /><text fill="#e1ed5e" style="font-size:6.75px; font-family:Arial;" text-anchor="middle"><textPath startOffset="19.985693538727396" xlink:href="#id110">February</textPath></text><line stroke="#e1ed5e" stroke-width="0.3" x1="172.23445277983987" x2="176.4835382374775" y1="55.19839476539836" y2="52.563006222186495" /><path d="M 173.08426987136738 54.67131705675599 a86.0,86.0 0 0,1 12.851231095245387,41.99856678651699" fill="none" id="id111" stroke="none" /><text fill="#e1ed5e" style="font-size:6.75px; font-family:Arial;" text-anchor="middle"><textPath startOffset="22.20632615414155" xlink:href="#id111">March</textPath></text><line stroke="#e1ed5e" stroke-width="0.3" x1="184.98032266829074" x2="189.97916517819016" y1="98.17113171792111" y2="98.06355123074" /><path d="M 185.9800911702706 98.14961562048488 a86.0,86.0 0 0,1 -9.607161424134198,41.387399972396054" fill="none" id="id112" stroke="none" /><text fill="#e1ed5e" style="font-size:6.75px; font-family:Arial;" text-anchor="middle"><textPath startOffset="21.466115282336823" xlink:href="#id112">April</textPath></text><line stroke="#e1ed5e" stroke-width="0.3" x1="174.80103733775053" x2="179.2010983576182" y1="140.37084112569926" y2="142.7455964860345" /><path d="M 175.68104954172406 140.8457921977663 a86.0,86.0 0 0,1 -30.038265399797805,32.042727171017184" fill="none" id="id113" stroke="none" /><text fill="#e1ed5e" style="font-size:6.75px; font-family:Arial;" text-anchor="middle"><textPath startOffset="22.206326154141568" xlink:href="#id113">May</textPath></text><line stroke="#e1ed5e" stroke-width="0.3" x1="143.8653032363475" x2="146.44561519142675" y1="172.8068346515853" y2="177.08958963109032" /><path d="M 144.38136562736335 173.6633856474863 a86.0,86.0 0 0,1 -40.68145358897372,12.25698825130547" fill="none" id="id114" stroke="none" /><text fill="#e1ed5e" style="font-size:6.75px; font-family:Arial;" text-anchor="middle"><textPath startOffset="21.466115282336833" xlink:href="#id114">June</textPath></text><line stroke="#e1ed5e" stroke-width="0.3" x1="102.19456741930631" x2="102.32365962044197" y1="184.97166512339345" y2="189.96999836594603" /><path d="M 102.22038585953345 185.97133177190398 a86.0,86.0 0 0,1 -42.740103519485714,-10.115201625700543" fill="none" id="id115" stroke="none" /><text fill="#e1ed5e" style="font-size:6.75px; font-family:Arial;" text-anchor="middle"><textPath startOffset="22.20632615414155" xlink:href="#id115">July</textPath></text><line stroke="#e1ed5e" stroke-width="0.3" x1="58.666819895761336" x2="56.23545636021788" y1="174.27360380694188" y2="178.64263932499728" /><path d="M 58.180547188652646 175.14741091055294 a86.0,86.0 0 0,1 -31.652253787137756,-30.449443065178592" fill="none" id="id116" stroke="none" /><text fill="#e1ed5e" style="font-size:6.75px; font-family:Arial;" text-anchor="middle"><textPath startOffset="22.20632615414155" xlink:href="#id116">August</textPath></text><line stroke="#e1ed5e" stroke-width="0.3" x1="26.63291911575756" x2="22.317208475507996" y1="142.92168965132927" y2="145.44649492493687" /><path d="M 25.769776987707644 143.4266507060508 a86.0,86.0 0 0,1 -11.730757126820373,-40.83630448921669" fill="none" id="id117" stroke="none" /><text fill="#e1ed5e" style="font-size:6.75px; font-family:Arial;" text-anchor="middle"><textPath startOffset="21.46611528233685" xlink:href="#id117">September</textPath></text><line stroke="#e1ed5e" stroke-width="0.3" x1="15.007084014347285" x2="10.007500721073583" y1="101.09737516637583" y2="101.16192664675087" /><path d="M 14.007167355692545 101.11028546245083 a86.0,86.0 0 0,1 10.666146001902534,-42.60595125391555" fill="none" id="id118" stroke="none" /><text fill="#e1ed5e" style="font-size:6.75px; font-family:Arial;" text-anchor="middle"><textPath startOffset="22.20632615414155" xlink:href="#id118">October</textPath></text><line stroke="#e1ed5e" stroke-width="0.3" x1="26.266209847984243" x2="21.928928074336255" y1="57.711370442889674" y2="55.22380399835377" /><path d="M 25.398753493254645 57.213857153982495 a86.0,86.0 0 0,1 29.58750427330803,-30.492523968695096" fill="none" id="id119" stroke="none" /><text fill="#e1ed5e" style="font-size:6.75px; font-family:Arial;" text-anchor="middle"><textPath startOffset="21.46611528233685" xlink:href="#id119">November</textPath></text><line stroke="#e1ed5e" stroke-width="0.3" x1="56.762969772571076" x2="54.21961505331055" y1="26.818313649435495" y2="22.513508569990535" /><path d="M 56.25429882871897 25.957352633546506 a86.0,86.0 0 0,1 42.265352541879196,-11.944610805530505" fill="none" id="id120" stroke="none" /><text fill="#e1ed5e" style="font-size:6.75px; font-family:Arial;" text-anchor="middle"><textPath startOffset="22.20632615414155" xlink:href="#id120">December</textPath></text></svg>