<?xml version="1.0" encoding="utf-8" ?>
<svg baseProfile="full" height="200mm" version="1.1" viewBox="0,0,200,200" width="200mm" xmlns="http://www.w3.org/2000/svg" xmlns:ev="http://www.w3.org/2001/xml-events" xmlns:xlink="http://www.w3.org/1999/xlink"><defs /><rect fill="#1a1a1a" height="200" width="200" x="0" y="0" /><text alignment-baseline="middle" fill="#e1ed5e" style="dominant-baseline: central; font-size:9.0px; font-family:Arial;" text-anchor="middle" x="100.0" y="100.0">2018</text><line stroke="#e1ed5e" stroke-width="0.3" x1="100.0" x2="100.0" y1="15.0" y2="10.0" /><path d="M 100.0 14.0 a86.0,86.0 0 0,1 42.46469731375804,11.215312516191453" fill="none" id="id25" stroke="none" /><text fill="#e1ed5e" style="font-size:6.75px; font-family:Arial;" text-anchor="middle"><textPath startOffset="22.20632615414155" xlink:href="#id25">January</textPath></text><path d="M 104.307194497241 79.44645832069477 l 9.422555708725401 -44.96358165597519 a66.9402680816904,66.9402680816904 0 0,0 1.1257353676267794,0.24604214903573013 l -10.195133800505706 44.79472600884359" fill="#35ff64" stroke="none" /><line stroke="#e1ed5e" stroke-width="0.3" x1="143.23703022742887" x2="145.7803849466894" y1="26.81831364943548" y2="22.513508569990506" /><path d="M 143.74570117128098 25.957352633546492 a86.0,86.0 0 0,1 28.547481713284135,27.462654790039103" fill="none" id="id26" stroke="none" /><text fill="#e1ed5e" style="font-size:6.75px; font-family:Arial;" text-anchor="middle"><textPath startOffset="19.985693538727396" xlink:href="#id26">February</textPath></text><line stroke="#e1ed5e" stroke-width="0.3" x1="172.23445277983987" x2="176.4835382374775" y1="55.19839476539836" y2="52.563006222186495" /><path d="M 173.08426987136738 54.67131705675599 a86.0,86.0 0 0,1 12.851231095245387,41.99856678651699" fill="none" id="id27" stroke="none" /><text fill="#e1ed5e" style="font-size:6.75px; font-family:Arial;" text-anchor="middle"><textPath startOffset="22.20632615414155" xlink:href="#id27">March</textPath></text><path d="M 120.98425023603335 99.18683210126433 l 46.424513010429344 -1.7990122720559765 a67.45935700599537,67.45935700599537 0 0,0 0.03497705194795231,1.1607180724657455 l -46.44860175683294 0.9996240521652316" fill="#36ff6b" stroke="none" /><line stroke="#e1ed5e" stroke-width="0.3" x1="184.98032266829074" x2="189.97916517819016" y1="98.17113171792111" y2="98.06355123074" /><path d="M 185.9800911702706 98.14961562048488 a86.0,86.0 0 0,1 -9.607161424134198,41.387399972396054" fill="none" id="id28" stroke="none" /><text fill="#e1ed5e" style="font-size:6.75px; font-family:Arial;" text-anchor="middle"><textPath startOffset="21.466115282336823" xlink:href="#id28">April</textPath></text><path d="M 120.99513854157772 99.54816195383933 l 40.02732441850884 -0.8614312319245653 a61.03659281047638,61.03659281047638 0 0,0 0.013564635438351782,1.0505959634530788 l -40.036222061064905 0.17229901041102386" fill="#46ff2c" stroke="none" /><path d="M 120.92983693683757 101.71520430193887 l 62.789510810512716 5.145612905816613 a84.0,84.0 0 0,0 -0.13050161489169865,1.4400744458057166 l -62.69163459934395 -6.2256687401709" fill="#4dd2ff" stroke="none" /><path d="M 120.49622156327973 104.57218783832717 l 22.93126024774046 5.1153832865503555 a44.49488971495548,44.49488971495548 0 0,0 -0.17318986210871076,0.7460973931645156 l -22.8398098197012 -5.509349337063436" fill="#ffe515" stroke="none" /><path d="M 120.23288151984713 105.62410040840565 l 19.575672254253494 5.441417042449731 a41.31787300963889,41.31787300963889 0 0,0 -0.19637275974128862,0.6835993383452396 l -19.479106857626103 -5.777573856299553" fill="#ffb711" stroke="none" /><line stroke="#e1ed5e" stroke-width="0.3" x1="174.80103733775053" x2="179.2010983576182" y1="140.37084112569926" y2="142.7455964860345" /><path d="M 175.68104954172406 140.8457921977663 a86.0,86.0 0 0,1 -30.038265399797805,32.042727171017184" fill="none" id="id29" stroke="none" /><text fill="#e1ed5e" style="font-size:6.75px; font-family:Arial;" text-anchor="middle"><textPath startOffset="22.206326154141568" xlink:href="#id29">May</textPath></text><path d="M 116.27256486870786 113.27417163493432 l 30.129471202509876 24.577795525093833 a59.88255480052969,59.88255480052969 0 0,0 -0.6584343542874477,0.7931265958588198 l -29.701940848328885 -25.09278337806642" fill="#53ff2b" stroke="none" /><path d="M 114.29624159901734 115.38237550388516 l 18.027914004915633 19.397555704040677 a47.48151903988882,47.48151903988882 0 0,0 -0.6034685154163811,0.5512541807324657 l -17.691345940032388 -19.705002651359727" fill="#efff19" stroke="none" /><line stroke="#e1ed5e" stroke-width="0.3" x1="143.8653032363475" x2="146.44561519142675" y1="172.8068346515853" y2="177.08958963109032" /><path d="M 144.38136562736335 173.6633856474863 a86.0,86.0 0 0,1 -40.68145358897372,12.25698825130547" fill="none" id="id30" stroke="none" /><text fill="#e1ed5e" style="font-size:6.75px; font-family:Arial;" text-anchor="middle"><textPath startOffset="21.466115282336833" xlink:href="#id30">June</textPath></text><path d="M 110.5260780823613 118.17145234162733 l 14.902423321093702 25.726455098959534 a50.7310059163806,50.7310059163806 0 0,0 -0.7593978221496308,0.4312059024822815 l -14.457376732022874 -25.979164167236444" fill="#c4ff1e" stroke="none" /><path d="M 103.06178313531737 120.77559828337769 l 2.117966111233364 14.37136830405556 a35.526596551813014,35.526596551813014 0 0,0 -0.6057646894116551,0.08395346621203466 l -1.870272830634878 -14.405696335760197" fill="#ff5f08" stroke="none" /><line stroke="#e1ed5e" stroke-width="0.3" x1="102.19456741930631" x2="102.32365962044197" y1="184.97166512339345" y2="189.96999836594603" /><path d="M 102.22038585953345 185.97133177190398 a86.0,86.0 0 0,1 -42.740103519485714,-10.115201625700543" fill="none" id="id31" stroke="none" /><text fill="#e1ed5e" style="font-size:6.75px; font-family:Arial;" text-anchor="middle"><textPath startOffset="22.20632615414155" xlink:href="#id31">July</textPath></text><path d="M 98.01472825383883 120.90594882070398 l -2.593060062520953 27.30627737028872 a48.42912219359167,48.42912219359167 0 0,0 -0.8292158912295321,-0.08595161758515692 l 3.0627085503560783 -27.2575963842478" fill="#e3ff1b" stroke="none" /><path d="M 96.93821686468263 120.77559828337769 l -4.671917030582546 31.701092843923117 a53.043503183011694,53.043503183011694 0 0,0 -0.9021541431209149,-0.14089792341845597 l 5.216907037311978 -31.615976613157553" fill="#a6ff21" stroke="none" /><path d="M 93.08242187328487 119.8279376855182 l -7.803367148687519 22.366885451407008 a44.689029183433796,44.689029183433796 0 0,0 -0.724133451693801,-0.2596484923432307 l 8.187220161011046 -22.22924941802382" fill="#ffe815" stroke="none" /><line stroke="#e1ed5e" stroke-width="0.3" x1="58.666819895761336" x2="56.23545636021788" y1="174.27360380694188" y2="178.64263932499728" /><path d="M 58.180547188652646 175.14741091055294 a86.0,86.0 0 0,1 -31.652253787137756,-30.449443065178592" fill="none" id="id32" stroke="none" /><text fill="#e1ed5e" style="font-size:6.75px; font-family:Arial;" text-anchor="middle"><textPath startOffset="22.20632615414155" xlink:href="#id32">August</textPath></text><path d="M 88.8546689885994 117.79835938074946 l -17.676593088341914 28.228354643909743 a54.30618484776,54.30618484776 0 0,0 -0.7880039421198142,-0.5029413989769844 l 18.15987883250865 -27.919898816108955" fill="#96ff23" stroke="none" /><line stroke="#e1ed5e" stroke-width="0.3" x1="26.63291911575756" x2="22.317208475507996" y1="142.92168965132927" y2="145.44649492493687" /><path d="M 25.769776987707644 143.4266507060508 a86.0,86.0 0 0,1 -11.730757126820373,-40.83630448921669" fill="none" id="id33" stroke="none" /><text fill="#e1ed5e" style="font-size:6.75px; font-family:Arial;" text-anchor="middle"><textPath startOffset="21.46611528233685" xlink:href="#id33">September</textPath></text><path d="M 81.69416730710424 110.29060199501025 l -50.55076110917416 28.41705001058137 a78.99058699496564,78.99058699496564 0 0,0 -0.6560867525330594,-1.1909880291270363 l 51.03242427115874 -27.542691463056514" fill="#46fff6" stroke="none" /><path d="M 80.58989483394504 108.01547362559985 l -21.766852981131066 8.988701219800053 a44.54979062159597,44.54979062159597 0 0,0 -0.2865981070646837,-0.711312997994847 l 21.91835370245314 -8.612688853962402" fill="#ffe615" stroke="none" /><path d="M 79.76711848015287 105.62410040840567 l -20.020933211180722 5.565185489729245 a41.78001578877293,41.78001578877293 0 0,0 -0.18664112626742393,-0.6945610630442747 l 20.113762413789917 -5.219733493509431" fill="#ffbe11" stroke="none" /><line stroke="#e1ed5e" stroke-width="0.3" x1="15.007084014347285" x2="10.007500721073583" y1="101.09737516637583" y2="101.16192664675087" /><path d="M 14.007167355692545 101.11028546245083 a86.0,86.0 0 0,1 10.666146001902534,-42.60595125391555" fill="none" id="id34" stroke="none" /><text fill="#e1ed5e" style="font-size:6.75px; font-family:Arial;" text-anchor="middle"><textPath startOffset="22.20632615414155" xlink:href="#id34">October</textPath></text><path d="M 79.00175016825051 100.2711162175752 l -15.110799899033667 0.19510116061994007 a36.112059358390276,36.112059358390276 0 0,0 -0.0026752204107369443,-0.621627008600207 l 15.111919416733906 0.06503532618394238" fill="#ff6809" stroke="none" /><path d="M 79.00019446554 99.90962569577889 l -23.652989893710323 -0.1017924904535659 a44.65320892866495,44.65320892866495 0 0,0 0.009923628963868558,-0.7685959994744179 l 23.64773325762874 0.5089247479884558" fill="#ffe715" stroke="none" /><path d="M 79.01574976396665 99.18683210126434 l -31.22962197892179 -1.2101898231894619 a52.25306142371506,52.25306142371506 0 0,0 0.04256482570062479,-0.8984761964309148 l 31.20416354498767 1.7475771262433855" fill="#b0ff20" stroke="none" /><path d="M 79.05617556472873 98.46500227214037 l -8.608506786179133 -0.6309276702489724 a29.63159653904062,29.63159653904062 0 0,0 0.041661342050837054,-0.508373897330024 l 8.596370960308798 0.7790154847867745" fill="#ff0000" stroke="none" /><line stroke="#e1ed5e" stroke-width="0.3" x1="26.266209847984243" x2="21.928928074336255" y1="57.71137044288968" y2="55.22380399835378" /><path d="M 25.398753493254645 57.2138571539825 a86.0,86.0 0 0,1 29.58750427330803,-30.4925239686951" fill="none" id="id35" stroke="none" /><text fill="#e1ed5e" style="font-size:6.75px; font-family:Arial;" text-anchor="middle"><textPath startOffset="21.46611528233685" xlink:href="#id35">November</textPath></text><line stroke="#e1ed5e" stroke-width="0.3" x1="56.76296977257108" x2="54.21961505331056" y1="26.818313649435495" y2="22.513508569990535" /><path d="M 56.25429882871898 25.957352633546506 a86.0,86.0 0 0,1 42.26535254187918,-11.944610805530505" fill="none" id="id36" stroke="none" /><text fill="#e1ed5e" style="font-size:6.75px; font-family:Arial;" text-anchor="middle"><textPath startOffset="22.20632615414155" xlink:href="#id36">December</textPath></text></svg>