<?xml version="1.0" encoding="utf-8" ?>
<svg baseProfile="full" height="200mm" version="1.1" viewBox="0,0,200,200" width="200mm" xmlns="http://www.w3.org/2000/svg" xmlns:ev="http://www.w3.org/2001/xml-events" xmlns:xlink="http://www.w3.org/1999/xlink"><defs /><rect fill="#1a1a1a" height="200" width="200" x="0" y="0" /><text alignment-baseline="middle" fill="#e1ed5e" style="dominant-baseline: central; font-size:9.0px; font-family:Arial;" text-anchor="middle" x="100.0" y="100.0">2020</text><line stroke="#e1ed5e" stroke-width="0.3" x1="100.0" x2="100.0" y1="15.0" y2="10.0" /><path d="M 100.0 14.0 a86.0,86.0 0 0,1 42.35913384403234,11.155469271406648" fill="none" id="id49" stroke="none" /><text fill="#e1ed5e" style="font-size:6.75px; font-family:Arial;" text-anchor="middle"><textPath startOffset="22.145653131862478" xlink:href="#id49">January</textPath></text><path d="M 101.80034050326958 79.07731436759882 l 0.13999160291958773 -1.6269146273958404 a22.632926469172002,22.632926469172002 0 0,0 0.3868079615076538,0.03663111611749607 l -0.16789912781225444 1.6242717557731605" fill="#ff0000" stroke="none" /><path d="M 104.29559338865022 79.4440306129975 l 0.34246003780078255 -1.6387952528059524 a22.674194958214198,22.674194958214198 0 0,0 0.38031922081847536,0.08288880404447094 l -0.37054167523839204 1.6326749906277627" fill="#ff0100" stroke="none" /><line stroke="#e1ed5e" stroke-width="0.3" x1="143.13028292997686" x2="145.6673583964461" y1="26.7553504044142" y2="22.446841604673864" /><path d="M 143.63769802327073 25.89364864446614 a86.0,86.0 0 0,1 29.32050498858742,28.57503671076992" fill="none" id="id50" stroke="none" /><text fill="#e1ed5e" style="font-size:6.75px; font-family:Arial;" text-anchor="middle"><textPath startOffset="20.669276256404974" xlink:href="#id50">February</textPath></text><path d="M 117.81537515405839 88.88188828441811 l 53.44612546217514 -33.35433514674568 a84.0,84.0 0 0,0 0.7529281421783907,1.2298515355017905 l -54.010821568808936 32.43194649511934" fill="#4dd2ff" stroke="none" /><line stroke="#e1ed5e" stroke-width="0.3" x1="172.87174338648825" x2="177.1583165268699" y1="56.24261187166439" y2="53.66864786411523" /><path d="M 173.72905801456457 55.72781907015455 a86.0,86.0 0 0,1 12.242430191666344,42.057860355516425" fill="none" id="id51" stroke="none" /><text fill="#e1ed5e" style="font-size:6.75px; font-family:Arial;" text-anchor="middle"><textPath startOffset="22.145653131862474" xlink:href="#id51">March</textPath></text><path d="M 120.05942366710727 93.78553927170692 l 6.374171124677728 -1.9747345081844931 a27.673052817450944,27.673052817450944 0 0,0 0.13668337499809527,0.45497450151017116 l -6.407130819679451 1.8650224030835987" fill="#ff4906" stroke="none" /><path d="M 120.26092885502905 94.47779374421319 l 8.282842123648015 -2.2575254529631485 a29.58498076969625,29.58498076969625 0 0,0 0.1293434497546611,0.4911381463843791 l -8.320375054207407 2.115006802205971" fill="#ff6309" stroke="none" /><path d="M 120.43855184770803 95.1765574152323 l 18.272738788029198 -4.312316599886716 a39.77469193550736,39.77469193550736 0 0,0 0.15112325720682698,0.6658769553655565 l -18.34407290679369 3.9980053105821334" fill="#ffea16" stroke="none" /><path d="M 120.51834098615036 95.52812308129327 l 18.181007022414434 -3.962465860044865 a39.607798151342465,39.607798151342465 0 0,0 0.13908427166125742,0.6655685889722441 l -18.246349004900058 3.6497808197872166" fill="#ffe815" stroke="none" /><path d="M 120.7213421655516 96.59031103205396 l 12.288270336547109 -2.0220302076435464 a33.45352135039269,33.45352135039269 0 0,0 0.08837864034478447,0.5674542695723204 l -12.321170469030159 1.810787756139785" fill="#ff980e" stroke="none" /><path d="M 120.77682067341334 96.94652285012252 l 8.832948506389412 -1.2981392511520164 a29.92782979407137,29.92782979407137 0 0,0 0.07033821466379556,0.5089322823647957 l -8.853931237608421 1.1463186605871352" fill="#ff6809" stroke="none" /><path d="M 120.82617615685814 97.30363454192243 l 18.854578097929917 -2.441102616581044 a40.011946171699975,40.011946171699975 0 0,0 0.08234442086816716,0.6819299301643553 l -18.893704605057746 2.1170790094932754" fill="#ffed16" stroke="none" /><path d="M 120.86939407059847 97.66154086499901 l 21.435036094070675 -2.401840503547401 a42.56918195385707,42.56918195385707 0 0,0 0.07513989185914845,0.7269102923222954 l -21.47310837841149 2.033525688942175" fill="#f2ff19" stroke="none" /><path d="M 120.9064616781168 98.02013634271609 l 18.465847646627235 -1.7487349710050115 a39.548466333022375,39.548466333022375 0 0,0 0.05820475343876595,0.6764274626378027 l -18.493146022763742 1.4314864609915465" fill="#ffe715" stroke="none" /><path d="M 120.96210409425399 98.7389718711861 l 33.13277290245478 -1.993185341878522 a54.192671299742074,54.192671299742074 0 0,0 0.04789189725836309,0.9290900123890694 l -33.162106389169715 1.4241235361127218" fill="#6eff28" stroke="none" /><path d="M 120.98066250479742 99.09900007780936 l 9.360073004269134 -0.4019618087187112 a30.368700013391198,30.368700013391198 0 0,0 0.017896293722120874,0.5210310651503036 l -9.365593984988102 0.24122447900428765" fill="#ff6e0a" stroke="none" /><path d="M 120.99303781780057 99.45929381324524 l 18.717897458000632 -0.48210664156477606 a39.724105107109054,39.724105107109054 0 0,0 0.011706444839863073,0.6818417236298295 l -18.72341533443916 0.16071800196588018" fill="#ffe915" stroke="none" /><line stroke="#e1ed5e" stroke-width="0.3" x1="184.99686870605535" x2="189.99668451229388" y1="99.2704041080226" y2="99.22748670261217" /><path d="M 185.99683186730306 99.26182062694052 a86.0,86.0 0 0,1 -10.086455211305974,41.156179273409016" fill="none" id="id52" stroke="none" /><text fill="#e1ed5e" style="font-size:6.75px; font-family:Arial;" text-anchor="middle"><textPath startOffset="21.40746469413373" xlink:href="#id52">April</textPath></text><path d="M 120.99922638620191 99.81974689727618 l 18.51311417240156 -0.15891281941931684 a39.51379619755363,39.51379619755363 0 0,0 0.0,0.6783318442862851 l -18.51311417240156 -0.1589128194193146" fill="#ffe615" stroke="none" /><path d="M 120.99922638620191 100.18025310272382 l 9.370675433662656 0.08043597847230634 a30.3710206503711,30.3710206503711 0 0,0 -0.008950149462527491,0.5213013361234902 l -9.367913852601461 -0.2412842305648675" fill="#ff6e0a" stroke="none" /><path d="M 120.99303781780057 100.54070618675476 l 21.3335075226327 0.5494754786220418 a42.34058261903439,42.34058261903439 0 0,0 -0.02495133155459338,0.726430793921133 l -21.32093150408126 -0.9156125371072855" fill="#f5ff19" stroke="none" /><path d="M 120.98066250479742 100.90099992219065 l 21.44357389176353 0.9208793289320781 a42.46333804397575,42.46333804397575 0 0,0 -0.037526288593544684,0.7279999734862017 l -21.42460601371341 -1.2888510957950106" fill="#f3ff19" stroke="none" /><path d="M 120.9064616781168 101.97986365728391 l 18.29964715141311 1.7329956113102285 a39.38152223443539,39.38152223443539 0 0,0 -0.06951327665050439,0.6724778942325108 l -18.267201482280942 -2.0468780278256706" fill="#ffe515" stroke="none" /><path d="M 120.86939407059847 102.33845913500099 l 9.328527703644912 1.0452809866401935 a30.386907981795822,30.386907981795822 0 0,0 -0.06253613180918047,0.5178888812110133 l -9.30920948557607 -1.2052635447746152" fill="#ff6f0a" stroke="none" /><line stroke="#e1ed5e" stroke-width="0.3" x1="174.33088141563837" x2="178.70328620479359" y1="141.23008692659167" y2="143.65538615756765" /><path d="M 175.20536237346943 141.71514677278685 a86.0,86.0 0 0,1 -30.301960400862466,31.63118572779886" fill="none" id="id53" stroke="none" /><text fill="#e1ed5e" style="font-size:6.75px; font-family:Arial;" text-anchor="middle"><textPath startOffset="22.145653131862474" xlink:href="#id53">May</textPath></text><line stroke="#e1ed5e" stroke-width="0.3" x1="143.1302829299769" x2="145.6673583964461" y1="173.24464959558577" y2="177.55315839532614" /><path d="M 143.63769802327073 174.10635135553383 a86.0,86.0 0 0,1 -40.685524379131806,11.842963189579606" fill="none" id="id54" stroke="none" /><text fill="#e1ed5e" style="font-size:6.75px; font-family:Arial;" text-anchor="middle"><textPath startOffset="21.407464694133747" xlink:href="#id54">June</textPath></text><line stroke="#e1ed5e" stroke-width="0.3" x1="101.45913802915013" x2="101.54496967792366" y1="184.9874750549273" y2="189.98673829345242" /><path d="M 101.47630435890484 185.9873277026323 a86.0,86.0 0 0,1 -42.54439059252881,-10.42667462771756" fill="none" id="id55" stroke="none" /><text fill="#e1ed5e" style="font-size:6.75px; font-family:Arial;" text-anchor="middle"><textPath startOffset="22.145653131862474" xlink:href="#id55">July</textPath></text><line stroke="#e1ed5e" stroke-width="0.3" x1="58.13341422392154" x2="55.670673884152215" y1="173.97424548756322" y2="178.32567169271397" /><path d="M 57.64086615596767 174.84453072859336 a86.0,86.0 0 0,1 -31.369924170532244,-30.572349798747886" fill="none" id="id56" stroke="none" /><text fill="#e1ed5e" style="font-size:6.75px; font-family:Arial;" text-anchor="middle"><textPath startOffset="22.145653131862474" xlink:href="#id56">August</textPath></text><line stroke="#e1ed5e" stroke-width="0.3" x1="26.387840678322732" x2="22.057713659400548" y1="142.50000000000003" y2="145.00000000000006" /><path d="M 25.521815274538298 143.00000000000003 a86.0,86.0 0 0,1 -11.493303480769221,-40.785679425670985" fill="none" id="id57" stroke="none" /><text fill="#e1ed5e" style="font-size:6.75px; font-family:Arial;" text-anchor="middle"><textPath startOffset="21.40746469413373" xlink:href="#id57">September</textPath></text><line stroke="#e1ed5e" stroke-width="0.3" x1="15.003131293944662" x2="10.003315487706104" y1="100.72959589197737" y2="100.7725132973878" /><path d="M 14.003168132696942 100.73817937305945 a86.0,86.0 0 0,1 10.791469493833604,-42.453326145846276" fill="none" id="id58" stroke="none" /><text fill="#e1ed5e" style="font-size:6.75px; font-family:Arial;" text-anchor="middle"><textPath startOffset="22.145653131862435" xlink:href="#id58">October</textPath></text><line stroke="#e1ed5e" stroke-width="0.3" x1="26.387840678322718" x2="22.05771365940052" y1="57.5" y2="55.0" /><path d="M 25.521815274538284 57.0 a86.0,86.0 0 0,1 29.574782752854787,-30.346332500585742" fill="none" id="id59" stroke="none" /><text fill="#e1ed5e" style="font-size:6.75px; font-family:Arial;" text-anchor="middle"><textPath startOffset="21.40746469413373" xlink:href="#id59">November</textPath></text><line stroke="#e1ed5e" stroke-width="0.3" x1="56.869717070023135" x2="54.33264160355391" y1="26.7553504044142" y2="22.446841604673864" /><path d="M 56.362301976729285 25.89364864446614 a86.0,86.0 0 0,1 42.16139366436587,-11.88097634709845" fill="none" id="id60" stroke="none" /><text fill="#e1ed5e" style="font-size:6.75px; font-family:Arial;" text-anchor="middle"><textPath startOffset="22.145653131862474" xlink:href="#id60">December</textPath></text></svg>