<?xml version="1.0" encoding="utf-8" ?>
<svg baseProfile="full" height="200mm" version="1.1" viewBox="0,0,200,200" width="200mm" xmlns="http://www.w3.org/2000/svg" xmlns:ev="http://www.w3.org/2001/xml-events" xmlns:xlink="http://www.w3.org/1999/xlink"><defs /><rect fill="#1a1a1a" height="200" width="200" x="0" y="0" /><text alignment-baseline="middle" fill="#e1ed5e" style="dominant-baseline: central; font-size:9.0px; font-family:Arial;" text-anchor="middle" x="100.0" y="100.0">2020</text><line stroke="#e1ed5e" stroke-width="0.3" x1="100.0" x2="100.0" y1="15.0" y2="10.0" /><path d="M 100.0 14.0 a86.0,86.0 0 0,1 42.35913384403234,11.155469271406648" fill="none" id="id49" stroke="none" /><text fill="#e1ed5e" style="font-size:6.75px; font-family:Arial;" text-anchor="middle"><textPath startOffset="22.145653131862478" xlink:href="#id49">January</textPath></text><path d="M 105.69591212413111 79.78721728523813 l 2.0265800928845836 -7.19161780919974 a28.471706203169056,28.471706203169056 0 0,0 0.46929504917331105,0.13660494923502164 l -2.149735154439499 7.1557691656622024" fill="#ff5d08" stroke="none" /><path d="M 106.04205211174951 79.88797359093562 l 0.26228268343415634 -0.873053750332619 a21.91160027259719,21.91160027259719 0 0,0 0.3593078477448278,0.11131448969987995 l -0.2772311640506144 0.8684226728260923" fill="#ff0000" stroke="none" /><path d="M 106.38641147887787 79.99465700312896 l 3.0522302561898282 -9.561067805050634 a31.036439961937518,31.036439961937518 0 0,0 0.5061559519678366,0.16638351494649536 l -3.2159089458054075 9.507263368702116" fill="#ff800b" stroke="none" /><path d="M 106.72888874123014 80.10723608172694 l 3.0458860732066135 -9.004620956948388 a30.50582035119895,30.50582035119895 0 0,0 0.4946217023149931,0.1720551037227141 l -3.2000135475666247 8.951007420657083" fill="#ff790b" stroke="none" /><path d="M 107.06938296918511 80.22567764915836 l 3.2062170013494975 -8.968359584958518 a30.52424805981343,30.52424805981343 0 0,0 0.4918922229067334,0.18062963766858015 l -3.3596983759103556 8.911999098281216" fill="#ff790b" stroke="none" /><path d="M 107.40779381753099 80.34994680014964 l 3.226725068358057 -8.559271601819441 a30.147288397141693,30.147288397141693 0 0,0 0.4826835509393395,0.18671236672700336 l -3.3731808817909226 8.502619346954399" fill="#ff740a" stroke="none" /><path d="M 107.74402155503746 80.48000691201159 l 1.2509058748772888 -3.1530999568880507 a24.39216816297924,24.39216816297924 0 0,0 0.38788836856759545,0.15775082267587723 l -1.3048487046353239 3.13116187763288" fill="#ff2403" stroke="none" /><path d="M 108.07796709384702 80.6158196554323 l 1.8980820076480325 -4.554705845862331 a25.93437540627886,25.93437540627886 0 0,0 0.40947282057546186,0.17477959834467693 l -1.9759899033939243 4.521451597858252" fill="#ff3a05" stroke="none" /><path d="M 108.4095320186766 80.7573450057729 l 1.6836471024149395 -3.85251405807707 a25.20434681409035,25.20434681409035 0 0,0 0.3949720345854998,0.17666596722863362 l -1.749532539856071 3.823044339938584" fill="#ff2f04" stroke="none" /><path d="M 108.73861861582097 80.90454125486305 l 1.460256423221434 -3.1909238190647944 a24.509179909983885,24.509179909983885 0 0,0 0.3810725644935004,0.17836120166473848 l -1.5148177015864392 3.1653863858295224" fill="#ff2503" stroke="none" /><path d="M 109.06512990194946 81.05736502329252 l 2.076498318828826 -4.339082849200247 a25.81035188321215,25.81035188321215 0 0,0 0.3980199009675124,0.1946914785947982 l -2.1506784690584055 4.302797620508228" fill="#ff3805" stroke="none" /><path d="M 109.71004243097381 81.37971332152246 l 1.6837447006327797 -3.228802473523842 a24.641450484345853,24.641450484345853 0 0,0 0.37338976854097855,0.19880902048571863 l -1.7389232849603178 3.19942298531555" fill="#ff2703" stroke="none" /><line stroke="#e1ed5e" stroke-width="0.3" x1="143.13028292997686" x2="145.6673583964461" y1="26.7553504044142" y2="22.446841604673864" /><path d="M 143.63769802327073 25.89364864446614 a86.0,86.0 0 0,1 29.32050498858742,28.57503671076992" fill="none" id="id50" stroke="none" /><text fill="#e1ed5e" style="font-size:6.75px; font-family:Arial;" text-anchor="middle"><textPath startOffset="20.669276256404974" xlink:href="#id50">February</textPath></text><path d="M 111.8722381534696 82.67804972795209 l 1.9258447450559735 -2.809865037604157 a24.406496662497986,24.406496662497986 0 0,0 0.34355620098503,0.2398289102067301 l -1.9737960372147643 2.7763913115923" fill="#ff2403" stroke="none" /><path d="M 114.91283532996326 85.21462403516908 l 1.1698932694821114 -1.159894241792107 a22.647423720274183,22.647423720274183 0 0,0 0.27135193942624364,0.2784309946524574 l -1.189632010059169 1.13964055507191" fill="#ff0b01" stroke="none" /><path d="M 115.16444852881244 85.47280134310134 l 3.5230980961950866 -3.3750482804517503 a25.878849361354966,25.878849361354966 0 0,0 0.30456222139414546,0.3234345248427384 l -3.5805161513254897 3.3140722956645146" fill="#ff3905" stroke="none" /><path d="M 115.41159269507618 85.73525988315684 l 21.642575664740164 -20.032044930389752 a50.49040361706087,50.49040361706087 0 0,0 0.5832899049009787,0.6411377828379595 l -21.98326327048302 19.65756957199412" fill="#92ff23" stroke="none" /><path d="M 115.6541949942343 86.00192230759917 l 8.939821897773763 -7.994043866666704 a32.992712491597004,32.992712491597004 0 0,0 0.3739000258569191,0.42542959354411286 l -9.075732987589271 7.839401995311296" fill="#ff9a0e" stroke="none" /><path d="M 115.8921839302757 86.27271002978787 l 8.534771001866178 -7.372131916292406 a32.2778830037163,32.2778830037163 0 0,0 0.3586002658689712,0.42243021150610444 l -8.66006583124226 7.224534922336748" fill="#ff900d" stroke="none" /><path d="M 116.1254893667686 86.54754324733833 l 9.258550163339324 -7.723811838004996 a33.05728080605145,33.05728080605145 0 0,0 0.3597784131211869,0.43887116485615957 l -9.38977539569914 7.563738391450343" fill="#ff9b0e" stroke="none" /><path d="M 116.7966241395341 87.39550010848427 l 9.639228420391564 -7.233456709503466 a33.051457194412016,33.051457194412016 0 0,0 0.3366495211283946,0.4567297308232484 l -9.761979961103787 7.066920669411343" fill="#ff9b0e" stroke="none" /><path d="M 117.01052211995028 87.68569379921539 l 7.997283651358025 -5.789416630654213 a30.872886645939673,30.872886645939673 0 0,0 0.30708951833965725,0.4319598654187197 l -8.095488268227642 5.65127953852599" fill="#ff7e0b" stroke="none" /><path d="M 117.21940702142032 87.97951657250589 l 8.567052913436404 -5.9804682844376655 a31.44798528534492,31.44798528534492 0 0,0 0.30521057893495274,0.44531135599475247 l -8.66845322918668 5.832522193372864" fill="#ff850c" stroke="none" /><path d="M 117.42321728460499 88.27688183743584 l 8.570025783177055 -5.766295815020241 a31.329351835940116,31.329351835940116 0 0,0 0.2963988835359732,0.4487856871831435 l -8.667749105633753 5.618330249498041" fill="#ff840c" stroke="none" /><path d="M 117.62189284568427 88.57770195909679 l 6.469630146991533 -4.193536097425991 a28.709854683408533,28.709854683408533 0 0,0 0.2645166170110066,0.4158640569835855 l -6.54066445562843 4.081858365763731" fill="#ff6008" stroke="none" /><path d="M 117.81537515405839 88.88188828441811 l 53.44612546217514 -33.35433514674568 a84.0,84.0 0 0,0 0.7529281421783907,1.2298515355017905 l -54.010821568808936 32.43194649511934" fill="#4dd2ff" stroke="none" /><line stroke="#e1ed5e" stroke-width="0.3" x1="172.87174338648825" x2="177.1583165268699" y1="56.24261187166439" y2="53.66864786411523" /><path d="M 173.72905801456457 55.72781907015455 a86.0,86.0 0 0,1 12.242430191666344,42.057860355516425" fill="none" id="id51" stroke="none" /><text fill="#e1ed5e" style="font-size:6.75px; font-family:Arial;" text-anchor="middle"><textPath startOffset="22.145653131862474" xlink:href="#id51">March</textPath></text><path d="M 118.00360718960297 89.18935116829356 l 1.4403002467693058 -0.8648589149976044 a22.680013614139646,22.680013614139646 0 0,0 0.1975605116495678,0.3355009396342245 l -1.4549344685486414 0.8400068070698234" fill="#ff0b01" stroke="none" /><path d="M 118.18653347947321 89.5 l 12.17985625571477 -7.032043287927872 a35.06408657585574,35.06408657585574 0 0,0 0.29648627913684594,0.5238628464682425 l -12.298775899872993 6.821923671360509" fill="#ffb510" stroke="none" /><path d="M 118.36410011445183 89.81374322990088 l 12.077462468501738 -6.699164841656394 a34.81100681535395,34.81100681535395 0 0,0 0.28537508132549105,0.5250580071736213 l -12.190682899442567 6.490852001008171" fill="#ffb210" stroke="none" /><path d="M 118.53625476483649 90.13048839642627 l 3.9647503172441745 -2.111006228482809 a25.49172487745866,25.49172487745866 0 0,0 0.2023459449991918,0.38802502984886594 l -4.000404331218311 2.042634955529445" fill="#ff3304" stroke="none" /><path d="M 118.70294669586156 90.45014215332178 l 14.427239011030936 -7.3666510371802785 a37.19915963823439,37.19915963823439 0 0,0 0.2855125609019557,0.571216379086182 l -14.55157148514463 7.117902801930347" fill="#ffd013" stroke="none" /><path d="M 118.8641267826498 90.77261029715802 l 11.282072527292385 -5.518627024962707 a33.559474700469536,33.559474700469536 0 0,0 0.24869287406488713,0.5196724576121481 l -11.375144659317185 5.3241420652854545" fill="#ffa10e" stroke="none" /><path d="M 119.16976305983485 91.42560881287824 l 1.65933770903982 -0.7422006513299293 a22.81776330678009,22.81776330678009 0 0,0 0.15686247188835523,0.3589320334812527 l -1.6718340629451456 0.7136065480728273" fill="#ff0d01" stroke="none" /><path d="M 119.31412917781788 91.75594674310238 l 5.636553667187899 -2.405909590323479 a27.128551068556078,27.128551068556078 0 0,0 0.17914423373242383,0.4298809457894085 l -5.677023745456806 2.308796135092794" fill="#ff4a06" stroke="none" /><path d="M 119.4528033332814 92.08871423366111 l 10.102437956023254 -4.108573568420826 a31.905944682714356,31.905944682714356 0 0,0 0.20198183631321825,0.5091261718103731 l -10.171478467302597 3.9345463793968873" fill="#ff8b0c" stroke="none" /><path d="M 119.58574465831526 92.42381321644754 l 10.862614270005373 -4.20189255517038 a32.64698629792792,32.64698629792792 0 0,0 0.1976997582393724,0.5244220968741787 l -10.933144712059187 4.014802178102042" fill="#ff950d" stroke="none" /><path d="M 119.71291397450082 92.76114493625339 l 4.976636407466637 -1.8274898224186988 a26.301568539891413,26.301568539891413 0 0,0 0.15199780407518068,0.42516491007831164 l -5.007274381585762 1.7417899559594705" fill="#ff3f05" stroke="none" /><path d="M 119.83427380445688 93.10060997987247 l 5.628129268694844 -1.9577555140786322 a26.95891313227881,26.95891313227881 0 0,0 0.1482927373972581,0.43840112822236893 l -5.660907427664466 1.8608527113821018" fill="#ff4806" stroke="none" /><path d="M 119.94978838288452 93.4421083053983 l 1.5872492625757286 -0.5217603593849749 a22.670806420317067,22.670806420317067 0 0,0 0.11835810978334498,0.37075509313928556 l -1.5959720881363306 0.4944362325543023" fill="#ff0b01" stroke="none" /><path d="M 120.16314734710363 94.1308016681162 l 8.553895877469108 -2.4899144241169817 a29.908917359702514,29.908917359702514 0 0,0 0.13926376380230582,0.49419796802173266 l -8.595378133345996 2.342708532192236" fill="#ff710a" stroke="none" /><path d="M 120.26092885502905 94.47779374421319 l 5.445239176953074 -1.484124151581627 a26.64386872557579,26.64386872557579 0 0,0 0.11648511528884394,0.4423129560317904 l -5.469913773046649 1.390430691177038" fill="#ff4406" stroke="none" /><path d="M 120.35273937422433 94.82641323984039 l 11.139087312111146 -2.8315124356765593 a32.49333410374146,32.49333410374146 0 0,0 0.1327777795797431,0.5417786512137248 l -11.18605261820718 2.63987795985474" fill="#ff930d" stroke="none" /><path d="M 120.43855184770803 95.1765574152323 l 14.979332309188502 -3.535081638361227 a36.39081539811901,36.39081539811901 0 0,0 0.13826627656332965,0.6092267263781738 l -15.037809447309497 3.277420578044027" fill="#ffc612" stroke="none" /><path d="M 120.51834098615036 95.52812308129327 l 14.794776046344728 -3.2244525794625263 a36.14207689515207,36.14207689515207 0 0,0 0.12691426122906072,0.6073306834608122 l -14.847948018398155 2.9700054447163096" fill="#ffc312" stroke="none" /><path d="M 120.592083275326 95.88100663000786 l 3.331771334759788 -0.6664475786502547 a24.397771711315492,24.397771711315492 0 0,0 0.07862322246467739,0.4113899229466465 l -3.3427208495066227 0.6091550906702937" fill="#ff2403" stroke="none" /><path d="M 120.65975698304385 96.23510406497455 l 6.145023656139912 -1.119828011656883 a27.24622530094861,27.24622530094861 0 0,0 0.07990303608602967,0.46085947873867467 l -6.163341509718176 1.0141754999976158" fill="#ff4c07" stroke="none" /><path d="M 120.7213421655516 96.59031103205396 l 6.843922400942522 -1.1261648266571789 a27.935958552855016,27.935958552855016 0 0,0 0.0738021569618888,0.47386278979049473 l -6.8622460500426765 1.0085138549352428" fill="#ff5607" stroke="none" /><path d="M 120.77682067341334 96.94652285012252 l 15.55979295736893 -2.2867537338351185 a36.7269322983027,36.7269322983027 0 0,0 0.08631788090603375,0.6245531870317997 l -15.596755354830178 2.0193122386032334" fill="#ffca12" stroke="none" /><path d="M 120.82617615685814 97.30363454192243 l 10.178162479538525 -1.3177669068880618 a31.263113615310665,31.263113615310665 0 0,0 0.06433935940384909,0.532822192475306 l -10.199283925202039 1.1428510374893426" fill="#ff830c" stroke="none" /><path d="M 120.86939407059847 97.66154086499901 l 4.979475993012578 -0.5579606712100595 a26.010638809134598,26.010638809134598 0 0,0 0.04591200717514981,0.44415702140417873 l -4.988320392669394 0.4723991275229497" fill="#ff3b05" stroke="none" /><path d="M 120.9064616781168 98.02013634271609 l 10.130620980368358 -0.9593803396078049 a31.17594674140473,31.17594674140473 0 0,0 0.045882646321190136,0.5332258998880898 l -10.145597249387288 0.7853333923440529" fill="#ff820b" stroke="none" /><path d="M 120.93736805541906 98.37931529534042 l 1.6896673953832562 -0.130790942606125 a22.694721858503346,22.694721858503346 0 0,0 0.026732262916188684,0.3886812358761476 l -1.691663619464511 0.10176628257564327" fill="#ff0b01" stroke="none" /><path d="M 120.96210409425399 98.7389718711861 l 18.48580632318071 -1.112060204095964 a39.51922550528725,39.51922550528725 0 0,0 0.034924476727876436,0.6775255183718636 l -18.50217238936516 0.7945628923473698" fill="#ffed16" stroke="none" /><path d="M 120.98066250479742 99.09900007780936 l 5.210835707693586 -0.22377570613447464 a26.21563844023246,26.21563844023246 0 0,0 0.015448891965492224,0.44977763335560955 l -5.213909286655926 0.13429180821474512" fill="#ff3e05" stroke="none" /><path d="M 120.99303781780057 99.45929381324524 l 15.852988954806701 -0.40831676105259124 a36.858246478680414,36.858246478680414 0 0,0 0.010861894261263844,0.6326508864386978 l -15.85766228066663 0.13611895864482698" fill="#ffcc13" stroke="none" /><line stroke="#e1ed5e" stroke-width="0.3" x1="184.99686870605535" x2="189.99668451229388" y1="99.2704041080226" y2="99.22748670261217" /><path d="M 185.99683186730306 99.26182062694052 a86.0,86.0 0 0,1 -10.086455211305974,41.156179273409016" fill="none" id="id52" stroke="none" /><text fill="#e1ed5e" style="font-size:6.75px; font-family:Arial;" text-anchor="middle"><textPath startOffset="21.40746469413373" xlink:href="#id52">April</textPath></text><path d="M 120.99922638620191 99.81974689727618 l 17.03806995789739 -0.14625133887573297 a38.03869764225918,38.03869764225918 0 0,0 0.0,0.6530088831991177 l -17.03806995789739 -0.1462513388757309" fill="#ffdb14" stroke="none" /><path d="M 120.99922638620191 100.18025310272382 l 11.335617743267486 0.09730264496114033 a32.336035348665646,32.336035348665646 0 0,0 -0.009529226980147389,0.555029698417127 l -11.33227708468867 -0.2918792593473384" fill="#ff910d" stroke="none" /><path d="M 120.99303781780057 100.54070618675476 l 11.662149658730055 0.3003756067160671 a32.66601732245103,32.66601732245103 0 0,0 -0.019250104234847073,0.5604457810913978 l -11.655274867498362 -0.5005276523715755" fill="#ff950d" stroke="none" /><path d="M 120.98066250479742 100.90099992219065 l 15.331046500353864 0.6583811021583061 a36.34517684719507,36.34517684719507 0 0,0 -0.03211946253351028,0.6231089923667243 l -15.31748544836378 -0.9214618879017611" fill="#ffc512" stroke="none" /><path d="M 120.96210409425399 101.26102812881392 l 3.426723393676217 0.20614317005871954 a24.43291832459348,24.43291832459348 0 0,0 -0.028779696025138704,0.4184504639304711 l -3.4226797364860118 -0.2649370581435338" fill="#ff2403" stroke="none" /><path d="M 120.93736805541906 101.62068470465957 l 5.201194082727765 0.40260531665349447 a26.216752910307328,26.216752910307328 0 0,0 -0.03858404081362192,0.44840504054930314 l -5.193516419216402 -0.49183140457845526" fill="#ff3e05" stroke="none" /><path d="M 120.9064616781168 101.97986365728391 l 21.940055543576026 2.077746070966391 a43.03821830345224,43.03821830345224 0 0,0 -0.0759677992552735,0.7349195453627597 l -21.901155351839087 -2.454070138612082" fill="#e7ff1a" stroke="none" /><path d="M 120.86939407059847 102.33845913500099 l 11.715548605011472 1.3127516574874587 a32.78886746174637,32.78886746174637 0 0,0 -0.06747935455262266,0.558825856718064 l -11.691287164199187 -1.513671191128931" fill="#ff970d" stroke="none" /><path d="M 120.82617615685814 102.69636545807758 l 10.092006436451758 1.3066122822064068 a31.17623847840627,31.17623847840627 0 0,0 -0.07327230105199044,0.53016186985625 l -10.068089618844557 -1.4796624602627426" fill="#ff820b" stroke="none" /><path d="M 120.77682067341334 103.0534771498775 l 13.616476929568304 2.001153199511163 a34.76274166368677,34.76274166368677 0 0,0 -0.09183738269924864,0.5896618766223416 l -13.580118054730788 -2.234603258064955" fill="#ffb110" stroke="none" /><path d="M 120.7213421655516 103.40968896794604 l 14.208170692165684 2.337949080552809 a35.39924026888133,35.39924026888133 0 0,0 -0.10381279393310976,0.5987646082297489 l -14.16594308074034 -2.5815067217031458" fill="#ffb911" stroke="none" /><path d="M 120.65975698304385 103.76489593502545 l 14.553790630934655 2.6521854652302164 a35.793475233056625,35.793475233056625 0 0,0 -0.11534653243464982,0.6035417985032826 l -14.506117806217846 -2.9016298287668136" fill="#ffbe11" stroke="none" /><path d="M 120.592083275326 104.11899336999214 l 11.714592874111682 2.343246661130221 a32.94665187912857,32.94665187912857 0 0,0 -0.1156934062018902,0.5536348301605302 l -11.672641757085428 -2.5439979425761603" fill="#ff990e" stroke="none" /><path d="M 120.51834098615036 104.47187691870673 l 11.808038881809999 2.573507115726356 a33.08522739169731,33.08522739169731 0 0,0 -0.1257067518453477,0.5538871430829116 l -11.762121268406988 -2.7758285927482844" fill="#ff9b0e" stroke="none" /><path d="M 120.43855184770803 104.8234425847677 l 12.744610391679632 3.007693350661443 a34.094705545651706,34.094705545651706 0 0,0 -0.1393214769319494,0.5684791694529462 l -12.691101388231388 -3.226028344722489" fill="#ffa80f" stroke="none" /><path d="M 120.35273937422433 105.17358676015961 l 23.699541582636602 6.024330793969779 a45.45323767402374,45.45323767402374 0 0,0 -0.19871834999800542,0.7545659425019645 l -23.592633751833866 -6.430277240844547" fill="#caff1d" stroke="none" /><path d="M 120.26092885502905 105.52220625578681 l 10.70522113527646 2.9177556244234695 a32.095722483868485,32.095722483868485 0 0,0 -0.14944610202040365,0.5303314942147817 l -10.653556541181477 -3.10109504254126" fill="#ff8e0d" stroke="none" /><path d="M 120.16314734710363 105.8691983318838 l 7.695330455438334 2.239998542630355 a29.01471797940407,29.01471797940407 0 0,0 -0.14331015823241147,0.4770329076527796 l -7.6557439772022935 -2.371769053873858" fill="#ff6409" stroke="none" /><path d="M 120.05942366710727 106.21446072829308 l 15.4867207933386 4.797825689182491 a37.21288537782851,37.21288537782851 0 0,0 -0.19427834595936505,0.608574151639975 l -15.402077731601981 -5.062968874513848" fill="#ffd013" stroke="none" /><path d="M 119.94978838288452 106.5578916946017 l 12.922392408894709 4.247847056131106 a34.60266261368491,34.60266261368491 0 0,0 -0.1903386659187381,0.5627024448242346 l -12.847568321403605 -4.469051175429502" fill="#ffaf10" stroke="none" /><path d="M 119.83427380445688 106.89939002012753 l 7.63231678194955 2.6549159679343504 a29.080893407094386,29.080893407094386 0 0,0 -0.16805963232643747,0.47009270232957473 l -7.585616979579169 -2.785543626644847" fill="#ff6509" stroke="none" /><path d="M 119.71291397450082 107.23885506374661 l 10.551405977527041 3.874622427149406 a32.24032326294767,32.24032326294767 0 0,0 -0.19523713633097323,0.5178896996850686 l -10.483338157381628 -4.055180407028632" fill="#ff900d" stroke="none" /><path d="M 119.58574465831526 107.57618678355244 l 11.130065457038308 4.305348419820594 a32.93374970803431,32.93374970803431 0 0,0 -0.20848839640571876,0.5255269536431113 l -11.054518385666464 -4.49577639067727" fill="#ff990e" stroke="none" /><path d="M 119.4528033332814 107.91128576633889 l 11.066107215505168 4.500489466884369 a32.946260266149935,32.946260266149935 0 0,0 -0.21756165800426122,0.5220687786695835 l -10.987219712964421 -4.68979075499523" fill="#ff990e" stroke="none" /><path d="M 119.16976305983485 108.57439118712176 l 8.762786235892378 3.919482825173469 a30.599414994299117,30.599414994299117 0 0,0 -0.21858988645200014,0.4776583510912526 l -8.694211884585322 -4.069330158479411" fill="#ff7a0b" stroke="none" /><path d="M 119.0197475246899 108.90220220490707 l 10.467722551146935 4.899422700233506 a32.55757579267181,32.55757579267181 0 0,0 -0.24126829066104735,0.5041579338497476 l -10.382075002525976 -5.078393136148358" fill="#ff940d" stroke="none" /><path d="M 118.8641267826498 109.22738970284198 l 10.61163836697895 5.1906840812691994 a32.813131255644336,32.813131255644336 0 0,0 -0.2518487306466463,0.503866168069667 l -10.52096972312057 -5.372082105502612" fill="#ff970e" stroke="none" /><path d="M 118.70294669586154 109.54985784667822 l 10.49577548246724 5.359217746708949 a32.78484271575147,32.78484271575147 0 0,0 -0.26023660669719917,0.4990380068246634 l -10.40223080679509 -5.538601996638115" fill="#ff970d" stroke="none" /><path d="M 118.5362547648365 109.86951160357373 l 13.762665241047397 7.327844055655229 a36.59192909941345,36.59192909941345 0 0,0 -0.2999747981433251,0.5519198417180562 l -13.634845093288734 -7.5630187308478884" fill="#ffc812" stroke="none" /><line stroke="#e1ed5e" stroke-width="0.3" x1="174.33088141563837" x2="178.70328620479359" y1="141.23008692659167" y2="143.65538615756765" /><path d="M 175.20536237346943 141.71514677278685 a86.0,86.0 0 0,1 -30.301960400862466,31.63118572779886" fill="none" id="id53" stroke="none" /><text fill="#e1ed5e" style="font-size:6.75px; font-family:Arial;" text-anchor="middle"><textPath startOffset="22.145653131862474" xlink:href="#id53">May</textPath></text><path d="M 118.36410011445183 110.18625677009912 l 4.1623971946533915 2.3088115584010085 a25.759848865065415,25.759848865065415 0 0,0 -0.21781379431083203,0.38485610403257625 l -4.122150035321178 -2.3799244325327065" fill="#ff3705" stroke="none" /><path d="M 118.18653347947321 110.5 l 5.49805182274318 3.1743016998792855 a27.348603399758574,27.348603399758574 0 0,0 -0.23822755014525643,0.40456246166371723 l -5.44275056246816 -3.268215329836552" fill="#ff4d07" stroke="none" /><path d="M 118.00360718960297 110.81064883170644 l 4.281365126481372 2.5708367448404235 a25.993925201169173,25.993925201169173 0 0,0 -0.23299473582904895,0.38057939074257274 l -4.236602426196919 -2.6439532517075532" fill="#ff3b05" stroke="none" /><path d="M 117.62189284568427 111.42229804090321 l 1.8158383285056172 1.1770044662010477 a23.16393353611595,23.16393353611595 0 0,0 -0.21914797581384915,0.3318179668800145 l -1.7953659137710414 -1.2080023114201233" fill="#ff1202" stroke="none" /><path d="M 117.423217284605 111.72311816256415 l 9.756337787951736 6.564499475255265 a32.75919981942826,32.75919981942826 0 0,0 -0.317936244615104,0.4638784825332251 l -9.642211806521312 -6.731012692858531" fill="#ff970d" stroke="none" /><path d="M 117.21940702142032 112.02048342749411 l 9.800147525541645 6.841264090640793 a32.95181098747262,32.95181098747262 0 0,0 -0.3277683710179799,0.4610472613944496 l -9.681264055993704 -7.008488578744747" fill="#ff990e" stroke="none" /><path d="M 117.01052211995028 112.31430620078461 l 11.269229744037549 8.158053276466598 a34.91220228021315,34.91220228021315 0 0,0 -0.3556023599818278,0.4824428967260233 l -11.127525364471891 -8.350302482461501" fill="#ffb310" stroke="none" /><path d="M 116.79662413953412 112.60449989151573 l 9.272409945881238 6.958189287683326 a32.59284194525692,32.59284194525692 0 0,0 -0.3396609053392019,0.44462702835055384 l -9.151597063187733 -7.116337229274757" fill="#ff950d" stroke="none" /><path d="M 116.57777611688842 112.89097897827484 l 1.359164399451614 1.05689445784595 a22.721729874214347,22.721729874214347 0 0,0 -0.24207684413124936,0.30585618453325664 l -1.3408211246788029 -1.0800705862938873" fill="#ff0c01" stroke="none" /><path d="M 116.35404254752997 113.17365903436017 l 9.151669313563469 7.371936986327029 a32.751532076933444,32.751532076933444 0 0,0 -0.3564508014757741,0.43481201971083755 l -9.023771692849067 -7.527951287736361" fill="#ff970d" stroke="none" /><path d="M 116.1254893667686 113.45245675266167 l 9.020187911802553 7.52496157012577 a32.74686496883737,32.74686496883737 0 0,0 -0.3638105535870564,0.4285679173369309 l -8.889682794708383 -7.678696269912256" fill="#ff970d" stroke="none" /><path d="M 115.89218393027572 113.72728997021213 l 16.130705373936813 13.93331911231208 a42.315183258566535,42.315183258566535 0 0,0 -0.47954978295732015,0.5456396232659492 l -15.889144527020907 -14.208171013389324" fill="#efff19" stroke="none" /><path d="M 115.6541949942343 113.99807769240083 l 9.129999239431779 8.164101618268985 a33.24783414916479,33.24783414916479 0 0,0 -0.3840952860292971,0.4221880029367923 l -8.988506252560603 -8.319627196763452" fill="#ff9d0e" stroke="none" /><path d="M 115.41159269507618 114.26474011684316 l 12.779084289839355 11.828129638024441 a38.41291606884761,38.41291606884761 0 0,0 -0.45207276740925545,0.48008561289068563 l -12.574155688693839 -12.04575671085962" fill="#ffdf14" stroke="none" /><path d="M 115.16444852881244 114.52719865689866 l 1.2274703454742755 1.1758888244618062 a22.699822925046284,22.699822925046284 0 0,0 -0.2719797647371945,0.27907519872988146 l -1.2071037795862716 -1.196786715259425" fill="#ff0b01" stroke="none" /><path d="M 114.65682725009322 115.03919595460226 l 1.7127829695875227 1.757466214740881 a23.454040137582247,23.454040137582247 0 0,0 -0.29074914121104667,0.2785311002685264 l -1.6823613425111639 -1.7866094453149874" fill="#ff1602" stroke="none" /><path d="M 114.39649973595853 115.28858382429668 l 8.034216148344733 8.53205913237967 a32.719413899881964,32.719413899881964 0 0,0 -0.4122182294268919,0.3815430390966973 l -7.886568147603873 -8.668719917608746" fill="#ff960d" stroke="none" /><path d="M 114.13192950727249 115.5334660781643 l 8.240039647006087 9.057247014544561 a33.24467136621921,33.24467136621921 0 0,0 -0.4254288508507874,0.3804211017552498 l -8.083345769331922 -9.197363646183197" fill="#ff9d0e" stroke="none" /><path d="M 113.86319453409587 115.77377054828091 l 5.496473217630984 6.253977547992104 a29.326070682075912,29.326070682075912 0 0,0 -0.3809882790473914,0.329088601332648 l -5.388305458820737 -6.34741028178947" fill="#ff6909" stroke="none" /><path d="M 113.59037401385872 116.0094264158162 l 4.454266391509736 5.247114609104939 a27.882782926085614,27.882782926085614 0 0,0 -0.36755571185395214,0.3066280474004574 l -4.363536345493889 -5.322804840417267" fill="#ff5507" stroke="none" /><path d="M 113.31354834802062 116.24036423190432 l 1.1057582169817546 1.3488452309466141 a22.74415730124037,22.74415730124037 0 0,0 -0.30406688767819967,0.2449347609479394 l -1.0824405589483024 -1.3676282856879571" fill="#ff0c01" stroke="none" /><path d="M 113.03279911837588 116.46651593811092 l 3.014800855278888 3.809102394871157 a25.857806629704758,25.857806629704758 0 0,0 -0.3504226009694846,0.27249073402602597 l -2.948968309674173 -3.860294180517976" fill="#ff3905" stroke="none" /><path d="M 112.7482090630111 116.68781488649013 l 6.262271064919418 8.197513845581309 a31.315777825206602,31.315777825206602 0 0,0 -0.4299909969444203,0.3226732603715332 l -6.120627079064232 -8.303806133216858" fill="#ff840c" stroke="none" /><path d="M 112.45986205192187 116.90419585922612 l 7.321313027414797 9.932767220567573 a33.339428232433434,33.339428232433434 0 0,0 -0.4636069593878486,0.3356156862475755 l -7.149725057652979 -10.056983678188226" fill="#ff9e0e" stroke="none" /><path d="M 112.16784306229584 117.11559508785304 l 7.2064463742524225 10.136769313390428 a33.437321313605665,33.437321313605665 0 0,0 -0.47067791991914987,0.3285697427929722 l -7.0313733631595134 -10.258983871988523" fill="#ffa00e" stroke="none" /><path d="M 111.8722381534696 117.32195027204791 l 6.905987802082938 10.076042591184908 a33.21553526546793,33.21553526546793 0 0,0 -0.473089994797445,0.31831606183536226 l -6.73200151918849 -10.193108327077391" fill="#ff9d0e" stroke="none" /><path d="M 111.5731344415666 117.5232005979908 l 6.730292202607732 10.190520203913236 a33.21243362965983,33.21243362965983 0 0,0 -0.47843992193726537,0.310118977052589 l -6.554366648413456 -10.304553022669719" fill="#ff9d0e" stroke="none" /><path d="M 111.27062007382361 117.71928675628689 l 0.9320961930720416 1.465410032571855 a22.736729649859655,22.736729649859655 0 0,0 -0.3311289295684547,0.20664894224045807 l -0.906803134713872 -1.481194771653861" fill="#ff0c01" stroke="none" /><path d="M 110.96478420261333 117.91015095944535 l 0.8387230693331162 1.369991101269939 a22.606341185611072,22.606341185611072 0 0,0 -0.3327085502170932,0.19978192491226426 l -0.8150817625585888 -1.3841870267181267" fill="#ff0a01" stroke="none" /><line stroke="#e1ed5e" stroke-width="0.3" x1="143.1302829299769" x2="145.6673583964461" y1="173.24464959558577" y2="177.55315839532614" /><path d="M 143.63769802327073 174.10635135553383 a86.0,86.0 0 0,1 -40.685524379131806,11.842963189579606" fill="none" id="id54" stroke="none" /><text fill="#e1ed5e" style="font-size:6.75px; font-family:Arial;" text-anchor="middle"><textPath startOffset="21.407464694133747" xlink:href="#id54">June</textPath></text><path d="M 110.65571695917076 118.09573695890943 l 3.6858700255986996 6.259413111621669 a28.26401337743456,28.26401337743456 0 0,0 -0.42020180309187904,0.24260362412906522 l -3.5778757546464197 -6.321763633026905" fill="#ff5a08" stroke="none" /><path d="M 110.34350942703117 118.27599006163325 l 5.247371030397349 9.271601817331172 a31.653520685190976,31.653520685190976 0 0,0 -0.47518839815846375,0.2635789942140964 l -5.087438444082791 -9.360313726978411" fill="#ff880c" stroke="none" /><path d="M 110.02825361518725 118.45085714620011 l 6.324422805027029 11.636225626663608 a34.24386917223848,34.24386917223848 0 0,0 -0.518894388635635,0.2762820351058058 l -6.12373960060484 -11.743078129491982" fill="#ffaa0f" stroke="none" /><path d="M 109.71004243097381 118.62028667847754 l 5.768979933748577 11.062779691479665 a33.47662710744409,33.47662710744409 0 0,0 -0.5118301749069274,0.261344134241859 l -5.578222537128067 -11.16018177739436" fill="#ffa00e" stroke="none" /><path d="M 109.3889696526874 118.78422872680471 l 5.320249567187153 10.644063028270889 a32.89962743983854,32.89962743983854 0 0,0 -0.5073431975946712,0.2481669812353956 l -5.136746120330412 -10.733823759603506" fill="#ff990e" stroke="none" /><path d="M 108.73861861582097 119.09545874513695 l 0.7059673421533398 1.5426660494253193 a22.6965283458394,22.6965283458394 0 0,0 -0.3556725371582426,0.15908780189884858 l -0.6793814021394703 -1.5545576022340182" fill="#ff0b01" stroke="none" /><path d="M 108.4095320186766 119.2426549942271 l 1.3053559813245732 2.9869099418961973 a24.25969097292645,24.25969097292645 0 0,0 -0.3830315530393775,0.16349339352847947 l -1.2538893531147643 -3.0088779850840783" fill="#ff2203" stroke="none" /><path d="M 108.07796709384702 119.3841803445677 l 6.812271166381442 16.34697087907413 a38.7096159011315,38.7096159011315 0 0,0 -0.6155668352006874,0.25034567296640325 l -6.530649869990314 -16.461503808619828" fill="#ffe315" stroke="none" /><path d="M 107.74402155503746 119.51999308798841 l 3.9093962517827925 9.854232361138966 a31.60138078180252,31.60138078180252 0 0,0 -0.5059647982069504,0.19571805330826716 l -3.739659191082314 -9.919890302585273" fill="#ff870c" stroke="none" /><path d="M 107.407793817531 119.65005319985036 l 4.366855712797263 11.583603591863561 a33.37939017035268,33.37939017035268 0 0,0 -0.5379022735627097,0.1975251655750639 l -4.167364287580425 -11.656859606447348" fill="#ff9f0e" stroke="none" /><path d="M 107.06938296918513 119.77432235084164 l 4.121298580953793 11.528005626386435 a33.242549396076335,33.242549396076335 0 0,0 -0.5389950567558208,0.18749045980415893 l -3.92279775215295 -11.597054518759183" fill="#ff9d0e" stroke="none" /><path d="M 106.38641147887787 120.00534299687104 l 4.467575213136514 13.994615724137278 a35.69042196641411,35.69042196641411 0 0,0 -0.5852538628999542,0.18131314276179766 l -4.226680717364935 -14.06924545470572" fill="#ffbd11" stroke="none" /><path d="M 106.0420521117495 120.11202640906438 l 3.625665359314836 12.068660797408407 a33.60150874858396,33.60150874858396 0 0,0 -0.5538488486759134,0.16121732796994914 l -3.417956498257315 -12.129121819680874" fill="#ffa20e" stroke="none" /><path d="M 105.69591212413111 120.21278271476187 l 3.323500644598784 11.793931317346976 a33.25326374697559,33.25326374697559 0 0,0 -0.5507668386105782,0.15011395101465722 l -3.1205524050535103 -11.849245762505776" fill="#ff9d0e" stroke="none" /><path d="M 105.3480935250658 120.30758222061773 l 2.9878746072406894 11.34544655344067 a32.732286740681566,32.732286740681566 0 0,0 -0.5445946537058405,0.1384338313511952 l -2.7926746603094514 -11.395065616627136" fill="#ff960d" stroke="none" /><path d="M 104.9986988182912 120.39639698878246 l 3.016333569361045 12.307670289347495 a33.67189867987199,33.67189867987199 0 0,0 -0.562589836633129,0.13276966959271339 l -2.804611578988037 -12.357636102586433" fill="#ffa30f" stroke="none" /><path d="M 104.64783097203107 120.47920084513623 l 2.319650039383019 10.220806077677507 a31.480727702917346,31.480727702917346 0 0,0 -0.528033116626029,0.11508236012582904 l -2.1438545061378536 -10.259119895937054" fill="#ff860c" stroke="none" /><path d="M 103.58742460773223 120.69131181640829 l 2.1409649397534523 12.34851683320532 a33.53274107500864,33.53274107500864 0 0,0 -0.5680166849846123,0.09346692935851622 l -1.9286707517157669 -12.383449761059508" fill="#ffa10e" stroke="none" /><path d="M 103.2317021107853 120.74984581791261 l 1.1401508547529058 7.320586376550401 a28.40884126352624,28.40884126352624 0 0,0 -0.48251049797506024,0.07091242704078413 l -1.0143152511701605 -7.339079876890067" fill="#ff5c08" stroke="none" /><path d="M 102.875027216393 120.80226474461374 l 0.9672706549623458 6.9986886139697075 a28.065214422454602,28.065214422454602 0 0,0 -0.47780650425801796,0.06186161799567072 l -0.8469863288135518 -7.014261828165774" fill="#ff5708" stroke="none" /><path d="M 102.15924093988457 120.88869738790638 l 0.1773855045488722 1.7160438453526967 a22.725187553976937,22.725187553976937 0 0,0 -0.3883847492990352,0.03678043956072022 l -0.1479011918648217 -1.7188360404186005" fill="#ff0c01" stroke="none" /><path d="M 101.80034050326958 120.92268563240118 l 1.6033661944110125 18.633545586713836 a39.702401029961976,39.702401029961976 0 0,0 -0.679536852954092,0.052600450110067816 l -1.2832603466816843 -18.65832380381896" fill="#ffef16" stroke="none" /><path d="M 101.44090949804482 120.95050786540614 l 0.592701716279807 8.61775287456228 a29.638110900625637,29.638110900625637 0 0,0 -0.5078781714149757,0.030552689619570913 l -0.4446791927323662 -8.626657542006543" fill="#ff6d0a" stroke="none" /><path d="M 101.08105385017728 120.97215588758144 l 0.6478301327906903 12.567731506928093 a33.584417313137095,33.584417313137095 0 0,0 -0.5760115219725471,0.02473641317853749 l -0.4319928502173138 -12.57700048853246" fill="#ffa20e" stroke="none" /><path d="M 100.72087961077811 120.9876233191556 l 0.39581671023600523 11.523771644607717 a32.53056736614322,32.53056736614322 0 0,0 -0.5582658744991793,0.014378948621711438 l -0.19793752166608208 -11.528868310579474" fill="#ff940d" stroke="none" /><line stroke="#e1ed5e" stroke-width="0.3" x1="101.45913802915013" x2="101.54496967792366" y1="184.9874750549273" y2="189.98673829345242" /><path d="M 101.47630435890484 185.9873277026323 a86.0,86.0 0 0,1 -42.54439059252881,-10.42667462771756" fill="none" id="id55" stroke="none" /><text fill="#e1ed5e" style="font-size:6.75px; font-family:Arial;" text-anchor="middle"><textPath startOffset="22.145653131862474" xlink:href="#id55">July</textPath></text><path d="M 100.36049292484886 120.99690560180557 l 0.21226191603476488 12.363192469613585 a33.36501448287501,33.36501448287501 0 0,0 -0.5727548408836156,0.004916411455862052 l -1.5142775407863548e-15 -12.365014482875011" fill="#ff9f0e" stroke="none" /><path d="M 100.0 121.0 l 2.6753590889189725e-15 21.845964818441217 a42.84596481844122,42.84596481844122 0 0,0 -0.7355079607319475,-0.006313451246333629 l 0.37501503588309254 -21.842745765389317" fill="#e9ff1a" stroke="none" /><path d="M 99.63950707515114 120.99690560180557 l -0.35958757070117275 20.944173261544115 a41.94725988836206,41.94725988836206 0 0,0 -0.719868284522858,-0.018541253460704496 l 0.7190691692947747 -20.934914290733364" fill="#f4ff19" stroke="none" /><path d="M 99.27912038922189 120.98762331915562 l -0.05969144278905321 1.7378512277262832 a22.738876061728376,22.738876061728376 0 0,0 -0.3899979709678483,-0.0167481909313499 l 0.0895151743577402 -1.7365704683691048" fill="#ff0c01" stroke="none" /><path d="M 98.91894614982273 120.97215588758144 l -1.1529913741689448 22.367724634755977 a43.397421602612596,43.397421602612596 0 0,0 -0.7436574888852154,-0.04473658786688377 l 1.5367932151866066 -22.3446360690644" fill="#e2ff1b" stroke="none" /><path d="M 98.55909050195518 120.95050786540614 l -1.5760967980106704 22.916101537375567 a43.970237064253524,43.970237064253524 0 0,0 -0.7525841194274198,-0.05825477051830427 l 1.9692499122133262 -22.88566899986221" fill="#dcff1b" stroke="none" /><path d="M 98.19965949673042 120.92268563240118 l -1.0653679659982522 12.381190666393806 a33.426942150849996,33.426942150849996 0 0,0 -0.5712830539354238,-0.05410109916843668 l 1.2777505833186913 -12.361077811720184" fill="#ffa00e" stroke="none" /><path d="M 97.84075906011543 120.88869738790638 l -1.4548090165241623 14.073957538520675 a35.14894872669496,35.14894872669496 0 0,0 -0.5996479250118621,-0.06719180074345925 l 1.6961928431368236 -14.046909977270246" fill="#ffb610" stroke="none" /><path d="M 97.12497278360702 120.80226474461374 l -3.4271482633483243 24.797137601590745 a46.03284599184034,46.03284599184034 0 0,0 -0.7818457372722538,-0.11490439904238635 l 3.8523191062282636 -24.734652129249476" fill="#c4ff1e" stroke="none" /><path d="M 96.76829788921471 120.74984581791261 l -0.27604729665564287 1.7724216674984037 a22.79378947410467,22.79378947410467 0 0,0 -0.38610779555292024,-0.06353389082698388 l 0.3064325952616261 -1.7674217781757513" fill="#ff0d01" stroke="none" /><path d="M 96.05791012581884 120.62667999033965 l -2.6378751171321233 13.80247727276028 a35.05228678894111,35.05228678894111 0 0,0 -0.5900526938127347,-0.11802706415202076 l 2.8744242964758167 -13.755160811945398" fill="#ffb510" stroke="none" /><path d="M 95.70440661134978 120.55596938700252 l -3.8927016956636864 18.627986787627343 a40.03037094361121,40.03037094361121 0 0,0 -0.6714381487151024,-0.1463368194146374 l 4.211902260997925 -18.558418510078987" fill="#fff316" stroke="none" /><path d="M 95.00130118170881 120.39639698878247 l -5.474653413505696 22.338454157161532 a43.999529650182346,43.999529650182346 0 0,0 -0.7320572743022247,-0.18608609643992458 l 5.8573159810333 -22.241182828886345" fill="#dbff1b" stroke="none" /><path d="M 94.6519064749342 120.30758222061772 l -0.6242471946673772 2.3703682765236853 a23.451189573737608,23.451189573737608 0 0,0 -0.3884171382834428,-0.10586481825344635 l 0.6648457338855152 -2.3593029641260967" fill="#ff1602" stroke="none" /><path d="M 94.30408787586889 120.21278271476187 l -9.329557765128776 33.10730921083754 a55.396723263632005,55.396723263632005 0 0,0 -0.9130962430749113,-0.2657890087518716 l 9.896514020585293 -32.942276507783156" fill="#5eff2a" stroke="none" /><path d="M 93.95794788825049 120.11202640906438 l -1.3286401734938609 4.422611020763776 a25.617875372030195,25.617875372030195 0 0,0 -0.42008358810884194,-0.13014296942058057 l 1.4043643944743365 -4.399151463536547" fill="#ff3505" stroke="none" /><path d="M 93.61358852112213 120.00534299687104 l -3.7160069399175097 11.640338812754491 a33.219091425029674,33.219091425029674 0 0,0 -0.5417515947177848,-0.178084509737707 l 3.915281272283038 -11.574833381614763" fill="#ff9d0e" stroke="none" /><path d="M 93.27111125876986 119.89276391827306 l -7.124120377021588 21.06119602143115 a43.2334673184243,43.2334673184243 0 0,0 -0.7009879084001769,-0.24383998260422823 l 7.484614057466786 -20.935797606258333" fill="#e4ff1a" stroke="none" /><path d="M 92.93061703081489 119.77432235084164 l -9.19684716023243 25.72521833243134 a48.31975212076304,48.31975212076304 0 0,0 -0.7786632527166719,-0.28593593200744505 l 9.63709956460322 -25.563551551415173" fill="#aaff21" stroke="none" /><path d="M 92.59220618246901 119.65005319985036 l -6.722251014006053 17.831569466115802 a40.056587530830875,40.056587530830875 0 0,0 -0.6413397998914842,-0.24808401214610631 l 7.027363076391067 -17.713545565831655" fill="#fff417" stroke="none" /><path d="M 92.25597844496254 119.51999308798841 l -3.6978106309452587 9.320898378670941 a31.02760938847552,31.02760938847552 0 0,0 -0.4934062731050949,-0.20066403584928563 l 3.8572713652407944 -9.256047086242365" fill="#ff800b" stroke="none" /><path d="M 91.92203290615298 119.3841803445677 l -1.3653772218937092 3.276408284419995 a24.549521968418023,24.549521968418023 0 0,0 -0.38760763838382717,-0.16544665225116767 l 1.4214199354479677 -3.2524869825094234" fill="#ff2603" stroke="none" /><path d="M 91.59046798132341 119.24265499422711 l -0.3853358133969116 0.8817237508162228 a21.962247609422693,21.962247609422693 0 0,0 -0.34416577768699413,-0.1539409747474298 l 0.40041499393954083 -0.8749790251589381" fill="#ff0100" stroke="none" /><path d="M 91.26138138417905 119.09545874513695 l -9.11425881900911 19.91630038136626 a42.90271067015896,42.90271067015896 0 0,0 -0.6670580590149027,-0.3122168533549082 l 9.454805591895504 -19.756907296440826" fill="#e8ff1a" stroke="none" /><path d="M 90.93487009805054 118.94263497670748 l -7.472341537188914 15.614319892958106 a38.310195659437994,38.310195659437994 0 0,0 -0.5907792482416072,-0.2889797346406328 l 7.73928103469259 -15.483746408220252" fill="#ffde14" stroke="none" /><path d="M 90.6110303473126 118.78422872680471 l -6.141602116006116 12.287318328168817 a34.736719704830705,34.736719704830705 0 0,0 -0.5310959573422184,-0.27118138002745223 l 6.351625295061916 -12.180078996468529" fill="#ffb110" stroke="none" /><path d="M 90.28995756902619 118.62028667847754 l -0.5198087524236739 0.9968018221254946 a22.124195272934806,22.124195272934806 0 0,0 -0.3352460179795195,-0.1784996217670382 l 0.5368435861897564 -0.9877317326358832" fill="#ff0300" stroke="none" /><path d="M 89.97174638481275 118.45085714620012 l -7.002669369565388 12.884122912911554 a35.66417408292952,35.66417408292952 0 0,0 -0.5353970549645749,-0.29697572120793114 l 7.2228106126860645 -12.762014276270476" fill="#ffbc11" stroke="none" /><line stroke="#e1ed5e" stroke-width="0.3" x1="58.13341422392154" x2="55.670673884152215" y1="173.97424548756322" y2="178.32567169271397" /><path d="M 57.64086615596767 174.84453072859336 a86.0,86.0 0 0,1 -31.369924170532244,-30.572349798747886" fill="none" id="id56" stroke="none" /><text fill="#e1ed5e" style="font-size:6.75px; font-family:Arial;" text-anchor="middle"><textPath startOffset="22.145653131862474" xlink:href="#id56">August</textPath></text><path d="M 89.03521579738668 117.91015095944536 l -6.180060785483151 10.09466484348785 a32.83619067160614,32.83619067160614 0 0,0 -0.478213570537037,-0.29844063653786246 l 6.3524384848099 -9.98708841010844" fill="#ff980e" stroke="none" /><path d="M 88.72937992617639 117.7192867562869 l -10.660073169251874 16.759405613154755 a40.86239755115295,40.86239755115295 0 0,0 -0.5886410647452263,-0.38155002640827446 l 10.94619986625411 -16.573941745042585" fill="#fffd18" stroke="none" /><path d="M 88.4268655584334 117.5232005979908 l -6.523301532127987 9.877109946817999 a32.836839264795074,32.836839264795074 0 0,0 -0.46769621482200946,-0.31468688595113953 l 6.691894035047002 -9.763673386809739" fill="#ff980e" stroke="none" /><path d="M 88.1277618465304 117.32195027204791 l -7.65099035087215 11.163023574539285 a34.53331994282477,34.53331994282477 0 0,0 -0.4861056615793288,-0.33933950465057605 l 7.841491103625244 -11.030039254083583" fill="#ffae10" stroke="none" /><path d="M 87.83215693770417 117.11559508785305 l -6.9447820998397525 9.76870574231418 a32.9857252719298,32.9857252719298 0 0,0 -0.45868848409482266,-0.3320550894374222 l 7.111451594308529 -9.648049881503692" fill="#ff9a0e" stroke="none" /><path d="M 87.54013794807813 116.9041958592261 l -1.0143370312021147 1.3761429918930541 a22.709575721342663,22.709575721342663 0 0,0 -0.31182087058827546,-0.2339961945240779 l 1.0378108907011565 -1.3585277701049612" fill="#ff0c01" stroke="none" /><path d="M 86.96720088162412 116.46651593811092 l -8.08749696550078 10.21828821822875 a34.0315394822629,34.0315394822629 0 0,0 -0.4549680234890381,-0.3664900342262223 l 8.26171575934508 -10.077949890209117" fill="#ffa70f" stroke="none" /><path d="M 86.68645165197938 116.24036423190432 l -5.795476604063949 7.069539125643529 a30.14144039619891,30.14144039619891 0 0,0 -0.3973297289046375,-0.33146659137374807 l 5.915980667130479 -6.969010350357911" fill="#ff740a" stroke="none" /><path d="M 86.40962598614128 116.0094264158162 l -13.55116035773956 15.96323282750916 a41.93940661400027,41.93940661400027 0 0,0 -0.5448538443270665,-0.470631773787476 l 13.823193681829489 -15.728256921256962" fill="#f4ff19" stroke="none" /><path d="M 86.13680546590413 115.77377054828092 l -7.818172783440666 8.895645465372585 a32.84298669750736,32.84298669750736 0 0,0 -0.42028853091404883,-0.3758245959710336 l 7.969726341178086 -8.760125339518172" fill="#ff980e" stroke="none" /><path d="M 85.86807049272751 115.53346607816431 l -8.961809305248355 9.850598304386825 a34.31721866524781,34.31721866524781 0 0,0 -0.43234830429205734,-0.40017513586732645 l 9.12958738085438 -9.695305422387118" fill="#ffab0f" stroke="none" /><path d="M 85.60350026404147 115.28858382429668 l -1.209212873871601 1.2841421680735912 a22.763864190396063,22.763864190396063 0 0,0 -0.282193341751688,-0.2703348379264719 l 1.2310787014886009 -1.2631951998415367" fill="#ff0c01" stroke="none" /><path d="M 85.34317274990678 115.03919595460226 l -12.480339448941915 12.805927732510911 a38.88157313692248,38.88157313692248 0 0,0 -0.4739998514814221,-0.4699485950432002 l 12.698331220553301 -12.589799127239049" fill="#ffe515" stroke="none" /><path d="M 85.08716467003676 114.78537596483093 l -8.368200700244715 8.296678047110474 a32.78395729697715,32.78395729697715 0 0,0 -0.3928036364965563,-0.40305113515713425 l 8.509391137892083 -8.151804219885602" fill="#ff970d" stroke="none" /><path d="M 84.83555147118756 114.52719865689866 l -9.707599401221374 9.299660631587594 a34.44325756642689,34.44325756642689 0 0,0 -0.4053547702220033,-0.430472718840014 l 9.86581000517963 -9.13164645280309" fill="#ffad10" stroke="none" /><path d="M 84.58840730492382 114.26474011684316 l -8.66661671430752 8.021691045688172 a32.80922404331412,32.80922404331412 0 0,0 -0.37902824697628,-0.41661843940293664 l 8.803042662125678 -7.871735030727563" fill="#ff970e" stroke="none" /><path d="M 84.3458050057657 113.99807769240083 l -5.081916885828109 4.544281415962078 a27.81735819961979,27.81735819961979 0 0,0 -0.31524873721001123,-0.35869519353248547 l 5.159176686996713 -4.456373944618292" fill="#ff5407" stroke="none" /><path d="M 84.1078160697243 113.72728997021213 l -10.345316980254037 8.936038410124457 a34.670346224187305,34.670346224187305 0 0,0 -0.38518001234254684,-0.45374108601815527 l 10.497191556103697 -8.757130541656744" fill="#ffb010" stroke="none" /><path d="M 83.87451063323141 113.45245675266167 l -1.3358548444211429 1.1144176225400444 a22.73966514099445,22.73966514099445 0 0,0 -0.24748679987727543,-0.30189365505950344 l 1.354788463537046 -1.091321685782048" fill="#ff0c01" stroke="none" /><path d="M 83.64595745247003 113.17365903436017 l -1.3832215504737235 1.1142253679456169 a22.776175674945605,22.776175674945605 0 0,0 -0.24265690857573424,-0.30658907700965043 l 1.4021448896910194 -1.0903163470212838" fill="#ff0d01" stroke="none" /><path d="M 83.4222238831116 112.89097897827486 l -9.504798122253524 7.390988509121829 a33.04026156222385,33.04026156222385 0 0,0 -0.34432361478997625,-0.4507306646966067 l 9.630273714397799 -7.226736931184354" fill="#ff9a0e" stroke="none" /><path d="M 83.20337586046588 112.60449989151573 l -8.982002641319799 6.740262232316022 a32.22975985536029,32.22975985536029 0 0,0 -0.3282800258266526,-0.44537490303831917 l 9.096384686730282 -6.585081020008823" fill="#ff900d" stroke="none" /><path d="M 82.98947788004972 112.3143062007846 l -10.825126234582122 7.836556583906923 a34.36394317136275,34.36394317136275 0 0,0 -0.34181470873676856,-0.4808051944669907 l 10.95805604184885 -7.649574162730429" fill="#ffac0f" stroke="none" /><path d="M 82.78059297857968 112.02048342749411 l -7.62539822185102 5.32312017712226 a30.299586359720244,30.299586359720244 0 0,0 -0.29406507954102107,-0.429049739291718 l 7.715653038207363 -5.191435702760492" fill="#ff760a" stroke="none" /><path d="M 82.576782715395 111.72311816256416 l -10.469029482762892 7.044030253943983 a33.618198783084566,33.618198783084566 0 0,0 -0.31805307170018055,-0.4815728879975776 l 10.588406993383803 -6.863277487607345" fill="#ffa20f" stroke="none" /><path d="M 82.37810715431573 111.42229804090323 l -1.482191539104615 0.9607386483174686 a22.766326840922762,22.766326840922762 0 0,0 -0.2097562604943427,-0.32977168108593147 l 1.4984654912248476 -0.9351532925528628" fill="#ff0c01" stroke="none" /><path d="M 82.18462484594161 111.1181117155819 l -1.433353871046513 0.8945188259269748 a22.689576056169653,22.689576056169653 0 0,0 -0.20337643269984657,-0.33220011848291053 l 1.448498268201762 -0.8697815913195073" fill="#ff0b01" stroke="none" /><path d="M 81.99639281039703 110.81064883170646 l -8.654822658425969 5.196972333131789 a31.095270015217068,31.095270015217068 0 0,0 -0.2708639226855556,-0.4599861572296946 l 8.742760291241295 -5.047635007608538" fill="#ff810b" stroke="none" /><line stroke="#e1ed5e" stroke-width="0.3" x1="26.387840678322732" x2="22.057713659400548" y1="142.50000000000003" y2="145.00000000000006" /><path d="M 25.521815274538298 143.00000000000003 a86.0,86.0 0 0,1 -11.493303480769221,-40.785679425670985" fill="none" id="id57" stroke="none" /><text fill="#e1ed5e" style="font-size:6.75px; font-family:Arial;" text-anchor="middle"><textPath startOffset="21.40746469413373" xlink:href="#id57">September</textPath></text><path d="M 81.81346652052679 110.50000000000001 l -11.750267156539591 6.78401990587816 a34.56803981175631,34.56803981175631 0 0,0 -0.29229192891336164,-0.5164518315182179 l 11.86499245047433 -6.5813113042608204" fill="#ffae10" stroke="none" /><path d="M 81.63589988554817 110.18625677009913 l -11.792345472427264 6.541015250147239 a34.48496541499957,34.48496541499957 0 0,0 -0.28270224593079524,-0.5201402910951042 l 11.90289306797339 -6.3376201255775495" fill="#ffad10" stroke="none" /><path d="M 81.4637452351635 109.86951160357371 l -16.628614419928383 8.85380056817988 a39.83880574844787,39.83880574844787 0 0,0 -0.31622892666384134,-0.6064106632248211 l 16.778151415567173 -8.567043661850555" fill="#fff116" stroke="none" /><path d="M 81.29705330413844 109.54985784667822 l -9.458055833788157 4.829350700048169 a31.6196727039542,31.6196727039542 0 0,0 -0.24268864717332425,-0.4855398650263697 l 9.539564394173219 -4.666278978858046" fill="#ff880c" stroke="none" /><path d="M 81.1358732173502 109.22738970284198 l -1.702661650683139 0.8328571348125025 a22.895443933149995,22.895443933149995 0 0,0 -0.16966695115304922,-0.35453867270141676 l 1.7167078597961 -0.8035059600459822" fill="#ff0e01" stroke="none" /><path d="M 80.9802524753101 108.90220220490707 l -1.5695751757546381 0.7346404347498384 a22.73299244104371,22.73299244104371 0 0,0 -0.1623953345947208,-0.35486311378115826 l 1.5819549752044149 -0.7075883387539914" fill="#ff0c01" stroke="none" /><path d="M 80.83023694016515 108.57439118712176 l -12.234294559436078 5.4722443424913285 a34.40236626536432,34.40236626536432 0 0,0 -0.23650171748386029,-0.5411622127101692 l 12.326430158936907 -5.2614200600053085" fill="#ffac0f" stroke="none" /><path d="M 80.68587082218212 108.24405325689762 l -9.74000353283419 4.157428331756039 a31.590178428775896,31.590178428775896 0 0,0 -0.20860672926439192,-0.5005802096212344 l 9.809936106635067 -3.989615612693523" fill="#ff870c" stroke="none" /><path d="M 80.5471966667186 107.91128576633889 l -5.858567186427256 2.382628272081736 a27.324533734656285,27.324533734656285 0 0,0 -0.17297903431514472,-0.43602016474271144 l 5.898604895708525 -2.2817070901254595" fill="#ff4d07" stroke="none" /><path d="M 80.41425534168474 107.57618678355246 l -10.98106131742342 4.247710417644073 a32.77398621747006,32.77398621747006 0 0,0 -0.19846882933098897,-0.5264621493158365 l 11.052360830568844 -4.058579988134091" fill="#ff970d" stroke="none" /><path d="M 80.28708602549918 107.23885506374661 l -11.006744683036755 4.041829106910828 a32.72539172254085,32.72539172254085 0 0,0 -0.18912133212823357,-0.5290060251687505 l 11.074506185208932 -3.852288125361156" fill="#ff960d" stroke="none" /><path d="M 80.16572619554312 106.89939002012753 l -1.6595940764347334 0.577292968792416 a22.75713393637321,22.75713393637321 0 0,0 -0.12518003489911322,-0.37007253014469915 l 1.6692595329062117 -0.5487187641735553" fill="#ff0c01" stroke="none" /><path d="M 80.05021161711548 106.5578916946017 l -1.7361125097428514 0.5706946655286055 a22.827506237403426,22.827506237403426 0 0,0 -0.11917619687781711,-0.3733177393108211 l 1.7456534223979256 -0.5408078925263927" fill="#ff0d01" stroke="none" /><path d="M 79.94057633289273 106.21446072829308 l -11.233125113126253 3.4800508743426306 a32.759840725756476,32.759840725756476 0 0,0 -0.16180815410335359,-0.5386067197600426 l 11.291209587233237 -3.2867065509918647" fill="#ff970d" stroke="none" /><path d="M 79.83685265289637 105.86919833188381 l -12.806234940728345 3.7277083511782063 a34.33774579561986,34.33774579561986 0 0,0 -0.15988555060264908,-0.5673774143863504 l 12.868338983405568 -3.5073230128888615" fill="#ffab0f" stroke="none" /><path d="M 79.73907114497094 105.5222062557868 l -11.206601181128203 3.054408985458389 a32.61539169736918,32.61539169736918 0 0,0 -0.14259219264249895,-0.541445781105727 l 11.257382854575434 -2.8615826999798575" fill="#ff950d" stroke="none" /><path d="M 79.64726062577567 105.17358676015961 l -11.416380536325335 2.9019992889250843 a32.77944584533201,32.77944584533201 0 0,0 -0.13394692035300693,-0.5465491445389168 l 11.464514983194634 -2.7055943197780685" fill="#ff970d" stroke="none" /><path d="M 79.56144815229197 104.8234425847677 l -10.102844861944886 2.3842438787986424 a31.38037057036573,31.38037057036573 0 0,0 -0.11922917770526867,-0.525345756229086 l 10.142284901207821 -2.21046378863053" fill="#ff840c" stroke="none" /><path d="M 79.407916724674 104.11899336999214 l -1.699802041099495 0.3400080139524923 a22.733474092243068,22.733474092243068 0 0,0 -0.07325992767283884,-0.38332689828308897 l 1.7053882610544906 -0.3107785506360888" fill="#ff0c01" stroke="none" /><path d="M 79.34024301695615 103.76489593502545 l -11.919994721289813 2.1722201141350013 a33.11630365993811,33.11630365993811 0 0,0 -0.09711779070856558,-0.5601496087584426 l 11.955527329490613 -1.967277472455966" fill="#ff9b0e" stroke="none" /><path d="M 79.2786578344484 103.40968896794605 l -13.136488767419275 2.1616042276585947 a34.31314650913015,34.31314650913015 0 0,0 -0.09064962706512167,-0.5820356334128453 l 13.171659886622663 -1.935780412314299" fill="#ffab0f" stroke="none" /><path d="M 79.22317932658666 103.0534771498775 l -11.926337089216647 1.7527608461413728 a33.054446770772635,33.054446770772635 0 0,0 -0.07768658097007035,-0.5621014003724215 l 11.95466818674193 -1.5477711375688663" fill="#ff9b0e" stroke="none" /><path d="M 79.17382384314188 102.69636545807758 l -11.211376728250132 1.4515371770536802 a32.30495149565524,32.30495149565524 0 0,0 -0.06648345748214537,-0.550578400332281 l 11.23464227199194 -1.2588650997980002" fill="#ff910d" stroke="none" /><path d="M 79.13060592940153 102.33845913500099 l -12.20436757518153 1.3675248426738156 a33.28074558426614,33.28074558426614 0 0,0 -0.058744648344528694,-0.5683011838842927 l 12.226044616007727 -1.1578191365065917" fill="#ff9e0e" stroke="none" /><path d="M 79.0935383218832 101.97986365728391 l -1.7880035891002515 0.16932579886811627 a22.796003357679965,22.796003357679965 0 0,0 -0.033549613369334506,-0.38989736238249406 l 1.7906468251673269 -0.13860738910995993" fill="#ff0d01" stroke="none" /><path d="M 79.06263194458094 101.62068470465958 l -5.059843864638099 0.3916639158120979 a26.07497985783836,26.07497985783836 0 0,0 -0.030713891161124253,-0.44657323671021965 l 5.0658217169642885 -0.30474725494753496" fill="#ff3c05" stroke="none" /><path d="M 79.03789590574601 101.26102812881392 l -10.195910572364756 0.6133606613540074 a31.214343038128103,31.214343038128103 0 0,0 -0.027585171092616857,-0.5351449497590854 l 10.204937332913946 -0.4382439182181913" fill="#ff820c" stroke="none" /><path d="M 79.01933749520258 100.90099992219065 l -7.786315186825623 0.3343778765745649 a28.79349169197824,28.79349169197824 0 0,0 -0.016968022482946835,-0.494005460854515 l 7.790907896305417 -0.20066615115592984" fill="#ff6109" stroke="none" /><path d="M 79.00696218219943 100.54070618675478 l -9.265098115236533 0.23863606188288217 a30.268170814944583,30.268170814944583 0 0,0 -0.00891984026054977,-0.5195359770582045 l 9.267829387095748 -0.0795531688556252" fill="#ff750a" stroke="none" /><line stroke="#e1ed5e" stroke-width="0.3" x1="15.003131293944662" x2="10.003315487706104" y1="100.72959589197737" y2="100.7725132973878" /><path d="M 14.003168132696942 100.73817937305945 a86.0,86.0 0 0,1 10.791469493833604,-42.453326145846276" fill="none" id="id58" stroke="none" /><text fill="#e1ed5e" style="font-size:6.75px; font-family:Arial;" text-anchor="middle"><textPath startOffset="22.145653131862435" xlink:href="#id58">October</textPath></text><path d="M 79.00077361379809 100.18025310272382 l -1.4482209536271424 0.012431235109331038 a22.44827430624556,22.44827430624556 0 0,0 0.0,-0.3853686756662966 l 1.4482209536271424 0.012431235109330505" fill="#ff0801" stroke="none" /><path d="M 79.00077361379809 99.81974689727619 l -3.029979415307609 -0.026008729119533388 a24.03009104008085,24.03009104008085 0 0,0 0.007081517242467759,-0.41246287737817067 l 3.029086466466475 0.07801852246675646" fill="#ff1f03" stroke="none" /><path d="M 79.00696218219943 99.45929381324524 l -1.6824209095822726 -0.0433331946730145 a22.682978871750983,22.682978871750983 0 0,0 0.013367093494368862,-0.3891683423102802 l 1.6814291290910532 0.07220780154743323" fill="#ff0b01" stroke="none" /><path d="M 79.01933749520258 99.09900007780938 l -1.6556521569458007 -0.07110082745203124 a22.65717814143913,22.65717814143913 0 0,0 0.020022914938307046,-0.38843920063841386 l 1.6541876525509234 0.0995118214671571" fill="#ff0b01" stroke="none" /><path d="M 79.03789590574601 98.7389718711861 l -5.192176952662124 -0.3123484721593854 a26.201563522232142,26.201563522232142 0 0,0 0.030862994896284916,-0.44874117229566496 l 5.186049996600776 0.40143306860937505" fill="#ff3d05" stroke="none" /><path d="M 79.06263194458094 98.37931529534042 l -7.186535625904066 -0.556283308272808 a28.20803339486238,28.20803339486238 0 0,0 0.04151467252648945,-0.48246342335040404 l 7.175927330679833 0.679567778998893" fill="#ff5908" stroke="none" /><path d="M 79.0935383218832 98.0201363427161 l -5.21557817331478 -0.49392067562908903 a26.238913371661287,26.238913371661287 0 0,0 0.04631494012230314,-0.44805503215657844 l 5.206330840710813 0.5833802300685802" fill="#ff3e05" stroke="none" /><path d="M 79.13060592940154 97.66154086499901 l -6.290215052343372 -0.7048317167481273 a27.329580803944385,27.329580803944385 0 0,0 0.05624416503544252,-0.4657823703220749 l 6.277188801048261 0.8127077639936384" fill="#ff4d07" stroke="none" /><path d="M 79.17382384314186 97.30363454192245 l -11.271018414945685 -1.4592589874645712 a32.36509097643045,32.36509097643045 0 0,0 0.07606641485125734,-0.5503786854215155 l 11.24430748353922 1.6525259810861537" fill="#ff920d" stroke="none" /><path d="M 79.22317932658666 96.9465228501225 l -9.516143066693715 -1.3985453244199677 a30.618363056686924,30.618363056686924 0 0,0 0.08088862359779928,-0.5193629890812075 l 9.490732950957648 1.5616964954326258" fill="#ff7a0b" stroke="none" /><path d="M 79.2786578344484 96.59031103205396 l -2.3289519331655852 -0.3832281543322464 a23.360271366870474,23.360271366870474 0 0,0 0.06850697978855481,-0.39513005439895155 l 2.322030135884796 0.4231512416517906" fill="#ff1502" stroke="none" /><path d="M 79.34024301695615 96.23510406497455 l -4.163718739771868 -0.7587682551552843 a25.232290515661564,25.232290515661564 0 0,0 0.08131250730516791,-0.4254613976157136 l 4.150079940184541 0.8301322178043125" fill="#ff3004" stroke="none" /><path d="M 79.407916724674 95.88100663000787 l -9.831624182307403 -1.9666001871555363 a31.026382715528662,31.026382715528662 0 0,0 0.10895030887058962,-0.5213666684015619 l 9.796416162612447 2.1350833068425072" fill="#ff800b" stroke="none" /><path d="M 79.48165901384962 95.52812308129327 l -11.020274439191425 -2.4018175219769518 a32.27897052589337,32.27897052589337 0 0,0 0.12264339276507916,-0.5403894177475631 l 10.977420184868684 2.590641273663523" fill="#ff900d" stroke="none" /><path d="M 79.56144815229197 95.17655741523228 l -9.878995177947022 -2.3314159628862403 a31.150371723139074,31.150371723139074 0 0,0 0.1272900213094917,-0.5193867247690075 l 9.837517630121232 2.500658512263365" fill="#ff810b" stroke="none" /><path d="M 79.64726062577567 94.8264132398404 l -9.8184230476847 -2.495804744076782 a31.130669892157293,31.130669892157293 0 0,0 0.13610109360455513,-0.5167980207781532 l 9.774132473275419 2.6639832692277197" fill="#ff810b" stroke="none" /><path d="M 79.73907114497095 94.47779374421319 l -11.798572211214704 -3.2157533220867163 a33.22895644164945,33.22895644164945 0 0,0 0.1547227365548816,-0.5490564086773471 l 11.74163098258524 3.4178176546670764" fill="#ff9d0e" stroke="none" /><path d="M 79.94057633289273 93.78553927170692 l -11.704017171125134 -3.6259344376125755 a33.25281267660029,33.25281267660029 0 0,0 0.173603884238319,-0.5438116947620942 l 11.640048571109558 3.8263151660660615" fill="#ff9d0e" stroke="none" /><path d="M 80.05021161711548 93.44210830539832 l -10.921297696337747 -3.5900474773221753 a32.49622478300853,32.49622478300853 0 0,0 0.17875179553803902,-0.5284479213956506 l 10.85806047922734 3.7769970731919873" fill="#ff930d" stroke="none" /><path d="M 80.16572619554312 93.10060997987247 l -11.251129674515775 -3.9137269434120503 a32.912395961365576,32.912395961365576 0 0,0 0.19020203701513028,-0.5320289490777785 l 11.182287467456701 4.10629084887075" fill="#ff990e" stroke="none" /><path d="M 80.28708602549916 92.7611449362534 l -7.769718731113107 -2.8531483398830755 a29.27701544096587,29.27701544096587 0 0,0 0.17729228731342045,-0.4702888556896948 l 7.719595759985251 2.986105475766915" fill="#ff6809" stroke="none" /><path d="M 80.41425534168474 92.42381321644754 l -11.367652172916763 -4.39725206546635 a33.188492181220255,33.188492181220255 0 0,0 0.21010105364036227,-0.529591903340089 l 11.290492444310269 4.5917449860200215" fill="#ff9c0e" stroke="none" /><path d="M 80.5471966667186 92.08871423366112 l -1.5759419036847222 -0.6409218526291866 a22.7012858974808,22.7012858974808 0 0,0 0.14990864998900477,-0.3597261876457673 l 1.564707409159239 0.6678805497162177" fill="#ff0b01" stroke="none" /><path d="M 80.83023694016515 91.42560881287825 l -11.194588681561841 -5.007197127843038 a33.26339426204801,33.26339426204801 0 0,0 0.23762028052184284,-0.5192431965731723 l 11.106983936184951 5.198629306630882" fill="#ff9d0e" stroke="none" /><path d="M 80.9802524753101 91.09779779509293 l -10.994285374514087 -5.145880689284943 a33.1389620217138,33.1389620217138 0 0,0 0.24557666001226805,-0.5131607687619624 l 10.904329456541912 5.333853960111993" fill="#ff9c0e" stroke="none" /><path d="M 81.1358732173502 90.77261029715801 l -10.878665610868582 -5.3213004871614595 a33.11039241097329,33.11039241097329 0 0,0 0.2541302820187566,-0.5084307991645592 l 10.78571541563808 5.507263142489789" fill="#ff9b0e" stroke="none" /><path d="M 81.29705330413844 90.45014215332179 l -10.85466342199834 -5.542468485811333 a33.18780845439739,33.18780845439739 0 0,0 0.2634352322739674,-0.5051717931227052 l 10.757920120749434 5.727986522038525" fill="#ff9c0e" stroke="none" /><path d="M 81.46374523516351 90.13048839642627 l -10.562157529949593 -5.623753968809387 a32.96602609010904,32.96602609010904 0 0,0 0.27025022362447393,-0.49722997255198015 l 10.464061956709768 5.804238774835988" fill="#ff990e" stroke="none" /><line stroke="#e1ed5e" stroke-width="0.3" x1="26.387840678322718" x2="22.05771365940052" y1="57.5" y2="55.0" /><path d="M 25.521815274538284 57.0 a86.0,86.0 0 0,1 29.574782752854787,-30.346332500585742" fill="none" id="id59" stroke="none" /><text fill="#e1ed5e" style="font-size:6.75px; font-family:Arial;" text-anchor="middle"><textPath startOffset="21.40746469413373" xlink:href="#id59">November</textPath></text><path d="M 81.81346652052679 89.5 l -5.234131658436976 -3.0219273219725302 a27.04385464394506,27.04385464394506 0 0,0 0.23557295208601936,-0.40005437380856995 l 5.181484996221177 3.111332864074673" fill="#ff4906" stroke="none" /><path d="M 81.99639281039701 89.18935116829357 l -10.591857219316985 -6.360105931423373 a33.354690882953086,33.354690882953086 0 0,0 0.2989724457075907,-0.48834902141177355 l 10.481116809154003 6.540992068959687" fill="#ff9f0e" stroke="none" /><path d="M 82.18462484594161 88.88188828441811 l -10.345841707200702 -6.4565704004375455 a33.19523439570801,33.19523439570801 0 0,0 0.3058424084714841,-0.48083506519097613 l 10.233481607103325 6.633219140307196" fill="#ff9c0e" stroke="none" /><path d="M 82.37810715431573 88.57770195909679 l -9.9119910192681 -6.424832825411492 a32.81211423922646,32.81211423922646 0 0,0 0.31042691460359667,-0.47002591416175277 l 9.800239665743778 6.594038617912304" fill="#ff970e" stroke="none" /><path d="M 82.576782715395 88.27688183743585 l -9.288107059299035 -6.249452944544242 a32.19484679891035,32.19484679891035 0 0,0 0.31245905710840877,-0.45588710227321644 l 9.179458265375313 6.407974781887495" fill="#ff8f0d" stroke="none" /><path d="M 82.78059297857968 87.97951657250589 l -9.272439323487447 -6.472882781722647 a32.30824223801727,32.30824223801727 0 0,0 0.32136685697895356,-0.45204273021499636 l 9.159957367978521 6.6311027386471615" fill="#ff910d" stroke="none" /><path d="M 82.98947788004972 87.6856937992154 l -5.052681617250831 -3.6577518391942276 a27.23768707474439,27.23768707474439 0 0,0 0.2774326788807499,-0.37639071139046915 l 4.989146918786262 3.74394885985356" fill="#ff4c07" stroke="none" /><path d="M 83.2033758604659 87.39550010848427 l -1.3846319502726376 -1.039053628992187 a22.731137799725268,22.731137799725268 0 0,0 0.23688878856936424,-0.3100950284695646 l 1.3665911843489666 1.0626695707026381" fill="#ff0c01" stroke="none" /><path d="M 83.42222388311158 87.10902102172516 l -8.530876570690902 -6.633661219914885 a31.806540438316308,31.806540438316308 0 0,0 0.33886622958133056,-0.42814641118967783 l 8.415743910468008 6.779127575019244" fill="#ff8a0c" stroke="none" /><path d="M 83.64595745247001 86.82634096563983 l -7.934571406790982 -6.391529066471404 a31.188673476808148,31.188673476808148 0 0,0 0.33944145365963596,-0.4140633810564177 l 7.823683133892719 6.526794729226317" fill="#ff820c" stroke="none" /><path d="M 83.8745106332314 86.54754324733833 l -9.076671219716928 -7.572081954486399 a32.82042239331134,32.82042239331134 0 0,0 0.36462776058820834,-0.4295305851294502 l 8.945348895621606 7.726779322065403" fill="#ff980e" stroke="none" /><path d="M 84.10781606972428 86.27271002978789 l -8.755846828178168 -7.563091949633536 a32.5700135487012,32.5700135487012 0 0,0 0.36910966053855354,-0.4199790371670424 l 8.624726103681022 7.712283264611879" fill="#ff940d" stroke="none" /><path d="M 84.34580500576568 86.00192230759919 l -8.534878193647732 -7.631940709430404 a32.44948316618111,32.44948316618111 0 0,0 0.37487234393374796,-0.412050373952131 l 8.402608148872117 7.7773286589401955" fill="#ff930d" stroke="none" /><path d="M 84.58840730492382 85.73525988315684 l -17.729111966787084 -16.409801356184996 a45.15787639012014,45.15787639012014 0 0,0 0.5314526528893688,-0.5643843004455841 l 17.444803480161443 16.711727116575087" fill="#ceff1d" stroke="none" /><path d="M 84.83555147118756 85.47280134310135 l -1.2323336394519098 -1.180547750080218 a22.706557701674413,22.706557701674413 0 0,0 0.2720604580081991,-0.27915799713462114 l 1.211886380292908 1.2015284392825694" fill="#ff0c01" stroke="none" /><path d="M 85.08716467003674 85.21462403516908 l -9.99481853238302 -9.909393246274563 a35.07453274551518,35.07453274551518 0 0,0 0.42758875145321923,-0.42393416870003436 l 9.823237860799825 10.079507425203271" fill="#ffb510" stroke="none" /><path d="M 85.34317274990677 84.96080404539775 l -7.906839724595772 -8.113114111996694 a32.32875699380676,32.32875699380676 0 0,0 0.4007649972982142,-0.38392380174068674 l 7.7664022414322575 8.247650044042949" fill="#ff910d" stroke="none" /><path d="M 85.60350026404147 84.71141617570332 l -8.480416713089696 -9.005908669535769 a33.37028126566533,33.37028126566533 0 0,0 0.4204182355130846,-0.38913284231109624 l 8.324568706262658 9.15015925797923" fill="#ff9f0e" stroke="none" /><path d="M 85.86807049272753 84.46653392183569 l -6.876351854996818 -7.5583152481865685 a31.21823586656169,31.21823586656169 0 0,0 0.3994967513438801,-0.35723245847091023 l 6.745590076829545 7.67524323654088" fill="#ff820c" stroke="none" /><path d="M 86.13680546590413 84.22622945171909 l -8.239325118681764 -9.374839513009082 a33.48094925500527,33.48094925500527 0 0,0 0.4349661901802003,-0.3757134353615841 l 8.077179448738715 9.514897080835377" fill="#ffa00e" stroke="none" /><path d="M 86.40962598614128 83.9905735841838 l -9.226517359170861 -10.868814249355378 a35.25691922422484,35.25691922422484 0 0,0 0.46476286379265863,-0.38772171083988916 l 9.038580161216293 11.025598144107148" fill="#ffb711" stroke="none" /><path d="M 86.68645165197937 83.75963576809568 l -11.497330196166217 -14.02487339958259 a39.13520541692304,39.13520541692304 0 0,0 0.5231989891804937,-0.42145207037061727 l 11.25488043663048 14.220173763746608" fill="#ffe815" stroke="none" /><path d="M 86.96720088162412 83.53348406188908 l -5.468851614575545 -6.909715361729144 a29.812065839651975,29.812065839651975 0 0,0 0.40401035561163273,-0.31416089615839904 l 5.349431314328667 7.002577309508346" fill="#ff6f0a" stroke="none" /><path d="M 87.25179093698888 83.31218511350988 l -6.575781689748933 -8.607909317309385 a31.83222080859964,31.83222080859964 0 0,0 0.43708217745203143,-0.3279946144243727 l 6.427046523386149 8.71952295899776" fill="#ff8a0c" stroke="none" /><path d="M 87.54013794807813 83.09580414077388 l -7.007912764247323 -9.507579573317592 a32.8112196937601,32.8112196937601 0 0,0 0.4562618677795044,-0.33029840636044344 l 6.843669886093851 9.626478751051115" fill="#ff970e" stroke="none" /><path d="M 87.83215693770416 82.88440491214696 l -7.261210854619231 -10.21380241337011 a33.53183716837261,33.53183716837261 0 0,0 0.47200836518728234,-0.32949849691771566 l 7.0848073982581825 10.336945726092955" fill="#ffa10e" stroke="none" /><path d="M 88.12776184653039 82.6780497279521 l -6.829791002191155 -9.964869182973832 a33.08075589387489,33.08075589387489 0 0,0 0.47117032763882744,-0.3170244240990246 l 6.657724386455339 10.080643281129966" fill="#ff9b0e" stroke="none" /><path d="M 88.4268655584334 82.4767994020092 l -11.868111639426258 -17.969833671859107 a42.53525008167229,42.53525008167229 0 0,0 0.6127392516783988,-0.39717018003232013 l 11.557886755490832 18.17091769359533" fill="#edff1a" stroke="none" /><path d="M 88.72937992617638 82.28071324371311 l -6.4118932477099735 -10.080561172560971 a32.94696984903589,32.94696984903589 0 0,0 0.47982691559616303,-0.29944748317724634 l 6.237902203324112 10.189144452579754" fill="#ff990e" stroke="none" /><path d="M 89.03521579738668 82.08984904055464 l -6.369664179712142 -10.404367738712649 a33.19932333388506,33.19932333388506 0 0,0 0.4886106355696337,-0.293396647735719 l 6.190120787585075 10.512178386984292" fill="#ff9d0e" stroke="none" /><line stroke="#e1ed5e" stroke-width="0.3" x1="56.869717070023135" x2="54.33264160355391" y1="26.7553504044142" y2="22.446841604673864" /><path d="M 56.362301976729285 25.89364864446614 a86.0,86.0 0 0,1 42.16139366436587,-11.88097634709845" fill="none" id="id60" stroke="none" /><text fill="#e1ed5e" style="font-size:6.75px; font-family:Arial;" text-anchor="middle"><textPath startOffset="22.145653131862474" xlink:href="#id60">December</textPath></text><path d="M 89.34428304082924 81.90426304109057 l -6.05973025298542 -10.29074675314043 a32.94235318001511,32.94235318001511 0 0,0 0.48975479948588724,-0.2827600653200867 l 5.882182985639133 10.39325371573669" fill="#ff990e" stroke="none" /><path d="M 89.65649057296885 81.72400993836675 l -5.966547344982626 -10.542317455059862 a33.113634654519636,33.113634654519636 0 0,0 0.4971078941006096,-0.2757373691165615 l 5.784695262725914 10.64318773960957" fill="#ff9b0e" stroke="none" /><path d="M 89.97174638481275 81.54914285379989 l -6.1925709856764275 -11.393633129838413 a33.967760458536894,33.967760458536894 0 0,0 0.514710537170925,-0.2740543698572143 l 5.996071632718941 11.498257967418203" fill="#ffa70f" stroke="none" /><path d="M 90.28995756902619 81.37971332152246 l -4.490030889148511 -8.61022626270644 a30.710631991817397,30.710631991817397 0 0,0 0.4695403779306947,-0.23975066257906383 l 4.3415632895042355 8.68603487695834" fill="#ff7b0b" stroke="none" /><path d="M 90.6110303473126 81.2157712731953 l -4.300498683796987 -8.60387815745502 a30.618784137180292,30.618784137180292 0 0,0 0.4721704487087366,-0.23096222722636364 l 4.152167985826197 8.676434134778598" fill="#ff7a0b" stroke="none" /><path d="M 90.93487009805054 81.0573650232925 l -2.7446514983283476 -5.735266017525743 a27.358174906296746,27.358174906296746 0 0,0 0.4253691845134646,-0.19909425650154658 l 2.6457935999433593 5.781536505597832" fill="#ff4e07" stroke="none" /><path d="M 91.26138138417902 80.90454125486306 l -5.336802271872178 -11.661876103505195 a33.82500731939618,33.82500731939618 0 0,0 0.5300645979582816,-0.23709115251724452 l 5.135824271058278 11.751771006932286" fill="#ffa50f" stroke="none" /><path d="M 91.5904679813234 80.7573450057729 l -5.951037901366795 -13.617139329423887 a35.86073132858699,35.86073132858699 0 0,0 0.566198127966489,-0.2416763126070602 l 5.716404698229874 13.717290291690352" fill="#ffbf11" stroke="none" /><path d="M 91.92203290615298 80.6158196554323 l -4.971858148909523 -11.93064961597574 a33.92516049076607,33.92516049076607 0 0,0 0.5394836190137925,-0.21940329129708458 l 4.76632006870529 12.014240163852117" fill="#ffa60f" stroke="none" /><path d="M 92.25597844496254 80.48000691201159 l -4.313738481746238 -10.873438916540923 a32.6978636323324,32.6978636323324 0 0,0 0.5235204147806795,-0.2025089429365832 l 4.126445804472031 10.945887747615547" fill="#ff960d" stroke="none" /><path d="M 92.592206182469 80.34994680014964 l -4.872365269863782 -12.924527750130782 a34.812435009326755,34.812435009326755 0 0,0 0.5609955078329426,-0.20600532107371822 l 4.649780610376712 13.006263920213222" fill="#ffb210" stroke="none" /><path d="M 92.93061703081487 80.22567764915836 l -4.2310481666686 -11.834994750508827 a33.56856671753948,33.56856671753948 0 0,0 0.5442811051449719,-0.18932922183101805 l 4.027261289478625 11.90588240490843" fill="#ffa10e" stroke="none" /><path d="M 93.27111125876988 80.10723608172694 l -0.8868294500688402 -2.62175368986206 a23.767681138392703,23.767681138392703 0 0,0 0.38761382708274533,-0.12741636395098266 l 0.8416928853383326 2.6365909752150714" fill="#ff1b02" stroke="none" /><path d="M 93.61358852112211 79.99465700312896 l -2.8695632853462514 -8.988866120581749 a30.435788657147295,30.435788657147295 0 0,0 0.49908804381088195,-0.15461875174954162 l 2.7148346086637543 9.036801460137932" fill="#ff780b" stroke="none" /><path d="M 93.9579478882505 79.88797359093562 l -3.4469976470909334 -11.473934091939162 a32.98052404217838,32.98052404217838 0 0,0 0.5436132468384347,-0.15823789345032352 l 3.2495243878708733 11.531415679692007" fill="#ff9a0e" stroke="none" /><path d="M 94.30408787586887 79.78721728523814 l -3.996063292938996 -14.180618888486245 a35.732904462517475,35.732904462517475 0 0,0 0.5918366081279941,-0.1613076993257772 l 3.7520452838763254 14.247127081956162" fill="#ffbd11" stroke="none" /><path d="M 94.6519064749342 79.69241777938228 l -3.0984245219393505 -11.76522258609666 a33.166375673081696,33.166375673081696 0 0,0 0.5518169572892035,-0.1402697126794916 l 2.8960022714247673 11.816677530611415" fill="#ff9c0e" stroke="none" /><path d="M 95.00130118170881 79.60360301121753 l -2.9362591238034206 -11.980939226000878 a33.33549846496871,33.33549846496871 0 0,0 0.5569692643052496,-0.13144322982735798 l 2.730157705758265 12.029578599474469" fill="#ff9e0e" stroke="none" /><path d="M 95.35216902796891 79.52079915486377 l -0.9926272503903194 -4.373698817238893 a25.48492477106744,25.48492477106744 0 0,0 0.4274642054287799,-0.09316383401175417 l 0.9174006283424218 4.390094109384361" fill="#ff3304" stroke="none" /><path d="M 95.70440661134978 79.44403061299748 l -0.8723204523435195 -4.1743691480222 a25.264539923079205,25.264539923079205 0 0,0 0.42529065020244977,-0.08507004099981125 l 0.8005333166100931 4.188728585684878" fill="#ff3004" stroke="none" /><path d="M 96.05791012581881 79.37332000966035 l -2.2862956361397218 -11.962864864860395 a33.17937943865544,33.17937943865544 0 0,0 0.5603606404391384,-0.1021163752830736 l 2.0806002621495443 12.00034941407483" fill="#ff9c0e" stroke="none" /><path d="M 96.41257539226777 79.30868818359171 l -2.2145903047246787 -12.77316837318001 a33.96372787848413,33.96372787848413 0 0,0 0.5753172422171597,-0.09466823327294763 l 1.9949955594544466 12.809302604948625" fill="#ffa70f" stroke="none" /><path d="M 96.76829788921471 79.25015418208739 l -1.7929464524548429 -11.512002397761542 a32.650787792567414,32.650787792567414 0 0,0 0.5545579184638034,-0.08150091676344096 l 1.5950634283833545 11.541084387823867" fill="#ff950d" stroke="none" /><path d="M 97.12497278360702 79.19773525538626 l -0.9201624557198675 -6.6578371511743555 a27.721123007092928,27.721123007092928 0 0,0 0.4719483941490037,-0.06110316835861173 l 0.8057362396800696 6.672651915733362" fill="#ff5307" stroke="none" /><path d="M 97.48249496171623 79.15144685158666 l -0.5460939659574339 -4.522441425202827 a25.55529308212388,25.55529308212388 0 0,0 0.43597828739973576,-0.048852276466825335 l 0.4683797769568991 4.531149462176623" fill="#ff3405" stroke="none" /><path d="M 97.84075906011542 79.11130261209362 l -2.0907874131939903 -20.226471613208403 a41.33424564440726,41.33424564440726 0 0,0 0.7064228004251802,-0.06689897366528141 l 1.7432650493837945 20.259382342378867" fill="#fbff18" stroke="none" /><path d="M 98.1996594967304 79.07731436759882 l -0.8652732553677362 -10.055786822162371 a31.092945378789537,31.092945378789537 0 0,0 0.5321794577570276,-0.04119405576851202 l 0.6925248028354912 10.069158644925936" fill="#ff810b" stroke="none" /><path d="M 98.5590905019552 79.04949213459386 l -1.477233644595935 -21.478652984205155 a42.5293927749166,42.5293927749166 0 0,0 0.7287829614490331,-0.043841773233032864 l 1.1083063310144186 21.50084673526288" fill="#edff1a" stroke="none" /><path d="M 98.9189461498227 79.02784411241856 l -0.6140146885826595 -11.91172092316071 a32.92753576347855,32.92753576347855 0 0,0 0.5647452451857228,-0.024252590777508878 l 0.4094436827961165 11.920506082364046" fill="#ff990e" stroke="none" /><path d="M 99.27912038922189 79.0123766808444 l -0.4326568858200616 -12.596333160580025 a33.60376138591871,33.60376138591871 0 0,0 0.5766832476489879,-0.014853314823130362 l 0.2163603241003297 12.601904192753201" fill="#ffa20f" stroke="none" /><path d="M 99.63950707515114 79.00309439819443 l -0.1970505658907057 -11.4772075832673 a32.478899025382454,32.478899025382454 0 0,0 0.5575434907395551,-0.004785840309589393 l 2.811519389834059e-15 11.478899025382454" fill="#ff930d" stroke="none" /></svg>